%TF.GenerationSoftware,KiCad,Pcbnew,7.0.1-0*%
%TF.CreationDate,2023-05-25T16:37:55+09:00*%
%TF.ProjectId,Battery,42617474-6572-4792-9e6b-696361645f70,rev?*%
%TF.SameCoordinates,Original*%
%TF.FileFunction,Legend,Bot*%
%TF.FilePolarity,Positive*%
%FSLAX46Y46*%
G04 Gerber Fmt 4.6, Leading zero omitted, Abs format (unit mm)*
G04 Created by KiCad (PCBNEW 7.0.1-0) date 2023-05-25 16:37:55*
%MOMM*%
%LPD*%
G01*
G04 APERTURE LIST*
%ADD10C,0.500000*%
%ADD11C,0.254000*%
%ADD12C,0.100000*%
%ADD13C,0.200000*%
G04 APERTURE END LIST*
D10*
X129779999Y-81989571D02*
X129779999Y-80275285D01*
X130637142Y-81132428D02*
X128922856Y-81132428D01*
X189779999Y-81989571D02*
X189779999Y-80275285D01*
X190637142Y-81132428D02*
X188922856Y-81132428D01*
X161779999Y-64401571D02*
X161779999Y-62687285D01*
X162637142Y-63544428D02*
X160922856Y-63544428D01*
X99779999Y-116989571D02*
X99779999Y-115275285D01*
X100637142Y-116132428D02*
X98922856Y-116132428D01*
X159779999Y-116989571D02*
X159779999Y-115275285D01*
X160637142Y-116132428D02*
X158922856Y-116132428D01*
D11*
%TO.C,BT5*%
X145777856Y-63640288D02*
X145596428Y-63700764D01*
X145596428Y-63700764D02*
X145535951Y-63761240D01*
X145535951Y-63761240D02*
X145475475Y-63882192D01*
X145475475Y-63882192D02*
X145475475Y-64063621D01*
X145475475Y-64063621D02*
X145535951Y-64184573D01*
X145535951Y-64184573D02*
X145596428Y-64245050D01*
X145596428Y-64245050D02*
X145717380Y-64305526D01*
X145717380Y-64305526D02*
X146201190Y-64305526D01*
X146201190Y-64305526D02*
X146201190Y-63035526D01*
X146201190Y-63035526D02*
X145777856Y-63035526D01*
X145777856Y-63035526D02*
X145656904Y-63096002D01*
X145656904Y-63096002D02*
X145596428Y-63156478D01*
X145596428Y-63156478D02*
X145535951Y-63277430D01*
X145535951Y-63277430D02*
X145535951Y-63398383D01*
X145535951Y-63398383D02*
X145596428Y-63519335D01*
X145596428Y-63519335D02*
X145656904Y-63579811D01*
X145656904Y-63579811D02*
X145777856Y-63640288D01*
X145777856Y-63640288D02*
X146201190Y-63640288D01*
X145112618Y-63035526D02*
X144386904Y-63035526D01*
X144749761Y-64305526D02*
X144749761Y-63035526D01*
X143358809Y-63035526D02*
X143963571Y-63035526D01*
X143963571Y-63035526D02*
X144024047Y-63640288D01*
X144024047Y-63640288D02*
X143963571Y-63579811D01*
X143963571Y-63579811D02*
X143842618Y-63519335D01*
X143842618Y-63519335D02*
X143540237Y-63519335D01*
X143540237Y-63519335D02*
X143419285Y-63579811D01*
X143419285Y-63579811D02*
X143358809Y-63640288D01*
X143358809Y-63640288D02*
X143298332Y-63761240D01*
X143298332Y-63761240D02*
X143298332Y-64063621D01*
X143298332Y-64063621D02*
X143358809Y-64184573D01*
X143358809Y-64184573D02*
X143419285Y-64245050D01*
X143419285Y-64245050D02*
X143540237Y-64305526D01*
X143540237Y-64305526D02*
X143842618Y-64305526D01*
X143842618Y-64305526D02*
X143963571Y-64245050D01*
X143963571Y-64245050D02*
X144024047Y-64184573D01*
%TO.C,BT3*%
X159702288Y-97808143D02*
X159762764Y-97989571D01*
X159762764Y-97989571D02*
X159823240Y-98050048D01*
X159823240Y-98050048D02*
X159944192Y-98110524D01*
X159944192Y-98110524D02*
X160125621Y-98110524D01*
X160125621Y-98110524D02*
X160246573Y-98050048D01*
X160246573Y-98050048D02*
X160307050Y-97989571D01*
X160307050Y-97989571D02*
X160367526Y-97868619D01*
X160367526Y-97868619D02*
X160367526Y-97384809D01*
X160367526Y-97384809D02*
X159097526Y-97384809D01*
X159097526Y-97384809D02*
X159097526Y-97808143D01*
X159097526Y-97808143D02*
X159158002Y-97929095D01*
X159158002Y-97929095D02*
X159218478Y-97989571D01*
X159218478Y-97989571D02*
X159339430Y-98050048D01*
X159339430Y-98050048D02*
X159460383Y-98050048D01*
X159460383Y-98050048D02*
X159581335Y-97989571D01*
X159581335Y-97989571D02*
X159641811Y-97929095D01*
X159641811Y-97929095D02*
X159702288Y-97808143D01*
X159702288Y-97808143D02*
X159702288Y-97384809D01*
X159097526Y-98473381D02*
X159097526Y-99199095D01*
X160367526Y-98836238D02*
X159097526Y-98836238D01*
X159097526Y-99501476D02*
X159097526Y-100287667D01*
X159097526Y-100287667D02*
X159581335Y-99864333D01*
X159581335Y-99864333D02*
X159581335Y-100045762D01*
X159581335Y-100045762D02*
X159641811Y-100166714D01*
X159641811Y-100166714D02*
X159702288Y-100227190D01*
X159702288Y-100227190D02*
X159823240Y-100287667D01*
X159823240Y-100287667D02*
X160125621Y-100287667D01*
X160125621Y-100287667D02*
X160246573Y-100227190D01*
X160246573Y-100227190D02*
X160307050Y-100166714D01*
X160307050Y-100166714D02*
X160367526Y-100045762D01*
X160367526Y-100045762D02*
X160367526Y-99682905D01*
X160367526Y-99682905D02*
X160307050Y-99561952D01*
X160307050Y-99561952D02*
X160246573Y-99501476D01*
%TO.C,BT4*%
X189702288Y-97808143D02*
X189762764Y-97989571D01*
X189762764Y-97989571D02*
X189823240Y-98050048D01*
X189823240Y-98050048D02*
X189944192Y-98110524D01*
X189944192Y-98110524D02*
X190125621Y-98110524D01*
X190125621Y-98110524D02*
X190246573Y-98050048D01*
X190246573Y-98050048D02*
X190307050Y-97989571D01*
X190307050Y-97989571D02*
X190367526Y-97868619D01*
X190367526Y-97868619D02*
X190367526Y-97384809D01*
X190367526Y-97384809D02*
X189097526Y-97384809D01*
X189097526Y-97384809D02*
X189097526Y-97808143D01*
X189097526Y-97808143D02*
X189158002Y-97929095D01*
X189158002Y-97929095D02*
X189218478Y-97989571D01*
X189218478Y-97989571D02*
X189339430Y-98050048D01*
X189339430Y-98050048D02*
X189460383Y-98050048D01*
X189460383Y-98050048D02*
X189581335Y-97989571D01*
X189581335Y-97989571D02*
X189641811Y-97929095D01*
X189641811Y-97929095D02*
X189702288Y-97808143D01*
X189702288Y-97808143D02*
X189702288Y-97384809D01*
X189097526Y-98473381D02*
X189097526Y-99199095D01*
X190367526Y-98836238D02*
X189097526Y-98836238D01*
X189520859Y-100166714D02*
X190367526Y-100166714D01*
X189037050Y-99864333D02*
X189944192Y-99561952D01*
X189944192Y-99561952D02*
X189944192Y-100348143D01*
%TO.C,BT1*%
X99702288Y-97808143D02*
X99762764Y-97989571D01*
X99762764Y-97989571D02*
X99823240Y-98050048D01*
X99823240Y-98050048D02*
X99944192Y-98110524D01*
X99944192Y-98110524D02*
X100125621Y-98110524D01*
X100125621Y-98110524D02*
X100246573Y-98050048D01*
X100246573Y-98050048D02*
X100307050Y-97989571D01*
X100307050Y-97989571D02*
X100367526Y-97868619D01*
X100367526Y-97868619D02*
X100367526Y-97384809D01*
X100367526Y-97384809D02*
X99097526Y-97384809D01*
X99097526Y-97384809D02*
X99097526Y-97808143D01*
X99097526Y-97808143D02*
X99158002Y-97929095D01*
X99158002Y-97929095D02*
X99218478Y-97989571D01*
X99218478Y-97989571D02*
X99339430Y-98050048D01*
X99339430Y-98050048D02*
X99460383Y-98050048D01*
X99460383Y-98050048D02*
X99581335Y-97989571D01*
X99581335Y-97989571D02*
X99641811Y-97929095D01*
X99641811Y-97929095D02*
X99702288Y-97808143D01*
X99702288Y-97808143D02*
X99702288Y-97384809D01*
X99097526Y-98473381D02*
X99097526Y-99199095D01*
X100367526Y-98836238D02*
X99097526Y-98836238D01*
X100367526Y-100287667D02*
X100367526Y-99561952D01*
X100367526Y-99924809D02*
X99097526Y-99924809D01*
X99097526Y-99924809D02*
X99278954Y-99803857D01*
X99278954Y-99803857D02*
X99399907Y-99682905D01*
X99399907Y-99682905D02*
X99460383Y-99561952D01*
%TO.C,BT2*%
X129702288Y-97808143D02*
X129762764Y-97989571D01*
X129762764Y-97989571D02*
X129823240Y-98050048D01*
X129823240Y-98050048D02*
X129944192Y-98110524D01*
X129944192Y-98110524D02*
X130125621Y-98110524D01*
X130125621Y-98110524D02*
X130246573Y-98050048D01*
X130246573Y-98050048D02*
X130307050Y-97989571D01*
X130307050Y-97989571D02*
X130367526Y-97868619D01*
X130367526Y-97868619D02*
X130367526Y-97384809D01*
X130367526Y-97384809D02*
X129097526Y-97384809D01*
X129097526Y-97384809D02*
X129097526Y-97808143D01*
X129097526Y-97808143D02*
X129158002Y-97929095D01*
X129158002Y-97929095D02*
X129218478Y-97989571D01*
X129218478Y-97989571D02*
X129339430Y-98050048D01*
X129339430Y-98050048D02*
X129460383Y-98050048D01*
X129460383Y-98050048D02*
X129581335Y-97989571D01*
X129581335Y-97989571D02*
X129641811Y-97929095D01*
X129641811Y-97929095D02*
X129702288Y-97808143D01*
X129702288Y-97808143D02*
X129702288Y-97384809D01*
X129097526Y-98473381D02*
X129097526Y-99199095D01*
X130367526Y-98836238D02*
X129097526Y-98836238D01*
X129218478Y-99561952D02*
X129158002Y-99622428D01*
X129158002Y-99622428D02*
X129097526Y-99743381D01*
X129097526Y-99743381D02*
X129097526Y-100045762D01*
X129097526Y-100045762D02*
X129158002Y-100166714D01*
X129158002Y-100166714D02*
X129218478Y-100227190D01*
X129218478Y-100227190D02*
X129339430Y-100287667D01*
X129339430Y-100287667D02*
X129460383Y-100287667D01*
X129460383Y-100287667D02*
X129641811Y-100227190D01*
X129641811Y-100227190D02*
X130367526Y-99501476D01*
X130367526Y-99501476D02*
X130367526Y-100287667D01*
D12*
%TO.C,BT5*%
X167380000Y-63718000D02*
X167380000Y-63718000D01*
X167280000Y-63718000D02*
X167280000Y-63718000D01*
D13*
X166730000Y-73878000D02*
X122830000Y-73878000D01*
X166730000Y-53468000D02*
X166730000Y-73878000D01*
X122830000Y-73878000D02*
X122830000Y-53468000D01*
X122830000Y-53468000D02*
X166730000Y-53468000D01*
D12*
X167280000Y-63718000D02*
G75*
G03*
X167380000Y-63718000I50000J0D01*
G01*
X167380000Y-63718000D02*
G75*
G03*
X167280000Y-63718000I-50000J0D01*
G01*
%TO.C,BT3*%
X159780000Y-121406000D02*
X159780000Y-121406000D01*
X159780000Y-121306000D02*
X159780000Y-121306000D01*
D13*
X149620000Y-120756000D02*
X149620000Y-76856000D01*
X170030000Y-120756000D02*
X149620000Y-120756000D01*
X149620000Y-76856000D02*
X170030000Y-76856000D01*
X170030000Y-76856000D02*
X170030000Y-120756000D01*
D12*
X159780000Y-121306000D02*
G75*
G03*
X159780000Y-121406000I0J-50000D01*
G01*
X159780000Y-121406000D02*
G75*
G03*
X159780000Y-121306000I0J50000D01*
G01*
%TO.C,BT4*%
X189780000Y-76206000D02*
X189780000Y-76206000D01*
X189780000Y-76306000D02*
X189780000Y-76306000D01*
D13*
X199940000Y-76856000D02*
X199940000Y-120756000D01*
X179530000Y-76856000D02*
X199940000Y-76856000D01*
X199940000Y-120756000D02*
X179530000Y-120756000D01*
X179530000Y-120756000D02*
X179530000Y-76856000D01*
D12*
X189780000Y-76306000D02*
G75*
G03*
X189780000Y-76206000I0J50000D01*
G01*
X189780000Y-76206000D02*
G75*
G03*
X189780000Y-76306000I0J-50000D01*
G01*
%TO.C,BT1*%
X99780000Y-121406000D02*
X99780000Y-121406000D01*
X99780000Y-121306000D02*
X99780000Y-121306000D01*
D13*
X89620000Y-120756000D02*
X89620000Y-76856000D01*
X110030000Y-120756000D02*
X89620000Y-120756000D01*
X89620000Y-76856000D02*
X110030000Y-76856000D01*
X110030000Y-76856000D02*
X110030000Y-120756000D01*
D12*
X99780000Y-121306000D02*
G75*
G03*
X99780000Y-121406000I0J-50000D01*
G01*
X99780000Y-121406000D02*
G75*
G03*
X99780000Y-121306000I0J50000D01*
G01*
%TO.C,BT2*%
X129780000Y-76206000D02*
X129780000Y-76206000D01*
X129780000Y-76306000D02*
X129780000Y-76306000D01*
D13*
X139940000Y-76856000D02*
X139940000Y-120756000D01*
X119530000Y-76856000D02*
X139940000Y-76856000D01*
X139940000Y-120756000D02*
X119530000Y-120756000D01*
X119530000Y-120756000D02*
X119530000Y-76856000D01*
D12*
X129780000Y-76306000D02*
G75*
G03*
X129780000Y-76206000I0J50000D01*
G01*
X129780000Y-76206000D02*
G75*
G03*
X129780000Y-76306000I0J-50000D01*
G01*
%TD*%
M02*
