%TF.GenerationSoftware,KiCad,Pcbnew,7.0.1-0*%
%TF.CreationDate,2023-05-22T13:54:53+09:00*%
%TF.ProjectId,Battery,42617474-6572-4792-9e6b-696361645f70,rev?*%
%TF.SameCoordinates,Original*%
%TF.FileFunction,Copper,L2,Bot*%
%TF.FilePolarity,Positive*%
%FSLAX46Y46*%
G04 Gerber Fmt 4.6, Leading zero omitted, Abs format (unit mm)*
G04 Created by KiCad (PCBNEW 7.0.1-0) date 2023-05-22 13:54:53*
%MOMM*%
%LPD*%
G01*
G04 APERTURE LIST*
%TA.AperFunction,ComponentPad*%
%ADD10R,2.000000X2.000000*%
%TD*%
%TA.AperFunction,ComponentPad*%
%ADD11C,2.500000*%
%TD*%
%TA.AperFunction,ComponentPad*%
%ADD12C,4.800000*%
%TD*%
%TA.AperFunction,ComponentPad*%
%ADD13O,1.650000X3.300000*%
%TD*%
%TA.AperFunction,Conductor*%
%ADD14C,2.000000*%
%TD*%
G04 APERTURE END LIST*
D10*
%TO.P,BT7,1,+*%
%TO.N,Net-(BT6--)*%
X114780000Y-119090000D03*
D11*
%TO.P,BT7,2,-*%
%TO.N,Net-(BT7--)*%
X114780000Y-78490000D03*
D12*
%TO.P,BT7,MH1*%
%TO.N,N/C*%
X114780000Y-111490000D03*
%TO.P,BT7,MH2*%
X114780000Y-86090000D03*
%TD*%
D10*
%TO.P,BT10,1,+*%
%TO.N,Net-(BT10-+)*%
X165080000Y-49790000D03*
D11*
%TO.P,BT10,2,-*%
%TO.N,Net-(BT10--)*%
X124480000Y-49790000D03*
D12*
%TO.P,BT10,MH1*%
%TO.N,N/C*%
X157480000Y-49790000D03*
%TO.P,BT10,MH2*%
X132080000Y-49790000D03*
%TD*%
D10*
%TO.P,BT9,1,+*%
%TO.N,Net-(BT8--)*%
X174780000Y-119090000D03*
D11*
%TO.P,BT9,2,-*%
%TO.N,Net-(BT10-+)*%
X174780000Y-78490000D03*
D12*
%TO.P,BT9,MH1*%
%TO.N,N/C*%
X174780000Y-111490000D03*
%TO.P,BT9,MH2*%
X174780000Y-86090000D03*
%TD*%
D10*
%TO.P,BT8,1,+*%
%TO.N,Net-(BT7--)*%
X144780000Y-78490000D03*
D11*
%TO.P,BT8,2,-*%
%TO.N,Net-(BT8--)*%
X144780000Y-119090000D03*
D12*
%TO.P,BT8,MH1*%
%TO.N,N/C*%
X144780000Y-86090000D03*
%TO.P,BT8,MH2*%
X144780000Y-111490000D03*
%TD*%
D10*
%TO.P,BT6,1,+*%
%TO.N,Net-(BT1-+)*%
X165080000Y-133790000D03*
D11*
%TO.P,BT6,2,-*%
%TO.N,Net-(BT6--)*%
X124480000Y-133790000D03*
D12*
%TO.P,BT6,MH1*%
%TO.N,N/C*%
X157480000Y-133790000D03*
%TO.P,BT6,MH2*%
X132080000Y-133790000D03*
%TD*%
D13*
%TO.P,J1,1,Pin_1*%
%TO.N,Net-(BT10--)*%
X182760000Y-128347450D03*
%TO.P,J1,2,Pin_2*%
%TO.N,Net-(BT1-+)*%
X185300000Y-128347450D03*
%TD*%
D10*
%TO.P,BT5,1,+*%
%TO.N,Net-(BT4--)*%
X124480000Y-63790000D03*
D11*
%TO.P,BT5,2,-*%
%TO.N,Net-(BT10--)*%
X165080000Y-63790000D03*
D12*
%TO.P,BT5,MH1*%
%TO.N,N/C*%
X132080000Y-63790000D03*
%TO.P,BT5,MH2*%
X157480000Y-63790000D03*
%TD*%
D10*
%TO.P,BT3,1,+*%
%TO.N,Net-(BT2--)*%
X129780000Y-78490000D03*
D11*
%TO.P,BT3,2,-*%
%TO.N,Net-(BT3--)*%
X129780000Y-119090000D03*
D12*
%TO.P,BT3,MH1*%
%TO.N,N/C*%
X129780000Y-86090000D03*
%TO.P,BT3,MH2*%
X129780000Y-111490000D03*
%TD*%
D10*
%TO.P,BT4,1,+*%
%TO.N,Net-(BT3--)*%
X99780000Y-119090000D03*
D11*
%TO.P,BT4,2,-*%
%TO.N,Net-(BT4--)*%
X99780000Y-78490000D03*
D12*
%TO.P,BT4,MH1*%
%TO.N,N/C*%
X99780000Y-111490000D03*
%TO.P,BT4,MH2*%
X99780000Y-86090000D03*
%TD*%
D10*
%TO.P,BT1,1,+*%
%TO.N,Net-(BT1-+)*%
X189780000Y-78490000D03*
D11*
%TO.P,BT1,2,-*%
%TO.N,Net-(BT1--)*%
X189780000Y-119090000D03*
D12*
%TO.P,BT1,MH1*%
%TO.N,N/C*%
X189780000Y-86090000D03*
%TO.P,BT1,MH2*%
X189780000Y-111490000D03*
%TD*%
D10*
%TO.P,BT2,1,+*%
%TO.N,Net-(BT1--)*%
X159780000Y-119090000D03*
D11*
%TO.P,BT2,2,-*%
%TO.N,Net-(BT2--)*%
X159780000Y-78490000D03*
D12*
%TO.P,BT2,MH1*%
%TO.N,N/C*%
X159780000Y-111490000D03*
%TO.P,BT2,MH2*%
X159780000Y-86090000D03*
%TD*%
D14*
%TO.N,Net-(BT1-+)*%
X185300000Y-128347450D02*
X185300000Y-127395000D01*
X193780000Y-118915000D02*
X193780000Y-82490000D01*
X193780000Y-82490000D02*
X189780000Y-78490000D01*
X185300000Y-127395000D02*
X193780000Y-118915000D01*
%TO.N,Net-(BT1--)*%
X163080000Y-115790000D02*
X159780000Y-119090000D01*
X186480000Y-115790000D02*
X163080000Y-115790000D01*
X189780000Y-119090000D02*
X186480000Y-115790000D01*
%TO.N,Net-(BT2--)*%
X156480000Y-81790000D02*
X133080000Y-81790000D01*
X133080000Y-81790000D02*
X129780000Y-78490000D01*
X159780000Y-78490000D02*
X156480000Y-81790000D01*
%TO.N,Net-(BT3--)*%
X103080000Y-115790000D02*
X99780000Y-119090000D01*
X126480000Y-115790000D02*
X103080000Y-115790000D01*
X129780000Y-119090000D02*
X126480000Y-115790000D01*
%TO.N,Net-(BT4--)*%
X118530000Y-74790000D02*
X124480000Y-68840000D01*
X124480000Y-68840000D02*
X124480000Y-63790000D01*
X99780000Y-78490000D02*
X103480000Y-74790000D01*
X103480000Y-74790000D02*
X118530000Y-74790000D01*
%TD*%
M02*
