%TF.GenerationSoftware,KiCad,Pcbnew,7.0.1-0*%
%TF.CreationDate,2023-05-22T13:54:53+09:00*%
%TF.ProjectId,Battery,42617474-6572-4792-9e6b-696361645f70,rev?*%
%TF.SameCoordinates,Original*%
%TF.FileFunction,Soldermask,Bot*%
%TF.FilePolarity,Negative*%
%FSLAX46Y46*%
G04 Gerber Fmt 4.6, Leading zero omitted, Abs format (unit mm)*
G04 Created by KiCad (PCBNEW 7.0.1-0) date 2023-05-22 13:54:53*
%MOMM*%
%LPD*%
G01*
G04 APERTURE LIST*
%ADD10R,2.000000X2.000000*%
%ADD11C,2.500000*%
%ADD12C,4.800000*%
%ADD13C,4.500000*%
%ADD14O,1.853200X3.503200*%
G04 APERTURE END LIST*
D10*
%TO.C,BT7*%
X114780000Y-119090000D03*
D11*
X114780000Y-78490000D03*
D12*
X114780000Y-111490000D03*
X114780000Y-86090000D03*
%TD*%
D13*
%TO.C,REF\u002A\u002A*%
X174780000Y-127790000D03*
%TD*%
%TO.C,REF\u002A\u002A*%
X174780000Y-67790000D03*
%TD*%
%TO.C,REF\u002A\u002A*%
X114780000Y-67790000D03*
%TD*%
D10*
%TO.C,BT10*%
X165080000Y-49790000D03*
D11*
X124480000Y-49790000D03*
D12*
X157480000Y-49790000D03*
X132080000Y-49790000D03*
%TD*%
D10*
%TO.C,BT9*%
X174780000Y-119090000D03*
D11*
X174780000Y-78490000D03*
D12*
X174780000Y-111490000D03*
X174780000Y-86090000D03*
%TD*%
D10*
%TO.C,BT8*%
X144780000Y-78490000D03*
D11*
X144780000Y-119090000D03*
D12*
X144780000Y-86090000D03*
X144780000Y-111490000D03*
%TD*%
D10*
%TO.C,BT6*%
X165080000Y-133790000D03*
D11*
X124480000Y-133790000D03*
D12*
X157480000Y-133790000D03*
X132080000Y-133790000D03*
%TD*%
D14*
%TO.C,J1*%
X182760000Y-128347450D03*
X185300000Y-128347450D03*
%TD*%
D13*
%TO.C,REF\u002A\u002A*%
X114780000Y-127790000D03*
%TD*%
D10*
%TO.C,BT5*%
X124480000Y-63790000D03*
D11*
X165080000Y-63790000D03*
D12*
X132080000Y-63790000D03*
X157480000Y-63790000D03*
%TD*%
D10*
%TO.C,BT3*%
X129780000Y-78490000D03*
D11*
X129780000Y-119090000D03*
D12*
X129780000Y-86090000D03*
X129780000Y-111490000D03*
%TD*%
D10*
%TO.C,BT4*%
X99780000Y-119090000D03*
D11*
X99780000Y-78490000D03*
D12*
X99780000Y-111490000D03*
X99780000Y-86090000D03*
%TD*%
D10*
%TO.C,BT1*%
X189780000Y-78490000D03*
D11*
X189780000Y-119090000D03*
D12*
X189780000Y-86090000D03*
X189780000Y-111490000D03*
%TD*%
D10*
%TO.C,BT2*%
X159780000Y-119090000D03*
D11*
X159780000Y-78490000D03*
D12*
X159780000Y-111490000D03*
X159780000Y-86090000D03*
%TD*%
M02*
