%TF.GenerationSoftware,KiCad,Pcbnew,7.0.1-0*%
%TF.CreationDate,2023-05-22T13:54:53+09:00*%
%TF.ProjectId,Battery,42617474-6572-4792-9e6b-696361645f70,rev?*%
%TF.SameCoordinates,Original*%
%TF.FileFunction,Legend,Top*%
%TF.FilePolarity,Positive*%
%FSLAX46Y46*%
G04 Gerber Fmt 4.6, Leading zero omitted, Abs format (unit mm)*
G04 Created by KiCad (PCBNEW 7.0.1-0) date 2023-05-22 13:54:53*
%MOMM*%
%LPD*%
G01*
G04 APERTURE LIST*
%ADD10C,0.500000*%
%ADD11C,0.187500*%
%ADD12C,0.254000*%
%ADD13C,0.127000*%
%ADD14C,0.081280*%
%ADD15C,0.101600*%
%ADD16C,0.100000*%
%ADD17C,0.200000*%
%ADD18C,0.050800*%
G04 APERTURE END LIST*
D10*
X162280000Y-49106428D02*
X162280000Y-50820714D01*
X161422857Y-49963571D02*
X163137143Y-49963571D01*
X161780000Y-133106428D02*
X161780000Y-134820714D01*
X160922857Y-133963571D02*
X162637143Y-133963571D01*
X174780000Y-115606428D02*
X174780000Y-117320714D01*
X173922857Y-116463571D02*
X175637143Y-116463571D01*
D11*
X170922857Y-135233928D02*
X170065714Y-135233928D01*
X170494285Y-135233928D02*
X170494285Y-133733928D01*
X170494285Y-133733928D02*
X170351428Y-133948214D01*
X170351428Y-133948214D02*
X170208571Y-134091071D01*
X170208571Y-134091071D02*
X170065714Y-134162500D01*
X172279999Y-133733928D02*
X171565713Y-133733928D01*
X171565713Y-133733928D02*
X171494285Y-134448214D01*
X171494285Y-134448214D02*
X171565713Y-134376785D01*
X171565713Y-134376785D02*
X171708571Y-134305357D01*
X171708571Y-134305357D02*
X172065713Y-134305357D01*
X172065713Y-134305357D02*
X172208571Y-134376785D01*
X172208571Y-134376785D02*
X172279999Y-134448214D01*
X172279999Y-134448214D02*
X172351428Y-134591071D01*
X172351428Y-134591071D02*
X172351428Y-134948214D01*
X172351428Y-134948214D02*
X172279999Y-135091071D01*
X172279999Y-135091071D02*
X172208571Y-135162500D01*
X172208571Y-135162500D02*
X172065713Y-135233928D01*
X172065713Y-135233928D02*
X171708571Y-135233928D01*
X171708571Y-135233928D02*
X171565713Y-135162500D01*
X171565713Y-135162500D02*
X171494285Y-135091071D01*
X172779999Y-133733928D02*
X173279999Y-135233928D01*
X173279999Y-135233928D02*
X173779999Y-133733928D01*
X175351427Y-133876785D02*
X175422855Y-133805357D01*
X175422855Y-133805357D02*
X175565713Y-133733928D01*
X175565713Y-133733928D02*
X175922855Y-133733928D01*
X175922855Y-133733928D02*
X176065713Y-133805357D01*
X176065713Y-133805357D02*
X176137141Y-133876785D01*
X176137141Y-133876785D02*
X176208570Y-134019642D01*
X176208570Y-134019642D02*
X176208570Y-134162500D01*
X176208570Y-134162500D02*
X176137141Y-134376785D01*
X176137141Y-134376785D02*
X175279998Y-135233928D01*
X175279998Y-135233928D02*
X176208570Y-135233928D01*
X176779998Y-134805357D02*
X177494284Y-134805357D01*
X176637141Y-135233928D02*
X177137141Y-133733928D01*
X177137141Y-133733928D02*
X177637141Y-135233928D01*
X179279997Y-135233928D02*
X179279997Y-134233928D01*
X179279997Y-134376785D02*
X179351426Y-134305357D01*
X179351426Y-134305357D02*
X179494283Y-134233928D01*
X179494283Y-134233928D02*
X179708569Y-134233928D01*
X179708569Y-134233928D02*
X179851426Y-134305357D01*
X179851426Y-134305357D02*
X179922855Y-134448214D01*
X179922855Y-134448214D02*
X179922855Y-135233928D01*
X179922855Y-134448214D02*
X179994283Y-134305357D01*
X179994283Y-134305357D02*
X180137140Y-134233928D01*
X180137140Y-134233928D02*
X180351426Y-134233928D01*
X180351426Y-134233928D02*
X180494283Y-134305357D01*
X180494283Y-134305357D02*
X180565712Y-134448214D01*
X180565712Y-134448214D02*
X180565712Y-135233928D01*
X181922855Y-135233928D02*
X181922855Y-134448214D01*
X181922855Y-134448214D02*
X181851426Y-134305357D01*
X181851426Y-134305357D02*
X181708569Y-134233928D01*
X181708569Y-134233928D02*
X181422855Y-134233928D01*
X181422855Y-134233928D02*
X181279997Y-134305357D01*
X181922855Y-135162500D02*
X181779997Y-135233928D01*
X181779997Y-135233928D02*
X181422855Y-135233928D01*
X181422855Y-135233928D02*
X181279997Y-135162500D01*
X181279997Y-135162500D02*
X181208569Y-135019642D01*
X181208569Y-135019642D02*
X181208569Y-134876785D01*
X181208569Y-134876785D02*
X181279997Y-134733928D01*
X181279997Y-134733928D02*
X181422855Y-134662500D01*
X181422855Y-134662500D02*
X181779997Y-134662500D01*
X181779997Y-134662500D02*
X181922855Y-134591071D01*
X182494283Y-135233928D02*
X183279998Y-134233928D01*
X182494283Y-134233928D02*
X183279998Y-135233928D01*
D10*
X114780000Y-114606428D02*
X114780000Y-116320714D01*
X113922857Y-115463571D02*
X115637143Y-115463571D01*
X144780000Y-80606428D02*
X144780000Y-82320714D01*
X143922857Y-81463571D02*
X145637143Y-81463571D01*
D12*
%TO.C,BT7*%
X114702288Y-99787856D02*
X114762764Y-99606428D01*
X114762764Y-99606428D02*
X114823240Y-99545951D01*
X114823240Y-99545951D02*
X114944192Y-99485475D01*
X114944192Y-99485475D02*
X115125621Y-99485475D01*
X115125621Y-99485475D02*
X115246573Y-99545951D01*
X115246573Y-99545951D02*
X115307050Y-99606428D01*
X115307050Y-99606428D02*
X115367526Y-99727380D01*
X115367526Y-99727380D02*
X115367526Y-100211190D01*
X115367526Y-100211190D02*
X114097526Y-100211190D01*
X114097526Y-100211190D02*
X114097526Y-99787856D01*
X114097526Y-99787856D02*
X114158002Y-99666904D01*
X114158002Y-99666904D02*
X114218478Y-99606428D01*
X114218478Y-99606428D02*
X114339430Y-99545951D01*
X114339430Y-99545951D02*
X114460383Y-99545951D01*
X114460383Y-99545951D02*
X114581335Y-99606428D01*
X114581335Y-99606428D02*
X114641811Y-99666904D01*
X114641811Y-99666904D02*
X114702288Y-99787856D01*
X114702288Y-99787856D02*
X114702288Y-100211190D01*
X114097526Y-99122618D02*
X114097526Y-98396904D01*
X115367526Y-98759761D02*
X114097526Y-98759761D01*
X114097526Y-98094523D02*
X114097526Y-97247856D01*
X114097526Y-97247856D02*
X115367526Y-97792142D01*
%TO.C,BT10*%
X143177381Y-49712288D02*
X143358809Y-49772764D01*
X143358809Y-49772764D02*
X143419286Y-49833240D01*
X143419286Y-49833240D02*
X143479762Y-49954192D01*
X143479762Y-49954192D02*
X143479762Y-50135621D01*
X143479762Y-50135621D02*
X143419286Y-50256573D01*
X143419286Y-50256573D02*
X143358809Y-50317050D01*
X143358809Y-50317050D02*
X143237857Y-50377526D01*
X143237857Y-50377526D02*
X142754047Y-50377526D01*
X142754047Y-50377526D02*
X142754047Y-49107526D01*
X142754047Y-49107526D02*
X143177381Y-49107526D01*
X143177381Y-49107526D02*
X143298333Y-49168002D01*
X143298333Y-49168002D02*
X143358809Y-49228478D01*
X143358809Y-49228478D02*
X143419286Y-49349430D01*
X143419286Y-49349430D02*
X143419286Y-49470383D01*
X143419286Y-49470383D02*
X143358809Y-49591335D01*
X143358809Y-49591335D02*
X143298333Y-49651811D01*
X143298333Y-49651811D02*
X143177381Y-49712288D01*
X143177381Y-49712288D02*
X142754047Y-49712288D01*
X143842619Y-49107526D02*
X144568333Y-49107526D01*
X144205476Y-50377526D02*
X144205476Y-49107526D01*
X145656905Y-50377526D02*
X144931190Y-50377526D01*
X145294047Y-50377526D02*
X145294047Y-49107526D01*
X145294047Y-49107526D02*
X145173095Y-49288954D01*
X145173095Y-49288954D02*
X145052143Y-49409907D01*
X145052143Y-49409907D02*
X144931190Y-49470383D01*
X146443095Y-49107526D02*
X146564048Y-49107526D01*
X146564048Y-49107526D02*
X146685000Y-49168002D01*
X146685000Y-49168002D02*
X146745476Y-49228478D01*
X146745476Y-49228478D02*
X146805952Y-49349430D01*
X146805952Y-49349430D02*
X146866429Y-49591335D01*
X146866429Y-49591335D02*
X146866429Y-49893716D01*
X146866429Y-49893716D02*
X146805952Y-50135621D01*
X146805952Y-50135621D02*
X146745476Y-50256573D01*
X146745476Y-50256573D02*
X146685000Y-50317050D01*
X146685000Y-50317050D02*
X146564048Y-50377526D01*
X146564048Y-50377526D02*
X146443095Y-50377526D01*
X146443095Y-50377526D02*
X146322143Y-50317050D01*
X146322143Y-50317050D02*
X146261667Y-50256573D01*
X146261667Y-50256573D02*
X146201190Y-50135621D01*
X146201190Y-50135621D02*
X146140714Y-49893716D01*
X146140714Y-49893716D02*
X146140714Y-49591335D01*
X146140714Y-49591335D02*
X146201190Y-49349430D01*
X146201190Y-49349430D02*
X146261667Y-49228478D01*
X146261667Y-49228478D02*
X146322143Y-49168002D01*
X146322143Y-49168002D02*
X146443095Y-49107526D01*
%TO.C,BT9*%
X174702288Y-99787856D02*
X174762764Y-99606428D01*
X174762764Y-99606428D02*
X174823240Y-99545951D01*
X174823240Y-99545951D02*
X174944192Y-99485475D01*
X174944192Y-99485475D02*
X175125621Y-99485475D01*
X175125621Y-99485475D02*
X175246573Y-99545951D01*
X175246573Y-99545951D02*
X175307050Y-99606428D01*
X175307050Y-99606428D02*
X175367526Y-99727380D01*
X175367526Y-99727380D02*
X175367526Y-100211190D01*
X175367526Y-100211190D02*
X174097526Y-100211190D01*
X174097526Y-100211190D02*
X174097526Y-99787856D01*
X174097526Y-99787856D02*
X174158002Y-99666904D01*
X174158002Y-99666904D02*
X174218478Y-99606428D01*
X174218478Y-99606428D02*
X174339430Y-99545951D01*
X174339430Y-99545951D02*
X174460383Y-99545951D01*
X174460383Y-99545951D02*
X174581335Y-99606428D01*
X174581335Y-99606428D02*
X174641811Y-99666904D01*
X174641811Y-99666904D02*
X174702288Y-99787856D01*
X174702288Y-99787856D02*
X174702288Y-100211190D01*
X174097526Y-99122618D02*
X174097526Y-98396904D01*
X175367526Y-98759761D02*
X174097526Y-98759761D01*
X175367526Y-97913094D02*
X175367526Y-97671190D01*
X175367526Y-97671190D02*
X175307050Y-97550237D01*
X175307050Y-97550237D02*
X175246573Y-97489761D01*
X175246573Y-97489761D02*
X175065145Y-97368809D01*
X175065145Y-97368809D02*
X174823240Y-97308332D01*
X174823240Y-97308332D02*
X174339430Y-97308332D01*
X174339430Y-97308332D02*
X174218478Y-97368809D01*
X174218478Y-97368809D02*
X174158002Y-97429285D01*
X174158002Y-97429285D02*
X174097526Y-97550237D01*
X174097526Y-97550237D02*
X174097526Y-97792142D01*
X174097526Y-97792142D02*
X174158002Y-97913094D01*
X174158002Y-97913094D02*
X174218478Y-97973571D01*
X174218478Y-97973571D02*
X174339430Y-98034047D01*
X174339430Y-98034047D02*
X174641811Y-98034047D01*
X174641811Y-98034047D02*
X174762764Y-97973571D01*
X174762764Y-97973571D02*
X174823240Y-97913094D01*
X174823240Y-97913094D02*
X174883716Y-97792142D01*
X174883716Y-97792142D02*
X174883716Y-97550237D01*
X174883716Y-97550237D02*
X174823240Y-97429285D01*
X174823240Y-97429285D02*
X174762764Y-97368809D01*
X174762764Y-97368809D02*
X174641811Y-97308332D01*
%TO.C,BT8*%
X144702288Y-99787856D02*
X144762764Y-99606428D01*
X144762764Y-99606428D02*
X144823240Y-99545951D01*
X144823240Y-99545951D02*
X144944192Y-99485475D01*
X144944192Y-99485475D02*
X145125621Y-99485475D01*
X145125621Y-99485475D02*
X145246573Y-99545951D01*
X145246573Y-99545951D02*
X145307050Y-99606428D01*
X145307050Y-99606428D02*
X145367526Y-99727380D01*
X145367526Y-99727380D02*
X145367526Y-100211190D01*
X145367526Y-100211190D02*
X144097526Y-100211190D01*
X144097526Y-100211190D02*
X144097526Y-99787856D01*
X144097526Y-99787856D02*
X144158002Y-99666904D01*
X144158002Y-99666904D02*
X144218478Y-99606428D01*
X144218478Y-99606428D02*
X144339430Y-99545951D01*
X144339430Y-99545951D02*
X144460383Y-99545951D01*
X144460383Y-99545951D02*
X144581335Y-99606428D01*
X144581335Y-99606428D02*
X144641811Y-99666904D01*
X144641811Y-99666904D02*
X144702288Y-99787856D01*
X144702288Y-99787856D02*
X144702288Y-100211190D01*
X144097526Y-99122618D02*
X144097526Y-98396904D01*
X145367526Y-98759761D02*
X144097526Y-98759761D01*
X144641811Y-97792142D02*
X144581335Y-97913094D01*
X144581335Y-97913094D02*
X144520859Y-97973571D01*
X144520859Y-97973571D02*
X144399907Y-98034047D01*
X144399907Y-98034047D02*
X144339430Y-98034047D01*
X144339430Y-98034047D02*
X144218478Y-97973571D01*
X144218478Y-97973571D02*
X144158002Y-97913094D01*
X144158002Y-97913094D02*
X144097526Y-97792142D01*
X144097526Y-97792142D02*
X144097526Y-97550237D01*
X144097526Y-97550237D02*
X144158002Y-97429285D01*
X144158002Y-97429285D02*
X144218478Y-97368809D01*
X144218478Y-97368809D02*
X144339430Y-97308332D01*
X144339430Y-97308332D02*
X144399907Y-97308332D01*
X144399907Y-97308332D02*
X144520859Y-97368809D01*
X144520859Y-97368809D02*
X144581335Y-97429285D01*
X144581335Y-97429285D02*
X144641811Y-97550237D01*
X144641811Y-97550237D02*
X144641811Y-97792142D01*
X144641811Y-97792142D02*
X144702288Y-97913094D01*
X144702288Y-97913094D02*
X144762764Y-97973571D01*
X144762764Y-97973571D02*
X144883716Y-98034047D01*
X144883716Y-98034047D02*
X145125621Y-98034047D01*
X145125621Y-98034047D02*
X145246573Y-97973571D01*
X145246573Y-97973571D02*
X145307050Y-97913094D01*
X145307050Y-97913094D02*
X145367526Y-97792142D01*
X145367526Y-97792142D02*
X145367526Y-97550237D01*
X145367526Y-97550237D02*
X145307050Y-97429285D01*
X145307050Y-97429285D02*
X145246573Y-97368809D01*
X145246573Y-97368809D02*
X145125621Y-97308332D01*
X145125621Y-97308332D02*
X144883716Y-97308332D01*
X144883716Y-97308332D02*
X144762764Y-97368809D01*
X144762764Y-97368809D02*
X144702288Y-97429285D01*
X144702288Y-97429285D02*
X144641811Y-97550237D01*
%TO.C,BT6*%
X143782143Y-133712288D02*
X143963571Y-133772764D01*
X143963571Y-133772764D02*
X144024048Y-133833240D01*
X144024048Y-133833240D02*
X144084524Y-133954192D01*
X144084524Y-133954192D02*
X144084524Y-134135621D01*
X144084524Y-134135621D02*
X144024048Y-134256573D01*
X144024048Y-134256573D02*
X143963571Y-134317050D01*
X143963571Y-134317050D02*
X143842619Y-134377526D01*
X143842619Y-134377526D02*
X143358809Y-134377526D01*
X143358809Y-134377526D02*
X143358809Y-133107526D01*
X143358809Y-133107526D02*
X143782143Y-133107526D01*
X143782143Y-133107526D02*
X143903095Y-133168002D01*
X143903095Y-133168002D02*
X143963571Y-133228478D01*
X143963571Y-133228478D02*
X144024048Y-133349430D01*
X144024048Y-133349430D02*
X144024048Y-133470383D01*
X144024048Y-133470383D02*
X143963571Y-133591335D01*
X143963571Y-133591335D02*
X143903095Y-133651811D01*
X143903095Y-133651811D02*
X143782143Y-133712288D01*
X143782143Y-133712288D02*
X143358809Y-133712288D01*
X144447381Y-133107526D02*
X145173095Y-133107526D01*
X144810238Y-134377526D02*
X144810238Y-133107526D01*
X146140714Y-133107526D02*
X145898809Y-133107526D01*
X145898809Y-133107526D02*
X145777857Y-133168002D01*
X145777857Y-133168002D02*
X145717381Y-133228478D01*
X145717381Y-133228478D02*
X145596428Y-133409907D01*
X145596428Y-133409907D02*
X145535952Y-133651811D01*
X145535952Y-133651811D02*
X145535952Y-134135621D01*
X145535952Y-134135621D02*
X145596428Y-134256573D01*
X145596428Y-134256573D02*
X145656905Y-134317050D01*
X145656905Y-134317050D02*
X145777857Y-134377526D01*
X145777857Y-134377526D02*
X146019762Y-134377526D01*
X146019762Y-134377526D02*
X146140714Y-134317050D01*
X146140714Y-134317050D02*
X146201190Y-134256573D01*
X146201190Y-134256573D02*
X146261667Y-134135621D01*
X146261667Y-134135621D02*
X146261667Y-133833240D01*
X146261667Y-133833240D02*
X146201190Y-133712288D01*
X146201190Y-133712288D02*
X146140714Y-133651811D01*
X146140714Y-133651811D02*
X146019762Y-133591335D01*
X146019762Y-133591335D02*
X145777857Y-133591335D01*
X145777857Y-133591335D02*
X145656905Y-133651811D01*
X145656905Y-133651811D02*
X145596428Y-133712288D01*
X145596428Y-133712288D02*
X145535952Y-133833240D01*
D13*
%TO.C,J1*%
X188898714Y-127064568D02*
X188898714Y-127880997D01*
X188898714Y-127880997D02*
X188844285Y-128044282D01*
X188844285Y-128044282D02*
X188735428Y-128153140D01*
X188735428Y-128153140D02*
X188572142Y-128207568D01*
X188572142Y-128207568D02*
X188463285Y-128207568D01*
X190041714Y-128207568D02*
X189388571Y-128207568D01*
X189715142Y-128207568D02*
X189715142Y-127064568D01*
X189715142Y-127064568D02*
X189606285Y-127227854D01*
X189606285Y-127227854D02*
X189497428Y-127336711D01*
X189497428Y-127336711D02*
X189388571Y-127391140D01*
D14*
X185160541Y-131705359D02*
X185205052Y-131660848D01*
X185205052Y-131660848D02*
X185294073Y-131616338D01*
X185294073Y-131616338D02*
X185516625Y-131616338D01*
X185516625Y-131616338D02*
X185605646Y-131660848D01*
X185605646Y-131660848D02*
X185650157Y-131705359D01*
X185650157Y-131705359D02*
X185694667Y-131794380D01*
X185694667Y-131794380D02*
X185694667Y-131883401D01*
X185694667Y-131883401D02*
X185650157Y-132016932D01*
X185650157Y-132016932D02*
X185116031Y-132551058D01*
X185116031Y-132551058D02*
X185694667Y-132551058D01*
X183345167Y-132551058D02*
X182811041Y-132551058D01*
X183078104Y-132551058D02*
X183078104Y-131616338D01*
X183078104Y-131616338D02*
X182989083Y-131749869D01*
X182989083Y-131749869D02*
X182900062Y-131838890D01*
X182900062Y-131838890D02*
X182811041Y-131883401D01*
D15*
X181015209Y-131456698D02*
X180903933Y-131401060D01*
X180903933Y-131401060D02*
X180737019Y-131401060D01*
X180737019Y-131401060D02*
X180570104Y-131456698D01*
X180570104Y-131456698D02*
X180458828Y-131567974D01*
X180458828Y-131567974D02*
X180403190Y-131679250D01*
X180403190Y-131679250D02*
X180347552Y-131901802D01*
X180347552Y-131901802D02*
X180347552Y-132068717D01*
X180347552Y-132068717D02*
X180403190Y-132291269D01*
X180403190Y-132291269D02*
X180458828Y-132402545D01*
X180458828Y-132402545D02*
X180570104Y-132513822D01*
X180570104Y-132513822D02*
X180737019Y-132569460D01*
X180737019Y-132569460D02*
X180848295Y-132569460D01*
X180848295Y-132569460D02*
X181015209Y-132513822D01*
X181015209Y-132513822D02*
X181070847Y-132458183D01*
X181070847Y-132458183D02*
X181070847Y-132068717D01*
X181070847Y-132068717D02*
X180848295Y-132068717D01*
D16*
%TO.C,BT7*%
X114780000Y-121390000D02*
X114780000Y-121390000D01*
X114780000Y-121290000D02*
X114780000Y-121290000D01*
D17*
X104530000Y-120740000D02*
X124940000Y-120740000D01*
X124940000Y-120740000D02*
X124940000Y-76840000D01*
X104530000Y-76840000D02*
X104530000Y-120740000D01*
X124940000Y-76840000D02*
X104530000Y-76840000D01*
D16*
X114780000Y-121290000D02*
G75*
G03*
X114780000Y-121390000I0J-50000D01*
G01*
X114780000Y-121390000D02*
G75*
G03*
X114780000Y-121290000I0J50000D01*
G01*
%TO.C,BT10*%
X167380000Y-49790000D02*
X167380000Y-49790000D01*
X167280000Y-49790000D02*
X167280000Y-49790000D01*
D17*
X166730000Y-60040000D02*
X166730000Y-39630000D01*
X166730000Y-39630000D02*
X122830000Y-39630000D01*
X122830000Y-60040000D02*
X166730000Y-60040000D01*
X122830000Y-39630000D02*
X122830000Y-60040000D01*
D16*
X167280000Y-49790000D02*
G75*
G03*
X167380000Y-49790000I50000J0D01*
G01*
X167380000Y-49790000D02*
G75*
G03*
X167280000Y-49790000I-50000J0D01*
G01*
%TO.C,BT9*%
X174780000Y-121390000D02*
X174780000Y-121390000D01*
X174780000Y-121290000D02*
X174780000Y-121290000D01*
D17*
X164530000Y-120740000D02*
X184940000Y-120740000D01*
X184940000Y-120740000D02*
X184940000Y-76840000D01*
X164530000Y-76840000D02*
X164530000Y-120740000D01*
X184940000Y-76840000D02*
X164530000Y-76840000D01*
D16*
X174780000Y-121290000D02*
G75*
G03*
X174780000Y-121390000I0J-50000D01*
G01*
X174780000Y-121390000D02*
G75*
G03*
X174780000Y-121290000I0J50000D01*
G01*
%TO.C,BT8*%
X144780000Y-76190000D02*
X144780000Y-76190000D01*
X144780000Y-76290000D02*
X144780000Y-76290000D01*
D17*
X155030000Y-76840000D02*
X134620000Y-76840000D01*
X134620000Y-76840000D02*
X134620000Y-120740000D01*
X155030000Y-120740000D02*
X155030000Y-76840000D01*
X134620000Y-120740000D02*
X155030000Y-120740000D01*
D16*
X144780000Y-76290000D02*
G75*
G03*
X144780000Y-76190000I0J50000D01*
G01*
X144780000Y-76190000D02*
G75*
G03*
X144780000Y-76290000I0J-50000D01*
G01*
%TO.C,BT6*%
X167380000Y-133790000D02*
X167380000Y-133790000D01*
X167280000Y-133790000D02*
X167280000Y-133790000D01*
D17*
X166730000Y-144040000D02*
X166730000Y-123630000D01*
X166730000Y-123630000D02*
X122830000Y-123630000D01*
X122830000Y-144040000D02*
X166730000Y-144040000D01*
X122830000Y-123630000D02*
X122830000Y-144040000D01*
D16*
X167280000Y-133790000D02*
G75*
G03*
X167380000Y-133790000I50000J0D01*
G01*
X167380000Y-133790000D02*
G75*
G03*
X167280000Y-133790000I-50000J0D01*
G01*
D13*
%TO.C,J1*%
X180300000Y-125157450D02*
X180300000Y-126657450D01*
X180300000Y-126657450D02*
X180300000Y-131157450D01*
X180300000Y-126657450D02*
X181300000Y-126657450D01*
X181300000Y-126157450D02*
X181300000Y-126657450D01*
X181300000Y-126157450D02*
X183165000Y-126157450D01*
X181300000Y-126657450D02*
X181300000Y-130157450D01*
X181300000Y-130157450D02*
X180300000Y-131157450D01*
X181300000Y-130157450D02*
X181800000Y-130157450D01*
X181550000Y-130157450D02*
X181800000Y-130157450D01*
X181800000Y-130157450D02*
X181800000Y-131157450D01*
X181800000Y-131157450D02*
X182050000Y-131157450D01*
X183165000Y-125157450D02*
X180300000Y-125157450D01*
X183165000Y-126157450D02*
X183165000Y-125157450D01*
X183903000Y-130125450D02*
X183649000Y-131141450D01*
X183903000Y-130125450D02*
X184157000Y-130125450D01*
X184157000Y-130125450D02*
X184411000Y-131141450D01*
X184895000Y-125157450D02*
X184895000Y-126157450D01*
X184895000Y-126157450D02*
X186760000Y-126157450D01*
X185070000Y-131157450D02*
X180300000Y-131157450D01*
X185070000Y-131157450D02*
X184260000Y-131157450D01*
X186260000Y-130157450D02*
X186260000Y-131157450D01*
X186260000Y-131157450D02*
X185070000Y-131157450D01*
X186260000Y-131157450D02*
X187760000Y-131157450D01*
X186760000Y-126157450D02*
X186760000Y-126657450D01*
X186760000Y-126657450D02*
X186760000Y-130157450D01*
X186760000Y-130157450D02*
X186260000Y-130157450D01*
X186760000Y-130157450D02*
X187760000Y-131157450D01*
X187760000Y-125157450D02*
X184895000Y-125157450D01*
X187760000Y-125157450D02*
X187760000Y-126657450D01*
X187760000Y-126657450D02*
X186760000Y-126657450D01*
X187760000Y-126657450D02*
X187760000Y-131157450D01*
D18*
X183817200Y-132157450D02*
G75*
G03*
X183817200Y-132157450I-803200J0D01*
G01*
X186166700Y-132157450D02*
G75*
G03*
X186166700Y-132157450I-803200J0D01*
G01*
%TD*%
M02*
