M48
; DRILL file {KiCad 7.0.1-0} date 2023 May 22, Monday 13:59:53
; FORMAT={-:-/ absolute / inch / decimal}
; #@! TF.CreationDate,2023-05-22T13:59:53+09:00
; #@! TF.GenerationSoftware,Kicad,Pcbnew,7.0.1-0
; #@! TF.FileFunction,Plated,1,2,PTH
FMAT,2
INCH
; #@! TA.AperFunction,Plated,PTH,ViaDrill
T1C0.0098
; #@! TA.AperFunction,Plated,PTH,ViaDrill
T2C0.0157
; #@! TA.AperFunction,Plated,PTH,ComponentDrill
T3C0.0295
; #@! TA.AperFunction,Plated,PTH,ComponentDrill
T4C0.0315
; #@! TA.AperFunction,Plated,PTH,ComponentDrill
T5C0.0335
; #@! TA.AperFunction,Plated,PTH,ComponentDrill
T6C0.0394
; #@! TA.AperFunction,Plated,PTH,ComponentDrill
T7C0.0402
; #@! TA.AperFunction,Plated,PTH,ComponentDrill
T8C0.0433
; #@! TA.AperFunction,Plated,PTH,ComponentDrill
T9C0.0591
%
G90
G05
T1
X3.7559Y-3.9764
X3.7874Y-4.5039
X3.9055Y-3.3543
X4.0079Y-5.1102
X4.0866Y-4.0394
X4.0945Y-3.4094
X4.1181Y-4.7559
X4.252Y-2.7638
X4.2756Y-5.063
X4.4094Y-5.6378
X4.5118Y-3.2913
X4.5197Y-3.7717
X4.5276Y-3.4094
X4.5276Y-3.6535
X4.5354Y-3.5354
X4.5669Y-4.3937
X4.6142Y-5.0236
X4.6693Y-3.6457
X4.7205Y-4.622
X4.7441Y-4.7598
X4.7638Y-3.5197
X4.7874Y-2.6772
X4.8031Y-2.2913
X4.8583Y-3.3937
X4.874Y-4.6693
X4.9134Y-3.3071
X4.9252Y-4.4803
X4.9331Y-5.0787
X4.9685Y-3.4488
X5.0098Y-4.189
X5.0472Y-3.4409
X5.063Y-3.6772
X5.0984Y-4.3012
X5.1339Y-3.6063
X5.1772Y-3.248
X5.2047Y-4.0394
X5.2205Y-3.1102
X5.2244Y-5.1575
X5.2283Y-3.9685
X5.2283Y-5.4331
X5.2559Y-4.7933
X5.2598Y-3.252
X5.2657Y-4.8524
X5.2854Y-4.3996
X5.2992Y-5.6535
X5.3386Y-3.1339
X5.3445Y-4.1339
X5.3858Y-3.2283
X5.3937Y-3.8189
X5.3937Y-3.8583
X5.3937Y-3.9173
X5.3937Y-3.9764
X5.4213Y-2.3268
X5.4331Y-4.2421
X5.4409Y-3.4252
X5.4528Y-4.1929
X5.4626Y-4.1043
X5.4724Y-3.0157
X5.4724Y-3.8898
X5.4724Y-3.9449
X5.4803Y-3.2126
X5.5413Y-4.7933
X5.5512Y-4.2421
X5.561Y-4.8425
X5.5827Y-5.4488
X5.5906Y-2.9213
X5.594Y-4.1142
X5.5984Y-3.7165
X5.6063Y-2.5433
X5.6142Y-2.4173
X5.6201Y-4.9508
X5.622Y-3.5118
X5.622Y-3.8189
X5.622Y-3.8898
X5.622Y-3.9449
X5.622Y-4.0236
X5.6299Y-3.0945
X5.6299Y-3.622
X5.689Y-4.685
X5.6969Y-4.6358
X5.7087Y-2.8504
X5.7087Y-4.7244
X5.7244Y-3.2362
X5.7244Y-4.3701
X5.7323Y-3.7087
X5.7323Y-3.8189
X5.7323Y-3.8898
X5.7323Y-3.9449
X5.7323Y-4.0236
X5.7402Y-3.5748
X5.7402Y-4.2244
X5.7402Y-4.2874
X5.7677Y-4.4587
X5.811Y-2.8189
X5.811Y-3.8819
X5.811Y-3.9449
X5.8177Y-4.4685
X5.8189Y-3.3228
X5.8189Y-3.8031
X5.8268Y-2.0157
X5.8583Y-4.0591
X5.8583Y-5.0866
X5.8858Y-2.6378
X5.8858Y-2.8937
X5.8976Y-3.8976
X5.9055Y-2.9528
X5.9055Y-3.8386
X5.9252Y-3.9921
X5.9291Y-3.0394
X5.936Y-3.7205
X5.936Y-3.8976
X5.9393Y-4.2261
X5.9449Y-4.2913
X5.9528Y-3.1102
X5.9606Y-3.5433
X5.9606Y-5.4567
X5.9685Y-4.2244
X5.9724Y-4.1772
X5.9764Y-3.2126
X6.0Y-3.6929
X6.0029Y-4.1586
X6.0039Y-3.9685
X6.0039Y-4.0197
X6.0157Y-2.6693
X6.0335Y-4.8917
X6.0354Y-4.1142
X6.0354Y-4.1575
X6.0433Y-2.2638
X6.0472Y-3.7717
X6.0866Y-3.8504
X6.1319Y-4.5276
X6.1417Y-4.2835
X6.1575Y-4.1772
X6.2441Y-4.6535
X6.2598Y-4.7835
X6.2677Y-2.5866
X6.2677Y-3.9291
X6.2677Y-4.1654
X6.2677Y-4.2835
X6.2677Y-4.3937
X6.2795Y-2.7362
X6.2835Y-4.9449
X6.2913Y-2.815
X6.2913Y-3.1654
X6.2913Y-3.4173
X6.2992Y-3.9764
X6.2992Y-4.4252
X6.315Y-5.126
X6.3271Y-3.8106
X6.3271Y-4.4252
X6.3307Y-3.7402
X6.3366Y-3.2854
X6.3386Y-3.2126
X6.3386Y-3.3976
X6.3386Y-5.6693
X6.3543Y-3.8504
X6.3543Y-3.9685
X6.3543Y-4.1732
X6.3543Y-4.2835
X6.3543Y-4.3701
X6.3622Y-4.5591
X6.3701Y-3.5906
X6.378Y-2.811
X6.378Y-3.1811
X6.378Y-3.3858
X6.378Y-4.5039
X6.378Y-4.7717
X6.3858Y-4.3701
X6.3858Y-4.4094
X6.3858Y-4.5827
X6.4173Y-3.6614
X6.4173Y-3.7874
X6.4173Y-3.9134
X6.4173Y-4.1102
X6.4724Y-2.7795
X6.4724Y-3.1732
X6.4843Y-4.6811
X6.4882Y-4.2835
X6.4882Y-4.5118
X6.4882Y-4.5748
X6.4882Y-4.7559
X6.4961Y-4.378
X6.4961Y-5.5118
X6.5Y-5.0866
X6.5039Y-4.1811
X6.5079Y-2.4409
X6.5118Y-3.8346
X6.5118Y-4.5354
X6.5118Y-4.7087
X6.5172Y-3.6196
X6.5197Y-3.2992
X6.5236Y-3.752
X6.5276Y-3.3661
X6.5433Y-4.6693
X6.5551Y-3.5039
X6.5591Y-4.2205
X6.5591Y-4.252
X6.5591Y-4.3071
X6.5591Y-4.335
X6.5827Y-3.6417
X6.5906Y-3.4646
X6.5906Y-3.5984
X6.5984Y-2.9528
X6.6299Y-4.2913
X6.6339Y-5.0748
X6.685Y-4.0236
X6.6969Y-4.8583
X6.7559Y-4.5669
X6.7559Y-4.6929
X6.8346Y-4.4094
X6.8661Y-2.2992
X6.874Y-3.4646
X6.8819Y-3.5984
X6.8819Y-3.8189
X6.8819Y-4.7598
X6.9449Y-4.2047
X6.9764Y-4.6378
X7.2283Y-3.3858
X7.2362Y-3.8976
X7.2362Y-4.4409
X7.2441Y-4.7874
X7.2992Y-5.6535
X7.3465Y-5.1969
X7.4173Y-2.7559
X7.7008Y-5.1102
X7.7795Y-3.3701
X7.8976Y-4.5197
X7.9449Y-3.9764
T2
X5.2234Y-4.9518
X5.2835Y-4.9528
X5.5295Y-4.9469
X5.5689Y-4.9075
T3
X4.811Y-4.6154
X4.811Y-4.6654
X4.811Y-4.7154
T4
X5.1815Y-2.2864
X5.1815Y-2.5864
X5.2815Y-2.2864
X5.2815Y-2.5864
T5
X6.437Y-5.1654
X6.437Y-5.2441
X6.5157Y-5.1654
X6.5157Y-5.2441
X6.5945Y-5.1654
X6.5945Y-5.2441
X6.6732Y-5.1654
X6.6732Y-5.2441
T6
X4.9953Y-3.6764
X4.9953Y-3.7764
X4.9953Y-3.8764
X4.9953Y-3.9764
X5.0683Y-4.5354
X5.0683Y-4.8354
X5.1683Y-4.5354
X5.1683Y-4.8354
X5.2953Y-3.6764
X5.2953Y-3.7764
X5.2953Y-3.8764
X5.2953Y-3.9764
X5.3636Y-4.5354
X5.3636Y-4.8354
X5.4636Y-4.5354
X5.4636Y-4.8354
X6.7279Y-4.4961
X6.7279Y-4.7961
X6.8279Y-4.4961
X6.8279Y-4.7961
X6.9279Y-4.4961
X6.9279Y-4.7961
X7.0279Y-4.4961
X7.0279Y-4.7961
T7
X5.5465Y-2.3709
X5.5465Y-2.4709
X5.5465Y-2.5709
X5.5465Y-2.6709
X5.5465Y-2.7709
X5.5465Y-2.8709
X5.5465Y-2.9709
X5.5465Y-3.0709
X5.5465Y-3.1709
X5.5465Y-3.2709
X5.5465Y-3.3709
X5.5465Y-3.4709
X5.5465Y-3.5709
X5.5465Y-3.6709
X5.5465Y-3.7709
X6.1465Y-2.3709
X6.1465Y-2.4709
X6.1465Y-2.5709
X6.1465Y-2.6709
X6.1465Y-2.7709
X6.1465Y-2.8709
X6.1465Y-2.9709
X6.1465Y-3.0709
X6.1465Y-3.1709
X6.1465Y-3.2709
X6.1465Y-3.3709
X6.1465Y-3.4709
X6.1465Y-3.5709
X6.1465Y-3.6709
X6.1465Y-3.7709
T8
X4.586Y-4.5366
X4.586Y-4.6366
X4.9894Y-5.2043
X5.0894Y-5.2043
X5.3535Y-5.2004
X5.4535Y-5.2004
X5.7177Y-5.2043
X5.8177Y-5.2043
X6.072Y-5.2043
X6.172Y-5.2043
T9
X4.8622Y-5.0236
X5.2244Y-5.0472
X5.689Y-4.5039
X6.7677Y-4.9055
X6.8937Y-4.9055
T0
M30
