%TF.GenerationSoftware,KiCad,Pcbnew,7.0.1-0*%
%TF.CreationDate,2023-05-23T13:41:44+09:00*%
%TF.ProjectId,FlightModule,466c6967-6874-44d6-9f64-756c652e6b69,rev?*%
%TF.SameCoordinates,Original*%
%TF.FileFunction,Soldermask,Bot*%
%TF.FilePolarity,Negative*%
%FSLAX46Y46*%
G04 Gerber Fmt 4.6, Leading zero omitted, Abs format (unit mm)*
G04 Created by KiCad (PCBNEW 7.0.1-0) date 2023-05-23 13:41:44*
%MOMM*%
%LPD*%
G01*
G04 APERTURE LIST*
G04 Aperture macros list*
%AMRoundRect*
0 Rectangle with rounded corners*
0 $1 Rounding radius*
0 $2 $3 $4 $5 $6 $7 $8 $9 X,Y pos of 4 corners*
0 Add a 4 corners polygon primitive as box body*
4,1,4,$2,$3,$4,$5,$6,$7,$8,$9,$2,$3,0*
0 Add four circle primitives for the rounded corners*
1,1,$1+$1,$2,$3*
1,1,$1+$1,$4,$5*
1,1,$1+$1,$6,$7*
1,1,$1+$1,$8,$9*
0 Add four rect primitives between the rounded corners*
20,1,$1+$1,$2,$3,$4,$5,0*
20,1,$1+$1,$4,$5,$6,$7,0*
20,1,$1+$1,$6,$7,$8,$9,0*
20,1,$1+$1,$8,$9,$2,$3,0*%
G04 Aperture macros list end*
%ADD10C,1.853200*%
%ADD11C,4.500000*%
%ADD12R,1.500000X1.050000*%
%ADD13O,1.500000X1.050000*%
%ADD14R,1.500000X1.500000*%
%ADD15C,1.500000*%
%ADD16C,2.250000*%
%ADD17R,1.530000X1.530000*%
%ADD18C,1.530000*%
%ADD19R,1.600000X1.600000*%
%ADD20O,1.600000X1.600000*%
%ADD21RoundRect,0.250000X-0.350000X-0.560000X0.350000X-0.560000X0.350000X0.560000X-0.350000X0.560000X0*%
%ADD22O,1.200000X1.650000*%
G04 APERTURE END LIST*
D10*
%TO.C,J5*%
X126730000Y-132190000D03*
X129270000Y-132190000D03*
%TD*%
D11*
%TO.C,REF\u002A\u002A*%
X178500000Y-75000000D03*
%TD*%
D12*
%TO.C,Q1*%
X122200000Y-117230000D03*
D13*
X122200000Y-118500000D03*
X122200000Y-119770000D03*
%TD*%
D14*
%TO.C,U1*%
X178508750Y-114200000D03*
D15*
X175968750Y-114200000D03*
X173428750Y-114200000D03*
X170888750Y-114200000D03*
X170888750Y-121820000D03*
X173428750Y-121820000D03*
X175968750Y-121820000D03*
X178508750Y-121820000D03*
%TD*%
D10*
%TO.C,J4*%
X135980000Y-132090000D03*
X138520000Y-132090000D03*
%TD*%
D14*
%TO.C,U4*%
X131275000Y-115200000D03*
D15*
X128735000Y-115200000D03*
X128735000Y-122820000D03*
X131275000Y-122820000D03*
%TD*%
D14*
%TO.C,U3*%
X138775000Y-115200000D03*
D15*
X136235000Y-115200000D03*
X136235000Y-122820000D03*
X138775000Y-122820000D03*
%TD*%
D10*
%TO.C,J6*%
X116485000Y-115230000D03*
X116485000Y-117770000D03*
%TD*%
D11*
%TO.C,REF\u002A\u002A*%
X118500000Y-135000000D03*
%TD*%
D14*
%TO.C,U5*%
X126880000Y-93380000D03*
D15*
X126880000Y-95920000D03*
X126880000Y-98460000D03*
X126880000Y-101000000D03*
X134500000Y-101000000D03*
X134500000Y-98460000D03*
X134500000Y-95920000D03*
X134500000Y-93380000D03*
%TD*%
D10*
%TO.C,J2*%
X145230000Y-132190000D03*
X147770000Y-132190000D03*
%TD*%
D11*
%TO.C,e*%
X178500000Y-135000000D03*
%TD*%
D16*
%TO.C,TP3*%
X123500000Y-127600000D03*
%TD*%
D10*
%TO.C,J3*%
X154230000Y-132190000D03*
X156770000Y-132190000D03*
%TD*%
D17*
%TO.C,U2*%
X140880000Y-60220000D03*
D18*
X140880000Y-62760000D03*
X140880000Y-65300000D03*
X140880000Y-67840000D03*
X140880000Y-70380000D03*
X140880000Y-72920000D03*
X140880000Y-75460000D03*
X140880000Y-78000000D03*
X140880000Y-80540000D03*
X140880000Y-83080000D03*
X140880000Y-85620000D03*
X140880000Y-88160000D03*
X140880000Y-90700000D03*
X140880000Y-93240000D03*
X140880000Y-95780000D03*
D17*
X156120000Y-60220000D03*
D18*
X156120000Y-62760000D03*
X156120000Y-65300000D03*
X156120000Y-67840000D03*
X156120000Y-70380000D03*
X156120000Y-72920000D03*
X156120000Y-75460000D03*
X156120000Y-78000000D03*
X156120000Y-80540000D03*
X156120000Y-83080000D03*
X156120000Y-85620000D03*
X156120000Y-88160000D03*
X156120000Y-90700000D03*
X156120000Y-93240000D03*
X156120000Y-95780000D03*
%TD*%
D19*
%TO.C,SW1*%
X134150000Y-58075000D03*
D20*
X131610000Y-58075000D03*
X131610000Y-65695000D03*
X134150000Y-65695000D03*
%TD*%
D16*
%TO.C,TP2*%
X171900000Y-124600000D03*
%TD*%
D11*
%TO.C,REF\u002A\u002A*%
X118500000Y-75000000D03*
%TD*%
D16*
%TO.C,TP1*%
X175100000Y-124600000D03*
%TD*%
D21*
%TO.C,J1*%
X163500000Y-131200000D03*
D22*
X163500000Y-133200000D03*
X165500000Y-131200000D03*
X165500000Y-133200000D03*
X167500000Y-131200000D03*
X167500000Y-133200000D03*
X169500000Y-131200000D03*
X169500000Y-133200000D03*
%TD*%
D16*
%TO.C,TP4*%
X132700000Y-128200000D03*
%TD*%
%TO.C,TP5*%
X144500000Y-114400000D03*
%TD*%
M02*
