%TF.GenerationSoftware,KiCad,Pcbnew,7.0.1-0*%
%TF.CreationDate,2023-05-23T13:41:44+09:00*%
%TF.ProjectId,FlightModule,466c6967-6874-44d6-9f64-756c652e6b69,rev?*%
%TF.SameCoordinates,Original*%
%TF.FileFunction,Soldermask,Top*%
%TF.FilePolarity,Negative*%
%FSLAX46Y46*%
G04 Gerber Fmt 4.6, Leading zero omitted, Abs format (unit mm)*
G04 Created by KiCad (PCBNEW 7.0.1-0) date 2023-05-23 13:41:44*
%MOMM*%
%LPD*%
G01*
G04 APERTURE LIST*
G04 Aperture macros list*
%AMRoundRect*
0 Rectangle with rounded corners*
0 $1 Rounding radius*
0 $2 $3 $4 $5 $6 $7 $8 $9 X,Y pos of 4 corners*
0 Add a 4 corners polygon primitive as box body*
4,1,4,$2,$3,$4,$5,$6,$7,$8,$9,$2,$3,0*
0 Add four circle primitives for the rounded corners*
1,1,$1+$1,$2,$3*
1,1,$1+$1,$4,$5*
1,1,$1+$1,$6,$7*
1,1,$1+$1,$8,$9*
0 Add four rect primitives between the rounded corners*
20,1,$1+$1,$2,$3,$4,$5,0*
20,1,$1+$1,$4,$5,$6,$7,0*
20,1,$1+$1,$6,$7,$8,$9,0*
20,1,$1+$1,$8,$9,$2,$3,0*%
G04 Aperture macros list end*
%ADD10C,1.853200*%
%ADD11C,4.500000*%
%ADD12RoundRect,0.250000X0.300000X0.300000X-0.300000X0.300000X-0.300000X-0.300000X0.300000X-0.300000X0*%
%ADD13R,1.500000X1.050000*%
%ADD14O,1.500000X1.050000*%
%ADD15RoundRect,0.237500X-0.250000X-0.237500X0.250000X-0.237500X0.250000X0.237500X-0.250000X0.237500X0*%
%ADD16RoundRect,0.237500X0.250000X0.237500X-0.250000X0.237500X-0.250000X-0.237500X0.250000X-0.237500X0*%
%ADD17R,1.500000X1.500000*%
%ADD18C,1.500000*%
%ADD19RoundRect,0.237500X0.237500X-0.250000X0.237500X0.250000X-0.237500X0.250000X-0.237500X-0.250000X0*%
%ADD20RoundRect,0.237500X-0.287500X-0.237500X0.287500X-0.237500X0.287500X0.237500X-0.287500X0.237500X0*%
%ADD21RoundRect,0.237500X0.237500X-0.300000X0.237500X0.300000X-0.237500X0.300000X-0.237500X-0.300000X0*%
%ADD22RoundRect,0.237500X-0.300000X-0.237500X0.300000X-0.237500X0.300000X0.237500X-0.300000X0.237500X0*%
%ADD23RoundRect,0.237500X-0.237500X0.250000X-0.237500X-0.250000X0.237500X-0.250000X0.237500X0.250000X0*%
%ADD24C,2.250000*%
%ADD25RoundRect,0.237500X0.287500X0.237500X-0.287500X0.237500X-0.287500X-0.237500X0.287500X-0.237500X0*%
%ADD26R,1.530000X1.530000*%
%ADD27C,1.530000*%
%ADD28R,1.600000X1.600000*%
%ADD29O,1.600000X1.600000*%
%ADD30RoundRect,0.250000X-0.350000X-0.560000X0.350000X-0.560000X0.350000X0.560000X-0.350000X0.560000X0*%
%ADD31O,1.200000X1.650000*%
%ADD32RoundRect,0.250000X-0.550000X1.500000X-0.550000X-1.500000X0.550000X-1.500000X0.550000X1.500000X0*%
G04 APERTURE END LIST*
D10*
%TO.C,J5*%
X126730000Y-132190000D03*
X129270000Y-132190000D03*
%TD*%
D11*
%TO.C,REF\u002A\u002A*%
X178500000Y-75000000D03*
%TD*%
D12*
%TO.C,D6*%
X129400000Y-127700000D03*
X126600000Y-127700000D03*
%TD*%
D13*
%TO.C,Q1*%
X122200000Y-117230000D03*
D14*
X122200000Y-118500000D03*
X122200000Y-119770000D03*
%TD*%
D15*
%TO.C,R3*%
X171587500Y-94000000D03*
X173412500Y-94000000D03*
%TD*%
D16*
%TO.C,R10*%
X163500000Y-124500000D03*
X161675000Y-124500000D03*
%TD*%
D17*
%TO.C,U1*%
X178508750Y-114200000D03*
D18*
X175968750Y-114200000D03*
X173428750Y-114200000D03*
X170888750Y-114200000D03*
X170888750Y-121820000D03*
X173428750Y-121820000D03*
X175968750Y-121820000D03*
X178508750Y-121820000D03*
%TD*%
D10*
%TO.C,J4*%
X135980000Y-132090000D03*
X138520000Y-132090000D03*
%TD*%
D19*
%TO.C,R15*%
X135750000Y-112500000D03*
X135750000Y-110675000D03*
%TD*%
D17*
%TO.C,U4*%
X131275000Y-115200000D03*
D18*
X128735000Y-115200000D03*
X128735000Y-122820000D03*
X131275000Y-122820000D03*
%TD*%
D15*
%TO.C,R8*%
X176175000Y-87000000D03*
X178000000Y-87000000D03*
%TD*%
D20*
%TO.C,D13*%
X111125000Y-85200000D03*
X112875000Y-85200000D03*
%TD*%
D15*
%TO.C,R17*%
X144587500Y-126100000D03*
X146412500Y-126100000D03*
%TD*%
D17*
%TO.C,U3*%
X138775000Y-115200000D03*
D18*
X136235000Y-115200000D03*
X136235000Y-122820000D03*
X138775000Y-122820000D03*
%TD*%
D21*
%TO.C,C2*%
X167708750Y-116862500D03*
X167708750Y-115137500D03*
%TD*%
D20*
%TO.C,D14*%
X111125000Y-88200000D03*
X112875000Y-88200000D03*
%TD*%
D16*
%TO.C,R22*%
X118512500Y-88200000D03*
X116687500Y-88200000D03*
%TD*%
%TO.C,R19*%
X118512500Y-94200000D03*
X116687500Y-94200000D03*
%TD*%
%TO.C,R21*%
X118512500Y-85200000D03*
X116687500Y-85200000D03*
%TD*%
%TO.C,R16*%
X128912500Y-90500000D03*
X127087500Y-90500000D03*
%TD*%
D15*
%TO.C,R25*%
X142787500Y-107900000D03*
X144612500Y-107900000D03*
%TD*%
D16*
%TO.C,R13*%
X116812500Y-123500000D03*
X114987500Y-123500000D03*
%TD*%
D20*
%TO.C,D11*%
X111125000Y-94170000D03*
X112875000Y-94170000D03*
%TD*%
%TO.C,D1*%
X179125000Y-103800000D03*
X180875000Y-103800000D03*
%TD*%
D21*
%TO.C,C1*%
X167709457Y-121538207D03*
X167709457Y-119813207D03*
%TD*%
D15*
%TO.C,R6*%
X179087500Y-107000000D03*
X180912500Y-107000000D03*
%TD*%
D10*
%TO.C,J6*%
X116485000Y-115230000D03*
X116485000Y-117770000D03*
%TD*%
D20*
%TO.C,D2*%
X173125000Y-103800000D03*
X174875000Y-103800000D03*
%TD*%
D19*
%TO.C,R1*%
X181200000Y-122000000D03*
X181200000Y-120175000D03*
%TD*%
D15*
%TO.C,R5*%
X173087500Y-107000000D03*
X174912500Y-107000000D03*
%TD*%
D22*
%TO.C,C4*%
X147237500Y-107900000D03*
X148962500Y-107900000D03*
%TD*%
D11*
%TO.C,REF\u002A\u002A*%
X118500000Y-135000000D03*
%TD*%
D17*
%TO.C,U5*%
X126880000Y-93380000D03*
D18*
X126880000Y-95920000D03*
X126880000Y-98460000D03*
X126880000Y-101000000D03*
X134500000Y-101000000D03*
X134500000Y-98460000D03*
X134500000Y-95920000D03*
X134500000Y-93380000D03*
%TD*%
D16*
%TO.C,R18*%
X118512500Y-91200000D03*
X116687500Y-91200000D03*
%TD*%
D15*
%TO.C,R20*%
X144587500Y-123000000D03*
X146412500Y-123000000D03*
%TD*%
%TO.C,R9*%
X171587500Y-87000000D03*
X173412500Y-87000000D03*
%TD*%
%TO.C,R4*%
X171587500Y-90500000D03*
X173412500Y-90500000D03*
%TD*%
D10*
%TO.C,J2*%
X145230000Y-132190000D03*
X147770000Y-132190000D03*
%TD*%
D11*
%TO.C,e*%
X178500000Y-135000000D03*
%TD*%
D23*
%TO.C,R14*%
X139250000Y-110587500D03*
X139250000Y-112412500D03*
%TD*%
D24*
%TO.C,TP3*%
X123500000Y-127600000D03*
%TD*%
D25*
%TO.C,D3*%
X150375000Y-126100000D03*
X148625000Y-126100000D03*
%TD*%
D23*
%TO.C,R11*%
X131750000Y-110587500D03*
X131750000Y-112412500D03*
%TD*%
D16*
%TO.C,R23*%
X149612500Y-112100000D03*
X147787500Y-112100000D03*
%TD*%
D20*
%TO.C,D10*%
X111125000Y-123500000D03*
X112875000Y-123500000D03*
%TD*%
D10*
%TO.C,J3*%
X154230000Y-132190000D03*
X156770000Y-132190000D03*
%TD*%
D26*
%TO.C,U2*%
X140880000Y-60220000D03*
D27*
X140880000Y-62760000D03*
X140880000Y-65300000D03*
X140880000Y-67840000D03*
X140880000Y-70380000D03*
X140880000Y-72920000D03*
X140880000Y-75460000D03*
X140880000Y-78000000D03*
X140880000Y-80540000D03*
X140880000Y-83080000D03*
X140880000Y-85620000D03*
X140880000Y-88160000D03*
X140880000Y-90700000D03*
X140880000Y-93240000D03*
X140880000Y-95780000D03*
D26*
X156120000Y-60220000D03*
D27*
X156120000Y-62760000D03*
X156120000Y-65300000D03*
X156120000Y-67840000D03*
X156120000Y-70380000D03*
X156120000Y-72920000D03*
X156120000Y-75460000D03*
X156120000Y-78000000D03*
X156120000Y-80540000D03*
X156120000Y-83080000D03*
X156120000Y-85620000D03*
X156120000Y-88160000D03*
X156120000Y-90700000D03*
X156120000Y-93240000D03*
X156120000Y-95780000D03*
%TD*%
D28*
%TO.C,SW1*%
X134150000Y-58075000D03*
D29*
X131610000Y-58075000D03*
X131610000Y-65695000D03*
X134150000Y-65695000D03*
%TD*%
D15*
%TO.C,R2*%
X176087500Y-90500000D03*
X177912500Y-90500000D03*
%TD*%
D24*
%TO.C,TP2*%
X171900000Y-124600000D03*
%TD*%
D12*
%TO.C,D7*%
X138400000Y-127700000D03*
X135600000Y-127700000D03*
%TD*%
D20*
%TO.C,D5*%
X157625000Y-124500000D03*
X159375000Y-124500000D03*
%TD*%
D11*
%TO.C,REF\u002A\u002A*%
X118500000Y-75000000D03*
%TD*%
D24*
%TO.C,TP1*%
X175100000Y-124600000D03*
%TD*%
D30*
%TO.C,J1*%
X163500000Y-131200000D03*
D31*
X163500000Y-133200000D03*
X165500000Y-131200000D03*
X165500000Y-133200000D03*
X167500000Y-131200000D03*
X167500000Y-133200000D03*
X169500000Y-131200000D03*
X169500000Y-133200000D03*
%TD*%
D24*
%TO.C,TP4*%
X132700000Y-128200000D03*
%TD*%
D15*
%TO.C,R7*%
X176087500Y-94000000D03*
X177912500Y-94000000D03*
%TD*%
D25*
%TO.C,D4*%
X150375000Y-123000000D03*
X148625000Y-123000000D03*
%TD*%
D24*
%TO.C,TP5*%
X144500000Y-114400000D03*
%TD*%
D20*
%TO.C,D12*%
X111250000Y-91200000D03*
X113000000Y-91200000D03*
%TD*%
D16*
%TO.C,R24*%
X144612500Y-109700000D03*
X142787500Y-109700000D03*
%TD*%
D19*
%TO.C,R12*%
X128250000Y-112500000D03*
X128250000Y-110675000D03*
%TD*%
D32*
%TO.C,C3*%
X154000000Y-113300000D03*
X154000000Y-118700000D03*
%TD*%
M02*
