%TF.GenerationSoftware,KiCad,Pcbnew,7.0.1*%
%TF.CreationDate,2023-05-22T07:14:15+09:00*%
%TF.ProjectId,THRControlModuleBoard,54485243-6f6e-4747-926f-6c4d6f64756c,rev?*%
%TF.SameCoordinates,Original*%
%TF.FileFunction,Paste,Bot*%
%TF.FilePolarity,Positive*%
%FSLAX46Y46*%
G04 Gerber Fmt 4.6, Leading zero omitted, Abs format (unit mm)*
G04 Created by KiCad (PCBNEW 7.0.1) date 2023-05-22 07:14:15*
%MOMM*%
%LPD*%
G01*
G04 APERTURE LIST*
G04 Aperture macros list*
%AMRoundRect*
0 Rectangle with rounded corners*
0 $1 Rounding radius*
0 $2 $3 $4 $5 $6 $7 $8 $9 X,Y pos of 4 corners*
0 Add a 4 corners polygon primitive as box body*
4,1,4,$2,$3,$4,$5,$6,$7,$8,$9,$2,$3,0*
0 Add four circle primitives for the rounded corners*
1,1,$1+$1,$2,$3*
1,1,$1+$1,$4,$5*
1,1,$1+$1,$6,$7*
1,1,$1+$1,$8,$9*
0 Add four rect primitives between the rounded corners*
20,1,$1+$1,$2,$3,$4,$5,0*
20,1,$1+$1,$4,$5,$6,$7,0*
20,1,$1+$1,$6,$7,$8,$9,0*
20,1,$1+$1,$8,$9,$2,$3,0*%
G04 Aperture macros list end*
%ADD10RoundRect,0.250000X0.337500X0.475000X-0.337500X0.475000X-0.337500X-0.475000X0.337500X-0.475000X0*%
%ADD11RoundRect,0.237500X-0.237500X0.250000X-0.237500X-0.250000X0.237500X-0.250000X0.237500X0.250000X0*%
%ADD12RoundRect,0.237500X0.237500X-0.300000X0.237500X0.300000X-0.237500X0.300000X-0.237500X-0.300000X0*%
%ADD13RoundRect,0.250000X-0.337500X-0.475000X0.337500X-0.475000X0.337500X0.475000X-0.337500X0.475000X0*%
%ADD14RoundRect,0.237500X-0.250000X-0.237500X0.250000X-0.237500X0.250000X0.237500X-0.250000X0.237500X0*%
%ADD15RoundRect,0.237500X0.250000X0.237500X-0.250000X0.237500X-0.250000X-0.237500X0.250000X-0.237500X0*%
%ADD16RoundRect,0.237500X-0.237500X0.300000X-0.237500X-0.300000X0.237500X-0.300000X0.237500X0.300000X0*%
%ADD17RoundRect,0.237500X0.300000X0.237500X-0.300000X0.237500X-0.300000X-0.237500X0.300000X-0.237500X0*%
G04 APERTURE END LIST*
D10*
%TO.C,C15*%
X143562500Y-104950000D03*
X145637500Y-104950000D03*
%TD*%
D11*
%TO.C,R9*%
X162650000Y-84462500D03*
X162650000Y-82637500D03*
%TD*%
D12*
%TO.C,C10*%
X161500000Y-101037500D03*
X161500000Y-102762500D03*
%TD*%
D13*
%TO.C,C13*%
X150487500Y-100600000D03*
X148412500Y-100600000D03*
%TD*%
D14*
%TO.C,R6*%
X155262500Y-125850000D03*
X153437500Y-125850000D03*
%TD*%
%TO.C,R18*%
X144662500Y-92450000D03*
X142837500Y-92450000D03*
%TD*%
D15*
%TO.C,R20*%
X148137500Y-85650000D03*
X149962500Y-85650000D03*
%TD*%
%TO.C,R16*%
X143737500Y-107650000D03*
X145562500Y-107650000D03*
%TD*%
D14*
%TO.C,R22*%
X127512500Y-119450000D03*
X125687500Y-119450000D03*
%TD*%
%TO.C,R12*%
X156912500Y-120900000D03*
X155087500Y-120900000D03*
%TD*%
%TO.C,R13*%
X155087500Y-114400000D03*
X156912500Y-114400000D03*
%TD*%
D12*
%TO.C,C9*%
X162550000Y-78587500D03*
X162550000Y-80312500D03*
%TD*%
%TO.C,C8*%
X139050000Y-118887500D03*
X139050000Y-120612500D03*
%TD*%
D16*
%TO.C,C11*%
X160000000Y-98862500D03*
X160000000Y-97137500D03*
%TD*%
D10*
%TO.C,C17*%
X142712500Y-89150000D03*
X144787500Y-89150000D03*
%TD*%
D14*
%TO.C,R10*%
X159562500Y-70950000D03*
X157737500Y-70950000D03*
%TD*%
D15*
%TO.C,R7*%
X134137500Y-130950000D03*
X135962500Y-130950000D03*
%TD*%
D14*
%TO.C,R15*%
X150062500Y-92450000D03*
X148237500Y-92450000D03*
%TD*%
%TO.C,R17*%
X122112500Y-123400000D03*
X120287500Y-123400000D03*
%TD*%
D10*
%TO.C,C14*%
X148012500Y-89150000D03*
X150087500Y-89150000D03*
%TD*%
D12*
%TO.C,C7*%
X138250000Y-129237500D03*
X138250000Y-130962500D03*
%TD*%
D14*
%TO.C,R14*%
X150512500Y-103900000D03*
X148687500Y-103900000D03*
%TD*%
D10*
%TO.C,C12*%
X155012500Y-117650000D03*
X157087500Y-117650000D03*
%TD*%
D13*
%TO.C,C16*%
X125987500Y-122700000D03*
X123912500Y-122700000D03*
%TD*%
D14*
%TO.C,R19*%
X150477500Y-97300000D03*
X148652500Y-97300000D03*
%TD*%
D17*
%TO.C,C6*%
X145587500Y-116800000D03*
X147312500Y-116800000D03*
%TD*%
D15*
%TO.C,R23*%
X142837500Y-85650000D03*
X144662500Y-85650000D03*
%TD*%
%TO.C,R21*%
X143687500Y-102050000D03*
X145512500Y-102050000D03*
%TD*%
%TO.C,R8*%
X134337500Y-120450000D03*
X136162500Y-120450000D03*
%TD*%
M02*
