%TF.GenerationSoftware,KiCad,Pcbnew,7.0.1*%
%TF.CreationDate,2023-05-22T07:14:15+09:00*%
%TF.ProjectId,THRControlModuleBoard,54485243-6f6e-4747-926f-6c4d6f64756c,rev?*%
%TF.SameCoordinates,Original*%
%TF.FileFunction,Paste,Top*%
%TF.FilePolarity,Positive*%
%FSLAX46Y46*%
G04 Gerber Fmt 4.6, Leading zero omitted, Abs format (unit mm)*
G04 Created by KiCad (PCBNEW 7.0.1) date 2023-05-22 07:14:15*
%MOMM*%
%LPD*%
G01*
G04 APERTURE LIST*
G04 Aperture macros list*
%AMRoundRect*
0 Rectangle with rounded corners*
0 $1 Rounding radius*
0 $2 $3 $4 $5 $6 $7 $8 $9 X,Y pos of 4 corners*
0 Add a 4 corners polygon primitive as box body*
4,1,4,$2,$3,$4,$5,$6,$7,$8,$9,$2,$3,0*
0 Add four circle primitives for the rounded corners*
1,1,$1+$1,$2,$3*
1,1,$1+$1,$4,$5*
1,1,$1+$1,$6,$7*
1,1,$1+$1,$8,$9*
0 Add four rect primitives between the rounded corners*
20,1,$1+$1,$2,$3,$4,$5,0*
20,1,$1+$1,$4,$5,$6,$7,0*
20,1,$1+$1,$6,$7,$8,$9,0*
20,1,$1+$1,$8,$9,$2,$3,0*%
G04 Aperture macros list end*
%ADD10RoundRect,0.100000X-0.100000X0.637500X-0.100000X-0.637500X0.100000X-0.637500X0.100000X0.637500X0*%
%ADD11RoundRect,0.237500X-0.300000X-0.237500X0.300000X-0.237500X0.300000X0.237500X-0.300000X0.237500X0*%
%ADD12RoundRect,0.225000X0.225000X0.375000X-0.225000X0.375000X-0.225000X-0.375000X0.225000X-0.375000X0*%
%ADD13RoundRect,0.250000X-0.450000X0.350000X-0.450000X-0.350000X0.450000X-0.350000X0.450000X0.350000X0*%
%ADD14RoundRect,0.250000X0.350000X0.450000X-0.350000X0.450000X-0.350000X-0.450000X0.350000X-0.450000X0*%
%ADD15RoundRect,0.225000X0.375000X-0.225000X0.375000X0.225000X-0.375000X0.225000X-0.375000X-0.225000X0*%
%ADD16RoundRect,0.250000X-0.350000X-0.450000X0.350000X-0.450000X0.350000X0.450000X-0.350000X0.450000X0*%
%ADD17RoundRect,0.237500X0.250000X0.237500X-0.250000X0.237500X-0.250000X-0.237500X0.250000X-0.237500X0*%
%ADD18RoundRect,0.237500X-0.237500X0.300000X-0.237500X-0.300000X0.237500X-0.300000X0.237500X0.300000X0*%
%ADD19RoundRect,0.237500X0.300000X0.237500X-0.300000X0.237500X-0.300000X-0.237500X0.300000X-0.237500X0*%
G04 APERTURE END LIST*
D10*
%TO.C,U1*%
X136152000Y-48819500D03*
X135502000Y-48819500D03*
X134852000Y-48819500D03*
X134202000Y-48819500D03*
X133552000Y-48819500D03*
X132902000Y-48819500D03*
X132252000Y-48819500D03*
X132252000Y-54544500D03*
X132902000Y-54544500D03*
X133552000Y-54544500D03*
X134202000Y-54544500D03*
X134852000Y-54544500D03*
X135502000Y-54544500D03*
X136152000Y-54544500D03*
%TD*%
D11*
%TO.C,C2*%
X133593500Y-45586000D03*
X135318500Y-45586000D03*
%TD*%
D12*
%TO.C,D3*%
X145900000Y-56050000D03*
X142600000Y-56050000D03*
%TD*%
%TO.C,D1*%
X151500000Y-54950000D03*
X148200000Y-54950000D03*
%TD*%
D13*
%TO.C,R4*%
X141314000Y-48666000D03*
X141314000Y-50666000D03*
%TD*%
D14*
%TO.C,R2*%
X139520000Y-45586000D03*
X137520000Y-45586000D03*
%TD*%
D15*
%TO.C,D2*%
X140200000Y-58150000D03*
X140200000Y-54850000D03*
%TD*%
D13*
%TO.C,R5*%
X144362000Y-48650000D03*
X144362000Y-50650000D03*
%TD*%
D16*
%TO.C,R1*%
X129250000Y-45850000D03*
X131250000Y-45850000D03*
%TD*%
D13*
%TO.C,R3*%
X147410000Y-48666000D03*
X147410000Y-50666000D03*
%TD*%
D11*
%TO.C,C1*%
X127751500Y-48888000D03*
X129476500Y-48888000D03*
%TD*%
D17*
%TO.C,R11*%
X158262500Y-77850000D03*
X156437500Y-77850000D03*
%TD*%
D18*
%TO.C,C3*%
X138450000Y-49387500D03*
X138450000Y-51112500D03*
%TD*%
D19*
%TO.C,C5*%
X129412500Y-58750000D03*
X127687500Y-58750000D03*
%TD*%
%TO.C,C4*%
X129476500Y-52444000D03*
X127751500Y-52444000D03*
%TD*%
M02*
