M48
; DRILL file {KiCad 7.0.1} date Thu May 25 18:42:57 2023
; FORMAT={-:-/ absolute / inch / decimal}
; #@! TF.CreationDate,2023-05-25T18:42:57+09:00
; #@! TF.GenerationSoftware,Kicad,Pcbnew,7.0.1
; #@! TF.FileFunction,Plated,1,2,PTH
FMAT,2
INCH
; #@! TA.AperFunction,Plated,PTH,ViaDrill
T1C0.0157
; #@! TA.AperFunction,Plated,PTH,ComponentDrill
T2C0.0289
; #@! TA.AperFunction,Plated,PTH,ComponentDrill
T3C0.0315
; #@! TA.AperFunction,Plated,PTH,ComponentDrill
T4C0.0335
; #@! TA.AperFunction,Plated,PTH,ComponentDrill
T5C0.0390
; #@! TA.AperFunction,Plated,PTH,ComponentDrill
T6C0.0394
; #@! TA.AperFunction,Plated,PTH,ComponentDrill
T7C0.0433
; #@! TA.AperFunction,Plated,PTH,ComponentDrill
T8C0.0449
; #@! TA.AperFunction,Plated,PTH,ComponentDrill
T9C0.0591
%
G90
G05
T1
X3.3937Y-6.0354
X3.4803Y-5.6535
X3.6772Y-5.0551
X3.9055Y-6.1496
X3.9843Y-5.0827
X4.1732Y-2.0591
X4.1811Y-2.2913
X4.2559Y-1.2126
X4.2953Y-6.1575
X4.4469Y-5.6063
X4.4941Y-4.9882
X4.5827Y-1.2559
X4.5886Y-5.2421
X4.6496Y-2.4409
X4.7731Y-5.6644
X4.8307Y-4.7953
X4.8386Y-6.0354
X4.8661Y-1.3465
X4.9035Y-5.7736
X4.9055Y-5.2913
X4.9469Y-5.2185
X5.0217Y-5.5059
X5.0276Y-1.4055
X5.0512Y-4.6378
X5.0531Y-5.2736
X5.0591Y-4.7559
X5.065Y-2.4311
X5.1004Y-5.4272
X5.1496Y-1.9193
X5.1496Y-5.3858
X5.1614Y-4.5827
X5.1654Y-5.1417
X5.1673Y-2.5256
X5.1909Y-2.4154
X5.2047Y-4.6575
X5.2205Y-4.7874
X5.2233Y-2.0057
X5.2328Y-2.0674
X5.2598Y-4.6024
X5.2638Y-2.9803
X5.2879Y-2.3145
X5.2953Y-5.6555
X5.2972Y-4.4154
X5.3307Y-3.185
X5.3445Y-1.8612
X5.3573Y-3.0728
X5.3612Y-5.7431
X5.3642Y-2.2933
X5.3652Y-3.321
X5.372Y-2.2421
X5.372Y-2.3809
X5.3957Y-5.5059
X5.4094Y-1.5866
X5.4134Y-5.2047
X5.4213Y-4.7205
X5.4547Y-4.4232
X5.4724Y-2.0866
X5.4862Y-2.8209
X5.4862Y-5.6988
X5.5059Y-5.0906
X5.5059Y-4.9961
X5.5157Y-4.3622
X5.5197Y-4.1811
X5.5295Y-3.2317
X5.5394Y-3.437
X5.5394Y-4.0669
X5.5443Y-2.8657
X5.5443Y-3.9508
X5.5473Y-4.8685
X5.565Y-4.3091
X5.5674Y-4.3942
X5.5709Y-4.5531
X5.5709Y-4.6181
X5.5728Y-3.7854
X5.5787Y-5.2323
X5.5832Y-4.6973
X5.5846Y-1.8287
X5.5866Y-2.5197
X5.591Y-3.2997
X5.6083Y-3.7539
X5.6235Y-2.0847
X5.6339Y-3.0
X5.6378Y-3.437
X5.6467Y-3.8898
X5.6673Y-3.2461
X5.7008Y-4.3081
X5.7087Y-3.8917
X5.7227Y-4.6479
X5.7402Y-3.4331
X5.7421Y-4.7431
X5.7535Y-5.4621
X5.7535Y-1.8647
X5.7535Y-2.1247
X5.7559Y-4.2874
X5.7677Y-3.2618
X5.7677Y-3.7402
X5.7726Y-3.9469
X5.7776Y-2.9488
X5.8007Y-5.3755
X5.8012Y-3.876
X5.8307Y-2.8209
X5.8307Y-4.1969
X5.8327Y-4.2618
X5.8346Y-3.7539
X5.8543Y-4.6535
X5.8824Y-5.3115
X5.9252Y-4.2018
X5.9252Y-2.0236
X5.9424Y-5.1708
X5.9587Y-3.0492
X5.9606Y-4.2992
X5.9606Y-4.622
X5.9665Y-3.25
X5.9783Y-4.9114
X6.0694Y-5.1166
X6.1043Y-4.6988
X6.1073Y-3.75
X6.1161Y-3.1516
X6.1299Y-4.378
X6.1358Y-3.8799
X6.1378Y-3.9803
X6.1516Y-4.8839
X6.1663Y-4.1417
X6.1811Y-4.2441
X6.1929Y-2.3898
X6.2175Y-4.2795
X6.2402Y-3.8819
X6.2426Y-4.1284
X6.2468Y-4.3998
X6.252Y-4.0276
X6.2776Y-3.4114
X6.2835Y-2.5551
X6.2913Y-4.7067
X6.3031Y-3.6614
X6.3179Y-3.5256
X6.3406Y-3.1516
X6.3465Y-4.6417
X6.3642Y-3.4547
X6.3898Y-3.7677
X6.4035Y-3.4272
X6.437Y-3.8819
X6.4961Y-4.2047
T2
X5.163Y-4.9205
X5.163Y-5.233
X5.1748Y-4.5111
X5.1748Y-4.8236
X5.263Y-4.9205
X5.263Y-5.233
X5.2748Y-4.5111
X5.2748Y-4.8236
X5.363Y-4.9205
X5.363Y-5.233
X5.3748Y-4.5111
X5.3748Y-4.8236
X5.463Y-4.9205
X5.463Y-5.233
X5.4748Y-4.5111
X5.4748Y-4.8236
T3
X4.9809Y-5.8018
X5.0166Y-5.872
X5.051Y-5.7661
X5.0868Y-5.8363
X5.1212Y-5.7304
X5.1569Y-5.8005
X5.4636Y-5.5264
X5.5142Y-5.5867
X5.5239Y-5.4757
X5.5745Y-5.5361
X5.5842Y-5.4251
X5.6348Y-5.4855
X5.6744Y-4.5098
X5.6744Y-4.8098
X5.7744Y-4.5098
X5.7744Y-4.8098
X5.8744Y-4.5098
X5.8744Y-4.8098
X5.9744Y-4.5098
X5.9744Y-4.8098
X6.1919Y-2.6862
X6.1919Y-2.9862
X6.2919Y-2.6862
X6.2919Y-2.9862
X6.3425Y-4.2311
X6.3425Y-4.4232
T4
X4.4159Y-5.7953
X4.4336Y-5.872
X4.4926Y-5.7776
X4.5103Y-5.8543
X4.5693Y-5.7599
X4.587Y-5.8366
X4.6461Y-5.7422
X4.6638Y-5.8189
T5
X6.1866Y-3.2319
X6.1866Y-3.3319
X6.1866Y-3.4319
X6.1866Y-3.5319
X6.1866Y-3.6319
X6.1866Y-3.7319
X6.1866Y-3.8319
X6.1866Y-3.9319
X6.1866Y-4.0319
X6.4866Y-3.2319
X6.4866Y-3.3319
X6.4866Y-3.4319
X6.4866Y-3.5319
X6.4866Y-3.6319
X6.4866Y-3.7319
X6.4866Y-3.8319
X6.4866Y-3.9319
X6.4866Y-4.0319
T6
X4.1147Y-6.0167
X4.1489Y-5.9227
X4.1831Y-5.8287
X4.2173Y-5.7348
X4.2515Y-5.6408
X4.2857Y-5.5468
X5.4457Y-2.9031
X5.4457Y-3.0031
X5.4457Y-3.1031
X5.4457Y-3.2031
X5.4457Y-3.3031
X5.4457Y-3.4031
X5.4457Y-3.5031
X5.4457Y-3.6031
X5.4457Y-3.7031
X5.4457Y-3.8031
X5.4457Y-3.9031
X5.4457Y-4.0031
X5.4457Y-4.1031
X5.4457Y-4.2031
X5.4457Y-4.3031
X6.0457Y-2.9031
X6.0457Y-3.0031
X6.0457Y-3.1031
X6.0457Y-3.2031
X6.0457Y-3.3031
X6.0457Y-3.4031
X6.0457Y-3.5031
X6.0457Y-3.6031
X6.0457Y-3.7031
X6.0457Y-3.8031
X6.0457Y-3.9031
X6.0457Y-4.0031
X6.0457Y-4.1031
X6.0457Y-4.2031
X6.0457Y-4.3031
T7
X4.5764Y-5.4724
X4.6217Y-5.0492
X4.6764Y-5.4724
X4.7217Y-5.0492
X4.7764Y-5.4724
X4.8217Y-5.0492
X4.8764Y-5.4724
X4.9217Y-5.0492
T8
X4.9765Y-2.2159
X5.5314Y-2.4179
T9
X4.7421Y-1.4724
X4.7421Y-1.7835
T0
M30
