%TF.GenerationSoftware,KiCad,Pcbnew,7.0.1*%
%TF.CreationDate,2023-05-22T07:14:15+09:00*%
%TF.ProjectId,THRControlModuleBoard,54485243-6f6e-4747-926f-6c4d6f64756c,rev?*%
%TF.SameCoordinates,Original*%
%TF.FileFunction,Legend,Bot*%
%TF.FilePolarity,Positive*%
%FSLAX46Y46*%
G04 Gerber Fmt 4.6, Leading zero omitted, Abs format (unit mm)*
G04 Created by KiCad (PCBNEW 7.0.1) date 2023-05-22 07:14:15*
%MOMM*%
%LPD*%
G01*
G04 APERTURE LIST*
%ADD10C,0.150000*%
%ADD11C,0.120000*%
%ADD12C,0.127000*%
G04 APERTURE END LIST*
D10*
%TO.C,C15*%
X141892857Y-105467380D02*
X141940476Y-105515000D01*
X141940476Y-105515000D02*
X142083333Y-105562619D01*
X142083333Y-105562619D02*
X142178571Y-105562619D01*
X142178571Y-105562619D02*
X142321428Y-105515000D01*
X142321428Y-105515000D02*
X142416666Y-105419761D01*
X142416666Y-105419761D02*
X142464285Y-105324523D01*
X142464285Y-105324523D02*
X142511904Y-105134047D01*
X142511904Y-105134047D02*
X142511904Y-104991190D01*
X142511904Y-104991190D02*
X142464285Y-104800714D01*
X142464285Y-104800714D02*
X142416666Y-104705476D01*
X142416666Y-104705476D02*
X142321428Y-104610238D01*
X142321428Y-104610238D02*
X142178571Y-104562619D01*
X142178571Y-104562619D02*
X142083333Y-104562619D01*
X142083333Y-104562619D02*
X141940476Y-104610238D01*
X141940476Y-104610238D02*
X141892857Y-104657857D01*
X140940476Y-105562619D02*
X141511904Y-105562619D01*
X141226190Y-105562619D02*
X141226190Y-104562619D01*
X141226190Y-104562619D02*
X141321428Y-104705476D01*
X141321428Y-104705476D02*
X141416666Y-104800714D01*
X141416666Y-104800714D02*
X141511904Y-104848333D01*
X140035714Y-104562619D02*
X140511904Y-104562619D01*
X140511904Y-104562619D02*
X140559523Y-105038809D01*
X140559523Y-105038809D02*
X140511904Y-104991190D01*
X140511904Y-104991190D02*
X140416666Y-104943571D01*
X140416666Y-104943571D02*
X140178571Y-104943571D01*
X140178571Y-104943571D02*
X140083333Y-104991190D01*
X140083333Y-104991190D02*
X140035714Y-105038809D01*
X140035714Y-105038809D02*
X139988095Y-105134047D01*
X139988095Y-105134047D02*
X139988095Y-105372142D01*
X139988095Y-105372142D02*
X140035714Y-105467380D01*
X140035714Y-105467380D02*
X140083333Y-105515000D01*
X140083333Y-105515000D02*
X140178571Y-105562619D01*
X140178571Y-105562619D02*
X140416666Y-105562619D01*
X140416666Y-105562619D02*
X140511904Y-105515000D01*
X140511904Y-105515000D02*
X140559523Y-105467380D01*
%TO.C,R9*%
X161682619Y-83383333D02*
X161206428Y-83050000D01*
X161682619Y-82811905D02*
X160682619Y-82811905D01*
X160682619Y-82811905D02*
X160682619Y-83192857D01*
X160682619Y-83192857D02*
X160730238Y-83288095D01*
X160730238Y-83288095D02*
X160777857Y-83335714D01*
X160777857Y-83335714D02*
X160873095Y-83383333D01*
X160873095Y-83383333D02*
X161015952Y-83383333D01*
X161015952Y-83383333D02*
X161111190Y-83335714D01*
X161111190Y-83335714D02*
X161158809Y-83288095D01*
X161158809Y-83288095D02*
X161206428Y-83192857D01*
X161206428Y-83192857D02*
X161206428Y-82811905D01*
X161682619Y-83859524D02*
X161682619Y-84050000D01*
X161682619Y-84050000D02*
X161635000Y-84145238D01*
X161635000Y-84145238D02*
X161587380Y-84192857D01*
X161587380Y-84192857D02*
X161444523Y-84288095D01*
X161444523Y-84288095D02*
X161254047Y-84335714D01*
X161254047Y-84335714D02*
X160873095Y-84335714D01*
X160873095Y-84335714D02*
X160777857Y-84288095D01*
X160777857Y-84288095D02*
X160730238Y-84240476D01*
X160730238Y-84240476D02*
X160682619Y-84145238D01*
X160682619Y-84145238D02*
X160682619Y-83954762D01*
X160682619Y-83954762D02*
X160730238Y-83859524D01*
X160730238Y-83859524D02*
X160777857Y-83811905D01*
X160777857Y-83811905D02*
X160873095Y-83764286D01*
X160873095Y-83764286D02*
X161111190Y-83764286D01*
X161111190Y-83764286D02*
X161206428Y-83811905D01*
X161206428Y-83811905D02*
X161254047Y-83859524D01*
X161254047Y-83859524D02*
X161301666Y-83954762D01*
X161301666Y-83954762D02*
X161301666Y-84145238D01*
X161301666Y-84145238D02*
X161254047Y-84240476D01*
X161254047Y-84240476D02*
X161206428Y-84288095D01*
X161206428Y-84288095D02*
X161111190Y-84335714D01*
%TO.C,JP1*%
X149783333Y-83512619D02*
X149783333Y-84226904D01*
X149783333Y-84226904D02*
X149830952Y-84369761D01*
X149830952Y-84369761D02*
X149926190Y-84465000D01*
X149926190Y-84465000D02*
X150069047Y-84512619D01*
X150069047Y-84512619D02*
X150164285Y-84512619D01*
X149307142Y-84512619D02*
X149307142Y-83512619D01*
X149307142Y-83512619D02*
X148926190Y-83512619D01*
X148926190Y-83512619D02*
X148830952Y-83560238D01*
X148830952Y-83560238D02*
X148783333Y-83607857D01*
X148783333Y-83607857D02*
X148735714Y-83703095D01*
X148735714Y-83703095D02*
X148735714Y-83845952D01*
X148735714Y-83845952D02*
X148783333Y-83941190D01*
X148783333Y-83941190D02*
X148830952Y-83988809D01*
X148830952Y-83988809D02*
X148926190Y-84036428D01*
X148926190Y-84036428D02*
X149307142Y-84036428D01*
X147783333Y-84512619D02*
X148354761Y-84512619D01*
X148069047Y-84512619D02*
X148069047Y-83512619D01*
X148069047Y-83512619D02*
X148164285Y-83655476D01*
X148164285Y-83655476D02*
X148259523Y-83750714D01*
X148259523Y-83750714D02*
X148354761Y-83798333D01*
%TO.C,C10*%
X160267380Y-101157142D02*
X160315000Y-101109523D01*
X160315000Y-101109523D02*
X160362619Y-100966666D01*
X160362619Y-100966666D02*
X160362619Y-100871428D01*
X160362619Y-100871428D02*
X160315000Y-100728571D01*
X160315000Y-100728571D02*
X160219761Y-100633333D01*
X160219761Y-100633333D02*
X160124523Y-100585714D01*
X160124523Y-100585714D02*
X159934047Y-100538095D01*
X159934047Y-100538095D02*
X159791190Y-100538095D01*
X159791190Y-100538095D02*
X159600714Y-100585714D01*
X159600714Y-100585714D02*
X159505476Y-100633333D01*
X159505476Y-100633333D02*
X159410238Y-100728571D01*
X159410238Y-100728571D02*
X159362619Y-100871428D01*
X159362619Y-100871428D02*
X159362619Y-100966666D01*
X159362619Y-100966666D02*
X159410238Y-101109523D01*
X159410238Y-101109523D02*
X159457857Y-101157142D01*
X160362619Y-102109523D02*
X160362619Y-101538095D01*
X160362619Y-101823809D02*
X159362619Y-101823809D01*
X159362619Y-101823809D02*
X159505476Y-101728571D01*
X159505476Y-101728571D02*
X159600714Y-101633333D01*
X159600714Y-101633333D02*
X159648333Y-101538095D01*
X159362619Y-102728571D02*
X159362619Y-102823809D01*
X159362619Y-102823809D02*
X159410238Y-102919047D01*
X159410238Y-102919047D02*
X159457857Y-102966666D01*
X159457857Y-102966666D02*
X159553095Y-103014285D01*
X159553095Y-103014285D02*
X159743571Y-103061904D01*
X159743571Y-103061904D02*
X159981666Y-103061904D01*
X159981666Y-103061904D02*
X160172142Y-103014285D01*
X160172142Y-103014285D02*
X160267380Y-102966666D01*
X160267380Y-102966666D02*
X160315000Y-102919047D01*
X160315000Y-102919047D02*
X160362619Y-102823809D01*
X160362619Y-102823809D02*
X160362619Y-102728571D01*
X160362619Y-102728571D02*
X160315000Y-102633333D01*
X160315000Y-102633333D02*
X160267380Y-102585714D01*
X160267380Y-102585714D02*
X160172142Y-102538095D01*
X160172142Y-102538095D02*
X159981666Y-102490476D01*
X159981666Y-102490476D02*
X159743571Y-102490476D01*
X159743571Y-102490476D02*
X159553095Y-102538095D01*
X159553095Y-102538095D02*
X159457857Y-102585714D01*
X159457857Y-102585714D02*
X159410238Y-102633333D01*
X159410238Y-102633333D02*
X159362619Y-102728571D01*
%TO.C,C13*%
X150242857Y-102767380D02*
X150290476Y-102815000D01*
X150290476Y-102815000D02*
X150433333Y-102862619D01*
X150433333Y-102862619D02*
X150528571Y-102862619D01*
X150528571Y-102862619D02*
X150671428Y-102815000D01*
X150671428Y-102815000D02*
X150766666Y-102719761D01*
X150766666Y-102719761D02*
X150814285Y-102624523D01*
X150814285Y-102624523D02*
X150861904Y-102434047D01*
X150861904Y-102434047D02*
X150861904Y-102291190D01*
X150861904Y-102291190D02*
X150814285Y-102100714D01*
X150814285Y-102100714D02*
X150766666Y-102005476D01*
X150766666Y-102005476D02*
X150671428Y-101910238D01*
X150671428Y-101910238D02*
X150528571Y-101862619D01*
X150528571Y-101862619D02*
X150433333Y-101862619D01*
X150433333Y-101862619D02*
X150290476Y-101910238D01*
X150290476Y-101910238D02*
X150242857Y-101957857D01*
X149290476Y-102862619D02*
X149861904Y-102862619D01*
X149576190Y-102862619D02*
X149576190Y-101862619D01*
X149576190Y-101862619D02*
X149671428Y-102005476D01*
X149671428Y-102005476D02*
X149766666Y-102100714D01*
X149766666Y-102100714D02*
X149861904Y-102148333D01*
X148957142Y-101862619D02*
X148338095Y-101862619D01*
X148338095Y-101862619D02*
X148671428Y-102243571D01*
X148671428Y-102243571D02*
X148528571Y-102243571D01*
X148528571Y-102243571D02*
X148433333Y-102291190D01*
X148433333Y-102291190D02*
X148385714Y-102338809D01*
X148385714Y-102338809D02*
X148338095Y-102434047D01*
X148338095Y-102434047D02*
X148338095Y-102672142D01*
X148338095Y-102672142D02*
X148385714Y-102767380D01*
X148385714Y-102767380D02*
X148433333Y-102815000D01*
X148433333Y-102815000D02*
X148528571Y-102862619D01*
X148528571Y-102862619D02*
X148814285Y-102862619D01*
X148814285Y-102862619D02*
X148909523Y-102815000D01*
X148909523Y-102815000D02*
X148957142Y-102767380D01*
%TO.C,R6*%
X154516666Y-124612619D02*
X154849999Y-124136428D01*
X155088094Y-124612619D02*
X155088094Y-123612619D01*
X155088094Y-123612619D02*
X154707142Y-123612619D01*
X154707142Y-123612619D02*
X154611904Y-123660238D01*
X154611904Y-123660238D02*
X154564285Y-123707857D01*
X154564285Y-123707857D02*
X154516666Y-123803095D01*
X154516666Y-123803095D02*
X154516666Y-123945952D01*
X154516666Y-123945952D02*
X154564285Y-124041190D01*
X154564285Y-124041190D02*
X154611904Y-124088809D01*
X154611904Y-124088809D02*
X154707142Y-124136428D01*
X154707142Y-124136428D02*
X155088094Y-124136428D01*
X153659523Y-123612619D02*
X153849999Y-123612619D01*
X153849999Y-123612619D02*
X153945237Y-123660238D01*
X153945237Y-123660238D02*
X153992856Y-123707857D01*
X153992856Y-123707857D02*
X154088094Y-123850714D01*
X154088094Y-123850714D02*
X154135713Y-124041190D01*
X154135713Y-124041190D02*
X154135713Y-124422142D01*
X154135713Y-124422142D02*
X154088094Y-124517380D01*
X154088094Y-124517380D02*
X154040475Y-124565000D01*
X154040475Y-124565000D02*
X153945237Y-124612619D01*
X153945237Y-124612619D02*
X153754761Y-124612619D01*
X153754761Y-124612619D02*
X153659523Y-124565000D01*
X153659523Y-124565000D02*
X153611904Y-124517380D01*
X153611904Y-124517380D02*
X153564285Y-124422142D01*
X153564285Y-124422142D02*
X153564285Y-124184047D01*
X153564285Y-124184047D02*
X153611904Y-124088809D01*
X153611904Y-124088809D02*
X153659523Y-124041190D01*
X153659523Y-124041190D02*
X153754761Y-123993571D01*
X153754761Y-123993571D02*
X153945237Y-123993571D01*
X153945237Y-123993571D02*
X154040475Y-124041190D01*
X154040475Y-124041190D02*
X154088094Y-124088809D01*
X154088094Y-124088809D02*
X154135713Y-124184047D01*
%TO.C,R18*%
X144392857Y-94342619D02*
X144726190Y-93866428D01*
X144964285Y-94342619D02*
X144964285Y-93342619D01*
X144964285Y-93342619D02*
X144583333Y-93342619D01*
X144583333Y-93342619D02*
X144488095Y-93390238D01*
X144488095Y-93390238D02*
X144440476Y-93437857D01*
X144440476Y-93437857D02*
X144392857Y-93533095D01*
X144392857Y-93533095D02*
X144392857Y-93675952D01*
X144392857Y-93675952D02*
X144440476Y-93771190D01*
X144440476Y-93771190D02*
X144488095Y-93818809D01*
X144488095Y-93818809D02*
X144583333Y-93866428D01*
X144583333Y-93866428D02*
X144964285Y-93866428D01*
X143440476Y-94342619D02*
X144011904Y-94342619D01*
X143726190Y-94342619D02*
X143726190Y-93342619D01*
X143726190Y-93342619D02*
X143821428Y-93485476D01*
X143821428Y-93485476D02*
X143916666Y-93580714D01*
X143916666Y-93580714D02*
X144011904Y-93628333D01*
X142869047Y-93771190D02*
X142964285Y-93723571D01*
X142964285Y-93723571D02*
X143011904Y-93675952D01*
X143011904Y-93675952D02*
X143059523Y-93580714D01*
X143059523Y-93580714D02*
X143059523Y-93533095D01*
X143059523Y-93533095D02*
X143011904Y-93437857D01*
X143011904Y-93437857D02*
X142964285Y-93390238D01*
X142964285Y-93390238D02*
X142869047Y-93342619D01*
X142869047Y-93342619D02*
X142678571Y-93342619D01*
X142678571Y-93342619D02*
X142583333Y-93390238D01*
X142583333Y-93390238D02*
X142535714Y-93437857D01*
X142535714Y-93437857D02*
X142488095Y-93533095D01*
X142488095Y-93533095D02*
X142488095Y-93580714D01*
X142488095Y-93580714D02*
X142535714Y-93675952D01*
X142535714Y-93675952D02*
X142583333Y-93723571D01*
X142583333Y-93723571D02*
X142678571Y-93771190D01*
X142678571Y-93771190D02*
X142869047Y-93771190D01*
X142869047Y-93771190D02*
X142964285Y-93818809D01*
X142964285Y-93818809D02*
X143011904Y-93866428D01*
X143011904Y-93866428D02*
X143059523Y-93961666D01*
X143059523Y-93961666D02*
X143059523Y-94152142D01*
X143059523Y-94152142D02*
X143011904Y-94247380D01*
X143011904Y-94247380D02*
X142964285Y-94295000D01*
X142964285Y-94295000D02*
X142869047Y-94342619D01*
X142869047Y-94342619D02*
X142678571Y-94342619D01*
X142678571Y-94342619D02*
X142583333Y-94295000D01*
X142583333Y-94295000D02*
X142535714Y-94247380D01*
X142535714Y-94247380D02*
X142488095Y-94152142D01*
X142488095Y-94152142D02*
X142488095Y-93961666D01*
X142488095Y-93961666D02*
X142535714Y-93866428D01*
X142535714Y-93866428D02*
X142583333Y-93818809D01*
X142583333Y-93818809D02*
X142678571Y-93771190D01*
%TO.C,R20*%
X149692857Y-87612619D02*
X150026190Y-87136428D01*
X150264285Y-87612619D02*
X150264285Y-86612619D01*
X150264285Y-86612619D02*
X149883333Y-86612619D01*
X149883333Y-86612619D02*
X149788095Y-86660238D01*
X149788095Y-86660238D02*
X149740476Y-86707857D01*
X149740476Y-86707857D02*
X149692857Y-86803095D01*
X149692857Y-86803095D02*
X149692857Y-86945952D01*
X149692857Y-86945952D02*
X149740476Y-87041190D01*
X149740476Y-87041190D02*
X149788095Y-87088809D01*
X149788095Y-87088809D02*
X149883333Y-87136428D01*
X149883333Y-87136428D02*
X150264285Y-87136428D01*
X149311904Y-86707857D02*
X149264285Y-86660238D01*
X149264285Y-86660238D02*
X149169047Y-86612619D01*
X149169047Y-86612619D02*
X148930952Y-86612619D01*
X148930952Y-86612619D02*
X148835714Y-86660238D01*
X148835714Y-86660238D02*
X148788095Y-86707857D01*
X148788095Y-86707857D02*
X148740476Y-86803095D01*
X148740476Y-86803095D02*
X148740476Y-86898333D01*
X148740476Y-86898333D02*
X148788095Y-87041190D01*
X148788095Y-87041190D02*
X149359523Y-87612619D01*
X149359523Y-87612619D02*
X148740476Y-87612619D01*
X148121428Y-86612619D02*
X148026190Y-86612619D01*
X148026190Y-86612619D02*
X147930952Y-86660238D01*
X147930952Y-86660238D02*
X147883333Y-86707857D01*
X147883333Y-86707857D02*
X147835714Y-86803095D01*
X147835714Y-86803095D02*
X147788095Y-86993571D01*
X147788095Y-86993571D02*
X147788095Y-87231666D01*
X147788095Y-87231666D02*
X147835714Y-87422142D01*
X147835714Y-87422142D02*
X147883333Y-87517380D01*
X147883333Y-87517380D02*
X147930952Y-87565000D01*
X147930952Y-87565000D02*
X148026190Y-87612619D01*
X148026190Y-87612619D02*
X148121428Y-87612619D01*
X148121428Y-87612619D02*
X148216666Y-87565000D01*
X148216666Y-87565000D02*
X148264285Y-87517380D01*
X148264285Y-87517380D02*
X148311904Y-87422142D01*
X148311904Y-87422142D02*
X148359523Y-87231666D01*
X148359523Y-87231666D02*
X148359523Y-86993571D01*
X148359523Y-86993571D02*
X148311904Y-86803095D01*
X148311904Y-86803095D02*
X148264285Y-86707857D01*
X148264285Y-86707857D02*
X148216666Y-86660238D01*
X148216666Y-86660238D02*
X148121428Y-86612619D01*
%TO.C,R16*%
X142142857Y-108212619D02*
X142476190Y-107736428D01*
X142714285Y-108212619D02*
X142714285Y-107212619D01*
X142714285Y-107212619D02*
X142333333Y-107212619D01*
X142333333Y-107212619D02*
X142238095Y-107260238D01*
X142238095Y-107260238D02*
X142190476Y-107307857D01*
X142190476Y-107307857D02*
X142142857Y-107403095D01*
X142142857Y-107403095D02*
X142142857Y-107545952D01*
X142142857Y-107545952D02*
X142190476Y-107641190D01*
X142190476Y-107641190D02*
X142238095Y-107688809D01*
X142238095Y-107688809D02*
X142333333Y-107736428D01*
X142333333Y-107736428D02*
X142714285Y-107736428D01*
X141190476Y-108212619D02*
X141761904Y-108212619D01*
X141476190Y-108212619D02*
X141476190Y-107212619D01*
X141476190Y-107212619D02*
X141571428Y-107355476D01*
X141571428Y-107355476D02*
X141666666Y-107450714D01*
X141666666Y-107450714D02*
X141761904Y-107498333D01*
X140333333Y-107212619D02*
X140523809Y-107212619D01*
X140523809Y-107212619D02*
X140619047Y-107260238D01*
X140619047Y-107260238D02*
X140666666Y-107307857D01*
X140666666Y-107307857D02*
X140761904Y-107450714D01*
X140761904Y-107450714D02*
X140809523Y-107641190D01*
X140809523Y-107641190D02*
X140809523Y-108022142D01*
X140809523Y-108022142D02*
X140761904Y-108117380D01*
X140761904Y-108117380D02*
X140714285Y-108165000D01*
X140714285Y-108165000D02*
X140619047Y-108212619D01*
X140619047Y-108212619D02*
X140428571Y-108212619D01*
X140428571Y-108212619D02*
X140333333Y-108165000D01*
X140333333Y-108165000D02*
X140285714Y-108117380D01*
X140285714Y-108117380D02*
X140238095Y-108022142D01*
X140238095Y-108022142D02*
X140238095Y-107784047D01*
X140238095Y-107784047D02*
X140285714Y-107688809D01*
X140285714Y-107688809D02*
X140333333Y-107641190D01*
X140333333Y-107641190D02*
X140428571Y-107593571D01*
X140428571Y-107593571D02*
X140619047Y-107593571D01*
X140619047Y-107593571D02*
X140714285Y-107641190D01*
X140714285Y-107641190D02*
X140761904Y-107688809D01*
X140761904Y-107688809D02*
X140809523Y-107784047D01*
%TO.C,R22*%
X127242857Y-121342619D02*
X127576190Y-120866428D01*
X127814285Y-121342619D02*
X127814285Y-120342619D01*
X127814285Y-120342619D02*
X127433333Y-120342619D01*
X127433333Y-120342619D02*
X127338095Y-120390238D01*
X127338095Y-120390238D02*
X127290476Y-120437857D01*
X127290476Y-120437857D02*
X127242857Y-120533095D01*
X127242857Y-120533095D02*
X127242857Y-120675952D01*
X127242857Y-120675952D02*
X127290476Y-120771190D01*
X127290476Y-120771190D02*
X127338095Y-120818809D01*
X127338095Y-120818809D02*
X127433333Y-120866428D01*
X127433333Y-120866428D02*
X127814285Y-120866428D01*
X126861904Y-120437857D02*
X126814285Y-120390238D01*
X126814285Y-120390238D02*
X126719047Y-120342619D01*
X126719047Y-120342619D02*
X126480952Y-120342619D01*
X126480952Y-120342619D02*
X126385714Y-120390238D01*
X126385714Y-120390238D02*
X126338095Y-120437857D01*
X126338095Y-120437857D02*
X126290476Y-120533095D01*
X126290476Y-120533095D02*
X126290476Y-120628333D01*
X126290476Y-120628333D02*
X126338095Y-120771190D01*
X126338095Y-120771190D02*
X126909523Y-121342619D01*
X126909523Y-121342619D02*
X126290476Y-121342619D01*
X125909523Y-120437857D02*
X125861904Y-120390238D01*
X125861904Y-120390238D02*
X125766666Y-120342619D01*
X125766666Y-120342619D02*
X125528571Y-120342619D01*
X125528571Y-120342619D02*
X125433333Y-120390238D01*
X125433333Y-120390238D02*
X125385714Y-120437857D01*
X125385714Y-120437857D02*
X125338095Y-120533095D01*
X125338095Y-120533095D02*
X125338095Y-120628333D01*
X125338095Y-120628333D02*
X125385714Y-120771190D01*
X125385714Y-120771190D02*
X125957142Y-121342619D01*
X125957142Y-121342619D02*
X125338095Y-121342619D01*
%TO.C,R12*%
X156642857Y-122792619D02*
X156976190Y-122316428D01*
X157214285Y-122792619D02*
X157214285Y-121792619D01*
X157214285Y-121792619D02*
X156833333Y-121792619D01*
X156833333Y-121792619D02*
X156738095Y-121840238D01*
X156738095Y-121840238D02*
X156690476Y-121887857D01*
X156690476Y-121887857D02*
X156642857Y-121983095D01*
X156642857Y-121983095D02*
X156642857Y-122125952D01*
X156642857Y-122125952D02*
X156690476Y-122221190D01*
X156690476Y-122221190D02*
X156738095Y-122268809D01*
X156738095Y-122268809D02*
X156833333Y-122316428D01*
X156833333Y-122316428D02*
X157214285Y-122316428D01*
X155690476Y-122792619D02*
X156261904Y-122792619D01*
X155976190Y-122792619D02*
X155976190Y-121792619D01*
X155976190Y-121792619D02*
X156071428Y-121935476D01*
X156071428Y-121935476D02*
X156166666Y-122030714D01*
X156166666Y-122030714D02*
X156261904Y-122078333D01*
X155309523Y-121887857D02*
X155261904Y-121840238D01*
X155261904Y-121840238D02*
X155166666Y-121792619D01*
X155166666Y-121792619D02*
X154928571Y-121792619D01*
X154928571Y-121792619D02*
X154833333Y-121840238D01*
X154833333Y-121840238D02*
X154785714Y-121887857D01*
X154785714Y-121887857D02*
X154738095Y-121983095D01*
X154738095Y-121983095D02*
X154738095Y-122078333D01*
X154738095Y-122078333D02*
X154785714Y-122221190D01*
X154785714Y-122221190D02*
X155357142Y-122792619D01*
X155357142Y-122792619D02*
X154738095Y-122792619D01*
%TO.C,R13*%
X156592857Y-113312619D02*
X156926190Y-112836428D01*
X157164285Y-113312619D02*
X157164285Y-112312619D01*
X157164285Y-112312619D02*
X156783333Y-112312619D01*
X156783333Y-112312619D02*
X156688095Y-112360238D01*
X156688095Y-112360238D02*
X156640476Y-112407857D01*
X156640476Y-112407857D02*
X156592857Y-112503095D01*
X156592857Y-112503095D02*
X156592857Y-112645952D01*
X156592857Y-112645952D02*
X156640476Y-112741190D01*
X156640476Y-112741190D02*
X156688095Y-112788809D01*
X156688095Y-112788809D02*
X156783333Y-112836428D01*
X156783333Y-112836428D02*
X157164285Y-112836428D01*
X155640476Y-113312619D02*
X156211904Y-113312619D01*
X155926190Y-113312619D02*
X155926190Y-112312619D01*
X155926190Y-112312619D02*
X156021428Y-112455476D01*
X156021428Y-112455476D02*
X156116666Y-112550714D01*
X156116666Y-112550714D02*
X156211904Y-112598333D01*
X155307142Y-112312619D02*
X154688095Y-112312619D01*
X154688095Y-112312619D02*
X155021428Y-112693571D01*
X155021428Y-112693571D02*
X154878571Y-112693571D01*
X154878571Y-112693571D02*
X154783333Y-112741190D01*
X154783333Y-112741190D02*
X154735714Y-112788809D01*
X154735714Y-112788809D02*
X154688095Y-112884047D01*
X154688095Y-112884047D02*
X154688095Y-113122142D01*
X154688095Y-113122142D02*
X154735714Y-113217380D01*
X154735714Y-113217380D02*
X154783333Y-113265000D01*
X154783333Y-113265000D02*
X154878571Y-113312619D01*
X154878571Y-113312619D02*
X155164285Y-113312619D01*
X155164285Y-113312619D02*
X155259523Y-113265000D01*
X155259523Y-113265000D02*
X155307142Y-113217380D01*
%TO.C,C9*%
X164347380Y-79283333D02*
X164395000Y-79235714D01*
X164395000Y-79235714D02*
X164442619Y-79092857D01*
X164442619Y-79092857D02*
X164442619Y-78997619D01*
X164442619Y-78997619D02*
X164395000Y-78854762D01*
X164395000Y-78854762D02*
X164299761Y-78759524D01*
X164299761Y-78759524D02*
X164204523Y-78711905D01*
X164204523Y-78711905D02*
X164014047Y-78664286D01*
X164014047Y-78664286D02*
X163871190Y-78664286D01*
X163871190Y-78664286D02*
X163680714Y-78711905D01*
X163680714Y-78711905D02*
X163585476Y-78759524D01*
X163585476Y-78759524D02*
X163490238Y-78854762D01*
X163490238Y-78854762D02*
X163442619Y-78997619D01*
X163442619Y-78997619D02*
X163442619Y-79092857D01*
X163442619Y-79092857D02*
X163490238Y-79235714D01*
X163490238Y-79235714D02*
X163537857Y-79283333D01*
X164442619Y-79759524D02*
X164442619Y-79950000D01*
X164442619Y-79950000D02*
X164395000Y-80045238D01*
X164395000Y-80045238D02*
X164347380Y-80092857D01*
X164347380Y-80092857D02*
X164204523Y-80188095D01*
X164204523Y-80188095D02*
X164014047Y-80235714D01*
X164014047Y-80235714D02*
X163633095Y-80235714D01*
X163633095Y-80235714D02*
X163537857Y-80188095D01*
X163537857Y-80188095D02*
X163490238Y-80140476D01*
X163490238Y-80140476D02*
X163442619Y-80045238D01*
X163442619Y-80045238D02*
X163442619Y-79854762D01*
X163442619Y-79854762D02*
X163490238Y-79759524D01*
X163490238Y-79759524D02*
X163537857Y-79711905D01*
X163537857Y-79711905D02*
X163633095Y-79664286D01*
X163633095Y-79664286D02*
X163871190Y-79664286D01*
X163871190Y-79664286D02*
X163966428Y-79711905D01*
X163966428Y-79711905D02*
X164014047Y-79759524D01*
X164014047Y-79759524D02*
X164061666Y-79854762D01*
X164061666Y-79854762D02*
X164061666Y-80045238D01*
X164061666Y-80045238D02*
X164014047Y-80140476D01*
X164014047Y-80140476D02*
X163966428Y-80188095D01*
X163966428Y-80188095D02*
X163871190Y-80235714D01*
%TO.C,C8*%
X140847380Y-119583333D02*
X140895000Y-119535714D01*
X140895000Y-119535714D02*
X140942619Y-119392857D01*
X140942619Y-119392857D02*
X140942619Y-119297619D01*
X140942619Y-119297619D02*
X140895000Y-119154762D01*
X140895000Y-119154762D02*
X140799761Y-119059524D01*
X140799761Y-119059524D02*
X140704523Y-119011905D01*
X140704523Y-119011905D02*
X140514047Y-118964286D01*
X140514047Y-118964286D02*
X140371190Y-118964286D01*
X140371190Y-118964286D02*
X140180714Y-119011905D01*
X140180714Y-119011905D02*
X140085476Y-119059524D01*
X140085476Y-119059524D02*
X139990238Y-119154762D01*
X139990238Y-119154762D02*
X139942619Y-119297619D01*
X139942619Y-119297619D02*
X139942619Y-119392857D01*
X139942619Y-119392857D02*
X139990238Y-119535714D01*
X139990238Y-119535714D02*
X140037857Y-119583333D01*
X140371190Y-120154762D02*
X140323571Y-120059524D01*
X140323571Y-120059524D02*
X140275952Y-120011905D01*
X140275952Y-120011905D02*
X140180714Y-119964286D01*
X140180714Y-119964286D02*
X140133095Y-119964286D01*
X140133095Y-119964286D02*
X140037857Y-120011905D01*
X140037857Y-120011905D02*
X139990238Y-120059524D01*
X139990238Y-120059524D02*
X139942619Y-120154762D01*
X139942619Y-120154762D02*
X139942619Y-120345238D01*
X139942619Y-120345238D02*
X139990238Y-120440476D01*
X139990238Y-120440476D02*
X140037857Y-120488095D01*
X140037857Y-120488095D02*
X140133095Y-120535714D01*
X140133095Y-120535714D02*
X140180714Y-120535714D01*
X140180714Y-120535714D02*
X140275952Y-120488095D01*
X140275952Y-120488095D02*
X140323571Y-120440476D01*
X140323571Y-120440476D02*
X140371190Y-120345238D01*
X140371190Y-120345238D02*
X140371190Y-120154762D01*
X140371190Y-120154762D02*
X140418809Y-120059524D01*
X140418809Y-120059524D02*
X140466428Y-120011905D01*
X140466428Y-120011905D02*
X140561666Y-119964286D01*
X140561666Y-119964286D02*
X140752142Y-119964286D01*
X140752142Y-119964286D02*
X140847380Y-120011905D01*
X140847380Y-120011905D02*
X140895000Y-120059524D01*
X140895000Y-120059524D02*
X140942619Y-120154762D01*
X140942619Y-120154762D02*
X140942619Y-120345238D01*
X140942619Y-120345238D02*
X140895000Y-120440476D01*
X140895000Y-120440476D02*
X140847380Y-120488095D01*
X140847380Y-120488095D02*
X140752142Y-120535714D01*
X140752142Y-120535714D02*
X140561666Y-120535714D01*
X140561666Y-120535714D02*
X140466428Y-120488095D01*
X140466428Y-120488095D02*
X140418809Y-120440476D01*
X140418809Y-120440476D02*
X140371190Y-120345238D01*
%TO.C,C11*%
X161867380Y-97357142D02*
X161915000Y-97309523D01*
X161915000Y-97309523D02*
X161962619Y-97166666D01*
X161962619Y-97166666D02*
X161962619Y-97071428D01*
X161962619Y-97071428D02*
X161915000Y-96928571D01*
X161915000Y-96928571D02*
X161819761Y-96833333D01*
X161819761Y-96833333D02*
X161724523Y-96785714D01*
X161724523Y-96785714D02*
X161534047Y-96738095D01*
X161534047Y-96738095D02*
X161391190Y-96738095D01*
X161391190Y-96738095D02*
X161200714Y-96785714D01*
X161200714Y-96785714D02*
X161105476Y-96833333D01*
X161105476Y-96833333D02*
X161010238Y-96928571D01*
X161010238Y-96928571D02*
X160962619Y-97071428D01*
X160962619Y-97071428D02*
X160962619Y-97166666D01*
X160962619Y-97166666D02*
X161010238Y-97309523D01*
X161010238Y-97309523D02*
X161057857Y-97357142D01*
X161962619Y-98309523D02*
X161962619Y-97738095D01*
X161962619Y-98023809D02*
X160962619Y-98023809D01*
X160962619Y-98023809D02*
X161105476Y-97928571D01*
X161105476Y-97928571D02*
X161200714Y-97833333D01*
X161200714Y-97833333D02*
X161248333Y-97738095D01*
X161962619Y-99261904D02*
X161962619Y-98690476D01*
X161962619Y-98976190D02*
X160962619Y-98976190D01*
X160962619Y-98976190D02*
X161105476Y-98880952D01*
X161105476Y-98880952D02*
X161200714Y-98785714D01*
X161200714Y-98785714D02*
X161248333Y-98690476D01*
%TO.C,C17*%
X144392857Y-91317380D02*
X144440476Y-91365000D01*
X144440476Y-91365000D02*
X144583333Y-91412619D01*
X144583333Y-91412619D02*
X144678571Y-91412619D01*
X144678571Y-91412619D02*
X144821428Y-91365000D01*
X144821428Y-91365000D02*
X144916666Y-91269761D01*
X144916666Y-91269761D02*
X144964285Y-91174523D01*
X144964285Y-91174523D02*
X145011904Y-90984047D01*
X145011904Y-90984047D02*
X145011904Y-90841190D01*
X145011904Y-90841190D02*
X144964285Y-90650714D01*
X144964285Y-90650714D02*
X144916666Y-90555476D01*
X144916666Y-90555476D02*
X144821428Y-90460238D01*
X144821428Y-90460238D02*
X144678571Y-90412619D01*
X144678571Y-90412619D02*
X144583333Y-90412619D01*
X144583333Y-90412619D02*
X144440476Y-90460238D01*
X144440476Y-90460238D02*
X144392857Y-90507857D01*
X143440476Y-91412619D02*
X144011904Y-91412619D01*
X143726190Y-91412619D02*
X143726190Y-90412619D01*
X143726190Y-90412619D02*
X143821428Y-90555476D01*
X143821428Y-90555476D02*
X143916666Y-90650714D01*
X143916666Y-90650714D02*
X144011904Y-90698333D01*
X143107142Y-90412619D02*
X142440476Y-90412619D01*
X142440476Y-90412619D02*
X142869047Y-91412619D01*
%TO.C,R10*%
X159292857Y-72842619D02*
X159626190Y-72366428D01*
X159864285Y-72842619D02*
X159864285Y-71842619D01*
X159864285Y-71842619D02*
X159483333Y-71842619D01*
X159483333Y-71842619D02*
X159388095Y-71890238D01*
X159388095Y-71890238D02*
X159340476Y-71937857D01*
X159340476Y-71937857D02*
X159292857Y-72033095D01*
X159292857Y-72033095D02*
X159292857Y-72175952D01*
X159292857Y-72175952D02*
X159340476Y-72271190D01*
X159340476Y-72271190D02*
X159388095Y-72318809D01*
X159388095Y-72318809D02*
X159483333Y-72366428D01*
X159483333Y-72366428D02*
X159864285Y-72366428D01*
X158340476Y-72842619D02*
X158911904Y-72842619D01*
X158626190Y-72842619D02*
X158626190Y-71842619D01*
X158626190Y-71842619D02*
X158721428Y-71985476D01*
X158721428Y-71985476D02*
X158816666Y-72080714D01*
X158816666Y-72080714D02*
X158911904Y-72128333D01*
X157721428Y-71842619D02*
X157626190Y-71842619D01*
X157626190Y-71842619D02*
X157530952Y-71890238D01*
X157530952Y-71890238D02*
X157483333Y-71937857D01*
X157483333Y-71937857D02*
X157435714Y-72033095D01*
X157435714Y-72033095D02*
X157388095Y-72223571D01*
X157388095Y-72223571D02*
X157388095Y-72461666D01*
X157388095Y-72461666D02*
X157435714Y-72652142D01*
X157435714Y-72652142D02*
X157483333Y-72747380D01*
X157483333Y-72747380D02*
X157530952Y-72795000D01*
X157530952Y-72795000D02*
X157626190Y-72842619D01*
X157626190Y-72842619D02*
X157721428Y-72842619D01*
X157721428Y-72842619D02*
X157816666Y-72795000D01*
X157816666Y-72795000D02*
X157864285Y-72747380D01*
X157864285Y-72747380D02*
X157911904Y-72652142D01*
X157911904Y-72652142D02*
X157959523Y-72461666D01*
X157959523Y-72461666D02*
X157959523Y-72223571D01*
X157959523Y-72223571D02*
X157911904Y-72033095D01*
X157911904Y-72033095D02*
X157864285Y-71937857D01*
X157864285Y-71937857D02*
X157816666Y-71890238D01*
X157816666Y-71890238D02*
X157721428Y-71842619D01*
%TO.C,R7*%
X135216666Y-129912619D02*
X135549999Y-129436428D01*
X135788094Y-129912619D02*
X135788094Y-128912619D01*
X135788094Y-128912619D02*
X135407142Y-128912619D01*
X135407142Y-128912619D02*
X135311904Y-128960238D01*
X135311904Y-128960238D02*
X135264285Y-129007857D01*
X135264285Y-129007857D02*
X135216666Y-129103095D01*
X135216666Y-129103095D02*
X135216666Y-129245952D01*
X135216666Y-129245952D02*
X135264285Y-129341190D01*
X135264285Y-129341190D02*
X135311904Y-129388809D01*
X135311904Y-129388809D02*
X135407142Y-129436428D01*
X135407142Y-129436428D02*
X135788094Y-129436428D01*
X134883332Y-128912619D02*
X134216666Y-128912619D01*
X134216666Y-128912619D02*
X134645237Y-129912619D01*
%TO.C,R15*%
X149792857Y-94342619D02*
X150126190Y-93866428D01*
X150364285Y-94342619D02*
X150364285Y-93342619D01*
X150364285Y-93342619D02*
X149983333Y-93342619D01*
X149983333Y-93342619D02*
X149888095Y-93390238D01*
X149888095Y-93390238D02*
X149840476Y-93437857D01*
X149840476Y-93437857D02*
X149792857Y-93533095D01*
X149792857Y-93533095D02*
X149792857Y-93675952D01*
X149792857Y-93675952D02*
X149840476Y-93771190D01*
X149840476Y-93771190D02*
X149888095Y-93818809D01*
X149888095Y-93818809D02*
X149983333Y-93866428D01*
X149983333Y-93866428D02*
X150364285Y-93866428D01*
X148840476Y-94342619D02*
X149411904Y-94342619D01*
X149126190Y-94342619D02*
X149126190Y-93342619D01*
X149126190Y-93342619D02*
X149221428Y-93485476D01*
X149221428Y-93485476D02*
X149316666Y-93580714D01*
X149316666Y-93580714D02*
X149411904Y-93628333D01*
X147935714Y-93342619D02*
X148411904Y-93342619D01*
X148411904Y-93342619D02*
X148459523Y-93818809D01*
X148459523Y-93818809D02*
X148411904Y-93771190D01*
X148411904Y-93771190D02*
X148316666Y-93723571D01*
X148316666Y-93723571D02*
X148078571Y-93723571D01*
X148078571Y-93723571D02*
X147983333Y-93771190D01*
X147983333Y-93771190D02*
X147935714Y-93818809D01*
X147935714Y-93818809D02*
X147888095Y-93914047D01*
X147888095Y-93914047D02*
X147888095Y-94152142D01*
X147888095Y-94152142D02*
X147935714Y-94247380D01*
X147935714Y-94247380D02*
X147983333Y-94295000D01*
X147983333Y-94295000D02*
X148078571Y-94342619D01*
X148078571Y-94342619D02*
X148316666Y-94342619D01*
X148316666Y-94342619D02*
X148411904Y-94295000D01*
X148411904Y-94295000D02*
X148459523Y-94247380D01*
%TO.C,R17*%
X121842857Y-125292619D02*
X122176190Y-124816428D01*
X122414285Y-125292619D02*
X122414285Y-124292619D01*
X122414285Y-124292619D02*
X122033333Y-124292619D01*
X122033333Y-124292619D02*
X121938095Y-124340238D01*
X121938095Y-124340238D02*
X121890476Y-124387857D01*
X121890476Y-124387857D02*
X121842857Y-124483095D01*
X121842857Y-124483095D02*
X121842857Y-124625952D01*
X121842857Y-124625952D02*
X121890476Y-124721190D01*
X121890476Y-124721190D02*
X121938095Y-124768809D01*
X121938095Y-124768809D02*
X122033333Y-124816428D01*
X122033333Y-124816428D02*
X122414285Y-124816428D01*
X120890476Y-125292619D02*
X121461904Y-125292619D01*
X121176190Y-125292619D02*
X121176190Y-124292619D01*
X121176190Y-124292619D02*
X121271428Y-124435476D01*
X121271428Y-124435476D02*
X121366666Y-124530714D01*
X121366666Y-124530714D02*
X121461904Y-124578333D01*
X120557142Y-124292619D02*
X119890476Y-124292619D01*
X119890476Y-124292619D02*
X120319047Y-125292619D01*
%TO.C,C14*%
X149692857Y-91317380D02*
X149740476Y-91365000D01*
X149740476Y-91365000D02*
X149883333Y-91412619D01*
X149883333Y-91412619D02*
X149978571Y-91412619D01*
X149978571Y-91412619D02*
X150121428Y-91365000D01*
X150121428Y-91365000D02*
X150216666Y-91269761D01*
X150216666Y-91269761D02*
X150264285Y-91174523D01*
X150264285Y-91174523D02*
X150311904Y-90984047D01*
X150311904Y-90984047D02*
X150311904Y-90841190D01*
X150311904Y-90841190D02*
X150264285Y-90650714D01*
X150264285Y-90650714D02*
X150216666Y-90555476D01*
X150216666Y-90555476D02*
X150121428Y-90460238D01*
X150121428Y-90460238D02*
X149978571Y-90412619D01*
X149978571Y-90412619D02*
X149883333Y-90412619D01*
X149883333Y-90412619D02*
X149740476Y-90460238D01*
X149740476Y-90460238D02*
X149692857Y-90507857D01*
X148740476Y-91412619D02*
X149311904Y-91412619D01*
X149026190Y-91412619D02*
X149026190Y-90412619D01*
X149026190Y-90412619D02*
X149121428Y-90555476D01*
X149121428Y-90555476D02*
X149216666Y-90650714D01*
X149216666Y-90650714D02*
X149311904Y-90698333D01*
X147883333Y-90745952D02*
X147883333Y-91412619D01*
X148121428Y-90365000D02*
X148359523Y-91079285D01*
X148359523Y-91079285D02*
X147740476Y-91079285D01*
%TO.C,C7*%
X140047380Y-129933333D02*
X140095000Y-129885714D01*
X140095000Y-129885714D02*
X140142619Y-129742857D01*
X140142619Y-129742857D02*
X140142619Y-129647619D01*
X140142619Y-129647619D02*
X140095000Y-129504762D01*
X140095000Y-129504762D02*
X139999761Y-129409524D01*
X139999761Y-129409524D02*
X139904523Y-129361905D01*
X139904523Y-129361905D02*
X139714047Y-129314286D01*
X139714047Y-129314286D02*
X139571190Y-129314286D01*
X139571190Y-129314286D02*
X139380714Y-129361905D01*
X139380714Y-129361905D02*
X139285476Y-129409524D01*
X139285476Y-129409524D02*
X139190238Y-129504762D01*
X139190238Y-129504762D02*
X139142619Y-129647619D01*
X139142619Y-129647619D02*
X139142619Y-129742857D01*
X139142619Y-129742857D02*
X139190238Y-129885714D01*
X139190238Y-129885714D02*
X139237857Y-129933333D01*
X139142619Y-130266667D02*
X139142619Y-130933333D01*
X139142619Y-130933333D02*
X140142619Y-130504762D01*
%TO.C,R14*%
X150262857Y-105962619D02*
X150596190Y-105486428D01*
X150834285Y-105962619D02*
X150834285Y-104962619D01*
X150834285Y-104962619D02*
X150453333Y-104962619D01*
X150453333Y-104962619D02*
X150358095Y-105010238D01*
X150358095Y-105010238D02*
X150310476Y-105057857D01*
X150310476Y-105057857D02*
X150262857Y-105153095D01*
X150262857Y-105153095D02*
X150262857Y-105295952D01*
X150262857Y-105295952D02*
X150310476Y-105391190D01*
X150310476Y-105391190D02*
X150358095Y-105438809D01*
X150358095Y-105438809D02*
X150453333Y-105486428D01*
X150453333Y-105486428D02*
X150834285Y-105486428D01*
X149310476Y-105962619D02*
X149881904Y-105962619D01*
X149596190Y-105962619D02*
X149596190Y-104962619D01*
X149596190Y-104962619D02*
X149691428Y-105105476D01*
X149691428Y-105105476D02*
X149786666Y-105200714D01*
X149786666Y-105200714D02*
X149881904Y-105248333D01*
X148453333Y-105295952D02*
X148453333Y-105962619D01*
X148691428Y-104915000D02*
X148929523Y-105629285D01*
X148929523Y-105629285D02*
X148310476Y-105629285D01*
%TO.C,C12*%
X159792857Y-115017380D02*
X159840476Y-115065000D01*
X159840476Y-115065000D02*
X159983333Y-115112619D01*
X159983333Y-115112619D02*
X160078571Y-115112619D01*
X160078571Y-115112619D02*
X160221428Y-115065000D01*
X160221428Y-115065000D02*
X160316666Y-114969761D01*
X160316666Y-114969761D02*
X160364285Y-114874523D01*
X160364285Y-114874523D02*
X160411904Y-114684047D01*
X160411904Y-114684047D02*
X160411904Y-114541190D01*
X160411904Y-114541190D02*
X160364285Y-114350714D01*
X160364285Y-114350714D02*
X160316666Y-114255476D01*
X160316666Y-114255476D02*
X160221428Y-114160238D01*
X160221428Y-114160238D02*
X160078571Y-114112619D01*
X160078571Y-114112619D02*
X159983333Y-114112619D01*
X159983333Y-114112619D02*
X159840476Y-114160238D01*
X159840476Y-114160238D02*
X159792857Y-114207857D01*
X158840476Y-115112619D02*
X159411904Y-115112619D01*
X159126190Y-115112619D02*
X159126190Y-114112619D01*
X159126190Y-114112619D02*
X159221428Y-114255476D01*
X159221428Y-114255476D02*
X159316666Y-114350714D01*
X159316666Y-114350714D02*
X159411904Y-114398333D01*
X158459523Y-114207857D02*
X158411904Y-114160238D01*
X158411904Y-114160238D02*
X158316666Y-114112619D01*
X158316666Y-114112619D02*
X158078571Y-114112619D01*
X158078571Y-114112619D02*
X157983333Y-114160238D01*
X157983333Y-114160238D02*
X157935714Y-114207857D01*
X157935714Y-114207857D02*
X157888095Y-114303095D01*
X157888095Y-114303095D02*
X157888095Y-114398333D01*
X157888095Y-114398333D02*
X157935714Y-114541190D01*
X157935714Y-114541190D02*
X158507142Y-115112619D01*
X158507142Y-115112619D02*
X157888095Y-115112619D01*
%TO.C,C16*%
X125592857Y-124747380D02*
X125640476Y-124795000D01*
X125640476Y-124795000D02*
X125783333Y-124842619D01*
X125783333Y-124842619D02*
X125878571Y-124842619D01*
X125878571Y-124842619D02*
X126021428Y-124795000D01*
X126021428Y-124795000D02*
X126116666Y-124699761D01*
X126116666Y-124699761D02*
X126164285Y-124604523D01*
X126164285Y-124604523D02*
X126211904Y-124414047D01*
X126211904Y-124414047D02*
X126211904Y-124271190D01*
X126211904Y-124271190D02*
X126164285Y-124080714D01*
X126164285Y-124080714D02*
X126116666Y-123985476D01*
X126116666Y-123985476D02*
X126021428Y-123890238D01*
X126021428Y-123890238D02*
X125878571Y-123842619D01*
X125878571Y-123842619D02*
X125783333Y-123842619D01*
X125783333Y-123842619D02*
X125640476Y-123890238D01*
X125640476Y-123890238D02*
X125592857Y-123937857D01*
X124640476Y-124842619D02*
X125211904Y-124842619D01*
X124926190Y-124842619D02*
X124926190Y-123842619D01*
X124926190Y-123842619D02*
X125021428Y-123985476D01*
X125021428Y-123985476D02*
X125116666Y-124080714D01*
X125116666Y-124080714D02*
X125211904Y-124128333D01*
X123783333Y-123842619D02*
X123973809Y-123842619D01*
X123973809Y-123842619D02*
X124069047Y-123890238D01*
X124069047Y-123890238D02*
X124116666Y-123937857D01*
X124116666Y-123937857D02*
X124211904Y-124080714D01*
X124211904Y-124080714D02*
X124259523Y-124271190D01*
X124259523Y-124271190D02*
X124259523Y-124652142D01*
X124259523Y-124652142D02*
X124211904Y-124747380D01*
X124211904Y-124747380D02*
X124164285Y-124795000D01*
X124164285Y-124795000D02*
X124069047Y-124842619D01*
X124069047Y-124842619D02*
X123878571Y-124842619D01*
X123878571Y-124842619D02*
X123783333Y-124795000D01*
X123783333Y-124795000D02*
X123735714Y-124747380D01*
X123735714Y-124747380D02*
X123688095Y-124652142D01*
X123688095Y-124652142D02*
X123688095Y-124414047D01*
X123688095Y-124414047D02*
X123735714Y-124318809D01*
X123735714Y-124318809D02*
X123783333Y-124271190D01*
X123783333Y-124271190D02*
X123878571Y-124223571D01*
X123878571Y-124223571D02*
X124069047Y-124223571D01*
X124069047Y-124223571D02*
X124164285Y-124271190D01*
X124164285Y-124271190D02*
X124211904Y-124318809D01*
X124211904Y-124318809D02*
X124259523Y-124414047D01*
%TO.C,R19*%
X150207857Y-99192619D02*
X150541190Y-98716428D01*
X150779285Y-99192619D02*
X150779285Y-98192619D01*
X150779285Y-98192619D02*
X150398333Y-98192619D01*
X150398333Y-98192619D02*
X150303095Y-98240238D01*
X150303095Y-98240238D02*
X150255476Y-98287857D01*
X150255476Y-98287857D02*
X150207857Y-98383095D01*
X150207857Y-98383095D02*
X150207857Y-98525952D01*
X150207857Y-98525952D02*
X150255476Y-98621190D01*
X150255476Y-98621190D02*
X150303095Y-98668809D01*
X150303095Y-98668809D02*
X150398333Y-98716428D01*
X150398333Y-98716428D02*
X150779285Y-98716428D01*
X149255476Y-99192619D02*
X149826904Y-99192619D01*
X149541190Y-99192619D02*
X149541190Y-98192619D01*
X149541190Y-98192619D02*
X149636428Y-98335476D01*
X149636428Y-98335476D02*
X149731666Y-98430714D01*
X149731666Y-98430714D02*
X149826904Y-98478333D01*
X148779285Y-99192619D02*
X148588809Y-99192619D01*
X148588809Y-99192619D02*
X148493571Y-99145000D01*
X148493571Y-99145000D02*
X148445952Y-99097380D01*
X148445952Y-99097380D02*
X148350714Y-98954523D01*
X148350714Y-98954523D02*
X148303095Y-98764047D01*
X148303095Y-98764047D02*
X148303095Y-98383095D01*
X148303095Y-98383095D02*
X148350714Y-98287857D01*
X148350714Y-98287857D02*
X148398333Y-98240238D01*
X148398333Y-98240238D02*
X148493571Y-98192619D01*
X148493571Y-98192619D02*
X148684047Y-98192619D01*
X148684047Y-98192619D02*
X148779285Y-98240238D01*
X148779285Y-98240238D02*
X148826904Y-98287857D01*
X148826904Y-98287857D02*
X148874523Y-98383095D01*
X148874523Y-98383095D02*
X148874523Y-98621190D01*
X148874523Y-98621190D02*
X148826904Y-98716428D01*
X148826904Y-98716428D02*
X148779285Y-98764047D01*
X148779285Y-98764047D02*
X148684047Y-98811666D01*
X148684047Y-98811666D02*
X148493571Y-98811666D01*
X148493571Y-98811666D02*
X148398333Y-98764047D01*
X148398333Y-98764047D02*
X148350714Y-98716428D01*
X148350714Y-98716428D02*
X148303095Y-98621190D01*
%TO.C,C6*%
X149316666Y-117217380D02*
X149364285Y-117265000D01*
X149364285Y-117265000D02*
X149507142Y-117312619D01*
X149507142Y-117312619D02*
X149602380Y-117312619D01*
X149602380Y-117312619D02*
X149745237Y-117265000D01*
X149745237Y-117265000D02*
X149840475Y-117169761D01*
X149840475Y-117169761D02*
X149888094Y-117074523D01*
X149888094Y-117074523D02*
X149935713Y-116884047D01*
X149935713Y-116884047D02*
X149935713Y-116741190D01*
X149935713Y-116741190D02*
X149888094Y-116550714D01*
X149888094Y-116550714D02*
X149840475Y-116455476D01*
X149840475Y-116455476D02*
X149745237Y-116360238D01*
X149745237Y-116360238D02*
X149602380Y-116312619D01*
X149602380Y-116312619D02*
X149507142Y-116312619D01*
X149507142Y-116312619D02*
X149364285Y-116360238D01*
X149364285Y-116360238D02*
X149316666Y-116407857D01*
X148459523Y-116312619D02*
X148649999Y-116312619D01*
X148649999Y-116312619D02*
X148745237Y-116360238D01*
X148745237Y-116360238D02*
X148792856Y-116407857D01*
X148792856Y-116407857D02*
X148888094Y-116550714D01*
X148888094Y-116550714D02*
X148935713Y-116741190D01*
X148935713Y-116741190D02*
X148935713Y-117122142D01*
X148935713Y-117122142D02*
X148888094Y-117217380D01*
X148888094Y-117217380D02*
X148840475Y-117265000D01*
X148840475Y-117265000D02*
X148745237Y-117312619D01*
X148745237Y-117312619D02*
X148554761Y-117312619D01*
X148554761Y-117312619D02*
X148459523Y-117265000D01*
X148459523Y-117265000D02*
X148411904Y-117217380D01*
X148411904Y-117217380D02*
X148364285Y-117122142D01*
X148364285Y-117122142D02*
X148364285Y-116884047D01*
X148364285Y-116884047D02*
X148411904Y-116788809D01*
X148411904Y-116788809D02*
X148459523Y-116741190D01*
X148459523Y-116741190D02*
X148554761Y-116693571D01*
X148554761Y-116693571D02*
X148745237Y-116693571D01*
X148745237Y-116693571D02*
X148840475Y-116741190D01*
X148840475Y-116741190D02*
X148888094Y-116788809D01*
X148888094Y-116788809D02*
X148935713Y-116884047D01*
%TO.C,JP2*%
X149783333Y-79412619D02*
X149783333Y-80126904D01*
X149783333Y-80126904D02*
X149830952Y-80269761D01*
X149830952Y-80269761D02*
X149926190Y-80365000D01*
X149926190Y-80365000D02*
X150069047Y-80412619D01*
X150069047Y-80412619D02*
X150164285Y-80412619D01*
X149307142Y-80412619D02*
X149307142Y-79412619D01*
X149307142Y-79412619D02*
X148926190Y-79412619D01*
X148926190Y-79412619D02*
X148830952Y-79460238D01*
X148830952Y-79460238D02*
X148783333Y-79507857D01*
X148783333Y-79507857D02*
X148735714Y-79603095D01*
X148735714Y-79603095D02*
X148735714Y-79745952D01*
X148735714Y-79745952D02*
X148783333Y-79841190D01*
X148783333Y-79841190D02*
X148830952Y-79888809D01*
X148830952Y-79888809D02*
X148926190Y-79936428D01*
X148926190Y-79936428D02*
X149307142Y-79936428D01*
X148354761Y-79507857D02*
X148307142Y-79460238D01*
X148307142Y-79460238D02*
X148211904Y-79412619D01*
X148211904Y-79412619D02*
X147973809Y-79412619D01*
X147973809Y-79412619D02*
X147878571Y-79460238D01*
X147878571Y-79460238D02*
X147830952Y-79507857D01*
X147830952Y-79507857D02*
X147783333Y-79603095D01*
X147783333Y-79603095D02*
X147783333Y-79698333D01*
X147783333Y-79698333D02*
X147830952Y-79841190D01*
X147830952Y-79841190D02*
X148402380Y-80412619D01*
X148402380Y-80412619D02*
X147783333Y-80412619D01*
%TO.C,R23*%
X144742857Y-84762619D02*
X145076190Y-84286428D01*
X145314285Y-84762619D02*
X145314285Y-83762619D01*
X145314285Y-83762619D02*
X144933333Y-83762619D01*
X144933333Y-83762619D02*
X144838095Y-83810238D01*
X144838095Y-83810238D02*
X144790476Y-83857857D01*
X144790476Y-83857857D02*
X144742857Y-83953095D01*
X144742857Y-83953095D02*
X144742857Y-84095952D01*
X144742857Y-84095952D02*
X144790476Y-84191190D01*
X144790476Y-84191190D02*
X144838095Y-84238809D01*
X144838095Y-84238809D02*
X144933333Y-84286428D01*
X144933333Y-84286428D02*
X145314285Y-84286428D01*
X144361904Y-83857857D02*
X144314285Y-83810238D01*
X144314285Y-83810238D02*
X144219047Y-83762619D01*
X144219047Y-83762619D02*
X143980952Y-83762619D01*
X143980952Y-83762619D02*
X143885714Y-83810238D01*
X143885714Y-83810238D02*
X143838095Y-83857857D01*
X143838095Y-83857857D02*
X143790476Y-83953095D01*
X143790476Y-83953095D02*
X143790476Y-84048333D01*
X143790476Y-84048333D02*
X143838095Y-84191190D01*
X143838095Y-84191190D02*
X144409523Y-84762619D01*
X144409523Y-84762619D02*
X143790476Y-84762619D01*
X143457142Y-83762619D02*
X142838095Y-83762619D01*
X142838095Y-83762619D02*
X143171428Y-84143571D01*
X143171428Y-84143571D02*
X143028571Y-84143571D01*
X143028571Y-84143571D02*
X142933333Y-84191190D01*
X142933333Y-84191190D02*
X142885714Y-84238809D01*
X142885714Y-84238809D02*
X142838095Y-84334047D01*
X142838095Y-84334047D02*
X142838095Y-84572142D01*
X142838095Y-84572142D02*
X142885714Y-84667380D01*
X142885714Y-84667380D02*
X142933333Y-84715000D01*
X142933333Y-84715000D02*
X143028571Y-84762619D01*
X143028571Y-84762619D02*
X143314285Y-84762619D01*
X143314285Y-84762619D02*
X143409523Y-84715000D01*
X143409523Y-84715000D02*
X143457142Y-84667380D01*
%TO.C,R21*%
X141992857Y-102562619D02*
X142326190Y-102086428D01*
X142564285Y-102562619D02*
X142564285Y-101562619D01*
X142564285Y-101562619D02*
X142183333Y-101562619D01*
X142183333Y-101562619D02*
X142088095Y-101610238D01*
X142088095Y-101610238D02*
X142040476Y-101657857D01*
X142040476Y-101657857D02*
X141992857Y-101753095D01*
X141992857Y-101753095D02*
X141992857Y-101895952D01*
X141992857Y-101895952D02*
X142040476Y-101991190D01*
X142040476Y-101991190D02*
X142088095Y-102038809D01*
X142088095Y-102038809D02*
X142183333Y-102086428D01*
X142183333Y-102086428D02*
X142564285Y-102086428D01*
X141611904Y-101657857D02*
X141564285Y-101610238D01*
X141564285Y-101610238D02*
X141469047Y-101562619D01*
X141469047Y-101562619D02*
X141230952Y-101562619D01*
X141230952Y-101562619D02*
X141135714Y-101610238D01*
X141135714Y-101610238D02*
X141088095Y-101657857D01*
X141088095Y-101657857D02*
X141040476Y-101753095D01*
X141040476Y-101753095D02*
X141040476Y-101848333D01*
X141040476Y-101848333D02*
X141088095Y-101991190D01*
X141088095Y-101991190D02*
X141659523Y-102562619D01*
X141659523Y-102562619D02*
X141040476Y-102562619D01*
X140088095Y-102562619D02*
X140659523Y-102562619D01*
X140373809Y-102562619D02*
X140373809Y-101562619D01*
X140373809Y-101562619D02*
X140469047Y-101705476D01*
X140469047Y-101705476D02*
X140564285Y-101800714D01*
X140564285Y-101800714D02*
X140659523Y-101848333D01*
%TO.C,R8*%
X135416666Y-119482619D02*
X135749999Y-119006428D01*
X135988094Y-119482619D02*
X135988094Y-118482619D01*
X135988094Y-118482619D02*
X135607142Y-118482619D01*
X135607142Y-118482619D02*
X135511904Y-118530238D01*
X135511904Y-118530238D02*
X135464285Y-118577857D01*
X135464285Y-118577857D02*
X135416666Y-118673095D01*
X135416666Y-118673095D02*
X135416666Y-118815952D01*
X135416666Y-118815952D02*
X135464285Y-118911190D01*
X135464285Y-118911190D02*
X135511904Y-118958809D01*
X135511904Y-118958809D02*
X135607142Y-119006428D01*
X135607142Y-119006428D02*
X135988094Y-119006428D01*
X134845237Y-118911190D02*
X134940475Y-118863571D01*
X134940475Y-118863571D02*
X134988094Y-118815952D01*
X134988094Y-118815952D02*
X135035713Y-118720714D01*
X135035713Y-118720714D02*
X135035713Y-118673095D01*
X135035713Y-118673095D02*
X134988094Y-118577857D01*
X134988094Y-118577857D02*
X134940475Y-118530238D01*
X134940475Y-118530238D02*
X134845237Y-118482619D01*
X134845237Y-118482619D02*
X134654761Y-118482619D01*
X134654761Y-118482619D02*
X134559523Y-118530238D01*
X134559523Y-118530238D02*
X134511904Y-118577857D01*
X134511904Y-118577857D02*
X134464285Y-118673095D01*
X134464285Y-118673095D02*
X134464285Y-118720714D01*
X134464285Y-118720714D02*
X134511904Y-118815952D01*
X134511904Y-118815952D02*
X134559523Y-118863571D01*
X134559523Y-118863571D02*
X134654761Y-118911190D01*
X134654761Y-118911190D02*
X134845237Y-118911190D01*
X134845237Y-118911190D02*
X134940475Y-118958809D01*
X134940475Y-118958809D02*
X134988094Y-119006428D01*
X134988094Y-119006428D02*
X135035713Y-119101666D01*
X135035713Y-119101666D02*
X135035713Y-119292142D01*
X135035713Y-119292142D02*
X134988094Y-119387380D01*
X134988094Y-119387380D02*
X134940475Y-119435000D01*
X134940475Y-119435000D02*
X134845237Y-119482619D01*
X134845237Y-119482619D02*
X134654761Y-119482619D01*
X134654761Y-119482619D02*
X134559523Y-119435000D01*
X134559523Y-119435000D02*
X134511904Y-119387380D01*
X134511904Y-119387380D02*
X134464285Y-119292142D01*
X134464285Y-119292142D02*
X134464285Y-119101666D01*
X134464285Y-119101666D02*
X134511904Y-119006428D01*
X134511904Y-119006428D02*
X134559523Y-118958809D01*
X134559523Y-118958809D02*
X134654761Y-118911190D01*
%TO.C,LS1*%
X139531692Y-46987098D02*
X140122356Y-47202082D01*
X140122356Y-47202082D02*
X140573823Y-45961688D01*
X139198793Y-46799041D02*
X139000095Y-46793612D01*
X139000095Y-46793612D02*
X138704763Y-46686120D01*
X138704763Y-46686120D02*
X138608129Y-46584057D01*
X138608129Y-46584057D02*
X138570561Y-46503492D01*
X138570561Y-46503492D02*
X138554491Y-46363861D01*
X138554491Y-46363861D02*
X138597488Y-46245728D01*
X138597488Y-46245728D02*
X138699551Y-46149094D01*
X138699551Y-46149094D02*
X138780116Y-46111526D01*
X138780116Y-46111526D02*
X138919747Y-46095456D01*
X138919747Y-46095456D02*
X139177511Y-46122384D01*
X139177511Y-46122384D02*
X139317142Y-46106314D01*
X139317142Y-46106314D02*
X139397707Y-46068746D01*
X139397707Y-46068746D02*
X139499770Y-45972112D01*
X139499770Y-45972112D02*
X139542767Y-45853979D01*
X139542767Y-45853979D02*
X139526698Y-45714348D01*
X139526698Y-45714348D02*
X139489130Y-45633783D01*
X139489130Y-45633783D02*
X139392495Y-45531720D01*
X139392495Y-45531720D02*
X139097163Y-45424228D01*
X139097163Y-45424228D02*
X138898466Y-45418799D01*
X137287170Y-46170158D02*
X137995966Y-46428139D01*
X137641568Y-46299149D02*
X138093035Y-45058755D01*
X138093035Y-45058755D02*
X138146672Y-45278951D01*
X138146672Y-45278951D02*
X138221808Y-45440080D01*
X138221808Y-45440080D02*
X138318442Y-45542143D01*
X122011677Y-53737332D02*
X121066615Y-53393357D01*
X121367159Y-54037876D02*
X121711133Y-53092813D01*
D11*
%TO.C,C15*%
X144861252Y-104215000D02*
X144338748Y-104215000D01*
X144861252Y-105685000D02*
X144338748Y-105685000D01*
%TO.C,R9*%
X162127500Y-83295276D02*
X162127500Y-83804724D01*
X163172500Y-83295276D02*
X163172500Y-83804724D01*
%TO.C,JP1*%
X150350000Y-83250000D02*
X150350000Y-81250000D01*
X150350000Y-81250000D02*
X147550000Y-81250000D01*
X147550000Y-83250000D02*
X150350000Y-83250000D01*
X147550000Y-81250000D02*
X147550000Y-83250000D01*
%TO.C,C10*%
X162010000Y-102046267D02*
X162010000Y-101753733D01*
X160990000Y-102046267D02*
X160990000Y-101753733D01*
%TO.C,C13*%
X149188748Y-101335000D02*
X149711252Y-101335000D01*
X149188748Y-99865000D02*
X149711252Y-99865000D01*
%TO.C,R6*%
X154095276Y-126372500D02*
X154604724Y-126372500D01*
X154095276Y-125327500D02*
X154604724Y-125327500D01*
%TO.C,R18*%
X143495276Y-92972500D02*
X144004724Y-92972500D01*
X143495276Y-91927500D02*
X144004724Y-91927500D01*
%TO.C,R20*%
X149304724Y-85127500D02*
X148795276Y-85127500D01*
X149304724Y-86172500D02*
X148795276Y-86172500D01*
%TO.C,R16*%
X144904724Y-107127500D02*
X144395276Y-107127500D01*
X144904724Y-108172500D02*
X144395276Y-108172500D01*
%TO.C,R22*%
X126345276Y-119972500D02*
X126854724Y-119972500D01*
X126345276Y-118927500D02*
X126854724Y-118927500D01*
%TO.C,R12*%
X155745276Y-121422500D02*
X156254724Y-121422500D01*
X155745276Y-120377500D02*
X156254724Y-120377500D01*
%TO.C,R13*%
X155745276Y-113877500D02*
X156254724Y-113877500D01*
X155745276Y-114922500D02*
X156254724Y-114922500D01*
%TO.C,C9*%
X163060000Y-79596267D02*
X163060000Y-79303733D01*
X162040000Y-79596267D02*
X162040000Y-79303733D01*
%TO.C,C8*%
X139560000Y-119896267D02*
X139560000Y-119603733D01*
X138540000Y-119896267D02*
X138540000Y-119603733D01*
%TO.C,C11*%
X159490000Y-97853733D02*
X159490000Y-98146267D01*
X160510000Y-97853733D02*
X160510000Y-98146267D01*
%TO.C,C17*%
X144011252Y-88415000D02*
X143488748Y-88415000D01*
X144011252Y-89885000D02*
X143488748Y-89885000D01*
%TO.C,R10*%
X158395276Y-71472500D02*
X158904724Y-71472500D01*
X158395276Y-70427500D02*
X158904724Y-70427500D01*
%TO.C,R7*%
X135304724Y-130427500D02*
X134795276Y-130427500D01*
X135304724Y-131472500D02*
X134795276Y-131472500D01*
%TO.C,R15*%
X148895276Y-92972500D02*
X149404724Y-92972500D01*
X148895276Y-91927500D02*
X149404724Y-91927500D01*
%TO.C,R17*%
X120945276Y-123922500D02*
X121454724Y-123922500D01*
X120945276Y-122877500D02*
X121454724Y-122877500D01*
%TO.C,C14*%
X149311252Y-88415000D02*
X148788748Y-88415000D01*
X149311252Y-89885000D02*
X148788748Y-89885000D01*
%TO.C,C7*%
X138760000Y-130246267D02*
X138760000Y-129953733D01*
X137740000Y-130246267D02*
X137740000Y-129953733D01*
%TO.C,R14*%
X149345276Y-104422500D02*
X149854724Y-104422500D01*
X149345276Y-103377500D02*
X149854724Y-103377500D01*
%TO.C,C12*%
X156311252Y-116915000D02*
X155788748Y-116915000D01*
X156311252Y-118385000D02*
X155788748Y-118385000D01*
%TO.C,C16*%
X124688748Y-123435000D02*
X125211252Y-123435000D01*
X124688748Y-121965000D02*
X125211252Y-121965000D01*
%TO.C,R19*%
X149310276Y-97822500D02*
X149819724Y-97822500D01*
X149310276Y-96777500D02*
X149819724Y-96777500D01*
%TO.C,C6*%
X146596267Y-116290000D02*
X146303733Y-116290000D01*
X146596267Y-117310000D02*
X146303733Y-117310000D01*
%TO.C,JP2*%
X150350000Y-79150000D02*
X150350000Y-77150000D01*
X150350000Y-77150000D02*
X147550000Y-77150000D01*
X147550000Y-79150000D02*
X150350000Y-79150000D01*
X147550000Y-77150000D02*
X147550000Y-79150000D01*
%TO.C,R23*%
X144004724Y-85127500D02*
X143495276Y-85127500D01*
X144004724Y-86172500D02*
X143495276Y-86172500D01*
%TO.C,R21*%
X144854724Y-101527500D02*
X144345276Y-101527500D01*
X144854724Y-102572500D02*
X144345276Y-102572500D01*
%TO.C,R8*%
X135504724Y-119927500D02*
X134995276Y-119927500D01*
X135504724Y-120972500D02*
X134995276Y-120972500D01*
D12*
%TO.C,LS1*%
X145600000Y-58850000D02*
G75*
G03*
X145600000Y-58850000I-12150000J0D01*
G01*
%TD*%
M02*
