%TF.GenerationSoftware,KiCad,Pcbnew,7.0.1*%
%TF.CreationDate,2023-05-22T07:14:15+09:00*%
%TF.ProjectId,THRControlModuleBoard,54485243-6f6e-4747-926f-6c4d6f64756c,rev?*%
%TF.SameCoordinates,Original*%
%TF.FileFunction,Soldermask,Top*%
%TF.FilePolarity,Negative*%
%FSLAX46Y46*%
G04 Gerber Fmt 4.6, Leading zero omitted, Abs format (unit mm)*
G04 Created by KiCad (PCBNEW 7.0.1) date 2023-05-22 07:14:15*
%MOMM*%
%LPD*%
G01*
G04 APERTURE LIST*
G04 Aperture macros list*
%AMRoundRect*
0 Rectangle with rounded corners*
0 $1 Rounding radius*
0 $2 $3 $4 $5 $6 $7 $8 $9 X,Y pos of 4 corners*
0 Add a 4 corners polygon primitive as box body*
4,1,4,$2,$3,$4,$5,$6,$7,$8,$9,$2,$3,0*
0 Add four circle primitives for the rounded corners*
1,1,$1+$1,$2,$3*
1,1,$1+$1,$4,$5*
1,1,$1+$1,$6,$7*
1,1,$1+$1,$8,$9*
0 Add four rect primitives between the rounded corners*
20,1,$1+$1,$2,$3,$4,$5,0*
20,1,$1+$1,$4,$5,$6,$7,0*
20,1,$1+$1,$6,$7,$8,$9,0*
20,1,$1+$1,$8,$9,$2,$3,0*%
%AMHorizOval*
0 Thick line with rounded ends*
0 $1 width*
0 $2 $3 position (X,Y) of the first rounded end (center of the circle)*
0 $4 $5 position (X,Y) of the second rounded end (center of the circle)*
0 Add line between two ends*
20,1,$1,$2,$3,$4,$5,0*
0 Add two circle primitives to create the rounded ends*
1,1,$1,$2,$3*
1,1,$1,$4,$5*%
%AMRotRect*
0 Rectangle, with rotation*
0 The origin of the aperture is its center*
0 $1 length*
0 $2 width*
0 $3 Rotation angle, in degrees counterclockwise*
0 Add horizontal line*
21,1,$1,$2,0,0,$3*%
G04 Aperture macros list end*
%ADD10RoundRect,0.100000X-0.100000X0.637500X-0.100000X-0.637500X0.100000X-0.637500X0.100000X0.637500X0*%
%ADD11O,1.600000X1.600000*%
%ADD12R,1.600000X1.600000*%
%ADD13R,1.133000X1.133000*%
%ADD14C,1.133000*%
%ADD15RotRect,1.350000X1.350000X297.000000*%
%ADD16HorizOval,1.350000X0.000000X0.000000X0.000000X0.000000X0*%
%ADD17RotRect,1.350000X1.350000X310.000000*%
%ADD18HorizOval,1.350000X0.000000X0.000000X0.000000X0.000000X0*%
%ADD19RoundRect,0.237500X-0.300000X-0.237500X0.300000X-0.237500X0.300000X0.237500X-0.300000X0.237500X0*%
%ADD20RoundRect,0.225000X0.225000X0.375000X-0.225000X0.375000X-0.225000X-0.375000X0.225000X-0.375000X0*%
%ADD21C,4.500000*%
%ADD22RoundRect,0.250000X-0.450000X0.350000X-0.450000X-0.350000X0.450000X-0.350000X0.450000X0.350000X0*%
%ADD23RoundRect,0.250000X0.350000X0.450000X-0.350000X0.450000X-0.350000X-0.450000X0.350000X-0.450000X0*%
%ADD24O,1.853200X3.503200*%
%ADD25RoundRect,0.225000X0.375000X-0.225000X0.375000X0.225000X-0.375000X0.225000X-0.375000X-0.225000X0*%
%ADD26RoundRect,0.250000X-0.350000X-0.450000X0.350000X-0.450000X0.350000X0.450000X-0.350000X0.450000X0*%
%ADD27RoundRect,0.250000X-0.215057X-0.624380X0.467002X-0.466914X0.215057X0.624380X-0.467002X0.466914X0*%
%ADD28HorizOval,1.200000X-0.050614X0.219233X0.050614X-0.219233X0*%
%ADD29C,1.500000*%
%ADD30HorizOval,1.700000X0.000000X0.000000X0.000000X0.000000X0*%
%ADD31RotRect,1.700000X1.700000X160.000000*%
%ADD32C,3.302000*%
%ADD33RoundRect,0.237500X0.250000X0.237500X-0.250000X0.237500X-0.250000X-0.237500X0.250000X-0.237500X0*%
%ADD34RoundRect,0.237500X-0.237500X0.300000X-0.237500X-0.300000X0.237500X-0.300000X0.237500X0.300000X0*%
%ADD35RoundRect,0.237500X0.300000X0.237500X-0.300000X0.237500X-0.300000X-0.237500X0.300000X-0.237500X0*%
%ADD36C,3.000000*%
%ADD37R,1.498600X1.498600*%
%ADD38C,1.498600*%
%ADD39C,1.710000*%
G04 APERTURE END LIST*
D10*
%TO.C,U1*%
X136152000Y-48819500D03*
X135502000Y-48819500D03*
X134852000Y-48819500D03*
X134202000Y-48819500D03*
X133552000Y-48819500D03*
X132902000Y-48819500D03*
X132252000Y-48819500D03*
X132252000Y-54544500D03*
X132902000Y-54544500D03*
X133552000Y-54544500D03*
X134202000Y-54544500D03*
X134852000Y-54544500D03*
X135502000Y-54544500D03*
X136152000Y-54544500D03*
%TD*%
D11*
%TO.C,A1*%
X138320000Y-109300000D03*
X138320000Y-106760000D03*
X138320000Y-104220000D03*
X138320000Y-101680000D03*
X138320000Y-99140000D03*
X138320000Y-96600000D03*
X138320000Y-94060000D03*
X138320000Y-91520000D03*
X138320000Y-88980000D03*
X138320000Y-86440000D03*
X138320000Y-83900000D03*
X138320000Y-81360000D03*
X138320000Y-78820000D03*
X138320000Y-76280000D03*
X138320000Y-73740000D03*
X153560000Y-73740000D03*
X153560000Y-76280000D03*
X153560000Y-78820000D03*
X153560000Y-81360000D03*
X153560000Y-83900000D03*
X153560000Y-86440000D03*
X153560000Y-88980000D03*
X153560000Y-91520000D03*
X153560000Y-94060000D03*
X153560000Y-96600000D03*
X153560000Y-99140000D03*
X153560000Y-101680000D03*
X153560000Y-104220000D03*
X153560000Y-106760000D03*
D12*
X153560000Y-109300000D03*
%TD*%
D13*
%TO.C,IC2*%
X139060000Y-114581000D03*
D14*
X136520000Y-114581000D03*
X133980000Y-114581000D03*
X131440000Y-114581000D03*
X131440000Y-122519000D03*
X133980000Y-122519000D03*
X136520000Y-122519000D03*
X139060000Y-122519000D03*
%TD*%
D15*
%TO.C,J2*%
X130986004Y-147333026D03*
D16*
X130078023Y-145551012D03*
X129203990Y-148241007D03*
X128296010Y-146458993D03*
X127421977Y-149148988D03*
X126513996Y-147366974D03*
%TD*%
D17*
%TO.C,J3*%
X143124876Y-139330469D03*
D18*
X141839301Y-137798380D03*
X141592788Y-140616044D03*
X140307212Y-139083956D03*
X140060699Y-141901620D03*
X138775124Y-140369531D03*
%TD*%
D19*
%TO.C,C2*%
X133593500Y-45586000D03*
X135318500Y-45586000D03*
%TD*%
D20*
%TO.C,D3*%
X145900000Y-56050000D03*
X142600000Y-56050000D03*
%TD*%
%TO.C,D1*%
X151500000Y-54950000D03*
X148200000Y-54950000D03*
%TD*%
D21*
%TO.C,H3*%
X108450000Y-131150000D03*
%TD*%
D22*
%TO.C,R4*%
X141314000Y-48666000D03*
X141314000Y-50666000D03*
%TD*%
D23*
%TO.C,R2*%
X139520000Y-45586000D03*
X137520000Y-45586000D03*
%TD*%
D12*
%TO.C,U2*%
X151750000Y-114550000D03*
D11*
X149210000Y-114550000D03*
X146670000Y-114550000D03*
X144130000Y-114550000D03*
X144130000Y-122170000D03*
X146670000Y-122170000D03*
X149210000Y-122170000D03*
X151750000Y-122170000D03*
%TD*%
D24*
%TO.C,J5*%
X117390000Y-128250000D03*
X119930000Y-128250000D03*
X122470000Y-128250000D03*
X125010000Y-128250000D03*
%TD*%
D25*
%TO.C,D2*%
X140200000Y-58150000D03*
X140200000Y-54850000D03*
%TD*%
D22*
%TO.C,R5*%
X144362000Y-48650000D03*
X144362000Y-50650000D03*
%TD*%
D13*
%TO.C,IC1*%
X138760000Y-124981000D03*
D14*
X136220000Y-124981000D03*
X133680000Y-124981000D03*
X131140000Y-124981000D03*
X131140000Y-132919000D03*
X133680000Y-132919000D03*
X136220000Y-132919000D03*
X138760000Y-132919000D03*
%TD*%
D26*
%TO.C,R1*%
X129250000Y-45850000D03*
X131250000Y-45850000D03*
%TD*%
D22*
%TO.C,R3*%
X147410000Y-48666000D03*
X147410000Y-50666000D03*
%TD*%
D12*
%TO.C,U4*%
X157275000Y-75850000D03*
D11*
X159815000Y-75850000D03*
X159815000Y-68230000D03*
X157275000Y-68230000D03*
%TD*%
D21*
%TO.C,H1*%
X115000000Y-55650000D03*
%TD*%
D27*
%TO.C,J6*%
X112163473Y-147201064D03*
D28*
X112613375Y-149149804D03*
X114112213Y-146751162D03*
X114562115Y-148699902D03*
X116060953Y-146301260D03*
X116510855Y-148250000D03*
X118009693Y-145851358D03*
X118459595Y-147800098D03*
%TD*%
D29*
%TO.C,Y1*%
X160450000Y-112400000D03*
X160450000Y-107520000D03*
%TD*%
D21*
%TO.C,H4*%
X145050000Y-128050000D03*
%TD*%
D30*
%TO.C,U5*%
X108856194Y-140889542D03*
X107987463Y-143276362D03*
X107118731Y-145663181D03*
X106250000Y-148050000D03*
X105381269Y-150436819D03*
D31*
X104512538Y-152823639D03*
D32*
X92105461Y-133441268D03*
X86893074Y-147762184D03*
%TD*%
D19*
%TO.C,C1*%
X127751500Y-48888000D03*
X129476500Y-48888000D03*
%TD*%
D33*
%TO.C,R11*%
X158262500Y-77850000D03*
X156437500Y-77850000D03*
%TD*%
D34*
%TO.C,C3*%
X138450000Y-49387500D03*
X138450000Y-51112500D03*
%TD*%
D24*
%TO.C,J4*%
X116240000Y-138150000D03*
X118780000Y-138150000D03*
X121320000Y-138150000D03*
X123860000Y-138150000D03*
%TD*%
D35*
%TO.C,C5*%
X129412500Y-58750000D03*
X127687500Y-58750000D03*
%TD*%
%TO.C,C4*%
X129476500Y-52444000D03*
X127751500Y-52444000D03*
%TD*%
D21*
%TO.C,H2*%
X148150000Y-62250000D03*
%TD*%
D36*
%TO.C,J1*%
X120450000Y-45300000D03*
X120450000Y-37400000D03*
D21*
X110290000Y-41350000D03*
%TD*%
D37*
%TO.C,U3*%
X157140000Y-82090000D03*
D38*
X157140000Y-84630000D03*
X157140000Y-87170000D03*
X157140000Y-89710000D03*
X157140000Y-92250000D03*
X157140000Y-94790000D03*
X157140000Y-97330000D03*
X157140000Y-99870000D03*
X157140000Y-102410000D03*
X164760000Y-102410000D03*
X164760000Y-99870000D03*
X164760000Y-97330000D03*
X164760000Y-94790000D03*
X164760000Y-92250000D03*
X164760000Y-89710000D03*
X164760000Y-87170000D03*
X164760000Y-84630000D03*
X164760000Y-82090000D03*
%TD*%
D39*
%TO.C,LS1*%
X140497695Y-61415151D03*
X126402305Y-56284849D03*
%TD*%
M02*
