%TF.GenerationSoftware,KiCad,Pcbnew,7.0.1*%
%TF.CreationDate,2023-05-22T07:14:15+09:00*%
%TF.ProjectId,THRControlModuleBoard,54485243-6f6e-4747-926f-6c4d6f64756c,rev?*%
%TF.SameCoordinates,Original*%
%TF.FileFunction,Legend,Top*%
%TF.FilePolarity,Positive*%
%FSLAX46Y46*%
G04 Gerber Fmt 4.6, Leading zero omitted, Abs format (unit mm)*
G04 Created by KiCad (PCBNEW 7.0.1) date 2023-05-22 07:14:15*
%MOMM*%
%LPD*%
G01*
G04 APERTURE LIST*
%ADD10C,0.150000*%
%ADD11C,0.254000*%
%ADD12C,0.100000*%
%ADD13C,0.127000*%
%ADD14C,0.081280*%
%ADD15C,0.101600*%
%ADD16C,0.120000*%
%ADD17C,0.200000*%
%ADD18C,0.300000*%
%ADD19C,0.050800*%
%ADD20C,0.152400*%
G04 APERTURE END LIST*
D10*
%TO.C,U1*%
X137114619Y-52443904D02*
X137924142Y-52443904D01*
X137924142Y-52443904D02*
X138019380Y-52396285D01*
X138019380Y-52396285D02*
X138067000Y-52348666D01*
X138067000Y-52348666D02*
X138114619Y-52253428D01*
X138114619Y-52253428D02*
X138114619Y-52062952D01*
X138114619Y-52062952D02*
X138067000Y-51967714D01*
X138067000Y-51967714D02*
X138019380Y-51920095D01*
X138019380Y-51920095D02*
X137924142Y-51872476D01*
X137924142Y-51872476D02*
X137114619Y-51872476D01*
X138114619Y-50872476D02*
X138114619Y-51443904D01*
X138114619Y-51158190D02*
X137114619Y-51158190D01*
X137114619Y-51158190D02*
X137257476Y-51253428D01*
X137257476Y-51253428D02*
X137352714Y-51348666D01*
X137352714Y-51348666D02*
X137400333Y-51443904D01*
%TO.C,A1*%
X153335714Y-68926904D02*
X153811904Y-68926904D01*
X153240476Y-69212619D02*
X153573809Y-68212619D01*
X153573809Y-68212619D02*
X153907142Y-69212619D01*
X154764285Y-69212619D02*
X154192857Y-69212619D01*
X154478571Y-69212619D02*
X154478571Y-68212619D01*
X154478571Y-68212619D02*
X154383333Y-68355476D01*
X154383333Y-68355476D02*
X154288095Y-68450714D01*
X154288095Y-68450714D02*
X154192857Y-68498333D01*
X147201904Y-74277380D02*
X147201904Y-73467857D01*
X147201904Y-73467857D02*
X147154285Y-73372619D01*
X147154285Y-73372619D02*
X147106666Y-73325000D01*
X147106666Y-73325000D02*
X147011428Y-73277380D01*
X147011428Y-73277380D02*
X146820952Y-73277380D01*
X146820952Y-73277380D02*
X146725714Y-73325000D01*
X146725714Y-73325000D02*
X146678095Y-73372619D01*
X146678095Y-73372619D02*
X146630476Y-73467857D01*
X146630476Y-73467857D02*
X146630476Y-74277380D01*
X146201904Y-73325000D02*
X146059047Y-73277380D01*
X146059047Y-73277380D02*
X145820952Y-73277380D01*
X145820952Y-73277380D02*
X145725714Y-73325000D01*
X145725714Y-73325000D02*
X145678095Y-73372619D01*
X145678095Y-73372619D02*
X145630476Y-73467857D01*
X145630476Y-73467857D02*
X145630476Y-73563095D01*
X145630476Y-73563095D02*
X145678095Y-73658333D01*
X145678095Y-73658333D02*
X145725714Y-73705952D01*
X145725714Y-73705952D02*
X145820952Y-73753571D01*
X145820952Y-73753571D02*
X146011428Y-73801190D01*
X146011428Y-73801190D02*
X146106666Y-73848809D01*
X146106666Y-73848809D02*
X146154285Y-73896428D01*
X146154285Y-73896428D02*
X146201904Y-73991666D01*
X146201904Y-73991666D02*
X146201904Y-74086904D01*
X146201904Y-74086904D02*
X146154285Y-74182142D01*
X146154285Y-74182142D02*
X146106666Y-74229761D01*
X146106666Y-74229761D02*
X146011428Y-74277380D01*
X146011428Y-74277380D02*
X145773333Y-74277380D01*
X145773333Y-74277380D02*
X145630476Y-74229761D01*
X144868571Y-73801190D02*
X144725714Y-73753571D01*
X144725714Y-73753571D02*
X144678095Y-73705952D01*
X144678095Y-73705952D02*
X144630476Y-73610714D01*
X144630476Y-73610714D02*
X144630476Y-73467857D01*
X144630476Y-73467857D02*
X144678095Y-73372619D01*
X144678095Y-73372619D02*
X144725714Y-73325000D01*
X144725714Y-73325000D02*
X144820952Y-73277380D01*
X144820952Y-73277380D02*
X145201904Y-73277380D01*
X145201904Y-73277380D02*
X145201904Y-74277380D01*
X145201904Y-74277380D02*
X144868571Y-74277380D01*
X144868571Y-74277380D02*
X144773333Y-74229761D01*
X144773333Y-74229761D02*
X144725714Y-74182142D01*
X144725714Y-74182142D02*
X144678095Y-74086904D01*
X144678095Y-74086904D02*
X144678095Y-73991666D01*
X144678095Y-73991666D02*
X144725714Y-73896428D01*
X144725714Y-73896428D02*
X144773333Y-73848809D01*
X144773333Y-73848809D02*
X144868571Y-73801190D01*
X144868571Y-73801190D02*
X145201904Y-73801190D01*
D11*
%TO.C,IC2*%
X135837526Y-119789762D02*
X134567526Y-119789762D01*
X135716573Y-118459285D02*
X135777050Y-118519761D01*
X135777050Y-118519761D02*
X135837526Y-118701190D01*
X135837526Y-118701190D02*
X135837526Y-118822142D01*
X135837526Y-118822142D02*
X135777050Y-119003571D01*
X135777050Y-119003571D02*
X135656097Y-119124523D01*
X135656097Y-119124523D02*
X135535145Y-119185000D01*
X135535145Y-119185000D02*
X135293240Y-119245476D01*
X135293240Y-119245476D02*
X135111811Y-119245476D01*
X135111811Y-119245476D02*
X134869907Y-119185000D01*
X134869907Y-119185000D02*
X134748954Y-119124523D01*
X134748954Y-119124523D02*
X134628002Y-119003571D01*
X134628002Y-119003571D02*
X134567526Y-118822142D01*
X134567526Y-118822142D02*
X134567526Y-118701190D01*
X134567526Y-118701190D02*
X134628002Y-118519761D01*
X134628002Y-118519761D02*
X134688478Y-118459285D01*
X134688478Y-117975476D02*
X134628002Y-117915000D01*
X134628002Y-117915000D02*
X134567526Y-117794047D01*
X134567526Y-117794047D02*
X134567526Y-117491666D01*
X134567526Y-117491666D02*
X134628002Y-117370714D01*
X134628002Y-117370714D02*
X134688478Y-117310238D01*
X134688478Y-117310238D02*
X134809430Y-117249761D01*
X134809430Y-117249761D02*
X134930383Y-117249761D01*
X134930383Y-117249761D02*
X135111811Y-117310238D01*
X135111811Y-117310238D02*
X135837526Y-118035952D01*
X135837526Y-118035952D02*
X135837526Y-117249761D01*
D10*
%TO.C,J2*%
X121782995Y-144604658D02*
X122107274Y-145241091D01*
X122107274Y-145241091D02*
X122129701Y-145389996D01*
X122129701Y-145389996D02*
X122088081Y-145518091D01*
X122088081Y-145518091D02*
X121982413Y-145625376D01*
X121982413Y-145625376D02*
X121897555Y-145668613D01*
X122208093Y-144494948D02*
X122228903Y-144430901D01*
X122228903Y-144430901D02*
X122292142Y-144345235D01*
X122292142Y-144345235D02*
X122504287Y-144237142D01*
X122504287Y-144237142D02*
X122610763Y-144236333D01*
X122610763Y-144236333D02*
X122674810Y-144257144D01*
X122674810Y-144257144D02*
X122760476Y-144320383D01*
X122760476Y-144320383D02*
X122803714Y-144405240D01*
X122803714Y-144405240D02*
X122826141Y-144554146D01*
X122826141Y-144554146D02*
X122576417Y-145322715D01*
X122576417Y-145322715D02*
X123127993Y-145041674D01*
D12*
G36*
X124397060Y-148791307D02*
G01*
X124409132Y-148793576D01*
X124420800Y-148797084D01*
X124432062Y-148801829D01*
X124439403Y-148805747D01*
X124450394Y-148812855D01*
X124461362Y-148821439D01*
X124468661Y-148827982D01*
X124475950Y-148835182D01*
X124483228Y-148843038D01*
X124490496Y-148851550D01*
X124497754Y-148860719D01*
X124505001Y-148870544D01*
X124512238Y-148881025D01*
X124519464Y-148892162D01*
X124526680Y-148903956D01*
X124533886Y-148916406D01*
X124541081Y-148929513D01*
X124548266Y-148943276D01*
X124654382Y-149151540D01*
X124361898Y-149300568D01*
X124255782Y-149092304D01*
X124252087Y-149084975D01*
X124245106Y-149070659D01*
X124238668Y-149056798D01*
X124232775Y-149043392D01*
X124227427Y-149030441D01*
X124222623Y-149017944D01*
X124218364Y-149005903D01*
X124214649Y-148994317D01*
X124211479Y-148983186D01*
X124208853Y-148972510D01*
X124206772Y-148962288D01*
X124205235Y-148952522D01*
X124203951Y-148938726D01*
X124203892Y-148925953D01*
X124205057Y-148914204D01*
X124206466Y-148906781D01*
X124209571Y-148895952D01*
X124213865Y-148885491D01*
X124219348Y-148875397D01*
X124226021Y-148865671D01*
X124233883Y-148856311D01*
X124242935Y-148847319D01*
X124253175Y-148838694D01*
X124264606Y-148830437D01*
X124272887Y-148825136D01*
X124281696Y-148819999D01*
X124291035Y-148815024D01*
X124301200Y-148810074D01*
X124311185Y-148805674D01*
X124320990Y-148801823D01*
X124330615Y-148798523D01*
X124344715Y-148794605D01*
X124358409Y-148791924D01*
X124371698Y-148790480D01*
X124384581Y-148790275D01*
X124397060Y-148791307D01*
G37*
G36*
X126070053Y-150045348D02*
G01*
X124615016Y-150786726D01*
X124045494Y-149668975D01*
X124409262Y-149668975D01*
X124471689Y-149791496D01*
X124833812Y-149606986D01*
X125070882Y-150072261D01*
X124708759Y-150256772D01*
X124770854Y-150378641D01*
X125662234Y-149924460D01*
X125600139Y-149802592D01*
X125182305Y-150015489D01*
X124945235Y-149550213D01*
X125363069Y-149337316D01*
X125300641Y-149214795D01*
X124409262Y-149668975D01*
X124045494Y-149668975D01*
X123667441Y-148927005D01*
X124065804Y-148927005D01*
X124066241Y-148937220D01*
X124067120Y-148947545D01*
X124068440Y-148957978D01*
X124070202Y-148968521D01*
X124072404Y-148979173D01*
X124075047Y-148989935D01*
X124078132Y-149000805D01*
X124081828Y-149012346D01*
X124085220Y-149021843D01*
X124089143Y-149032062D01*
X124093598Y-149043003D01*
X124098585Y-149054665D01*
X124104103Y-149067050D01*
X124110153Y-149080156D01*
X124114482Y-149089294D01*
X124119047Y-149098753D01*
X124123848Y-149108533D01*
X124128885Y-149118634D01*
X124134159Y-149129055D01*
X124311351Y-149476815D01*
X125202731Y-149022635D01*
X125141301Y-148902072D01*
X124765250Y-149093679D01*
X124664678Y-148896296D01*
X124660643Y-148888312D01*
X124653015Y-148872833D01*
X124645978Y-148858005D01*
X124639532Y-148843829D01*
X124633678Y-148830305D01*
X124628415Y-148817432D01*
X124623743Y-148805212D01*
X124619662Y-148793643D01*
X124616172Y-148782726D01*
X124613274Y-148772460D01*
X124610035Y-148758284D01*
X124608126Y-148745574D01*
X124607548Y-148734331D01*
X124608846Y-148721621D01*
X124611307Y-148713000D01*
X124616653Y-148701362D01*
X124622208Y-148692524D01*
X124629090Y-148683595D01*
X124637298Y-148674572D01*
X124646833Y-148665457D01*
X124657693Y-148656250D01*
X124665670Y-148650060D01*
X124674236Y-148643829D01*
X124683392Y-148637556D01*
X124693136Y-148631243D01*
X124703471Y-148624888D01*
X124814170Y-148559164D01*
X124817652Y-148557390D01*
X124823002Y-148554120D01*
X124833304Y-148547709D01*
X124843075Y-148541466D01*
X124852316Y-148535393D01*
X124861027Y-148529490D01*
X124873099Y-148520953D01*
X124883977Y-148512798D01*
X124893662Y-148505024D01*
X124902154Y-148497632D01*
X124909453Y-148490622D01*
X124917328Y-148481868D01*
X124923081Y-148473792D01*
X124851450Y-148333208D01*
X124827077Y-148345627D01*
X124826656Y-148353000D01*
X124824577Y-148363091D01*
X124820762Y-148372913D01*
X124815209Y-148382466D01*
X124809066Y-148390440D01*
X124801264Y-148398556D01*
X124793328Y-148405623D01*
X124784086Y-148412967D01*
X124775754Y-148419042D01*
X124766587Y-148425293D01*
X124756585Y-148431722D01*
X124745747Y-148438327D01*
X124606351Y-148522511D01*
X124596422Y-148528509D01*
X124586942Y-148534443D01*
X124577911Y-148540313D01*
X124569330Y-148546120D01*
X124561198Y-148551862D01*
X124549842Y-148560355D01*
X124539497Y-148568704D01*
X124530163Y-148576910D01*
X124521839Y-148584971D01*
X124514526Y-148592888D01*
X124508224Y-148600662D01*
X124501394Y-148610802D01*
X124495968Y-148621152D01*
X124491664Y-148632122D01*
X124488480Y-148643711D01*
X124486417Y-148655919D01*
X124485475Y-148668748D01*
X124485504Y-148678775D01*
X124486164Y-148689152D01*
X124487454Y-148699877D01*
X124489374Y-148710950D01*
X124481782Y-148705272D01*
X124470300Y-148697370D01*
X124458707Y-148690203D01*
X124447002Y-148683773D01*
X124435186Y-148678079D01*
X124423258Y-148673121D01*
X124411219Y-148668900D01*
X124399068Y-148665415D01*
X124386806Y-148662666D01*
X124374432Y-148660653D01*
X124361946Y-148659377D01*
X124357740Y-148659108D01*
X124345067Y-148658790D01*
X124332309Y-148659204D01*
X124319466Y-148660350D01*
X124306539Y-148662228D01*
X124293527Y-148664839D01*
X124280430Y-148668182D01*
X124267248Y-148672257D01*
X124253982Y-148677064D01*
X124240631Y-148682603D01*
X124231683Y-148686703D01*
X124222698Y-148691128D01*
X124213503Y-148695959D01*
X124204579Y-148700943D01*
X124195925Y-148706080D01*
X124187543Y-148711371D01*
X124175476Y-148719594D01*
X124164020Y-148728162D01*
X124153172Y-148737075D01*
X124142934Y-148746332D01*
X124133305Y-148755935D01*
X124124286Y-148765882D01*
X124115876Y-148776174D01*
X124108076Y-148786811D01*
X124103187Y-148794063D01*
X124096416Y-148805160D01*
X124090319Y-148816521D01*
X124084896Y-148828145D01*
X124080147Y-148840033D01*
X124076072Y-148852185D01*
X124072671Y-148864601D01*
X124069944Y-148877280D01*
X124067891Y-148890223D01*
X124066512Y-148903429D01*
X124065807Y-148916900D01*
X124065804Y-148925953D01*
X124065804Y-148927005D01*
X123667441Y-148927005D01*
X123281711Y-148169968D01*
X123652773Y-148169968D01*
X123653612Y-148186704D01*
X123655315Y-148203626D01*
X123657882Y-148220735D01*
X123661313Y-148238032D01*
X123665609Y-148255516D01*
X123670769Y-148273186D01*
X123676792Y-148291045D01*
X123683680Y-148309090D01*
X123687449Y-148318183D01*
X123691433Y-148327322D01*
X123695633Y-148336508D01*
X123700049Y-148345742D01*
X123704681Y-148355022D01*
X123709360Y-148364028D01*
X123714125Y-148372848D01*
X123718976Y-148381482D01*
X123723912Y-148389930D01*
X123734041Y-148406269D01*
X123744512Y-148421863D01*
X123755326Y-148436712D01*
X123766483Y-148450818D01*
X123777982Y-148464180D01*
X123789824Y-148476797D01*
X123802008Y-148488670D01*
X123814534Y-148499799D01*
X123827404Y-148510184D01*
X123840615Y-148519824D01*
X123854170Y-148528720D01*
X123868066Y-148536873D01*
X123882306Y-148544281D01*
X123896888Y-148550944D01*
X123911625Y-148556813D01*
X123926386Y-148561806D01*
X123941170Y-148565924D01*
X123955977Y-148569168D01*
X123970807Y-148571536D01*
X123985661Y-148573030D01*
X124000538Y-148573649D01*
X124015438Y-148573393D01*
X124030361Y-148572262D01*
X124045308Y-148570256D01*
X124060278Y-148567375D01*
X124075271Y-148563620D01*
X124090287Y-148558989D01*
X124105326Y-148553484D01*
X124120389Y-148547104D01*
X124135475Y-148539849D01*
X124147506Y-148533429D01*
X124158952Y-148526730D01*
X124169815Y-148519749D01*
X124180093Y-148512489D01*
X124189788Y-148504947D01*
X124198898Y-148497125D01*
X124207424Y-148489022D01*
X124215365Y-148480639D01*
X124222723Y-148471975D01*
X124229497Y-148463031D01*
X124235686Y-148453806D01*
X124241292Y-148444300D01*
X124246313Y-148434514D01*
X124250750Y-148424447D01*
X124254603Y-148414100D01*
X124257872Y-148403472D01*
X124259275Y-148397978D01*
X124261652Y-148386295D01*
X124263458Y-148373682D01*
X124264692Y-148360140D01*
X124265353Y-148345668D01*
X124265443Y-148330268D01*
X124264960Y-148313938D01*
X124263906Y-148296679D01*
X124262280Y-148278490D01*
X124260081Y-148259372D01*
X124258768Y-148249465D01*
X124257311Y-148239326D01*
X124255711Y-148228954D01*
X124253969Y-148218349D01*
X124252083Y-148207513D01*
X124250054Y-148196444D01*
X124247883Y-148185143D01*
X124245568Y-148173609D01*
X124243110Y-148161844D01*
X124240510Y-148149845D01*
X124237766Y-148137615D01*
X124234880Y-148125152D01*
X124231850Y-148112457D01*
X124231022Y-148109124D01*
X124228569Y-148099588D01*
X124225886Y-148089455D01*
X124222019Y-148073953D01*
X124218466Y-148058846D01*
X124215228Y-148044133D01*
X124212305Y-148029815D01*
X124209696Y-148015891D01*
X124207401Y-148002361D01*
X124205421Y-147989226D01*
X124203755Y-147976486D01*
X124202404Y-147964139D01*
X124201368Y-147952188D01*
X124200645Y-147940630D01*
X124200238Y-147929468D01*
X124200144Y-147918699D01*
X124200366Y-147908325D01*
X124201751Y-147888760D01*
X124204395Y-147870773D01*
X124208297Y-147854364D01*
X124213456Y-147839533D01*
X124219874Y-147826279D01*
X124227549Y-147814603D01*
X124236482Y-147804504D01*
X124246674Y-147795984D01*
X124258123Y-147789041D01*
X124262558Y-147786855D01*
X124275875Y-147781178D01*
X124289209Y-147776822D01*
X124302562Y-147773786D01*
X124315932Y-147772072D01*
X124329319Y-147771678D01*
X124342725Y-147772606D01*
X124356148Y-147774854D01*
X124369589Y-147778423D01*
X124383047Y-147783313D01*
X124392029Y-147787307D01*
X124401020Y-147791888D01*
X124409900Y-147797005D01*
X124418636Y-147802632D01*
X124427228Y-147808769D01*
X124435674Y-147815417D01*
X124443977Y-147822576D01*
X124452134Y-147830245D01*
X124460147Y-147838425D01*
X124468016Y-147847115D01*
X124475739Y-147856316D01*
X124483319Y-147866028D01*
X124490753Y-147876250D01*
X124498043Y-147886982D01*
X124505188Y-147898225D01*
X124512189Y-147909979D01*
X124519045Y-147922243D01*
X124525757Y-147935018D01*
X124532174Y-147948125D01*
X124538011Y-147961112D01*
X124543267Y-147973980D01*
X124547941Y-147986728D01*
X124552034Y-147999357D01*
X124555546Y-148011867D01*
X124558477Y-148024258D01*
X124560826Y-148036529D01*
X124562594Y-148048681D01*
X124563781Y-148060713D01*
X124564387Y-148072626D01*
X124564412Y-148084420D01*
X124563855Y-148096095D01*
X124562718Y-148107650D01*
X124560999Y-148119086D01*
X124558699Y-148130402D01*
X124555844Y-148141492D01*
X124552461Y-148152247D01*
X124548549Y-148162666D01*
X124544110Y-148172752D01*
X124539142Y-148182502D01*
X124533646Y-148191918D01*
X124527622Y-148200998D01*
X124521070Y-148209745D01*
X124513989Y-148218156D01*
X124506380Y-148226232D01*
X124498243Y-148233974D01*
X124489578Y-148241381D01*
X124480385Y-148248453D01*
X124470663Y-148255190D01*
X124460413Y-148261593D01*
X124449635Y-148267661D01*
X124509512Y-148385177D01*
X124518437Y-148379994D01*
X124527144Y-148374716D01*
X124535633Y-148369342D01*
X124543904Y-148363871D01*
X124559791Y-148352642D01*
X124574805Y-148341029D01*
X124588947Y-148329032D01*
X124602216Y-148316650D01*
X124614613Y-148303884D01*
X124626138Y-148290734D01*
X124636790Y-148277200D01*
X124646569Y-148263281D01*
X124655476Y-148248979D01*
X124663510Y-148234292D01*
X124670672Y-148219221D01*
X124676961Y-148203765D01*
X124682378Y-148187925D01*
X124686923Y-148171702D01*
X124690564Y-148155135D01*
X124693300Y-148138320D01*
X124695130Y-148121259D01*
X124696055Y-148103950D01*
X124696074Y-148086393D01*
X124695187Y-148068589D01*
X124693395Y-148050537D01*
X124690697Y-148032239D01*
X124687094Y-148013692D01*
X124682585Y-147994898D01*
X124679991Y-147985409D01*
X124677171Y-147975857D01*
X124674124Y-147966244D01*
X124670850Y-147956569D01*
X124667351Y-147946832D01*
X124663625Y-147937033D01*
X124659672Y-147927172D01*
X124655493Y-147917249D01*
X124651088Y-147907265D01*
X124646456Y-147897218D01*
X124641598Y-147887110D01*
X124636514Y-147876940D01*
X124631435Y-147867152D01*
X124626276Y-147857567D01*
X124621037Y-147848182D01*
X124615717Y-147839000D01*
X124610317Y-147830019D01*
X124604837Y-147821239D01*
X124599276Y-147812661D01*
X124593635Y-147804285D01*
X124587913Y-147796110D01*
X124582111Y-147788137D01*
X124570266Y-147772795D01*
X124558099Y-147758260D01*
X124545611Y-147744531D01*
X124532801Y-147731608D01*
X124519669Y-147719492D01*
X124506216Y-147708182D01*
X124492441Y-147697678D01*
X124478345Y-147687981D01*
X124463927Y-147679090D01*
X124449188Y-147671005D01*
X124434127Y-147663726D01*
X124418862Y-147657330D01*
X124403566Y-147651864D01*
X124388239Y-147647329D01*
X124372880Y-147643724D01*
X124357490Y-147641049D01*
X124342069Y-147639305D01*
X124326616Y-147638492D01*
X124311132Y-147638608D01*
X124295617Y-147639655D01*
X124280070Y-147641633D01*
X124264492Y-147644541D01*
X124248883Y-147648379D01*
X124233242Y-147653148D01*
X124217570Y-147658847D01*
X124201867Y-147665477D01*
X124186132Y-147673037D01*
X124182900Y-147674707D01*
X124173433Y-147679880D01*
X124164307Y-147685298D01*
X124155523Y-147690962D01*
X124147081Y-147696870D01*
X124138980Y-147703024D01*
X124131222Y-147709423D01*
X124123804Y-147716066D01*
X124116729Y-147722955D01*
X124109995Y-147730089D01*
X124101549Y-147739983D01*
X124093738Y-147750259D01*
X124086592Y-147760864D01*
X124080111Y-147771799D01*
X124074295Y-147783063D01*
X124069143Y-147794657D01*
X124064656Y-147806580D01*
X124060834Y-147818833D01*
X124057676Y-147831415D01*
X124055350Y-147844884D01*
X124054340Y-147854788D01*
X124053762Y-147865430D01*
X124053616Y-147876812D01*
X124053903Y-147888933D01*
X124054622Y-147901793D01*
X124055773Y-147915392D01*
X124057356Y-147929730D01*
X124059372Y-147944808D01*
X124061820Y-147960624D01*
X124064700Y-147977180D01*
X124068013Y-147994475D01*
X124071758Y-148012509D01*
X124075935Y-148031282D01*
X124078186Y-148040946D01*
X124080545Y-148050795D01*
X124083012Y-148060828D01*
X124084079Y-148065613D01*
X124086507Y-148075220D01*
X124087452Y-148079071D01*
X124089933Y-148089226D01*
X124092370Y-148099234D01*
X124095092Y-148110446D01*
X124097578Y-148120709D01*
X124100263Y-148131807D01*
X124104036Y-148147070D01*
X124107486Y-148161952D01*
X124110614Y-148176452D01*
X124113419Y-148190571D01*
X124115903Y-148204309D01*
X124118064Y-148217665D01*
X124119903Y-148230640D01*
X124121419Y-148243234D01*
X124122614Y-148255446D01*
X124123486Y-148267277D01*
X124124035Y-148278726D01*
X124124263Y-148289794D01*
X124124168Y-148300481D01*
X124123751Y-148310787D01*
X124121950Y-148330253D01*
X124118860Y-148348195D01*
X124114481Y-148364611D01*
X124108813Y-148379501D01*
X124101856Y-148392866D01*
X124093610Y-148404706D01*
X124084074Y-148415020D01*
X124073250Y-148423808D01*
X124061136Y-148431072D01*
X124053158Y-148434874D01*
X124041160Y-148439604D01*
X124029127Y-148443166D01*
X124017059Y-148445562D01*
X124004954Y-148446791D01*
X123992814Y-148446852D01*
X123980638Y-148445746D01*
X123968426Y-148443474D01*
X123956179Y-148440034D01*
X123943895Y-148435426D01*
X123931576Y-148429652D01*
X123927477Y-148427465D01*
X123915417Y-148420256D01*
X123903715Y-148412075D01*
X123892370Y-148402921D01*
X123885005Y-148396279D01*
X123877799Y-148389204D01*
X123870752Y-148381697D01*
X123863864Y-148373758D01*
X123857135Y-148365386D01*
X123850565Y-148356583D01*
X123844153Y-148347347D01*
X123837900Y-148337680D01*
X123831807Y-148327580D01*
X123825872Y-148317048D01*
X123820096Y-148306083D01*
X123814275Y-148294206D01*
X123808983Y-148282458D01*
X123804219Y-148270838D01*
X123799984Y-148259348D01*
X123796276Y-148247987D01*
X123793098Y-148236755D01*
X123790447Y-148225653D01*
X123788325Y-148214679D01*
X123786732Y-148203835D01*
X123785666Y-148193119D01*
X123785129Y-148182533D01*
X123785121Y-148172076D01*
X123785641Y-148161748D01*
X123786689Y-148151549D01*
X123788265Y-148141479D01*
X123790370Y-148131538D01*
X123792957Y-148121759D01*
X123796061Y-148112200D01*
X123799681Y-148102862D01*
X123803819Y-148093744D01*
X123808474Y-148084847D01*
X123813646Y-148076170D01*
X123819336Y-148067714D01*
X123825542Y-148059478D01*
X123832266Y-148051463D01*
X123839506Y-148043669D01*
X123847264Y-148036094D01*
X123855539Y-148028741D01*
X123864331Y-148021608D01*
X123873640Y-148014695D01*
X123883466Y-148008003D01*
X123893809Y-148001532D01*
X123833833Y-147885436D01*
X123817282Y-147894489D01*
X123801518Y-147903966D01*
X123786543Y-147913868D01*
X123772357Y-147924196D01*
X123758959Y-147934948D01*
X123746349Y-147946125D01*
X123734527Y-147957727D01*
X123723494Y-147969754D01*
X123713249Y-147982207D01*
X123703792Y-147995084D01*
X123695124Y-148008386D01*
X123687244Y-148022113D01*
X123680152Y-148036265D01*
X123673849Y-148050842D01*
X123668334Y-148065844D01*
X123663607Y-148081271D01*
X123661542Y-148089100D01*
X123658060Y-148104899D01*
X123655442Y-148120886D01*
X123653688Y-148137060D01*
X123652799Y-148153420D01*
X123652773Y-148169968D01*
X123281711Y-148169968D01*
X123134152Y-147880367D01*
X124589190Y-147138989D01*
X126070053Y-150045348D01*
G37*
D10*
%TO.C,J3*%
X133501961Y-138749874D02*
X133961095Y-139297049D01*
X133961095Y-139297049D02*
X134016444Y-139437093D01*
X134016444Y-139437093D02*
X134004705Y-139571267D01*
X134004705Y-139571267D02*
X133925879Y-139699572D01*
X133925879Y-139699572D02*
X133852923Y-139760790D01*
X133793788Y-138505003D02*
X134268006Y-138107087D01*
X134268006Y-138107087D02*
X134257529Y-138613176D01*
X134257529Y-138613176D02*
X134366964Y-138521349D01*
X134366964Y-138521349D02*
X134470530Y-138496609D01*
X134470530Y-138496609D02*
X134537617Y-138502479D01*
X134537617Y-138502479D02*
X134635313Y-138544826D01*
X134635313Y-138544826D02*
X134788358Y-138727218D01*
X134788358Y-138727218D02*
X134813097Y-138830783D01*
X134813097Y-138830783D02*
X134807228Y-138897871D01*
X134807228Y-138897871D02*
X134764880Y-138995567D01*
X134764880Y-138995567D02*
X134546011Y-139179220D01*
X134546011Y-139179220D02*
X134442445Y-139203960D01*
X134442445Y-139203960D02*
X134375358Y-139198091D01*
D12*
G36*
X137057280Y-142233853D02*
G01*
X137069321Y-142235943D01*
X137077355Y-142238109D01*
X137089664Y-142242562D01*
X137102282Y-142248459D01*
X137110866Y-142253193D01*
X137119587Y-142258569D01*
X137128446Y-142264586D01*
X137137443Y-142271245D01*
X137146577Y-142278546D01*
X137155848Y-142286489D01*
X137165257Y-142295074D01*
X137174804Y-142304300D01*
X137184488Y-142314168D01*
X137194310Y-142324679D01*
X137204269Y-142335831D01*
X137214366Y-142347625D01*
X137364611Y-142526680D01*
X137113148Y-142737683D01*
X136962902Y-142558628D01*
X136957653Y-142552318D01*
X136947630Y-142539939D01*
X136938240Y-142527881D01*
X136929482Y-142516144D01*
X136921358Y-142504728D01*
X136913866Y-142493633D01*
X136907007Y-142482859D01*
X136900781Y-142472405D01*
X136895188Y-142462272D01*
X136890228Y-142452460D01*
X136885901Y-142442969D01*
X136882206Y-142433799D01*
X136877851Y-142420645D01*
X136874920Y-142408213D01*
X136873414Y-142396503D01*
X136873117Y-142388953D01*
X136873706Y-142377704D01*
X136875536Y-142366545D01*
X136878608Y-142355476D01*
X136882922Y-142344498D01*
X136888477Y-142333610D01*
X136895274Y-142322812D01*
X136903312Y-142312105D01*
X136912592Y-142301488D01*
X136919469Y-142294460D01*
X136926897Y-142287472D01*
X136934877Y-142280524D01*
X136943668Y-142273414D01*
X136952407Y-142266881D01*
X136961095Y-142260923D01*
X136969731Y-142255543D01*
X136982587Y-142248553D01*
X136995328Y-142242860D01*
X137007951Y-142238464D01*
X137020458Y-142235366D01*
X137032849Y-142233564D01*
X137045123Y-142233060D01*
X137057280Y-142233853D01*
G37*
G36*
X138945062Y-143079123D02*
G01*
X137694090Y-144128812D01*
X136819062Y-143085994D01*
X137242171Y-143085994D01*
X137330559Y-143191331D01*
X137641895Y-142930090D01*
X137977553Y-143330111D01*
X137666217Y-143591353D01*
X137754135Y-143696130D01*
X138520501Y-143053073D01*
X138432583Y-142948296D01*
X138073349Y-143249729D01*
X137737691Y-142849707D01*
X138096925Y-142548275D01*
X138008536Y-142442937D01*
X137242171Y-143085994D01*
X136819062Y-143085994D01*
X136224943Y-142377951D01*
X136733262Y-142377951D01*
X136733427Y-142388953D01*
X136733457Y-142390919D01*
X136734368Y-142403992D01*
X136735995Y-142417170D01*
X136738339Y-142430454D01*
X136740609Y-142440301D01*
X136743333Y-142450156D01*
X136746512Y-142460018D01*
X136750145Y-142469887D01*
X136754233Y-142479764D01*
X136758775Y-142489648D01*
X136763771Y-142499539D01*
X136769222Y-142509437D01*
X136775419Y-142519850D01*
X136780861Y-142528341D01*
X136786982Y-142537415D01*
X136793785Y-142547073D01*
X136801267Y-142557315D01*
X136809430Y-142568141D01*
X136818273Y-142579550D01*
X136824546Y-142587481D01*
X136831122Y-142595670D01*
X136838000Y-142604120D01*
X136845180Y-142612828D01*
X136852663Y-142621796D01*
X137103543Y-142920784D01*
X137869908Y-142277727D01*
X137782932Y-142174073D01*
X137459622Y-142445362D01*
X137317226Y-142275662D01*
X137311498Y-142268790D01*
X137300583Y-142255423D01*
X137290391Y-142242559D01*
X137280922Y-142230196D01*
X137272175Y-142218335D01*
X137264151Y-142206977D01*
X137256850Y-142196120D01*
X137250271Y-142185766D01*
X137244415Y-142175914D01*
X137239282Y-142166563D01*
X137232937Y-142153479D01*
X137228218Y-142141525D01*
X137225126Y-142130700D01*
X137223531Y-142118024D01*
X137223990Y-142109070D01*
X137226580Y-142096527D01*
X137230006Y-142086667D01*
X137234703Y-142076417D01*
X137240671Y-142065780D01*
X137247910Y-142054754D01*
X137256421Y-142043339D01*
X137262801Y-142035513D01*
X137269746Y-142027515D01*
X137277256Y-142019344D01*
X137285331Y-142011000D01*
X137293971Y-142002484D01*
X137387048Y-141913542D01*
X137390042Y-141911030D01*
X137394519Y-141906641D01*
X137403114Y-141898076D01*
X137411231Y-141889796D01*
X137418869Y-141881800D01*
X137426029Y-141874088D01*
X137435871Y-141863055D01*
X137444636Y-141852661D01*
X137452324Y-141842908D01*
X137458936Y-141833795D01*
X137464470Y-141825322D01*
X137470174Y-141815021D01*
X137473963Y-141805858D01*
X137372544Y-141684991D01*
X137351589Y-141702575D01*
X137352837Y-141709853D01*
X137353082Y-141720153D01*
X137351573Y-141730582D01*
X137348311Y-141741139D01*
X137344120Y-141750290D01*
X137338344Y-141759953D01*
X137332201Y-141768625D01*
X137324848Y-141777860D01*
X137318096Y-141785653D01*
X137310570Y-141793806D01*
X137302270Y-141802320D01*
X137293197Y-141811194D01*
X137176310Y-141924577D01*
X137167985Y-141932655D01*
X137160083Y-141940570D01*
X137152604Y-141948321D01*
X137145549Y-141955909D01*
X137138917Y-141963333D01*
X137129763Y-141974164D01*
X137121561Y-141984626D01*
X137114312Y-141994721D01*
X137108015Y-142004448D01*
X137102670Y-142013807D01*
X137098279Y-142022799D01*
X137093905Y-142034216D01*
X137090946Y-142045521D01*
X137089219Y-142057178D01*
X137088724Y-142069186D01*
X137089460Y-142081546D01*
X137091428Y-142094257D01*
X137093712Y-142104022D01*
X137096689Y-142113984D01*
X137100359Y-142124143D01*
X137104721Y-142134501D01*
X137096046Y-142130677D01*
X137083081Y-142125559D01*
X137070173Y-142121185D01*
X137057322Y-142117552D01*
X137044527Y-142114662D01*
X137031790Y-142112515D01*
X137019110Y-142111110D01*
X137006486Y-142110447D01*
X136993920Y-142110527D01*
X136981410Y-142111350D01*
X136968957Y-142112915D01*
X136964799Y-142113599D01*
X136952379Y-142116140D01*
X136940041Y-142119413D01*
X136927785Y-142123419D01*
X136915612Y-142128157D01*
X136903520Y-142133628D01*
X136891511Y-142139831D01*
X136879584Y-142146767D01*
X136867739Y-142154435D01*
X136855976Y-142162836D01*
X136848180Y-142168843D01*
X136840421Y-142175176D01*
X136832548Y-142181951D01*
X136824974Y-142188815D01*
X136817698Y-142195767D01*
X136810720Y-142202808D01*
X136800813Y-142213535D01*
X136791577Y-142224460D01*
X136783013Y-142235585D01*
X136775120Y-142246908D01*
X136767898Y-142258431D01*
X136761347Y-142270152D01*
X136755468Y-142282072D01*
X136750260Y-142294192D01*
X136747128Y-142302357D01*
X136743027Y-142314693D01*
X136739642Y-142327134D01*
X136736973Y-142339680D01*
X136735019Y-142352332D01*
X136733783Y-142365089D01*
X136733262Y-142377951D01*
X136224943Y-142377951D01*
X135668502Y-141714811D01*
X136158221Y-141714811D01*
X136158382Y-141730988D01*
X136159427Y-141747154D01*
X136161357Y-141763308D01*
X136164170Y-141779449D01*
X136167868Y-141795579D01*
X136172450Y-141811696D01*
X136177916Y-141827802D01*
X136184266Y-141843895D01*
X136191500Y-141859977D01*
X136199618Y-141876046D01*
X136208621Y-141892104D01*
X136218508Y-141908149D01*
X136229278Y-141924182D01*
X136234995Y-141932194D01*
X136240933Y-141940203D01*
X136247092Y-141948209D01*
X136253472Y-141956212D01*
X136260073Y-141964212D01*
X136266659Y-141971935D01*
X136273285Y-141979458D01*
X136279954Y-141986780D01*
X136286664Y-141993901D01*
X136300208Y-142007542D01*
X136313919Y-142020380D01*
X136327797Y-142032417D01*
X136341840Y-142043651D01*
X136356050Y-142054084D01*
X136370427Y-142063714D01*
X136384970Y-142072542D01*
X136399679Y-142080568D01*
X136414554Y-142087791D01*
X136429596Y-142094213D01*
X136444804Y-142099832D01*
X136460178Y-142104649D01*
X136475719Y-142108664D01*
X136491426Y-142111877D01*
X136507106Y-142114279D01*
X136522612Y-142115824D01*
X136537943Y-142116511D01*
X136553101Y-142116341D01*
X136568084Y-142115313D01*
X136582893Y-142113427D01*
X136597528Y-142110683D01*
X136611988Y-142107082D01*
X136626275Y-142102623D01*
X136640387Y-142097306D01*
X136654325Y-142091132D01*
X136668089Y-142084100D01*
X136681679Y-142076210D01*
X136695094Y-142067463D01*
X136708336Y-142057858D01*
X136721403Y-142047395D01*
X136731681Y-142038434D01*
X136741327Y-142029331D01*
X136750341Y-142020086D01*
X136758723Y-142010699D01*
X136766472Y-142001170D01*
X136773589Y-141991499D01*
X136780074Y-141981686D01*
X136785926Y-141971732D01*
X136791147Y-141961635D01*
X136795735Y-141951396D01*
X136799690Y-141941015D01*
X136803014Y-141930492D01*
X136805705Y-141919827D01*
X136807764Y-141909020D01*
X136809190Y-141898071D01*
X136809984Y-141886980D01*
X136810116Y-141881312D01*
X136809804Y-141869393D01*
X136808726Y-141856697D01*
X136806882Y-141843225D01*
X136804271Y-141828975D01*
X136800894Y-141813949D01*
X136796751Y-141798146D01*
X136791841Y-141781567D01*
X136786165Y-141764210D01*
X136779722Y-141746077D01*
X136776213Y-141736719D01*
X136772513Y-141727167D01*
X136768621Y-141717421D01*
X136764538Y-141707480D01*
X136760263Y-141697346D01*
X136755796Y-141687017D01*
X136751138Y-141676494D01*
X136746288Y-141665777D01*
X136741247Y-141654865D01*
X136736014Y-141643760D01*
X136730589Y-141632460D01*
X136724973Y-141620966D01*
X136719165Y-141609278D01*
X136717609Y-141606216D01*
X136713074Y-141597476D01*
X136708180Y-141588206D01*
X136700925Y-141573972D01*
X136694065Y-141560051D01*
X136687600Y-141546444D01*
X136681531Y-141533150D01*
X136675857Y-141520170D01*
X136670577Y-141507503D01*
X136665693Y-141495151D01*
X136661204Y-141483111D01*
X136657110Y-141471385D01*
X136653412Y-141459973D01*
X136650108Y-141448875D01*
X136647200Y-141438089D01*
X136644686Y-141427618D01*
X136642568Y-141417460D01*
X136639518Y-141398085D01*
X136638047Y-141379964D01*
X136638158Y-141363098D01*
X136639849Y-141347486D01*
X136643120Y-141333128D01*
X136647972Y-141320025D01*
X136654405Y-141308176D01*
X136662418Y-141297581D01*
X136672012Y-141288240D01*
X136675842Y-141285113D01*
X136687540Y-141276586D01*
X136699553Y-141269342D01*
X136711880Y-141263380D01*
X136724522Y-141258702D01*
X136737478Y-141255307D01*
X136750749Y-141253196D01*
X136764334Y-141252367D01*
X136778233Y-141252821D01*
X136792446Y-141254558D01*
X136802097Y-141256429D01*
X136811887Y-141258870D01*
X136821691Y-141261858D01*
X136831469Y-141265375D01*
X136841221Y-141269423D01*
X136850947Y-141274000D01*
X136860646Y-141279108D01*
X136870320Y-141284746D01*
X136879968Y-141290913D01*
X136889589Y-141297611D01*
X136899185Y-141304838D01*
X136908754Y-141312596D01*
X136918298Y-141320884D01*
X136927815Y-141329701D01*
X136937307Y-141339049D01*
X136946772Y-141348927D01*
X136956211Y-141359334D01*
X136965624Y-141370272D01*
X136974826Y-141381599D01*
X136983435Y-141392940D01*
X136991450Y-141404296D01*
X136998872Y-141415666D01*
X137005701Y-141427051D01*
X137011937Y-141438450D01*
X137017580Y-141449864D01*
X137022630Y-141461292D01*
X137027086Y-141472735D01*
X137030950Y-141484192D01*
X137034220Y-141495663D01*
X137036897Y-141507149D01*
X137038981Y-141518650D01*
X137040472Y-141530165D01*
X137041369Y-141541694D01*
X137041674Y-141553238D01*
X137041387Y-141564686D01*
X137040510Y-141575926D01*
X137039043Y-141586958D01*
X137036986Y-141597784D01*
X137034339Y-141608402D01*
X137031102Y-141618812D01*
X137027275Y-141629016D01*
X137022858Y-141639011D01*
X137017851Y-141648800D01*
X137012254Y-141658381D01*
X137006067Y-141667755D01*
X136999290Y-141676921D01*
X136991923Y-141685880D01*
X136983966Y-141694632D01*
X136975419Y-141703176D01*
X136966282Y-141711513D01*
X137051060Y-141812547D01*
X137058590Y-141805490D01*
X137065887Y-141798388D01*
X137072949Y-141791242D01*
X137079777Y-141784052D01*
X137092731Y-141769537D01*
X137104748Y-141754844D01*
X137115829Y-141739972D01*
X137125973Y-141724923D01*
X137135180Y-141709696D01*
X137143451Y-141694290D01*
X137150786Y-141678707D01*
X137157183Y-141662945D01*
X137162645Y-141647005D01*
X137167169Y-141630887D01*
X137170757Y-141614591D01*
X137173409Y-141598117D01*
X137175124Y-141581465D01*
X137175902Y-141564635D01*
X137175723Y-141547673D01*
X137174607Y-141530675D01*
X137172552Y-141513638D01*
X137169559Y-141496565D01*
X137165628Y-141479454D01*
X137160759Y-141462306D01*
X137154953Y-141445120D01*
X137148208Y-141427897D01*
X137140525Y-141410637D01*
X137131903Y-141393339D01*
X137127241Y-141384676D01*
X137122344Y-141376004D01*
X137117213Y-141367322D01*
X137111847Y-141358631D01*
X137106247Y-141349931D01*
X137100412Y-141341221D01*
X137094343Y-141332502D01*
X137088039Y-141323774D01*
X137081500Y-141315036D01*
X137074727Y-141306289D01*
X137067720Y-141297533D01*
X137060478Y-141288767D01*
X137053328Y-141280373D01*
X137046145Y-141272193D01*
X137038929Y-141264228D01*
X137031680Y-141256478D01*
X137024398Y-141248941D01*
X137017083Y-141241620D01*
X137009735Y-141234513D01*
X137002354Y-141227620D01*
X136994940Y-141220942D01*
X136987493Y-141214478D01*
X136972501Y-141202194D01*
X136957376Y-141190768D01*
X136942119Y-141180201D01*
X136926731Y-141170491D01*
X136911210Y-141161639D01*
X136895558Y-141153645D01*
X136879773Y-141146509D01*
X136863857Y-141140231D01*
X136847808Y-141134811D01*
X136831628Y-141130249D01*
X136815316Y-141126546D01*
X136799004Y-141123747D01*
X136782870Y-141121862D01*
X136766915Y-141120891D01*
X136751139Y-141120833D01*
X136735542Y-141121689D01*
X136720124Y-141123459D01*
X136704884Y-141126142D01*
X136689823Y-141129739D01*
X136674941Y-141134249D01*
X136660238Y-141139674D01*
X136645713Y-141146011D01*
X136631367Y-141153263D01*
X136617200Y-141161428D01*
X136603212Y-141170506D01*
X136589402Y-141180498D01*
X136575771Y-141191404D01*
X136572998Y-141193758D01*
X136564937Y-141200929D01*
X136557264Y-141208261D01*
X136549979Y-141215755D01*
X136543082Y-141223411D01*
X136536574Y-141231229D01*
X136530453Y-141239209D01*
X136524721Y-141247351D01*
X136519376Y-141255655D01*
X136514420Y-141264121D01*
X136508415Y-141275661D01*
X136503117Y-141287431D01*
X136498539Y-141299372D01*
X136494684Y-141311484D01*
X136491551Y-141323768D01*
X136489139Y-141336224D01*
X136487449Y-141348851D01*
X136486481Y-141361649D01*
X136486235Y-141374619D01*
X136486999Y-141388267D01*
X136488242Y-141398143D01*
X136490073Y-141408643D01*
X136492491Y-141419766D01*
X136495497Y-141431512D01*
X136499090Y-141443880D01*
X136503271Y-141456872D01*
X136508039Y-141470487D01*
X136513395Y-141484724D01*
X136519339Y-141499585D01*
X136525869Y-141515068D01*
X136532988Y-141531175D01*
X136540693Y-141547904D01*
X136548987Y-141565257D01*
X136553354Y-141574166D01*
X136557867Y-141583232D01*
X136562528Y-141592453D01*
X136564644Y-141596875D01*
X136569171Y-141605690D01*
X136570958Y-141609230D01*
X136575660Y-141618566D01*
X136580286Y-141627770D01*
X136585460Y-141638082D01*
X136590191Y-141647522D01*
X136595304Y-141657732D01*
X136602413Y-141671756D01*
X136609123Y-141685480D01*
X136615432Y-141698905D01*
X136621342Y-141712031D01*
X136626852Y-141724858D01*
X136631962Y-141737386D01*
X136636673Y-141749614D01*
X136640984Y-141761544D01*
X136644894Y-141773175D01*
X136648405Y-141784506D01*
X136651517Y-141795538D01*
X136654228Y-141806272D01*
X136656540Y-141816706D01*
X136658452Y-141826841D01*
X136661076Y-141846214D01*
X136662101Y-141864391D01*
X136661527Y-141881371D01*
X136659354Y-141897155D01*
X136655581Y-141911742D01*
X136650210Y-141925133D01*
X136643239Y-141937328D01*
X136634669Y-141948327D01*
X136624500Y-141958129D01*
X136617581Y-141963628D01*
X136606955Y-141970935D01*
X136596032Y-141977114D01*
X136584812Y-141982163D01*
X136573294Y-141986083D01*
X136561478Y-141988874D01*
X136549366Y-141990535D01*
X136536956Y-141991068D01*
X136524248Y-141990471D01*
X136511243Y-141988745D01*
X136497941Y-141985890D01*
X136493455Y-141984681D01*
X136480083Y-141980370D01*
X136466840Y-141975031D01*
X136453727Y-141968664D01*
X136445056Y-141963848D01*
X136436444Y-141958576D01*
X136427889Y-141952846D01*
X136419391Y-141946660D01*
X136410951Y-141940017D01*
X136402569Y-141932917D01*
X136394244Y-141925361D01*
X136385977Y-141917347D01*
X136377767Y-141908877D01*
X136369615Y-141899950D01*
X136361521Y-141890566D01*
X136353178Y-141880302D01*
X136345378Y-141870046D01*
X136338123Y-141859796D01*
X136331411Y-141849553D01*
X136325243Y-141839317D01*
X136319619Y-141829088D01*
X136314539Y-141818866D01*
X136310003Y-141808651D01*
X136306011Y-141798443D01*
X136302563Y-141788242D01*
X136299658Y-141778048D01*
X136297297Y-141767860D01*
X136295481Y-141757680D01*
X136294208Y-141747507D01*
X136293478Y-141737340D01*
X136293293Y-141727181D01*
X136293614Y-141717071D01*
X136294488Y-141707059D01*
X136295915Y-141697145D01*
X136297896Y-141687330D01*
X136300430Y-141677614D01*
X136303518Y-141667996D01*
X136307159Y-141658477D01*
X136311354Y-141649056D01*
X136316102Y-141639734D01*
X136321403Y-141630510D01*
X136327258Y-141621385D01*
X136333667Y-141612359D01*
X136340629Y-141603431D01*
X136348144Y-141594601D01*
X136356213Y-141585870D01*
X136364836Y-141577238D01*
X136280281Y-141477610D01*
X136266190Y-141490154D01*
X136252963Y-141502934D01*
X136240599Y-141515951D01*
X136229100Y-141529205D01*
X136218463Y-141542696D01*
X136208691Y-141556423D01*
X136199782Y-141570387D01*
X136191737Y-141584588D01*
X136184556Y-141599025D01*
X136178239Y-141613700D01*
X136172785Y-141628611D01*
X136168195Y-141643759D01*
X136164468Y-141659143D01*
X136161606Y-141674765D01*
X136159607Y-141690623D01*
X136158472Y-141706717D01*
X136158221Y-141714811D01*
X135668502Y-141714811D01*
X135597392Y-141630065D01*
X136848364Y-140580375D01*
X138945062Y-143079123D01*
G37*
D10*
%TO.C,C2*%
X134289333Y-44523380D02*
X134241714Y-44571000D01*
X134241714Y-44571000D02*
X134098857Y-44618619D01*
X134098857Y-44618619D02*
X134003619Y-44618619D01*
X134003619Y-44618619D02*
X133860762Y-44571000D01*
X133860762Y-44571000D02*
X133765524Y-44475761D01*
X133765524Y-44475761D02*
X133717905Y-44380523D01*
X133717905Y-44380523D02*
X133670286Y-44190047D01*
X133670286Y-44190047D02*
X133670286Y-44047190D01*
X133670286Y-44047190D02*
X133717905Y-43856714D01*
X133717905Y-43856714D02*
X133765524Y-43761476D01*
X133765524Y-43761476D02*
X133860762Y-43666238D01*
X133860762Y-43666238D02*
X134003619Y-43618619D01*
X134003619Y-43618619D02*
X134098857Y-43618619D01*
X134098857Y-43618619D02*
X134241714Y-43666238D01*
X134241714Y-43666238D02*
X134289333Y-43713857D01*
X134670286Y-43713857D02*
X134717905Y-43666238D01*
X134717905Y-43666238D02*
X134813143Y-43618619D01*
X134813143Y-43618619D02*
X135051238Y-43618619D01*
X135051238Y-43618619D02*
X135146476Y-43666238D01*
X135146476Y-43666238D02*
X135194095Y-43713857D01*
X135194095Y-43713857D02*
X135241714Y-43809095D01*
X135241714Y-43809095D02*
X135241714Y-43904333D01*
X135241714Y-43904333D02*
X135194095Y-44047190D01*
X135194095Y-44047190D02*
X134622667Y-44618619D01*
X134622667Y-44618619D02*
X135241714Y-44618619D01*
%TO.C,D3*%
X143511905Y-58374619D02*
X143511905Y-57374619D01*
X143511905Y-57374619D02*
X143750000Y-57374619D01*
X143750000Y-57374619D02*
X143892857Y-57422238D01*
X143892857Y-57422238D02*
X143988095Y-57517476D01*
X143988095Y-57517476D02*
X144035714Y-57612714D01*
X144035714Y-57612714D02*
X144083333Y-57803190D01*
X144083333Y-57803190D02*
X144083333Y-57946047D01*
X144083333Y-57946047D02*
X144035714Y-58136523D01*
X144035714Y-58136523D02*
X143988095Y-58231761D01*
X143988095Y-58231761D02*
X143892857Y-58327000D01*
X143892857Y-58327000D02*
X143750000Y-58374619D01*
X143750000Y-58374619D02*
X143511905Y-58374619D01*
X144416667Y-57374619D02*
X145035714Y-57374619D01*
X145035714Y-57374619D02*
X144702381Y-57755571D01*
X144702381Y-57755571D02*
X144845238Y-57755571D01*
X144845238Y-57755571D02*
X144940476Y-57803190D01*
X144940476Y-57803190D02*
X144988095Y-57850809D01*
X144988095Y-57850809D02*
X145035714Y-57946047D01*
X145035714Y-57946047D02*
X145035714Y-58184142D01*
X145035714Y-58184142D02*
X144988095Y-58279380D01*
X144988095Y-58279380D02*
X144940476Y-58327000D01*
X144940476Y-58327000D02*
X144845238Y-58374619D01*
X144845238Y-58374619D02*
X144559524Y-58374619D01*
X144559524Y-58374619D02*
X144464286Y-58327000D01*
X144464286Y-58327000D02*
X144416667Y-58279380D01*
%TO.C,D1*%
X149103905Y-57262619D02*
X149103905Y-56262619D01*
X149103905Y-56262619D02*
X149342000Y-56262619D01*
X149342000Y-56262619D02*
X149484857Y-56310238D01*
X149484857Y-56310238D02*
X149580095Y-56405476D01*
X149580095Y-56405476D02*
X149627714Y-56500714D01*
X149627714Y-56500714D02*
X149675333Y-56691190D01*
X149675333Y-56691190D02*
X149675333Y-56834047D01*
X149675333Y-56834047D02*
X149627714Y-57024523D01*
X149627714Y-57024523D02*
X149580095Y-57119761D01*
X149580095Y-57119761D02*
X149484857Y-57215000D01*
X149484857Y-57215000D02*
X149342000Y-57262619D01*
X149342000Y-57262619D02*
X149103905Y-57262619D01*
X150627714Y-57262619D02*
X150056286Y-57262619D01*
X150342000Y-57262619D02*
X150342000Y-56262619D01*
X150342000Y-56262619D02*
X150246762Y-56405476D01*
X150246762Y-56405476D02*
X150151524Y-56500714D01*
X150151524Y-56500714D02*
X150056286Y-56548333D01*
%TO.C,H3*%
X103412619Y-131911904D02*
X102412619Y-131911904D01*
X102888809Y-131911904D02*
X102888809Y-131340476D01*
X103412619Y-131340476D02*
X102412619Y-131340476D01*
X102412619Y-130959523D02*
X102412619Y-130340476D01*
X102412619Y-130340476D02*
X102793571Y-130673809D01*
X102793571Y-130673809D02*
X102793571Y-130530952D01*
X102793571Y-130530952D02*
X102841190Y-130435714D01*
X102841190Y-130435714D02*
X102888809Y-130388095D01*
X102888809Y-130388095D02*
X102984047Y-130340476D01*
X102984047Y-130340476D02*
X103222142Y-130340476D01*
X103222142Y-130340476D02*
X103317380Y-130388095D01*
X103317380Y-130388095D02*
X103365000Y-130435714D01*
X103365000Y-130435714D02*
X103412619Y-130530952D01*
X103412619Y-130530952D02*
X103412619Y-130816666D01*
X103412619Y-130816666D02*
X103365000Y-130911904D01*
X103365000Y-130911904D02*
X103317380Y-130959523D01*
%TO.C,R4*%
X141147333Y-52922619D02*
X140814000Y-52446428D01*
X140575905Y-52922619D02*
X140575905Y-51922619D01*
X140575905Y-51922619D02*
X140956857Y-51922619D01*
X140956857Y-51922619D02*
X141052095Y-51970238D01*
X141052095Y-51970238D02*
X141099714Y-52017857D01*
X141099714Y-52017857D02*
X141147333Y-52113095D01*
X141147333Y-52113095D02*
X141147333Y-52255952D01*
X141147333Y-52255952D02*
X141099714Y-52351190D01*
X141099714Y-52351190D02*
X141052095Y-52398809D01*
X141052095Y-52398809D02*
X140956857Y-52446428D01*
X140956857Y-52446428D02*
X140575905Y-52446428D01*
X142004476Y-52255952D02*
X142004476Y-52922619D01*
X141766381Y-51875000D02*
X141528286Y-52589285D01*
X141528286Y-52589285D02*
X142147333Y-52589285D01*
%TO.C,R2*%
X138353333Y-44270619D02*
X138020000Y-43794428D01*
X137781905Y-44270619D02*
X137781905Y-43270619D01*
X137781905Y-43270619D02*
X138162857Y-43270619D01*
X138162857Y-43270619D02*
X138258095Y-43318238D01*
X138258095Y-43318238D02*
X138305714Y-43365857D01*
X138305714Y-43365857D02*
X138353333Y-43461095D01*
X138353333Y-43461095D02*
X138353333Y-43603952D01*
X138353333Y-43603952D02*
X138305714Y-43699190D01*
X138305714Y-43699190D02*
X138258095Y-43746809D01*
X138258095Y-43746809D02*
X138162857Y-43794428D01*
X138162857Y-43794428D02*
X137781905Y-43794428D01*
X138734286Y-43365857D02*
X138781905Y-43318238D01*
X138781905Y-43318238D02*
X138877143Y-43270619D01*
X138877143Y-43270619D02*
X139115238Y-43270619D01*
X139115238Y-43270619D02*
X139210476Y-43318238D01*
X139210476Y-43318238D02*
X139258095Y-43365857D01*
X139258095Y-43365857D02*
X139305714Y-43461095D01*
X139305714Y-43461095D02*
X139305714Y-43556333D01*
X139305714Y-43556333D02*
X139258095Y-43699190D01*
X139258095Y-43699190D02*
X138686667Y-44270619D01*
X138686667Y-44270619D02*
X139305714Y-44270619D01*
%TO.C,U2*%
X153312619Y-119121904D02*
X154122142Y-119121904D01*
X154122142Y-119121904D02*
X154217380Y-119074285D01*
X154217380Y-119074285D02*
X154265000Y-119026666D01*
X154265000Y-119026666D02*
X154312619Y-118931428D01*
X154312619Y-118931428D02*
X154312619Y-118740952D01*
X154312619Y-118740952D02*
X154265000Y-118645714D01*
X154265000Y-118645714D02*
X154217380Y-118598095D01*
X154217380Y-118598095D02*
X154122142Y-118550476D01*
X154122142Y-118550476D02*
X153312619Y-118550476D01*
X153407857Y-118121904D02*
X153360238Y-118074285D01*
X153360238Y-118074285D02*
X153312619Y-117979047D01*
X153312619Y-117979047D02*
X153312619Y-117740952D01*
X153312619Y-117740952D02*
X153360238Y-117645714D01*
X153360238Y-117645714D02*
X153407857Y-117598095D01*
X153407857Y-117598095D02*
X153503095Y-117550476D01*
X153503095Y-117550476D02*
X153598333Y-117550476D01*
X153598333Y-117550476D02*
X153741190Y-117598095D01*
X153741190Y-117598095D02*
X154312619Y-118169523D01*
X154312619Y-118169523D02*
X154312619Y-117550476D01*
D13*
%TO.C,J5*%
X126398714Y-123217118D02*
X126398714Y-124033547D01*
X126398714Y-124033547D02*
X126344285Y-124196832D01*
X126344285Y-124196832D02*
X126235428Y-124305690D01*
X126235428Y-124305690D02*
X126072142Y-124360118D01*
X126072142Y-124360118D02*
X125963285Y-124360118D01*
X127487285Y-123217118D02*
X126942999Y-123217118D01*
X126942999Y-123217118D02*
X126888571Y-123761404D01*
X126888571Y-123761404D02*
X126942999Y-123706975D01*
X126942999Y-123706975D02*
X127051857Y-123652547D01*
X127051857Y-123652547D02*
X127323999Y-123652547D01*
X127323999Y-123652547D02*
X127432857Y-123706975D01*
X127432857Y-123706975D02*
X127487285Y-123761404D01*
X127487285Y-123761404D02*
X127541714Y-123870261D01*
X127541714Y-123870261D02*
X127541714Y-124142404D01*
X127541714Y-124142404D02*
X127487285Y-124251261D01*
X127487285Y-124251261D02*
X127432857Y-124305690D01*
X127432857Y-124305690D02*
X127323999Y-124360118D01*
X127323999Y-124360118D02*
X127051857Y-124360118D01*
X127051857Y-124360118D02*
X126942999Y-124305690D01*
X126942999Y-124305690D02*
X126888571Y-124251261D01*
D14*
X117975167Y-132453608D02*
X117441041Y-132453608D01*
X117708104Y-132453608D02*
X117708104Y-131518888D01*
X117708104Y-131518888D02*
X117619083Y-131652419D01*
X117619083Y-131652419D02*
X117530062Y-131741440D01*
X117530062Y-131741440D02*
X117441041Y-131785951D01*
X119790541Y-131607909D02*
X119835052Y-131563398D01*
X119835052Y-131563398D02*
X119924073Y-131518888D01*
X119924073Y-131518888D02*
X120146625Y-131518888D01*
X120146625Y-131518888D02*
X120235646Y-131563398D01*
X120235646Y-131563398D02*
X120280157Y-131607909D01*
X120280157Y-131607909D02*
X120324667Y-131696930D01*
X120324667Y-131696930D02*
X120324667Y-131785951D01*
X120324667Y-131785951D02*
X120280157Y-131919482D01*
X120280157Y-131919482D02*
X119746031Y-132453608D01*
X119746031Y-132453608D02*
X120324667Y-132453608D01*
X124490146Y-131830461D02*
X124490146Y-132453608D01*
X124267594Y-131474378D02*
X124045041Y-132142035D01*
X124045041Y-132142035D02*
X124623678Y-132142035D01*
X121968531Y-131487188D02*
X122547167Y-131487188D01*
X122547167Y-131487188D02*
X122235594Y-131843272D01*
X122235594Y-131843272D02*
X122369125Y-131843272D01*
X122369125Y-131843272D02*
X122458146Y-131887782D01*
X122458146Y-131887782D02*
X122502657Y-131932293D01*
X122502657Y-131932293D02*
X122547167Y-132021314D01*
X122547167Y-132021314D02*
X122547167Y-132243866D01*
X122547167Y-132243866D02*
X122502657Y-132332887D01*
X122502657Y-132332887D02*
X122458146Y-132377398D01*
X122458146Y-132377398D02*
X122369125Y-132421908D01*
X122369125Y-132421908D02*
X122102062Y-132421908D01*
X122102062Y-132421908D02*
X122013041Y-132377398D01*
X122013041Y-132377398D02*
X121968531Y-132332887D01*
D15*
X115645209Y-131359248D02*
X115533933Y-131303610D01*
X115533933Y-131303610D02*
X115367019Y-131303610D01*
X115367019Y-131303610D02*
X115200104Y-131359248D01*
X115200104Y-131359248D02*
X115088828Y-131470524D01*
X115088828Y-131470524D02*
X115033190Y-131581800D01*
X115033190Y-131581800D02*
X114977552Y-131804352D01*
X114977552Y-131804352D02*
X114977552Y-131971267D01*
X114977552Y-131971267D02*
X115033190Y-132193819D01*
X115033190Y-132193819D02*
X115088828Y-132305095D01*
X115088828Y-132305095D02*
X115200104Y-132416372D01*
X115200104Y-132416372D02*
X115367019Y-132472010D01*
X115367019Y-132472010D02*
X115478295Y-132472010D01*
X115478295Y-132472010D02*
X115645209Y-132416372D01*
X115645209Y-132416372D02*
X115700847Y-132360733D01*
X115700847Y-132360733D02*
X115700847Y-131971267D01*
X115700847Y-131971267D02*
X115478295Y-131971267D01*
D10*
%TO.C,D2*%
X138812619Y-57230094D02*
X137812619Y-57230094D01*
X137812619Y-57230094D02*
X137812619Y-56991999D01*
X137812619Y-56991999D02*
X137860238Y-56849142D01*
X137860238Y-56849142D02*
X137955476Y-56753904D01*
X137955476Y-56753904D02*
X138050714Y-56706285D01*
X138050714Y-56706285D02*
X138241190Y-56658666D01*
X138241190Y-56658666D02*
X138384047Y-56658666D01*
X138384047Y-56658666D02*
X138574523Y-56706285D01*
X138574523Y-56706285D02*
X138669761Y-56753904D01*
X138669761Y-56753904D02*
X138765000Y-56849142D01*
X138765000Y-56849142D02*
X138812619Y-56991999D01*
X138812619Y-56991999D02*
X138812619Y-57230094D01*
X137907857Y-56277713D02*
X137860238Y-56230094D01*
X137860238Y-56230094D02*
X137812619Y-56134856D01*
X137812619Y-56134856D02*
X137812619Y-55896761D01*
X137812619Y-55896761D02*
X137860238Y-55801523D01*
X137860238Y-55801523D02*
X137907857Y-55753904D01*
X137907857Y-55753904D02*
X138003095Y-55706285D01*
X138003095Y-55706285D02*
X138098333Y-55706285D01*
X138098333Y-55706285D02*
X138241190Y-55753904D01*
X138241190Y-55753904D02*
X138812619Y-56325332D01*
X138812619Y-56325332D02*
X138812619Y-55706285D01*
%TO.C,R5*%
X144195333Y-52906619D02*
X143862000Y-52430428D01*
X143623905Y-52906619D02*
X143623905Y-51906619D01*
X143623905Y-51906619D02*
X144004857Y-51906619D01*
X144004857Y-51906619D02*
X144100095Y-51954238D01*
X144100095Y-51954238D02*
X144147714Y-52001857D01*
X144147714Y-52001857D02*
X144195333Y-52097095D01*
X144195333Y-52097095D02*
X144195333Y-52239952D01*
X144195333Y-52239952D02*
X144147714Y-52335190D01*
X144147714Y-52335190D02*
X144100095Y-52382809D01*
X144100095Y-52382809D02*
X144004857Y-52430428D01*
X144004857Y-52430428D02*
X143623905Y-52430428D01*
X145100095Y-51906619D02*
X144623905Y-51906619D01*
X144623905Y-51906619D02*
X144576286Y-52382809D01*
X144576286Y-52382809D02*
X144623905Y-52335190D01*
X144623905Y-52335190D02*
X144719143Y-52287571D01*
X144719143Y-52287571D02*
X144957238Y-52287571D01*
X144957238Y-52287571D02*
X145052476Y-52335190D01*
X145052476Y-52335190D02*
X145100095Y-52382809D01*
X145100095Y-52382809D02*
X145147714Y-52478047D01*
X145147714Y-52478047D02*
X145147714Y-52716142D01*
X145147714Y-52716142D02*
X145100095Y-52811380D01*
X145100095Y-52811380D02*
X145052476Y-52859000D01*
X145052476Y-52859000D02*
X144957238Y-52906619D01*
X144957238Y-52906619D02*
X144719143Y-52906619D01*
X144719143Y-52906619D02*
X144623905Y-52859000D01*
X144623905Y-52859000D02*
X144576286Y-52811380D01*
D11*
%TO.C,IC1*%
X135537526Y-130189762D02*
X134267526Y-130189762D01*
X135416573Y-128859285D02*
X135477050Y-128919761D01*
X135477050Y-128919761D02*
X135537526Y-129101190D01*
X135537526Y-129101190D02*
X135537526Y-129222142D01*
X135537526Y-129222142D02*
X135477050Y-129403571D01*
X135477050Y-129403571D02*
X135356097Y-129524523D01*
X135356097Y-129524523D02*
X135235145Y-129585000D01*
X135235145Y-129585000D02*
X134993240Y-129645476D01*
X134993240Y-129645476D02*
X134811811Y-129645476D01*
X134811811Y-129645476D02*
X134569907Y-129585000D01*
X134569907Y-129585000D02*
X134448954Y-129524523D01*
X134448954Y-129524523D02*
X134328002Y-129403571D01*
X134328002Y-129403571D02*
X134267526Y-129222142D01*
X134267526Y-129222142D02*
X134267526Y-129101190D01*
X134267526Y-129101190D02*
X134328002Y-128919761D01*
X134328002Y-128919761D02*
X134388478Y-128859285D01*
X135537526Y-127649761D02*
X135537526Y-128375476D01*
X135537526Y-128012619D02*
X134267526Y-128012619D01*
X134267526Y-128012619D02*
X134448954Y-128133571D01*
X134448954Y-128133571D02*
X134569907Y-128254523D01*
X134569907Y-128254523D02*
X134630383Y-128375476D01*
D10*
%TO.C,R1*%
X130083333Y-44562619D02*
X129750000Y-44086428D01*
X129511905Y-44562619D02*
X129511905Y-43562619D01*
X129511905Y-43562619D02*
X129892857Y-43562619D01*
X129892857Y-43562619D02*
X129988095Y-43610238D01*
X129988095Y-43610238D02*
X130035714Y-43657857D01*
X130035714Y-43657857D02*
X130083333Y-43753095D01*
X130083333Y-43753095D02*
X130083333Y-43895952D01*
X130083333Y-43895952D02*
X130035714Y-43991190D01*
X130035714Y-43991190D02*
X129988095Y-44038809D01*
X129988095Y-44038809D02*
X129892857Y-44086428D01*
X129892857Y-44086428D02*
X129511905Y-44086428D01*
X131035714Y-44562619D02*
X130464286Y-44562619D01*
X130750000Y-44562619D02*
X130750000Y-43562619D01*
X130750000Y-43562619D02*
X130654762Y-43705476D01*
X130654762Y-43705476D02*
X130559524Y-43800714D01*
X130559524Y-43800714D02*
X130464286Y-43848333D01*
%TO.C,R3*%
X147243333Y-52906619D02*
X146910000Y-52430428D01*
X146671905Y-52906619D02*
X146671905Y-51906619D01*
X146671905Y-51906619D02*
X147052857Y-51906619D01*
X147052857Y-51906619D02*
X147148095Y-51954238D01*
X147148095Y-51954238D02*
X147195714Y-52001857D01*
X147195714Y-52001857D02*
X147243333Y-52097095D01*
X147243333Y-52097095D02*
X147243333Y-52239952D01*
X147243333Y-52239952D02*
X147195714Y-52335190D01*
X147195714Y-52335190D02*
X147148095Y-52382809D01*
X147148095Y-52382809D02*
X147052857Y-52430428D01*
X147052857Y-52430428D02*
X146671905Y-52430428D01*
X147576667Y-51906619D02*
X148195714Y-51906619D01*
X148195714Y-51906619D02*
X147862381Y-52287571D01*
X147862381Y-52287571D02*
X148005238Y-52287571D01*
X148005238Y-52287571D02*
X148100476Y-52335190D01*
X148100476Y-52335190D02*
X148148095Y-52382809D01*
X148148095Y-52382809D02*
X148195714Y-52478047D01*
X148195714Y-52478047D02*
X148195714Y-52716142D01*
X148195714Y-52716142D02*
X148148095Y-52811380D01*
X148148095Y-52811380D02*
X148100476Y-52859000D01*
X148100476Y-52859000D02*
X148005238Y-52906619D01*
X148005238Y-52906619D02*
X147719524Y-52906619D01*
X147719524Y-52906619D02*
X147624286Y-52859000D01*
X147624286Y-52859000D02*
X147576667Y-52811380D01*
%TO.C,U4*%
X161712619Y-72711904D02*
X162522142Y-72711904D01*
X162522142Y-72711904D02*
X162617380Y-72664285D01*
X162617380Y-72664285D02*
X162665000Y-72616666D01*
X162665000Y-72616666D02*
X162712619Y-72521428D01*
X162712619Y-72521428D02*
X162712619Y-72330952D01*
X162712619Y-72330952D02*
X162665000Y-72235714D01*
X162665000Y-72235714D02*
X162617380Y-72188095D01*
X162617380Y-72188095D02*
X162522142Y-72140476D01*
X162522142Y-72140476D02*
X161712619Y-72140476D01*
X162045952Y-71235714D02*
X162712619Y-71235714D01*
X161665000Y-71473809D02*
X162379285Y-71711904D01*
X162379285Y-71711904D02*
X162379285Y-71092857D01*
%TO.C,H1*%
X109962619Y-56411904D02*
X108962619Y-56411904D01*
X109438809Y-56411904D02*
X109438809Y-55840476D01*
X109962619Y-55840476D02*
X108962619Y-55840476D01*
X109962619Y-54840476D02*
X109962619Y-55411904D01*
X109962619Y-55126190D02*
X108962619Y-55126190D01*
X108962619Y-55126190D02*
X109105476Y-55221428D01*
X109105476Y-55221428D02*
X109200714Y-55316666D01*
X109200714Y-55316666D02*
X109248333Y-55411904D01*
D12*
%TO.C,J6*%
X114235996Y-144323720D02*
X114396675Y-145019699D01*
X114396675Y-145019699D02*
X114382413Y-145169607D01*
X114382413Y-145169607D02*
X114311039Y-145283828D01*
X114311039Y-145283828D02*
X114182556Y-145362362D01*
X114182556Y-145362362D02*
X114089758Y-145383786D01*
X115117569Y-144120193D02*
X114931975Y-144163041D01*
X114931975Y-144163041D02*
X114849890Y-144230863D01*
X114849890Y-144230863D02*
X114814203Y-144287974D01*
X114814203Y-144287974D02*
X114753542Y-144448594D01*
X114753542Y-144448594D02*
X114749991Y-144644900D01*
X114749991Y-144644900D02*
X114835687Y-145016088D01*
X114835687Y-145016088D02*
X114903509Y-145098174D01*
X114903509Y-145098174D02*
X114960620Y-145133860D01*
X114960620Y-145133860D02*
X115064129Y-145158835D01*
X115064129Y-145158835D02*
X115249723Y-145115987D01*
X115249723Y-145115987D02*
X115331808Y-145048165D01*
X115331808Y-145048165D02*
X115367495Y-144991054D01*
X115367495Y-144991054D02*
X115392469Y-144887545D01*
X115392469Y-144887545D02*
X115338910Y-144655552D01*
X115338910Y-144655552D02*
X115271087Y-144573467D01*
X115271087Y-144573467D02*
X115213977Y-144537780D01*
X115213977Y-144537780D02*
X115110468Y-144512806D01*
X115110468Y-144512806D02*
X114924873Y-144555653D01*
X114924873Y-144555653D02*
X114842788Y-144623476D01*
X114842788Y-144623476D02*
X114807101Y-144680586D01*
X114807101Y-144680586D02*
X114782127Y-144784096D01*
D10*
%TO.C,Y1*%
X158336428Y-117326190D02*
X158812619Y-117326190D01*
X157812619Y-117659523D02*
X158336428Y-117326190D01*
X158336428Y-117326190D02*
X157812619Y-116992857D01*
X158812619Y-116135714D02*
X158812619Y-116707142D01*
X158812619Y-116421428D02*
X157812619Y-116421428D01*
X157812619Y-116421428D02*
X157955476Y-116516666D01*
X157955476Y-116516666D02*
X158050714Y-116611904D01*
X158050714Y-116611904D02*
X158098333Y-116707142D01*
%TO.C,H4*%
X151012619Y-128811904D02*
X150012619Y-128811904D01*
X150488809Y-128811904D02*
X150488809Y-128240476D01*
X151012619Y-128240476D02*
X150012619Y-128240476D01*
X150345952Y-127335714D02*
X151012619Y-127335714D01*
X149965000Y-127573809D02*
X150679285Y-127811904D01*
X150679285Y-127811904D02*
X150679285Y-127192857D01*
%TO.C,U5*%
X83087574Y-151274446D02*
X83848277Y-151551319D01*
X83848277Y-151551319D02*
X83954059Y-151539145D01*
X83954059Y-151539145D02*
X84015093Y-151510685D01*
X84015093Y-151510685D02*
X84092413Y-151437477D01*
X84092413Y-151437477D02*
X84157560Y-151258488D01*
X84157560Y-151258488D02*
X84145386Y-151152706D01*
X84145386Y-151152706D02*
X84116925Y-151091673D01*
X84116925Y-151091673D02*
X84043717Y-151014352D01*
X84043717Y-151014352D02*
X83283014Y-150737478D01*
X83608747Y-149842533D02*
X83445881Y-150290006D01*
X83445881Y-150290006D02*
X83877067Y-150497620D01*
X83877067Y-150497620D02*
X83848606Y-150436586D01*
X83848606Y-150436586D02*
X83836432Y-150330805D01*
X83836432Y-150330805D02*
X83917865Y-150107068D01*
X83917865Y-150107068D02*
X83995186Y-150033860D01*
X83995186Y-150033860D02*
X84056220Y-150005400D01*
X84056220Y-150005400D02*
X84162001Y-149993226D01*
X84162001Y-149993226D02*
X84385738Y-150074659D01*
X84385738Y-150074659D02*
X84458945Y-150151980D01*
X84458945Y-150151980D02*
X84487406Y-150213014D01*
X84487406Y-150213014D02*
X84499580Y-150318795D01*
X84499580Y-150318795D02*
X84418147Y-150542531D01*
X84418147Y-150542531D02*
X84340826Y-150615739D01*
X84340826Y-150615739D02*
X84279792Y-150644200D01*
D12*
G36*
X103358672Y-146397040D02*
G01*
X103461026Y-146478267D01*
X103509529Y-146582282D01*
X103520148Y-146674550D01*
X103500958Y-146858243D01*
X103456308Y-146980920D01*
X103352929Y-147133975D01*
X103285489Y-147197828D01*
X103181471Y-147246332D01*
X103050852Y-147242763D01*
X102881726Y-147181206D01*
X103189544Y-146335484D01*
X103358672Y-146397040D01*
G37*
G36*
X104341609Y-146254131D02*
G01*
X103713758Y-147979138D01*
X101574240Y-147200417D01*
X102766634Y-147200417D01*
X102767514Y-147211486D01*
X102766810Y-147222570D01*
X102768660Y-147225895D01*
X102768962Y-147229687D01*
X102775684Y-147238520D01*
X102781086Y-147248229D01*
X102784440Y-147250026D01*
X102786744Y-147253053D01*
X102797174Y-147256849D01*
X102806968Y-147262097D01*
X102810762Y-147261795D01*
X103018387Y-147337365D01*
X103025336Y-147342104D01*
X103039081Y-147342479D01*
X103052857Y-147343355D01*
X103053712Y-147342879D01*
X103187852Y-147346544D01*
X103199731Y-147348156D01*
X103208989Y-147343838D01*
X103218871Y-147341228D01*
X103222061Y-147337743D01*
X103329425Y-147287678D01*
X103337690Y-147286116D01*
X103347686Y-147276651D01*
X103358034Y-147267540D01*
X103358301Y-147266600D01*
X103419203Y-147208937D01*
X103424511Y-147206659D01*
X103429656Y-147199040D01*
X103430892Y-147197871D01*
X103433668Y-147193101D01*
X103538016Y-147038609D01*
X103543151Y-147034702D01*
X103546067Y-147026689D01*
X103546646Y-147025833D01*
X103548523Y-147019942D01*
X103594218Y-146894395D01*
X103598252Y-146889360D01*
X103599137Y-146880881D01*
X103599492Y-146879908D01*
X103599884Y-146873734D01*
X103619251Y-146688340D01*
X103621799Y-146683155D01*
X103620747Y-146674019D01*
X103620924Y-146672331D01*
X103619929Y-146666911D01*
X103608662Y-146569017D01*
X103609794Y-146560681D01*
X103603971Y-146548193D01*
X103598604Y-146535506D01*
X103597797Y-146534955D01*
X103547804Y-146427743D01*
X103543934Y-146416398D01*
X103535931Y-146410047D01*
X103529178Y-146402377D01*
X103524633Y-146401081D01*
X103419390Y-146317562D01*
X103414295Y-146310868D01*
X103401362Y-146306160D01*
X103388581Y-146300978D01*
X103387619Y-146301158D01*
X103180122Y-146225636D01*
X103170334Y-146220392D01*
X103159268Y-146221271D01*
X103148181Y-146220567D01*
X103144854Y-146222417D01*
X103141064Y-146222719D01*
X103132231Y-146229441D01*
X103122522Y-146234843D01*
X103120724Y-146238198D01*
X103117697Y-146240502D01*
X103113899Y-146250934D01*
X103108654Y-146260725D01*
X103108955Y-146264518D01*
X102771879Y-147190626D01*
X102766634Y-147200417D01*
X101574240Y-147200417D01*
X100650667Y-146864264D01*
X101782370Y-146864264D01*
X101796646Y-146889923D01*
X101822528Y-146903791D01*
X101851798Y-146901463D01*
X101875164Y-146883681D01*
X102157810Y-146107115D01*
X102319896Y-147050905D01*
X102319337Y-147059704D01*
X102325841Y-147071394D01*
X102331730Y-147083410D01*
X102332930Y-147084135D01*
X102333613Y-147085363D01*
X102345416Y-147091687D01*
X102356856Y-147098606D01*
X102358257Y-147098567D01*
X102359495Y-147099231D01*
X102372836Y-147098169D01*
X102386208Y-147097805D01*
X102387367Y-147097014D01*
X102388765Y-147096903D01*
X102399407Y-147088803D01*
X102410467Y-147081262D01*
X102411014Y-147079970D01*
X102412131Y-147079121D01*
X102416708Y-147066545D01*
X102421931Y-147054230D01*
X102421693Y-147052847D01*
X102761633Y-146118875D01*
X102763020Y-146097051D01*
X102748744Y-146071391D01*
X102722862Y-146057524D01*
X102693592Y-146059851D01*
X102670226Y-146077634D01*
X102387578Y-146854199D01*
X102225492Y-145910409D01*
X102226052Y-145901611D01*
X102219549Y-145889923D01*
X102213659Y-145877904D01*
X102212457Y-145877177D01*
X102211776Y-145875952D01*
X102199985Y-145869634D01*
X102188533Y-145862709D01*
X102187130Y-145862747D01*
X102185894Y-145862085D01*
X102172573Y-145863143D01*
X102159181Y-145863509D01*
X102158019Y-145864301D01*
X102156624Y-145864412D01*
X102145995Y-145872500D01*
X102134922Y-145880052D01*
X102134373Y-145881345D01*
X102133257Y-145882195D01*
X102128677Y-145894776D01*
X102123458Y-145907085D01*
X102123695Y-145908465D01*
X101783757Y-146842439D01*
X101782370Y-146864264D01*
X100650667Y-146864264D01*
X100252557Y-146719364D01*
X100413143Y-146278159D01*
X100923591Y-146278159D01*
X100924642Y-146287294D01*
X100924466Y-146288983D01*
X100925460Y-146294402D01*
X100936727Y-146392296D01*
X100935596Y-146400633D01*
X100941418Y-146413120D01*
X100946786Y-146425808D01*
X100947592Y-146426358D01*
X100997585Y-146533570D01*
X101001456Y-146544916D01*
X101009460Y-146551267D01*
X101016212Y-146558936D01*
X101020754Y-146560230D01*
X101126001Y-146643753D01*
X101131095Y-146650446D01*
X101144025Y-146655152D01*
X101156809Y-146660336D01*
X101157769Y-146660155D01*
X101228497Y-146685898D01*
X101235446Y-146690637D01*
X101249193Y-146691012D01*
X101262967Y-146691888D01*
X101263821Y-146691412D01*
X101397961Y-146695078D01*
X101409841Y-146696690D01*
X101419101Y-146692371D01*
X101428980Y-146689762D01*
X101432169Y-146686277D01*
X101476005Y-146665836D01*
X101481646Y-146665388D01*
X101489047Y-146659754D01*
X101490697Y-146658986D01*
X101494763Y-146655405D01*
X101505012Y-146647606D01*
X101505667Y-146645803D01*
X101507110Y-146644534D01*
X101510648Y-146632121D01*
X101622817Y-146323939D01*
X101628062Y-146314151D01*
X101627182Y-146303085D01*
X101627887Y-146291997D01*
X101626036Y-146288670D01*
X101625735Y-146284881D01*
X101619015Y-146276052D01*
X101613611Y-146266338D01*
X101610253Y-146264539D01*
X101607952Y-146261515D01*
X101597526Y-146257720D01*
X101587729Y-146252471D01*
X101583933Y-146252772D01*
X101408412Y-146188887D01*
X101386587Y-146187500D01*
X101360928Y-146201776D01*
X101347060Y-146227658D01*
X101349388Y-146256928D01*
X101367170Y-146280294D01*
X101512970Y-146333361D01*
X101423147Y-146580146D01*
X101391580Y-146594866D01*
X101260962Y-146591297D01*
X101186717Y-146564273D01*
X101084364Y-146483048D01*
X101035860Y-146379031D01*
X101025241Y-146286762D01*
X101044430Y-146103069D01*
X101089080Y-145980394D01*
X101192457Y-145827340D01*
X101259900Y-145763485D01*
X101363918Y-145714981D01*
X101494536Y-145718550D01*
X101610062Y-145760599D01*
X101680098Y-145834569D01*
X101698998Y-145845570D01*
X101728333Y-145844276D01*
X101752311Y-145827328D01*
X101763319Y-145800107D01*
X101757863Y-145771255D01*
X101676409Y-145685225D01*
X101669150Y-145675687D01*
X101659550Y-145672193D01*
X101650718Y-145667052D01*
X101645997Y-145667260D01*
X101527000Y-145623949D01*
X101520053Y-145619211D01*
X101506305Y-145618835D01*
X101492532Y-145617960D01*
X101491677Y-145618435D01*
X101357538Y-145614769D01*
X101345659Y-145613158D01*
X101336400Y-145617475D01*
X101326519Y-145620086D01*
X101323328Y-145623570D01*
X101215967Y-145673633D01*
X101207700Y-145675197D01*
X101197693Y-145684670D01*
X101187355Y-145693774D01*
X101187087Y-145694713D01*
X101126185Y-145752376D01*
X101120878Y-145754655D01*
X101115732Y-145762273D01*
X101114497Y-145763443D01*
X101111720Y-145768212D01*
X101007370Y-145922707D01*
X101002237Y-145926614D01*
X100999321Y-145934623D01*
X100998742Y-145935482D01*
X100996864Y-145941375D01*
X100951170Y-146066918D01*
X100947137Y-146071954D01*
X100946251Y-146080432D01*
X100945897Y-146081406D01*
X100945504Y-146087581D01*
X100926138Y-146272973D01*
X100923591Y-146278159D01*
X100413143Y-146278159D01*
X100880409Y-144994357D01*
X104341609Y-146254131D01*
G37*
G36*
X101131772Y-148731515D02*
G01*
X101191285Y-148794372D01*
X101212887Y-148840698D01*
X101222784Y-148926693D01*
X101133137Y-149172995D01*
X101070281Y-149232508D01*
X101023955Y-149254110D01*
X100937961Y-149264007D01*
X100825901Y-149223221D01*
X100766387Y-149160363D01*
X100744784Y-149114038D01*
X100734887Y-149028042D01*
X100824533Y-148781742D01*
X100887390Y-148722229D01*
X100933719Y-148700625D01*
X101019712Y-148690728D01*
X101131772Y-148731515D01*
G37*
G36*
X103485107Y-148732663D02*
G01*
X102857256Y-150457670D01*
X99906398Y-149383646D01*
X101511174Y-149383646D01*
X101512342Y-149393795D01*
X101511694Y-149403994D01*
X101513991Y-149408122D01*
X101523570Y-149491357D01*
X101522842Y-149493159D01*
X101525233Y-149505804D01*
X101525849Y-149511154D01*
X101526564Y-149512846D01*
X101528298Y-149522011D01*
X101532172Y-149526103D01*
X101534369Y-149531295D01*
X101542070Y-149536557D01*
X101609750Y-149608040D01*
X101617010Y-149617579D01*
X101626607Y-149621072D01*
X101635443Y-149626215D01*
X101640164Y-149626006D01*
X101762521Y-149670541D01*
X101773281Y-149675827D01*
X101783430Y-149674658D01*
X101793629Y-149675307D01*
X101797757Y-149673009D01*
X101866815Y-149665062D01*
X101865560Y-149684816D01*
X101879836Y-149710475D01*
X101905718Y-149724343D01*
X101934988Y-149722015D01*
X101958354Y-149704233D01*
X101962409Y-149693093D01*
X102361372Y-149693093D01*
X102362540Y-149703242D01*
X102361892Y-149713441D01*
X102364189Y-149717569D01*
X102373768Y-149800804D01*
X102373040Y-149802606D01*
X102375431Y-149815251D01*
X102376047Y-149820601D01*
X102376762Y-149822293D01*
X102378496Y-149831458D01*
X102382370Y-149835550D01*
X102384567Y-149840742D01*
X102392268Y-149846004D01*
X102459949Y-149917487D01*
X102467209Y-149927027D01*
X102476808Y-149930520D01*
X102485641Y-149935662D01*
X102490361Y-149935453D01*
X102577255Y-149967080D01*
X102599080Y-149968467D01*
X102624739Y-149954191D01*
X102638606Y-149928309D01*
X102636279Y-149899038D01*
X102618496Y-149875672D01*
X102526298Y-149842115D01*
X102472663Y-149785468D01*
X102463744Y-149707969D01*
X102621760Y-149273826D01*
X102805268Y-149340618D01*
X102827093Y-149342005D01*
X102852752Y-149327729D01*
X102866620Y-149301847D01*
X102864292Y-149272577D01*
X102846509Y-149249211D01*
X102655962Y-149179857D01*
X102755327Y-148906855D01*
X102756714Y-148885030D01*
X102742438Y-148859371D01*
X102716556Y-148845503D01*
X102687286Y-148847831D01*
X102663920Y-148865613D01*
X102561992Y-149145655D01*
X102467980Y-149111437D01*
X102446155Y-149110050D01*
X102420496Y-149124326D01*
X102406628Y-149150208D01*
X102408956Y-149179478D01*
X102426738Y-149202844D01*
X102527790Y-149239624D01*
X102366657Y-149682334D01*
X102361372Y-149693093D01*
X101962409Y-149693093D01*
X101991583Y-149612935D01*
X101993025Y-149611666D01*
X101996561Y-149599258D01*
X102193848Y-149057218D01*
X102195235Y-149035394D01*
X102180959Y-149009734D01*
X102155077Y-148995867D01*
X102125807Y-148998194D01*
X102102441Y-149015977D01*
X101909062Y-149547278D01*
X101874153Y-149563557D01*
X101788159Y-149573454D01*
X101676099Y-149532668D01*
X101622465Y-149476021D01*
X101613546Y-149398523D01*
X101791123Y-148910638D01*
X101792510Y-148888814D01*
X101778234Y-148863155D01*
X101752352Y-148849287D01*
X101723082Y-148851614D01*
X101699716Y-148869397D01*
X101516459Y-149372887D01*
X101511174Y-149383646D01*
X99906398Y-149383646D01*
X98808689Y-148984113D01*
X99985152Y-148984113D01*
X99986877Y-148993281D01*
X99986827Y-148995118D01*
X99988202Y-149000323D01*
X99990582Y-149012970D01*
X99991916Y-149014382D01*
X99992413Y-149016261D01*
X100001907Y-149024953D01*
X100010750Y-149034310D01*
X100012636Y-149034776D01*
X100014070Y-149036089D01*
X100026761Y-149038269D01*
X100039254Y-149041358D01*
X100041092Y-149040730D01*
X100043009Y-149041060D01*
X100054864Y-149036032D01*
X100067045Y-149031877D01*
X100068253Y-149030354D01*
X100070042Y-149029596D01*
X100077290Y-149018966D01*
X100081894Y-149013165D01*
X100632515Y-149013165D01*
X100633683Y-149023314D01*
X100633035Y-149033513D01*
X100635332Y-149037641D01*
X100645651Y-149127303D01*
X100644520Y-149135641D01*
X100650340Y-149148122D01*
X100655709Y-149160815D01*
X100656516Y-149161366D01*
X100676536Y-149204298D01*
X100678100Y-149212564D01*
X100687562Y-149222557D01*
X100696676Y-149232909D01*
X100697616Y-149233177D01*
X100759552Y-149298593D01*
X100766812Y-149308132D01*
X100776409Y-149311625D01*
X100785245Y-149316768D01*
X100789966Y-149316559D01*
X100912323Y-149361094D01*
X100923083Y-149366380D01*
X100933232Y-149365211D01*
X100943431Y-149365860D01*
X100947559Y-149363562D01*
X101037220Y-149353243D01*
X101045557Y-149354375D01*
X101058046Y-149348551D01*
X101070732Y-149343185D01*
X101071282Y-149342379D01*
X101114217Y-149322358D01*
X101122482Y-149320796D01*
X101132472Y-149311336D01*
X101142826Y-149302221D01*
X101143094Y-149301280D01*
X101208510Y-149239343D01*
X101218049Y-149232084D01*
X101221542Y-149222486D01*
X101226685Y-149213651D01*
X101226476Y-149208929D01*
X101319870Y-148952332D01*
X101325157Y-148941571D01*
X101323988Y-148931421D01*
X101324637Y-148921222D01*
X101322339Y-148917093D01*
X101312020Y-148827432D01*
X101313152Y-148819097D01*
X101307328Y-148806607D01*
X101301962Y-148793922D01*
X101301156Y-148793371D01*
X101281137Y-148750439D01*
X101279574Y-148742172D01*
X101270100Y-148732166D01*
X101260998Y-148721828D01*
X101260058Y-148721560D01*
X101198119Y-148656141D01*
X101190860Y-148646603D01*
X101181260Y-148643109D01*
X101172428Y-148637968D01*
X101167707Y-148638176D01*
X101045348Y-148593641D01*
X101034590Y-148588356D01*
X101024440Y-148589524D01*
X101014242Y-148588876D01*
X101010113Y-148591173D01*
X100920452Y-148601492D01*
X100912116Y-148600361D01*
X100899630Y-148606183D01*
X100886941Y-148611551D01*
X100886390Y-148612357D01*
X100843457Y-148632376D01*
X100835191Y-148633940D01*
X100825184Y-148643413D01*
X100814846Y-148652517D01*
X100814578Y-148653456D01*
X100749163Y-148715391D01*
X100739623Y-148722653D01*
X100736129Y-148732250D01*
X100730987Y-148741086D01*
X100731195Y-148745807D01*
X100637800Y-149002406D01*
X100632515Y-149013165D01*
X100081894Y-149013165D01*
X100735891Y-148189059D01*
X100744109Y-148168793D01*
X100738680Y-148139936D01*
X100718511Y-148118596D01*
X100690007Y-148111547D01*
X100662217Y-148121029D01*
X100091082Y-148840718D01*
X100115972Y-147929774D01*
X100110386Y-147908631D01*
X100088729Y-147888803D01*
X100059790Y-147883832D01*
X100032757Y-147895296D01*
X100016214Y-147919555D01*
X99987270Y-148978888D01*
X99985152Y-148984113D01*
X98808689Y-148984113D01*
X98322119Y-148807016D01*
X98439624Y-148484174D01*
X98854629Y-148484174D01*
X98886645Y-148552831D01*
X98888209Y-148561097D01*
X98897671Y-148571090D01*
X98906785Y-148581442D01*
X98907725Y-148581710D01*
X98969661Y-148647126D01*
X98976921Y-148656665D01*
X98986518Y-148660158D01*
X98995354Y-148665301D01*
X99000075Y-148665092D01*
X99256671Y-148758486D01*
X99267433Y-148763773D01*
X99277582Y-148762604D01*
X99287781Y-148763253D01*
X99291909Y-148760955D01*
X99381571Y-148750636D01*
X99389908Y-148751768D01*
X99402388Y-148745948D01*
X99415083Y-148740579D01*
X99415634Y-148739771D01*
X99458568Y-148719751D01*
X99466833Y-148718189D01*
X99476823Y-148708729D01*
X99487177Y-148699614D01*
X99487445Y-148698673D01*
X99552861Y-148636736D01*
X99562400Y-148629477D01*
X99565893Y-148619879D01*
X99571036Y-148611044D01*
X99570827Y-148606322D01*
X99647936Y-148394470D01*
X99653222Y-148383711D01*
X99652053Y-148373561D01*
X99652702Y-148363363D01*
X99650404Y-148359234D01*
X99640085Y-148269573D01*
X99641217Y-148261237D01*
X99635394Y-148248751D01*
X99630027Y-148236062D01*
X99629220Y-148235511D01*
X99609199Y-148192576D01*
X99607637Y-148184312D01*
X99598177Y-148174320D01*
X99589061Y-148163967D01*
X99588120Y-148163698D01*
X99526183Y-148098282D01*
X99518924Y-148088744D01*
X99509324Y-148085250D01*
X99500492Y-148080109D01*
X99495771Y-148080317D01*
X99474430Y-148072549D01*
X99808659Y-147888698D01*
X99808791Y-147888707D01*
X99821599Y-147881580D01*
X99827709Y-147878220D01*
X99827794Y-147878133D01*
X99834450Y-147874431D01*
X99837930Y-147867935D01*
X99843125Y-147862709D01*
X99844720Y-147855263D01*
X99848318Y-147848549D01*
X99847733Y-147841201D01*
X99849277Y-147833998D01*
X99846593Y-147826871D01*
X99845990Y-147819279D01*
X99841528Y-147813416D01*
X99838931Y-147806518D01*
X99832817Y-147801971D01*
X99828207Y-147795913D01*
X99821283Y-147793393D01*
X99815370Y-147788995D01*
X99807771Y-147788475D01*
X99225941Y-147576705D01*
X99204116Y-147575318D01*
X99178457Y-147589594D01*
X99164589Y-147615476D01*
X99166917Y-147644746D01*
X99184699Y-147668112D01*
X99676666Y-147847174D01*
X99342437Y-148031025D01*
X99342306Y-148031017D01*
X99329497Y-148038143D01*
X99323388Y-148041504D01*
X99323302Y-148041590D01*
X99316647Y-148045293D01*
X99313166Y-148051788D01*
X99307972Y-148057015D01*
X99306376Y-148064461D01*
X99302779Y-148071175D01*
X99303363Y-148078520D01*
X99301819Y-148085727D01*
X99304503Y-148092856D01*
X99305107Y-148100445D01*
X99309568Y-148106307D01*
X99312166Y-148113206D01*
X99318277Y-148117751D01*
X99322889Y-148123811D01*
X99329813Y-148126331D01*
X99335726Y-148130729D01*
X99343323Y-148131248D01*
X99459836Y-148173656D01*
X99519348Y-148236511D01*
X99540952Y-148282840D01*
X99550849Y-148368833D01*
X99477488Y-148570388D01*
X99414632Y-148629901D01*
X99368306Y-148651503D01*
X99282310Y-148661400D01*
X99036011Y-148571754D01*
X98976496Y-148508896D01*
X98948425Y-148448700D01*
X98933974Y-148432287D01*
X98905735Y-148424238D01*
X98877628Y-148432734D01*
X98858577Y-148455077D01*
X98854629Y-148484174D01*
X98439624Y-148484174D01*
X98949971Y-147082009D01*
X103485107Y-148732663D01*
G37*
G36*
X106048660Y-141577970D02*
G01*
X105420809Y-143302977D01*
X103193853Y-142492432D01*
X104488917Y-142492432D01*
X104498398Y-142520223D01*
X104622943Y-142619060D01*
X104628037Y-142625753D01*
X104640964Y-142630458D01*
X104653751Y-142635643D01*
X104654712Y-142635462D01*
X104863040Y-142711287D01*
X104873802Y-142716574D01*
X104883951Y-142715405D01*
X104894150Y-142716054D01*
X104898278Y-142713756D01*
X104987939Y-142703437D01*
X104996276Y-142704569D01*
X105008765Y-142698745D01*
X105021451Y-142693379D01*
X105022001Y-142692573D01*
X105064936Y-142672552D01*
X105073201Y-142670990D01*
X105083193Y-142661529D01*
X105093545Y-142652415D01*
X105093813Y-142651474D01*
X105159230Y-142589536D01*
X105168770Y-142582277D01*
X105172263Y-142572677D01*
X105177405Y-142563845D01*
X105177196Y-142559124D01*
X105205444Y-142481512D01*
X105210730Y-142470754D01*
X105209561Y-142460604D01*
X105210210Y-142450406D01*
X105207912Y-142446277D01*
X105197593Y-142356615D01*
X105198725Y-142348280D01*
X105192901Y-142335790D01*
X105187535Y-142323105D01*
X105186729Y-142322554D01*
X105166708Y-142279619D01*
X105165146Y-142271355D01*
X105155686Y-142261364D01*
X105146571Y-142251011D01*
X105145630Y-142250742D01*
X105087967Y-142189841D01*
X105085689Y-142184534D01*
X105078070Y-142179388D01*
X105076901Y-142178153D01*
X105072131Y-142175376D01*
X104915368Y-142069494D01*
X104851513Y-142002051D01*
X104829910Y-141955725D01*
X104820013Y-141869731D01*
X104844513Y-141802417D01*
X104907370Y-141742904D01*
X104953696Y-141721302D01*
X105039692Y-141711405D01*
X105244711Y-141786026D01*
X105361944Y-141879060D01*
X105382210Y-141887278D01*
X105411067Y-141881849D01*
X105432407Y-141861680D01*
X105439455Y-141833176D01*
X105429974Y-141805386D01*
X105305429Y-141706549D01*
X105300334Y-141699854D01*
X105287400Y-141695146D01*
X105274620Y-141689964D01*
X105273658Y-141690144D01*
X105065327Y-141614318D01*
X105054569Y-141609033D01*
X105044419Y-141610201D01*
X105034221Y-141609553D01*
X105030092Y-141611850D01*
X104940430Y-141622169D01*
X104932095Y-141621038D01*
X104919605Y-141626861D01*
X104906920Y-141632228D01*
X104906369Y-141633033D01*
X104863437Y-141653052D01*
X104855170Y-141654616D01*
X104845164Y-141664089D01*
X104834826Y-141673192D01*
X104834558Y-141674131D01*
X104769141Y-141736069D01*
X104759601Y-141743330D01*
X104756107Y-141752929D01*
X104750966Y-141761762D01*
X104751174Y-141766482D01*
X104722927Y-141844091D01*
X104717641Y-141854853D01*
X104718809Y-141865002D01*
X104718161Y-141875201D01*
X104720458Y-141879329D01*
X104730777Y-141968990D01*
X104729646Y-141977328D01*
X104735472Y-141989823D01*
X104740836Y-142002502D01*
X104741641Y-142003052D01*
X104761662Y-142045987D01*
X104763225Y-142054251D01*
X104772681Y-142064238D01*
X104781802Y-142074597D01*
X104782742Y-142074864D01*
X104840403Y-142135766D01*
X104842682Y-142141074D01*
X104850300Y-142146219D01*
X104851469Y-142147454D01*
X104856235Y-142150228D01*
X105013003Y-142256113D01*
X105076858Y-142323555D01*
X105098460Y-142369881D01*
X105108357Y-142455876D01*
X105083858Y-142523187D01*
X105021000Y-142582702D01*
X104974674Y-142604304D01*
X104888679Y-142614201D01*
X104683659Y-142539579D01*
X104566428Y-142446548D01*
X104546162Y-142438330D01*
X104517305Y-142443760D01*
X104495965Y-142463928D01*
X104488917Y-142492432D01*
X103193853Y-142492432D01*
X102988795Y-142417797D01*
X103149381Y-141976592D01*
X103659829Y-141976592D01*
X103660880Y-141985727D01*
X103660704Y-141987416D01*
X103661698Y-141992835D01*
X103672965Y-142090729D01*
X103671834Y-142099066D01*
X103677656Y-142111553D01*
X103683024Y-142124241D01*
X103683830Y-142124791D01*
X103733823Y-142232003D01*
X103737694Y-142243349D01*
X103745698Y-142249700D01*
X103752450Y-142257369D01*
X103756992Y-142258663D01*
X103862239Y-142342186D01*
X103867333Y-142348879D01*
X103880263Y-142353585D01*
X103893047Y-142358769D01*
X103894007Y-142358588D01*
X103964735Y-142384331D01*
X103971684Y-142389070D01*
X103985431Y-142389445D01*
X103999205Y-142390321D01*
X104000059Y-142389845D01*
X104134199Y-142393511D01*
X104146079Y-142395123D01*
X104155339Y-142390804D01*
X104165218Y-142388195D01*
X104168407Y-142384710D01*
X104226935Y-142357419D01*
X104243348Y-142342967D01*
X104251397Y-142314728D01*
X104242901Y-142286621D01*
X104220558Y-142267570D01*
X104191462Y-142263622D01*
X104127818Y-142293299D01*
X103997200Y-142289730D01*
X103922955Y-142262706D01*
X103820602Y-142181481D01*
X103772098Y-142077464D01*
X103761479Y-141985195D01*
X103780668Y-141801502D01*
X103825318Y-141678827D01*
X103928695Y-141525773D01*
X103996138Y-141461918D01*
X104100156Y-141413414D01*
X104230773Y-141416983D01*
X104305019Y-141444007D01*
X104407372Y-141525232D01*
X104433884Y-141582086D01*
X104448336Y-141598499D01*
X104476575Y-141606548D01*
X104504682Y-141598052D01*
X104523733Y-141575709D01*
X104527681Y-141546613D01*
X104494151Y-141474708D01*
X104490281Y-141463364D01*
X104482278Y-141457013D01*
X104475525Y-141449343D01*
X104470980Y-141448047D01*
X104365736Y-141364528D01*
X104360641Y-141357833D01*
X104347695Y-141353121D01*
X104334928Y-141347944D01*
X104333967Y-141348124D01*
X104263239Y-141322382D01*
X104256291Y-141317644D01*
X104242542Y-141317268D01*
X104228770Y-141316393D01*
X104227915Y-141316868D01*
X104093776Y-141313202D01*
X104081897Y-141311591D01*
X104072638Y-141315908D01*
X104062757Y-141318519D01*
X104059566Y-141322003D01*
X103952205Y-141372066D01*
X103943938Y-141373630D01*
X103933931Y-141383103D01*
X103923593Y-141392207D01*
X103923325Y-141393146D01*
X103862423Y-141450809D01*
X103857116Y-141453088D01*
X103851970Y-141460706D01*
X103850735Y-141461876D01*
X103847958Y-141466645D01*
X103743608Y-141621140D01*
X103738475Y-141625047D01*
X103735559Y-141633056D01*
X103734980Y-141633915D01*
X103733102Y-141639808D01*
X103687408Y-141765351D01*
X103683375Y-141770387D01*
X103682489Y-141778865D01*
X103682135Y-141779839D01*
X103681742Y-141786014D01*
X103662376Y-141971406D01*
X103659829Y-141976592D01*
X103149381Y-141976592D01*
X103616647Y-140692790D01*
X106048660Y-141577970D01*
G37*
G36*
X106863438Y-139214080D02*
G01*
X106235587Y-140939087D01*
X104156935Y-140182520D01*
X105288639Y-140182520D01*
X105302915Y-140208179D01*
X105328797Y-140222047D01*
X105358067Y-140219719D01*
X105381433Y-140201937D01*
X105525950Y-139804877D01*
X105638033Y-139752612D01*
X105830675Y-140387870D01*
X105842660Y-140406162D01*
X105869477Y-140418124D01*
X105898503Y-140413689D01*
X105920522Y-140394265D01*
X105928546Y-140366019D01*
X105729585Y-139709921D01*
X106246105Y-139469065D01*
X106262518Y-139454613D01*
X106270567Y-139426375D01*
X106262071Y-139398268D01*
X106239729Y-139379216D01*
X106210632Y-139375268D01*
X105654516Y-139634588D01*
X105647086Y-139635724D01*
X105641483Y-139640666D01*
X105574319Y-139671985D01*
X105730934Y-139241692D01*
X105732321Y-139219867D01*
X105718045Y-139194208D01*
X105692163Y-139180341D01*
X105662893Y-139182668D01*
X105639526Y-139200451D01*
X105443429Y-139739221D01*
X105441989Y-139740490D01*
X105438453Y-139752893D01*
X105290026Y-140160695D01*
X105288639Y-140182520D01*
X104156935Y-140182520D01*
X103335367Y-139883494D01*
X104527759Y-139883494D01*
X104528639Y-139894563D01*
X104527935Y-139905647D01*
X104529785Y-139908972D01*
X104530087Y-139912764D01*
X104536809Y-139921597D01*
X104542211Y-139931306D01*
X104545565Y-139933103D01*
X104547869Y-139936130D01*
X104558298Y-139939926D01*
X104568093Y-139945174D01*
X104571887Y-139944872D01*
X105015895Y-140106477D01*
X105037720Y-140107864D01*
X105063379Y-140093588D01*
X105077246Y-140067706D01*
X105074919Y-140038436D01*
X105057136Y-140015070D01*
X104642851Y-139864282D01*
X104970230Y-138964819D01*
X104971617Y-138942994D01*
X104957341Y-138917335D01*
X104931459Y-138903468D01*
X104902189Y-138905795D01*
X104878822Y-138923578D01*
X104533004Y-139873703D01*
X104527759Y-139883494D01*
X103335367Y-139883494D01*
X102998122Y-139760747D01*
X103158708Y-139319542D01*
X103669156Y-139319542D01*
X103670207Y-139328677D01*
X103670031Y-139330366D01*
X103671025Y-139335785D01*
X103682292Y-139433679D01*
X103681161Y-139442016D01*
X103686983Y-139454503D01*
X103692351Y-139467191D01*
X103693157Y-139467741D01*
X103743150Y-139574953D01*
X103747021Y-139586299D01*
X103755025Y-139592650D01*
X103761777Y-139600319D01*
X103766319Y-139601613D01*
X103871566Y-139685136D01*
X103876660Y-139691829D01*
X103889590Y-139696535D01*
X103902374Y-139701719D01*
X103903334Y-139701538D01*
X103974062Y-139727281D01*
X103981011Y-139732020D01*
X103994758Y-139732395D01*
X104008532Y-139733271D01*
X104009386Y-139732795D01*
X104143526Y-139736461D01*
X104155406Y-139738073D01*
X104164666Y-139733754D01*
X104174545Y-139731145D01*
X104177734Y-139727660D01*
X104236262Y-139700369D01*
X104252675Y-139685917D01*
X104260724Y-139657678D01*
X104252228Y-139629571D01*
X104229885Y-139610520D01*
X104200789Y-139606572D01*
X104137145Y-139636249D01*
X104006527Y-139632680D01*
X103932282Y-139605656D01*
X103829929Y-139524431D01*
X103781425Y-139420414D01*
X103770806Y-139328145D01*
X103789995Y-139144452D01*
X103834645Y-139021777D01*
X103938022Y-138868723D01*
X104005465Y-138804868D01*
X104109483Y-138756364D01*
X104240100Y-138759933D01*
X104314346Y-138786957D01*
X104416699Y-138868182D01*
X104443211Y-138925036D01*
X104457663Y-138941449D01*
X104485902Y-138949498D01*
X104514009Y-138941002D01*
X104533060Y-138918659D01*
X104537008Y-138889563D01*
X104503478Y-138817658D01*
X104499608Y-138806314D01*
X104491605Y-138799963D01*
X104484852Y-138792293D01*
X104480307Y-138790997D01*
X104375063Y-138707478D01*
X104369968Y-138700783D01*
X104357022Y-138696071D01*
X104344255Y-138690894D01*
X104343294Y-138691074D01*
X104272566Y-138665332D01*
X104265618Y-138660594D01*
X104251869Y-138660218D01*
X104238097Y-138659343D01*
X104237242Y-138659818D01*
X104103103Y-138656152D01*
X104091224Y-138654541D01*
X104081965Y-138658858D01*
X104072084Y-138661469D01*
X104068893Y-138664953D01*
X103961532Y-138715016D01*
X103953265Y-138716580D01*
X103943258Y-138726053D01*
X103932920Y-138735157D01*
X103932652Y-138736096D01*
X103871750Y-138793759D01*
X103866443Y-138796038D01*
X103861297Y-138803656D01*
X103860062Y-138804826D01*
X103857285Y-138809595D01*
X103752935Y-138964090D01*
X103747802Y-138967997D01*
X103744886Y-138976006D01*
X103744307Y-138976865D01*
X103742429Y-138982758D01*
X103696735Y-139108301D01*
X103692702Y-139113337D01*
X103691816Y-139121815D01*
X103691462Y-139122789D01*
X103691069Y-139128964D01*
X103671703Y-139314356D01*
X103669156Y-139319542D01*
X103158708Y-139319542D01*
X103625974Y-138035740D01*
X106863438Y-139214080D01*
G37*
G36*
X102546631Y-151157948D02*
G01*
X101918780Y-152882955D01*
X99929621Y-152158961D01*
X101061326Y-152158961D01*
X101075602Y-152184620D01*
X101101484Y-152198488D01*
X101130754Y-152196160D01*
X101154120Y-152178378D01*
X101347497Y-151647077D01*
X101382409Y-151630797D01*
X101468402Y-151620900D01*
X101580462Y-151661687D01*
X101634095Y-151718333D01*
X101643014Y-151795831D01*
X101465438Y-152283716D01*
X101464051Y-152305541D01*
X101478327Y-152331200D01*
X101504209Y-152345068D01*
X101533479Y-152342740D01*
X101556845Y-152324958D01*
X101740100Y-151821470D01*
X101745387Y-151810709D01*
X101744218Y-151800559D01*
X101744867Y-151790361D01*
X101742569Y-151786232D01*
X101732990Y-151702997D01*
X101733719Y-151701196D01*
X101731326Y-151688544D01*
X101730712Y-151683201D01*
X101729997Y-151681511D01*
X101728264Y-151672344D01*
X101724387Y-151668249D01*
X101722192Y-151663060D01*
X101714492Y-151657798D01*
X101646809Y-151586313D01*
X101639550Y-151576775D01*
X101629950Y-151573281D01*
X101621118Y-151568140D01*
X101616397Y-151568348D01*
X101494038Y-151523813D01*
X101483280Y-151518528D01*
X101473130Y-151519696D01*
X101462932Y-151519048D01*
X101458803Y-151521345D01*
X101389745Y-151529292D01*
X101391001Y-151509539D01*
X101376725Y-151483879D01*
X101350843Y-151470012D01*
X101321573Y-151472339D01*
X101298207Y-151490122D01*
X101264977Y-151581420D01*
X101263536Y-151582689D01*
X101259999Y-151595096D01*
X101062713Y-152137136D01*
X101061326Y-152158961D01*
X99929621Y-152158961D01*
X99482150Y-151996095D01*
X100613854Y-151996095D01*
X100628130Y-152021754D01*
X100654012Y-152035622D01*
X100683282Y-152033294D01*
X100706648Y-152015512D01*
X100942142Y-151368497D01*
X100943529Y-151346673D01*
X100929253Y-151321013D01*
X100903371Y-151307146D01*
X100874101Y-151309473D01*
X100850735Y-151327256D01*
X100615241Y-151974270D01*
X100613854Y-151996095D01*
X99482150Y-151996095D01*
X99218282Y-151900055D01*
X99272382Y-151751418D01*
X99986370Y-151751418D01*
X99988095Y-151760586D01*
X99988045Y-151762423D01*
X99989420Y-151767628D01*
X99991800Y-151780275D01*
X99993134Y-151781687D01*
X99993631Y-151783566D01*
X100003125Y-151792258D01*
X100011968Y-151801615D01*
X100013854Y-151802081D01*
X100015288Y-151803394D01*
X100027979Y-151805574D01*
X100040472Y-151808663D01*
X100042310Y-151808035D01*
X100044227Y-151808365D01*
X100056082Y-151803337D01*
X100068263Y-151799182D01*
X100069471Y-151797659D01*
X100071260Y-151796901D01*
X100078508Y-151786271D01*
X100643917Y-151073796D01*
X100893561Y-151073796D01*
X100894662Y-151077439D01*
X100894151Y-151081208D01*
X100898842Y-151091269D01*
X100902057Y-151101903D01*
X100904952Y-151104371D01*
X100923421Y-151143979D01*
X100923300Y-151145896D01*
X100927824Y-151154027D01*
X100930517Y-151162936D01*
X100934824Y-151166608D01*
X100937576Y-151171555D01*
X100942566Y-151174228D01*
X100946306Y-151178476D01*
X100949962Y-151179518D01*
X100952859Y-151181988D01*
X100958467Y-151182748D01*
X100963458Y-151185423D01*
X100969103Y-151184974D01*
X100974544Y-151186525D01*
X100978185Y-151185424D01*
X100981956Y-151185936D01*
X100987084Y-151183544D01*
X100992728Y-151183096D01*
X100997232Y-151179667D01*
X101002651Y-151178030D01*
X101005119Y-151175134D01*
X101053054Y-151152783D01*
X101063685Y-151149570D01*
X101070887Y-151141122D01*
X101079225Y-151133782D01*
X101080268Y-151130120D01*
X101082736Y-151127227D01*
X101084229Y-151116225D01*
X101087274Y-151105543D01*
X101086173Y-151101901D01*
X101086685Y-151098131D01*
X101081991Y-151088066D01*
X101078779Y-151077436D01*
X101075883Y-151074967D01*
X101057414Y-151035358D01*
X101057536Y-151033442D01*
X101053012Y-151025311D01*
X101050319Y-151016401D01*
X101046011Y-151012727D01*
X101043260Y-151007783D01*
X101038271Y-151005109D01*
X101034531Y-151000862D01*
X101030871Y-150999818D01*
X101027976Y-150997350D01*
X101022368Y-150996589D01*
X101017378Y-150993915D01*
X101011735Y-150994363D01*
X101006292Y-150992812D01*
X101002648Y-150993913D01*
X100998880Y-150993402D01*
X100993751Y-150995793D01*
X100988108Y-150996242D01*
X100983603Y-150999670D01*
X100978185Y-151001308D01*
X100975715Y-151004203D01*
X100927783Y-151026555D01*
X100917151Y-151029769D01*
X100909946Y-151038217D01*
X100901610Y-151045558D01*
X100900566Y-151049217D01*
X100898099Y-151052112D01*
X100896606Y-151063111D01*
X100893561Y-151073796D01*
X100643917Y-151073796D01*
X100737109Y-150956364D01*
X100745327Y-150936098D01*
X100739898Y-150907241D01*
X100719729Y-150885901D01*
X100691225Y-150878852D01*
X100663435Y-150888334D01*
X100092300Y-151608023D01*
X100117190Y-150697080D01*
X100111604Y-150675937D01*
X100089947Y-150656109D01*
X100061008Y-150651138D01*
X100033975Y-150662602D01*
X100017432Y-150686861D01*
X99988488Y-151746193D01*
X99986370Y-151751418D01*
X99272382Y-151751418D01*
X99846134Y-150175048D01*
X102546631Y-151157948D01*
G37*
G36*
X104258023Y-144193762D02*
G01*
X104317537Y-144256619D01*
X104365177Y-144358783D01*
X104346856Y-144534162D01*
X104237059Y-144835825D01*
X104138361Y-144981950D01*
X104036201Y-145029589D01*
X103950204Y-145039486D01*
X103793398Y-144982412D01*
X103733885Y-144919556D01*
X103686246Y-144817393D01*
X103704567Y-144642014D01*
X103814364Y-144340350D01*
X103913060Y-144194226D01*
X104015222Y-144146587D01*
X104101217Y-144136690D01*
X104258023Y-144193762D01*
G37*
G36*
X103187555Y-143804144D02*
G01*
X103289910Y-143885371D01*
X103338413Y-143989386D01*
X103349032Y-144081655D01*
X103329843Y-144265347D01*
X103285193Y-144388024D01*
X103181816Y-144541076D01*
X103114373Y-144604932D01*
X103010355Y-144653437D01*
X102879737Y-144649868D01*
X102710611Y-144588310D01*
X103018430Y-143742587D01*
X103187555Y-143804144D01*
G37*
G36*
X105154934Y-144019542D02*
G01*
X104527083Y-145744549D01*
X102024815Y-144833798D01*
X103583558Y-144833798D01*
X103587055Y-144841297D01*
X103588549Y-144849439D01*
X103593134Y-144854334D01*
X103644035Y-144963492D01*
X103645598Y-144971757D01*
X103655062Y-144981753D01*
X103664174Y-144992101D01*
X103665113Y-144992368D01*
X103727050Y-145057785D01*
X103734310Y-145067324D01*
X103743907Y-145070817D01*
X103752743Y-145075960D01*
X103757464Y-145075751D01*
X103924568Y-145136573D01*
X103935328Y-145141859D01*
X103945477Y-145140690D01*
X103955676Y-145141339D01*
X103959804Y-145139041D01*
X104049466Y-145128722D01*
X104057803Y-145129854D01*
X104070280Y-145124035D01*
X104082978Y-145118665D01*
X104083529Y-145117857D01*
X104192485Y-145067050D01*
X104205262Y-145061565D01*
X104209894Y-145054706D01*
X104216105Y-145049238D01*
X104217943Y-145042789D01*
X104318768Y-144893514D01*
X104323902Y-144889607D01*
X104326817Y-144881596D01*
X104327398Y-144880737D01*
X104329278Y-144874836D01*
X104440116Y-144570313D01*
X104444150Y-144565277D01*
X104445035Y-144556796D01*
X104445390Y-144555824D01*
X104445782Y-144549652D01*
X104465993Y-144356177D01*
X104467866Y-144342378D01*
X104464368Y-144334878D01*
X104462875Y-144326738D01*
X104458290Y-144321843D01*
X104407388Y-144212686D01*
X104405826Y-144204420D01*
X104396352Y-144194413D01*
X104387249Y-144184075D01*
X104386309Y-144183807D01*
X104324372Y-144118390D01*
X104317113Y-144108852D01*
X104307515Y-144105358D01*
X104298680Y-144100216D01*
X104293957Y-144100424D01*
X104126856Y-144039604D01*
X104116095Y-144034318D01*
X104105945Y-144035486D01*
X104095747Y-144034838D01*
X104091618Y-144037135D01*
X104001957Y-144047454D01*
X103993621Y-144046323D01*
X103981133Y-144052145D01*
X103968446Y-144057513D01*
X103967895Y-144058319D01*
X103858932Y-144109128D01*
X103846161Y-144114612D01*
X103841529Y-144121469D01*
X103835317Y-144126939D01*
X103833478Y-144133388D01*
X103732653Y-144282663D01*
X103727520Y-144286570D01*
X103724604Y-144294579D01*
X103724025Y-144295438D01*
X103722146Y-144301332D01*
X103611307Y-144605864D01*
X103607274Y-144610900D01*
X103606388Y-144619378D01*
X103606034Y-144620352D01*
X103605641Y-144626525D01*
X103585430Y-144819997D01*
X103583558Y-144833798D01*
X102024815Y-144833798D01*
X102005574Y-144826795D01*
X102085383Y-144607521D01*
X102595519Y-144607521D01*
X102596399Y-144618590D01*
X102595695Y-144629674D01*
X102597545Y-144632999D01*
X102597847Y-144636791D01*
X102604569Y-144645624D01*
X102609971Y-144655333D01*
X102613325Y-144657130D01*
X102615629Y-144660157D01*
X102626059Y-144663953D01*
X102635853Y-144669201D01*
X102639647Y-144668899D01*
X102847272Y-144744469D01*
X102854221Y-144749208D01*
X102867968Y-144749583D01*
X102881742Y-144750459D01*
X102882596Y-144749983D01*
X103016736Y-144753649D01*
X103028616Y-144755261D01*
X103037876Y-144750942D01*
X103047755Y-144748333D01*
X103050945Y-144744848D01*
X103158309Y-144694782D01*
X103166574Y-144693220D01*
X103176571Y-144683754D01*
X103186918Y-144674644D01*
X103187185Y-144673704D01*
X103248088Y-144616041D01*
X103253396Y-144613763D01*
X103258541Y-144606144D01*
X103259777Y-144604975D01*
X103262553Y-144600205D01*
X103366901Y-144445713D01*
X103372036Y-144441806D01*
X103374952Y-144433793D01*
X103375531Y-144432937D01*
X103377408Y-144427046D01*
X103423104Y-144301498D01*
X103427137Y-144296463D01*
X103428022Y-144287985D01*
X103428377Y-144287012D01*
X103428769Y-144280834D01*
X103448135Y-144095445D01*
X103450683Y-144090260D01*
X103449631Y-144081124D01*
X103449808Y-144079435D01*
X103448813Y-144074014D01*
X103437546Y-143976121D01*
X103438678Y-143967785D01*
X103432855Y-143955297D01*
X103427488Y-143942610D01*
X103426681Y-143942059D01*
X103376688Y-143834847D01*
X103372818Y-143823502D01*
X103364815Y-143817151D01*
X103358062Y-143809481D01*
X103353517Y-143808185D01*
X103248274Y-143724666D01*
X103243179Y-143717972D01*
X103230245Y-143713264D01*
X103217465Y-143708082D01*
X103216503Y-143708262D01*
X103009005Y-143632739D01*
X102999219Y-143627496D01*
X102988154Y-143628375D01*
X102977066Y-143627671D01*
X102973739Y-143629521D01*
X102969949Y-143629823D01*
X102961116Y-143636545D01*
X102951407Y-143641947D01*
X102949609Y-143645302D01*
X102946582Y-143647606D01*
X102942784Y-143658038D01*
X102937539Y-143667829D01*
X102937840Y-143671622D01*
X102600764Y-144597730D01*
X102595519Y-144607521D01*
X102085383Y-144607521D01*
X102633426Y-143101788D01*
X105154934Y-144019542D01*
G37*
X95331615Y-150597111D02*
X93452230Y-149913071D01*
X93452230Y-149913071D02*
X95022661Y-149775209D01*
X95022661Y-149775209D02*
X93908257Y-148660148D01*
X93908257Y-148660148D02*
X95787642Y-149344188D01*
X95543835Y-148343297D02*
X95869568Y-147448352D01*
X96015655Y-148717726D02*
X94364284Y-147407224D01*
X94364284Y-147407224D02*
X96471682Y-147464803D01*
X94755164Y-146333290D02*
X97090576Y-145764406D01*
X95211191Y-145080366D02*
X96634549Y-147017330D01*
X95406631Y-144543399D02*
X95830084Y-143379970D01*
X95830084Y-143379970D02*
X96318027Y-144267018D01*
X96318027Y-144267018D02*
X96415747Y-143998535D01*
X96415747Y-143998535D02*
X96570389Y-143852119D01*
X96570389Y-143852119D02*
X96692456Y-143795198D01*
X96692456Y-143795198D02*
X96904019Y-143770850D01*
X96904019Y-143770850D02*
X97351492Y-143933717D01*
X97351492Y-143933717D02*
X97497907Y-144088358D01*
X97497907Y-144088358D02*
X97554828Y-144210426D01*
X97554828Y-144210426D02*
X97579176Y-144421988D01*
X97579176Y-144421988D02*
X97383736Y-144958956D01*
X97383736Y-144958956D02*
X97229095Y-145105371D01*
X97229095Y-145105371D02*
X97107027Y-145162292D01*
X98360937Y-142274119D02*
X97970056Y-143348054D01*
X98165497Y-142811087D02*
X96286111Y-142127046D01*
X96286111Y-142127046D02*
X96489448Y-142403755D01*
X96489448Y-142403755D02*
X96603291Y-142647891D01*
X96603291Y-142647891D02*
X96627638Y-142859454D01*
X97677882Y-140809305D02*
X97523241Y-140955720D01*
X97523241Y-140955720D02*
X97401173Y-141012642D01*
X97401173Y-141012642D02*
X97189611Y-141036989D01*
X97189611Y-141036989D02*
X97100116Y-141004416D01*
X97100116Y-141004416D02*
X96953701Y-140849775D01*
X96953701Y-140849775D02*
X96896779Y-140727707D01*
X96896779Y-140727707D02*
X96872432Y-140516145D01*
X96872432Y-140516145D02*
X97002725Y-140158166D01*
X97002725Y-140158166D02*
X97157366Y-140011751D01*
X97157366Y-140011751D02*
X97279434Y-139954830D01*
X97279434Y-139954830D02*
X97490996Y-139930482D01*
X97490996Y-139930482D02*
X97580491Y-139963055D01*
X97580491Y-139963055D02*
X97726907Y-140117696D01*
X97726907Y-140117696D02*
X97783828Y-140239764D01*
X97783828Y-140239764D02*
X97808176Y-140451327D01*
X97808176Y-140451327D02*
X97677882Y-140809305D01*
X97677882Y-140809305D02*
X97702230Y-141020867D01*
X97702230Y-141020867D02*
X97759151Y-141142935D01*
X97759151Y-141142935D02*
X97905567Y-141297576D01*
X97905567Y-141297576D02*
X98263545Y-141427870D01*
X98263545Y-141427870D02*
X98475108Y-141403522D01*
X98475108Y-141403522D02*
X98597176Y-141346601D01*
X98597176Y-141346601D02*
X98751817Y-141200185D01*
X98751817Y-141200185D02*
X98882110Y-140842207D01*
X98882110Y-140842207D02*
X98857762Y-140630644D01*
X98857762Y-140630644D02*
X98800841Y-140508576D01*
X98800841Y-140508576D02*
X98654425Y-140353935D01*
X98654425Y-140353935D02*
X98296447Y-140223642D01*
X98296447Y-140223642D02*
X98084885Y-140247990D01*
X98084885Y-140247990D02*
X97962817Y-140304911D01*
X97962817Y-140304911D02*
X97808176Y-140451327D01*
X97751912Y-138099792D02*
X97426178Y-138994737D01*
X97426178Y-138994737D02*
X98288551Y-139409965D01*
X98288551Y-139409965D02*
X98231629Y-139287897D01*
X98231629Y-139287897D02*
X98207281Y-139076335D01*
X98207281Y-139076335D02*
X98370148Y-138628862D01*
X98370148Y-138628862D02*
X98524789Y-138482447D01*
X98524789Y-138482447D02*
X98646857Y-138425525D01*
X98646857Y-138425525D02*
X98858420Y-138401178D01*
X98858420Y-138401178D02*
X99305892Y-138564044D01*
X99305892Y-138564044D02*
X99452308Y-138718686D01*
X99452308Y-138718686D02*
X99509229Y-138840753D01*
X99509229Y-138840753D02*
X99533577Y-139052316D01*
X99533577Y-139052316D02*
X99370710Y-139499789D01*
X99370710Y-139499789D02*
X99216069Y-139646204D01*
X99216069Y-139646204D02*
X99094001Y-139703125D01*
X98403379Y-136309901D02*
X98077645Y-137204847D01*
X98077645Y-137204847D02*
X98940017Y-137620075D01*
X98940017Y-137620075D02*
X98883096Y-137498007D01*
X98883096Y-137498007D02*
X98858748Y-137286444D01*
X98858748Y-137286444D02*
X99021615Y-136838972D01*
X99021615Y-136838972D02*
X99176256Y-136692556D01*
X99176256Y-136692556D02*
X99298324Y-136635635D01*
X99298324Y-136635635D02*
X99509887Y-136611287D01*
X99509887Y-136611287D02*
X99957359Y-136774154D01*
X99957359Y-136774154D02*
X100103775Y-136928795D01*
X100103775Y-136928795D02*
X100160696Y-137050863D01*
X100160696Y-137050863D02*
X100185044Y-137262425D01*
X100185044Y-137262425D02*
X100022177Y-137709898D01*
X100022177Y-137709898D02*
X99867536Y-137856314D01*
X99867536Y-137856314D02*
X99745468Y-137913235D01*
X92734452Y-149178820D02*
X92242233Y-148999667D01*
X92242233Y-148999667D02*
X92136451Y-149011841D01*
X92136451Y-149011841D02*
X92059131Y-149085048D01*
X92059131Y-149085048D02*
X91993984Y-149264037D01*
X91993984Y-149264037D02*
X92006158Y-149369819D01*
X92689705Y-149162533D02*
X92701879Y-149268315D01*
X92701879Y-149268315D02*
X92620446Y-149492051D01*
X92620446Y-149492051D02*
X92543125Y-149565259D01*
X92543125Y-149565259D02*
X92437344Y-149577433D01*
X92437344Y-149577433D02*
X92347849Y-149544859D01*
X92347849Y-149544859D02*
X92274642Y-149467539D01*
X92274642Y-149467539D02*
X92262468Y-149361757D01*
X92262468Y-149361757D02*
X92343901Y-149138021D01*
X92343901Y-149138021D02*
X92331727Y-149032240D01*
X93043899Y-148328622D02*
X92104207Y-147986602D01*
X92999152Y-148312335D02*
X93011326Y-148418116D01*
X93011326Y-148418116D02*
X92946179Y-148597105D01*
X92946179Y-148597105D02*
X92868859Y-148670313D01*
X92868859Y-148670313D02*
X92807825Y-148698774D01*
X92807825Y-148698774D02*
X92702043Y-148710948D01*
X92702043Y-148710948D02*
X92433560Y-148613228D01*
X92433560Y-148613228D02*
X92360352Y-148535907D01*
X92360352Y-148535907D02*
X92331891Y-148474873D01*
X92331891Y-148474873D02*
X92319717Y-148369092D01*
X92319717Y-148369092D02*
X92384864Y-148190103D01*
X92384864Y-148190103D02*
X92462185Y-148116895D01*
X93353346Y-147478424D02*
X92861126Y-147299270D01*
X92861126Y-147299270D02*
X92755345Y-147311444D01*
X92755345Y-147311444D02*
X92678024Y-147384652D01*
X92678024Y-147384652D02*
X92612878Y-147563641D01*
X92612878Y-147563641D02*
X92625052Y-147669422D01*
X93308599Y-147462137D02*
X93320773Y-147567918D01*
X93320773Y-147567918D02*
X93239339Y-147791655D01*
X93239339Y-147791655D02*
X93162019Y-147864862D01*
X93162019Y-147864862D02*
X93056238Y-147877036D01*
X93056238Y-147877036D02*
X92966743Y-147844463D01*
X92966743Y-147844463D02*
X92893535Y-147767142D01*
X92893535Y-147767142D02*
X92881361Y-147661361D01*
X92881361Y-147661361D02*
X92962795Y-147437625D01*
X92962795Y-147437625D02*
X92950621Y-147331844D01*
X92840891Y-146937179D02*
X92971184Y-146579201D01*
X93516213Y-147030951D02*
X92710762Y-146737791D01*
X92710762Y-146737791D02*
X92637554Y-146660470D01*
X92637554Y-146660470D02*
X92625380Y-146554689D01*
X92625380Y-146554689D02*
X92657954Y-146465194D01*
X93711653Y-146493983D02*
X93085191Y-146265970D01*
X93264180Y-146331117D02*
X93190973Y-146253796D01*
X93190973Y-146253796D02*
X93162512Y-146192762D01*
X93162512Y-146192762D02*
X93150338Y-146086981D01*
X93150338Y-146086981D02*
X93182911Y-145997486D01*
X93443498Y-145281530D02*
X94069960Y-145509543D01*
X93296918Y-145684255D02*
X93789138Y-145863408D01*
X93789138Y-145863408D02*
X93894919Y-145851234D01*
X93894919Y-145851234D02*
X93972240Y-145778027D01*
X93972240Y-145778027D02*
X94021100Y-145643785D01*
X94021100Y-145643785D02*
X94008926Y-145538004D01*
X94008926Y-145538004D02*
X93980466Y-145476970D01*
X94232827Y-145062070D02*
X93606365Y-144834057D01*
X93293134Y-144720050D02*
X93321595Y-144781084D01*
X93321595Y-144781084D02*
X93382629Y-144752623D01*
X93382629Y-144752623D02*
X93354168Y-144691590D01*
X93354168Y-144691590D02*
X93293134Y-144720050D01*
X93293134Y-144720050D02*
X93382629Y-144752623D01*
X93720372Y-144520826D02*
X93850665Y-144162848D01*
X93456001Y-144272578D02*
X94261452Y-144565738D01*
X94261452Y-144565738D02*
X94367233Y-144553564D01*
X94367233Y-144553564D02*
X94444553Y-144480356D01*
X94444553Y-144480356D02*
X94477127Y-144390862D01*
D10*
%TO.C,C1*%
X128433333Y-50817380D02*
X128385714Y-50865000D01*
X128385714Y-50865000D02*
X128242857Y-50912619D01*
X128242857Y-50912619D02*
X128147619Y-50912619D01*
X128147619Y-50912619D02*
X128004762Y-50865000D01*
X128004762Y-50865000D02*
X127909524Y-50769761D01*
X127909524Y-50769761D02*
X127861905Y-50674523D01*
X127861905Y-50674523D02*
X127814286Y-50484047D01*
X127814286Y-50484047D02*
X127814286Y-50341190D01*
X127814286Y-50341190D02*
X127861905Y-50150714D01*
X127861905Y-50150714D02*
X127909524Y-50055476D01*
X127909524Y-50055476D02*
X128004762Y-49960238D01*
X128004762Y-49960238D02*
X128147619Y-49912619D01*
X128147619Y-49912619D02*
X128242857Y-49912619D01*
X128242857Y-49912619D02*
X128385714Y-49960238D01*
X128385714Y-49960238D02*
X128433333Y-50007857D01*
X129385714Y-50912619D02*
X128814286Y-50912619D01*
X129100000Y-50912619D02*
X129100000Y-49912619D01*
X129100000Y-49912619D02*
X129004762Y-50055476D01*
X129004762Y-50055476D02*
X128909524Y-50150714D01*
X128909524Y-50150714D02*
X128814286Y-50198333D01*
%TO.C,R11*%
X156707142Y-79742619D02*
X156373809Y-79266428D01*
X156135714Y-79742619D02*
X156135714Y-78742619D01*
X156135714Y-78742619D02*
X156516666Y-78742619D01*
X156516666Y-78742619D02*
X156611904Y-78790238D01*
X156611904Y-78790238D02*
X156659523Y-78837857D01*
X156659523Y-78837857D02*
X156707142Y-78933095D01*
X156707142Y-78933095D02*
X156707142Y-79075952D01*
X156707142Y-79075952D02*
X156659523Y-79171190D01*
X156659523Y-79171190D02*
X156611904Y-79218809D01*
X156611904Y-79218809D02*
X156516666Y-79266428D01*
X156516666Y-79266428D02*
X156135714Y-79266428D01*
X157659523Y-79742619D02*
X157088095Y-79742619D01*
X157373809Y-79742619D02*
X157373809Y-78742619D01*
X157373809Y-78742619D02*
X157278571Y-78885476D01*
X157278571Y-78885476D02*
X157183333Y-78980714D01*
X157183333Y-78980714D02*
X157088095Y-79028333D01*
X158611904Y-79742619D02*
X158040476Y-79742619D01*
X158326190Y-79742619D02*
X158326190Y-78742619D01*
X158326190Y-78742619D02*
X158230952Y-78885476D01*
X158230952Y-78885476D02*
X158135714Y-78980714D01*
X158135714Y-78980714D02*
X158040476Y-79028333D01*
%TO.C,C3*%
X139017380Y-47716666D02*
X139065000Y-47764285D01*
X139065000Y-47764285D02*
X139112619Y-47907142D01*
X139112619Y-47907142D02*
X139112619Y-48002380D01*
X139112619Y-48002380D02*
X139065000Y-48145237D01*
X139065000Y-48145237D02*
X138969761Y-48240475D01*
X138969761Y-48240475D02*
X138874523Y-48288094D01*
X138874523Y-48288094D02*
X138684047Y-48335713D01*
X138684047Y-48335713D02*
X138541190Y-48335713D01*
X138541190Y-48335713D02*
X138350714Y-48288094D01*
X138350714Y-48288094D02*
X138255476Y-48240475D01*
X138255476Y-48240475D02*
X138160238Y-48145237D01*
X138160238Y-48145237D02*
X138112619Y-48002380D01*
X138112619Y-48002380D02*
X138112619Y-47907142D01*
X138112619Y-47907142D02*
X138160238Y-47764285D01*
X138160238Y-47764285D02*
X138207857Y-47716666D01*
X138112619Y-47383332D02*
X138112619Y-46764285D01*
X138112619Y-46764285D02*
X138493571Y-47097618D01*
X138493571Y-47097618D02*
X138493571Y-46954761D01*
X138493571Y-46954761D02*
X138541190Y-46859523D01*
X138541190Y-46859523D02*
X138588809Y-46811904D01*
X138588809Y-46811904D02*
X138684047Y-46764285D01*
X138684047Y-46764285D02*
X138922142Y-46764285D01*
X138922142Y-46764285D02*
X139017380Y-46811904D01*
X139017380Y-46811904D02*
X139065000Y-46859523D01*
X139065000Y-46859523D02*
X139112619Y-46954761D01*
X139112619Y-46954761D02*
X139112619Y-47240475D01*
X139112619Y-47240475D02*
X139065000Y-47335713D01*
X139065000Y-47335713D02*
X139017380Y-47383332D01*
D13*
%TO.C,J4*%
X114448714Y-133267118D02*
X114448714Y-134083547D01*
X114448714Y-134083547D02*
X114394285Y-134246832D01*
X114394285Y-134246832D02*
X114285428Y-134355690D01*
X114285428Y-134355690D02*
X114122142Y-134410118D01*
X114122142Y-134410118D02*
X114013285Y-134410118D01*
X115482857Y-133648118D02*
X115482857Y-134410118D01*
X115210714Y-133212690D02*
X114938571Y-134029118D01*
X114938571Y-134029118D02*
X115646142Y-134029118D01*
D14*
X116825167Y-142353608D02*
X116291041Y-142353608D01*
X116558104Y-142353608D02*
X116558104Y-141418888D01*
X116558104Y-141418888D02*
X116469083Y-141552419D01*
X116469083Y-141552419D02*
X116380062Y-141641440D01*
X116380062Y-141641440D02*
X116291041Y-141685951D01*
X120818531Y-141387188D02*
X121397167Y-141387188D01*
X121397167Y-141387188D02*
X121085594Y-141743272D01*
X121085594Y-141743272D02*
X121219125Y-141743272D01*
X121219125Y-141743272D02*
X121308146Y-141787782D01*
X121308146Y-141787782D02*
X121352657Y-141832293D01*
X121352657Y-141832293D02*
X121397167Y-141921314D01*
X121397167Y-141921314D02*
X121397167Y-142143866D01*
X121397167Y-142143866D02*
X121352657Y-142232887D01*
X121352657Y-142232887D02*
X121308146Y-142277398D01*
X121308146Y-142277398D02*
X121219125Y-142321908D01*
X121219125Y-142321908D02*
X120952062Y-142321908D01*
X120952062Y-142321908D02*
X120863041Y-142277398D01*
X120863041Y-142277398D02*
X120818531Y-142232887D01*
X118640541Y-141507909D02*
X118685052Y-141463398D01*
X118685052Y-141463398D02*
X118774073Y-141418888D01*
X118774073Y-141418888D02*
X118996625Y-141418888D01*
X118996625Y-141418888D02*
X119085646Y-141463398D01*
X119085646Y-141463398D02*
X119130157Y-141507909D01*
X119130157Y-141507909D02*
X119174667Y-141596930D01*
X119174667Y-141596930D02*
X119174667Y-141685951D01*
X119174667Y-141685951D02*
X119130157Y-141819482D01*
X119130157Y-141819482D02*
X118596031Y-142353608D01*
X118596031Y-142353608D02*
X119174667Y-142353608D01*
X123340146Y-141730461D02*
X123340146Y-142353608D01*
X123117594Y-141374378D02*
X122895041Y-142042035D01*
X122895041Y-142042035D02*
X123473678Y-142042035D01*
D15*
X114495209Y-141259248D02*
X114383933Y-141203610D01*
X114383933Y-141203610D02*
X114217019Y-141203610D01*
X114217019Y-141203610D02*
X114050104Y-141259248D01*
X114050104Y-141259248D02*
X113938828Y-141370524D01*
X113938828Y-141370524D02*
X113883190Y-141481800D01*
X113883190Y-141481800D02*
X113827552Y-141704352D01*
X113827552Y-141704352D02*
X113827552Y-141871267D01*
X113827552Y-141871267D02*
X113883190Y-142093819D01*
X113883190Y-142093819D02*
X113938828Y-142205095D01*
X113938828Y-142205095D02*
X114050104Y-142316372D01*
X114050104Y-142316372D02*
X114217019Y-142372010D01*
X114217019Y-142372010D02*
X114328295Y-142372010D01*
X114328295Y-142372010D02*
X114495209Y-142316372D01*
X114495209Y-142316372D02*
X114550847Y-142260733D01*
X114550847Y-142260733D02*
X114550847Y-141871267D01*
X114550847Y-141871267D02*
X114328295Y-141871267D01*
D10*
%TO.C,C5*%
X131183333Y-59117380D02*
X131135714Y-59165000D01*
X131135714Y-59165000D02*
X130992857Y-59212619D01*
X130992857Y-59212619D02*
X130897619Y-59212619D01*
X130897619Y-59212619D02*
X130754762Y-59165000D01*
X130754762Y-59165000D02*
X130659524Y-59069761D01*
X130659524Y-59069761D02*
X130611905Y-58974523D01*
X130611905Y-58974523D02*
X130564286Y-58784047D01*
X130564286Y-58784047D02*
X130564286Y-58641190D01*
X130564286Y-58641190D02*
X130611905Y-58450714D01*
X130611905Y-58450714D02*
X130659524Y-58355476D01*
X130659524Y-58355476D02*
X130754762Y-58260238D01*
X130754762Y-58260238D02*
X130897619Y-58212619D01*
X130897619Y-58212619D02*
X130992857Y-58212619D01*
X130992857Y-58212619D02*
X131135714Y-58260238D01*
X131135714Y-58260238D02*
X131183333Y-58307857D01*
X132088095Y-58212619D02*
X131611905Y-58212619D01*
X131611905Y-58212619D02*
X131564286Y-58688809D01*
X131564286Y-58688809D02*
X131611905Y-58641190D01*
X131611905Y-58641190D02*
X131707143Y-58593571D01*
X131707143Y-58593571D02*
X131945238Y-58593571D01*
X131945238Y-58593571D02*
X132040476Y-58641190D01*
X132040476Y-58641190D02*
X132088095Y-58688809D01*
X132088095Y-58688809D02*
X132135714Y-58784047D01*
X132135714Y-58784047D02*
X132135714Y-59022142D01*
X132135714Y-59022142D02*
X132088095Y-59117380D01*
X132088095Y-59117380D02*
X132040476Y-59165000D01*
X132040476Y-59165000D02*
X131945238Y-59212619D01*
X131945238Y-59212619D02*
X131707143Y-59212619D01*
X131707143Y-59212619D02*
X131611905Y-59165000D01*
X131611905Y-59165000D02*
X131564286Y-59117380D01*
%TO.C,C4*%
X128447333Y-54417380D02*
X128399714Y-54465000D01*
X128399714Y-54465000D02*
X128256857Y-54512619D01*
X128256857Y-54512619D02*
X128161619Y-54512619D01*
X128161619Y-54512619D02*
X128018762Y-54465000D01*
X128018762Y-54465000D02*
X127923524Y-54369761D01*
X127923524Y-54369761D02*
X127875905Y-54274523D01*
X127875905Y-54274523D02*
X127828286Y-54084047D01*
X127828286Y-54084047D02*
X127828286Y-53941190D01*
X127828286Y-53941190D02*
X127875905Y-53750714D01*
X127875905Y-53750714D02*
X127923524Y-53655476D01*
X127923524Y-53655476D02*
X128018762Y-53560238D01*
X128018762Y-53560238D02*
X128161619Y-53512619D01*
X128161619Y-53512619D02*
X128256857Y-53512619D01*
X128256857Y-53512619D02*
X128399714Y-53560238D01*
X128399714Y-53560238D02*
X128447333Y-53607857D01*
X129304476Y-53845952D02*
X129304476Y-54512619D01*
X129066381Y-53465000D02*
X128828286Y-54179285D01*
X128828286Y-54179285D02*
X129447333Y-54179285D01*
%TO.C,H2*%
X154112619Y-63011904D02*
X153112619Y-63011904D01*
X153588809Y-63011904D02*
X153588809Y-62440476D01*
X154112619Y-62440476D02*
X153112619Y-62440476D01*
X153207857Y-62011904D02*
X153160238Y-61964285D01*
X153160238Y-61964285D02*
X153112619Y-61869047D01*
X153112619Y-61869047D02*
X153112619Y-61630952D01*
X153112619Y-61630952D02*
X153160238Y-61535714D01*
X153160238Y-61535714D02*
X153207857Y-61488095D01*
X153207857Y-61488095D02*
X153303095Y-61440476D01*
X153303095Y-61440476D02*
X153398333Y-61440476D01*
X153398333Y-61440476D02*
X153541190Y-61488095D01*
X153541190Y-61488095D02*
X154112619Y-62059523D01*
X154112619Y-62059523D02*
X154112619Y-61440476D01*
D12*
%TO.C,J1*%
X104812619Y-31683333D02*
X105526904Y-31683333D01*
X105526904Y-31683333D02*
X105669761Y-31730952D01*
X105669761Y-31730952D02*
X105765000Y-31826190D01*
X105765000Y-31826190D02*
X105812619Y-31969047D01*
X105812619Y-31969047D02*
X105812619Y-32064285D01*
X105812619Y-30683333D02*
X105812619Y-31254761D01*
X105812619Y-30969047D02*
X104812619Y-30969047D01*
X104812619Y-30969047D02*
X104955476Y-31064285D01*
X104955476Y-31064285D02*
X105050714Y-31159523D01*
X105050714Y-31159523D02*
X105098333Y-31254761D01*
D10*
%TO.C,U3*%
X160487876Y-78008296D02*
X160487876Y-79335915D01*
X160487876Y-79335915D02*
X160565971Y-79492105D01*
X160565971Y-79492105D02*
X160644066Y-79570201D01*
X160644066Y-79570201D02*
X160800257Y-79648296D01*
X160800257Y-79648296D02*
X161112638Y-79648296D01*
X161112638Y-79648296D02*
X161268828Y-79570201D01*
X161268828Y-79570201D02*
X161346923Y-79492105D01*
X161346923Y-79492105D02*
X161425019Y-79335915D01*
X161425019Y-79335915D02*
X161425019Y-78008296D01*
X162049780Y-78008296D02*
X163065018Y-78008296D01*
X163065018Y-78008296D02*
X162518352Y-78633058D01*
X162518352Y-78633058D02*
X162752637Y-78633058D01*
X162752637Y-78633058D02*
X162908828Y-78711153D01*
X162908828Y-78711153D02*
X162986923Y-78789248D01*
X162986923Y-78789248D02*
X163065018Y-78945439D01*
X163065018Y-78945439D02*
X163065018Y-79335915D01*
X163065018Y-79335915D02*
X162986923Y-79492105D01*
X162986923Y-79492105D02*
X162908828Y-79570201D01*
X162908828Y-79570201D02*
X162752637Y-79648296D01*
X162752637Y-79648296D02*
X162284066Y-79648296D01*
X162284066Y-79648296D02*
X162127875Y-79570201D01*
X162127875Y-79570201D02*
X162049780Y-79492105D01*
D16*
%TO.C,U1*%
X136812000Y-51682000D02*
X136812000Y-53882000D01*
X131592000Y-51682000D02*
X131592000Y-53882000D01*
X131592000Y-51682000D02*
X131592000Y-49482000D01*
X136812000Y-51682000D02*
X136812000Y-48082000D01*
%TO.C,A1*%
X136920000Y-69800000D02*
X136920000Y-113240000D01*
X136920000Y-69800000D02*
X142000000Y-69800000D01*
X136920000Y-113240000D02*
X154960000Y-113240000D01*
X139590000Y-72470000D02*
X136920000Y-72470000D01*
X139590000Y-110570000D02*
X136920000Y-110570000D01*
X139590000Y-110570000D02*
X139590000Y-72470000D01*
X142000000Y-67260000D02*
X149880000Y-67260000D01*
X142000000Y-77680000D02*
X142000000Y-67260000D01*
X149880000Y-67260000D02*
X149880000Y-77680000D01*
X149880000Y-77680000D02*
X142000000Y-77680000D01*
X152290000Y-72470000D02*
X154960000Y-72470000D01*
X152290000Y-108030000D02*
X152290000Y-72470000D01*
X152290000Y-108030000D02*
X152290000Y-110570000D01*
X152290000Y-108030000D02*
X154960000Y-108030000D01*
X152290000Y-110570000D02*
X154960000Y-110570000D01*
X154960000Y-69800000D02*
X149880000Y-69800000D01*
X154960000Y-108030000D02*
X154960000Y-69800000D01*
X154960000Y-113240000D02*
X154960000Y-110570000D01*
D17*
%TO.C,IC2*%
X140330000Y-114015000D02*
X140330000Y-121979000D01*
X130170000Y-115121000D02*
X130170000Y-121979000D01*
D12*
%TO.C,J2*%
X121256842Y-147071464D02*
X122255621Y-149031678D01*
X121256842Y-147071464D02*
X121761216Y-147235345D01*
X121256842Y-147071464D02*
X132929027Y-141124188D01*
X122255621Y-149031678D02*
X122419502Y-148527304D01*
X122255621Y-149031678D02*
X122759995Y-149195559D01*
X124003484Y-152462053D02*
X124167365Y-151957680D01*
X124003484Y-152462053D02*
X124507858Y-152625934D01*
X124548273Y-153531261D02*
X124003484Y-152462053D01*
X124548273Y-153531261D02*
X124712154Y-153026887D01*
X121761216Y-147235345D02*
X121256842Y-147071464D01*
X121761216Y-147235345D02*
X122419502Y-148527304D01*
X122419502Y-148527304D02*
X122923876Y-148691185D01*
X122759995Y-149195559D02*
X124167365Y-151957680D01*
X122759995Y-149195559D02*
X122923876Y-148691185D01*
X124167365Y-151957680D02*
X124671739Y-152121561D01*
X124507858Y-152625934D02*
X124712154Y-153026887D01*
X124507858Y-152625934D02*
X124671739Y-152121561D01*
X124712154Y-153026887D02*
X124507858Y-152625934D01*
X122923876Y-148691185D02*
X124671739Y-152121561D01*
D16*
X125088300Y-146903737D02*
X126958740Y-150574684D01*
D12*
X127326303Y-151274040D02*
X132761443Y-148504698D01*
X127496549Y-151608167D02*
X124712154Y-153026887D01*
X127496549Y-151608167D02*
X127326303Y-151274040D01*
X127830677Y-151437921D02*
X127326303Y-151274040D01*
X127830677Y-151437921D02*
X132597562Y-149009071D01*
X128000923Y-151772048D02*
X124548273Y-153531261D01*
X128000923Y-151772048D02*
X127496549Y-151608167D01*
X128000923Y-151772048D02*
X127830677Y-151437921D01*
X129768616Y-150450491D02*
X129264242Y-150286610D01*
X130659623Y-149996501D02*
X130823504Y-149492127D01*
D16*
X129641007Y-146896010D02*
X130576227Y-148731483D01*
X130576227Y-148731483D02*
X126958740Y-150574684D01*
D12*
X132597562Y-149009071D02*
X132761443Y-148504698D01*
X132767808Y-149343199D02*
X132597562Y-149009071D01*
X132767808Y-149343199D02*
X132931689Y-148838825D01*
X132767808Y-149343199D02*
X136220459Y-147583986D01*
X132931689Y-148838825D02*
X132761443Y-148504698D01*
X132931689Y-148838825D02*
X135716085Y-147420105D01*
D16*
X130541260Y-144125316D02*
X125088300Y-146903737D01*
X130541260Y-144125316D02*
X131476480Y-145960789D01*
X131476480Y-145960789D02*
X129641007Y-146896010D01*
X131930470Y-146851796D02*
X132411700Y-147796263D01*
X132411700Y-147796263D02*
X131467233Y-148277492D01*
D12*
X133259552Y-143424896D02*
X135007415Y-146855271D01*
X133259552Y-143424896D02*
X133423433Y-142920522D01*
X135007415Y-146855271D02*
X135511789Y-147019152D01*
X132765146Y-141628562D02*
X121761216Y-147235345D01*
X132765146Y-141628562D02*
X133423433Y-142920522D01*
X133763925Y-143588777D02*
X133259552Y-143424896D01*
X133763925Y-143588777D02*
X135171296Y-146350897D01*
X135171296Y-146350897D02*
X135007415Y-146855271D01*
X135716085Y-147420105D02*
X135511789Y-147019152D01*
X132929027Y-141124188D02*
X132765146Y-141628562D01*
X132929027Y-141124188D02*
X133927807Y-143084403D01*
X133927807Y-143084403D02*
X133423433Y-142920522D01*
X133927807Y-143084403D02*
X133763925Y-143588777D01*
X135675670Y-146514778D02*
X135171296Y-146350897D01*
X135675670Y-146514778D02*
X135511789Y-147019152D01*
X136220459Y-147583986D02*
X135716085Y-147420105D01*
X136220459Y-147583986D02*
X135675670Y-146514778D01*
D18*
X133947982Y-149547811D02*
G75*
G03*
X133947982Y-149547811I-150000J0D01*
G01*
D12*
%TO.C,J3*%
X133586234Y-141264197D02*
X135000367Y-142949494D01*
X133586234Y-141264197D02*
X134114546Y-141310418D01*
X133586234Y-141264197D02*
X143621416Y-132843679D01*
X135000367Y-142949494D02*
X135046588Y-142421182D01*
X135000367Y-142949494D02*
X135528679Y-142995716D01*
X137475099Y-145898766D02*
X137521320Y-145370453D01*
X137475099Y-145898766D02*
X138003411Y-145944987D01*
X138246444Y-146818019D02*
X137475099Y-145898766D01*
X138246444Y-146818019D02*
X138292666Y-146289707D01*
X134114546Y-141310418D02*
X133586234Y-141264197D01*
X134114546Y-141310418D02*
X135046588Y-142421182D01*
X135046588Y-142421182D02*
X135574900Y-142467404D01*
X135528679Y-142995716D02*
X137521320Y-145370453D01*
X135528679Y-142995716D02*
X135574900Y-142467404D01*
X137521320Y-145370453D02*
X138049632Y-145416675D01*
X138003411Y-145944987D02*
X138292666Y-146289707D01*
X138003411Y-145944987D02*
X138049632Y-145416675D01*
X138292666Y-146289707D02*
X138003411Y-145944987D01*
X135574900Y-142467404D02*
X138049632Y-145416675D01*
D16*
X137281762Y-140238879D02*
X139930046Y-143394982D01*
D12*
X140445509Y-143993729D02*
X145118380Y-140072724D01*
X140686554Y-144280996D02*
X138292666Y-146289707D01*
X140686554Y-144280996D02*
X140445509Y-143993729D01*
X140973821Y-144039950D02*
X140445509Y-143993729D01*
X140973821Y-144039950D02*
X145072159Y-140601036D01*
X141214867Y-144327217D02*
X138246444Y-146818019D01*
X141214867Y-144327217D02*
X140686554Y-144280996D01*
X141214867Y-144327217D02*
X140973821Y-144039950D01*
X142639968Y-142641887D02*
X142111656Y-142595666D01*
X143406012Y-141999100D02*
X143452234Y-141470788D01*
D16*
X141716044Y-139207212D02*
X143040187Y-140785264D01*
X143040187Y-140785264D02*
X139930046Y-143394982D01*
D12*
X145072159Y-140601036D02*
X145118380Y-140072724D01*
X145313204Y-140888303D02*
X145072159Y-140601036D01*
X145313204Y-140888303D02*
X145359426Y-140359991D01*
X145313204Y-140888303D02*
X148281626Y-138397501D01*
X145359426Y-140359991D02*
X145118380Y-140072724D01*
X145359426Y-140359991D02*
X147753314Y-138351280D01*
D16*
X141969954Y-136305018D02*
X137281762Y-140238879D01*
X141969954Y-136305018D02*
X143294096Y-137883070D01*
X143294096Y-137883070D02*
X141716044Y-139207212D01*
X143936884Y-138649114D02*
X144618238Y-139461121D01*
X144618238Y-139461121D02*
X143806231Y-140142476D01*
D12*
X144461016Y-135011067D02*
X146935748Y-137960339D01*
X144461016Y-135011067D02*
X144507237Y-134482755D01*
X146935748Y-137960339D02*
X147464060Y-138006560D01*
X143575195Y-133371991D02*
X134114546Y-141310418D01*
X143575195Y-133371991D02*
X144507237Y-134482755D01*
X144989328Y-135057289D02*
X144461016Y-135011067D01*
X144989328Y-135057289D02*
X146981969Y-137432027D01*
X146981969Y-137432027D02*
X146935748Y-137960339D01*
X147753314Y-138351280D02*
X147464060Y-138006560D01*
X143621416Y-132843679D02*
X143575195Y-133371991D01*
X143621416Y-132843679D02*
X145035549Y-134528977D01*
X145035549Y-134528977D02*
X144507237Y-134482755D01*
X145035549Y-134528977D02*
X144989328Y-135057289D01*
X147510281Y-137478248D02*
X146981969Y-137432027D01*
X147510281Y-137478248D02*
X147464060Y-138006560D01*
X148281626Y-138397501D02*
X147753314Y-138351280D01*
X148281626Y-138397501D02*
X147510281Y-137478248D01*
D18*
X146513003Y-140855932D02*
G75*
G03*
X146513003Y-140855932I-150000J0D01*
G01*
D16*
%TO.C,C2*%
X134309733Y-45076000D02*
X134602267Y-45076000D01*
X134309733Y-46096000D02*
X134602267Y-46096000D01*
%TO.C,D3*%
X146610000Y-57050000D02*
X146610000Y-55050000D01*
X146610000Y-57050000D02*
X142600000Y-57050000D01*
X146610000Y-55050000D02*
X142600000Y-55050000D01*
%TO.C,D1*%
X152210000Y-55950000D02*
X152210000Y-53950000D01*
X152210000Y-55950000D02*
X148200000Y-55950000D01*
X152210000Y-53950000D02*
X148200000Y-53950000D01*
%TO.C,R4*%
X142049000Y-49438936D02*
X142049000Y-49893064D01*
X140579000Y-49438936D02*
X140579000Y-49893064D01*
%TO.C,R2*%
X138747064Y-46321000D02*
X138292936Y-46321000D01*
X138747064Y-44851000D02*
X138292936Y-44851000D01*
%TO.C,U2*%
X153080000Y-115710000D02*
X142800000Y-115710000D01*
X142800000Y-115710000D02*
X142800000Y-121010000D01*
X153080000Y-117360000D02*
X153080000Y-115710000D01*
X153080000Y-121010000D02*
X153080000Y-119360000D01*
X142800000Y-121010000D02*
X153080000Y-121010000D01*
X153080000Y-117360000D02*
G75*
G03*
X153080000Y-119360000I0J-1000000D01*
G01*
D13*
%TO.C,J5*%
X114930000Y-125060000D02*
X114930000Y-126560000D01*
X114930000Y-126560000D02*
X114930000Y-131060000D01*
X114930000Y-126560000D02*
X115930000Y-126560000D01*
X115930000Y-126060000D02*
X115930000Y-126560000D01*
X115930000Y-126060000D02*
X118430000Y-126060000D01*
X115930000Y-126560000D02*
X115930000Y-130060000D01*
X115930000Y-130060000D02*
X114930000Y-131060000D01*
X115930000Y-130060000D02*
X116430000Y-130060000D01*
X116430000Y-130060000D02*
X116430000Y-131060000D01*
X116430000Y-131060000D02*
X116680000Y-131060000D01*
X118430000Y-125060000D02*
X114930000Y-125060000D01*
X118430000Y-126060000D02*
X118430000Y-125060000D01*
X118430000Y-131060000D02*
X114930000Y-131060000D01*
X120200000Y-130060000D02*
X118430000Y-131060000D01*
X120200000Y-130060000D02*
X122200000Y-130060000D01*
X122200000Y-130060000D02*
X123970000Y-131060000D01*
X123970000Y-125060000D02*
X123970000Y-126060000D01*
X123970000Y-126060000D02*
X126470000Y-126060000D01*
X123970000Y-131060000D02*
X118430000Y-131060000D01*
X125970000Y-130060000D02*
X125970000Y-131060000D01*
X125970000Y-131060000D02*
X123970000Y-131060000D01*
X125970000Y-131060000D02*
X127470000Y-131060000D01*
X126470000Y-126060000D02*
X126470000Y-126560000D01*
X126470000Y-126560000D02*
X126470000Y-130060000D01*
X126470000Y-130060000D02*
X125970000Y-130060000D01*
X126470000Y-130060000D02*
X127470000Y-131060000D01*
X127470000Y-125060000D02*
X123970000Y-125060000D01*
X127470000Y-125060000D02*
X127470000Y-126560000D01*
X127470000Y-126560000D02*
X126470000Y-126560000D01*
X127470000Y-126560000D02*
X127470000Y-131060000D01*
D19*
X118447200Y-132060000D02*
G75*
G03*
X118447200Y-132060000I-803200J0D01*
G01*
X120796700Y-132060000D02*
G75*
G03*
X120796700Y-132060000I-803200J0D01*
G01*
X123019200Y-132060000D02*
G75*
G03*
X123019200Y-132060000I-803200J0D01*
G01*
X125152800Y-132060000D02*
G75*
G03*
X125152800Y-132060000I-803200J0D01*
G01*
D16*
%TO.C,D2*%
X139200000Y-58860000D02*
X141200000Y-58860000D01*
X139200000Y-58860000D02*
X139200000Y-54850000D01*
X141200000Y-58860000D02*
X141200000Y-54850000D01*
%TO.C,R5*%
X145097000Y-49422936D02*
X145097000Y-49877064D01*
X143627000Y-49422936D02*
X143627000Y-49877064D01*
D17*
%TO.C,IC1*%
X140030000Y-124415000D02*
X140030000Y-132379000D01*
X129870000Y-125521000D02*
X129870000Y-132379000D01*
D16*
%TO.C,R1*%
X130022936Y-45115000D02*
X130477064Y-45115000D01*
X130022936Y-46585000D02*
X130477064Y-46585000D01*
%TO.C,R3*%
X148145000Y-49438936D02*
X148145000Y-49893064D01*
X146675000Y-49438936D02*
X146675000Y-49893064D01*
%TO.C,U4*%
X155945000Y-74690000D02*
X161145000Y-74690000D01*
X161145000Y-74690000D02*
X161145000Y-69390000D01*
X155945000Y-73040000D02*
X155945000Y-74690000D01*
X155945000Y-69390000D02*
X155945000Y-71040000D01*
X161145000Y-69390000D02*
X155945000Y-69390000D01*
X155945000Y-73040000D02*
G75*
G03*
X155945000Y-71040000I0J1000000D01*
G01*
D12*
%TO.C,J6*%
X110147248Y-147358655D02*
X112396758Y-157102356D01*
X110147248Y-147358655D02*
X111121618Y-147133704D01*
X111103290Y-151499728D02*
X120846990Y-149250217D01*
X112396758Y-157102356D02*
X112883943Y-156989880D01*
X111590475Y-151387252D02*
X112265328Y-154310363D01*
X112265328Y-154310363D02*
X113044824Y-154130402D01*
X111121618Y-147133704D02*
X111920194Y-150592718D01*
X113033702Y-155415850D02*
X113258653Y-156390220D01*
X113044824Y-154130402D02*
X113194708Y-153890537D01*
X113093480Y-153452071D02*
X112119110Y-153677022D01*
X113194708Y-153890537D02*
X112564845Y-151162301D01*
X113408411Y-154816189D02*
X114187907Y-154636228D01*
X114187907Y-154636228D02*
X114337791Y-154396364D01*
X114262849Y-154516296D02*
X115432093Y-154246355D01*
X113651690Y-151424535D02*
X114337791Y-154396364D01*
X113651690Y-151424535D02*
X114626060Y-151199584D01*
X114626060Y-151199584D02*
X115312161Y-154171413D01*
X115312161Y-154171413D02*
X115552025Y-154321297D01*
X115552025Y-154321297D02*
X118085387Y-153736424D01*
X118085387Y-153736424D02*
X118235271Y-153496560D01*
X118160329Y-153616492D02*
X119329573Y-153346551D01*
X117549170Y-150524731D02*
X118235271Y-153496560D01*
X118523541Y-150299780D02*
X117549170Y-150524731D01*
X118523541Y-150299780D02*
X119209641Y-153271609D01*
X119209641Y-153271609D02*
X119449505Y-153421492D01*
X119449505Y-153421492D02*
X120229002Y-153241532D01*
X119914070Y-151877414D02*
X120888440Y-151652463D01*
X120015298Y-152315880D02*
X119385435Y-149587644D01*
X120015298Y-152315880D02*
X120255162Y-152465764D01*
X118916578Y-145334096D02*
X119715154Y-148793109D01*
X119715154Y-148793109D02*
X111920194Y-150592718D01*
X120828662Y-153616241D02*
X121053613Y-154590611D01*
X120359805Y-149362693D02*
X121034658Y-152285803D01*
X121034658Y-152285803D02*
X120255162Y-152465764D01*
X119890948Y-145109145D02*
X118916578Y-145334096D01*
X119890948Y-145109145D02*
X122140459Y-154852845D01*
X122140459Y-154852845D02*
X121653274Y-154965321D01*
X113408411Y-154816190D02*
G75*
G03*
X113033703Y-155415850I112477J-487185D01*
G01*
X112883943Y-156989880D02*
G75*
G03*
X113258652Y-156390220I-112477J487186D01*
G01*
X120828661Y-153616241D02*
G75*
G03*
X120229002Y-153241533I-487184J-112476D01*
G01*
X121053613Y-154590611D02*
G75*
G03*
X121653274Y-154965321I487185J112475D01*
G01*
X111871037Y-145934383D02*
X111571206Y-145747028D01*
X112058391Y-145634553D01*
X111871037Y-145934383D01*
G36*
X111871037Y-145934383D02*
G01*
X111571206Y-145747028D01*
X112058391Y-145634553D01*
X111871037Y-145934383D01*
G37*
D16*
%TO.C,Y1*%
X157925000Y-113085000D02*
X157925000Y-106835000D01*
X162975000Y-113085000D02*
X162975000Y-106835000D01*
X157925000Y-113085000D02*
G75*
G03*
X162975000Y-113085000I2525000J0D01*
G01*
X162975000Y-106835000D02*
G75*
G03*
X157925000Y-106835000I-2525000J0D01*
G01*
D12*
%TO.C,U5*%
X111634379Y-139197708D02*
G75*
G03*
X110875336Y-137569933I-1193408J434366D01*
G01*
X91780782Y-130620083D02*
G75*
G03*
X90153007Y-131379128I-434365J-1193410D01*
G01*
X103925487Y-156664486D02*
G75*
G03*
X105553261Y-155905443I434366J1193407D01*
G01*
X84071890Y-148086862D02*
G75*
G03*
X84830933Y-149714637I1193407J-434367D01*
G01*
X91780782Y-130620084D02*
X110875336Y-137569933D01*
D16*
X110560872Y-140094638D02*
X108061289Y-139184864D01*
X106196695Y-152085116D02*
X110560872Y-140094638D01*
X106196695Y-152085116D02*
X103697112Y-151175342D01*
X103697112Y-151175342D02*
X108061289Y-139184864D01*
X105762329Y-153278525D02*
X105307442Y-154528317D01*
X105307442Y-154528317D02*
X104057651Y-154073430D01*
D12*
X105553262Y-155905443D02*
X111634380Y-139197708D01*
X84071889Y-148086862D02*
X90153007Y-131379128D01*
X103925487Y-156664487D02*
X84830933Y-149714638D01*
D16*
%TO.C,C1*%
X128467733Y-48378000D02*
X128760267Y-48378000D01*
X128467733Y-49398000D02*
X128760267Y-49398000D01*
%TO.C,R11*%
X157604724Y-78372500D02*
X157095276Y-78372500D01*
X157604724Y-77327500D02*
X157095276Y-77327500D01*
%TO.C,C3*%
X138960000Y-50103733D02*
X138960000Y-50396267D01*
X137940000Y-50103733D02*
X137940000Y-50396267D01*
D13*
%TO.C,J4*%
X113780000Y-134960000D02*
X113780000Y-136460000D01*
X113780000Y-136460000D02*
X113780000Y-140960000D01*
X113780000Y-136460000D02*
X114780000Y-136460000D01*
X114780000Y-135960000D02*
X114780000Y-136460000D01*
X114780000Y-135960000D02*
X117280000Y-135960000D01*
X114780000Y-136460000D02*
X114780000Y-139960000D01*
X114780000Y-139960000D02*
X113780000Y-140960000D01*
X114780000Y-139960000D02*
X115280000Y-139960000D01*
X115280000Y-139960000D02*
X115280000Y-140960000D01*
X115280000Y-140960000D02*
X115530000Y-140960000D01*
X117280000Y-134960000D02*
X113780000Y-134960000D01*
X117280000Y-135960000D02*
X117280000Y-134960000D01*
X117280000Y-140960000D02*
X113780000Y-140960000D01*
X119050000Y-139960000D02*
X117280000Y-140960000D01*
X119050000Y-139960000D02*
X121050000Y-139960000D01*
X121050000Y-139960000D02*
X122820000Y-140960000D01*
X122820000Y-134960000D02*
X122820000Y-135960000D01*
X122820000Y-135960000D02*
X125320000Y-135960000D01*
X122820000Y-140960000D02*
X117280000Y-140960000D01*
X124820000Y-139960000D02*
X124820000Y-140960000D01*
X124820000Y-140960000D02*
X122820000Y-140960000D01*
X124820000Y-140960000D02*
X126320000Y-140960000D01*
X125320000Y-135960000D02*
X125320000Y-136460000D01*
X125320000Y-136460000D02*
X125320000Y-139960000D01*
X125320000Y-139960000D02*
X124820000Y-139960000D01*
X125320000Y-139960000D02*
X126320000Y-140960000D01*
X126320000Y-134960000D02*
X122820000Y-134960000D01*
X126320000Y-134960000D02*
X126320000Y-136460000D01*
X126320000Y-136460000D02*
X125320000Y-136460000D01*
X126320000Y-136460000D02*
X126320000Y-140960000D01*
D19*
X117297200Y-141960000D02*
G75*
G03*
X117297200Y-141960000I-803200J0D01*
G01*
X119646700Y-141960000D02*
G75*
G03*
X119646700Y-141960000I-803200J0D01*
G01*
X121869200Y-141960000D02*
G75*
G03*
X121869200Y-141960000I-803200J0D01*
G01*
X124002800Y-141960000D02*
G75*
G03*
X124002800Y-141960000I-803200J0D01*
G01*
D16*
%TO.C,C5*%
X128696267Y-59260000D02*
X128403733Y-59260000D01*
X128696267Y-58240000D02*
X128403733Y-58240000D01*
%TO.C,C4*%
X128760267Y-52954000D02*
X128467733Y-52954000D01*
X128760267Y-51934000D02*
X128467733Y-51934000D01*
D12*
%TO.C,J1*%
X113550000Y-41350000D02*
G75*
G03*
X113550000Y-41350000I-3300000J0D01*
G01*
D18*
X124950000Y-33850000D02*
G75*
G03*
X123950000Y-32850000I-1000000J0D01*
G01*
X105450000Y-32850000D02*
G75*
G03*
X103950000Y-34350000I0J-1500000D01*
G01*
X123950000Y-49850000D02*
G75*
G03*
X124950000Y-48850000I-3J1000003D01*
G01*
X103950000Y-48350000D02*
G75*
G03*
X105450000Y-49850000I1500001J1D01*
G01*
X123950000Y-32850000D02*
X105450000Y-32850000D01*
X103950000Y-34350000D02*
X103950000Y-48350000D01*
D17*
X105210000Y-46430000D02*
X107750000Y-46430000D01*
X106480000Y-47700000D02*
X106480000Y-45160000D01*
D18*
X124950000Y-48850000D02*
X124950000Y-33850000D01*
X105450000Y-49850000D02*
X123950000Y-49850000D01*
D20*
%TO.C,U3*%
X157648000Y-80743800D02*
X157648000Y-80997800D01*
X157648000Y-83182200D02*
X157648000Y-83664800D01*
X157648000Y-85595200D02*
X157648000Y-86204800D01*
X157648000Y-88135200D02*
X157648000Y-88744800D01*
X157648000Y-90675200D02*
X157648000Y-91284800D01*
X157648000Y-93215200D02*
X157648000Y-93824800D01*
X157648000Y-95755200D02*
X157648000Y-96364800D01*
X157648000Y-98295200D02*
X157648000Y-98904800D01*
X157648000Y-100835200D02*
X157648000Y-101444800D01*
X157648000Y-103375200D02*
X157648000Y-103756200D01*
X157648000Y-103756200D02*
X164252000Y-103756200D01*
X160645200Y-80743800D02*
X157648000Y-80743800D01*
X161254800Y-80743800D02*
X160645200Y-80743800D01*
X164252000Y-80743800D02*
X161254800Y-80743800D01*
X164252000Y-81124800D02*
X164252000Y-80743800D01*
X164252000Y-83664800D02*
X164252000Y-83055200D01*
X164252000Y-86204800D02*
X164252000Y-85595200D01*
X164252000Y-88744800D02*
X164252000Y-88135200D01*
X164252000Y-91284800D02*
X164252000Y-90675200D01*
X164252000Y-93824800D02*
X164252000Y-93215200D01*
X164252000Y-96364800D02*
X164252000Y-95755200D01*
X164252000Y-98904800D02*
X164252000Y-98295200D01*
X164252000Y-101444800D02*
X164252000Y-100835200D01*
X164252000Y-103756200D02*
X164252000Y-103375200D01*
D12*
X160645200Y-80743800D02*
G75*
G03*
X161254800Y-80743800I304800J0D01*
G01*
%TD*%
M02*
