M48
; DRILL file {KiCad 7.0.1-0} date 2023 May 25, Thursday 16:42:52
; FORMAT={-:-/ absolute / inch / decimal}
; #@! TF.CreationDate,2023-05-25T16:42:52+09:00
; #@! TF.GenerationSoftware,Kicad,Pcbnew,7.0.1-0
; #@! TF.FileFunction,Plated,1,2,PTH
FMAT,2
INCH
; #@! TA.AperFunction,Plated,PTH,ViaDrill
T1C0.0098
; #@! TA.AperFunction,Plated,PTH,ComponentDrill
T2C0.0315
; #@! TA.AperFunction,Plated,PTH,ComponentDrill
T3C0.0335
; #@! TA.AperFunction,Plated,PTH,ComponentDrill
T4C0.0394
; #@! TA.AperFunction,Plated,PTH,ComponentDrill
T5C0.0591
%
G90
G05
T1
X3.7756Y-4.0866
X3.8307Y-4.7638
X3.9409Y-3.252
X4.1063Y-5.3307
X4.1929Y-4.1417
X4.2638Y-3.4173
X4.3346Y-4.8425
X4.3819Y-3.8031
X4.3976Y-5.6378
X4.4055Y-2.622
X4.4134Y-4.5039
X4.7756Y-3.4016
X4.7756Y-4.1496
X4.7835Y-4.8189
X5.0039Y-3.7953
X5.0118Y-2.8583
X5.0512Y-2.1693
X5.0512Y-4.4724
X5.122Y-2.8425
X5.1929Y-5.6457
X5.2402Y-3.0945
X5.248Y-3.4961
X5.2717Y-4.189
X5.2795Y-3.8031
X5.3268Y-3.063
X5.3661Y-4.8189
X5.374Y-5.4409
X5.4291Y-2.8819
X5.4843Y-4.0551
X5.4843Y-4.1575
X5.5Y-4.252
X5.5315Y-2.5748
X5.5394Y-3.4803
X5.5472Y-3.7953
X5.5709Y-3.8819
X5.6181Y-3.1654
X5.626Y-3.4016
X5.6339Y-3.9213
X5.6339Y-4.0157
X5.6417Y-3.5748
X5.6654Y-4.4252
X5.7078Y-3.878
X5.7205Y-3.9449
X5.7275Y-3.3661
X5.7279Y-3.4252
X5.7362Y-3.2913
X5.7441Y-5.1732
X5.7992Y-2.2362
X5.8543Y-2.0157
X5.9252Y-2.8661
X5.9252Y-4.0472
X5.9882Y-3.0
X5.9961Y-3.4961
X6.063Y-2.5
X6.0669Y-4.4252
X6.0906Y-4.8189
X6.1614Y-3.0315
X6.248Y-2.7874
X6.2953Y-2.4961
X6.2953Y-4.2913
X6.2953Y-4.6614
X6.311Y-2.6142
X6.311Y-3.0394
X6.311Y-3.1732
X6.311Y-3.3543
X6.311Y-3.8819
X6.311Y-4.1654
X6.3189Y-3.9921
X6.3504Y-5.6614
X6.3661Y-2.8425
X6.3996Y-4.059
X6.4055Y-5.4567
X6.4134Y-3.3701
X6.4173Y-3.8504
X6.4193Y-4.1594
X6.4213Y-4.6299
X6.4528Y-2.9213
X6.4646Y-4.7835
X6.4764Y-4.8819
X6.5039Y-4.8228
X6.5157Y-2.3307
X6.5512Y-4.9764
X6.5787Y-3.2205
X6.5945Y-4.748
X6.6102Y-4.5984
X6.626Y-2.9764
X6.626Y-3.5433
X6.6575Y-3.126
X6.6654Y-4.0197
X6.6732Y-4.8819
X6.6811Y-2.5827
X6.6969Y-2.189
X6.7205Y-4.8327
X6.7717Y-4.4094
X6.7886Y-4.7949
X6.7896Y-4.8327
X6.7992Y-3.2677
X6.815Y-4.7402
X6.8228Y-2.6693
X6.878Y-3.2283
X6.9567Y-4.0551
X6.9606Y-4.0157
X6.9823Y-4.4606
X6.9834Y-4.6426
X6.9865Y-3.7638
X6.9882Y-4.7402
X6.9882Y-4.8819
X7.0157Y-4.6732
X7.0433Y-4.0945
X7.0787Y-5.0984
X7.0975Y-4.7568
X7.0984Y-4.8346
X7.0984Y-5.0
X7.1142Y-4.7008
X7.1172Y-4.7765
X7.1299Y-3.2441
X7.1299Y-4.1654
X7.1693Y-4.0709
X7.2265Y-3.6638
X7.2323Y-3.9843
X7.2323Y-4.2756
X7.248Y-4.4724
X7.2559Y-4.3701
X7.2717Y-5.1969
X7.2874Y-4.9213
X7.2953Y-4.6142
X7.3031Y-2.622
X7.3031Y-5.6614
X7.3346Y-4.7638
X7.3504Y-5.0315
X7.3819Y-3.7165
X7.3819Y-4.1575
X7.4765Y-3.3538
X7.4765Y-3.7238
X7.5157Y-3.9685
X7.5236Y-4.378
X7.5551Y-4.9528
X7.5709Y-4.8268
X7.6811Y-5.2126
X7.7205Y-3.9449
X7.7283Y-4.5906
X7.7756Y-3.252
X7.9094Y-4.685
X7.9488Y-4.1417
T2
X5.0555Y-2.3573
X5.0555Y-2.6573
X5.1555Y-2.3573
X5.1555Y-2.6573
T3
X6.378Y-5.1969
X6.378Y-5.2756
X6.4567Y-5.1969
X6.4567Y-5.2756
X6.5354Y-5.1969
X6.5354Y-5.2756
X6.6142Y-5.1969
X6.6142Y-5.2756
T4
X5.4371Y-3.0063
X5.4371Y-3.1063
X5.4371Y-3.2063
X5.4371Y-3.3063
X5.4371Y-3.4063
X5.4371Y-3.5063
X5.4371Y-3.6063
X5.4371Y-3.7063
X5.4371Y-3.8063
X5.4371Y-3.9063
X5.4371Y-4.0063
X5.4371Y-4.1063
X5.4371Y-4.2063
X5.4371Y-4.3063
X6.2371Y-3.0063
X6.2371Y-3.1063
X6.2371Y-3.2063
X6.2371Y-3.3063
X6.2371Y-3.4063
X6.2371Y-3.5063
X6.2371Y-3.6063
X6.2371Y-3.7063
X6.2371Y-3.8063
X6.2371Y-3.9063
X6.2371Y-4.0063
X6.2371Y-4.1063
X6.2371Y-4.2063
X6.2371Y-4.3063
X7.3014Y-3.7291
X7.3014Y-3.8291
X7.3014Y-3.9291
X7.3014Y-4.0291
X7.3014Y-4.1291
X7.3014Y-4.2291
X7.3014Y-4.3291
X7.3014Y-4.4291
X7.3014Y-4.5291
X7.3085Y-4.6929
X7.3085Y-4.9929
X7.4085Y-4.6929
X7.4085Y-4.9929
X7.5085Y-4.6929
X7.5085Y-4.9929
X7.6014Y-3.7291
X7.6014Y-3.8291
X7.6014Y-3.9291
X7.6014Y-4.0291
X7.6014Y-4.1291
X7.6014Y-4.2291
X7.6014Y-4.3291
X7.6014Y-4.4291
X7.6014Y-4.5291
X7.6085Y-4.6929
X7.6085Y-4.9929
T5
X6.7677Y-4.9538
X6.7677Y-5.0738
T0
M30
