%TF.GenerationSoftware,KiCad,Pcbnew,7.0.1-0*%
%TF.CreationDate,2023-05-22T13:40:41+09:00*%
%TF.ProjectId,AvionicsMountPlate,4176696f-6e69-4637-934d-6f756e74506c,rev?*%
%TF.SameCoordinates,Original*%
%TF.FileFunction,Legend,Top*%
%TF.FilePolarity,Positive*%
%FSLAX46Y46*%
G04 Gerber Fmt 4.6, Leading zero omitted, Abs format (unit mm)*
G04 Created by KiCad (PCBNEW 7.0.1-0) date 2023-05-22 13:40:41*
%MOMM*%
%LPD*%
G01*
G04 APERTURE LIST*
%ADD10C,0.100000*%
%ADD11C,0.150000*%
G04 APERTURE END LIST*
D10*
X210618059Y-87388059D02*
G75*
G03*
X210618059Y-87388059I-61000000J0D01*
G01*
X109618059Y-127388059D02*
X189618059Y-127388059D01*
X189618059Y-127388059D02*
G75*
G03*
X109618059Y-127388059I-40000000J40000000D01*
G01*
D11*
X148725201Y-156081987D02*
X148010915Y-156081987D01*
X148010915Y-156081987D02*
X148010915Y-154581987D01*
X149868059Y-155081987D02*
X149868059Y-156081987D01*
X149225201Y-155081987D02*
X149225201Y-155867701D01*
X149225201Y-155867701D02*
X149296630Y-156010559D01*
X149296630Y-156010559D02*
X149439487Y-156081987D01*
X149439487Y-156081987D02*
X149653773Y-156081987D01*
X149653773Y-156081987D02*
X149796630Y-156010559D01*
X149796630Y-156010559D02*
X149868059Y-155939130D01*
X151225202Y-155081987D02*
X151225202Y-156296273D01*
X151225202Y-156296273D02*
X151153773Y-156439130D01*
X151153773Y-156439130D02*
X151082344Y-156510559D01*
X151082344Y-156510559D02*
X150939487Y-156581987D01*
X150939487Y-156581987D02*
X150725202Y-156581987D01*
X150725202Y-156581987D02*
X150582344Y-156510559D01*
X151225202Y-156010559D02*
X151082344Y-156081987D01*
X151082344Y-156081987D02*
X150796630Y-156081987D01*
X150796630Y-156081987D02*
X150653773Y-156010559D01*
X150653773Y-156010559D02*
X150582344Y-155939130D01*
X150582344Y-155939130D02*
X150510916Y-155796273D01*
X150510916Y-155796273D02*
X150510916Y-155367701D01*
X150510916Y-155367701D02*
X150582344Y-155224844D01*
X150582344Y-155224844D02*
X150653773Y-155153416D01*
X150653773Y-155153416D02*
X150796630Y-155081987D01*
X150796630Y-155081987D02*
X151082344Y-155081987D01*
X151082344Y-155081987D02*
X151225202Y-155153416D01*
%TO.C,G\u002A\u002A\u002A*%
G36*
X142073504Y-78717436D02*
G01*
X142128295Y-78755087D01*
X142158357Y-78814115D01*
X142163157Y-78856826D01*
X142157620Y-78886518D01*
X142141612Y-78945967D01*
X142115941Y-79032608D01*
X142081418Y-79143879D01*
X142038851Y-79277216D01*
X141989048Y-79430055D01*
X141932820Y-79599833D01*
X141870974Y-79783986D01*
X141864918Y-79801891D01*
X141799063Y-79996141D01*
X141742971Y-80160611D01*
X141695618Y-80298008D01*
X141655979Y-80411042D01*
X141623029Y-80502418D01*
X141595744Y-80574846D01*
X141573099Y-80631032D01*
X141554068Y-80673684D01*
X141537628Y-80705511D01*
X141522754Y-80729219D01*
X141508421Y-80747516D01*
X141506021Y-80750220D01*
X141429048Y-80818340D01*
X141346484Y-80861364D01*
X141264216Y-80877590D01*
X141188136Y-80865317D01*
X141158394Y-80850609D01*
X141113497Y-80809833D01*
X141093183Y-80754416D01*
X141091807Y-80699635D01*
X141097895Y-80673481D01*
X141114027Y-80618725D01*
X141138944Y-80539078D01*
X141171386Y-80438250D01*
X141210096Y-80319953D01*
X141253815Y-80187897D01*
X141301286Y-80045792D01*
X141351248Y-79897351D01*
X141402445Y-79746282D01*
X141453617Y-79596297D01*
X141503506Y-79451106D01*
X141550854Y-79314421D01*
X141594403Y-79189951D01*
X141632893Y-79081408D01*
X141665067Y-78992503D01*
X141689666Y-78926945D01*
X141705432Y-78888446D01*
X141707488Y-78884175D01*
X141769105Y-78797863D01*
X141850431Y-78738240D01*
X141947505Y-78707764D01*
X141997296Y-78704209D01*
X142073504Y-78717436D01*
G37*
G36*
X149064873Y-82960374D02*
G01*
X149324150Y-82960427D01*
X149553076Y-82960560D01*
X149753588Y-82960806D01*
X149927628Y-82961202D01*
X150077136Y-82961781D01*
X150204050Y-82962580D01*
X150310310Y-82963634D01*
X150397858Y-82964977D01*
X150468631Y-82966645D01*
X150524571Y-82968673D01*
X150567616Y-82971096D01*
X150599707Y-82973950D01*
X150622783Y-82977269D01*
X150638784Y-82981088D01*
X150649651Y-82985443D01*
X150657322Y-82990369D01*
X150662296Y-82994595D01*
X150707282Y-83055417D01*
X150721092Y-83126296D01*
X150704040Y-83203863D01*
X150656443Y-83284752D01*
X150632541Y-83313318D01*
X150616899Y-83331587D01*
X150603543Y-83347871D01*
X150590527Y-83362286D01*
X150575904Y-83374943D01*
X150557728Y-83385956D01*
X150534050Y-83395439D01*
X150502925Y-83403505D01*
X150462405Y-83410268D01*
X150410543Y-83415841D01*
X150345392Y-83420337D01*
X150265006Y-83423871D01*
X150167436Y-83426555D01*
X150050738Y-83428503D01*
X149912962Y-83429828D01*
X149752163Y-83430644D01*
X149566394Y-83431064D01*
X149353707Y-83431202D01*
X149112155Y-83431170D01*
X148839793Y-83431084D01*
X148612054Y-83431051D01*
X146748554Y-83431051D01*
X146707377Y-83387220D01*
X146674378Y-83328152D01*
X146669803Y-83254395D01*
X146693710Y-83170426D01*
X146704240Y-83148174D01*
X146742936Y-83084691D01*
X146789829Y-83037703D01*
X146857047Y-82995261D01*
X146862398Y-82992381D01*
X146872925Y-82987330D01*
X146885824Y-82982840D01*
X146903056Y-82978877D01*
X146926581Y-82975409D01*
X146958361Y-82972402D01*
X147000355Y-82969824D01*
X147054525Y-82967642D01*
X147122830Y-82965822D01*
X147207233Y-82964333D01*
X147309692Y-82963142D01*
X147432169Y-82962214D01*
X147576624Y-82961519D01*
X147745018Y-82961022D01*
X147939312Y-82960691D01*
X148161466Y-82960493D01*
X148413440Y-82960395D01*
X148697196Y-82960365D01*
X148773304Y-82960364D01*
X149064873Y-82960374D01*
G37*
G36*
X165513256Y-78698514D02*
G01*
X165772533Y-78698568D01*
X166001458Y-78698700D01*
X166201971Y-78698946D01*
X166376011Y-78699342D01*
X166525518Y-78699922D01*
X166652432Y-78700721D01*
X166758693Y-78701774D01*
X166846240Y-78703117D01*
X166917014Y-78704785D01*
X166972953Y-78706813D01*
X167015999Y-78709237D01*
X167048090Y-78712090D01*
X167071166Y-78715409D01*
X167087167Y-78719228D01*
X167098034Y-78723584D01*
X167105705Y-78728510D01*
X167110679Y-78732736D01*
X167155664Y-78793557D01*
X167169474Y-78864436D01*
X167152423Y-78942003D01*
X167104825Y-79022893D01*
X167080924Y-79051458D01*
X167065281Y-79069727D01*
X167051926Y-79086012D01*
X167038910Y-79100426D01*
X167024287Y-79113083D01*
X167006111Y-79124096D01*
X166982433Y-79133579D01*
X166951308Y-79141645D01*
X166910787Y-79148408D01*
X166858925Y-79153981D01*
X166793775Y-79158478D01*
X166713388Y-79162011D01*
X166615819Y-79164695D01*
X166499120Y-79166643D01*
X166361345Y-79167968D01*
X166200546Y-79168784D01*
X166014777Y-79169204D01*
X165802090Y-79169342D01*
X165560538Y-79169311D01*
X165288175Y-79169224D01*
X165060437Y-79169191D01*
X163196937Y-79169191D01*
X163155760Y-79125360D01*
X163122761Y-79066292D01*
X163118186Y-78992535D01*
X163142093Y-78908566D01*
X163152623Y-78886315D01*
X163191319Y-78822832D01*
X163238212Y-78775843D01*
X163305430Y-78733401D01*
X163310781Y-78730521D01*
X163321308Y-78725470D01*
X163334206Y-78720980D01*
X163351438Y-78717018D01*
X163374964Y-78713549D01*
X163406743Y-78710542D01*
X163448738Y-78707964D01*
X163502907Y-78705782D01*
X163571213Y-78703963D01*
X163655615Y-78702473D01*
X163758075Y-78701282D01*
X163880552Y-78700354D01*
X164025007Y-78699659D01*
X164193401Y-78699162D01*
X164387695Y-78698831D01*
X164609849Y-78698633D01*
X164861823Y-78698535D01*
X165145579Y-78698505D01*
X165221686Y-78698504D01*
X165513256Y-78698514D01*
G37*
G36*
X178264603Y-82960374D02*
G01*
X178523881Y-82960427D01*
X178752806Y-82960560D01*
X178953319Y-82960806D01*
X179127359Y-82961202D01*
X179276866Y-82961781D01*
X179403780Y-82962580D01*
X179510041Y-82963634D01*
X179597588Y-82964977D01*
X179668362Y-82966645D01*
X179724301Y-82968673D01*
X179767346Y-82971096D01*
X179799437Y-82973950D01*
X179822514Y-82977269D01*
X179838515Y-82981088D01*
X179849381Y-82985443D01*
X179857052Y-82990369D01*
X179862027Y-82994595D01*
X179907012Y-83055417D01*
X179920822Y-83126296D01*
X179903771Y-83203863D01*
X179856173Y-83284752D01*
X179832272Y-83313318D01*
X179816629Y-83331587D01*
X179803273Y-83347871D01*
X179790258Y-83362286D01*
X179775635Y-83374943D01*
X179757458Y-83385956D01*
X179733781Y-83395439D01*
X179702655Y-83403505D01*
X179662135Y-83410268D01*
X179610273Y-83415841D01*
X179545122Y-83420337D01*
X179464736Y-83423871D01*
X179367167Y-83426555D01*
X179250468Y-83428503D01*
X179112693Y-83429828D01*
X178951894Y-83430644D01*
X178766124Y-83431064D01*
X178553437Y-83431202D01*
X178311886Y-83431170D01*
X178039523Y-83431084D01*
X177811784Y-83431051D01*
X175948285Y-83431051D01*
X175907107Y-83387220D01*
X175874109Y-83328152D01*
X175869534Y-83254395D01*
X175893440Y-83170426D01*
X175903970Y-83148174D01*
X175942667Y-83084691D01*
X175989559Y-83037703D01*
X176056777Y-82995261D01*
X176062129Y-82992381D01*
X176072655Y-82987330D01*
X176085554Y-82982840D01*
X176102786Y-82978877D01*
X176126311Y-82975409D01*
X176158091Y-82972402D01*
X176200085Y-82969824D01*
X176254255Y-82967642D01*
X176322561Y-82965822D01*
X176406963Y-82964333D01*
X176509422Y-82963142D01*
X176631899Y-82962214D01*
X176776355Y-82961519D01*
X176944749Y-82961022D01*
X177139043Y-82960691D01*
X177361196Y-82960493D01*
X177613171Y-82960395D01*
X177896926Y-82960365D01*
X177973034Y-82960364D01*
X178264603Y-82960374D01*
G37*
G36*
X152340339Y-78698439D02*
G01*
X152540228Y-78698665D01*
X152713622Y-78699187D01*
X152862455Y-78700108D01*
X152988661Y-78701533D01*
X153094175Y-78703564D01*
X153180931Y-78706305D01*
X153250862Y-78709860D01*
X153305904Y-78714332D01*
X153347989Y-78719824D01*
X153379054Y-78726440D01*
X153401030Y-78734284D01*
X153415854Y-78743459D01*
X153425458Y-78754068D01*
X153431777Y-78766215D01*
X153436745Y-78780003D01*
X153442297Y-78795537D01*
X153443775Y-78799166D01*
X153457321Y-78873566D01*
X153438353Y-78951410D01*
X153388054Y-79030119D01*
X153307607Y-79107119D01*
X153299336Y-79113564D01*
X153226853Y-79169191D01*
X152435016Y-79169191D01*
X151643179Y-79169191D01*
X151398188Y-79892338D01*
X151346358Y-80044693D01*
X151296917Y-80188817D01*
X151251137Y-80321087D01*
X151210291Y-80437880D01*
X151175652Y-80535572D01*
X151148491Y-80610540D01*
X151130082Y-80659162D01*
X151123180Y-80675391D01*
X151069052Y-80755090D01*
X150998660Y-80817611D01*
X150918875Y-80859740D01*
X150836569Y-80878263D01*
X150758615Y-80869969D01*
X150730930Y-80858797D01*
X150679743Y-80815189D01*
X150654157Y-80752779D01*
X150654598Y-80692507D01*
X150662160Y-80664093D01*
X150679659Y-80606906D01*
X150705915Y-80524550D01*
X150739750Y-80420628D01*
X150779983Y-80298744D01*
X150825434Y-80162501D01*
X150874925Y-80015504D01*
X150911682Y-79907133D01*
X150962697Y-79757045D01*
X151010151Y-79617170D01*
X151052940Y-79490788D01*
X151089957Y-79381176D01*
X151120096Y-79291613D01*
X151142252Y-79225377D01*
X151155319Y-79185747D01*
X151158490Y-79175428D01*
X151141941Y-79174149D01*
X151094559Y-79172958D01*
X151019744Y-79171883D01*
X150920894Y-79170951D01*
X150801410Y-79170189D01*
X150664690Y-79169624D01*
X150514134Y-79169284D01*
X150380671Y-79169191D01*
X149602852Y-79169191D01*
X149556774Y-79129556D01*
X149520437Y-79076913D01*
X149510524Y-79007834D01*
X149527298Y-78927961D01*
X149545440Y-78886393D01*
X149584146Y-78822876D01*
X149631022Y-78775880D01*
X149698202Y-78733447D01*
X149703638Y-78730521D01*
X149714309Y-78725402D01*
X149727370Y-78720858D01*
X149744813Y-78716857D01*
X149768629Y-78713363D01*
X149800808Y-78710342D01*
X149843341Y-78707759D01*
X149898219Y-78705581D01*
X149967431Y-78703774D01*
X150052970Y-78702302D01*
X150156825Y-78701131D01*
X150280987Y-78700228D01*
X150427447Y-78699559D01*
X150598195Y-78699087D01*
X150795223Y-78698780D01*
X151020520Y-78698604D01*
X151276078Y-78698523D01*
X151562362Y-78698504D01*
X151853341Y-78698462D01*
X152112022Y-78698406D01*
X152340339Y-78698439D01*
G37*
G36*
X154034814Y-82960299D02*
G01*
X154234703Y-82960525D01*
X154408096Y-82961047D01*
X154556929Y-82961968D01*
X154683136Y-82963393D01*
X154788650Y-82965424D01*
X154875405Y-82968165D01*
X154945337Y-82971720D01*
X155000378Y-82976192D01*
X155042464Y-82981684D01*
X155073528Y-82988300D01*
X155095505Y-82996144D01*
X155110328Y-83005319D01*
X155119932Y-83015928D01*
X155126251Y-83028075D01*
X155131220Y-83041863D01*
X155136772Y-83057397D01*
X155138250Y-83061026D01*
X155151796Y-83135426D01*
X155132827Y-83213269D01*
X155082528Y-83291979D01*
X155002082Y-83368979D01*
X154993810Y-83375424D01*
X154921327Y-83431051D01*
X154129490Y-83431051D01*
X153337653Y-83431051D01*
X153092663Y-84154198D01*
X153040832Y-84306553D01*
X152991391Y-84450677D01*
X152945611Y-84582947D01*
X152904766Y-84699740D01*
X152870126Y-84797432D01*
X152842966Y-84872400D01*
X152824556Y-84921022D01*
X152817654Y-84937250D01*
X152763527Y-85016950D01*
X152693134Y-85079470D01*
X152613349Y-85121599D01*
X152531043Y-85140123D01*
X152453090Y-85131828D01*
X152425404Y-85120657D01*
X152374217Y-85077049D01*
X152348631Y-85014639D01*
X152349072Y-84954366D01*
X152356634Y-84925953D01*
X152374133Y-84868766D01*
X152400390Y-84786410D01*
X152434224Y-84682488D01*
X152474457Y-84560604D01*
X152519909Y-84424361D01*
X152569400Y-84277363D01*
X152606156Y-84168992D01*
X152657171Y-84018905D01*
X152704626Y-83879030D01*
X152747414Y-83752648D01*
X152784431Y-83643036D01*
X152814571Y-83553472D01*
X152836726Y-83487237D01*
X152849793Y-83447606D01*
X152852964Y-83437288D01*
X152836415Y-83436009D01*
X152789033Y-83434818D01*
X152714218Y-83433743D01*
X152615369Y-83432811D01*
X152495884Y-83432049D01*
X152359164Y-83431484D01*
X152208608Y-83431144D01*
X152075145Y-83431051D01*
X151297326Y-83431051D01*
X151251248Y-83391416D01*
X151214911Y-83338773D01*
X151204998Y-83269694D01*
X151221772Y-83189821D01*
X151239914Y-83148253D01*
X151278620Y-83084736D01*
X151325496Y-83037740D01*
X151392676Y-82995307D01*
X151398113Y-82992381D01*
X151408783Y-82987261D01*
X151421844Y-82982718D01*
X151439288Y-82978717D01*
X151463104Y-82975223D01*
X151495283Y-82972201D01*
X151537816Y-82969619D01*
X151592693Y-82967441D01*
X151661906Y-82965633D01*
X151747444Y-82964162D01*
X151851299Y-82962991D01*
X151975461Y-82962088D01*
X152121921Y-82961418D01*
X152292670Y-82960947D01*
X152489697Y-82960640D01*
X152714994Y-82960464D01*
X152970552Y-82960383D01*
X153256836Y-82960364D01*
X153547815Y-82960322D01*
X153806496Y-82960266D01*
X154034814Y-82960299D01*
G37*
G36*
X174881984Y-78698439D02*
G01*
X175081872Y-78698665D01*
X175255266Y-78699187D01*
X175404099Y-78700108D01*
X175530305Y-78701533D01*
X175635819Y-78703564D01*
X175722575Y-78706305D01*
X175792506Y-78709860D01*
X175847548Y-78714332D01*
X175889634Y-78719824D01*
X175920698Y-78726440D01*
X175942674Y-78734284D01*
X175957498Y-78743459D01*
X175967102Y-78754068D01*
X175973421Y-78766215D01*
X175978390Y-78780003D01*
X175983941Y-78795537D01*
X175985419Y-78799166D01*
X175998966Y-78873566D01*
X175979997Y-78951410D01*
X175929698Y-79030119D01*
X175849252Y-79107119D01*
X175840980Y-79113564D01*
X175768497Y-79169191D01*
X174976660Y-79169191D01*
X174184823Y-79169191D01*
X173939833Y-79892338D01*
X173888002Y-80044693D01*
X173838561Y-80188817D01*
X173792781Y-80321087D01*
X173751935Y-80437880D01*
X173717296Y-80535572D01*
X173690136Y-80610540D01*
X173671726Y-80659162D01*
X173664824Y-80675391D01*
X173610697Y-80755090D01*
X173540304Y-80817611D01*
X173460519Y-80859740D01*
X173378213Y-80878263D01*
X173300260Y-80869969D01*
X173272574Y-80858797D01*
X173221387Y-80815189D01*
X173195801Y-80752779D01*
X173196242Y-80692507D01*
X173203804Y-80664093D01*
X173221303Y-80606906D01*
X173247559Y-80524550D01*
X173281394Y-80420628D01*
X173321627Y-80298744D01*
X173367078Y-80162501D01*
X173416569Y-80015504D01*
X173453326Y-79907133D01*
X173504341Y-79757045D01*
X173551795Y-79617170D01*
X173594584Y-79490788D01*
X173631601Y-79381176D01*
X173661740Y-79291613D01*
X173683896Y-79225377D01*
X173696963Y-79185747D01*
X173700134Y-79175428D01*
X173683585Y-79174149D01*
X173636203Y-79172958D01*
X173561388Y-79171883D01*
X173462538Y-79170951D01*
X173343054Y-79170189D01*
X173206334Y-79169624D01*
X173055778Y-79169284D01*
X172922315Y-79169191D01*
X172144496Y-79169191D01*
X172098418Y-79129556D01*
X172062081Y-79076913D01*
X172052168Y-79007834D01*
X172068942Y-78927961D01*
X172087084Y-78886393D01*
X172125790Y-78822876D01*
X172172666Y-78775880D01*
X172239846Y-78733447D01*
X172245282Y-78730521D01*
X172255953Y-78725402D01*
X172269014Y-78720858D01*
X172286458Y-78716857D01*
X172310274Y-78713363D01*
X172342453Y-78710342D01*
X172384986Y-78707759D01*
X172439863Y-78705581D01*
X172509076Y-78703774D01*
X172594614Y-78702302D01*
X172698469Y-78701131D01*
X172822631Y-78700228D01*
X172969091Y-78699559D01*
X173139839Y-78699087D01*
X173336867Y-78698780D01*
X173562164Y-78698604D01*
X173817722Y-78698523D01*
X174104006Y-78698504D01*
X174394985Y-78698462D01*
X174653666Y-78698406D01*
X174881984Y-78698439D01*
G37*
G36*
X187821606Y-82960299D02*
G01*
X188021495Y-82960525D01*
X188194889Y-82961047D01*
X188343722Y-82961968D01*
X188469928Y-82963393D01*
X188575442Y-82965424D01*
X188662198Y-82968165D01*
X188732129Y-82971720D01*
X188787171Y-82976192D01*
X188829256Y-82981684D01*
X188860320Y-82988300D01*
X188882297Y-82996144D01*
X188897120Y-83005319D01*
X188906725Y-83015928D01*
X188913044Y-83028075D01*
X188918012Y-83041863D01*
X188923564Y-83057397D01*
X188925042Y-83061026D01*
X188938588Y-83135426D01*
X188919620Y-83213269D01*
X188869320Y-83291979D01*
X188788874Y-83368979D01*
X188780603Y-83375424D01*
X188708120Y-83431051D01*
X187916283Y-83431051D01*
X187124446Y-83431051D01*
X186879455Y-84154198D01*
X186827625Y-84306553D01*
X186778184Y-84450677D01*
X186732404Y-84582947D01*
X186691558Y-84699740D01*
X186656919Y-84797432D01*
X186629758Y-84872400D01*
X186611349Y-84921022D01*
X186604446Y-84937250D01*
X186550319Y-85016950D01*
X186479927Y-85079470D01*
X186400141Y-85121599D01*
X186317836Y-85140123D01*
X186239882Y-85131828D01*
X186212197Y-85120657D01*
X186161010Y-85077049D01*
X186135423Y-85014639D01*
X186135865Y-84954366D01*
X186143426Y-84925953D01*
X186160925Y-84868766D01*
X186187182Y-84786410D01*
X186221017Y-84682488D01*
X186261249Y-84560604D01*
X186306701Y-84424361D01*
X186356192Y-84277363D01*
X186392949Y-84168992D01*
X186443963Y-84018905D01*
X186491418Y-83879030D01*
X186534207Y-83752648D01*
X186571224Y-83643036D01*
X186601363Y-83553472D01*
X186623519Y-83487237D01*
X186636585Y-83447606D01*
X186639757Y-83437288D01*
X186623208Y-83436009D01*
X186575826Y-83434818D01*
X186501010Y-83433743D01*
X186402161Y-83432811D01*
X186282677Y-83432049D01*
X186145957Y-83431484D01*
X185995400Y-83431144D01*
X185861938Y-83431051D01*
X185084119Y-83431051D01*
X185038040Y-83391416D01*
X185001704Y-83338773D01*
X184991791Y-83269694D01*
X185008564Y-83189821D01*
X185026707Y-83148253D01*
X185065413Y-83084736D01*
X185112288Y-83037740D01*
X185179469Y-82995307D01*
X185184905Y-82992381D01*
X185195575Y-82987261D01*
X185208637Y-82982718D01*
X185226080Y-82978717D01*
X185249896Y-82975223D01*
X185282075Y-82972201D01*
X185324608Y-82969619D01*
X185379486Y-82967441D01*
X185448698Y-82965633D01*
X185534237Y-82964162D01*
X185638092Y-82962991D01*
X185762254Y-82962088D01*
X185908714Y-82961418D01*
X186079462Y-82960947D01*
X186276489Y-82960640D01*
X186501787Y-82960464D01*
X186757344Y-82960383D01*
X187043629Y-82960364D01*
X187334607Y-82960322D01*
X187593289Y-82960266D01*
X187821606Y-82960299D01*
G37*
G36*
X139641197Y-78617197D02*
G01*
X139746358Y-78657778D01*
X139834458Y-78724200D01*
X139856975Y-78749173D01*
X139875791Y-78780080D01*
X139905138Y-78838697D01*
X139943534Y-78921387D01*
X139989496Y-79024516D01*
X140041543Y-79144447D01*
X140098194Y-79277546D01*
X140157965Y-79420176D01*
X140219374Y-79568702D01*
X140280941Y-79719488D01*
X140341183Y-79868899D01*
X140398617Y-80013299D01*
X140451762Y-80149053D01*
X140499136Y-80272524D01*
X140539258Y-80380078D01*
X140570644Y-80468078D01*
X140591813Y-80532890D01*
X140601283Y-80570877D01*
X140601644Y-80575995D01*
X140584273Y-80663388D01*
X140536011Y-80743078D01*
X140487883Y-80791889D01*
X140414732Y-80841512D01*
X140336692Y-80870112D01*
X140261004Y-80877172D01*
X140194909Y-80862174D01*
X140145650Y-80824602D01*
X140139998Y-80816741D01*
X140127700Y-80792176D01*
X140103906Y-80739168D01*
X140069999Y-80660988D01*
X140027363Y-80560908D01*
X139977384Y-80442201D01*
X139921446Y-80308137D01*
X139860932Y-80161990D01*
X139797228Y-80007031D01*
X139791826Y-79993839D01*
X139727443Y-79837684D01*
X139665543Y-79689650D01*
X139607586Y-79553082D01*
X139555030Y-79431325D01*
X139509335Y-79327725D01*
X139471962Y-79245627D01*
X139444368Y-79188376D01*
X139428014Y-79159317D01*
X139427383Y-79158495D01*
X139385201Y-79116861D01*
X139341963Y-79101313D01*
X139329546Y-79100728D01*
X139312150Y-79100673D01*
X139296013Y-79101480D01*
X139279398Y-79104605D01*
X139260564Y-79111505D01*
X139237773Y-79123635D01*
X139209287Y-79142453D01*
X139173366Y-79169415D01*
X139128272Y-79205976D01*
X139072265Y-79253594D01*
X139003608Y-79313725D01*
X138920560Y-79387825D01*
X138821384Y-79477351D01*
X138704340Y-79583759D01*
X138567689Y-79708505D01*
X138409693Y-79853046D01*
X138228613Y-80018838D01*
X138177528Y-80065613D01*
X138007853Y-80220458D01*
X137852446Y-80361259D01*
X137712726Y-80486770D01*
X137590110Y-80595742D01*
X137486015Y-80686930D01*
X137401860Y-80759087D01*
X137339062Y-80810966D01*
X137299038Y-80841322D01*
X137287474Y-80848289D01*
X137197003Y-80876226D01*
X137117649Y-80872361D01*
X137067693Y-80850609D01*
X137020919Y-80802880D01*
X137000054Y-80736541D01*
X137005949Y-80656306D01*
X137022941Y-80602818D01*
X137037738Y-80585197D01*
X137075408Y-80546588D01*
X137133627Y-80489169D01*
X137210067Y-80415123D01*
X137302403Y-80326629D01*
X137408310Y-80225867D01*
X137525461Y-80115018D01*
X137651531Y-79996262D01*
X137784193Y-79871780D01*
X137921123Y-79743751D01*
X138059995Y-79614357D01*
X138198481Y-79485776D01*
X138334257Y-79360191D01*
X138464998Y-79239780D01*
X138588376Y-79126724D01*
X138702066Y-79023204D01*
X138803743Y-78931400D01*
X138851492Y-78888663D01*
X138984189Y-78784586D01*
X139121206Y-78703383D01*
X139258978Y-78645548D01*
X139393943Y-78611576D01*
X139522537Y-78601961D01*
X139641197Y-78617197D01*
G37*
G36*
X150278500Y-83864182D02*
G01*
X150311869Y-83926957D01*
X150317499Y-83999227D01*
X150298046Y-84074733D01*
X150256163Y-84147220D01*
X150194504Y-84210429D01*
X150115725Y-84258103D01*
X150110457Y-84260355D01*
X150096640Y-84264841D01*
X150076607Y-84268799D01*
X150048307Y-84272261D01*
X150009694Y-84275261D01*
X149958717Y-84277829D01*
X149893329Y-84279999D01*
X149811481Y-84281801D01*
X149711124Y-84283268D01*
X149590209Y-84284431D01*
X149446688Y-84285324D01*
X149278513Y-84285978D01*
X149083633Y-84286424D01*
X148860002Y-84286696D01*
X148605570Y-84286824D01*
X148415465Y-84286846D01*
X146783875Y-84286846D01*
X146736669Y-84431798D01*
X146711816Y-84517452D01*
X146702681Y-84577783D01*
X146709632Y-84618062D01*
X146733036Y-84643563D01*
X146752069Y-84652824D01*
X146772822Y-84654347D01*
X146825391Y-84655805D01*
X146907360Y-84657181D01*
X147016315Y-84658462D01*
X147149840Y-84659630D01*
X147305519Y-84660671D01*
X147480937Y-84661569D01*
X147673678Y-84662307D01*
X147881327Y-84662872D01*
X148101469Y-84663246D01*
X148331687Y-84663414D01*
X148391393Y-84663423D01*
X148663524Y-84663459D01*
X148903525Y-84663583D01*
X149113496Y-84663833D01*
X149295539Y-84664247D01*
X149451753Y-84664862D01*
X149584241Y-84665715D01*
X149695103Y-84666845D01*
X149786440Y-84668289D01*
X149860352Y-84670085D01*
X149918942Y-84672271D01*
X149964310Y-84674883D01*
X149998557Y-84677960D01*
X150023784Y-84681540D01*
X150042092Y-84685660D01*
X150055582Y-84690358D01*
X150062053Y-84693375D01*
X150107932Y-84727293D01*
X150135459Y-84768085D01*
X150135798Y-84769098D01*
X150141585Y-84838359D01*
X150120895Y-84914370D01*
X150078269Y-84989409D01*
X150018252Y-85055752D01*
X149945387Y-85105676D01*
X149934850Y-85110720D01*
X149922082Y-85115890D01*
X149906533Y-85120456D01*
X149886122Y-85124457D01*
X149858769Y-85127930D01*
X149822394Y-85130912D01*
X149774915Y-85133441D01*
X149714254Y-85135556D01*
X149638330Y-85137292D01*
X149545061Y-85138688D01*
X149432369Y-85139782D01*
X149298172Y-85140611D01*
X149140390Y-85141212D01*
X148956943Y-85141623D01*
X148745750Y-85141882D01*
X148504732Y-85142026D01*
X148231807Y-85142094D01*
X148197439Y-85142098D01*
X146528638Y-85142307D01*
X146442934Y-85102397D01*
X146342810Y-85040008D01*
X146270341Y-84958435D01*
X146224874Y-84856565D01*
X146205754Y-84733285D01*
X146205018Y-84697628D01*
X146207451Y-84647607D01*
X146215424Y-84593138D01*
X146230472Y-84527900D01*
X146254130Y-84445573D01*
X146287932Y-84339839D01*
X146302687Y-84295404D01*
X146336299Y-84197329D01*
X146368751Y-84107080D01*
X146397592Y-84031153D01*
X146420366Y-83976048D01*
X146432678Y-83951144D01*
X146468340Y-83911390D01*
X146521254Y-83872109D01*
X146548361Y-83857006D01*
X146631334Y-83816159D01*
X148434262Y-83816159D01*
X150237190Y-83816159D01*
X150278500Y-83864182D01*
G37*
G36*
X166726883Y-79602322D02*
G01*
X166760251Y-79665097D01*
X166765882Y-79737367D01*
X166746429Y-79812874D01*
X166704546Y-79885360D01*
X166642887Y-79948569D01*
X166564108Y-79996243D01*
X166558840Y-79998496D01*
X166545023Y-80002981D01*
X166524989Y-80006939D01*
X166496690Y-80010402D01*
X166458076Y-80013401D01*
X166407100Y-80015970D01*
X166341712Y-80018139D01*
X166259863Y-80019941D01*
X166159506Y-80021408D01*
X166038592Y-80022572D01*
X165895071Y-80023464D01*
X165726895Y-80024118D01*
X165532016Y-80024564D01*
X165308385Y-80024836D01*
X165053953Y-80024964D01*
X164863848Y-80024986D01*
X163232257Y-80024986D01*
X163185052Y-80169938D01*
X163160198Y-80255592D01*
X163151063Y-80315923D01*
X163158015Y-80356202D01*
X163181419Y-80381703D01*
X163200452Y-80390965D01*
X163221205Y-80392487D01*
X163273773Y-80393945D01*
X163355743Y-80395321D01*
X163464698Y-80396602D01*
X163598223Y-80397770D01*
X163753902Y-80398811D01*
X163929320Y-80399709D01*
X164122061Y-80400447D01*
X164329710Y-80401012D01*
X164549851Y-80401386D01*
X164780070Y-80401555D01*
X164839775Y-80401563D01*
X165111907Y-80401599D01*
X165351908Y-80401723D01*
X165561879Y-80401974D01*
X165743922Y-80402387D01*
X165900136Y-80403002D01*
X166032624Y-80403856D01*
X166143485Y-80404985D01*
X166234822Y-80406430D01*
X166308735Y-80408226D01*
X166367325Y-80410411D01*
X166412693Y-80413023D01*
X166446940Y-80416101D01*
X166472167Y-80419680D01*
X166490475Y-80423800D01*
X166503965Y-80428498D01*
X166510436Y-80431516D01*
X166556315Y-80465433D01*
X166583842Y-80506225D01*
X166584181Y-80507238D01*
X166589968Y-80576499D01*
X166569277Y-80652510D01*
X166526652Y-80727549D01*
X166466635Y-80793893D01*
X166393770Y-80843816D01*
X166383232Y-80848861D01*
X166370465Y-80854030D01*
X166354915Y-80858596D01*
X166334505Y-80862597D01*
X166307152Y-80866070D01*
X166270776Y-80869052D01*
X166223298Y-80871582D01*
X166162637Y-80873696D01*
X166086712Y-80875432D01*
X165993444Y-80876828D01*
X165880752Y-80877922D01*
X165746554Y-80878751D01*
X165588773Y-80879352D01*
X165405326Y-80879763D01*
X165194133Y-80880022D01*
X164953115Y-80880167D01*
X164680190Y-80880234D01*
X164645822Y-80880238D01*
X162977021Y-80880447D01*
X162891317Y-80840537D01*
X162791193Y-80778149D01*
X162718724Y-80696575D01*
X162673256Y-80594705D01*
X162654137Y-80471425D01*
X162653401Y-80435768D01*
X162655834Y-80385747D01*
X162663807Y-80331278D01*
X162678855Y-80266040D01*
X162702513Y-80183713D01*
X162736315Y-80077979D01*
X162751069Y-80033544D01*
X162784681Y-79935470D01*
X162817134Y-79845220D01*
X162845975Y-79769293D01*
X162868749Y-79714188D01*
X162881060Y-79689284D01*
X162916723Y-79649530D01*
X162969636Y-79610249D01*
X162996743Y-79595146D01*
X163079716Y-79554299D01*
X164882644Y-79554299D01*
X166685573Y-79554299D01*
X166726883Y-79602322D01*
G37*
G36*
X179478231Y-83864182D02*
G01*
X179511599Y-83926957D01*
X179517230Y-83999227D01*
X179497776Y-84074733D01*
X179455893Y-84147220D01*
X179394235Y-84210429D01*
X179315455Y-84258103D01*
X179310188Y-84260355D01*
X179296371Y-84264841D01*
X179276337Y-84268799D01*
X179248038Y-84272261D01*
X179209424Y-84275261D01*
X179158447Y-84277829D01*
X179093059Y-84279999D01*
X179011211Y-84281801D01*
X178910854Y-84283268D01*
X178789939Y-84284431D01*
X178646419Y-84285324D01*
X178478243Y-84285978D01*
X178283364Y-84286424D01*
X178059733Y-84286696D01*
X177805301Y-84286824D01*
X177615196Y-84286846D01*
X175983605Y-84286846D01*
X175936400Y-84431798D01*
X175911546Y-84517452D01*
X175902411Y-84577783D01*
X175909362Y-84618062D01*
X175932767Y-84643563D01*
X175951800Y-84652824D01*
X175972552Y-84654347D01*
X176025121Y-84655805D01*
X176107091Y-84657181D01*
X176216046Y-84658462D01*
X176349570Y-84659630D01*
X176505250Y-84660671D01*
X176680667Y-84661569D01*
X176873409Y-84662307D01*
X177081058Y-84662872D01*
X177301199Y-84663246D01*
X177531418Y-84663414D01*
X177591123Y-84663423D01*
X177863255Y-84663459D01*
X178103256Y-84663583D01*
X178313227Y-84663833D01*
X178495269Y-84664247D01*
X178651484Y-84664862D01*
X178783971Y-84665715D01*
X178894833Y-84666845D01*
X178986170Y-84668289D01*
X179060083Y-84670085D01*
X179118673Y-84672271D01*
X179164041Y-84674883D01*
X179198288Y-84677960D01*
X179223515Y-84681540D01*
X179241823Y-84685660D01*
X179255313Y-84690358D01*
X179261783Y-84693375D01*
X179307662Y-84727293D01*
X179335189Y-84768085D01*
X179335528Y-84769098D01*
X179341316Y-84838359D01*
X179320625Y-84914370D01*
X179278000Y-84989409D01*
X179217983Y-85055752D01*
X179145117Y-85105676D01*
X179134580Y-85110720D01*
X179121812Y-85115890D01*
X179106263Y-85120456D01*
X179085852Y-85124457D01*
X179058499Y-85127930D01*
X179022124Y-85130912D01*
X178974646Y-85133441D01*
X178913985Y-85135556D01*
X178838060Y-85137292D01*
X178744792Y-85138688D01*
X178632099Y-85139782D01*
X178497902Y-85140611D01*
X178340120Y-85141212D01*
X178156673Y-85141623D01*
X177945481Y-85141882D01*
X177704462Y-85142026D01*
X177431538Y-85142094D01*
X177397169Y-85142098D01*
X175728369Y-85142307D01*
X175642665Y-85102397D01*
X175542540Y-85040008D01*
X175470071Y-84958435D01*
X175424604Y-84856565D01*
X175405485Y-84733285D01*
X175404749Y-84697628D01*
X175407181Y-84647607D01*
X175415154Y-84593138D01*
X175430203Y-84527900D01*
X175453860Y-84445573D01*
X175487662Y-84339839D01*
X175502417Y-84295404D01*
X175536029Y-84197329D01*
X175568482Y-84107080D01*
X175597322Y-84031153D01*
X175620097Y-83976048D01*
X175632408Y-83951144D01*
X175668071Y-83911390D01*
X175720984Y-83872109D01*
X175748091Y-83857006D01*
X175831064Y-83816159D01*
X177633992Y-83816159D01*
X179436920Y-83816159D01*
X179478231Y-83864182D01*
G37*
G36*
X157729382Y-83712966D02*
G01*
X157776730Y-83576280D01*
X157820279Y-83451811D01*
X157858769Y-83343268D01*
X157890943Y-83254363D01*
X157915542Y-83188805D01*
X157931308Y-83150306D01*
X157933364Y-83146035D01*
X157971805Y-83083462D01*
X158019192Y-83036669D01*
X158087481Y-82993963D01*
X158090431Y-82992381D01*
X158102053Y-82986838D01*
X158116321Y-82981960D01*
X158135410Y-82977696D01*
X158161497Y-82973995D01*
X158196755Y-82970807D01*
X158243360Y-82968080D01*
X158303488Y-82965766D01*
X158379314Y-82963811D01*
X158473012Y-82962168D01*
X158586759Y-82960783D01*
X158722729Y-82959607D01*
X158883097Y-82958590D01*
X159070040Y-82957680D01*
X159285732Y-82956827D01*
X159532348Y-82955980D01*
X159673652Y-82955525D01*
X159934354Y-82954888D01*
X160178321Y-82954674D01*
X160403647Y-82954868D01*
X160608428Y-82955458D01*
X160790756Y-82956430D01*
X160948728Y-82957771D01*
X161080438Y-82959466D01*
X161183980Y-82961503D01*
X161257450Y-82963867D01*
X161298941Y-82966546D01*
X161302904Y-82967067D01*
X161432482Y-82999772D01*
X161537201Y-83054788D01*
X161619452Y-83133708D01*
X161668246Y-83210340D01*
X161704548Y-83316685D01*
X161712239Y-83433627D01*
X161693582Y-83556980D01*
X161650843Y-83682560D01*
X161586285Y-83806181D01*
X161502172Y-83923659D01*
X161400770Y-84030808D01*
X161284342Y-84123443D01*
X161155152Y-84197378D01*
X161127545Y-84209740D01*
X161096280Y-84223114D01*
X161067590Y-84234836D01*
X161039110Y-84245017D01*
X161008478Y-84253765D01*
X160973331Y-84261190D01*
X160931305Y-84267399D01*
X160880040Y-84272503D01*
X160817170Y-84276609D01*
X160740334Y-84279828D01*
X160647168Y-84282267D01*
X160535310Y-84284036D01*
X160402396Y-84285245D01*
X160246065Y-84286001D01*
X160063952Y-84286413D01*
X159853696Y-84286592D01*
X159612932Y-84286645D01*
X159459366Y-84286661D01*
X158012734Y-84286846D01*
X157904132Y-84614174D01*
X157864454Y-84731900D01*
X157832391Y-84821932D01*
X157805744Y-84889371D01*
X157782315Y-84939319D01*
X157759904Y-84976876D01*
X157736313Y-85007144D01*
X157733310Y-85010515D01*
X157655717Y-85079450D01*
X157572906Y-85123005D01*
X157490560Y-85139520D01*
X157414362Y-85127336D01*
X157384270Y-85112469D01*
X157339373Y-85071692D01*
X157319059Y-85016276D01*
X157317683Y-84961495D01*
X157323771Y-84935340D01*
X157339903Y-84880584D01*
X157364820Y-84800937D01*
X157397262Y-84700110D01*
X157435972Y-84581813D01*
X157479691Y-84449757D01*
X157527162Y-84307652D01*
X157577124Y-84159210D01*
X157628321Y-84008141D01*
X157679493Y-83858156D01*
X157696864Y-83807601D01*
X158179028Y-83807601D01*
X159604166Y-83807601D01*
X161029304Y-83807601D01*
X161087054Y-83768683D01*
X161142385Y-83721301D01*
X161188023Y-83663951D01*
X161216639Y-83607105D01*
X161222641Y-83574959D01*
X161211756Y-83535784D01*
X161185166Y-83492251D01*
X161181338Y-83487632D01*
X161140035Y-83439609D01*
X159721858Y-83434950D01*
X158303681Y-83430291D01*
X158241355Y-83618946D01*
X158179028Y-83807601D01*
X157696864Y-83807601D01*
X157729382Y-83712966D01*
G37*
G36*
X126974571Y-78698439D02*
G01*
X127174460Y-78698665D01*
X127347854Y-78699187D01*
X127496687Y-78700108D01*
X127622893Y-78701533D01*
X127728407Y-78703564D01*
X127815163Y-78706305D01*
X127885094Y-78709860D01*
X127940136Y-78714332D01*
X127982221Y-78719824D01*
X128013285Y-78726440D01*
X128035262Y-78734284D01*
X128050085Y-78743459D01*
X128059690Y-78754068D01*
X128066009Y-78766215D01*
X128070977Y-78780003D01*
X128076529Y-78795537D01*
X128078007Y-78799166D01*
X128091411Y-78873386D01*
X128072295Y-78951523D01*
X128021762Y-79031062D01*
X127942394Y-79108295D01*
X127877772Y-79160633D01*
X127284539Y-79169811D01*
X127124669Y-79172405D01*
X126995076Y-79174905D01*
X126891809Y-79177571D01*
X126810914Y-79180664D01*
X126748441Y-79184445D01*
X126700437Y-79189173D01*
X126662950Y-79195109D01*
X126632027Y-79202513D01*
X126603715Y-79211647D01*
X126593596Y-79215336D01*
X126488040Y-79267253D01*
X126380710Y-79342150D01*
X126282883Y-79431362D01*
X126225972Y-79497850D01*
X126193397Y-79543899D01*
X126162548Y-79594627D01*
X126131755Y-79653990D01*
X126099345Y-79725945D01*
X126063648Y-79814446D01*
X126022992Y-79923450D01*
X125975706Y-80056911D01*
X125920118Y-80218787D01*
X125914991Y-80233884D01*
X125875886Y-80348087D01*
X125839057Y-80453757D01*
X125806317Y-80545836D01*
X125779480Y-80619267D01*
X125760359Y-80668995D01*
X125752299Y-80687455D01*
X125698514Y-80762508D01*
X125627795Y-80821459D01*
X125547625Y-80860994D01*
X125465487Y-80877803D01*
X125388863Y-80868574D01*
X125365162Y-80858797D01*
X125313953Y-80815188D01*
X125288407Y-80752813D01*
X125288925Y-80692507D01*
X125299887Y-80647303D01*
X125321092Y-80575486D01*
X125350648Y-80482449D01*
X125386663Y-80373589D01*
X125427245Y-80254300D01*
X125470503Y-80129976D01*
X125514545Y-80006014D01*
X125557480Y-79887808D01*
X125597416Y-79780754D01*
X125632461Y-79690245D01*
X125660723Y-79621678D01*
X125676010Y-79588531D01*
X125720298Y-79506717D01*
X125770715Y-79422622D01*
X125822267Y-79343761D01*
X125869961Y-79277654D01*
X125908806Y-79231816D01*
X125919544Y-79221823D01*
X125941901Y-79196790D01*
X125946765Y-79184211D01*
X125930157Y-79181203D01*
X125882365Y-79178411D01*
X125806436Y-79175890D01*
X125705417Y-79173692D01*
X125582355Y-79171871D01*
X125440298Y-79170479D01*
X125282293Y-79169570D01*
X125111386Y-79169198D01*
X125085395Y-79169191D01*
X124224026Y-79169191D01*
X124182849Y-79125360D01*
X124149850Y-79066292D01*
X124145275Y-78992535D01*
X124169182Y-78908566D01*
X124179712Y-78886315D01*
X124218408Y-78822832D01*
X124265301Y-78775843D01*
X124332518Y-78733401D01*
X124337870Y-78730521D01*
X124348540Y-78725402D01*
X124361602Y-78720858D01*
X124379045Y-78716857D01*
X124402861Y-78713363D01*
X124435040Y-78710342D01*
X124477573Y-78707759D01*
X124532451Y-78705581D01*
X124601663Y-78703774D01*
X124687202Y-78702302D01*
X124791057Y-78701131D01*
X124915219Y-78700228D01*
X125061679Y-78699559D01*
X125232427Y-78699087D01*
X125429454Y-78698780D01*
X125654752Y-78698604D01*
X125910309Y-78698523D01*
X126196594Y-78698504D01*
X126487572Y-78698462D01*
X126746253Y-78698406D01*
X126974571Y-78698439D01*
G37*
G36*
X175276687Y-82970409D02*
G01*
X175314057Y-82987253D01*
X175338639Y-83011240D01*
X175357210Y-83034264D01*
X175370651Y-83057162D01*
X175378283Y-83083603D01*
X175379429Y-83117256D01*
X175373411Y-83161791D01*
X175359551Y-83220876D01*
X175337171Y-83298181D01*
X175305595Y-83397376D01*
X175264144Y-83522128D01*
X175220266Y-83652107D01*
X175157980Y-83833369D01*
X175102981Y-83986140D01*
X175053021Y-84114806D01*
X175005849Y-84223752D01*
X174959219Y-84317364D01*
X174910881Y-84400028D01*
X174858586Y-84476130D01*
X174800086Y-84550055D01*
X174733133Y-84626189D01*
X174705509Y-84656073D01*
X174532964Y-84820659D01*
X174351218Y-84953871D01*
X174156823Y-85058081D01*
X174067003Y-85095125D01*
X174047571Y-85102326D01*
X174028393Y-85108573D01*
X174006997Y-85113940D01*
X173980910Y-85118504D01*
X173947660Y-85122340D01*
X173904775Y-85125525D01*
X173849783Y-85128133D01*
X173780212Y-85130241D01*
X173693589Y-85131925D01*
X173587443Y-85133260D01*
X173459301Y-85134322D01*
X173306691Y-85135187D01*
X173127142Y-85135930D01*
X172918180Y-85136628D01*
X172690296Y-85137317D01*
X172444771Y-85137965D01*
X172231121Y-85138320D01*
X172046991Y-85138346D01*
X171890026Y-85138005D01*
X171757871Y-85137261D01*
X171648170Y-85136075D01*
X171558567Y-85134413D01*
X171486709Y-85132235D01*
X171430238Y-85129506D01*
X171386800Y-85126188D01*
X171354040Y-85122244D01*
X171329602Y-85117638D01*
X171322416Y-85115818D01*
X171215954Y-85077408D01*
X171128729Y-85022326D01*
X171056184Y-84952618D01*
X170982135Y-84848151D01*
X170935294Y-84727240D01*
X170915061Y-84601631D01*
X170916097Y-84464665D01*
X170940084Y-84343462D01*
X170985020Y-84241040D01*
X171048904Y-84160418D01*
X171129735Y-84104612D01*
X171225513Y-84076643D01*
X171264888Y-84073946D01*
X171325630Y-84076930D01*
X171365910Y-84090251D01*
X171393258Y-84111977D01*
X171412485Y-84134550D01*
X171423663Y-84160514D01*
X171428459Y-84198776D01*
X171428541Y-84258241D01*
X171427470Y-84294690D01*
X171426497Y-84372437D01*
X171430745Y-84426036D01*
X171441614Y-84465359D01*
X171455528Y-84492367D01*
X171516248Y-84561626D01*
X171600965Y-84614962D01*
X171699554Y-84646656D01*
X171736874Y-84650391D01*
X171804497Y-84653659D01*
X171898717Y-84656464D01*
X172015828Y-84658810D01*
X172152126Y-84660702D01*
X172303904Y-84662143D01*
X172467456Y-84663138D01*
X172639078Y-84663689D01*
X172815062Y-84663803D01*
X172991704Y-84663482D01*
X173165297Y-84662731D01*
X173332136Y-84661553D01*
X173488516Y-84659954D01*
X173630730Y-84657936D01*
X173755072Y-84655504D01*
X173857838Y-84652662D01*
X173935321Y-84649415D01*
X173983816Y-84645765D01*
X173994541Y-84644136D01*
X174069807Y-84621925D01*
X174153623Y-84587642D01*
X174233159Y-84547317D01*
X174295588Y-84506978D01*
X174307749Y-84496953D01*
X174357171Y-84447058D01*
X174414006Y-84380742D01*
X174469656Y-84308936D01*
X174515524Y-84242570D01*
X174537195Y-84205228D01*
X174552292Y-84170128D01*
X174576500Y-84107524D01*
X174608019Y-84022358D01*
X174645048Y-83919574D01*
X174685789Y-83804113D01*
X174728442Y-83680919D01*
X174733567Y-83665955D01*
X174775743Y-83543587D01*
X174815613Y-83429618D01*
X174851500Y-83328711D01*
X174881726Y-83245530D01*
X174904612Y-83184740D01*
X174918482Y-83151002D01*
X174919706Y-83148517D01*
X174980271Y-83067286D01*
X175062832Y-83006825D01*
X175158936Y-82972255D01*
X175220736Y-82966069D01*
X175276687Y-82970409D01*
G37*
G36*
X157937676Y-78721327D02*
G01*
X157992461Y-78758379D01*
X158028985Y-78810539D01*
X158039083Y-78857496D01*
X158033428Y-78890374D01*
X158017580Y-78950415D01*
X157993218Y-79032670D01*
X157962018Y-79132195D01*
X157925658Y-79244043D01*
X157885815Y-79363266D01*
X157844167Y-79484920D01*
X157802392Y-79604058D01*
X157762165Y-79715732D01*
X157725165Y-79814998D01*
X157693070Y-79896908D01*
X157667556Y-79956516D01*
X157663420Y-79965266D01*
X157552354Y-80159692D01*
X157415343Y-80341126D01*
X157257082Y-80505100D01*
X157082263Y-80647146D01*
X156895579Y-80762793D01*
X156759611Y-80825944D01*
X156644137Y-80872224D01*
X155377560Y-80874988D01*
X155170473Y-80875243D01*
X154971981Y-80875106D01*
X154784954Y-80874602D01*
X154612263Y-80873757D01*
X154456778Y-80872596D01*
X154321370Y-80871145D01*
X154208909Y-80869429D01*
X154122265Y-80867474D01*
X154064308Y-80865304D01*
X154038652Y-80863114D01*
X153923082Y-80822811D01*
X153819756Y-80753258D01*
X153732313Y-80658333D01*
X153664388Y-80541919D01*
X153622136Y-80418652D01*
X153605106Y-80307949D01*
X153600768Y-80178642D01*
X153608752Y-80043767D01*
X153628686Y-79916363D01*
X153637476Y-79879501D01*
X153653443Y-79823823D01*
X153677821Y-79745263D01*
X153708757Y-79649250D01*
X153744398Y-79541211D01*
X153782889Y-79426573D01*
X153822377Y-79310764D01*
X153861008Y-79199210D01*
X153896929Y-79097340D01*
X153928286Y-79010582D01*
X153953225Y-78944361D01*
X153969893Y-78904107D01*
X153972239Y-78899324D01*
X154024185Y-78826376D01*
X154092146Y-78768601D01*
X154169096Y-78728708D01*
X154248010Y-78709409D01*
X154321861Y-78713416D01*
X154381215Y-78741502D01*
X154403987Y-78761176D01*
X154420604Y-78782201D01*
X154430501Y-78808139D01*
X154433115Y-78842553D01*
X154427882Y-78889005D01*
X154414237Y-78951056D01*
X154391616Y-79032269D01*
X154359456Y-79136207D01*
X154317193Y-79266431D01*
X154280513Y-79377494D01*
X154231683Y-79525863D01*
X154192950Y-79646301D01*
X154163122Y-79743195D01*
X154141004Y-79820930D01*
X154125404Y-79883892D01*
X154115127Y-79936466D01*
X154108982Y-79983039D01*
X154106305Y-80017711D01*
X154106830Y-80123869D01*
X154124673Y-80206094D01*
X154163667Y-80271917D01*
X154227641Y-80328866D01*
X154282142Y-80363374D01*
X154294707Y-80369370D01*
X154311774Y-80374535D01*
X154335903Y-80378943D01*
X154369652Y-80382673D01*
X154415583Y-80385801D01*
X154476254Y-80388405D01*
X154554224Y-80390560D01*
X154652054Y-80392345D01*
X154772303Y-80393835D01*
X154917530Y-80395107D01*
X155090295Y-80396240D01*
X155293157Y-80397308D01*
X155434039Y-80397967D01*
X155692642Y-80398831D01*
X155921571Y-80398949D01*
X156120163Y-80398330D01*
X156287756Y-80396979D01*
X156423690Y-80394905D01*
X156527302Y-80392115D01*
X156597930Y-80388616D01*
X156632152Y-80384977D01*
X156774819Y-80342198D01*
X156909644Y-80267412D01*
X157013881Y-80183218D01*
X157060445Y-80135952D01*
X157103500Y-80082269D01*
X157144786Y-80018528D01*
X157186043Y-79941088D01*
X157229010Y-79846306D01*
X157275428Y-79730542D01*
X157327037Y-79590154D01*
X157385576Y-79421500D01*
X157404353Y-79366024D01*
X157451735Y-79226234D01*
X157490308Y-79114910D01*
X157521782Y-79027943D01*
X157547868Y-78961224D01*
X157570275Y-78910644D01*
X157590715Y-78872093D01*
X157610898Y-78841462D01*
X157632534Y-78814641D01*
X157635049Y-78811778D01*
X157694457Y-78764075D01*
X157772199Y-78727393D01*
X157852634Y-78708574D01*
X157873520Y-78707438D01*
X157937676Y-78721327D01*
G37*
G36*
X128240609Y-80064963D02*
G01*
X128719407Y-80064963D01*
X128735931Y-80171047D01*
X128777475Y-80258731D01*
X128843693Y-80326106D01*
X128934239Y-80371261D01*
X128954095Y-80377152D01*
X128987358Y-80381468D01*
X129051215Y-80385397D01*
X129142032Y-80388930D01*
X129256172Y-80392054D01*
X129390000Y-80394760D01*
X129539881Y-80397035D01*
X129702180Y-80398870D01*
X129873260Y-80400254D01*
X130049488Y-80401175D01*
X130227227Y-80401622D01*
X130402842Y-80401585D01*
X130572697Y-80401053D01*
X130733158Y-80400014D01*
X130880589Y-80398459D01*
X131011354Y-80396375D01*
X131121819Y-80393753D01*
X131208347Y-80390580D01*
X131267304Y-80386847D01*
X131288869Y-80384162D01*
X131428968Y-80340819D01*
X131560137Y-80267092D01*
X131678115Y-80166510D01*
X131778639Y-80042600D01*
X131846840Y-79922291D01*
X131910848Y-79764265D01*
X131945736Y-79624168D01*
X131951491Y-79501919D01*
X131928104Y-79397437D01*
X131875565Y-79310638D01*
X131793863Y-79241443D01*
X131756740Y-79220539D01*
X131672034Y-79177749D01*
X130542385Y-79177749D01*
X130317051Y-79177794D01*
X130123309Y-79177975D01*
X129958518Y-79178362D01*
X129820037Y-79179025D01*
X129705226Y-79180033D01*
X129611444Y-79181455D01*
X129536052Y-79183363D01*
X129476409Y-79185824D01*
X129429873Y-79188910D01*
X129393806Y-79192689D01*
X129365565Y-79197231D01*
X129342512Y-79202607D01*
X129322005Y-79208885D01*
X129318598Y-79210041D01*
X129162272Y-79280493D01*
X129028219Y-79376936D01*
X128916497Y-79499320D01*
X128827161Y-79647595D01*
X128823413Y-79655412D01*
X128762803Y-79805236D01*
X128728249Y-79942389D01*
X128719407Y-80064963D01*
X128240609Y-80064963D01*
X128241210Y-80052812D01*
X128259001Y-79930690D01*
X128264705Y-79905175D01*
X128318079Y-79739875D01*
X128397827Y-79568747D01*
X128499050Y-79399881D01*
X128616845Y-79241366D01*
X128746314Y-79101290D01*
X128758952Y-79089321D01*
X128850876Y-79010049D01*
X128954035Y-78932071D01*
X129058266Y-78862451D01*
X129153404Y-78808250D01*
X129185439Y-78792997D01*
X129225272Y-78775419D01*
X129261469Y-78760207D01*
X129296730Y-78747177D01*
X129333754Y-78736142D01*
X129375240Y-78726917D01*
X129423888Y-78719319D01*
X129482396Y-78713161D01*
X129553463Y-78708259D01*
X129639791Y-78704428D01*
X129744076Y-78701483D01*
X129869020Y-78699237D01*
X130017320Y-78697508D01*
X130191677Y-78696109D01*
X130394789Y-78694855D01*
X130629356Y-78693562D01*
X130636522Y-78693523D01*
X130883228Y-78692281D01*
X131098204Y-78691515D01*
X131283949Y-78691340D01*
X131442963Y-78691869D01*
X131577745Y-78693216D01*
X131690796Y-78695494D01*
X131784615Y-78698816D01*
X131861701Y-78703298D01*
X131924555Y-78709052D01*
X131975675Y-78716191D01*
X132017562Y-78724830D01*
X132052714Y-78735082D01*
X132083633Y-78747061D01*
X132112293Y-78760616D01*
X132223280Y-78835325D01*
X132311858Y-78935067D01*
X132377277Y-79058367D01*
X132418786Y-79203749D01*
X132435634Y-79369737D01*
X132435990Y-79397117D01*
X132427419Y-79551577D01*
X132399310Y-79697918D01*
X132348976Y-79847390D01*
X132304206Y-79949155D01*
X132192742Y-80148566D01*
X132055599Y-80333609D01*
X131897059Y-80500162D01*
X131721404Y-80644101D01*
X131532914Y-80761303D01*
X131393843Y-80825944D01*
X131278369Y-80872224D01*
X130011792Y-80874988D01*
X129804705Y-80875243D01*
X129606213Y-80875106D01*
X129419186Y-80874602D01*
X129246495Y-80873757D01*
X129091010Y-80872596D01*
X128955602Y-80871145D01*
X128843141Y-80869429D01*
X128756496Y-80867474D01*
X128698540Y-80865304D01*
X128672884Y-80863114D01*
X128557350Y-80822822D01*
X128454042Y-80753300D01*
X128366628Y-80658462D01*
X128298775Y-80542224D01*
X128256514Y-80418652D01*
X128239748Y-80310502D01*
X128234719Y-80183986D01*
X128240609Y-80064963D01*
G37*
G36*
X132742092Y-84326823D02*
G01*
X133220890Y-84326823D01*
X133237414Y-84432907D01*
X133278957Y-84520591D01*
X133345175Y-84587965D01*
X133435721Y-84633121D01*
X133455577Y-84639012D01*
X133488840Y-84643328D01*
X133552698Y-84647257D01*
X133643514Y-84650790D01*
X133757654Y-84653914D01*
X133891482Y-84656620D01*
X134041363Y-84658895D01*
X134203662Y-84660730D01*
X134374743Y-84662114D01*
X134550970Y-84663035D01*
X134728709Y-84663482D01*
X134904324Y-84663445D01*
X135074180Y-84662913D01*
X135234641Y-84661874D01*
X135382072Y-84660319D01*
X135512837Y-84658235D01*
X135623301Y-84655613D01*
X135709830Y-84652440D01*
X135768786Y-84648707D01*
X135790352Y-84646022D01*
X135930450Y-84602679D01*
X136061619Y-84528952D01*
X136179597Y-84428370D01*
X136280122Y-84304460D01*
X136348323Y-84184151D01*
X136412331Y-84026125D01*
X136447218Y-83886028D01*
X136452974Y-83763779D01*
X136429587Y-83659296D01*
X136377048Y-83572498D01*
X136295345Y-83503303D01*
X136258222Y-83482399D01*
X136173517Y-83439609D01*
X135043867Y-83439609D01*
X134818534Y-83439654D01*
X134624792Y-83439835D01*
X134460000Y-83440222D01*
X134321519Y-83440885D01*
X134206708Y-83441892D01*
X134112927Y-83443315D01*
X134037535Y-83445222D01*
X133977891Y-83447684D01*
X133931356Y-83450770D01*
X133895288Y-83454549D01*
X133867048Y-83459091D01*
X133843995Y-83464466D01*
X133823488Y-83470745D01*
X133820080Y-83471901D01*
X133663754Y-83542353D01*
X133529702Y-83638796D01*
X133417980Y-83761180D01*
X133328643Y-83909455D01*
X133324896Y-83917272D01*
X133264285Y-84067096D01*
X133229732Y-84204249D01*
X133220890Y-84326823D01*
X132742092Y-84326823D01*
X132742693Y-84314672D01*
X132760484Y-84192550D01*
X132766187Y-84167035D01*
X132819561Y-84001735D01*
X132899310Y-83830607D01*
X133000532Y-83661741D01*
X133118328Y-83503225D01*
X133247796Y-83363150D01*
X133260435Y-83351180D01*
X133352358Y-83271908D01*
X133455518Y-83193931D01*
X133559749Y-83124311D01*
X133654886Y-83070110D01*
X133686921Y-83054857D01*
X133726754Y-83037279D01*
X133762952Y-83022067D01*
X133798213Y-83009036D01*
X133835237Y-82998001D01*
X133876723Y-82988777D01*
X133925370Y-82981179D01*
X133983878Y-82975021D01*
X134054946Y-82970119D01*
X134141273Y-82966288D01*
X134245559Y-82963342D01*
X134370502Y-82961097D01*
X134518802Y-82959368D01*
X134693159Y-82957969D01*
X134896272Y-82956715D01*
X135130839Y-82955422D01*
X135138005Y-82955383D01*
X135384711Y-82954140D01*
X135599686Y-82953375D01*
X135785431Y-82953200D01*
X135944445Y-82953729D01*
X136079228Y-82955075D01*
X136192279Y-82957353D01*
X136286097Y-82960676D01*
X136363184Y-82965158D01*
X136426037Y-82970911D01*
X136477157Y-82978051D01*
X136519044Y-82986690D01*
X136554197Y-82996942D01*
X136585115Y-83008921D01*
X136613776Y-83022476D01*
X136724762Y-83097185D01*
X136813340Y-83196927D01*
X136878759Y-83320227D01*
X136920268Y-83465609D01*
X136937117Y-83631597D01*
X136937472Y-83658977D01*
X136928902Y-83813437D01*
X136900792Y-83959778D01*
X136850458Y-84109250D01*
X136805689Y-84211015D01*
X136694225Y-84410426D01*
X136557082Y-84595469D01*
X136398542Y-84762022D01*
X136222886Y-84905961D01*
X136034396Y-85023163D01*
X135895326Y-85087803D01*
X135779851Y-85134083D01*
X134513274Y-85136848D01*
X134306187Y-85137103D01*
X134107695Y-85136965D01*
X133920668Y-85136462D01*
X133747977Y-85135616D01*
X133592493Y-85134456D01*
X133457084Y-85133005D01*
X133344623Y-85131289D01*
X133257979Y-85129333D01*
X133200022Y-85127164D01*
X133174367Y-85124974D01*
X133058832Y-85084682D01*
X132955524Y-85015160D01*
X132868111Y-84920322D01*
X132800258Y-84804083D01*
X132757997Y-84680512D01*
X132741230Y-84572362D01*
X132736202Y-84445845D01*
X132742092Y-84326823D01*
G37*
G36*
X166391957Y-84326823D02*
G01*
X166870755Y-84326823D01*
X166887279Y-84432907D01*
X166928823Y-84520591D01*
X166995040Y-84587965D01*
X167085586Y-84633121D01*
X167105443Y-84639012D01*
X167138706Y-84643328D01*
X167202563Y-84647257D01*
X167293379Y-84650790D01*
X167407519Y-84653914D01*
X167541348Y-84656620D01*
X167691229Y-84658895D01*
X167853527Y-84660730D01*
X168024608Y-84662114D01*
X168200836Y-84663035D01*
X168378575Y-84663482D01*
X168554190Y-84663445D01*
X168724045Y-84662913D01*
X168884506Y-84661874D01*
X169031937Y-84660319D01*
X169162702Y-84658235D01*
X169273167Y-84655613D01*
X169359695Y-84652440D01*
X169418651Y-84648707D01*
X169440217Y-84646022D01*
X169580315Y-84602679D01*
X169711485Y-84528952D01*
X169829463Y-84428370D01*
X169929987Y-84304460D01*
X169998188Y-84184151D01*
X170062196Y-84026125D01*
X170097083Y-83886028D01*
X170102839Y-83763779D01*
X170079452Y-83659296D01*
X170026913Y-83572498D01*
X169945210Y-83503303D01*
X169908087Y-83482399D01*
X169823382Y-83439609D01*
X168693733Y-83439609D01*
X168468399Y-83439654D01*
X168274657Y-83439835D01*
X168109865Y-83440222D01*
X167971385Y-83440885D01*
X167856574Y-83441892D01*
X167762792Y-83443315D01*
X167687400Y-83445222D01*
X167627756Y-83447684D01*
X167581221Y-83450770D01*
X167545153Y-83454549D01*
X167516913Y-83459091D01*
X167493860Y-83464466D01*
X167473353Y-83470745D01*
X167469946Y-83471901D01*
X167313619Y-83542353D01*
X167179567Y-83638796D01*
X167067845Y-83761180D01*
X166978509Y-83909455D01*
X166974761Y-83917272D01*
X166914150Y-84067096D01*
X166879597Y-84204249D01*
X166870755Y-84326823D01*
X166391957Y-84326823D01*
X166392558Y-84314672D01*
X166410349Y-84192550D01*
X166416053Y-84167035D01*
X166469427Y-84001735D01*
X166549175Y-83830607D01*
X166650397Y-83661741D01*
X166768193Y-83503225D01*
X166897662Y-83363150D01*
X166910300Y-83351180D01*
X167002223Y-83271908D01*
X167105383Y-83193931D01*
X167209614Y-83124311D01*
X167304751Y-83070110D01*
X167336786Y-83054857D01*
X167376620Y-83037279D01*
X167412817Y-83022067D01*
X167448078Y-83009036D01*
X167485102Y-82998001D01*
X167526588Y-82988777D01*
X167575235Y-82981179D01*
X167633743Y-82975021D01*
X167704811Y-82970119D01*
X167791138Y-82966288D01*
X167895424Y-82963342D01*
X168020367Y-82961097D01*
X168168668Y-82959368D01*
X168343024Y-82957969D01*
X168546137Y-82956715D01*
X168780704Y-82955422D01*
X168787870Y-82955383D01*
X169034576Y-82954140D01*
X169249551Y-82953375D01*
X169435296Y-82953200D01*
X169594310Y-82953729D01*
X169729093Y-82955075D01*
X169842144Y-82957353D01*
X169935963Y-82960676D01*
X170013049Y-82965158D01*
X170075902Y-82970911D01*
X170127023Y-82978051D01*
X170168909Y-82986690D01*
X170204062Y-82996942D01*
X170234980Y-83008921D01*
X170263641Y-83022476D01*
X170374628Y-83097185D01*
X170463206Y-83196927D01*
X170528624Y-83320227D01*
X170570133Y-83465609D01*
X170586982Y-83631597D01*
X170587338Y-83658977D01*
X170578767Y-83813437D01*
X170550657Y-83959778D01*
X170500324Y-84109250D01*
X170455554Y-84211015D01*
X170344090Y-84410426D01*
X170206947Y-84595469D01*
X170048407Y-84762022D01*
X169872751Y-84905961D01*
X169684261Y-85023163D01*
X169545191Y-85087803D01*
X169429716Y-85134083D01*
X168163140Y-85136848D01*
X167956052Y-85137103D01*
X167757560Y-85136965D01*
X167570534Y-85136462D01*
X167397843Y-85135616D01*
X167242358Y-85134456D01*
X167106950Y-85133005D01*
X166994488Y-85131289D01*
X166907844Y-85129333D01*
X166849887Y-85127164D01*
X166824232Y-85124974D01*
X166708697Y-85084682D01*
X166605390Y-85015160D01*
X166517976Y-84920322D01*
X166450123Y-84804083D01*
X166407862Y-84680512D01*
X166391096Y-84572362D01*
X166386067Y-84445845D01*
X166391957Y-84326823D01*
G37*
G36*
X161075284Y-78693016D02*
G01*
X161285162Y-78693867D01*
X161463822Y-78695243D01*
X161610686Y-78697141D01*
X161725173Y-78699555D01*
X161806702Y-78702481D01*
X161854694Y-78705915D01*
X161859997Y-78706628D01*
X162002478Y-78740222D01*
X162119809Y-78794623D01*
X162215136Y-78872525D01*
X162291605Y-78976621D01*
X162352363Y-79109606D01*
X162361646Y-79136143D01*
X162383811Y-79234950D01*
X162393369Y-79354608D01*
X162390465Y-79484202D01*
X162375243Y-79612814D01*
X162354102Y-79708342D01*
X162281022Y-79911366D01*
X162179002Y-80107151D01*
X162051941Y-80291283D01*
X161903738Y-80459351D01*
X161738291Y-80606943D01*
X161559499Y-80729645D01*
X161371262Y-80823047D01*
X161367916Y-80824390D01*
X161248315Y-80872224D01*
X159656536Y-80876383D01*
X159386309Y-80877057D01*
X159148214Y-80877559D01*
X158940153Y-80877856D01*
X158760028Y-80877915D01*
X158605739Y-80877704D01*
X158475188Y-80877190D01*
X158366275Y-80876341D01*
X158276903Y-80875123D01*
X158204972Y-80873506D01*
X158148384Y-80871454D01*
X158105039Y-80868938D01*
X158072840Y-80865923D01*
X158049687Y-80862377D01*
X158033481Y-80858267D01*
X158022124Y-80853562D01*
X158017558Y-80850945D01*
X157988620Y-80830233D01*
X157967664Y-80806836D01*
X157955151Y-80777199D01*
X157951543Y-80737768D01*
X157957301Y-80684989D01*
X157972886Y-80615309D01*
X157998760Y-80525173D01*
X158035382Y-80411028D01*
X158083215Y-80269319D01*
X158099002Y-80223278D01*
X158150856Y-80072973D01*
X158193607Y-79951528D01*
X158229098Y-79855370D01*
X158259171Y-79780925D01*
X158285669Y-79724618D01*
X158310435Y-79682877D01*
X158335311Y-79652127D01*
X158362140Y-79628793D01*
X158392765Y-79609302D01*
X158424191Y-79592557D01*
X158504984Y-79564647D01*
X158586925Y-79559484D01*
X158658629Y-79577303D01*
X158676715Y-79587343D01*
X158705058Y-79609594D01*
X158723928Y-79635952D01*
X158732942Y-79670599D01*
X158731716Y-79717716D01*
X158719865Y-79781483D01*
X158697005Y-79866081D01*
X158662753Y-79975692D01*
X158632655Y-80066956D01*
X158520973Y-80401536D01*
X159835239Y-80401536D01*
X160086686Y-80401307D01*
X160318226Y-80400634D01*
X160528125Y-80399537D01*
X160714647Y-80398039D01*
X160876058Y-80396159D01*
X161010623Y-80393920D01*
X161116607Y-80391343D01*
X161192275Y-80388448D01*
X161235891Y-80385257D01*
X161241700Y-80384394D01*
X161380958Y-80341700D01*
X161510665Y-80269613D01*
X161627547Y-80172391D01*
X161728331Y-80054293D01*
X161809744Y-79919577D01*
X161868512Y-79772500D01*
X161901362Y-79617322D01*
X161907277Y-79518543D01*
X161894246Y-79410379D01*
X161854172Y-79322665D01*
X161785585Y-79253090D01*
X161710444Y-79209513D01*
X161697128Y-79204034D01*
X161680994Y-79199211D01*
X161659850Y-79194993D01*
X161631507Y-79191330D01*
X161593772Y-79188171D01*
X161544456Y-79185464D01*
X161481367Y-79183160D01*
X161402314Y-79181208D01*
X161305107Y-79179556D01*
X161187554Y-79178155D01*
X161047465Y-79176953D01*
X160882649Y-79175899D01*
X160690914Y-79174944D01*
X160470070Y-79174035D01*
X160217926Y-79173124D01*
X160125203Y-79172806D01*
X158608426Y-79167649D01*
X158567973Y-79124589D01*
X158535586Y-79066153D01*
X158531154Y-78992762D01*
X158554725Y-78909291D01*
X158565561Y-78886315D01*
X158604257Y-78822832D01*
X158651150Y-78775843D01*
X158718368Y-78733401D01*
X158723719Y-78730521D01*
X158735502Y-78724903D01*
X158749955Y-78719968D01*
X158769289Y-78715664D01*
X158795712Y-78711936D01*
X158831433Y-78708733D01*
X158878660Y-78706002D01*
X158939603Y-78703690D01*
X159016471Y-78701743D01*
X159111473Y-78700110D01*
X159226816Y-78698737D01*
X159364711Y-78697571D01*
X159527366Y-78696560D01*
X159716990Y-78695651D01*
X159935793Y-78694790D01*
X160185981Y-78693925D01*
X160264150Y-78693668D01*
X160564198Y-78692912D01*
X160834770Y-78692697D01*
X161075284Y-78693016D01*
G37*
G36*
X136988251Y-78709393D02*
G01*
X137030302Y-78728803D01*
X137053171Y-78748822D01*
X137087903Y-78806171D01*
X137097409Y-78877200D01*
X137081622Y-78952374D01*
X137055023Y-79003028D01*
X137015641Y-79045249D01*
X136948851Y-79099215D01*
X136858499Y-79162701D01*
X136748427Y-79233481D01*
X136622479Y-79309327D01*
X136484499Y-79388014D01*
X136338330Y-79467315D01*
X136187817Y-79545005D01*
X136036803Y-79618857D01*
X135889132Y-79686645D01*
X135831199Y-79711846D01*
X135767887Y-79739674D01*
X135716860Y-79763534D01*
X135686222Y-79779578D01*
X135681583Y-79782854D01*
X135690254Y-79796296D01*
X135722905Y-79824364D01*
X135774669Y-79863252D01*
X135840678Y-79909158D01*
X135857882Y-79920652D01*
X135971671Y-80000324D01*
X136083651Y-80086509D01*
X136190297Y-80175777D01*
X136288083Y-80264695D01*
X136373485Y-80349833D01*
X136442976Y-80427758D01*
X136493032Y-80495040D01*
X136520126Y-80548248D01*
X136523969Y-80568966D01*
X136509599Y-80638891D01*
X136469560Y-80711765D01*
X136410598Y-80779537D01*
X136339459Y-80834155D01*
X136277334Y-80863295D01*
X136227518Y-80875975D01*
X136181805Y-80876980D01*
X136134917Y-80863854D01*
X136081578Y-80834143D01*
X136016511Y-80785389D01*
X135934441Y-80715137D01*
X135907653Y-80691242D01*
X135723899Y-80536844D01*
X135537810Y-80400435D01*
X135354161Y-80285024D01*
X135177726Y-80193619D01*
X135018194Y-80130803D01*
X134947977Y-80108449D01*
X134885745Y-80089937D01*
X134827328Y-80074863D01*
X134768561Y-80062820D01*
X134705274Y-80053405D01*
X134633301Y-80046212D01*
X134548475Y-80040836D01*
X134446627Y-80036871D01*
X134323590Y-80033914D01*
X134175196Y-80031558D01*
X133997279Y-80029400D01*
X133971878Y-80029114D01*
X133276438Y-80021315D01*
X133177894Y-80318400D01*
X133144284Y-80418020D01*
X133112082Y-80510367D01*
X133083659Y-80588873D01*
X133061386Y-80646965D01*
X133049059Y-80675391D01*
X132994801Y-80755393D01*
X132925319Y-80817576D01*
X132847135Y-80859065D01*
X132766772Y-80876983D01*
X132690752Y-80868453D01*
X132651790Y-80850609D01*
X132606893Y-80809833D01*
X132586579Y-80754416D01*
X132585203Y-80699635D01*
X132591292Y-80673481D01*
X132607423Y-80618725D01*
X132632340Y-80539078D01*
X132664782Y-80438250D01*
X132703492Y-80319953D01*
X132747212Y-80187897D01*
X132794682Y-80045792D01*
X132844644Y-79897351D01*
X132895841Y-79746282D01*
X132947013Y-79596297D01*
X132996902Y-79451106D01*
X133044251Y-79314421D01*
X133087799Y-79189951D01*
X133126289Y-79081408D01*
X133158463Y-78992503D01*
X133183062Y-78926945D01*
X133198828Y-78888446D01*
X133200884Y-78884175D01*
X133262501Y-78797863D01*
X133343827Y-78738240D01*
X133440901Y-78707764D01*
X133490692Y-78704209D01*
X133566702Y-78717172D01*
X133621074Y-78753976D01*
X133650454Y-78811498D01*
X133654623Y-78856923D01*
X133648438Y-78893360D01*
X133632634Y-78955617D01*
X133609063Y-79037261D01*
X133579578Y-79131859D01*
X133547941Y-79227385D01*
X133515282Y-79323584D01*
X133486800Y-79408180D01*
X133464208Y-79476029D01*
X133449217Y-79521989D01*
X133443540Y-79540918D01*
X133443530Y-79541042D01*
X133460061Y-79542402D01*
X133507316Y-79543324D01*
X133581792Y-79543808D01*
X133679983Y-79543858D01*
X133798387Y-79543477D01*
X133933498Y-79542666D01*
X134081813Y-79541429D01*
X134175235Y-79540488D01*
X134357382Y-79538465D01*
X134509441Y-79536422D01*
X134635554Y-79534019D01*
X134739863Y-79530916D01*
X134826510Y-79526774D01*
X134899638Y-79521251D01*
X134963388Y-79514009D01*
X135021903Y-79504708D01*
X135079325Y-79493007D01*
X135139796Y-79478566D01*
X135207458Y-79461046D01*
X135236285Y-79453413D01*
X135412789Y-79399514D01*
X135611617Y-79326075D01*
X135828425Y-79235013D01*
X136058864Y-79128245D01*
X136298589Y-79007688D01*
X136528713Y-78883393D01*
X136638143Y-78822768D01*
X136722693Y-78777312D01*
X136787041Y-78744931D01*
X136835865Y-78723531D01*
X136873846Y-78711019D01*
X136905662Y-78705301D01*
X136929121Y-78704209D01*
X136988251Y-78709393D01*
G37*
G36*
X140834225Y-82960361D02*
G01*
X141013453Y-82960702D01*
X141166801Y-82961429D01*
X141296357Y-82962669D01*
X141404207Y-82964553D01*
X141492439Y-82967208D01*
X141563142Y-82970763D01*
X141618403Y-82975347D01*
X141660310Y-82981088D01*
X141690951Y-82988116D01*
X141712413Y-82996558D01*
X141726783Y-83006544D01*
X141736151Y-83018202D01*
X141742603Y-83031661D01*
X141748228Y-83047050D01*
X141753613Y-83061026D01*
X141767018Y-83135246D01*
X141747905Y-83213378D01*
X141697379Y-83292904D01*
X141617972Y-83370155D01*
X141553321Y-83422493D01*
X140018742Y-83431483D01*
X139754610Y-83433045D01*
X139522489Y-83434480D01*
X139320159Y-83435851D01*
X139145399Y-83437219D01*
X138995991Y-83438645D01*
X138869712Y-83440192D01*
X138764344Y-83441922D01*
X138677666Y-83443895D01*
X138607458Y-83446173D01*
X138551500Y-83448818D01*
X138507571Y-83451893D01*
X138473452Y-83455458D01*
X138446921Y-83459575D01*
X138425760Y-83464306D01*
X138407748Y-83469712D01*
X138390665Y-83475856D01*
X138388210Y-83476783D01*
X138233162Y-83552308D01*
X138101329Y-83652924D01*
X137992257Y-83779051D01*
X137911208Y-83918854D01*
X137855908Y-84055446D01*
X137820959Y-84186583D01*
X137807164Y-84306805D01*
X137815326Y-84410651D01*
X137831210Y-84463101D01*
X137878499Y-84535907D01*
X137950068Y-84596424D01*
X138036301Y-84637168D01*
X138064317Y-84644572D01*
X138098217Y-84648454D01*
X138161892Y-84651872D01*
X138255875Y-84654833D01*
X138380698Y-84657344D01*
X138536894Y-84659410D01*
X138724994Y-84661040D01*
X138945532Y-84662238D01*
X139199041Y-84663012D01*
X139486052Y-84663369D01*
X139599232Y-84663396D01*
X139863953Y-84663378D01*
X140096568Y-84663421D01*
X140299202Y-84663668D01*
X140473980Y-84664262D01*
X140623029Y-84665346D01*
X140748473Y-84667065D01*
X140852437Y-84669561D01*
X140937048Y-84672978D01*
X141004430Y-84677460D01*
X141056709Y-84683150D01*
X141096011Y-84690190D01*
X141124461Y-84698726D01*
X141144183Y-84708900D01*
X141157305Y-84720855D01*
X141165950Y-84734735D01*
X141172245Y-84750684D01*
X141178315Y-84768844D01*
X141178711Y-84769985D01*
X141186824Y-84841973D01*
X141167331Y-84919277D01*
X141124437Y-84994567D01*
X141062349Y-85060514D01*
X140985269Y-85109787D01*
X140983232Y-85110720D01*
X140970073Y-85116059D01*
X140954147Y-85120748D01*
X140933293Y-85124826D01*
X140905351Y-85128333D01*
X140868163Y-85131309D01*
X140819567Y-85133791D01*
X140757404Y-85135820D01*
X140679514Y-85137436D01*
X140583737Y-85138676D01*
X140467912Y-85139581D01*
X140329881Y-85140190D01*
X140167482Y-85140541D01*
X139978557Y-85140675D01*
X139760944Y-85140631D01*
X139512485Y-85140448D01*
X139357075Y-85140297D01*
X139127805Y-85139932D01*
X138907406Y-85139327D01*
X138698406Y-85138503D01*
X138503331Y-85137483D01*
X138324709Y-85136287D01*
X138165065Y-85134937D01*
X138026927Y-85133454D01*
X137912821Y-85131861D01*
X137825276Y-85130177D01*
X137766816Y-85128426D01*
X137739970Y-85126627D01*
X137739622Y-85126561D01*
X137623467Y-85086923D01*
X137524942Y-85020634D01*
X137444705Y-84930772D01*
X137383413Y-84820413D01*
X137341721Y-84692636D01*
X137320288Y-84550516D01*
X137319771Y-84397131D01*
X137340825Y-84235558D01*
X137384107Y-84068874D01*
X137450275Y-83900155D01*
X137469322Y-83860331D01*
X137568689Y-83688176D01*
X137690828Y-83523173D01*
X137830219Y-83370843D01*
X137981344Y-83236709D01*
X138138681Y-83126294D01*
X138274791Y-83054499D01*
X138310129Y-83038794D01*
X138342291Y-83024938D01*
X138373548Y-83012817D01*
X138406171Y-83002315D01*
X138442430Y-82993315D01*
X138484598Y-82985702D01*
X138534945Y-82979360D01*
X138595742Y-82974173D01*
X138669260Y-82970025D01*
X138757772Y-82966801D01*
X138863547Y-82964385D01*
X138988857Y-82962660D01*
X139135973Y-82961511D01*
X139307166Y-82960823D01*
X139504707Y-82960478D01*
X139730868Y-82960363D01*
X139987920Y-82960359D01*
X140120378Y-82960364D01*
X140389775Y-82960321D01*
X140627028Y-82960277D01*
X140834225Y-82960361D01*
G37*
G36*
X146076796Y-82971253D02*
G01*
X146118847Y-82990663D01*
X146141715Y-83010682D01*
X146176447Y-83068031D01*
X146185954Y-83139060D01*
X146170166Y-83214234D01*
X146143568Y-83264888D01*
X146104185Y-83307109D01*
X146037396Y-83361075D01*
X145947043Y-83424561D01*
X145836971Y-83495340D01*
X145711023Y-83571187D01*
X145573043Y-83649874D01*
X145426875Y-83729175D01*
X145276361Y-83806865D01*
X145125347Y-83880717D01*
X144977676Y-83948504D01*
X144919743Y-83973706D01*
X144856431Y-84001534D01*
X144805404Y-84025394D01*
X144774766Y-84041438D01*
X144770127Y-84044713D01*
X144778798Y-84058156D01*
X144811449Y-84086223D01*
X144863213Y-84125112D01*
X144929223Y-84171017D01*
X144946426Y-84182512D01*
X145060215Y-84262184D01*
X145172195Y-84348369D01*
X145278841Y-84437637D01*
X145376628Y-84526555D01*
X145462030Y-84611693D01*
X145531521Y-84689618D01*
X145581576Y-84756900D01*
X145608671Y-84810108D01*
X145612513Y-84830826D01*
X145598144Y-84900751D01*
X145558105Y-84973625D01*
X145499143Y-85041397D01*
X145428004Y-85096015D01*
X145365878Y-85125155D01*
X145316063Y-85137835D01*
X145270349Y-85138840D01*
X145223461Y-85125714D01*
X145170122Y-85096002D01*
X145105056Y-85047249D01*
X145022985Y-84976997D01*
X144996197Y-84953102D01*
X144812444Y-84798704D01*
X144626355Y-84662295D01*
X144442706Y-84546884D01*
X144266271Y-84455479D01*
X144106738Y-84392663D01*
X144036522Y-84370309D01*
X143974289Y-84351797D01*
X143915873Y-84336723D01*
X143857105Y-84324680D01*
X143793819Y-84315265D01*
X143721846Y-84308072D01*
X143637019Y-84302695D01*
X143535171Y-84298731D01*
X143412134Y-84295774D01*
X143263741Y-84293418D01*
X143085823Y-84291259D01*
X143060422Y-84290973D01*
X142364983Y-84283175D01*
X142266439Y-84580260D01*
X142232828Y-84679880D01*
X142200626Y-84772227D01*
X142172203Y-84850732D01*
X142149930Y-84908825D01*
X142137603Y-84937250D01*
X142083345Y-85017252D01*
X142013863Y-85079436D01*
X141935680Y-85120925D01*
X141855317Y-85138843D01*
X141779296Y-85130313D01*
X141740335Y-85112469D01*
X141695438Y-85071692D01*
X141675124Y-85016276D01*
X141673747Y-84961495D01*
X141679836Y-84935340D01*
X141695968Y-84880584D01*
X141720884Y-84800937D01*
X141753327Y-84700110D01*
X141792037Y-84581813D01*
X141835756Y-84449757D01*
X141883226Y-84307652D01*
X141933189Y-84159210D01*
X141984385Y-84008141D01*
X142035558Y-83858156D01*
X142085447Y-83712966D01*
X142132795Y-83576280D01*
X142176343Y-83451811D01*
X142214834Y-83343268D01*
X142247008Y-83254363D01*
X142271607Y-83188805D01*
X142287372Y-83150306D01*
X142289428Y-83146035D01*
X142351046Y-83059723D01*
X142432372Y-83000099D01*
X142529446Y-82969624D01*
X142579237Y-82966069D01*
X142655247Y-82979031D01*
X142709619Y-83015836D01*
X142738999Y-83073358D01*
X142743168Y-83118782D01*
X142736983Y-83155220D01*
X142721179Y-83217477D01*
X142697608Y-83299121D01*
X142668123Y-83393719D01*
X142636486Y-83489245D01*
X142603827Y-83585444D01*
X142575345Y-83670040D01*
X142552753Y-83737889D01*
X142537762Y-83783849D01*
X142532084Y-83802777D01*
X142532075Y-83802901D01*
X142548605Y-83804262D01*
X142595860Y-83805184D01*
X142670336Y-83805668D01*
X142768528Y-83805718D01*
X142886931Y-83805336D01*
X143022043Y-83804526D01*
X143170357Y-83803289D01*
X143263780Y-83802348D01*
X143445927Y-83800325D01*
X143597986Y-83798282D01*
X143724098Y-83795879D01*
X143828407Y-83792776D01*
X143915055Y-83788633D01*
X143988182Y-83783111D01*
X144051933Y-83775869D01*
X144110448Y-83766568D01*
X144167870Y-83754867D01*
X144228341Y-83740426D01*
X144296003Y-83722906D01*
X144324830Y-83715273D01*
X144501333Y-83661374D01*
X144700162Y-83587935D01*
X144916969Y-83496873D01*
X145147409Y-83390105D01*
X145387133Y-83269548D01*
X145617257Y-83145253D01*
X145726688Y-83084628D01*
X145811238Y-83039172D01*
X145875585Y-83006791D01*
X145924410Y-82985391D01*
X145962391Y-82972879D01*
X145994207Y-82967160D01*
X146017665Y-82966069D01*
X146076796Y-82971253D01*
G37*
G36*
X183572634Y-82960361D02*
G01*
X183751863Y-82960702D01*
X183905211Y-82961429D01*
X184034766Y-82962669D01*
X184142616Y-82964553D01*
X184230849Y-82967208D01*
X184301552Y-82970763D01*
X184356813Y-82975347D01*
X184398720Y-82981088D01*
X184429361Y-82988116D01*
X184450822Y-82996558D01*
X184465193Y-83006544D01*
X184474561Y-83018202D01*
X184481013Y-83031661D01*
X184486637Y-83047050D01*
X184492023Y-83061026D01*
X184505428Y-83135246D01*
X184486315Y-83213378D01*
X184435789Y-83292904D01*
X184356382Y-83370155D01*
X184291731Y-83422493D01*
X182757152Y-83431483D01*
X182493020Y-83433045D01*
X182260899Y-83434480D01*
X182058569Y-83435851D01*
X181883809Y-83437219D01*
X181734400Y-83438645D01*
X181608122Y-83440192D01*
X181502754Y-83441922D01*
X181416076Y-83443895D01*
X181345868Y-83446173D01*
X181289909Y-83448818D01*
X181245981Y-83451893D01*
X181211861Y-83455458D01*
X181185331Y-83459575D01*
X181164170Y-83464306D01*
X181146158Y-83469712D01*
X181129074Y-83475856D01*
X181126619Y-83476783D01*
X180971572Y-83552308D01*
X180839739Y-83652924D01*
X180730667Y-83779051D01*
X180649618Y-83918854D01*
X180594318Y-84055446D01*
X180559369Y-84186583D01*
X180545574Y-84306805D01*
X180553735Y-84410651D01*
X180569620Y-84463101D01*
X180616909Y-84535907D01*
X180688477Y-84596424D01*
X180774711Y-84637168D01*
X180802727Y-84644572D01*
X180836627Y-84648454D01*
X180900302Y-84651872D01*
X180994285Y-84654833D01*
X181119108Y-84657344D01*
X181275303Y-84659410D01*
X181463404Y-84661040D01*
X181683942Y-84662238D01*
X181937451Y-84663012D01*
X182224461Y-84663369D01*
X182337642Y-84663396D01*
X182602363Y-84663378D01*
X182834978Y-84663421D01*
X183037612Y-84663668D01*
X183212390Y-84664262D01*
X183361439Y-84665346D01*
X183486882Y-84667065D01*
X183590847Y-84669561D01*
X183675457Y-84672978D01*
X183742840Y-84677460D01*
X183795119Y-84683150D01*
X183834421Y-84690190D01*
X183862870Y-84698726D01*
X183882593Y-84708900D01*
X183895715Y-84720855D01*
X183904360Y-84734735D01*
X183910655Y-84750684D01*
X183916725Y-84768844D01*
X183917121Y-84769985D01*
X183925233Y-84841973D01*
X183905741Y-84919277D01*
X183862847Y-84994567D01*
X183800758Y-85060514D01*
X183723679Y-85109787D01*
X183721642Y-85110720D01*
X183708483Y-85116059D01*
X183692556Y-85120748D01*
X183671702Y-85124826D01*
X183643761Y-85128333D01*
X183606573Y-85131309D01*
X183557977Y-85133791D01*
X183495814Y-85135820D01*
X183417924Y-85137436D01*
X183322147Y-85138676D01*
X183206322Y-85139581D01*
X183068291Y-85140190D01*
X182905892Y-85140541D01*
X182716967Y-85140675D01*
X182499354Y-85140631D01*
X182250894Y-85140448D01*
X182095485Y-85140297D01*
X181866215Y-85139932D01*
X181645816Y-85139327D01*
X181436816Y-85138503D01*
X181241741Y-85137483D01*
X181063118Y-85136287D01*
X180903475Y-85134937D01*
X180765337Y-85133454D01*
X180651231Y-85131861D01*
X180563685Y-85130177D01*
X180505226Y-85128426D01*
X180478379Y-85126627D01*
X180478032Y-85126561D01*
X180361876Y-85086923D01*
X180263352Y-85020634D01*
X180183115Y-84930772D01*
X180121822Y-84820413D01*
X180080131Y-84692636D01*
X180058698Y-84550516D01*
X180058180Y-84397131D01*
X180079234Y-84235558D01*
X180122517Y-84068874D01*
X180188685Y-83900155D01*
X180207732Y-83860331D01*
X180307099Y-83688176D01*
X180429238Y-83523173D01*
X180568629Y-83370843D01*
X180719753Y-83236709D01*
X180877090Y-83126294D01*
X181013200Y-83054499D01*
X181048539Y-83038794D01*
X181080701Y-83024938D01*
X181111958Y-83012817D01*
X181144580Y-83002315D01*
X181180840Y-82993315D01*
X181223008Y-82985702D01*
X181273354Y-82979360D01*
X181334151Y-82974173D01*
X181407670Y-82970025D01*
X181496181Y-82966801D01*
X181601956Y-82964385D01*
X181727266Y-82962660D01*
X181874382Y-82961511D01*
X182045575Y-82960823D01*
X182243117Y-82960478D01*
X182469278Y-82960363D01*
X182726330Y-82960359D01*
X182858787Y-82960364D01*
X183128184Y-82960321D01*
X183365437Y-82960277D01*
X183572634Y-82960361D01*
G37*
G36*
X171478277Y-78717456D02*
G01*
X171529821Y-78755971D01*
X171556873Y-78817917D01*
X171560646Y-78859510D01*
X171555139Y-78888695D01*
X171539508Y-78946170D01*
X171515092Y-79027968D01*
X171483228Y-79130123D01*
X171445253Y-79248669D01*
X171402505Y-79379640D01*
X171356322Y-79519068D01*
X171308040Y-79662988D01*
X171258997Y-79807434D01*
X171210532Y-79948438D01*
X171163980Y-80082034D01*
X171120681Y-80204257D01*
X171081971Y-80311139D01*
X171049187Y-80398715D01*
X171023668Y-80463017D01*
X171008642Y-80496502D01*
X170974604Y-80549521D01*
X170923308Y-80613512D01*
X170863761Y-80677497D01*
X170846204Y-80694514D01*
X170781353Y-80752786D01*
X170727399Y-80792516D01*
X170672742Y-80820962D01*
X170605782Y-80845383D01*
X170604436Y-80845817D01*
X170473682Y-80874471D01*
X170353644Y-80873697D01*
X170247377Y-80843707D01*
X170200600Y-80817978D01*
X170175273Y-80799790D01*
X170125347Y-80762533D01*
X170053292Y-80708095D01*
X169961579Y-80638363D01*
X169852678Y-80555222D01*
X169729058Y-80460561D01*
X169593189Y-80356265D01*
X169447542Y-80244222D01*
X169294587Y-80126319D01*
X169240410Y-80084501D01*
X169085545Y-79965037D01*
X168937172Y-79850796D01*
X168797756Y-79743665D01*
X168669763Y-79645526D01*
X168555656Y-79558264D01*
X168457902Y-79483763D01*
X168378966Y-79423908D01*
X168321313Y-79380583D01*
X168287409Y-79355672D01*
X168281639Y-79351672D01*
X168201888Y-79308824D01*
X168134681Y-79296136D01*
X168077010Y-79314614D01*
X168025864Y-79365262D01*
X167978236Y-79449088D01*
X167976055Y-79453813D01*
X167960188Y-79492691D01*
X167935096Y-79559487D01*
X167902397Y-79649650D01*
X167863711Y-79758629D01*
X167820657Y-79881873D01*
X167774855Y-80014831D01*
X167740304Y-80116327D01*
X167687622Y-80271159D01*
X167644140Y-80396946D01*
X167608465Y-80497191D01*
X167579200Y-80575400D01*
X167554948Y-80635077D01*
X167534315Y-80679726D01*
X167515905Y-80712853D01*
X167498321Y-80737961D01*
X167487727Y-80750480D01*
X167410857Y-80818465D01*
X167328334Y-80861400D01*
X167246080Y-80877578D01*
X167170020Y-80865291D01*
X167140335Y-80850609D01*
X167094931Y-80809104D01*
X167074756Y-80752696D01*
X167073688Y-80701064D01*
X167080302Y-80669719D01*
X167097194Y-80610208D01*
X167122978Y-80526550D01*
X167156268Y-80422761D01*
X167195679Y-80302862D01*
X167239825Y-80170869D01*
X167287320Y-80030801D01*
X167336780Y-79886676D01*
X167386818Y-79742512D01*
X167436049Y-79602327D01*
X167483088Y-79470140D01*
X167526549Y-79349967D01*
X167565046Y-79245828D01*
X167597195Y-79161741D01*
X167621608Y-79101723D01*
X167635153Y-79072797D01*
X167713759Y-78957717D01*
X167809554Y-78861454D01*
X167917714Y-78786041D01*
X168033415Y-78733513D01*
X168151831Y-78705904D01*
X168268138Y-78705248D01*
X168377510Y-78733579D01*
X168407001Y-78747382D01*
X168429610Y-78762502D01*
X168476956Y-78796817D01*
X168546710Y-78848562D01*
X168636541Y-78915975D01*
X168744122Y-78997290D01*
X168867123Y-79090745D01*
X169003214Y-79194574D01*
X169150067Y-79307015D01*
X169305353Y-79426303D01*
X169416277Y-79511742D01*
X169576044Y-79634699D01*
X169729023Y-79751977D01*
X169872881Y-79861814D01*
X170005288Y-79962451D01*
X170123910Y-80052130D01*
X170226414Y-80129090D01*
X170310470Y-80191573D01*
X170373745Y-80237818D01*
X170413906Y-80266068D01*
X170426927Y-80274150D01*
X170489675Y-80291457D01*
X170544932Y-80278245D01*
X170596111Y-80233089D01*
X170625632Y-80191115D01*
X170643466Y-80154997D01*
X170670166Y-80091146D01*
X170703926Y-80004355D01*
X170742940Y-79899417D01*
X170785402Y-79781124D01*
X170829506Y-79654270D01*
X170844385Y-79610544D01*
X170903258Y-79436939D01*
X170952540Y-79292742D01*
X170993413Y-79174865D01*
X171027060Y-79080224D01*
X171054663Y-79005733D01*
X171077405Y-78948306D01*
X171096466Y-78904857D01*
X171113031Y-78872302D01*
X171128281Y-78847554D01*
X171143399Y-78827528D01*
X171145282Y-78825271D01*
X171219612Y-78761149D01*
X171311241Y-78718834D01*
X171404095Y-78704209D01*
X171478277Y-78717456D01*
G37*
G36*
X130512990Y-82954839D02*
G01*
X130747776Y-82955641D01*
X130996138Y-82956666D01*
X131212614Y-82957683D01*
X131399549Y-82958752D01*
X131559290Y-82959930D01*
X131694182Y-82961278D01*
X131806571Y-82962854D01*
X131898802Y-82964716D01*
X131973221Y-82966924D01*
X132032174Y-82969536D01*
X132078006Y-82972612D01*
X132113063Y-82976209D01*
X132139691Y-82980388D01*
X132160236Y-82985207D01*
X132177043Y-82990724D01*
X132179237Y-82991558D01*
X132290434Y-83051107D01*
X132377919Y-83133068D01*
X132439063Y-83233692D01*
X132471237Y-83349236D01*
X132475646Y-83413935D01*
X132465846Y-83540643D01*
X132435462Y-83643500D01*
X132383132Y-83726981D01*
X132378966Y-83731812D01*
X132308155Y-83794996D01*
X132228536Y-83837566D01*
X132147272Y-83857790D01*
X132071528Y-83853934D01*
X132008470Y-83824266D01*
X132005795Y-83822088D01*
X131984109Y-83801162D01*
X131971646Y-83777343D01*
X131966253Y-83741414D01*
X131965777Y-83684157D01*
X131966468Y-83653715D01*
X131967289Y-83585206D01*
X131963904Y-83541319D01*
X131954114Y-83512501D01*
X131935722Y-83489202D01*
X131926584Y-83480337D01*
X131883237Y-83439609D01*
X130570964Y-83434672D01*
X130301408Y-83433831D01*
X130064690Y-83433471D01*
X129859416Y-83433608D01*
X129684197Y-83434256D01*
X129537641Y-83435431D01*
X129418356Y-83437146D01*
X129324950Y-83439417D01*
X129256033Y-83442258D01*
X129210212Y-83445685D01*
X129187413Y-83449324D01*
X129117629Y-83479464D01*
X129062115Y-83530136D01*
X129016586Y-83606307D01*
X128986854Y-83681863D01*
X128945716Y-83802811D01*
X129684145Y-83812993D01*
X129927967Y-83817060D01*
X130138275Y-83822071D01*
X130314917Y-83828021D01*
X130457742Y-83834905D01*
X130566599Y-83842716D01*
X130619406Y-83848331D01*
X130879263Y-83890806D01*
X131109634Y-83948575D01*
X131312146Y-84022651D01*
X131488422Y-84114046D01*
X131640088Y-84223773D01*
X131768769Y-84352842D01*
X131876090Y-84502268D01*
X131963676Y-84673061D01*
X131970945Y-84690232D01*
X132003645Y-84779953D01*
X132015889Y-84850187D01*
X132006717Y-84909582D01*
X131975171Y-84966788D01*
X131934917Y-85014909D01*
X131860471Y-85079492D01*
X131780956Y-85120756D01*
X131702342Y-85137537D01*
X131630598Y-85128675D01*
X131571694Y-85093009D01*
X131565662Y-85086753D01*
X131541692Y-85054922D01*
X131507174Y-85002296D01*
X131468039Y-84938082D01*
X131451009Y-84908746D01*
X131344115Y-84755224D01*
X131211468Y-84620956D01*
X131058549Y-84511187D01*
X131004028Y-84480954D01*
X130931566Y-84445048D01*
X130861643Y-84414262D01*
X130790930Y-84388161D01*
X130716099Y-84366312D01*
X130633822Y-84348281D01*
X130540770Y-84333632D01*
X130433615Y-84321933D01*
X130309028Y-84312747D01*
X130163682Y-84305642D01*
X129994248Y-84300183D01*
X129797397Y-84295936D01*
X129569802Y-84292466D01*
X129558220Y-84292314D01*
X128779447Y-84282139D01*
X128670507Y-84611821D01*
X128630912Y-84729822D01*
X128598934Y-84820109D01*
X128572390Y-84887764D01*
X128549099Y-84937872D01*
X128526877Y-84975518D01*
X128503542Y-85005784D01*
X128499348Y-85010515D01*
X128421754Y-85079450D01*
X128338944Y-85123005D01*
X128256598Y-85139520D01*
X128180400Y-85127336D01*
X128150308Y-85112469D01*
X128104842Y-85070873D01*
X128084743Y-85014387D01*
X128083815Y-84962924D01*
X128090179Y-84934053D01*
X128106527Y-84877129D01*
X128131431Y-84796372D01*
X128163463Y-84696002D01*
X128201195Y-84580240D01*
X128243199Y-84453306D01*
X128288046Y-84319420D01*
X128334309Y-84182803D01*
X128380560Y-84047675D01*
X128425370Y-83918256D01*
X128467311Y-83798767D01*
X128504956Y-83693428D01*
X128536877Y-83606459D01*
X128561645Y-83542081D01*
X128576102Y-83508073D01*
X128623906Y-83427565D01*
X128695497Y-83335286D01*
X128757745Y-83266564D01*
X128898846Y-83139769D01*
X129046910Y-83046487D01*
X129201945Y-82986714D01*
X129277576Y-82970136D01*
X129313914Y-82966111D01*
X129372256Y-82962699D01*
X129453985Y-82959886D01*
X129560486Y-82957660D01*
X129693142Y-82956006D01*
X129853336Y-82954910D01*
X130042453Y-82954360D01*
X130261877Y-82954340D01*
X130512990Y-82954839D01*
G37*
G36*
X164819550Y-82954868D02*
G01*
X165024331Y-82955458D01*
X165206659Y-82956430D01*
X165364631Y-82957771D01*
X165496341Y-82959466D01*
X165599883Y-82961503D01*
X165673353Y-82963867D01*
X165714844Y-82966546D01*
X165718807Y-82967067D01*
X165833696Y-82993420D01*
X165924558Y-83034895D01*
X165999257Y-83094852D01*
X166074799Y-83193417D01*
X166118376Y-83303747D01*
X166129996Y-83425981D01*
X166109669Y-83560258D01*
X166057405Y-83706716D01*
X166042692Y-83738372D01*
X165968750Y-83860444D01*
X165871018Y-83974835D01*
X165755501Y-84077416D01*
X165628200Y-84164058D01*
X165495120Y-84230632D01*
X165362265Y-84273008D01*
X165244878Y-84287078D01*
X165167857Y-84287681D01*
X165261994Y-84367322D01*
X165327325Y-84425027D01*
X165398505Y-84491909D01*
X165470189Y-84562486D01*
X165537033Y-84631278D01*
X165593692Y-84692802D01*
X165634823Y-84741578D01*
X165653628Y-84769004D01*
X165668634Y-84832682D01*
X165655990Y-84901475D01*
X165620672Y-84970139D01*
X165567656Y-85033426D01*
X165501917Y-85086091D01*
X165428432Y-85122886D01*
X165352176Y-85138566D01*
X165306075Y-85135455D01*
X165270426Y-85122314D01*
X165223424Y-85092791D01*
X165161361Y-85044171D01*
X165080529Y-84973737D01*
X165060494Y-84955623D01*
X164944771Y-84855987D01*
X164818166Y-84756526D01*
X164687366Y-84661838D01*
X164559056Y-84576520D01*
X164439924Y-84505171D01*
X164336656Y-84452388D01*
X164315064Y-84443030D01*
X164219784Y-84405646D01*
X164127441Y-84374578D01*
X164033692Y-84349281D01*
X163934190Y-84329208D01*
X163824590Y-84313815D01*
X163700548Y-84302554D01*
X163557718Y-84294880D01*
X163391756Y-84290247D01*
X163198316Y-84288109D01*
X163079716Y-84287798D01*
X162914017Y-84287686D01*
X162778702Y-84288846D01*
X162669933Y-84293303D01*
X162583871Y-84303083D01*
X162516677Y-84320212D01*
X162464511Y-84346714D01*
X162423536Y-84384615D01*
X162389912Y-84435940D01*
X162359800Y-84502715D01*
X162329361Y-84586964D01*
X162294757Y-84690714D01*
X162290226Y-84704318D01*
X162254073Y-84808776D01*
X162223689Y-84886478D01*
X162196143Y-84943781D01*
X162168508Y-84987036D01*
X162148956Y-85010800D01*
X162071475Y-85079587D01*
X161988709Y-85123045D01*
X161906378Y-85139508D01*
X161830201Y-85127306D01*
X161800173Y-85112469D01*
X161756145Y-85073006D01*
X161735632Y-85019549D01*
X161733826Y-84957922D01*
X161741340Y-84918135D01*
X161759197Y-84853461D01*
X161784989Y-84770785D01*
X161816309Y-84676988D01*
X161850748Y-84578952D01*
X161885898Y-84483561D01*
X161919351Y-84397696D01*
X161948699Y-84328241D01*
X161968269Y-84287886D01*
X162012995Y-84221876D01*
X162078324Y-84145524D01*
X162155960Y-84066838D01*
X162237608Y-83993827D01*
X162314972Y-83934499D01*
X162367163Y-83902795D01*
X162400080Y-83886403D01*
X162431449Y-83872024D01*
X162463640Y-83859524D01*
X162499017Y-83848771D01*
X162539950Y-83839634D01*
X162588804Y-83831980D01*
X162647946Y-83825677D01*
X162719745Y-83820592D01*
X162806566Y-83816593D01*
X162910777Y-83813548D01*
X163034746Y-83811325D01*
X163180838Y-83809791D01*
X163351422Y-83808814D01*
X163548863Y-83808263D01*
X163775531Y-83808004D01*
X164033791Y-83807905D01*
X164065629Y-83807898D01*
X165445207Y-83807601D01*
X165502957Y-83768683D01*
X165558288Y-83721301D01*
X165603926Y-83663951D01*
X165632542Y-83607105D01*
X165638544Y-83574959D01*
X165627659Y-83535785D01*
X165601068Y-83492252D01*
X165597240Y-83487632D01*
X165555937Y-83439609D01*
X163973889Y-83434985D01*
X162391842Y-83430362D01*
X162350988Y-83386875D01*
X162318263Y-83328087D01*
X162313752Y-83254491D01*
X162337512Y-83170741D01*
X162348175Y-83148174D01*
X162386872Y-83084691D01*
X162433764Y-83037703D01*
X162500982Y-82995261D01*
X162506334Y-82992381D01*
X162517956Y-82986838D01*
X162532224Y-82981960D01*
X162551313Y-82977696D01*
X162577400Y-82973995D01*
X162612658Y-82970807D01*
X162659263Y-82968080D01*
X162719391Y-82965766D01*
X162795217Y-82963811D01*
X162888915Y-82962168D01*
X163002661Y-82960783D01*
X163138631Y-82959607D01*
X163299000Y-82958590D01*
X163485943Y-82957680D01*
X163701634Y-82956827D01*
X163948251Y-82955980D01*
X164089555Y-82955525D01*
X164350257Y-82954888D01*
X164594224Y-82954674D01*
X164819550Y-82954868D01*
G37*
G36*
X147443165Y-78698517D02*
G01*
X147681225Y-78698585D01*
X147889235Y-78698751D01*
X148069287Y-78699060D01*
X148223471Y-78699554D01*
X148353880Y-78700278D01*
X148462603Y-78701275D01*
X148551733Y-78702589D01*
X148623361Y-78704263D01*
X148679577Y-78706341D01*
X148722472Y-78708867D01*
X148754139Y-78711884D01*
X148776667Y-78715436D01*
X148792149Y-78719566D01*
X148802675Y-78724318D01*
X148810337Y-78729736D01*
X148813777Y-78732736D01*
X148858763Y-78793556D01*
X148872574Y-78864434D01*
X148855524Y-78942001D01*
X148807927Y-79022890D01*
X148784024Y-79051458D01*
X148766864Y-79071295D01*
X148752008Y-79088779D01*
X148737310Y-79104058D01*
X148720619Y-79117282D01*
X148699788Y-79128598D01*
X148672668Y-79138155D01*
X148637110Y-79146100D01*
X148590967Y-79152583D01*
X148532090Y-79157752D01*
X148458331Y-79161754D01*
X148367541Y-79164739D01*
X148257571Y-79166855D01*
X148126274Y-79168249D01*
X147971500Y-79169071D01*
X147791102Y-79169469D01*
X147582931Y-79169590D01*
X147344839Y-79169584D01*
X147074676Y-79169599D01*
X147072918Y-79169600D01*
X146837089Y-79169831D01*
X146611705Y-79170383D01*
X146399174Y-79171233D01*
X146201904Y-79172356D01*
X146022305Y-79173728D01*
X145862783Y-79175327D01*
X145725748Y-79177127D01*
X145613608Y-79179106D01*
X145528772Y-79181240D01*
X145473647Y-79183505D01*
X145451661Y-79185579D01*
X145364766Y-79219412D01*
X145295342Y-79273498D01*
X145248979Y-79341961D01*
X145231305Y-79417258D01*
X145237540Y-79471659D01*
X145263778Y-79509213D01*
X145269062Y-79513690D01*
X145277261Y-79519422D01*
X145288252Y-79524428D01*
X145304265Y-79528756D01*
X145327531Y-79532456D01*
X145360281Y-79535577D01*
X145404746Y-79538168D01*
X145463158Y-79540279D01*
X145537747Y-79541957D01*
X145630744Y-79543253D01*
X145744381Y-79544215D01*
X145880888Y-79544892D01*
X146042497Y-79545335D01*
X146231439Y-79545591D01*
X146449944Y-79545710D01*
X146700244Y-79545741D01*
X146725031Y-79545741D01*
X146982715Y-79545950D01*
X147221322Y-79546562D01*
X147439107Y-79547558D01*
X147634327Y-79548920D01*
X147805239Y-79550626D01*
X147950099Y-79552658D01*
X148067163Y-79554996D01*
X148154687Y-79557620D01*
X148210929Y-79560511D01*
X148230598Y-79562654D01*
X148359297Y-79601482D01*
X148464120Y-79664737D01*
X148545409Y-79752650D01*
X148570945Y-79793922D01*
X148590342Y-79852807D01*
X148600089Y-79934404D01*
X148600421Y-80028651D01*
X148591571Y-80125483D01*
X148573773Y-80214840D01*
X148560192Y-80257317D01*
X148492949Y-80391439D01*
X148397637Y-80520276D01*
X148280408Y-80637754D01*
X148147414Y-80737801D01*
X148004809Y-80814343D01*
X147989246Y-80820885D01*
X147863679Y-80872224D01*
X146229110Y-80876479D01*
X145944723Y-80877135D01*
X145692779Y-80877521D01*
X145471490Y-80877620D01*
X145279069Y-80877412D01*
X145113727Y-80876878D01*
X144973678Y-80876000D01*
X144857132Y-80874759D01*
X144762303Y-80873136D01*
X144687403Y-80871113D01*
X144630643Y-80868670D01*
X144590236Y-80865789D01*
X144564395Y-80862451D01*
X144551751Y-80858862D01*
X144500405Y-80816269D01*
X144475200Y-80758251D01*
X144475031Y-80690102D01*
X144498789Y-80617115D01*
X144545368Y-80544583D01*
X144613659Y-80477801D01*
X144634770Y-80462078D01*
X144708724Y-80410094D01*
X146320433Y-80401536D01*
X146591494Y-80400083D01*
X146830436Y-80398742D01*
X147039372Y-80397460D01*
X147220415Y-80396181D01*
X147375677Y-80394850D01*
X147507271Y-80393413D01*
X147617310Y-80391814D01*
X147707906Y-80390000D01*
X147781172Y-80387914D01*
X147839221Y-80385502D01*
X147884166Y-80382710D01*
X147918118Y-80379481D01*
X147943191Y-80375763D01*
X147961498Y-80371499D01*
X147975150Y-80366634D01*
X147986262Y-80361115D01*
X147991442Y-80358141D01*
X148052278Y-80308633D01*
X148093665Y-80247221D01*
X148113234Y-80181608D01*
X148108615Y-80119499D01*
X148079797Y-80070889D01*
X148042460Y-80033544D01*
X146541007Y-80024986D01*
X145039555Y-80016428D01*
X144969924Y-79979157D01*
X144891329Y-79924241D01*
X144822718Y-79852672D01*
X144772930Y-79774725D01*
X144756179Y-79730707D01*
X144747161Y-79675564D01*
X144742732Y-79601893D01*
X144743820Y-79525204D01*
X144743840Y-79524868D01*
X144760366Y-79404926D01*
X144797479Y-79294436D01*
X144858268Y-79187616D01*
X144945824Y-79078685D01*
X145026200Y-78996634D01*
X145152661Y-78886081D01*
X145273131Y-78804198D01*
X145393333Y-78747488D01*
X145476010Y-78721975D01*
X145498065Y-78717867D01*
X145530582Y-78714243D01*
X145575521Y-78711075D01*
X145634847Y-78708336D01*
X145710522Y-78705998D01*
X145804508Y-78704036D01*
X145918768Y-78702420D01*
X146055265Y-78701125D01*
X146215961Y-78700123D01*
X146402820Y-78699388D01*
X146617803Y-78698891D01*
X146862873Y-78698605D01*
X147139993Y-78698505D01*
X147172965Y-78698504D01*
X147443165Y-78698517D01*
G37*
G36*
X112872404Y-75036162D02*
G01*
X114136336Y-75036162D01*
X114142068Y-75037753D01*
X114153908Y-75035417D01*
X114277790Y-75007976D01*
X114376947Y-74987348D01*
X114459986Y-74972561D01*
X114535517Y-74962640D01*
X114612147Y-74956612D01*
X114698484Y-74953503D01*
X114803138Y-74952339D01*
X114889892Y-74952161D01*
X115056308Y-74953737D01*
X115198516Y-74959456D01*
X115326410Y-74970488D01*
X115449885Y-74988001D01*
X115578834Y-75013166D01*
X115723153Y-75047152D01*
X115749442Y-75053769D01*
X115989856Y-75124494D01*
X116243239Y-75216957D01*
X116500088Y-75327072D01*
X116750903Y-75450753D01*
X116986179Y-75583914D01*
X116995148Y-75589389D01*
X117043429Y-75616691D01*
X117069893Y-75624496D01*
X117080137Y-75613809D01*
X117080945Y-75604804D01*
X117086446Y-75583070D01*
X117101745Y-75533951D01*
X117125224Y-75462336D01*
X117155269Y-75373113D01*
X117190263Y-75271171D01*
X117209314Y-75216379D01*
X117246168Y-75109992D01*
X117278877Y-75013973D01*
X117305831Y-74933181D01*
X117325419Y-74872477D01*
X117336029Y-74836719D01*
X117337466Y-74829667D01*
X117332351Y-74821669D01*
X117314514Y-74812905D01*
X117280217Y-74802444D01*
X117225721Y-74789358D01*
X117147286Y-74772717D01*
X117041176Y-74751591D01*
X116960916Y-74736038D01*
X116829311Y-74715656D01*
X116670975Y-74699184D01*
X116493196Y-74686755D01*
X116303267Y-74678501D01*
X116108477Y-74674555D01*
X115916118Y-74675048D01*
X115733479Y-74680113D01*
X115567852Y-74689882D01*
X115426526Y-74704488D01*
X115403369Y-74707770D01*
X115108719Y-74757612D01*
X114832111Y-74816240D01*
X114581026Y-74882049D01*
X114556132Y-74889405D01*
X114479652Y-74913006D01*
X114400873Y-74938560D01*
X114324476Y-74964369D01*
X114255143Y-74988733D01*
X114197554Y-75009952D01*
X114156391Y-75026328D01*
X114136336Y-75036162D01*
X112872404Y-75036162D01*
X112931092Y-74996485D01*
X113312989Y-74777288D01*
X113712969Y-74585469D01*
X114129891Y-74422412D01*
X114171024Y-74408234D01*
X114529719Y-74297840D01*
X114885043Y-74213053D01*
X115244277Y-74152703D01*
X115614703Y-74115618D01*
X116003602Y-74100631D01*
X116088005Y-74100181D01*
X116386035Y-74105383D01*
X116661192Y-74121658D01*
X116923340Y-74150074D01*
X117182340Y-74191694D01*
X117443721Y-74246577D01*
X117558535Y-74273217D01*
X117974314Y-73985965D01*
X118089705Y-73906262D01*
X118204772Y-73826814D01*
X118313986Y-73751439D01*
X118411815Y-73683951D01*
X118492730Y-73628167D01*
X118551199Y-73587904D01*
X118552695Y-73586875D01*
X118626348Y-73536037D01*
X118718069Y-73472460D01*
X118817898Y-73403060D01*
X118915877Y-73334754D01*
X118950257Y-73310731D01*
X119028339Y-73257210D01*
X119096434Y-73212585D01*
X119149798Y-73179801D01*
X119183686Y-73161801D01*
X119193490Y-73159808D01*
X119198387Y-73180558D01*
X119206566Y-73229223D01*
X119217104Y-73299744D01*
X119229083Y-73386063D01*
X119236909Y-73445484D01*
X119251315Y-73555681D01*
X119266611Y-73670332D01*
X119281234Y-73777852D01*
X119293618Y-73866654D01*
X119296810Y-73888935D01*
X119308624Y-73971791D01*
X119319643Y-74051108D01*
X119328195Y-74114776D01*
X119331044Y-74137116D01*
X119335870Y-74174895D01*
X119344514Y-74241103D01*
X119356249Y-74330237D01*
X119370350Y-74436796D01*
X119386091Y-74555279D01*
X119400181Y-74660981D01*
X119416125Y-74780787D01*
X119430463Y-74889243D01*
X119442597Y-74981787D01*
X119451934Y-75053854D01*
X119457877Y-75100882D01*
X119459838Y-75118204D01*
X119472799Y-75131634D01*
X119508392Y-75161395D01*
X119561679Y-75203530D01*
X119627721Y-75254077D01*
X119652392Y-75272616D01*
X119999757Y-75553190D01*
X120324027Y-75857332D01*
X120624032Y-76183206D01*
X120898600Y-76528979D01*
X121146562Y-76892816D01*
X121366746Y-77272884D01*
X121557982Y-77667347D01*
X121719098Y-78074372D01*
X121848926Y-78492124D01*
X121931738Y-78843989D01*
X122004273Y-79271360D01*
X122046596Y-79688185D01*
X122058704Y-80100014D01*
X122040600Y-80512393D01*
X121992282Y-80930870D01*
X121931738Y-81274447D01*
X121828476Y-81700856D01*
X121693538Y-82116430D01*
X121528197Y-82519618D01*
X121333728Y-82908868D01*
X121111403Y-83282630D01*
X120862495Y-83639351D01*
X120588278Y-83977482D01*
X120290025Y-84295470D01*
X119969009Y-84591765D01*
X119626504Y-84864814D01*
X119263783Y-85113068D01*
X118882118Y-85334974D01*
X118482784Y-85528982D01*
X118415768Y-85557998D01*
X118016948Y-85711446D01*
X117614323Y-85833388D01*
X117204582Y-85924484D01*
X116784416Y-85985392D01*
X116350512Y-86016773D01*
X116088005Y-86021705D01*
X115673092Y-86009659D01*
X115276369Y-85972728D01*
X114891317Y-85909720D01*
X114511418Y-85819441D01*
X114130154Y-85700699D01*
X113926606Y-85626318D01*
X113862729Y-85604649D01*
X113816931Y-85594815D01*
X113796391Y-85597585D01*
X113786438Y-85611845D01*
X113768722Y-85641832D01*
X113741789Y-85690218D01*
X113704184Y-85759677D01*
X113654451Y-85852882D01*
X113591137Y-85972505D01*
X113554897Y-86041226D01*
X113499083Y-86146302D01*
X113456397Y-86223931D01*
X113424554Y-86277234D01*
X113401269Y-86309331D01*
X113384258Y-86323341D01*
X113371236Y-86322384D01*
X113359917Y-86309580D01*
X113359205Y-86308443D01*
X113362473Y-86289865D01*
X113375180Y-86244388D01*
X113395538Y-86177451D01*
X113421758Y-86094491D01*
X113452049Y-86000947D01*
X113484623Y-85902257D01*
X113517690Y-85803861D01*
X113549461Y-85711195D01*
X113578146Y-85629700D01*
X113601956Y-85564812D01*
X113614009Y-85534025D01*
X113612677Y-85520274D01*
X113596142Y-85502270D01*
X113560830Y-85477638D01*
X113503169Y-85444004D01*
X113419586Y-85398993D01*
X113378330Y-85377395D01*
X112975631Y-85149206D01*
X112848211Y-85064305D01*
X114088329Y-85064305D01*
X114088519Y-85065835D01*
X114109278Y-85076672D01*
X114154765Y-85095594D01*
X114217288Y-85119691D01*
X114289157Y-85146052D01*
X114362679Y-85171768D01*
X114410646Y-85187709D01*
X114759397Y-85287093D01*
X115124196Y-85366018D01*
X115491871Y-85421854D01*
X115677223Y-85440674D01*
X115747066Y-85444173D01*
X115843740Y-85445738D01*
X115960571Y-85445554D01*
X116090881Y-85443807D01*
X116227996Y-85440683D01*
X116365240Y-85436366D01*
X116495935Y-85431041D01*
X116613407Y-85424895D01*
X116710980Y-85418112D01*
X116781977Y-85410878D01*
X116789757Y-85409789D01*
X117069925Y-85363707D01*
X117326679Y-85310549D01*
X117570562Y-85247565D01*
X117812117Y-85172003D01*
X118061888Y-85081113D01*
X118087404Y-85071199D01*
X118157488Y-85043113D01*
X118213260Y-85019392D01*
X118248566Y-85002747D01*
X118257835Y-84996119D01*
X118239351Y-84996730D01*
X118197995Y-85004695D01*
X118158300Y-85014317D01*
X117984589Y-85050606D01*
X117788484Y-85076312D01*
X117580296Y-85090967D01*
X117370336Y-85094103D01*
X117168914Y-85085254D01*
X117003706Y-85066692D01*
X116643272Y-84994365D01*
X116595089Y-84980040D01*
X118278840Y-84980040D01*
X118287398Y-84988598D01*
X118295956Y-84980040D01*
X118287398Y-84971482D01*
X118278840Y-84980040D01*
X116595089Y-84980040D01*
X116285286Y-84887935D01*
X115929859Y-84747451D01*
X115577099Y-84572962D01*
X115227118Y-84364516D01*
X114880023Y-84122163D01*
X114877133Y-84119994D01*
X114796900Y-84060667D01*
X114739395Y-84020722D01*
X114700792Y-83997939D01*
X114677265Y-83990097D01*
X114664985Y-83994977D01*
X114664046Y-83996377D01*
X114652121Y-84017678D01*
X114626178Y-84064840D01*
X114588528Y-84133635D01*
X114541480Y-84219838D01*
X114487344Y-84319221D01*
X114430486Y-84423773D01*
X114368291Y-84538176D01*
X114307856Y-84649242D01*
X114252210Y-84751411D01*
X114204384Y-84839123D01*
X114167406Y-84906818D01*
X114147477Y-84943178D01*
X114117830Y-84998914D01*
X114096902Y-85041810D01*
X114088329Y-85064305D01*
X112848211Y-85064305D01*
X112595901Y-84896188D01*
X112239793Y-84619000D01*
X111907965Y-84318297D01*
X111601071Y-83994739D01*
X111319767Y-83648982D01*
X111064708Y-83281683D01*
X110865788Y-82943248D01*
X111534108Y-82943248D01*
X111581226Y-83020269D01*
X111610453Y-83064989D01*
X111654219Y-83128229D01*
X111706373Y-83201240D01*
X111755681Y-83268450D01*
X112027510Y-83605811D01*
X112322057Y-83917848D01*
X112638690Y-84203959D01*
X112976779Y-84463543D01*
X113091306Y-84542185D01*
X113191828Y-84607609D01*
X113297067Y-84673121D01*
X113402830Y-84736413D01*
X113504924Y-84795174D01*
X113599153Y-84847093D01*
X113681324Y-84889859D01*
X113747243Y-84921163D01*
X113792716Y-84938694D01*
X113813549Y-84940142D01*
X113813594Y-84940094D01*
X113825054Y-84918265D01*
X113842025Y-84875974D01*
X113850736Y-84851671D01*
X113864673Y-84811558D01*
X113887695Y-84745610D01*
X113917541Y-84660289D01*
X113951950Y-84562058D01*
X113988661Y-84457378D01*
X113991444Y-84449447D01*
X114027931Y-84345195D01*
X114061936Y-84247502D01*
X114091286Y-84162659D01*
X114113803Y-84096957D01*
X114127312Y-84056688D01*
X114128007Y-84054542D01*
X114150441Y-83984839D01*
X114002410Y-84007104D01*
X113743546Y-84029782D01*
X113475881Y-84022625D01*
X113205110Y-83986808D01*
X112936931Y-83923507D01*
X112914396Y-83915737D01*
X114190682Y-83915737D01*
X114191280Y-83946676D01*
X114213395Y-83957885D01*
X114260344Y-83952553D01*
X114335446Y-83933865D01*
X114384972Y-83920405D01*
X114456286Y-83898859D01*
X114473191Y-83893020D01*
X114724945Y-83893020D01*
X114727675Y-83910918D01*
X114751810Y-83934241D01*
X114801164Y-83970356D01*
X114870631Y-84016168D01*
X114955108Y-84068583D01*
X115049489Y-84124508D01*
X115148670Y-84180848D01*
X115247546Y-84234509D01*
X115338590Y-84281200D01*
X115521852Y-84364643D01*
X115718145Y-84441102D01*
X115918911Y-84507912D01*
X116115588Y-84562411D01*
X116299615Y-84601936D01*
X116430323Y-84620812D01*
X116488071Y-84627654D01*
X116530475Y-84634088D01*
X116547799Y-84638506D01*
X116569635Y-84642990D01*
X116619076Y-84645378D01*
X116689572Y-84645870D01*
X116774571Y-84644669D01*
X116867524Y-84641977D01*
X116961882Y-84637997D01*
X117051093Y-84632931D01*
X117128609Y-84626980D01*
X117187877Y-84620348D01*
X117200539Y-84618357D01*
X117275759Y-84605429D01*
X117345486Y-84593620D01*
X117397192Y-84585049D01*
X117405929Y-84583645D01*
X117465705Y-84569164D01*
X117547844Y-84542443D01*
X117644173Y-84506717D01*
X117746521Y-84465222D01*
X117846716Y-84421192D01*
X117936587Y-84377863D01*
X117969510Y-84360531D01*
X118090676Y-84292231D01*
X118190582Y-84229371D01*
X118279534Y-84164311D01*
X118367838Y-84089408D01*
X118465799Y-83997023D01*
X118484428Y-83978760D01*
X118676917Y-83767807D01*
X118845163Y-83537074D01*
X118991305Y-83283317D01*
X119100224Y-83045943D01*
X119149795Y-82912251D01*
X119198748Y-82755973D01*
X119244285Y-82588097D01*
X119283613Y-82419611D01*
X119313933Y-82261501D01*
X119331038Y-82138800D01*
X119338943Y-82066523D01*
X119347283Y-81994032D01*
X119351513Y-81959083D01*
X119355269Y-81909424D01*
X119358112Y-81832663D01*
X119360043Y-81735919D01*
X119361063Y-81626310D01*
X119361173Y-81510955D01*
X119360375Y-81396972D01*
X119358670Y-81291478D01*
X119356059Y-81201593D01*
X119352543Y-81134435D01*
X119351371Y-81120404D01*
X119339414Y-81011427D01*
X119323061Y-80886377D01*
X119303787Y-80754732D01*
X119283068Y-80625968D01*
X119262379Y-80509562D01*
X119243195Y-80414989D01*
X119238118Y-80392978D01*
X119225169Y-80338728D01*
X119208477Y-80268543D01*
X119195364Y-80213261D01*
X119146423Y-80029118D01*
X119082385Y-79823639D01*
X119006016Y-79604690D01*
X118920082Y-79380137D01*
X118827350Y-79157844D01*
X118811200Y-79121052D01*
X118782681Y-79060208D01*
X118742232Y-78978809D01*
X118693168Y-78883070D01*
X118638808Y-78779205D01*
X118582468Y-78673429D01*
X118527463Y-78571957D01*
X118477112Y-78481004D01*
X118434731Y-78406783D01*
X118403636Y-78355511D01*
X118398437Y-78347628D01*
X118375873Y-78313750D01*
X118341008Y-78260774D01*
X118300168Y-78198324D01*
X118285932Y-78176469D01*
X118237652Y-78103947D01*
X118186285Y-78029585D01*
X118135793Y-77958790D01*
X118090139Y-77896970D01*
X118053285Y-77849534D01*
X118029196Y-77821888D01*
X118022545Y-77817049D01*
X118011560Y-77831263D01*
X117987995Y-77870094D01*
X117955168Y-77927839D01*
X117916394Y-77998795D01*
X117910848Y-78009143D01*
X117833393Y-78153836D01*
X117767769Y-78275980D01*
X117709804Y-78383285D01*
X117655325Y-78483461D01*
X117600159Y-78584220D01*
X117565547Y-78647156D01*
X117515194Y-78739081D01*
X117460934Y-78838929D01*
X117410290Y-78932824D01*
X117380008Y-78989474D01*
X117344384Y-79055976D01*
X117314005Y-79111696D01*
X117292900Y-79149300D01*
X117286007Y-79160633D01*
X117273708Y-79181684D01*
X117249045Y-79226581D01*
X117215533Y-79288842D01*
X117176688Y-79361990D01*
X117174560Y-79366024D01*
X117132799Y-79444870D01*
X117093555Y-79518374D01*
X117061370Y-79578065D01*
X117041502Y-79614205D01*
X117015140Y-79661784D01*
X116980986Y-79724457D01*
X116952791Y-79776806D01*
X116838144Y-79989746D01*
X116729988Y-80187766D01*
X116641336Y-80347870D01*
X116600934Y-80420944D01*
X116567377Y-80482632D01*
X116543785Y-80527123D01*
X116533279Y-80548607D01*
X116533018Y-80549575D01*
X116525140Y-80566672D01*
X116504070Y-80606304D01*
X116473657Y-80661313D01*
X116458149Y-80688821D01*
X116413337Y-80768907D01*
X116365148Y-80856654D01*
X116323342Y-80934278D01*
X116319947Y-80940687D01*
X116256614Y-81060498D01*
X116258757Y-81370758D01*
X116258322Y-81520956D01*
X116254144Y-81646338D01*
X116245338Y-81756197D01*
X116231024Y-81859830D01*
X116210320Y-81966530D01*
X116196444Y-82027547D01*
X116118138Y-82290318D01*
X116010132Y-82547064D01*
X115875526Y-82792724D01*
X115717420Y-83022237D01*
X115538914Y-83230540D01*
X115353443Y-83404021D01*
X115263724Y-83474702D01*
X115160486Y-83549588D01*
X115053416Y-83622128D01*
X114952201Y-83685777D01*
X114866528Y-83733984D01*
X114861664Y-83736459D01*
X114814578Y-83768243D01*
X114771839Y-83810475D01*
X114739833Y-83854838D01*
X114724945Y-83893020D01*
X114473191Y-83893020D01*
X114534551Y-83871826D01*
X114612137Y-83842361D01*
X114681415Y-83813518D01*
X114734756Y-83788354D01*
X114764528Y-83769924D01*
X114766865Y-83767469D01*
X114782865Y-83742602D01*
X114808812Y-83698060D01*
X114833558Y-83653558D01*
X114867646Y-83591372D01*
X114900940Y-83531238D01*
X114918711Y-83499515D01*
X114941911Y-83457224D01*
X114975060Y-83395242D01*
X115012435Y-83324310D01*
X115028176Y-83294124D01*
X115061623Y-83230550D01*
X115089441Y-83179141D01*
X115107734Y-83147020D01*
X115112398Y-83140081D01*
X115123550Y-83122082D01*
X115146438Y-83080752D01*
X115177166Y-83023211D01*
X115196620Y-82986038D01*
X115234059Y-82914553D01*
X115269700Y-82847461D01*
X115297822Y-82795501D01*
X115306085Y-82780647D01*
X115333934Y-82730763D01*
X115368374Y-82668255D01*
X115388774Y-82630883D01*
X115426935Y-82560652D01*
X115468390Y-82484360D01*
X115486427Y-82451166D01*
X115520104Y-82389617D01*
X115553173Y-82329852D01*
X115569116Y-82301401D01*
X115592315Y-82259111D01*
X115625464Y-82197129D01*
X115662839Y-82126197D01*
X115678581Y-82096011D01*
X115712028Y-82032437D01*
X115739845Y-81981028D01*
X115758138Y-81948907D01*
X115762803Y-81941967D01*
X115773955Y-81923969D01*
X115796842Y-81882638D01*
X115827570Y-81825098D01*
X115847025Y-81787924D01*
X115884463Y-81716440D01*
X115920105Y-81649348D01*
X115948226Y-81597388D01*
X115956490Y-81582533D01*
X115983883Y-81533568D01*
X116018471Y-81471079D01*
X116041867Y-81428490D01*
X116077165Y-81364586D01*
X116120126Y-81287646D01*
X116161329Y-81214542D01*
X116197392Y-81145905D01*
X116218556Y-81087837D01*
X116225863Y-81030085D01*
X116220355Y-80962397D01*
X116203074Y-80874517D01*
X116198095Y-80852746D01*
X116139828Y-80646405D01*
X116061248Y-80436213D01*
X115966454Y-80230665D01*
X115859543Y-80038255D01*
X115744617Y-79867476D01*
X115688200Y-79796147D01*
X115646988Y-79747024D01*
X115613361Y-79838936D01*
X115594653Y-79891293D01*
X115568480Y-79966156D01*
X115538295Y-80053588D01*
X115507547Y-80143649D01*
X115507158Y-80144798D01*
X115478793Y-80227728D01*
X115453222Y-80301238D01*
X115433022Y-80358002D01*
X115420771Y-80390692D01*
X115419817Y-80392978D01*
X115408636Y-80422248D01*
X115388759Y-80477536D01*
X115362412Y-80552422D01*
X115331824Y-80640482D01*
X115299222Y-80735295D01*
X115266834Y-80830437D01*
X115236888Y-80919487D01*
X115229831Y-80940687D01*
X115209168Y-81000844D01*
X115190426Y-81051908D01*
X115179938Y-81077614D01*
X115164223Y-81116997D01*
X115138439Y-81188804D01*
X115102678Y-81292771D01*
X115057031Y-81428633D01*
X115034333Y-81496954D01*
X115011905Y-81562098D01*
X114991417Y-81617189D01*
X114976757Y-81651852D01*
X114975081Y-81655044D01*
X114960816Y-81691721D01*
X114958355Y-81708388D01*
X114951604Y-81739083D01*
X114932533Y-81796005D01*
X114902912Y-81874183D01*
X114872050Y-81950525D01*
X114861612Y-81978706D01*
X114842750Y-82032402D01*
X114817872Y-82104659D01*
X114789387Y-82188518D01*
X114780188Y-82215822D01*
X114746342Y-82315917D01*
X114703254Y-82442459D01*
X114652943Y-82589566D01*
X114597430Y-82751359D01*
X114538734Y-82921957D01*
X114478875Y-83095481D01*
X114419872Y-83266049D01*
X114377479Y-83388261D01*
X114348058Y-83473252D01*
X114319663Y-83555778D01*
X114296007Y-83625022D01*
X114283481Y-83662116D01*
X114264215Y-83718258D01*
X114247160Y-83765459D01*
X114240756Y-83781927D01*
X114208280Y-83861883D01*
X114190682Y-83915737D01*
X112914396Y-83915737D01*
X112677040Y-83833896D01*
X112431134Y-83719151D01*
X112331064Y-83662347D01*
X112095378Y-83501948D01*
X111870483Y-83311414D01*
X111660236Y-83094130D01*
X111590268Y-83011711D01*
X111534108Y-82943248D01*
X110865788Y-82943248D01*
X110855728Y-82926132D01*
X111518059Y-82926132D01*
X111526617Y-82934690D01*
X111535175Y-82926132D01*
X111526617Y-82917574D01*
X111518059Y-82926132D01*
X110855728Y-82926132D01*
X110836549Y-82893502D01*
X110826781Y-82874784D01*
X111483827Y-82874784D01*
X111492385Y-82883342D01*
X111500943Y-82874784D01*
X111492385Y-82866226D01*
X111483827Y-82874784D01*
X110826781Y-82874784D01*
X110799984Y-82823436D01*
X111449595Y-82823436D01*
X111458153Y-82831994D01*
X111466711Y-82823436D01*
X111458153Y-82814879D01*
X111449595Y-82823436D01*
X110799984Y-82823436D01*
X110764255Y-82754973D01*
X110716335Y-82652277D01*
X111346900Y-82652277D01*
X111355458Y-82660835D01*
X111364016Y-82652277D01*
X111355458Y-82643719D01*
X111346900Y-82652277D01*
X110716335Y-82652277D01*
X110684388Y-82583814D01*
X111312668Y-82583814D01*
X111321226Y-82592372D01*
X111329784Y-82583814D01*
X111321226Y-82575256D01*
X111312668Y-82583814D01*
X110684388Y-82583814D01*
X110652441Y-82515350D01*
X111278436Y-82515350D01*
X111286994Y-82523908D01*
X111295552Y-82515350D01*
X111286994Y-82506792D01*
X111278436Y-82515350D01*
X110652441Y-82515350D01*
X110589188Y-82379796D01*
X110443705Y-82003717D01*
X110326515Y-81621892D01*
X110236326Y-81229476D01*
X110171847Y-80821625D01*
X110131785Y-80393494D01*
X110130914Y-80379751D01*
X110124560Y-80180040D01*
X110695871Y-80180040D01*
X110722312Y-80599914D01*
X110781784Y-81019470D01*
X110874467Y-81437159D01*
X111000542Y-81851432D01*
X111064840Y-82027547D01*
X111094067Y-82100871D01*
X111127821Y-82181089D01*
X111163301Y-82262077D01*
X111197705Y-82337711D01*
X111228231Y-82401867D01*
X111252077Y-82448422D01*
X111266443Y-82471252D01*
X111268437Y-82472560D01*
X111266413Y-82458104D01*
X111253654Y-82419928D01*
X111232802Y-82365820D01*
X111229228Y-82357028D01*
X111169955Y-82198063D01*
X111125603Y-82044135D01*
X111094665Y-81886675D01*
X111075639Y-81717118D01*
X111067018Y-81526895D01*
X111066132Y-81428490D01*
X111070391Y-81224172D01*
X111084206Y-81044037D01*
X111109369Y-80878926D01*
X111147669Y-80719682D01*
X111200896Y-80557150D01*
X111270533Y-80382891D01*
X111366224Y-80187987D01*
X111485044Y-79992505D01*
X111621341Y-79803853D01*
X111769460Y-79629436D01*
X111923749Y-79476663D01*
X112028964Y-79389179D01*
X112086298Y-79345367D01*
X112068497Y-79227326D01*
X112053328Y-79105654D01*
X112109180Y-79105654D01*
X112110482Y-79189799D01*
X112113257Y-79253310D01*
X112117630Y-79290774D01*
X112120479Y-79298071D01*
X112138453Y-79294125D01*
X112177575Y-79274818D01*
X112230583Y-79243883D01*
X112251666Y-79230620D01*
X112501390Y-79089438D01*
X112764652Y-78976244D01*
X113037199Y-78892100D01*
X113314781Y-78838066D01*
X113593144Y-78815206D01*
X113868038Y-78824580D01*
X113875155Y-78825269D01*
X114181321Y-78871323D01*
X114472147Y-78947551D01*
X114746920Y-79053622D01*
X115004927Y-79189202D01*
X115245455Y-79353959D01*
X115467791Y-79547562D01*
X115505761Y-79585383D01*
X115565153Y-79645618D01*
X115605565Y-79681245D01*
X115633131Y-79690915D01*
X115653987Y-79673281D01*
X115674265Y-79626995D01*
X115700102Y-79550709D01*
X115703002Y-79542051D01*
X115727851Y-79469107D01*
X115759120Y-79378852D01*
X115791631Y-79286185D01*
X115805805Y-79246213D01*
X115836839Y-79158379D01*
X115868793Y-79066810D01*
X115896626Y-78985997D01*
X115907055Y-78955242D01*
X115931114Y-78884420D01*
X115962855Y-78792217D01*
X116002985Y-78676602D01*
X116052211Y-78535546D01*
X116111241Y-78367020D01*
X116180782Y-78168994D01*
X116208246Y-78090889D01*
X116243467Y-77990543D01*
X116276289Y-77896645D01*
X116304394Y-77815860D01*
X116325462Y-77754851D01*
X116336311Y-77722897D01*
X116351774Y-77677263D01*
X116374950Y-77610033D01*
X116402144Y-77531886D01*
X116419179Y-77483275D01*
X116444866Y-77410103D01*
X116478650Y-77313737D01*
X116517337Y-77203298D01*
X116557731Y-77087906D01*
X116590068Y-76995472D01*
X116620748Y-76907992D01*
X118530003Y-76907992D01*
X118538574Y-76924032D01*
X118560915Y-76952078D01*
X118596673Y-76996104D01*
X118631263Y-77038261D01*
X118892556Y-77377327D01*
X119140513Y-77743056D01*
X119371836Y-78129382D01*
X119583222Y-78530239D01*
X119771373Y-78939562D01*
X119932986Y-79351285D01*
X120004973Y-79562857D01*
X120119358Y-79950255D01*
X120207943Y-80324064D01*
X120271935Y-80691728D01*
X120312542Y-81060692D01*
X120330971Y-81438402D01*
X120332410Y-81582533D01*
X120323921Y-81918516D01*
X120297767Y-82231108D01*
X120253000Y-82526793D01*
X120188670Y-82812054D01*
X120116982Y-83053968D01*
X119997080Y-83371642D01*
X119854092Y-83664618D01*
X119687337Y-83934078D01*
X119496134Y-84181205D01*
X119417048Y-84269372D01*
X119364544Y-84325847D01*
X119334340Y-84359452D01*
X119325279Y-84372251D01*
X119336206Y-84366309D01*
X119365964Y-84343688D01*
X119382816Y-84330483D01*
X119434111Y-84289446D01*
X119500765Y-84235093D01*
X119572017Y-84176233D01*
X119607819Y-84146343D01*
X119687169Y-84076183D01*
X119782109Y-83986504D01*
X119886150Y-83883946D01*
X119992799Y-83775147D01*
X120095568Y-83666747D01*
X120187965Y-83565386D01*
X120263500Y-83477702D01*
X120273973Y-83464910D01*
X120529889Y-83122683D01*
X120756304Y-82764254D01*
X120952806Y-82391471D01*
X121118983Y-82006176D01*
X121254422Y-81610215D01*
X121358712Y-81205434D01*
X121431440Y-80793677D01*
X121472195Y-80376788D01*
X121480565Y-79956614D01*
X121456136Y-79534998D01*
X121398498Y-79113786D01*
X121324290Y-78762337D01*
X121205968Y-78351762D01*
X121056399Y-77954830D01*
X120876108Y-77572450D01*
X120665624Y-77205531D01*
X120425472Y-76854982D01*
X120156181Y-76521713D01*
X119858278Y-76206632D01*
X119821957Y-76171362D01*
X119735731Y-76090385D01*
X119644313Y-76008042D01*
X119551813Y-75927691D01*
X119462341Y-75852686D01*
X119380005Y-75786383D01*
X119308917Y-75732137D01*
X119253185Y-75693304D01*
X119216920Y-75673239D01*
X119209436Y-75671257D01*
X119189029Y-75685634D01*
X119155376Y-75730541D01*
X119108975Y-75805158D01*
X119050327Y-75908663D01*
X118979931Y-76040236D01*
X118950480Y-76096887D01*
X118918308Y-76157594D01*
X118878263Y-76230970D01*
X118843191Y-76293719D01*
X118803798Y-76364151D01*
X118757485Y-76448394D01*
X118713294Y-76529978D01*
X118706909Y-76541900D01*
X118664659Y-76620775D01*
X118619705Y-76704415D01*
X118580688Y-76776748D01*
X118575082Y-76787104D01*
X118544801Y-76845846D01*
X118530483Y-76883488D01*
X118530003Y-76907992D01*
X116620748Y-76907992D01*
X116625648Y-76894020D01*
X116658603Y-76800603D01*
X116686799Y-76721221D01*
X116708106Y-76661873D01*
X116720392Y-76628556D01*
X116720727Y-76627691D01*
X116728019Y-76608243D01*
X116731137Y-76591404D01*
X116727118Y-76574847D01*
X116712995Y-76556244D01*
X116685804Y-76533267D01*
X116642579Y-76503588D01*
X116580356Y-76464879D01*
X116496169Y-76414813D01*
X116387053Y-76351062D01*
X116314774Y-76308992D01*
X116093637Y-76193227D01*
X115849675Y-76088470D01*
X115593529Y-75998520D01*
X115335838Y-75927177D01*
X115125584Y-75884344D01*
X114985647Y-75865903D01*
X114829159Y-75853402D01*
X114668075Y-75847255D01*
X114514351Y-75847876D01*
X114379941Y-75855679D01*
X114359299Y-75857813D01*
X114302821Y-75866200D01*
X114227305Y-75880215D01*
X114141533Y-75897904D01*
X114054289Y-75917313D01*
X113974356Y-75936487D01*
X113910517Y-75953472D01*
X113871556Y-75966315D01*
X113871495Y-75966341D01*
X113837649Y-75980136D01*
X113784448Y-76001048D01*
X113734568Y-76020273D01*
X113595211Y-76081513D01*
X113446694Y-76160521D01*
X113302575Y-76249457D01*
X113176413Y-76340482D01*
X113165403Y-76349320D01*
X113131184Y-76379658D01*
X113080022Y-76428089D01*
X113018226Y-76488307D01*
X112952111Y-76554008D01*
X112887985Y-76618884D01*
X112832163Y-76676630D01*
X112790954Y-76720939D01*
X112775643Y-76738733D01*
X112735748Y-76790639D01*
X112693026Y-76849392D01*
X112656395Y-76902518D01*
X112639150Y-76929680D01*
X112622747Y-76957412D01*
X112594197Y-77005573D01*
X112558838Y-77065161D01*
X112547607Y-77084079D01*
X112485557Y-77198377D01*
X112421777Y-77332801D01*
X112362016Y-77474073D01*
X112312028Y-77608915D01*
X112289438Y-77680108D01*
X112257460Y-77794256D01*
X112226880Y-77911555D01*
X112199687Y-78023700D01*
X112177869Y-78122386D01*
X112163414Y-78199308D01*
X112160656Y-78218070D01*
X112153042Y-78268852D01*
X112146023Y-78304186D01*
X112143198Y-78312734D01*
X112136851Y-78339061D01*
X112130854Y-78393458D01*
X112125333Y-78470516D01*
X112120413Y-78564821D01*
X112116217Y-78670963D01*
X112112871Y-78783528D01*
X112110500Y-78897107D01*
X112109228Y-79006286D01*
X112109180Y-79105654D01*
X112053328Y-79105654D01*
X112050773Y-79085160D01*
X112036292Y-78920183D01*
X112025634Y-78743712D01*
X112019383Y-78567062D01*
X112018121Y-78401553D01*
X112020601Y-78296280D01*
X112050037Y-77896811D01*
X112105065Y-77520038D01*
X112185703Y-77165901D01*
X112291972Y-76834338D01*
X112423892Y-76525288D01*
X112581482Y-76238689D01*
X112764763Y-75974480D01*
X112775564Y-75960629D01*
X112845368Y-75877447D01*
X112932067Y-75782805D01*
X113026891Y-75685608D01*
X113121070Y-75594763D01*
X113205832Y-75519174D01*
X113229649Y-75499570D01*
X113261482Y-75473006D01*
X113268161Y-75464388D01*
X113249035Y-75474080D01*
X113203454Y-75502444D01*
X113130767Y-75549843D01*
X113084164Y-75580722D01*
X112801132Y-75785161D01*
X112522674Y-76017641D01*
X112255018Y-76272010D01*
X112004393Y-76542117D01*
X111777026Y-76821810D01*
X111651749Y-76995472D01*
X111420452Y-77362127D01*
X111220740Y-77740856D01*
X111052794Y-78130110D01*
X110916794Y-78528340D01*
X110812921Y-78933997D01*
X110741356Y-79345532D01*
X110702279Y-79761396D01*
X110695871Y-80180040D01*
X110124560Y-80180040D01*
X110121588Y-80086622D01*
X110128337Y-79777164D01*
X110150634Y-79464983D01*
X110174421Y-79257986D01*
X110250264Y-78818323D01*
X110357891Y-78389412D01*
X110496160Y-77972639D01*
X110663930Y-77569390D01*
X110860057Y-77181050D01*
X111083402Y-76809004D01*
X111332822Y-76454637D01*
X111607175Y-76119335D01*
X111905321Y-75804484D01*
X112226117Y-75511468D01*
X112568421Y-75241673D01*
X112872404Y-75036162D01*
G37*
%TD*%
M02*
