%TF.GenerationSoftware,KiCad,Pcbnew,7.0.1-0*%
%TF.CreationDate,2023-05-25T16:35:58+09:00*%
%TF.ProjectId,AvionicsMountPlate,4176696f-6e69-4637-934d-6f756e74506c,rev?*%
%TF.SameCoordinates,Original*%
%TF.FileFunction,Legend,Top*%
%TF.FilePolarity,Positive*%
%FSLAX46Y46*%
G04 Gerber Fmt 4.6, Leading zero omitted, Abs format (unit mm)*
G04 Created by KiCad (PCBNEW 7.0.1-0) date 2023-05-25 16:35:58*
%MOMM*%
%LPD*%
G01*
G04 APERTURE LIST*
%ADD10C,0.100000*%
%ADD11C,0.150000*%
G04 APERTURE END LIST*
D10*
X210618059Y-87388059D02*
G75*
G03*
X210618059Y-87388059I-61000000J0D01*
G01*
X109618059Y-127388059D02*
X189618059Y-127388059D01*
X189618059Y-127388059D02*
G75*
G03*
X109618059Y-127388059I-40000000J40000000D01*
G01*
D11*
X148725201Y-156081987D02*
X148010915Y-156081987D01*
X148010915Y-156081987D02*
X148010915Y-154581987D01*
X149868059Y-155081987D02*
X149868059Y-156081987D01*
X149225201Y-155081987D02*
X149225201Y-155867701D01*
X149225201Y-155867701D02*
X149296630Y-156010559D01*
X149296630Y-156010559D02*
X149439487Y-156081987D01*
X149439487Y-156081987D02*
X149653773Y-156081987D01*
X149653773Y-156081987D02*
X149796630Y-156010559D01*
X149796630Y-156010559D02*
X149868059Y-155939130D01*
X151225202Y-155081987D02*
X151225202Y-156296273D01*
X151225202Y-156296273D02*
X151153773Y-156439130D01*
X151153773Y-156439130D02*
X151082344Y-156510559D01*
X151082344Y-156510559D02*
X150939487Y-156581987D01*
X150939487Y-156581987D02*
X150725202Y-156581987D01*
X150725202Y-156581987D02*
X150582344Y-156510559D01*
X151225202Y-156010559D02*
X151082344Y-156081987D01*
X151082344Y-156081987D02*
X150796630Y-156081987D01*
X150796630Y-156081987D02*
X150653773Y-156010559D01*
X150653773Y-156010559D02*
X150582344Y-155939130D01*
X150582344Y-155939130D02*
X150510916Y-155796273D01*
X150510916Y-155796273D02*
X150510916Y-155367701D01*
X150510916Y-155367701D02*
X150582344Y-155224844D01*
X150582344Y-155224844D02*
X150653773Y-155153416D01*
X150653773Y-155153416D02*
X150796630Y-155081987D01*
X150796630Y-155081987D02*
X151082344Y-155081987D01*
X151082344Y-155081987D02*
X151225202Y-155153416D01*
%TO.C,G\u002A\u002A\u002A*%
G36*
X142073504Y-74787436D02*
G01*
X142128295Y-74825087D01*
X142158357Y-74884115D01*
X142163157Y-74926826D01*
X142157620Y-74956518D01*
X142141612Y-75015967D01*
X142115941Y-75102608D01*
X142081418Y-75213879D01*
X142038851Y-75347216D01*
X141989048Y-75500055D01*
X141932820Y-75669833D01*
X141870974Y-75853986D01*
X141864918Y-75871891D01*
X141799063Y-76066141D01*
X141742971Y-76230611D01*
X141695618Y-76368008D01*
X141655979Y-76481042D01*
X141623029Y-76572418D01*
X141595744Y-76644846D01*
X141573099Y-76701032D01*
X141554068Y-76743684D01*
X141537628Y-76775511D01*
X141522754Y-76799219D01*
X141508421Y-76817516D01*
X141506021Y-76820220D01*
X141429048Y-76888340D01*
X141346484Y-76931364D01*
X141264216Y-76947590D01*
X141188136Y-76935317D01*
X141158394Y-76920609D01*
X141113497Y-76879833D01*
X141093183Y-76824416D01*
X141091807Y-76769635D01*
X141097895Y-76743481D01*
X141114027Y-76688725D01*
X141138944Y-76609078D01*
X141171386Y-76508250D01*
X141210096Y-76389953D01*
X141253815Y-76257897D01*
X141301286Y-76115792D01*
X141351248Y-75967351D01*
X141402445Y-75816282D01*
X141453617Y-75666297D01*
X141503506Y-75521106D01*
X141550854Y-75384421D01*
X141594403Y-75259951D01*
X141632893Y-75151408D01*
X141665067Y-75062503D01*
X141689666Y-74996945D01*
X141705432Y-74958446D01*
X141707488Y-74954175D01*
X141769105Y-74867863D01*
X141850431Y-74808240D01*
X141947505Y-74777764D01*
X141997296Y-74774209D01*
X142073504Y-74787436D01*
G37*
G36*
X149064873Y-79030374D02*
G01*
X149324150Y-79030427D01*
X149553076Y-79030560D01*
X149753588Y-79030806D01*
X149927628Y-79031202D01*
X150077136Y-79031781D01*
X150204050Y-79032580D01*
X150310310Y-79033634D01*
X150397858Y-79034977D01*
X150468631Y-79036645D01*
X150524571Y-79038673D01*
X150567616Y-79041096D01*
X150599707Y-79043950D01*
X150622783Y-79047269D01*
X150638784Y-79051088D01*
X150649651Y-79055443D01*
X150657322Y-79060369D01*
X150662296Y-79064595D01*
X150707282Y-79125417D01*
X150721092Y-79196296D01*
X150704040Y-79273863D01*
X150656443Y-79354752D01*
X150632541Y-79383318D01*
X150616899Y-79401587D01*
X150603543Y-79417871D01*
X150590527Y-79432286D01*
X150575904Y-79444943D01*
X150557728Y-79455956D01*
X150534050Y-79465439D01*
X150502925Y-79473505D01*
X150462405Y-79480268D01*
X150410543Y-79485841D01*
X150345392Y-79490337D01*
X150265006Y-79493871D01*
X150167436Y-79496555D01*
X150050738Y-79498503D01*
X149912962Y-79499828D01*
X149752163Y-79500644D01*
X149566394Y-79501064D01*
X149353707Y-79501202D01*
X149112155Y-79501170D01*
X148839793Y-79501084D01*
X148612054Y-79501051D01*
X146748554Y-79501051D01*
X146707377Y-79457220D01*
X146674378Y-79398152D01*
X146669803Y-79324395D01*
X146693710Y-79240426D01*
X146704240Y-79218174D01*
X146742936Y-79154691D01*
X146789829Y-79107703D01*
X146857047Y-79065261D01*
X146862398Y-79062381D01*
X146872925Y-79057330D01*
X146885824Y-79052840D01*
X146903056Y-79048877D01*
X146926581Y-79045409D01*
X146958361Y-79042402D01*
X147000355Y-79039824D01*
X147054525Y-79037642D01*
X147122830Y-79035822D01*
X147207233Y-79034333D01*
X147309692Y-79033142D01*
X147432169Y-79032214D01*
X147576624Y-79031519D01*
X147745018Y-79031022D01*
X147939312Y-79030691D01*
X148161466Y-79030493D01*
X148413440Y-79030395D01*
X148697196Y-79030365D01*
X148773304Y-79030364D01*
X149064873Y-79030374D01*
G37*
G36*
X165513256Y-74768514D02*
G01*
X165772533Y-74768568D01*
X166001458Y-74768700D01*
X166201971Y-74768946D01*
X166376011Y-74769342D01*
X166525518Y-74769922D01*
X166652432Y-74770721D01*
X166758693Y-74771774D01*
X166846240Y-74773117D01*
X166917014Y-74774785D01*
X166972953Y-74776813D01*
X167015999Y-74779237D01*
X167048090Y-74782090D01*
X167071166Y-74785409D01*
X167087167Y-74789228D01*
X167098034Y-74793584D01*
X167105705Y-74798510D01*
X167110679Y-74802736D01*
X167155664Y-74863557D01*
X167169474Y-74934436D01*
X167152423Y-75012003D01*
X167104825Y-75092893D01*
X167080924Y-75121458D01*
X167065281Y-75139727D01*
X167051926Y-75156012D01*
X167038910Y-75170426D01*
X167024287Y-75183083D01*
X167006111Y-75194096D01*
X166982433Y-75203579D01*
X166951308Y-75211645D01*
X166910787Y-75218408D01*
X166858925Y-75223981D01*
X166793775Y-75228478D01*
X166713388Y-75232011D01*
X166615819Y-75234695D01*
X166499120Y-75236643D01*
X166361345Y-75237968D01*
X166200546Y-75238784D01*
X166014777Y-75239204D01*
X165802090Y-75239342D01*
X165560538Y-75239311D01*
X165288175Y-75239224D01*
X165060437Y-75239191D01*
X163196937Y-75239191D01*
X163155760Y-75195360D01*
X163122761Y-75136292D01*
X163118186Y-75062535D01*
X163142093Y-74978566D01*
X163152623Y-74956315D01*
X163191319Y-74892832D01*
X163238212Y-74845843D01*
X163305430Y-74803401D01*
X163310781Y-74800521D01*
X163321308Y-74795470D01*
X163334206Y-74790980D01*
X163351438Y-74787018D01*
X163374964Y-74783549D01*
X163406743Y-74780542D01*
X163448738Y-74777964D01*
X163502907Y-74775782D01*
X163571213Y-74773963D01*
X163655615Y-74772473D01*
X163758075Y-74771282D01*
X163880552Y-74770354D01*
X164025007Y-74769659D01*
X164193401Y-74769162D01*
X164387695Y-74768831D01*
X164609849Y-74768633D01*
X164861823Y-74768535D01*
X165145579Y-74768505D01*
X165221686Y-74768504D01*
X165513256Y-74768514D01*
G37*
G36*
X178264603Y-79030374D02*
G01*
X178523881Y-79030427D01*
X178752806Y-79030560D01*
X178953319Y-79030806D01*
X179127359Y-79031202D01*
X179276866Y-79031781D01*
X179403780Y-79032580D01*
X179510041Y-79033634D01*
X179597588Y-79034977D01*
X179668362Y-79036645D01*
X179724301Y-79038673D01*
X179767346Y-79041096D01*
X179799437Y-79043950D01*
X179822514Y-79047269D01*
X179838515Y-79051088D01*
X179849381Y-79055443D01*
X179857052Y-79060369D01*
X179862027Y-79064595D01*
X179907012Y-79125417D01*
X179920822Y-79196296D01*
X179903771Y-79273863D01*
X179856173Y-79354752D01*
X179832272Y-79383318D01*
X179816629Y-79401587D01*
X179803273Y-79417871D01*
X179790258Y-79432286D01*
X179775635Y-79444943D01*
X179757458Y-79455956D01*
X179733781Y-79465439D01*
X179702655Y-79473505D01*
X179662135Y-79480268D01*
X179610273Y-79485841D01*
X179545122Y-79490337D01*
X179464736Y-79493871D01*
X179367167Y-79496555D01*
X179250468Y-79498503D01*
X179112693Y-79499828D01*
X178951894Y-79500644D01*
X178766124Y-79501064D01*
X178553437Y-79501202D01*
X178311886Y-79501170D01*
X178039523Y-79501084D01*
X177811784Y-79501051D01*
X175948285Y-79501051D01*
X175907107Y-79457220D01*
X175874109Y-79398152D01*
X175869534Y-79324395D01*
X175893440Y-79240426D01*
X175903970Y-79218174D01*
X175942667Y-79154691D01*
X175989559Y-79107703D01*
X176056777Y-79065261D01*
X176062129Y-79062381D01*
X176072655Y-79057330D01*
X176085554Y-79052840D01*
X176102786Y-79048877D01*
X176126311Y-79045409D01*
X176158091Y-79042402D01*
X176200085Y-79039824D01*
X176254255Y-79037642D01*
X176322561Y-79035822D01*
X176406963Y-79034333D01*
X176509422Y-79033142D01*
X176631899Y-79032214D01*
X176776355Y-79031519D01*
X176944749Y-79031022D01*
X177139043Y-79030691D01*
X177361196Y-79030493D01*
X177613171Y-79030395D01*
X177896926Y-79030365D01*
X177973034Y-79030364D01*
X178264603Y-79030374D01*
G37*
G36*
X152340339Y-74768439D02*
G01*
X152540228Y-74768665D01*
X152713622Y-74769187D01*
X152862455Y-74770108D01*
X152988661Y-74771533D01*
X153094175Y-74773564D01*
X153180931Y-74776305D01*
X153250862Y-74779860D01*
X153305904Y-74784332D01*
X153347989Y-74789824D01*
X153379054Y-74796440D01*
X153401030Y-74804284D01*
X153415854Y-74813459D01*
X153425458Y-74824068D01*
X153431777Y-74836215D01*
X153436745Y-74850003D01*
X153442297Y-74865537D01*
X153443775Y-74869166D01*
X153457321Y-74943566D01*
X153438353Y-75021410D01*
X153388054Y-75100119D01*
X153307607Y-75177119D01*
X153299336Y-75183564D01*
X153226853Y-75239191D01*
X152435016Y-75239191D01*
X151643179Y-75239191D01*
X151398188Y-75962338D01*
X151346358Y-76114693D01*
X151296917Y-76258817D01*
X151251137Y-76391087D01*
X151210291Y-76507880D01*
X151175652Y-76605572D01*
X151148491Y-76680540D01*
X151130082Y-76729162D01*
X151123180Y-76745391D01*
X151069052Y-76825090D01*
X150998660Y-76887611D01*
X150918875Y-76929740D01*
X150836569Y-76948263D01*
X150758615Y-76939969D01*
X150730930Y-76928797D01*
X150679743Y-76885189D01*
X150654157Y-76822779D01*
X150654598Y-76762507D01*
X150662160Y-76734093D01*
X150679659Y-76676906D01*
X150705915Y-76594550D01*
X150739750Y-76490628D01*
X150779983Y-76368744D01*
X150825434Y-76232501D01*
X150874925Y-76085504D01*
X150911682Y-75977133D01*
X150962697Y-75827045D01*
X151010151Y-75687170D01*
X151052940Y-75560788D01*
X151089957Y-75451176D01*
X151120096Y-75361613D01*
X151142252Y-75295377D01*
X151155319Y-75255747D01*
X151158490Y-75245428D01*
X151141941Y-75244149D01*
X151094559Y-75242958D01*
X151019744Y-75241883D01*
X150920894Y-75240951D01*
X150801410Y-75240189D01*
X150664690Y-75239624D01*
X150514134Y-75239284D01*
X150380671Y-75239191D01*
X149602852Y-75239191D01*
X149556774Y-75199556D01*
X149520437Y-75146913D01*
X149510524Y-75077834D01*
X149527298Y-74997961D01*
X149545440Y-74956393D01*
X149584146Y-74892876D01*
X149631022Y-74845880D01*
X149698202Y-74803447D01*
X149703638Y-74800521D01*
X149714309Y-74795402D01*
X149727370Y-74790858D01*
X149744813Y-74786857D01*
X149768629Y-74783363D01*
X149800808Y-74780342D01*
X149843341Y-74777759D01*
X149898219Y-74775581D01*
X149967431Y-74773774D01*
X150052970Y-74772302D01*
X150156825Y-74771131D01*
X150280987Y-74770228D01*
X150427447Y-74769559D01*
X150598195Y-74769087D01*
X150795223Y-74768780D01*
X151020520Y-74768604D01*
X151276078Y-74768523D01*
X151562362Y-74768504D01*
X151853341Y-74768462D01*
X152112022Y-74768406D01*
X152340339Y-74768439D01*
G37*
G36*
X154034814Y-79030299D02*
G01*
X154234703Y-79030525D01*
X154408096Y-79031047D01*
X154556929Y-79031968D01*
X154683136Y-79033393D01*
X154788650Y-79035424D01*
X154875405Y-79038165D01*
X154945337Y-79041720D01*
X155000378Y-79046192D01*
X155042464Y-79051684D01*
X155073528Y-79058300D01*
X155095505Y-79066144D01*
X155110328Y-79075319D01*
X155119932Y-79085928D01*
X155126251Y-79098075D01*
X155131220Y-79111863D01*
X155136772Y-79127397D01*
X155138250Y-79131026D01*
X155151796Y-79205426D01*
X155132827Y-79283269D01*
X155082528Y-79361979D01*
X155002082Y-79438979D01*
X154993810Y-79445424D01*
X154921327Y-79501051D01*
X154129490Y-79501051D01*
X153337653Y-79501051D01*
X153092663Y-80224198D01*
X153040832Y-80376553D01*
X152991391Y-80520677D01*
X152945611Y-80652947D01*
X152904766Y-80769740D01*
X152870126Y-80867432D01*
X152842966Y-80942400D01*
X152824556Y-80991022D01*
X152817654Y-81007250D01*
X152763527Y-81086950D01*
X152693134Y-81149470D01*
X152613349Y-81191599D01*
X152531043Y-81210123D01*
X152453090Y-81201828D01*
X152425404Y-81190657D01*
X152374217Y-81147049D01*
X152348631Y-81084639D01*
X152349072Y-81024366D01*
X152356634Y-80995953D01*
X152374133Y-80938766D01*
X152400390Y-80856410D01*
X152434224Y-80752488D01*
X152474457Y-80630604D01*
X152519909Y-80494361D01*
X152569400Y-80347363D01*
X152606156Y-80238992D01*
X152657171Y-80088905D01*
X152704626Y-79949030D01*
X152747414Y-79822648D01*
X152784431Y-79713036D01*
X152814571Y-79623472D01*
X152836726Y-79557237D01*
X152849793Y-79517606D01*
X152852964Y-79507288D01*
X152836415Y-79506009D01*
X152789033Y-79504818D01*
X152714218Y-79503743D01*
X152615369Y-79502811D01*
X152495884Y-79502049D01*
X152359164Y-79501484D01*
X152208608Y-79501144D01*
X152075145Y-79501051D01*
X151297326Y-79501051D01*
X151251248Y-79461416D01*
X151214911Y-79408773D01*
X151204998Y-79339694D01*
X151221772Y-79259821D01*
X151239914Y-79218253D01*
X151278620Y-79154736D01*
X151325496Y-79107740D01*
X151392676Y-79065307D01*
X151398113Y-79062381D01*
X151408783Y-79057261D01*
X151421844Y-79052718D01*
X151439288Y-79048717D01*
X151463104Y-79045223D01*
X151495283Y-79042201D01*
X151537816Y-79039619D01*
X151592693Y-79037441D01*
X151661906Y-79035633D01*
X151747444Y-79034162D01*
X151851299Y-79032991D01*
X151975461Y-79032088D01*
X152121921Y-79031418D01*
X152292670Y-79030947D01*
X152489697Y-79030640D01*
X152714994Y-79030464D01*
X152970552Y-79030383D01*
X153256836Y-79030364D01*
X153547815Y-79030322D01*
X153806496Y-79030266D01*
X154034814Y-79030299D01*
G37*
G36*
X174881984Y-74768439D02*
G01*
X175081872Y-74768665D01*
X175255266Y-74769187D01*
X175404099Y-74770108D01*
X175530305Y-74771533D01*
X175635819Y-74773564D01*
X175722575Y-74776305D01*
X175792506Y-74779860D01*
X175847548Y-74784332D01*
X175889634Y-74789824D01*
X175920698Y-74796440D01*
X175942674Y-74804284D01*
X175957498Y-74813459D01*
X175967102Y-74824068D01*
X175973421Y-74836215D01*
X175978390Y-74850003D01*
X175983941Y-74865537D01*
X175985419Y-74869166D01*
X175998966Y-74943566D01*
X175979997Y-75021410D01*
X175929698Y-75100119D01*
X175849252Y-75177119D01*
X175840980Y-75183564D01*
X175768497Y-75239191D01*
X174976660Y-75239191D01*
X174184823Y-75239191D01*
X173939833Y-75962338D01*
X173888002Y-76114693D01*
X173838561Y-76258817D01*
X173792781Y-76391087D01*
X173751935Y-76507880D01*
X173717296Y-76605572D01*
X173690136Y-76680540D01*
X173671726Y-76729162D01*
X173664824Y-76745391D01*
X173610697Y-76825090D01*
X173540304Y-76887611D01*
X173460519Y-76929740D01*
X173378213Y-76948263D01*
X173300260Y-76939969D01*
X173272574Y-76928797D01*
X173221387Y-76885189D01*
X173195801Y-76822779D01*
X173196242Y-76762507D01*
X173203804Y-76734093D01*
X173221303Y-76676906D01*
X173247559Y-76594550D01*
X173281394Y-76490628D01*
X173321627Y-76368744D01*
X173367078Y-76232501D01*
X173416569Y-76085504D01*
X173453326Y-75977133D01*
X173504341Y-75827045D01*
X173551795Y-75687170D01*
X173594584Y-75560788D01*
X173631601Y-75451176D01*
X173661740Y-75361613D01*
X173683896Y-75295377D01*
X173696963Y-75255747D01*
X173700134Y-75245428D01*
X173683585Y-75244149D01*
X173636203Y-75242958D01*
X173561388Y-75241883D01*
X173462538Y-75240951D01*
X173343054Y-75240189D01*
X173206334Y-75239624D01*
X173055778Y-75239284D01*
X172922315Y-75239191D01*
X172144496Y-75239191D01*
X172098418Y-75199556D01*
X172062081Y-75146913D01*
X172052168Y-75077834D01*
X172068942Y-74997961D01*
X172087084Y-74956393D01*
X172125790Y-74892876D01*
X172172666Y-74845880D01*
X172239846Y-74803447D01*
X172245282Y-74800521D01*
X172255953Y-74795402D01*
X172269014Y-74790858D01*
X172286458Y-74786857D01*
X172310274Y-74783363D01*
X172342453Y-74780342D01*
X172384986Y-74777759D01*
X172439863Y-74775581D01*
X172509076Y-74773774D01*
X172594614Y-74772302D01*
X172698469Y-74771131D01*
X172822631Y-74770228D01*
X172969091Y-74769559D01*
X173139839Y-74769087D01*
X173336867Y-74768780D01*
X173562164Y-74768604D01*
X173817722Y-74768523D01*
X174104006Y-74768504D01*
X174394985Y-74768462D01*
X174653666Y-74768406D01*
X174881984Y-74768439D01*
G37*
G36*
X187821606Y-79030299D02*
G01*
X188021495Y-79030525D01*
X188194889Y-79031047D01*
X188343722Y-79031968D01*
X188469928Y-79033393D01*
X188575442Y-79035424D01*
X188662198Y-79038165D01*
X188732129Y-79041720D01*
X188787171Y-79046192D01*
X188829256Y-79051684D01*
X188860320Y-79058300D01*
X188882297Y-79066144D01*
X188897120Y-79075319D01*
X188906725Y-79085928D01*
X188913044Y-79098075D01*
X188918012Y-79111863D01*
X188923564Y-79127397D01*
X188925042Y-79131026D01*
X188938588Y-79205426D01*
X188919620Y-79283269D01*
X188869320Y-79361979D01*
X188788874Y-79438979D01*
X188780603Y-79445424D01*
X188708120Y-79501051D01*
X187916283Y-79501051D01*
X187124446Y-79501051D01*
X186879455Y-80224198D01*
X186827625Y-80376553D01*
X186778184Y-80520677D01*
X186732404Y-80652947D01*
X186691558Y-80769740D01*
X186656919Y-80867432D01*
X186629758Y-80942400D01*
X186611349Y-80991022D01*
X186604446Y-81007250D01*
X186550319Y-81086950D01*
X186479927Y-81149470D01*
X186400141Y-81191599D01*
X186317836Y-81210123D01*
X186239882Y-81201828D01*
X186212197Y-81190657D01*
X186161010Y-81147049D01*
X186135423Y-81084639D01*
X186135865Y-81024366D01*
X186143426Y-80995953D01*
X186160925Y-80938766D01*
X186187182Y-80856410D01*
X186221017Y-80752488D01*
X186261249Y-80630604D01*
X186306701Y-80494361D01*
X186356192Y-80347363D01*
X186392949Y-80238992D01*
X186443963Y-80088905D01*
X186491418Y-79949030D01*
X186534207Y-79822648D01*
X186571224Y-79713036D01*
X186601363Y-79623472D01*
X186623519Y-79557237D01*
X186636585Y-79517606D01*
X186639757Y-79507288D01*
X186623208Y-79506009D01*
X186575826Y-79504818D01*
X186501010Y-79503743D01*
X186402161Y-79502811D01*
X186282677Y-79502049D01*
X186145957Y-79501484D01*
X185995400Y-79501144D01*
X185861938Y-79501051D01*
X185084119Y-79501051D01*
X185038040Y-79461416D01*
X185001704Y-79408773D01*
X184991791Y-79339694D01*
X185008564Y-79259821D01*
X185026707Y-79218253D01*
X185065413Y-79154736D01*
X185112288Y-79107740D01*
X185179469Y-79065307D01*
X185184905Y-79062381D01*
X185195575Y-79057261D01*
X185208637Y-79052718D01*
X185226080Y-79048717D01*
X185249896Y-79045223D01*
X185282075Y-79042201D01*
X185324608Y-79039619D01*
X185379486Y-79037441D01*
X185448698Y-79035633D01*
X185534237Y-79034162D01*
X185638092Y-79032991D01*
X185762254Y-79032088D01*
X185908714Y-79031418D01*
X186079462Y-79030947D01*
X186276489Y-79030640D01*
X186501787Y-79030464D01*
X186757344Y-79030383D01*
X187043629Y-79030364D01*
X187334607Y-79030322D01*
X187593289Y-79030266D01*
X187821606Y-79030299D01*
G37*
G36*
X139641197Y-74687197D02*
G01*
X139746358Y-74727778D01*
X139834458Y-74794200D01*
X139856975Y-74819173D01*
X139875791Y-74850080D01*
X139905138Y-74908697D01*
X139943534Y-74991387D01*
X139989496Y-75094516D01*
X140041543Y-75214447D01*
X140098194Y-75347546D01*
X140157965Y-75490176D01*
X140219374Y-75638702D01*
X140280941Y-75789488D01*
X140341183Y-75938899D01*
X140398617Y-76083299D01*
X140451762Y-76219053D01*
X140499136Y-76342524D01*
X140539258Y-76450078D01*
X140570644Y-76538078D01*
X140591813Y-76602890D01*
X140601283Y-76640877D01*
X140601644Y-76645995D01*
X140584273Y-76733388D01*
X140536011Y-76813078D01*
X140487883Y-76861889D01*
X140414732Y-76911512D01*
X140336692Y-76940112D01*
X140261004Y-76947172D01*
X140194909Y-76932174D01*
X140145650Y-76894602D01*
X140139998Y-76886741D01*
X140127700Y-76862176D01*
X140103906Y-76809168D01*
X140069999Y-76730988D01*
X140027363Y-76630908D01*
X139977384Y-76512201D01*
X139921446Y-76378137D01*
X139860932Y-76231990D01*
X139797228Y-76077031D01*
X139791826Y-76063839D01*
X139727443Y-75907684D01*
X139665543Y-75759650D01*
X139607586Y-75623082D01*
X139555030Y-75501325D01*
X139509335Y-75397725D01*
X139471962Y-75315627D01*
X139444368Y-75258376D01*
X139428014Y-75229317D01*
X139427383Y-75228495D01*
X139385201Y-75186861D01*
X139341963Y-75171313D01*
X139329546Y-75170728D01*
X139312150Y-75170673D01*
X139296013Y-75171480D01*
X139279398Y-75174605D01*
X139260564Y-75181505D01*
X139237773Y-75193635D01*
X139209287Y-75212453D01*
X139173366Y-75239415D01*
X139128272Y-75275976D01*
X139072265Y-75323594D01*
X139003608Y-75383725D01*
X138920560Y-75457825D01*
X138821384Y-75547351D01*
X138704340Y-75653759D01*
X138567689Y-75778505D01*
X138409693Y-75923046D01*
X138228613Y-76088838D01*
X138177528Y-76135613D01*
X138007853Y-76290458D01*
X137852446Y-76431259D01*
X137712726Y-76556770D01*
X137590110Y-76665742D01*
X137486015Y-76756930D01*
X137401860Y-76829087D01*
X137339062Y-76880966D01*
X137299038Y-76911322D01*
X137287474Y-76918289D01*
X137197003Y-76946226D01*
X137117649Y-76942361D01*
X137067693Y-76920609D01*
X137020919Y-76872880D01*
X137000054Y-76806541D01*
X137005949Y-76726306D01*
X137022941Y-76672818D01*
X137037738Y-76655197D01*
X137075408Y-76616588D01*
X137133627Y-76559169D01*
X137210067Y-76485123D01*
X137302403Y-76396629D01*
X137408310Y-76295867D01*
X137525461Y-76185018D01*
X137651531Y-76066262D01*
X137784193Y-75941780D01*
X137921123Y-75813751D01*
X138059995Y-75684357D01*
X138198481Y-75555776D01*
X138334257Y-75430191D01*
X138464998Y-75309780D01*
X138588376Y-75196724D01*
X138702066Y-75093204D01*
X138803743Y-75001400D01*
X138851492Y-74958663D01*
X138984189Y-74854586D01*
X139121206Y-74773383D01*
X139258978Y-74715548D01*
X139393943Y-74681576D01*
X139522537Y-74671961D01*
X139641197Y-74687197D01*
G37*
G36*
X150278500Y-79934182D02*
G01*
X150311869Y-79996957D01*
X150317499Y-80069227D01*
X150298046Y-80144733D01*
X150256163Y-80217220D01*
X150194504Y-80280429D01*
X150115725Y-80328103D01*
X150110457Y-80330355D01*
X150096640Y-80334841D01*
X150076607Y-80338799D01*
X150048307Y-80342261D01*
X150009694Y-80345261D01*
X149958717Y-80347829D01*
X149893329Y-80349999D01*
X149811481Y-80351801D01*
X149711124Y-80353268D01*
X149590209Y-80354431D01*
X149446688Y-80355324D01*
X149278513Y-80355978D01*
X149083633Y-80356424D01*
X148860002Y-80356696D01*
X148605570Y-80356824D01*
X148415465Y-80356846D01*
X146783875Y-80356846D01*
X146736669Y-80501798D01*
X146711816Y-80587452D01*
X146702681Y-80647783D01*
X146709632Y-80688062D01*
X146733036Y-80713563D01*
X146752069Y-80722824D01*
X146772822Y-80724347D01*
X146825391Y-80725805D01*
X146907360Y-80727181D01*
X147016315Y-80728462D01*
X147149840Y-80729630D01*
X147305519Y-80730671D01*
X147480937Y-80731569D01*
X147673678Y-80732307D01*
X147881327Y-80732872D01*
X148101469Y-80733246D01*
X148331687Y-80733414D01*
X148391393Y-80733423D01*
X148663524Y-80733459D01*
X148903525Y-80733583D01*
X149113496Y-80733833D01*
X149295539Y-80734247D01*
X149451753Y-80734862D01*
X149584241Y-80735715D01*
X149695103Y-80736845D01*
X149786440Y-80738289D01*
X149860352Y-80740085D01*
X149918942Y-80742271D01*
X149964310Y-80744883D01*
X149998557Y-80747960D01*
X150023784Y-80751540D01*
X150042092Y-80755660D01*
X150055582Y-80760358D01*
X150062053Y-80763375D01*
X150107932Y-80797293D01*
X150135459Y-80838085D01*
X150135798Y-80839098D01*
X150141585Y-80908359D01*
X150120895Y-80984370D01*
X150078269Y-81059409D01*
X150018252Y-81125752D01*
X149945387Y-81175676D01*
X149934850Y-81180720D01*
X149922082Y-81185890D01*
X149906533Y-81190456D01*
X149886122Y-81194457D01*
X149858769Y-81197930D01*
X149822394Y-81200912D01*
X149774915Y-81203441D01*
X149714254Y-81205556D01*
X149638330Y-81207292D01*
X149545061Y-81208688D01*
X149432369Y-81209782D01*
X149298172Y-81210611D01*
X149140390Y-81211212D01*
X148956943Y-81211623D01*
X148745750Y-81211882D01*
X148504732Y-81212026D01*
X148231807Y-81212094D01*
X148197439Y-81212098D01*
X146528638Y-81212307D01*
X146442934Y-81172397D01*
X146342810Y-81110008D01*
X146270341Y-81028435D01*
X146224874Y-80926565D01*
X146205754Y-80803285D01*
X146205018Y-80767628D01*
X146207451Y-80717607D01*
X146215424Y-80663138D01*
X146230472Y-80597900D01*
X146254130Y-80515573D01*
X146287932Y-80409839D01*
X146302687Y-80365404D01*
X146336299Y-80267329D01*
X146368751Y-80177080D01*
X146397592Y-80101153D01*
X146420366Y-80046048D01*
X146432678Y-80021144D01*
X146468340Y-79981390D01*
X146521254Y-79942109D01*
X146548361Y-79927006D01*
X146631334Y-79886159D01*
X148434262Y-79886159D01*
X150237190Y-79886159D01*
X150278500Y-79934182D01*
G37*
G36*
X166726883Y-75672322D02*
G01*
X166760251Y-75735097D01*
X166765882Y-75807367D01*
X166746429Y-75882874D01*
X166704546Y-75955360D01*
X166642887Y-76018569D01*
X166564108Y-76066243D01*
X166558840Y-76068496D01*
X166545023Y-76072981D01*
X166524989Y-76076939D01*
X166496690Y-76080402D01*
X166458076Y-76083401D01*
X166407100Y-76085970D01*
X166341712Y-76088139D01*
X166259863Y-76089941D01*
X166159506Y-76091408D01*
X166038592Y-76092572D01*
X165895071Y-76093464D01*
X165726895Y-76094118D01*
X165532016Y-76094564D01*
X165308385Y-76094836D01*
X165053953Y-76094964D01*
X164863848Y-76094986D01*
X163232257Y-76094986D01*
X163185052Y-76239938D01*
X163160198Y-76325592D01*
X163151063Y-76385923D01*
X163158015Y-76426202D01*
X163181419Y-76451703D01*
X163200452Y-76460965D01*
X163221205Y-76462487D01*
X163273773Y-76463945D01*
X163355743Y-76465321D01*
X163464698Y-76466602D01*
X163598223Y-76467770D01*
X163753902Y-76468811D01*
X163929320Y-76469709D01*
X164122061Y-76470447D01*
X164329710Y-76471012D01*
X164549851Y-76471386D01*
X164780070Y-76471555D01*
X164839775Y-76471563D01*
X165111907Y-76471599D01*
X165351908Y-76471723D01*
X165561879Y-76471974D01*
X165743922Y-76472387D01*
X165900136Y-76473002D01*
X166032624Y-76473856D01*
X166143485Y-76474985D01*
X166234822Y-76476430D01*
X166308735Y-76478226D01*
X166367325Y-76480411D01*
X166412693Y-76483023D01*
X166446940Y-76486101D01*
X166472167Y-76489680D01*
X166490475Y-76493800D01*
X166503965Y-76498498D01*
X166510436Y-76501516D01*
X166556315Y-76535433D01*
X166583842Y-76576225D01*
X166584181Y-76577238D01*
X166589968Y-76646499D01*
X166569277Y-76722510D01*
X166526652Y-76797549D01*
X166466635Y-76863893D01*
X166393770Y-76913816D01*
X166383232Y-76918861D01*
X166370465Y-76924030D01*
X166354915Y-76928596D01*
X166334505Y-76932597D01*
X166307152Y-76936070D01*
X166270776Y-76939052D01*
X166223298Y-76941582D01*
X166162637Y-76943696D01*
X166086712Y-76945432D01*
X165993444Y-76946828D01*
X165880752Y-76947922D01*
X165746554Y-76948751D01*
X165588773Y-76949352D01*
X165405326Y-76949763D01*
X165194133Y-76950022D01*
X164953115Y-76950167D01*
X164680190Y-76950234D01*
X164645822Y-76950238D01*
X162977021Y-76950447D01*
X162891317Y-76910537D01*
X162791193Y-76848149D01*
X162718724Y-76766575D01*
X162673256Y-76664705D01*
X162654137Y-76541425D01*
X162653401Y-76505768D01*
X162655834Y-76455747D01*
X162663807Y-76401278D01*
X162678855Y-76336040D01*
X162702513Y-76253713D01*
X162736315Y-76147979D01*
X162751069Y-76103544D01*
X162784681Y-76005470D01*
X162817134Y-75915220D01*
X162845975Y-75839293D01*
X162868749Y-75784188D01*
X162881060Y-75759284D01*
X162916723Y-75719530D01*
X162969636Y-75680249D01*
X162996743Y-75665146D01*
X163079716Y-75624299D01*
X164882644Y-75624299D01*
X166685573Y-75624299D01*
X166726883Y-75672322D01*
G37*
G36*
X179478231Y-79934182D02*
G01*
X179511599Y-79996957D01*
X179517230Y-80069227D01*
X179497776Y-80144733D01*
X179455893Y-80217220D01*
X179394235Y-80280429D01*
X179315455Y-80328103D01*
X179310188Y-80330355D01*
X179296371Y-80334841D01*
X179276337Y-80338799D01*
X179248038Y-80342261D01*
X179209424Y-80345261D01*
X179158447Y-80347829D01*
X179093059Y-80349999D01*
X179011211Y-80351801D01*
X178910854Y-80353268D01*
X178789939Y-80354431D01*
X178646419Y-80355324D01*
X178478243Y-80355978D01*
X178283364Y-80356424D01*
X178059733Y-80356696D01*
X177805301Y-80356824D01*
X177615196Y-80356846D01*
X175983605Y-80356846D01*
X175936400Y-80501798D01*
X175911546Y-80587452D01*
X175902411Y-80647783D01*
X175909362Y-80688062D01*
X175932767Y-80713563D01*
X175951800Y-80722824D01*
X175972552Y-80724347D01*
X176025121Y-80725805D01*
X176107091Y-80727181D01*
X176216046Y-80728462D01*
X176349570Y-80729630D01*
X176505250Y-80730671D01*
X176680667Y-80731569D01*
X176873409Y-80732307D01*
X177081058Y-80732872D01*
X177301199Y-80733246D01*
X177531418Y-80733414D01*
X177591123Y-80733423D01*
X177863255Y-80733459D01*
X178103256Y-80733583D01*
X178313227Y-80733833D01*
X178495269Y-80734247D01*
X178651484Y-80734862D01*
X178783971Y-80735715D01*
X178894833Y-80736845D01*
X178986170Y-80738289D01*
X179060083Y-80740085D01*
X179118673Y-80742271D01*
X179164041Y-80744883D01*
X179198288Y-80747960D01*
X179223515Y-80751540D01*
X179241823Y-80755660D01*
X179255313Y-80760358D01*
X179261783Y-80763375D01*
X179307662Y-80797293D01*
X179335189Y-80838085D01*
X179335528Y-80839098D01*
X179341316Y-80908359D01*
X179320625Y-80984370D01*
X179278000Y-81059409D01*
X179217983Y-81125752D01*
X179145117Y-81175676D01*
X179134580Y-81180720D01*
X179121812Y-81185890D01*
X179106263Y-81190456D01*
X179085852Y-81194457D01*
X179058499Y-81197930D01*
X179022124Y-81200912D01*
X178974646Y-81203441D01*
X178913985Y-81205556D01*
X178838060Y-81207292D01*
X178744792Y-81208688D01*
X178632099Y-81209782D01*
X178497902Y-81210611D01*
X178340120Y-81211212D01*
X178156673Y-81211623D01*
X177945481Y-81211882D01*
X177704462Y-81212026D01*
X177431538Y-81212094D01*
X177397169Y-81212098D01*
X175728369Y-81212307D01*
X175642665Y-81172397D01*
X175542540Y-81110008D01*
X175470071Y-81028435D01*
X175424604Y-80926565D01*
X175405485Y-80803285D01*
X175404749Y-80767628D01*
X175407181Y-80717607D01*
X175415154Y-80663138D01*
X175430203Y-80597900D01*
X175453860Y-80515573D01*
X175487662Y-80409839D01*
X175502417Y-80365404D01*
X175536029Y-80267329D01*
X175568482Y-80177080D01*
X175597322Y-80101153D01*
X175620097Y-80046048D01*
X175632408Y-80021144D01*
X175668071Y-79981390D01*
X175720984Y-79942109D01*
X175748091Y-79927006D01*
X175831064Y-79886159D01*
X177633992Y-79886159D01*
X179436920Y-79886159D01*
X179478231Y-79934182D01*
G37*
G36*
X157729382Y-79782966D02*
G01*
X157776730Y-79646280D01*
X157820279Y-79521811D01*
X157858769Y-79413268D01*
X157890943Y-79324363D01*
X157915542Y-79258805D01*
X157931308Y-79220306D01*
X157933364Y-79216035D01*
X157971805Y-79153462D01*
X158019192Y-79106669D01*
X158087481Y-79063963D01*
X158090431Y-79062381D01*
X158102053Y-79056838D01*
X158116321Y-79051960D01*
X158135410Y-79047696D01*
X158161497Y-79043995D01*
X158196755Y-79040807D01*
X158243360Y-79038080D01*
X158303488Y-79035766D01*
X158379314Y-79033811D01*
X158473012Y-79032168D01*
X158586759Y-79030783D01*
X158722729Y-79029607D01*
X158883097Y-79028590D01*
X159070040Y-79027680D01*
X159285732Y-79026827D01*
X159532348Y-79025980D01*
X159673652Y-79025525D01*
X159934354Y-79024888D01*
X160178321Y-79024674D01*
X160403647Y-79024868D01*
X160608428Y-79025458D01*
X160790756Y-79026430D01*
X160948728Y-79027771D01*
X161080438Y-79029466D01*
X161183980Y-79031503D01*
X161257450Y-79033867D01*
X161298941Y-79036546D01*
X161302904Y-79037067D01*
X161432482Y-79069772D01*
X161537201Y-79124788D01*
X161619452Y-79203708D01*
X161668246Y-79280340D01*
X161704548Y-79386685D01*
X161712239Y-79503627D01*
X161693582Y-79626980D01*
X161650843Y-79752560D01*
X161586285Y-79876181D01*
X161502172Y-79993659D01*
X161400770Y-80100808D01*
X161284342Y-80193443D01*
X161155152Y-80267378D01*
X161127545Y-80279740D01*
X161096280Y-80293114D01*
X161067590Y-80304836D01*
X161039110Y-80315017D01*
X161008478Y-80323765D01*
X160973331Y-80331190D01*
X160931305Y-80337399D01*
X160880040Y-80342503D01*
X160817170Y-80346609D01*
X160740334Y-80349828D01*
X160647168Y-80352267D01*
X160535310Y-80354036D01*
X160402396Y-80355245D01*
X160246065Y-80356001D01*
X160063952Y-80356413D01*
X159853696Y-80356592D01*
X159612932Y-80356645D01*
X159459366Y-80356661D01*
X158012734Y-80356846D01*
X157904132Y-80684174D01*
X157864454Y-80801900D01*
X157832391Y-80891932D01*
X157805744Y-80959371D01*
X157782315Y-81009319D01*
X157759904Y-81046876D01*
X157736313Y-81077144D01*
X157733310Y-81080515D01*
X157655717Y-81149450D01*
X157572906Y-81193005D01*
X157490560Y-81209520D01*
X157414362Y-81197336D01*
X157384270Y-81182469D01*
X157339373Y-81141692D01*
X157319059Y-81086276D01*
X157317683Y-81031495D01*
X157323771Y-81005340D01*
X157339903Y-80950584D01*
X157364820Y-80870937D01*
X157397262Y-80770110D01*
X157435972Y-80651813D01*
X157479691Y-80519757D01*
X157527162Y-80377652D01*
X157577124Y-80229210D01*
X157628321Y-80078141D01*
X157679493Y-79928156D01*
X157696864Y-79877601D01*
X158179028Y-79877601D01*
X159604166Y-79877601D01*
X161029304Y-79877601D01*
X161087054Y-79838683D01*
X161142385Y-79791301D01*
X161188023Y-79733951D01*
X161216639Y-79677105D01*
X161222641Y-79644959D01*
X161211756Y-79605784D01*
X161185166Y-79562251D01*
X161181338Y-79557632D01*
X161140035Y-79509609D01*
X159721858Y-79504950D01*
X158303681Y-79500291D01*
X158241355Y-79688946D01*
X158179028Y-79877601D01*
X157696864Y-79877601D01*
X157729382Y-79782966D01*
G37*
G36*
X126974571Y-74768439D02*
G01*
X127174460Y-74768665D01*
X127347854Y-74769187D01*
X127496687Y-74770108D01*
X127622893Y-74771533D01*
X127728407Y-74773564D01*
X127815163Y-74776305D01*
X127885094Y-74779860D01*
X127940136Y-74784332D01*
X127982221Y-74789824D01*
X128013285Y-74796440D01*
X128035262Y-74804284D01*
X128050085Y-74813459D01*
X128059690Y-74824068D01*
X128066009Y-74836215D01*
X128070977Y-74850003D01*
X128076529Y-74865537D01*
X128078007Y-74869166D01*
X128091411Y-74943386D01*
X128072295Y-75021523D01*
X128021762Y-75101062D01*
X127942394Y-75178295D01*
X127877772Y-75230633D01*
X127284539Y-75239811D01*
X127124669Y-75242405D01*
X126995076Y-75244905D01*
X126891809Y-75247571D01*
X126810914Y-75250664D01*
X126748441Y-75254445D01*
X126700437Y-75259173D01*
X126662950Y-75265109D01*
X126632027Y-75272513D01*
X126603715Y-75281647D01*
X126593596Y-75285336D01*
X126488040Y-75337253D01*
X126380710Y-75412150D01*
X126282883Y-75501362D01*
X126225972Y-75567850D01*
X126193397Y-75613899D01*
X126162548Y-75664627D01*
X126131755Y-75723990D01*
X126099345Y-75795945D01*
X126063648Y-75884446D01*
X126022992Y-75993450D01*
X125975706Y-76126911D01*
X125920118Y-76288787D01*
X125914991Y-76303884D01*
X125875886Y-76418087D01*
X125839057Y-76523757D01*
X125806317Y-76615836D01*
X125779480Y-76689267D01*
X125760359Y-76738995D01*
X125752299Y-76757455D01*
X125698514Y-76832508D01*
X125627795Y-76891459D01*
X125547625Y-76930994D01*
X125465487Y-76947803D01*
X125388863Y-76938574D01*
X125365162Y-76928797D01*
X125313953Y-76885188D01*
X125288407Y-76822813D01*
X125288925Y-76762507D01*
X125299887Y-76717303D01*
X125321092Y-76645486D01*
X125350648Y-76552449D01*
X125386663Y-76443589D01*
X125427245Y-76324300D01*
X125470503Y-76199976D01*
X125514545Y-76076014D01*
X125557480Y-75957808D01*
X125597416Y-75850754D01*
X125632461Y-75760245D01*
X125660723Y-75691678D01*
X125676010Y-75658531D01*
X125720298Y-75576717D01*
X125770715Y-75492622D01*
X125822267Y-75413761D01*
X125869961Y-75347654D01*
X125908806Y-75301816D01*
X125919544Y-75291823D01*
X125941901Y-75266790D01*
X125946765Y-75254211D01*
X125930157Y-75251203D01*
X125882365Y-75248411D01*
X125806436Y-75245890D01*
X125705417Y-75243692D01*
X125582355Y-75241871D01*
X125440298Y-75240479D01*
X125282293Y-75239570D01*
X125111386Y-75239198D01*
X125085395Y-75239191D01*
X124224026Y-75239191D01*
X124182849Y-75195360D01*
X124149850Y-75136292D01*
X124145275Y-75062535D01*
X124169182Y-74978566D01*
X124179712Y-74956315D01*
X124218408Y-74892832D01*
X124265301Y-74845843D01*
X124332518Y-74803401D01*
X124337870Y-74800521D01*
X124348540Y-74795402D01*
X124361602Y-74790858D01*
X124379045Y-74786857D01*
X124402861Y-74783363D01*
X124435040Y-74780342D01*
X124477573Y-74777759D01*
X124532451Y-74775581D01*
X124601663Y-74773774D01*
X124687202Y-74772302D01*
X124791057Y-74771131D01*
X124915219Y-74770228D01*
X125061679Y-74769559D01*
X125232427Y-74769087D01*
X125429454Y-74768780D01*
X125654752Y-74768604D01*
X125910309Y-74768523D01*
X126196594Y-74768504D01*
X126487572Y-74768462D01*
X126746253Y-74768406D01*
X126974571Y-74768439D01*
G37*
G36*
X175276687Y-79040409D02*
G01*
X175314057Y-79057253D01*
X175338639Y-79081240D01*
X175357210Y-79104264D01*
X175370651Y-79127162D01*
X175378283Y-79153603D01*
X175379429Y-79187256D01*
X175373411Y-79231791D01*
X175359551Y-79290876D01*
X175337171Y-79368181D01*
X175305595Y-79467376D01*
X175264144Y-79592128D01*
X175220266Y-79722107D01*
X175157980Y-79903369D01*
X175102981Y-80056140D01*
X175053021Y-80184806D01*
X175005849Y-80293752D01*
X174959219Y-80387364D01*
X174910881Y-80470028D01*
X174858586Y-80546130D01*
X174800086Y-80620055D01*
X174733133Y-80696189D01*
X174705509Y-80726073D01*
X174532964Y-80890659D01*
X174351218Y-81023871D01*
X174156823Y-81128081D01*
X174067003Y-81165125D01*
X174047571Y-81172326D01*
X174028393Y-81178573D01*
X174006997Y-81183940D01*
X173980910Y-81188504D01*
X173947660Y-81192340D01*
X173904775Y-81195525D01*
X173849783Y-81198133D01*
X173780212Y-81200241D01*
X173693589Y-81201925D01*
X173587443Y-81203260D01*
X173459301Y-81204322D01*
X173306691Y-81205187D01*
X173127142Y-81205930D01*
X172918180Y-81206628D01*
X172690296Y-81207317D01*
X172444771Y-81207965D01*
X172231121Y-81208320D01*
X172046991Y-81208346D01*
X171890026Y-81208005D01*
X171757871Y-81207261D01*
X171648170Y-81206075D01*
X171558567Y-81204413D01*
X171486709Y-81202235D01*
X171430238Y-81199506D01*
X171386800Y-81196188D01*
X171354040Y-81192244D01*
X171329602Y-81187638D01*
X171322416Y-81185818D01*
X171215954Y-81147408D01*
X171128729Y-81092326D01*
X171056184Y-81022618D01*
X170982135Y-80918151D01*
X170935294Y-80797240D01*
X170915061Y-80671631D01*
X170916097Y-80534665D01*
X170940084Y-80413462D01*
X170985020Y-80311040D01*
X171048904Y-80230418D01*
X171129735Y-80174612D01*
X171225513Y-80146643D01*
X171264888Y-80143946D01*
X171325630Y-80146930D01*
X171365910Y-80160251D01*
X171393258Y-80181977D01*
X171412485Y-80204550D01*
X171423663Y-80230514D01*
X171428459Y-80268776D01*
X171428541Y-80328241D01*
X171427470Y-80364690D01*
X171426497Y-80442437D01*
X171430745Y-80496036D01*
X171441614Y-80535359D01*
X171455528Y-80562367D01*
X171516248Y-80631626D01*
X171600965Y-80684962D01*
X171699554Y-80716656D01*
X171736874Y-80720391D01*
X171804497Y-80723659D01*
X171898717Y-80726464D01*
X172015828Y-80728810D01*
X172152126Y-80730702D01*
X172303904Y-80732143D01*
X172467456Y-80733138D01*
X172639078Y-80733689D01*
X172815062Y-80733803D01*
X172991704Y-80733482D01*
X173165297Y-80732731D01*
X173332136Y-80731553D01*
X173488516Y-80729954D01*
X173630730Y-80727936D01*
X173755072Y-80725504D01*
X173857838Y-80722662D01*
X173935321Y-80719415D01*
X173983816Y-80715765D01*
X173994541Y-80714136D01*
X174069807Y-80691925D01*
X174153623Y-80657642D01*
X174233159Y-80617317D01*
X174295588Y-80576978D01*
X174307749Y-80566953D01*
X174357171Y-80517058D01*
X174414006Y-80450742D01*
X174469656Y-80378936D01*
X174515524Y-80312570D01*
X174537195Y-80275228D01*
X174552292Y-80240128D01*
X174576500Y-80177524D01*
X174608019Y-80092358D01*
X174645048Y-79989574D01*
X174685789Y-79874113D01*
X174728442Y-79750919D01*
X174733567Y-79735955D01*
X174775743Y-79613587D01*
X174815613Y-79499618D01*
X174851500Y-79398711D01*
X174881726Y-79315530D01*
X174904612Y-79254740D01*
X174918482Y-79221002D01*
X174919706Y-79218517D01*
X174980271Y-79137286D01*
X175062832Y-79076825D01*
X175158936Y-79042255D01*
X175220736Y-79036069D01*
X175276687Y-79040409D01*
G37*
G36*
X157937676Y-74791327D02*
G01*
X157992461Y-74828379D01*
X158028985Y-74880539D01*
X158039083Y-74927496D01*
X158033428Y-74960374D01*
X158017580Y-75020415D01*
X157993218Y-75102670D01*
X157962018Y-75202195D01*
X157925658Y-75314043D01*
X157885815Y-75433266D01*
X157844167Y-75554920D01*
X157802392Y-75674058D01*
X157762165Y-75785732D01*
X157725165Y-75884998D01*
X157693070Y-75966908D01*
X157667556Y-76026516D01*
X157663420Y-76035266D01*
X157552354Y-76229692D01*
X157415343Y-76411126D01*
X157257082Y-76575100D01*
X157082263Y-76717146D01*
X156895579Y-76832793D01*
X156759611Y-76895944D01*
X156644137Y-76942224D01*
X155377560Y-76944988D01*
X155170473Y-76945243D01*
X154971981Y-76945106D01*
X154784954Y-76944602D01*
X154612263Y-76943757D01*
X154456778Y-76942596D01*
X154321370Y-76941145D01*
X154208909Y-76939429D01*
X154122265Y-76937474D01*
X154064308Y-76935304D01*
X154038652Y-76933114D01*
X153923082Y-76892811D01*
X153819756Y-76823258D01*
X153732313Y-76728333D01*
X153664388Y-76611919D01*
X153622136Y-76488652D01*
X153605106Y-76377949D01*
X153600768Y-76248642D01*
X153608752Y-76113767D01*
X153628686Y-75986363D01*
X153637476Y-75949501D01*
X153653443Y-75893823D01*
X153677821Y-75815263D01*
X153708757Y-75719250D01*
X153744398Y-75611211D01*
X153782889Y-75496573D01*
X153822377Y-75380764D01*
X153861008Y-75269210D01*
X153896929Y-75167340D01*
X153928286Y-75080582D01*
X153953225Y-75014361D01*
X153969893Y-74974107D01*
X153972239Y-74969324D01*
X154024185Y-74896376D01*
X154092146Y-74838601D01*
X154169096Y-74798708D01*
X154248010Y-74779409D01*
X154321861Y-74783416D01*
X154381215Y-74811502D01*
X154403987Y-74831176D01*
X154420604Y-74852201D01*
X154430501Y-74878139D01*
X154433115Y-74912553D01*
X154427882Y-74959005D01*
X154414237Y-75021056D01*
X154391616Y-75102269D01*
X154359456Y-75206207D01*
X154317193Y-75336431D01*
X154280513Y-75447494D01*
X154231683Y-75595863D01*
X154192950Y-75716301D01*
X154163122Y-75813195D01*
X154141004Y-75890930D01*
X154125404Y-75953892D01*
X154115127Y-76006466D01*
X154108982Y-76053039D01*
X154106305Y-76087711D01*
X154106830Y-76193869D01*
X154124673Y-76276094D01*
X154163667Y-76341917D01*
X154227641Y-76398866D01*
X154282142Y-76433374D01*
X154294707Y-76439370D01*
X154311774Y-76444535D01*
X154335903Y-76448943D01*
X154369652Y-76452673D01*
X154415583Y-76455801D01*
X154476254Y-76458405D01*
X154554224Y-76460560D01*
X154652054Y-76462345D01*
X154772303Y-76463835D01*
X154917530Y-76465107D01*
X155090295Y-76466240D01*
X155293157Y-76467308D01*
X155434039Y-76467967D01*
X155692642Y-76468831D01*
X155921571Y-76468949D01*
X156120163Y-76468330D01*
X156287756Y-76466979D01*
X156423690Y-76464905D01*
X156527302Y-76462115D01*
X156597930Y-76458616D01*
X156632152Y-76454977D01*
X156774819Y-76412198D01*
X156909644Y-76337412D01*
X157013881Y-76253218D01*
X157060445Y-76205952D01*
X157103500Y-76152269D01*
X157144786Y-76088528D01*
X157186043Y-76011088D01*
X157229010Y-75916306D01*
X157275428Y-75800542D01*
X157327037Y-75660154D01*
X157385576Y-75491500D01*
X157404353Y-75436024D01*
X157451735Y-75296234D01*
X157490308Y-75184910D01*
X157521782Y-75097943D01*
X157547868Y-75031224D01*
X157570275Y-74980644D01*
X157590715Y-74942093D01*
X157610898Y-74911462D01*
X157632534Y-74884641D01*
X157635049Y-74881778D01*
X157694457Y-74834075D01*
X157772199Y-74797393D01*
X157852634Y-74778574D01*
X157873520Y-74777438D01*
X157937676Y-74791327D01*
G37*
G36*
X128240609Y-76134963D02*
G01*
X128719407Y-76134963D01*
X128735931Y-76241047D01*
X128777475Y-76328731D01*
X128843693Y-76396106D01*
X128934239Y-76441261D01*
X128954095Y-76447152D01*
X128987358Y-76451468D01*
X129051215Y-76455397D01*
X129142032Y-76458930D01*
X129256172Y-76462054D01*
X129390000Y-76464760D01*
X129539881Y-76467035D01*
X129702180Y-76468870D01*
X129873260Y-76470254D01*
X130049488Y-76471175D01*
X130227227Y-76471622D01*
X130402842Y-76471585D01*
X130572697Y-76471053D01*
X130733158Y-76470014D01*
X130880589Y-76468459D01*
X131011354Y-76466375D01*
X131121819Y-76463753D01*
X131208347Y-76460580D01*
X131267304Y-76456847D01*
X131288869Y-76454162D01*
X131428968Y-76410819D01*
X131560137Y-76337092D01*
X131678115Y-76236510D01*
X131778639Y-76112600D01*
X131846840Y-75992291D01*
X131910848Y-75834265D01*
X131945736Y-75694168D01*
X131951491Y-75571919D01*
X131928104Y-75467437D01*
X131875565Y-75380638D01*
X131793863Y-75311443D01*
X131756740Y-75290539D01*
X131672034Y-75247749D01*
X130542385Y-75247749D01*
X130317051Y-75247794D01*
X130123309Y-75247975D01*
X129958518Y-75248362D01*
X129820037Y-75249025D01*
X129705226Y-75250033D01*
X129611444Y-75251455D01*
X129536052Y-75253363D01*
X129476409Y-75255824D01*
X129429873Y-75258910D01*
X129393806Y-75262689D01*
X129365565Y-75267231D01*
X129342512Y-75272607D01*
X129322005Y-75278885D01*
X129318598Y-75280041D01*
X129162272Y-75350493D01*
X129028219Y-75446936D01*
X128916497Y-75569320D01*
X128827161Y-75717595D01*
X128823413Y-75725412D01*
X128762803Y-75875236D01*
X128728249Y-76012389D01*
X128719407Y-76134963D01*
X128240609Y-76134963D01*
X128241210Y-76122812D01*
X128259001Y-76000690D01*
X128264705Y-75975175D01*
X128318079Y-75809875D01*
X128397827Y-75638747D01*
X128499050Y-75469881D01*
X128616845Y-75311366D01*
X128746314Y-75171290D01*
X128758952Y-75159321D01*
X128850876Y-75080049D01*
X128954035Y-75002071D01*
X129058266Y-74932451D01*
X129153404Y-74878250D01*
X129185439Y-74862997D01*
X129225272Y-74845419D01*
X129261469Y-74830207D01*
X129296730Y-74817177D01*
X129333754Y-74806142D01*
X129375240Y-74796917D01*
X129423888Y-74789319D01*
X129482396Y-74783161D01*
X129553463Y-74778259D01*
X129639791Y-74774428D01*
X129744076Y-74771483D01*
X129869020Y-74769237D01*
X130017320Y-74767508D01*
X130191677Y-74766109D01*
X130394789Y-74764855D01*
X130629356Y-74763562D01*
X130636522Y-74763523D01*
X130883228Y-74762281D01*
X131098204Y-74761515D01*
X131283949Y-74761340D01*
X131442963Y-74761869D01*
X131577745Y-74763216D01*
X131690796Y-74765494D01*
X131784615Y-74768816D01*
X131861701Y-74773298D01*
X131924555Y-74779052D01*
X131975675Y-74786191D01*
X132017562Y-74794830D01*
X132052714Y-74805082D01*
X132083633Y-74817061D01*
X132112293Y-74830616D01*
X132223280Y-74905325D01*
X132311858Y-75005067D01*
X132377277Y-75128367D01*
X132418786Y-75273749D01*
X132435634Y-75439737D01*
X132435990Y-75467117D01*
X132427419Y-75621577D01*
X132399310Y-75767918D01*
X132348976Y-75917390D01*
X132304206Y-76019155D01*
X132192742Y-76218566D01*
X132055599Y-76403609D01*
X131897059Y-76570162D01*
X131721404Y-76714101D01*
X131532914Y-76831303D01*
X131393843Y-76895944D01*
X131278369Y-76942224D01*
X130011792Y-76944988D01*
X129804705Y-76945243D01*
X129606213Y-76945106D01*
X129419186Y-76944602D01*
X129246495Y-76943757D01*
X129091010Y-76942596D01*
X128955602Y-76941145D01*
X128843141Y-76939429D01*
X128756496Y-76937474D01*
X128698540Y-76935304D01*
X128672884Y-76933114D01*
X128557350Y-76892822D01*
X128454042Y-76823300D01*
X128366628Y-76728462D01*
X128298775Y-76612224D01*
X128256514Y-76488652D01*
X128239748Y-76380502D01*
X128234719Y-76253986D01*
X128240609Y-76134963D01*
G37*
G36*
X132742092Y-80396823D02*
G01*
X133220890Y-80396823D01*
X133237414Y-80502907D01*
X133278957Y-80590591D01*
X133345175Y-80657965D01*
X133435721Y-80703121D01*
X133455577Y-80709012D01*
X133488840Y-80713328D01*
X133552698Y-80717257D01*
X133643514Y-80720790D01*
X133757654Y-80723914D01*
X133891482Y-80726620D01*
X134041363Y-80728895D01*
X134203662Y-80730730D01*
X134374743Y-80732114D01*
X134550970Y-80733035D01*
X134728709Y-80733482D01*
X134904324Y-80733445D01*
X135074180Y-80732913D01*
X135234641Y-80731874D01*
X135382072Y-80730319D01*
X135512837Y-80728235D01*
X135623301Y-80725613D01*
X135709830Y-80722440D01*
X135768786Y-80718707D01*
X135790352Y-80716022D01*
X135930450Y-80672679D01*
X136061619Y-80598952D01*
X136179597Y-80498370D01*
X136280122Y-80374460D01*
X136348323Y-80254151D01*
X136412331Y-80096125D01*
X136447218Y-79956028D01*
X136452974Y-79833779D01*
X136429587Y-79729296D01*
X136377048Y-79642498D01*
X136295345Y-79573303D01*
X136258222Y-79552399D01*
X136173517Y-79509609D01*
X135043867Y-79509609D01*
X134818534Y-79509654D01*
X134624792Y-79509835D01*
X134460000Y-79510222D01*
X134321519Y-79510885D01*
X134206708Y-79511892D01*
X134112927Y-79513315D01*
X134037535Y-79515222D01*
X133977891Y-79517684D01*
X133931356Y-79520770D01*
X133895288Y-79524549D01*
X133867048Y-79529091D01*
X133843995Y-79534466D01*
X133823488Y-79540745D01*
X133820080Y-79541901D01*
X133663754Y-79612353D01*
X133529702Y-79708796D01*
X133417980Y-79831180D01*
X133328643Y-79979455D01*
X133324896Y-79987272D01*
X133264285Y-80137096D01*
X133229732Y-80274249D01*
X133220890Y-80396823D01*
X132742092Y-80396823D01*
X132742693Y-80384672D01*
X132760484Y-80262550D01*
X132766187Y-80237035D01*
X132819561Y-80071735D01*
X132899310Y-79900607D01*
X133000532Y-79731741D01*
X133118328Y-79573225D01*
X133247796Y-79433150D01*
X133260435Y-79421180D01*
X133352358Y-79341908D01*
X133455518Y-79263931D01*
X133559749Y-79194311D01*
X133654886Y-79140110D01*
X133686921Y-79124857D01*
X133726754Y-79107279D01*
X133762952Y-79092067D01*
X133798213Y-79079036D01*
X133835237Y-79068001D01*
X133876723Y-79058777D01*
X133925370Y-79051179D01*
X133983878Y-79045021D01*
X134054946Y-79040119D01*
X134141273Y-79036288D01*
X134245559Y-79033342D01*
X134370502Y-79031097D01*
X134518802Y-79029368D01*
X134693159Y-79027969D01*
X134896272Y-79026715D01*
X135130839Y-79025422D01*
X135138005Y-79025383D01*
X135384711Y-79024140D01*
X135599686Y-79023375D01*
X135785431Y-79023200D01*
X135944445Y-79023729D01*
X136079228Y-79025075D01*
X136192279Y-79027353D01*
X136286097Y-79030676D01*
X136363184Y-79035158D01*
X136426037Y-79040911D01*
X136477157Y-79048051D01*
X136519044Y-79056690D01*
X136554197Y-79066942D01*
X136585115Y-79078921D01*
X136613776Y-79092476D01*
X136724762Y-79167185D01*
X136813340Y-79266927D01*
X136878759Y-79390227D01*
X136920268Y-79535609D01*
X136937117Y-79701597D01*
X136937472Y-79728977D01*
X136928902Y-79883437D01*
X136900792Y-80029778D01*
X136850458Y-80179250D01*
X136805689Y-80281015D01*
X136694225Y-80480426D01*
X136557082Y-80665469D01*
X136398542Y-80832022D01*
X136222886Y-80975961D01*
X136034396Y-81093163D01*
X135895326Y-81157803D01*
X135779851Y-81204083D01*
X134513274Y-81206848D01*
X134306187Y-81207103D01*
X134107695Y-81206965D01*
X133920668Y-81206462D01*
X133747977Y-81205616D01*
X133592493Y-81204456D01*
X133457084Y-81203005D01*
X133344623Y-81201289D01*
X133257979Y-81199333D01*
X133200022Y-81197164D01*
X133174367Y-81194974D01*
X133058832Y-81154682D01*
X132955524Y-81085160D01*
X132868111Y-80990322D01*
X132800258Y-80874083D01*
X132757997Y-80750512D01*
X132741230Y-80642362D01*
X132736202Y-80515845D01*
X132742092Y-80396823D01*
G37*
G36*
X166391957Y-80396823D02*
G01*
X166870755Y-80396823D01*
X166887279Y-80502907D01*
X166928823Y-80590591D01*
X166995040Y-80657965D01*
X167085586Y-80703121D01*
X167105443Y-80709012D01*
X167138706Y-80713328D01*
X167202563Y-80717257D01*
X167293379Y-80720790D01*
X167407519Y-80723914D01*
X167541348Y-80726620D01*
X167691229Y-80728895D01*
X167853527Y-80730730D01*
X168024608Y-80732114D01*
X168200836Y-80733035D01*
X168378575Y-80733482D01*
X168554190Y-80733445D01*
X168724045Y-80732913D01*
X168884506Y-80731874D01*
X169031937Y-80730319D01*
X169162702Y-80728235D01*
X169273167Y-80725613D01*
X169359695Y-80722440D01*
X169418651Y-80718707D01*
X169440217Y-80716022D01*
X169580315Y-80672679D01*
X169711485Y-80598952D01*
X169829463Y-80498370D01*
X169929987Y-80374460D01*
X169998188Y-80254151D01*
X170062196Y-80096125D01*
X170097083Y-79956028D01*
X170102839Y-79833779D01*
X170079452Y-79729296D01*
X170026913Y-79642498D01*
X169945210Y-79573303D01*
X169908087Y-79552399D01*
X169823382Y-79509609D01*
X168693733Y-79509609D01*
X168468399Y-79509654D01*
X168274657Y-79509835D01*
X168109865Y-79510222D01*
X167971385Y-79510885D01*
X167856574Y-79511892D01*
X167762792Y-79513315D01*
X167687400Y-79515222D01*
X167627756Y-79517684D01*
X167581221Y-79520770D01*
X167545153Y-79524549D01*
X167516913Y-79529091D01*
X167493860Y-79534466D01*
X167473353Y-79540745D01*
X167469946Y-79541901D01*
X167313619Y-79612353D01*
X167179567Y-79708796D01*
X167067845Y-79831180D01*
X166978509Y-79979455D01*
X166974761Y-79987272D01*
X166914150Y-80137096D01*
X166879597Y-80274249D01*
X166870755Y-80396823D01*
X166391957Y-80396823D01*
X166392558Y-80384672D01*
X166410349Y-80262550D01*
X166416053Y-80237035D01*
X166469427Y-80071735D01*
X166549175Y-79900607D01*
X166650397Y-79731741D01*
X166768193Y-79573225D01*
X166897662Y-79433150D01*
X166910300Y-79421180D01*
X167002223Y-79341908D01*
X167105383Y-79263931D01*
X167209614Y-79194311D01*
X167304751Y-79140110D01*
X167336786Y-79124857D01*
X167376620Y-79107279D01*
X167412817Y-79092067D01*
X167448078Y-79079036D01*
X167485102Y-79068001D01*
X167526588Y-79058777D01*
X167575235Y-79051179D01*
X167633743Y-79045021D01*
X167704811Y-79040119D01*
X167791138Y-79036288D01*
X167895424Y-79033342D01*
X168020367Y-79031097D01*
X168168668Y-79029368D01*
X168343024Y-79027969D01*
X168546137Y-79026715D01*
X168780704Y-79025422D01*
X168787870Y-79025383D01*
X169034576Y-79024140D01*
X169249551Y-79023375D01*
X169435296Y-79023200D01*
X169594310Y-79023729D01*
X169729093Y-79025075D01*
X169842144Y-79027353D01*
X169935963Y-79030676D01*
X170013049Y-79035158D01*
X170075902Y-79040911D01*
X170127023Y-79048051D01*
X170168909Y-79056690D01*
X170204062Y-79066942D01*
X170234980Y-79078921D01*
X170263641Y-79092476D01*
X170374628Y-79167185D01*
X170463206Y-79266927D01*
X170528624Y-79390227D01*
X170570133Y-79535609D01*
X170586982Y-79701597D01*
X170587338Y-79728977D01*
X170578767Y-79883437D01*
X170550657Y-80029778D01*
X170500324Y-80179250D01*
X170455554Y-80281015D01*
X170344090Y-80480426D01*
X170206947Y-80665469D01*
X170048407Y-80832022D01*
X169872751Y-80975961D01*
X169684261Y-81093163D01*
X169545191Y-81157803D01*
X169429716Y-81204083D01*
X168163140Y-81206848D01*
X167956052Y-81207103D01*
X167757560Y-81206965D01*
X167570534Y-81206462D01*
X167397843Y-81205616D01*
X167242358Y-81204456D01*
X167106950Y-81203005D01*
X166994488Y-81201289D01*
X166907844Y-81199333D01*
X166849887Y-81197164D01*
X166824232Y-81194974D01*
X166708697Y-81154682D01*
X166605390Y-81085160D01*
X166517976Y-80990322D01*
X166450123Y-80874083D01*
X166407862Y-80750512D01*
X166391096Y-80642362D01*
X166386067Y-80515845D01*
X166391957Y-80396823D01*
G37*
G36*
X161075284Y-74763016D02*
G01*
X161285162Y-74763867D01*
X161463822Y-74765243D01*
X161610686Y-74767141D01*
X161725173Y-74769555D01*
X161806702Y-74772481D01*
X161854694Y-74775915D01*
X161859997Y-74776628D01*
X162002478Y-74810222D01*
X162119809Y-74864623D01*
X162215136Y-74942525D01*
X162291605Y-75046621D01*
X162352363Y-75179606D01*
X162361646Y-75206143D01*
X162383811Y-75304950D01*
X162393369Y-75424608D01*
X162390465Y-75554202D01*
X162375243Y-75682814D01*
X162354102Y-75778342D01*
X162281022Y-75981366D01*
X162179002Y-76177151D01*
X162051941Y-76361283D01*
X161903738Y-76529351D01*
X161738291Y-76676943D01*
X161559499Y-76799645D01*
X161371262Y-76893047D01*
X161367916Y-76894390D01*
X161248315Y-76942224D01*
X159656536Y-76946383D01*
X159386309Y-76947057D01*
X159148214Y-76947559D01*
X158940153Y-76947856D01*
X158760028Y-76947915D01*
X158605739Y-76947704D01*
X158475188Y-76947190D01*
X158366275Y-76946341D01*
X158276903Y-76945123D01*
X158204972Y-76943506D01*
X158148384Y-76941454D01*
X158105039Y-76938938D01*
X158072840Y-76935923D01*
X158049687Y-76932377D01*
X158033481Y-76928267D01*
X158022124Y-76923562D01*
X158017558Y-76920945D01*
X157988620Y-76900233D01*
X157967664Y-76876836D01*
X157955151Y-76847199D01*
X157951543Y-76807768D01*
X157957301Y-76754989D01*
X157972886Y-76685309D01*
X157998760Y-76595173D01*
X158035382Y-76481028D01*
X158083215Y-76339319D01*
X158099002Y-76293278D01*
X158150856Y-76142973D01*
X158193607Y-76021528D01*
X158229098Y-75925370D01*
X158259171Y-75850925D01*
X158285669Y-75794618D01*
X158310435Y-75752877D01*
X158335311Y-75722127D01*
X158362140Y-75698793D01*
X158392765Y-75679302D01*
X158424191Y-75662557D01*
X158504984Y-75634647D01*
X158586925Y-75629484D01*
X158658629Y-75647303D01*
X158676715Y-75657343D01*
X158705058Y-75679594D01*
X158723928Y-75705952D01*
X158732942Y-75740599D01*
X158731716Y-75787716D01*
X158719865Y-75851483D01*
X158697005Y-75936081D01*
X158662753Y-76045692D01*
X158632655Y-76136956D01*
X158520973Y-76471536D01*
X159835239Y-76471536D01*
X160086686Y-76471307D01*
X160318226Y-76470634D01*
X160528125Y-76469537D01*
X160714647Y-76468039D01*
X160876058Y-76466159D01*
X161010623Y-76463920D01*
X161116607Y-76461343D01*
X161192275Y-76458448D01*
X161235891Y-76455257D01*
X161241700Y-76454394D01*
X161380958Y-76411700D01*
X161510665Y-76339613D01*
X161627547Y-76242391D01*
X161728331Y-76124293D01*
X161809744Y-75989577D01*
X161868512Y-75842500D01*
X161901362Y-75687322D01*
X161907277Y-75588543D01*
X161894246Y-75480379D01*
X161854172Y-75392665D01*
X161785585Y-75323090D01*
X161710444Y-75279513D01*
X161697128Y-75274034D01*
X161680994Y-75269211D01*
X161659850Y-75264993D01*
X161631507Y-75261330D01*
X161593772Y-75258171D01*
X161544456Y-75255464D01*
X161481367Y-75253160D01*
X161402314Y-75251208D01*
X161305107Y-75249556D01*
X161187554Y-75248155D01*
X161047465Y-75246953D01*
X160882649Y-75245899D01*
X160690914Y-75244944D01*
X160470070Y-75244035D01*
X160217926Y-75243124D01*
X160125203Y-75242806D01*
X158608426Y-75237649D01*
X158567973Y-75194589D01*
X158535586Y-75136153D01*
X158531154Y-75062762D01*
X158554725Y-74979291D01*
X158565561Y-74956315D01*
X158604257Y-74892832D01*
X158651150Y-74845843D01*
X158718368Y-74803401D01*
X158723719Y-74800521D01*
X158735502Y-74794903D01*
X158749955Y-74789968D01*
X158769289Y-74785664D01*
X158795712Y-74781936D01*
X158831433Y-74778733D01*
X158878660Y-74776002D01*
X158939603Y-74773690D01*
X159016471Y-74771743D01*
X159111473Y-74770110D01*
X159226816Y-74768737D01*
X159364711Y-74767571D01*
X159527366Y-74766560D01*
X159716990Y-74765651D01*
X159935793Y-74764790D01*
X160185981Y-74763925D01*
X160264150Y-74763668D01*
X160564198Y-74762912D01*
X160834770Y-74762697D01*
X161075284Y-74763016D01*
G37*
G36*
X136988251Y-74779393D02*
G01*
X137030302Y-74798803D01*
X137053171Y-74818822D01*
X137087903Y-74876171D01*
X137097409Y-74947200D01*
X137081622Y-75022374D01*
X137055023Y-75073028D01*
X137015641Y-75115249D01*
X136948851Y-75169215D01*
X136858499Y-75232701D01*
X136748427Y-75303481D01*
X136622479Y-75379327D01*
X136484499Y-75458014D01*
X136338330Y-75537315D01*
X136187817Y-75615005D01*
X136036803Y-75688857D01*
X135889132Y-75756645D01*
X135831199Y-75781846D01*
X135767887Y-75809674D01*
X135716860Y-75833534D01*
X135686222Y-75849578D01*
X135681583Y-75852854D01*
X135690254Y-75866296D01*
X135722905Y-75894364D01*
X135774669Y-75933252D01*
X135840678Y-75979158D01*
X135857882Y-75990652D01*
X135971671Y-76070324D01*
X136083651Y-76156509D01*
X136190297Y-76245777D01*
X136288083Y-76334695D01*
X136373485Y-76419833D01*
X136442976Y-76497758D01*
X136493032Y-76565040D01*
X136520126Y-76618248D01*
X136523969Y-76638966D01*
X136509599Y-76708891D01*
X136469560Y-76781765D01*
X136410598Y-76849537D01*
X136339459Y-76904155D01*
X136277334Y-76933295D01*
X136227518Y-76945975D01*
X136181805Y-76946980D01*
X136134917Y-76933854D01*
X136081578Y-76904143D01*
X136016511Y-76855389D01*
X135934441Y-76785137D01*
X135907653Y-76761242D01*
X135723899Y-76606844D01*
X135537810Y-76470435D01*
X135354161Y-76355024D01*
X135177726Y-76263619D01*
X135018194Y-76200803D01*
X134947977Y-76178449D01*
X134885745Y-76159937D01*
X134827328Y-76144863D01*
X134768561Y-76132820D01*
X134705274Y-76123405D01*
X134633301Y-76116212D01*
X134548475Y-76110836D01*
X134446627Y-76106871D01*
X134323590Y-76103914D01*
X134175196Y-76101558D01*
X133997279Y-76099400D01*
X133971878Y-76099114D01*
X133276438Y-76091315D01*
X133177894Y-76388400D01*
X133144284Y-76488020D01*
X133112082Y-76580367D01*
X133083659Y-76658873D01*
X133061386Y-76716965D01*
X133049059Y-76745391D01*
X132994801Y-76825393D01*
X132925319Y-76887576D01*
X132847135Y-76929065D01*
X132766772Y-76946983D01*
X132690752Y-76938453D01*
X132651790Y-76920609D01*
X132606893Y-76879833D01*
X132586579Y-76824416D01*
X132585203Y-76769635D01*
X132591292Y-76743481D01*
X132607423Y-76688725D01*
X132632340Y-76609078D01*
X132664782Y-76508250D01*
X132703492Y-76389953D01*
X132747212Y-76257897D01*
X132794682Y-76115792D01*
X132844644Y-75967351D01*
X132895841Y-75816282D01*
X132947013Y-75666297D01*
X132996902Y-75521106D01*
X133044251Y-75384421D01*
X133087799Y-75259951D01*
X133126289Y-75151408D01*
X133158463Y-75062503D01*
X133183062Y-74996945D01*
X133198828Y-74958446D01*
X133200884Y-74954175D01*
X133262501Y-74867863D01*
X133343827Y-74808240D01*
X133440901Y-74777764D01*
X133490692Y-74774209D01*
X133566702Y-74787172D01*
X133621074Y-74823976D01*
X133650454Y-74881498D01*
X133654623Y-74926923D01*
X133648438Y-74963360D01*
X133632634Y-75025617D01*
X133609063Y-75107261D01*
X133579578Y-75201859D01*
X133547941Y-75297385D01*
X133515282Y-75393584D01*
X133486800Y-75478180D01*
X133464208Y-75546029D01*
X133449217Y-75591989D01*
X133443540Y-75610918D01*
X133443530Y-75611042D01*
X133460061Y-75612402D01*
X133507316Y-75613324D01*
X133581792Y-75613808D01*
X133679983Y-75613858D01*
X133798387Y-75613477D01*
X133933498Y-75612666D01*
X134081813Y-75611429D01*
X134175235Y-75610488D01*
X134357382Y-75608465D01*
X134509441Y-75606422D01*
X134635554Y-75604019D01*
X134739863Y-75600916D01*
X134826510Y-75596774D01*
X134899638Y-75591251D01*
X134963388Y-75584009D01*
X135021903Y-75574708D01*
X135079325Y-75563007D01*
X135139796Y-75548566D01*
X135207458Y-75531046D01*
X135236285Y-75523413D01*
X135412789Y-75469514D01*
X135611617Y-75396075D01*
X135828425Y-75305013D01*
X136058864Y-75198245D01*
X136298589Y-75077688D01*
X136528713Y-74953393D01*
X136638143Y-74892768D01*
X136722693Y-74847312D01*
X136787041Y-74814931D01*
X136835865Y-74793531D01*
X136873846Y-74781019D01*
X136905662Y-74775301D01*
X136929121Y-74774209D01*
X136988251Y-74779393D01*
G37*
G36*
X140834225Y-79030361D02*
G01*
X141013453Y-79030702D01*
X141166801Y-79031429D01*
X141296357Y-79032669D01*
X141404207Y-79034553D01*
X141492439Y-79037208D01*
X141563142Y-79040763D01*
X141618403Y-79045347D01*
X141660310Y-79051088D01*
X141690951Y-79058116D01*
X141712413Y-79066558D01*
X141726783Y-79076544D01*
X141736151Y-79088202D01*
X141742603Y-79101661D01*
X141748228Y-79117050D01*
X141753613Y-79131026D01*
X141767018Y-79205246D01*
X141747905Y-79283378D01*
X141697379Y-79362904D01*
X141617972Y-79440155D01*
X141553321Y-79492493D01*
X140018742Y-79501483D01*
X139754610Y-79503045D01*
X139522489Y-79504480D01*
X139320159Y-79505851D01*
X139145399Y-79507219D01*
X138995991Y-79508645D01*
X138869712Y-79510192D01*
X138764344Y-79511922D01*
X138677666Y-79513895D01*
X138607458Y-79516173D01*
X138551500Y-79518818D01*
X138507571Y-79521893D01*
X138473452Y-79525458D01*
X138446921Y-79529575D01*
X138425760Y-79534306D01*
X138407748Y-79539712D01*
X138390665Y-79545856D01*
X138388210Y-79546783D01*
X138233162Y-79622308D01*
X138101329Y-79722924D01*
X137992257Y-79849051D01*
X137911208Y-79988854D01*
X137855908Y-80125446D01*
X137820959Y-80256583D01*
X137807164Y-80376805D01*
X137815326Y-80480651D01*
X137831210Y-80533101D01*
X137878499Y-80605907D01*
X137950068Y-80666424D01*
X138036301Y-80707168D01*
X138064317Y-80714572D01*
X138098217Y-80718454D01*
X138161892Y-80721872D01*
X138255875Y-80724833D01*
X138380698Y-80727344D01*
X138536894Y-80729410D01*
X138724994Y-80731040D01*
X138945532Y-80732238D01*
X139199041Y-80733012D01*
X139486052Y-80733369D01*
X139599232Y-80733396D01*
X139863953Y-80733378D01*
X140096568Y-80733421D01*
X140299202Y-80733668D01*
X140473980Y-80734262D01*
X140623029Y-80735346D01*
X140748473Y-80737065D01*
X140852437Y-80739561D01*
X140937048Y-80742978D01*
X141004430Y-80747460D01*
X141056709Y-80753150D01*
X141096011Y-80760190D01*
X141124461Y-80768726D01*
X141144183Y-80778900D01*
X141157305Y-80790855D01*
X141165950Y-80804735D01*
X141172245Y-80820684D01*
X141178315Y-80838844D01*
X141178711Y-80839985D01*
X141186824Y-80911973D01*
X141167331Y-80989277D01*
X141124437Y-81064567D01*
X141062349Y-81130514D01*
X140985269Y-81179787D01*
X140983232Y-81180720D01*
X140970073Y-81186059D01*
X140954147Y-81190748D01*
X140933293Y-81194826D01*
X140905351Y-81198333D01*
X140868163Y-81201309D01*
X140819567Y-81203791D01*
X140757404Y-81205820D01*
X140679514Y-81207436D01*
X140583737Y-81208676D01*
X140467912Y-81209581D01*
X140329881Y-81210190D01*
X140167482Y-81210541D01*
X139978557Y-81210675D01*
X139760944Y-81210631D01*
X139512485Y-81210448D01*
X139357075Y-81210297D01*
X139127805Y-81209932D01*
X138907406Y-81209327D01*
X138698406Y-81208503D01*
X138503331Y-81207483D01*
X138324709Y-81206287D01*
X138165065Y-81204937D01*
X138026927Y-81203454D01*
X137912821Y-81201861D01*
X137825276Y-81200177D01*
X137766816Y-81198426D01*
X137739970Y-81196627D01*
X137739622Y-81196561D01*
X137623467Y-81156923D01*
X137524942Y-81090634D01*
X137444705Y-81000772D01*
X137383413Y-80890413D01*
X137341721Y-80762636D01*
X137320288Y-80620516D01*
X137319771Y-80467131D01*
X137340825Y-80305558D01*
X137384107Y-80138874D01*
X137450275Y-79970155D01*
X137469322Y-79930331D01*
X137568689Y-79758176D01*
X137690828Y-79593173D01*
X137830219Y-79440843D01*
X137981344Y-79306709D01*
X138138681Y-79196294D01*
X138274791Y-79124499D01*
X138310129Y-79108794D01*
X138342291Y-79094938D01*
X138373548Y-79082817D01*
X138406171Y-79072315D01*
X138442430Y-79063315D01*
X138484598Y-79055702D01*
X138534945Y-79049360D01*
X138595742Y-79044173D01*
X138669260Y-79040025D01*
X138757772Y-79036801D01*
X138863547Y-79034385D01*
X138988857Y-79032660D01*
X139135973Y-79031511D01*
X139307166Y-79030823D01*
X139504707Y-79030478D01*
X139730868Y-79030363D01*
X139987920Y-79030359D01*
X140120378Y-79030364D01*
X140389775Y-79030321D01*
X140627028Y-79030277D01*
X140834225Y-79030361D01*
G37*
G36*
X146076796Y-79041253D02*
G01*
X146118847Y-79060663D01*
X146141715Y-79080682D01*
X146176447Y-79138031D01*
X146185954Y-79209060D01*
X146170166Y-79284234D01*
X146143568Y-79334888D01*
X146104185Y-79377109D01*
X146037396Y-79431075D01*
X145947043Y-79494561D01*
X145836971Y-79565340D01*
X145711023Y-79641187D01*
X145573043Y-79719874D01*
X145426875Y-79799175D01*
X145276361Y-79876865D01*
X145125347Y-79950717D01*
X144977676Y-80018504D01*
X144919743Y-80043706D01*
X144856431Y-80071534D01*
X144805404Y-80095394D01*
X144774766Y-80111438D01*
X144770127Y-80114713D01*
X144778798Y-80128156D01*
X144811449Y-80156223D01*
X144863213Y-80195112D01*
X144929223Y-80241017D01*
X144946426Y-80252512D01*
X145060215Y-80332184D01*
X145172195Y-80418369D01*
X145278841Y-80507637D01*
X145376628Y-80596555D01*
X145462030Y-80681693D01*
X145531521Y-80759618D01*
X145581576Y-80826900D01*
X145608671Y-80880108D01*
X145612513Y-80900826D01*
X145598144Y-80970751D01*
X145558105Y-81043625D01*
X145499143Y-81111397D01*
X145428004Y-81166015D01*
X145365878Y-81195155D01*
X145316063Y-81207835D01*
X145270349Y-81208840D01*
X145223461Y-81195714D01*
X145170122Y-81166002D01*
X145105056Y-81117249D01*
X145022985Y-81046997D01*
X144996197Y-81023102D01*
X144812444Y-80868704D01*
X144626355Y-80732295D01*
X144442706Y-80616884D01*
X144266271Y-80525479D01*
X144106738Y-80462663D01*
X144036522Y-80440309D01*
X143974289Y-80421797D01*
X143915873Y-80406723D01*
X143857105Y-80394680D01*
X143793819Y-80385265D01*
X143721846Y-80378072D01*
X143637019Y-80372695D01*
X143535171Y-80368731D01*
X143412134Y-80365774D01*
X143263741Y-80363418D01*
X143085823Y-80361259D01*
X143060422Y-80360973D01*
X142364983Y-80353175D01*
X142266439Y-80650260D01*
X142232828Y-80749880D01*
X142200626Y-80842227D01*
X142172203Y-80920732D01*
X142149930Y-80978825D01*
X142137603Y-81007250D01*
X142083345Y-81087252D01*
X142013863Y-81149436D01*
X141935680Y-81190925D01*
X141855317Y-81208843D01*
X141779296Y-81200313D01*
X141740335Y-81182469D01*
X141695438Y-81141692D01*
X141675124Y-81086276D01*
X141673747Y-81031495D01*
X141679836Y-81005340D01*
X141695968Y-80950584D01*
X141720884Y-80870937D01*
X141753327Y-80770110D01*
X141792037Y-80651813D01*
X141835756Y-80519757D01*
X141883226Y-80377652D01*
X141933189Y-80229210D01*
X141984385Y-80078141D01*
X142035558Y-79928156D01*
X142085447Y-79782966D01*
X142132795Y-79646280D01*
X142176343Y-79521811D01*
X142214834Y-79413268D01*
X142247008Y-79324363D01*
X142271607Y-79258805D01*
X142287372Y-79220306D01*
X142289428Y-79216035D01*
X142351046Y-79129723D01*
X142432372Y-79070099D01*
X142529446Y-79039624D01*
X142579237Y-79036069D01*
X142655247Y-79049031D01*
X142709619Y-79085836D01*
X142738999Y-79143358D01*
X142743168Y-79188782D01*
X142736983Y-79225220D01*
X142721179Y-79287477D01*
X142697608Y-79369121D01*
X142668123Y-79463719D01*
X142636486Y-79559245D01*
X142603827Y-79655444D01*
X142575345Y-79740040D01*
X142552753Y-79807889D01*
X142537762Y-79853849D01*
X142532084Y-79872777D01*
X142532075Y-79872901D01*
X142548605Y-79874262D01*
X142595860Y-79875184D01*
X142670336Y-79875668D01*
X142768528Y-79875718D01*
X142886931Y-79875336D01*
X143022043Y-79874526D01*
X143170357Y-79873289D01*
X143263780Y-79872348D01*
X143445927Y-79870325D01*
X143597986Y-79868282D01*
X143724098Y-79865879D01*
X143828407Y-79862776D01*
X143915055Y-79858633D01*
X143988182Y-79853111D01*
X144051933Y-79845869D01*
X144110448Y-79836568D01*
X144167870Y-79824867D01*
X144228341Y-79810426D01*
X144296003Y-79792906D01*
X144324830Y-79785273D01*
X144501333Y-79731374D01*
X144700162Y-79657935D01*
X144916969Y-79566873D01*
X145147409Y-79460105D01*
X145387133Y-79339548D01*
X145617257Y-79215253D01*
X145726688Y-79154628D01*
X145811238Y-79109172D01*
X145875585Y-79076791D01*
X145924410Y-79055391D01*
X145962391Y-79042879D01*
X145994207Y-79037160D01*
X146017665Y-79036069D01*
X146076796Y-79041253D01*
G37*
G36*
X183572634Y-79030361D02*
G01*
X183751863Y-79030702D01*
X183905211Y-79031429D01*
X184034766Y-79032669D01*
X184142616Y-79034553D01*
X184230849Y-79037208D01*
X184301552Y-79040763D01*
X184356813Y-79045347D01*
X184398720Y-79051088D01*
X184429361Y-79058116D01*
X184450822Y-79066558D01*
X184465193Y-79076544D01*
X184474561Y-79088202D01*
X184481013Y-79101661D01*
X184486637Y-79117050D01*
X184492023Y-79131026D01*
X184505428Y-79205246D01*
X184486315Y-79283378D01*
X184435789Y-79362904D01*
X184356382Y-79440155D01*
X184291731Y-79492493D01*
X182757152Y-79501483D01*
X182493020Y-79503045D01*
X182260899Y-79504480D01*
X182058569Y-79505851D01*
X181883809Y-79507219D01*
X181734400Y-79508645D01*
X181608122Y-79510192D01*
X181502754Y-79511922D01*
X181416076Y-79513895D01*
X181345868Y-79516173D01*
X181289909Y-79518818D01*
X181245981Y-79521893D01*
X181211861Y-79525458D01*
X181185331Y-79529575D01*
X181164170Y-79534306D01*
X181146158Y-79539712D01*
X181129074Y-79545856D01*
X181126619Y-79546783D01*
X180971572Y-79622308D01*
X180839739Y-79722924D01*
X180730667Y-79849051D01*
X180649618Y-79988854D01*
X180594318Y-80125446D01*
X180559369Y-80256583D01*
X180545574Y-80376805D01*
X180553735Y-80480651D01*
X180569620Y-80533101D01*
X180616909Y-80605907D01*
X180688477Y-80666424D01*
X180774711Y-80707168D01*
X180802727Y-80714572D01*
X180836627Y-80718454D01*
X180900302Y-80721872D01*
X180994285Y-80724833D01*
X181119108Y-80727344D01*
X181275303Y-80729410D01*
X181463404Y-80731040D01*
X181683942Y-80732238D01*
X181937451Y-80733012D01*
X182224461Y-80733369D01*
X182337642Y-80733396D01*
X182602363Y-80733378D01*
X182834978Y-80733421D01*
X183037612Y-80733668D01*
X183212390Y-80734262D01*
X183361439Y-80735346D01*
X183486882Y-80737065D01*
X183590847Y-80739561D01*
X183675457Y-80742978D01*
X183742840Y-80747460D01*
X183795119Y-80753150D01*
X183834421Y-80760190D01*
X183862870Y-80768726D01*
X183882593Y-80778900D01*
X183895715Y-80790855D01*
X183904360Y-80804735D01*
X183910655Y-80820684D01*
X183916725Y-80838844D01*
X183917121Y-80839985D01*
X183925233Y-80911973D01*
X183905741Y-80989277D01*
X183862847Y-81064567D01*
X183800758Y-81130514D01*
X183723679Y-81179787D01*
X183721642Y-81180720D01*
X183708483Y-81186059D01*
X183692556Y-81190748D01*
X183671702Y-81194826D01*
X183643761Y-81198333D01*
X183606573Y-81201309D01*
X183557977Y-81203791D01*
X183495814Y-81205820D01*
X183417924Y-81207436D01*
X183322147Y-81208676D01*
X183206322Y-81209581D01*
X183068291Y-81210190D01*
X182905892Y-81210541D01*
X182716967Y-81210675D01*
X182499354Y-81210631D01*
X182250894Y-81210448D01*
X182095485Y-81210297D01*
X181866215Y-81209932D01*
X181645816Y-81209327D01*
X181436816Y-81208503D01*
X181241741Y-81207483D01*
X181063118Y-81206287D01*
X180903475Y-81204937D01*
X180765337Y-81203454D01*
X180651231Y-81201861D01*
X180563685Y-81200177D01*
X180505226Y-81198426D01*
X180478379Y-81196627D01*
X180478032Y-81196561D01*
X180361876Y-81156923D01*
X180263352Y-81090634D01*
X180183115Y-81000772D01*
X180121822Y-80890413D01*
X180080131Y-80762636D01*
X180058698Y-80620516D01*
X180058180Y-80467131D01*
X180079234Y-80305558D01*
X180122517Y-80138874D01*
X180188685Y-79970155D01*
X180207732Y-79930331D01*
X180307099Y-79758176D01*
X180429238Y-79593173D01*
X180568629Y-79440843D01*
X180719753Y-79306709D01*
X180877090Y-79196294D01*
X181013200Y-79124499D01*
X181048539Y-79108794D01*
X181080701Y-79094938D01*
X181111958Y-79082817D01*
X181144580Y-79072315D01*
X181180840Y-79063315D01*
X181223008Y-79055702D01*
X181273354Y-79049360D01*
X181334151Y-79044173D01*
X181407670Y-79040025D01*
X181496181Y-79036801D01*
X181601956Y-79034385D01*
X181727266Y-79032660D01*
X181874382Y-79031511D01*
X182045575Y-79030823D01*
X182243117Y-79030478D01*
X182469278Y-79030363D01*
X182726330Y-79030359D01*
X182858787Y-79030364D01*
X183128184Y-79030321D01*
X183365437Y-79030277D01*
X183572634Y-79030361D01*
G37*
G36*
X171478277Y-74787456D02*
G01*
X171529821Y-74825971D01*
X171556873Y-74887917D01*
X171560646Y-74929510D01*
X171555139Y-74958695D01*
X171539508Y-75016170D01*
X171515092Y-75097968D01*
X171483228Y-75200123D01*
X171445253Y-75318669D01*
X171402505Y-75449640D01*
X171356322Y-75589068D01*
X171308040Y-75732988D01*
X171258997Y-75877434D01*
X171210532Y-76018438D01*
X171163980Y-76152034D01*
X171120681Y-76274257D01*
X171081971Y-76381139D01*
X171049187Y-76468715D01*
X171023668Y-76533017D01*
X171008642Y-76566502D01*
X170974604Y-76619521D01*
X170923308Y-76683512D01*
X170863761Y-76747497D01*
X170846204Y-76764514D01*
X170781353Y-76822786D01*
X170727399Y-76862516D01*
X170672742Y-76890962D01*
X170605782Y-76915383D01*
X170604436Y-76915817D01*
X170473682Y-76944471D01*
X170353644Y-76943697D01*
X170247377Y-76913707D01*
X170200600Y-76887978D01*
X170175273Y-76869790D01*
X170125347Y-76832533D01*
X170053292Y-76778095D01*
X169961579Y-76708363D01*
X169852678Y-76625222D01*
X169729058Y-76530561D01*
X169593189Y-76426265D01*
X169447542Y-76314222D01*
X169294587Y-76196319D01*
X169240410Y-76154501D01*
X169085545Y-76035037D01*
X168937172Y-75920796D01*
X168797756Y-75813665D01*
X168669763Y-75715526D01*
X168555656Y-75628264D01*
X168457902Y-75553763D01*
X168378966Y-75493908D01*
X168321313Y-75450583D01*
X168287409Y-75425672D01*
X168281639Y-75421672D01*
X168201888Y-75378824D01*
X168134681Y-75366136D01*
X168077010Y-75384614D01*
X168025864Y-75435262D01*
X167978236Y-75519088D01*
X167976055Y-75523813D01*
X167960188Y-75562691D01*
X167935096Y-75629487D01*
X167902397Y-75719650D01*
X167863711Y-75828629D01*
X167820657Y-75951873D01*
X167774855Y-76084831D01*
X167740304Y-76186327D01*
X167687622Y-76341159D01*
X167644140Y-76466946D01*
X167608465Y-76567191D01*
X167579200Y-76645400D01*
X167554948Y-76705077D01*
X167534315Y-76749726D01*
X167515905Y-76782853D01*
X167498321Y-76807961D01*
X167487727Y-76820480D01*
X167410857Y-76888465D01*
X167328334Y-76931400D01*
X167246080Y-76947578D01*
X167170020Y-76935291D01*
X167140335Y-76920609D01*
X167094931Y-76879104D01*
X167074756Y-76822696D01*
X167073688Y-76771064D01*
X167080302Y-76739719D01*
X167097194Y-76680208D01*
X167122978Y-76596550D01*
X167156268Y-76492761D01*
X167195679Y-76372862D01*
X167239825Y-76240869D01*
X167287320Y-76100801D01*
X167336780Y-75956676D01*
X167386818Y-75812512D01*
X167436049Y-75672327D01*
X167483088Y-75540140D01*
X167526549Y-75419967D01*
X167565046Y-75315828D01*
X167597195Y-75231741D01*
X167621608Y-75171723D01*
X167635153Y-75142797D01*
X167713759Y-75027717D01*
X167809554Y-74931454D01*
X167917714Y-74856041D01*
X168033415Y-74803513D01*
X168151831Y-74775904D01*
X168268138Y-74775248D01*
X168377510Y-74803579D01*
X168407001Y-74817382D01*
X168429610Y-74832502D01*
X168476956Y-74866817D01*
X168546710Y-74918562D01*
X168636541Y-74985975D01*
X168744122Y-75067290D01*
X168867123Y-75160745D01*
X169003214Y-75264574D01*
X169150067Y-75377015D01*
X169305353Y-75496303D01*
X169416277Y-75581742D01*
X169576044Y-75704699D01*
X169729023Y-75821977D01*
X169872881Y-75931814D01*
X170005288Y-76032451D01*
X170123910Y-76122130D01*
X170226414Y-76199090D01*
X170310470Y-76261573D01*
X170373745Y-76307818D01*
X170413906Y-76336068D01*
X170426927Y-76344150D01*
X170489675Y-76361457D01*
X170544932Y-76348245D01*
X170596111Y-76303089D01*
X170625632Y-76261115D01*
X170643466Y-76224997D01*
X170670166Y-76161146D01*
X170703926Y-76074355D01*
X170742940Y-75969417D01*
X170785402Y-75851124D01*
X170829506Y-75724270D01*
X170844385Y-75680544D01*
X170903258Y-75506939D01*
X170952540Y-75362742D01*
X170993413Y-75244865D01*
X171027060Y-75150224D01*
X171054663Y-75075733D01*
X171077405Y-75018306D01*
X171096466Y-74974857D01*
X171113031Y-74942302D01*
X171128281Y-74917554D01*
X171143399Y-74897528D01*
X171145282Y-74895271D01*
X171219612Y-74831149D01*
X171311241Y-74788834D01*
X171404095Y-74774209D01*
X171478277Y-74787456D01*
G37*
G36*
X130512990Y-79024839D02*
G01*
X130747776Y-79025641D01*
X130996138Y-79026666D01*
X131212614Y-79027683D01*
X131399549Y-79028752D01*
X131559290Y-79029930D01*
X131694182Y-79031278D01*
X131806571Y-79032854D01*
X131898802Y-79034716D01*
X131973221Y-79036924D01*
X132032174Y-79039536D01*
X132078006Y-79042612D01*
X132113063Y-79046209D01*
X132139691Y-79050388D01*
X132160236Y-79055207D01*
X132177043Y-79060724D01*
X132179237Y-79061558D01*
X132290434Y-79121107D01*
X132377919Y-79203068D01*
X132439063Y-79303692D01*
X132471237Y-79419236D01*
X132475646Y-79483935D01*
X132465846Y-79610643D01*
X132435462Y-79713500D01*
X132383132Y-79796981D01*
X132378966Y-79801812D01*
X132308155Y-79864996D01*
X132228536Y-79907566D01*
X132147272Y-79927790D01*
X132071528Y-79923934D01*
X132008470Y-79894266D01*
X132005795Y-79892088D01*
X131984109Y-79871162D01*
X131971646Y-79847343D01*
X131966253Y-79811414D01*
X131965777Y-79754157D01*
X131966468Y-79723715D01*
X131967289Y-79655206D01*
X131963904Y-79611319D01*
X131954114Y-79582501D01*
X131935722Y-79559202D01*
X131926584Y-79550337D01*
X131883237Y-79509609D01*
X130570964Y-79504672D01*
X130301408Y-79503831D01*
X130064690Y-79503471D01*
X129859416Y-79503608D01*
X129684197Y-79504256D01*
X129537641Y-79505431D01*
X129418356Y-79507146D01*
X129324950Y-79509417D01*
X129256033Y-79512258D01*
X129210212Y-79515685D01*
X129187413Y-79519324D01*
X129117629Y-79549464D01*
X129062115Y-79600136D01*
X129016586Y-79676307D01*
X128986854Y-79751863D01*
X128945716Y-79872811D01*
X129684145Y-79882993D01*
X129927967Y-79887060D01*
X130138275Y-79892071D01*
X130314917Y-79898021D01*
X130457742Y-79904905D01*
X130566599Y-79912716D01*
X130619406Y-79918331D01*
X130879263Y-79960806D01*
X131109634Y-80018575D01*
X131312146Y-80092651D01*
X131488422Y-80184046D01*
X131640088Y-80293773D01*
X131768769Y-80422842D01*
X131876090Y-80572268D01*
X131963676Y-80743061D01*
X131970945Y-80760232D01*
X132003645Y-80849953D01*
X132015889Y-80920187D01*
X132006717Y-80979582D01*
X131975171Y-81036788D01*
X131934917Y-81084909D01*
X131860471Y-81149492D01*
X131780956Y-81190756D01*
X131702342Y-81207537D01*
X131630598Y-81198675D01*
X131571694Y-81163009D01*
X131565662Y-81156753D01*
X131541692Y-81124922D01*
X131507174Y-81072296D01*
X131468039Y-81008082D01*
X131451009Y-80978746D01*
X131344115Y-80825224D01*
X131211468Y-80690956D01*
X131058549Y-80581187D01*
X131004028Y-80550954D01*
X130931566Y-80515048D01*
X130861643Y-80484262D01*
X130790930Y-80458161D01*
X130716099Y-80436312D01*
X130633822Y-80418281D01*
X130540770Y-80403632D01*
X130433615Y-80391933D01*
X130309028Y-80382747D01*
X130163682Y-80375642D01*
X129994248Y-80370183D01*
X129797397Y-80365936D01*
X129569802Y-80362466D01*
X129558220Y-80362314D01*
X128779447Y-80352139D01*
X128670507Y-80681821D01*
X128630912Y-80799822D01*
X128598934Y-80890109D01*
X128572390Y-80957764D01*
X128549099Y-81007872D01*
X128526877Y-81045518D01*
X128503542Y-81075784D01*
X128499348Y-81080515D01*
X128421754Y-81149450D01*
X128338944Y-81193005D01*
X128256598Y-81209520D01*
X128180400Y-81197336D01*
X128150308Y-81182469D01*
X128104842Y-81140873D01*
X128084743Y-81084387D01*
X128083815Y-81032924D01*
X128090179Y-81004053D01*
X128106527Y-80947129D01*
X128131431Y-80866372D01*
X128163463Y-80766002D01*
X128201195Y-80650240D01*
X128243199Y-80523306D01*
X128288046Y-80389420D01*
X128334309Y-80252803D01*
X128380560Y-80117675D01*
X128425370Y-79988256D01*
X128467311Y-79868767D01*
X128504956Y-79763428D01*
X128536877Y-79676459D01*
X128561645Y-79612081D01*
X128576102Y-79578073D01*
X128623906Y-79497565D01*
X128695497Y-79405286D01*
X128757745Y-79336564D01*
X128898846Y-79209769D01*
X129046910Y-79116487D01*
X129201945Y-79056714D01*
X129277576Y-79040136D01*
X129313914Y-79036111D01*
X129372256Y-79032699D01*
X129453985Y-79029886D01*
X129560486Y-79027660D01*
X129693142Y-79026006D01*
X129853336Y-79024910D01*
X130042453Y-79024360D01*
X130261877Y-79024340D01*
X130512990Y-79024839D01*
G37*
G36*
X164819550Y-79024868D02*
G01*
X165024331Y-79025458D01*
X165206659Y-79026430D01*
X165364631Y-79027771D01*
X165496341Y-79029466D01*
X165599883Y-79031503D01*
X165673353Y-79033867D01*
X165714844Y-79036546D01*
X165718807Y-79037067D01*
X165833696Y-79063420D01*
X165924558Y-79104895D01*
X165999257Y-79164852D01*
X166074799Y-79263417D01*
X166118376Y-79373747D01*
X166129996Y-79495981D01*
X166109669Y-79630258D01*
X166057405Y-79776716D01*
X166042692Y-79808372D01*
X165968750Y-79930444D01*
X165871018Y-80044835D01*
X165755501Y-80147416D01*
X165628200Y-80234058D01*
X165495120Y-80300632D01*
X165362265Y-80343008D01*
X165244878Y-80357078D01*
X165167857Y-80357681D01*
X165261994Y-80437322D01*
X165327325Y-80495027D01*
X165398505Y-80561909D01*
X165470189Y-80632486D01*
X165537033Y-80701278D01*
X165593692Y-80762802D01*
X165634823Y-80811578D01*
X165653628Y-80839004D01*
X165668634Y-80902682D01*
X165655990Y-80971475D01*
X165620672Y-81040139D01*
X165567656Y-81103426D01*
X165501917Y-81156091D01*
X165428432Y-81192886D01*
X165352176Y-81208566D01*
X165306075Y-81205455D01*
X165270426Y-81192314D01*
X165223424Y-81162791D01*
X165161361Y-81114171D01*
X165080529Y-81043737D01*
X165060494Y-81025623D01*
X164944771Y-80925987D01*
X164818166Y-80826526D01*
X164687366Y-80731838D01*
X164559056Y-80646520D01*
X164439924Y-80575171D01*
X164336656Y-80522388D01*
X164315064Y-80513030D01*
X164219784Y-80475646D01*
X164127441Y-80444578D01*
X164033692Y-80419281D01*
X163934190Y-80399208D01*
X163824590Y-80383815D01*
X163700548Y-80372554D01*
X163557718Y-80364880D01*
X163391756Y-80360247D01*
X163198316Y-80358109D01*
X163079716Y-80357798D01*
X162914017Y-80357686D01*
X162778702Y-80358846D01*
X162669933Y-80363303D01*
X162583871Y-80373083D01*
X162516677Y-80390212D01*
X162464511Y-80416714D01*
X162423536Y-80454615D01*
X162389912Y-80505940D01*
X162359800Y-80572715D01*
X162329361Y-80656964D01*
X162294757Y-80760714D01*
X162290226Y-80774318D01*
X162254073Y-80878776D01*
X162223689Y-80956478D01*
X162196143Y-81013781D01*
X162168508Y-81057036D01*
X162148956Y-81080800D01*
X162071475Y-81149587D01*
X161988709Y-81193045D01*
X161906378Y-81209508D01*
X161830201Y-81197306D01*
X161800173Y-81182469D01*
X161756145Y-81143006D01*
X161735632Y-81089549D01*
X161733826Y-81027922D01*
X161741340Y-80988135D01*
X161759197Y-80923461D01*
X161784989Y-80840785D01*
X161816309Y-80746988D01*
X161850748Y-80648952D01*
X161885898Y-80553561D01*
X161919351Y-80467696D01*
X161948699Y-80398241D01*
X161968269Y-80357886D01*
X162012995Y-80291876D01*
X162078324Y-80215524D01*
X162155960Y-80136838D01*
X162237608Y-80063827D01*
X162314972Y-80004499D01*
X162367163Y-79972795D01*
X162400080Y-79956403D01*
X162431449Y-79942024D01*
X162463640Y-79929524D01*
X162499017Y-79918771D01*
X162539950Y-79909634D01*
X162588804Y-79901980D01*
X162647946Y-79895677D01*
X162719745Y-79890592D01*
X162806566Y-79886593D01*
X162910777Y-79883548D01*
X163034746Y-79881325D01*
X163180838Y-79879791D01*
X163351422Y-79878814D01*
X163548863Y-79878263D01*
X163775531Y-79878004D01*
X164033791Y-79877905D01*
X164065629Y-79877898D01*
X165445207Y-79877601D01*
X165502957Y-79838683D01*
X165558288Y-79791301D01*
X165603926Y-79733951D01*
X165632542Y-79677105D01*
X165638544Y-79644959D01*
X165627659Y-79605785D01*
X165601068Y-79562252D01*
X165597240Y-79557632D01*
X165555937Y-79509609D01*
X163973889Y-79504985D01*
X162391842Y-79500362D01*
X162350988Y-79456875D01*
X162318263Y-79398087D01*
X162313752Y-79324491D01*
X162337512Y-79240741D01*
X162348175Y-79218174D01*
X162386872Y-79154691D01*
X162433764Y-79107703D01*
X162500982Y-79065261D01*
X162506334Y-79062381D01*
X162517956Y-79056838D01*
X162532224Y-79051960D01*
X162551313Y-79047696D01*
X162577400Y-79043995D01*
X162612658Y-79040807D01*
X162659263Y-79038080D01*
X162719391Y-79035766D01*
X162795217Y-79033811D01*
X162888915Y-79032168D01*
X163002661Y-79030783D01*
X163138631Y-79029607D01*
X163299000Y-79028590D01*
X163485943Y-79027680D01*
X163701634Y-79026827D01*
X163948251Y-79025980D01*
X164089555Y-79025525D01*
X164350257Y-79024888D01*
X164594224Y-79024674D01*
X164819550Y-79024868D01*
G37*
G36*
X147443165Y-74768517D02*
G01*
X147681225Y-74768585D01*
X147889235Y-74768751D01*
X148069287Y-74769060D01*
X148223471Y-74769554D01*
X148353880Y-74770278D01*
X148462603Y-74771275D01*
X148551733Y-74772589D01*
X148623361Y-74774263D01*
X148679577Y-74776341D01*
X148722472Y-74778867D01*
X148754139Y-74781884D01*
X148776667Y-74785436D01*
X148792149Y-74789566D01*
X148802675Y-74794318D01*
X148810337Y-74799736D01*
X148813777Y-74802736D01*
X148858763Y-74863556D01*
X148872574Y-74934434D01*
X148855524Y-75012001D01*
X148807927Y-75092890D01*
X148784024Y-75121458D01*
X148766864Y-75141295D01*
X148752008Y-75158779D01*
X148737310Y-75174058D01*
X148720619Y-75187282D01*
X148699788Y-75198598D01*
X148672668Y-75208155D01*
X148637110Y-75216100D01*
X148590967Y-75222583D01*
X148532090Y-75227752D01*
X148458331Y-75231754D01*
X148367541Y-75234739D01*
X148257571Y-75236855D01*
X148126274Y-75238249D01*
X147971500Y-75239071D01*
X147791102Y-75239469D01*
X147582931Y-75239590D01*
X147344839Y-75239584D01*
X147074676Y-75239599D01*
X147072918Y-75239600D01*
X146837089Y-75239831D01*
X146611705Y-75240383D01*
X146399174Y-75241233D01*
X146201904Y-75242356D01*
X146022305Y-75243728D01*
X145862783Y-75245327D01*
X145725748Y-75247127D01*
X145613608Y-75249106D01*
X145528772Y-75251240D01*
X145473647Y-75253505D01*
X145451661Y-75255579D01*
X145364766Y-75289412D01*
X145295342Y-75343498D01*
X145248979Y-75411961D01*
X145231305Y-75487258D01*
X145237540Y-75541659D01*
X145263778Y-75579213D01*
X145269062Y-75583690D01*
X145277261Y-75589422D01*
X145288252Y-75594428D01*
X145304265Y-75598756D01*
X145327531Y-75602456D01*
X145360281Y-75605577D01*
X145404746Y-75608168D01*
X145463158Y-75610279D01*
X145537747Y-75611957D01*
X145630744Y-75613253D01*
X145744381Y-75614215D01*
X145880888Y-75614892D01*
X146042497Y-75615335D01*
X146231439Y-75615591D01*
X146449944Y-75615710D01*
X146700244Y-75615741D01*
X146725031Y-75615741D01*
X146982715Y-75615950D01*
X147221322Y-75616562D01*
X147439107Y-75617558D01*
X147634327Y-75618920D01*
X147805239Y-75620626D01*
X147950099Y-75622658D01*
X148067163Y-75624996D01*
X148154687Y-75627620D01*
X148210929Y-75630511D01*
X148230598Y-75632654D01*
X148359297Y-75671482D01*
X148464120Y-75734737D01*
X148545409Y-75822650D01*
X148570945Y-75863922D01*
X148590342Y-75922807D01*
X148600089Y-76004404D01*
X148600421Y-76098651D01*
X148591571Y-76195483D01*
X148573773Y-76284840D01*
X148560192Y-76327317D01*
X148492949Y-76461439D01*
X148397637Y-76590276D01*
X148280408Y-76707754D01*
X148147414Y-76807801D01*
X148004809Y-76884343D01*
X147989246Y-76890885D01*
X147863679Y-76942224D01*
X146229110Y-76946479D01*
X145944723Y-76947135D01*
X145692779Y-76947521D01*
X145471490Y-76947620D01*
X145279069Y-76947412D01*
X145113727Y-76946878D01*
X144973678Y-76946000D01*
X144857132Y-76944759D01*
X144762303Y-76943136D01*
X144687403Y-76941113D01*
X144630643Y-76938670D01*
X144590236Y-76935789D01*
X144564395Y-76932451D01*
X144551751Y-76928862D01*
X144500405Y-76886269D01*
X144475200Y-76828251D01*
X144475031Y-76760102D01*
X144498789Y-76687115D01*
X144545368Y-76614583D01*
X144613659Y-76547801D01*
X144634770Y-76532078D01*
X144708724Y-76480094D01*
X146320433Y-76471536D01*
X146591494Y-76470083D01*
X146830436Y-76468742D01*
X147039372Y-76467460D01*
X147220415Y-76466181D01*
X147375677Y-76464850D01*
X147507271Y-76463413D01*
X147617310Y-76461814D01*
X147707906Y-76460000D01*
X147781172Y-76457914D01*
X147839221Y-76455502D01*
X147884166Y-76452710D01*
X147918118Y-76449481D01*
X147943191Y-76445763D01*
X147961498Y-76441499D01*
X147975150Y-76436634D01*
X147986262Y-76431115D01*
X147991442Y-76428141D01*
X148052278Y-76378633D01*
X148093665Y-76317221D01*
X148113234Y-76251608D01*
X148108615Y-76189499D01*
X148079797Y-76140889D01*
X148042460Y-76103544D01*
X146541007Y-76094986D01*
X145039555Y-76086428D01*
X144969924Y-76049157D01*
X144891329Y-75994241D01*
X144822718Y-75922672D01*
X144772930Y-75844725D01*
X144756179Y-75800707D01*
X144747161Y-75745564D01*
X144742732Y-75671893D01*
X144743820Y-75595204D01*
X144743840Y-75594868D01*
X144760366Y-75474926D01*
X144797479Y-75364436D01*
X144858268Y-75257616D01*
X144945824Y-75148685D01*
X145026200Y-75066634D01*
X145152661Y-74956081D01*
X145273131Y-74874198D01*
X145393333Y-74817488D01*
X145476010Y-74791975D01*
X145498065Y-74787867D01*
X145530582Y-74784243D01*
X145575521Y-74781075D01*
X145634847Y-74778336D01*
X145710522Y-74775998D01*
X145804508Y-74774036D01*
X145918768Y-74772420D01*
X146055265Y-74771125D01*
X146215961Y-74770123D01*
X146402820Y-74769388D01*
X146617803Y-74768891D01*
X146862873Y-74768605D01*
X147139993Y-74768505D01*
X147172965Y-74768504D01*
X147443165Y-74768517D01*
G37*
G36*
X112872404Y-71106162D02*
G01*
X114136336Y-71106162D01*
X114142068Y-71107753D01*
X114153908Y-71105417D01*
X114277790Y-71077976D01*
X114376947Y-71057348D01*
X114459986Y-71042561D01*
X114535517Y-71032640D01*
X114612147Y-71026612D01*
X114698484Y-71023503D01*
X114803138Y-71022339D01*
X114889892Y-71022161D01*
X115056308Y-71023737D01*
X115198516Y-71029456D01*
X115326410Y-71040488D01*
X115449885Y-71058001D01*
X115578834Y-71083166D01*
X115723153Y-71117152D01*
X115749442Y-71123769D01*
X115989856Y-71194494D01*
X116243239Y-71286957D01*
X116500088Y-71397072D01*
X116750903Y-71520753D01*
X116986179Y-71653914D01*
X116995148Y-71659389D01*
X117043429Y-71686691D01*
X117069893Y-71694496D01*
X117080137Y-71683809D01*
X117080945Y-71674804D01*
X117086446Y-71653070D01*
X117101745Y-71603951D01*
X117125224Y-71532336D01*
X117155269Y-71443113D01*
X117190263Y-71341171D01*
X117209314Y-71286379D01*
X117246168Y-71179992D01*
X117278877Y-71083973D01*
X117305831Y-71003181D01*
X117325419Y-70942477D01*
X117336029Y-70906719D01*
X117337466Y-70899667D01*
X117332351Y-70891669D01*
X117314514Y-70882905D01*
X117280217Y-70872444D01*
X117225721Y-70859358D01*
X117147286Y-70842717D01*
X117041176Y-70821591D01*
X116960916Y-70806038D01*
X116829311Y-70785656D01*
X116670975Y-70769184D01*
X116493196Y-70756755D01*
X116303267Y-70748501D01*
X116108477Y-70744555D01*
X115916118Y-70745048D01*
X115733479Y-70750113D01*
X115567852Y-70759882D01*
X115426526Y-70774488D01*
X115403369Y-70777770D01*
X115108719Y-70827612D01*
X114832111Y-70886240D01*
X114581026Y-70952049D01*
X114556132Y-70959405D01*
X114479652Y-70983006D01*
X114400873Y-71008560D01*
X114324476Y-71034369D01*
X114255143Y-71058733D01*
X114197554Y-71079952D01*
X114156391Y-71096328D01*
X114136336Y-71106162D01*
X112872404Y-71106162D01*
X112931092Y-71066485D01*
X113312989Y-70847288D01*
X113712969Y-70655469D01*
X114129891Y-70492412D01*
X114171024Y-70478234D01*
X114529719Y-70367840D01*
X114885043Y-70283053D01*
X115244277Y-70222703D01*
X115614703Y-70185618D01*
X116003602Y-70170631D01*
X116088005Y-70170181D01*
X116386035Y-70175383D01*
X116661192Y-70191658D01*
X116923340Y-70220074D01*
X117182340Y-70261694D01*
X117443721Y-70316577D01*
X117558535Y-70343217D01*
X117974314Y-70055965D01*
X118089705Y-69976262D01*
X118204772Y-69896814D01*
X118313986Y-69821439D01*
X118411815Y-69753951D01*
X118492730Y-69698167D01*
X118551199Y-69657904D01*
X118552695Y-69656875D01*
X118626348Y-69606037D01*
X118718069Y-69542460D01*
X118817898Y-69473060D01*
X118915877Y-69404754D01*
X118950257Y-69380731D01*
X119028339Y-69327210D01*
X119096434Y-69282585D01*
X119149798Y-69249801D01*
X119183686Y-69231801D01*
X119193490Y-69229808D01*
X119198387Y-69250558D01*
X119206566Y-69299223D01*
X119217104Y-69369744D01*
X119229083Y-69456063D01*
X119236909Y-69515484D01*
X119251315Y-69625681D01*
X119266611Y-69740332D01*
X119281234Y-69847852D01*
X119293618Y-69936654D01*
X119296810Y-69958935D01*
X119308624Y-70041791D01*
X119319643Y-70121108D01*
X119328195Y-70184776D01*
X119331044Y-70207116D01*
X119335870Y-70244895D01*
X119344514Y-70311103D01*
X119356249Y-70400237D01*
X119370350Y-70506796D01*
X119386091Y-70625279D01*
X119400181Y-70730981D01*
X119416125Y-70850787D01*
X119430463Y-70959243D01*
X119442597Y-71051787D01*
X119451934Y-71123854D01*
X119457877Y-71170882D01*
X119459838Y-71188204D01*
X119472799Y-71201634D01*
X119508392Y-71231395D01*
X119561679Y-71273530D01*
X119627721Y-71324077D01*
X119652392Y-71342616D01*
X119999757Y-71623190D01*
X120324027Y-71927332D01*
X120624032Y-72253206D01*
X120898600Y-72598979D01*
X121146562Y-72962816D01*
X121366746Y-73342884D01*
X121557982Y-73737347D01*
X121719098Y-74144372D01*
X121848926Y-74562124D01*
X121931738Y-74913989D01*
X122004273Y-75341360D01*
X122046596Y-75758185D01*
X122058704Y-76170014D01*
X122040600Y-76582393D01*
X121992282Y-77000870D01*
X121931738Y-77344447D01*
X121828476Y-77770856D01*
X121693538Y-78186430D01*
X121528197Y-78589618D01*
X121333728Y-78978868D01*
X121111403Y-79352630D01*
X120862495Y-79709351D01*
X120588278Y-80047482D01*
X120290025Y-80365470D01*
X119969009Y-80661765D01*
X119626504Y-80934814D01*
X119263783Y-81183068D01*
X118882118Y-81404974D01*
X118482784Y-81598982D01*
X118415768Y-81627998D01*
X118016948Y-81781446D01*
X117614323Y-81903388D01*
X117204582Y-81994484D01*
X116784416Y-82055392D01*
X116350512Y-82086773D01*
X116088005Y-82091705D01*
X115673092Y-82079659D01*
X115276369Y-82042728D01*
X114891317Y-81979720D01*
X114511418Y-81889441D01*
X114130154Y-81770699D01*
X113926606Y-81696318D01*
X113862729Y-81674649D01*
X113816931Y-81664815D01*
X113796391Y-81667585D01*
X113786438Y-81681845D01*
X113768722Y-81711832D01*
X113741789Y-81760218D01*
X113704184Y-81829677D01*
X113654451Y-81922882D01*
X113591137Y-82042505D01*
X113554897Y-82111226D01*
X113499083Y-82216302D01*
X113456397Y-82293931D01*
X113424554Y-82347234D01*
X113401269Y-82379331D01*
X113384258Y-82393341D01*
X113371236Y-82392384D01*
X113359917Y-82379580D01*
X113359205Y-82378443D01*
X113362473Y-82359865D01*
X113375180Y-82314388D01*
X113395538Y-82247451D01*
X113421758Y-82164491D01*
X113452049Y-82070947D01*
X113484623Y-81972257D01*
X113517690Y-81873861D01*
X113549461Y-81781195D01*
X113578146Y-81699700D01*
X113601956Y-81634812D01*
X113614009Y-81604025D01*
X113612677Y-81590274D01*
X113596142Y-81572270D01*
X113560830Y-81547638D01*
X113503169Y-81514004D01*
X113419586Y-81468993D01*
X113378330Y-81447395D01*
X112975631Y-81219206D01*
X112848211Y-81134305D01*
X114088329Y-81134305D01*
X114088519Y-81135835D01*
X114109278Y-81146672D01*
X114154765Y-81165594D01*
X114217288Y-81189691D01*
X114289157Y-81216052D01*
X114362679Y-81241768D01*
X114410646Y-81257709D01*
X114759397Y-81357093D01*
X115124196Y-81436018D01*
X115491871Y-81491854D01*
X115677223Y-81510674D01*
X115747066Y-81514173D01*
X115843740Y-81515738D01*
X115960571Y-81515554D01*
X116090881Y-81513807D01*
X116227996Y-81510683D01*
X116365240Y-81506366D01*
X116495935Y-81501041D01*
X116613407Y-81494895D01*
X116710980Y-81488112D01*
X116781977Y-81480878D01*
X116789757Y-81479789D01*
X117069925Y-81433707D01*
X117326679Y-81380549D01*
X117570562Y-81317565D01*
X117812117Y-81242003D01*
X118061888Y-81151113D01*
X118087404Y-81141199D01*
X118157488Y-81113113D01*
X118213260Y-81089392D01*
X118248566Y-81072747D01*
X118257835Y-81066119D01*
X118239351Y-81066730D01*
X118197995Y-81074695D01*
X118158300Y-81084317D01*
X117984589Y-81120606D01*
X117788484Y-81146312D01*
X117580296Y-81160967D01*
X117370336Y-81164103D01*
X117168914Y-81155254D01*
X117003706Y-81136692D01*
X116643272Y-81064365D01*
X116595089Y-81050040D01*
X118278840Y-81050040D01*
X118287398Y-81058598D01*
X118295956Y-81050040D01*
X118287398Y-81041482D01*
X118278840Y-81050040D01*
X116595089Y-81050040D01*
X116285286Y-80957935D01*
X115929859Y-80817451D01*
X115577099Y-80642962D01*
X115227118Y-80434516D01*
X114880023Y-80192163D01*
X114877133Y-80189994D01*
X114796900Y-80130667D01*
X114739395Y-80090722D01*
X114700792Y-80067939D01*
X114677265Y-80060097D01*
X114664985Y-80064977D01*
X114664046Y-80066377D01*
X114652121Y-80087678D01*
X114626178Y-80134840D01*
X114588528Y-80203635D01*
X114541480Y-80289838D01*
X114487344Y-80389221D01*
X114430486Y-80493773D01*
X114368291Y-80608176D01*
X114307856Y-80719242D01*
X114252210Y-80821411D01*
X114204384Y-80909123D01*
X114167406Y-80976818D01*
X114147477Y-81013178D01*
X114117830Y-81068914D01*
X114096902Y-81111810D01*
X114088329Y-81134305D01*
X112848211Y-81134305D01*
X112595901Y-80966188D01*
X112239793Y-80689000D01*
X111907965Y-80388297D01*
X111601071Y-80064739D01*
X111319767Y-79718982D01*
X111064708Y-79351683D01*
X110865788Y-79013248D01*
X111534108Y-79013248D01*
X111581226Y-79090269D01*
X111610453Y-79134989D01*
X111654219Y-79198229D01*
X111706373Y-79271240D01*
X111755681Y-79338450D01*
X112027510Y-79675811D01*
X112322057Y-79987848D01*
X112638690Y-80273959D01*
X112976779Y-80533543D01*
X113091306Y-80612185D01*
X113191828Y-80677609D01*
X113297067Y-80743121D01*
X113402830Y-80806413D01*
X113504924Y-80865174D01*
X113599153Y-80917093D01*
X113681324Y-80959859D01*
X113747243Y-80991163D01*
X113792716Y-81008694D01*
X113813549Y-81010142D01*
X113813594Y-81010094D01*
X113825054Y-80988265D01*
X113842025Y-80945974D01*
X113850736Y-80921671D01*
X113864673Y-80881558D01*
X113887695Y-80815610D01*
X113917541Y-80730289D01*
X113951950Y-80632058D01*
X113988661Y-80527378D01*
X113991444Y-80519447D01*
X114027931Y-80415195D01*
X114061936Y-80317502D01*
X114091286Y-80232659D01*
X114113803Y-80166957D01*
X114127312Y-80126688D01*
X114128007Y-80124542D01*
X114150441Y-80054839D01*
X114002410Y-80077104D01*
X113743546Y-80099782D01*
X113475881Y-80092625D01*
X113205110Y-80056808D01*
X112936931Y-79993507D01*
X112914396Y-79985737D01*
X114190682Y-79985737D01*
X114191280Y-80016676D01*
X114213395Y-80027885D01*
X114260344Y-80022553D01*
X114335446Y-80003865D01*
X114384972Y-79990405D01*
X114456286Y-79968859D01*
X114473191Y-79963020D01*
X114724945Y-79963020D01*
X114727675Y-79980918D01*
X114751810Y-80004241D01*
X114801164Y-80040356D01*
X114870631Y-80086168D01*
X114955108Y-80138583D01*
X115049489Y-80194508D01*
X115148670Y-80250848D01*
X115247546Y-80304509D01*
X115338590Y-80351200D01*
X115521852Y-80434643D01*
X115718145Y-80511102D01*
X115918911Y-80577912D01*
X116115588Y-80632411D01*
X116299615Y-80671936D01*
X116430323Y-80690812D01*
X116488071Y-80697654D01*
X116530475Y-80704088D01*
X116547799Y-80708506D01*
X116569635Y-80712990D01*
X116619076Y-80715378D01*
X116689572Y-80715870D01*
X116774571Y-80714669D01*
X116867524Y-80711977D01*
X116961882Y-80707997D01*
X117051093Y-80702931D01*
X117128609Y-80696980D01*
X117187877Y-80690348D01*
X117200539Y-80688357D01*
X117275759Y-80675429D01*
X117345486Y-80663620D01*
X117397192Y-80655049D01*
X117405929Y-80653645D01*
X117465705Y-80639164D01*
X117547844Y-80612443D01*
X117644173Y-80576717D01*
X117746521Y-80535222D01*
X117846716Y-80491192D01*
X117936587Y-80447863D01*
X117969510Y-80430531D01*
X118090676Y-80362231D01*
X118190582Y-80299371D01*
X118279534Y-80234311D01*
X118367838Y-80159408D01*
X118465799Y-80067023D01*
X118484428Y-80048760D01*
X118676917Y-79837807D01*
X118845163Y-79607074D01*
X118991305Y-79353317D01*
X119100224Y-79115943D01*
X119149795Y-78982251D01*
X119198748Y-78825973D01*
X119244285Y-78658097D01*
X119283613Y-78489611D01*
X119313933Y-78331501D01*
X119331038Y-78208800D01*
X119338943Y-78136523D01*
X119347283Y-78064032D01*
X119351513Y-78029083D01*
X119355269Y-77979424D01*
X119358112Y-77902663D01*
X119360043Y-77805919D01*
X119361063Y-77696310D01*
X119361173Y-77580955D01*
X119360375Y-77466972D01*
X119358670Y-77361478D01*
X119356059Y-77271593D01*
X119352543Y-77204435D01*
X119351371Y-77190404D01*
X119339414Y-77081427D01*
X119323061Y-76956377D01*
X119303787Y-76824732D01*
X119283068Y-76695968D01*
X119262379Y-76579562D01*
X119243195Y-76484989D01*
X119238118Y-76462978D01*
X119225169Y-76408728D01*
X119208477Y-76338543D01*
X119195364Y-76283261D01*
X119146423Y-76099118D01*
X119082385Y-75893639D01*
X119006016Y-75674690D01*
X118920082Y-75450137D01*
X118827350Y-75227844D01*
X118811200Y-75191052D01*
X118782681Y-75130208D01*
X118742232Y-75048809D01*
X118693168Y-74953070D01*
X118638808Y-74849205D01*
X118582468Y-74743429D01*
X118527463Y-74641957D01*
X118477112Y-74551004D01*
X118434731Y-74476783D01*
X118403636Y-74425511D01*
X118398437Y-74417628D01*
X118375873Y-74383750D01*
X118341008Y-74330774D01*
X118300168Y-74268324D01*
X118285932Y-74246469D01*
X118237652Y-74173947D01*
X118186285Y-74099585D01*
X118135793Y-74028790D01*
X118090139Y-73966970D01*
X118053285Y-73919534D01*
X118029196Y-73891888D01*
X118022545Y-73887049D01*
X118011560Y-73901263D01*
X117987995Y-73940094D01*
X117955168Y-73997839D01*
X117916394Y-74068795D01*
X117910848Y-74079143D01*
X117833393Y-74223836D01*
X117767769Y-74345980D01*
X117709804Y-74453285D01*
X117655325Y-74553461D01*
X117600159Y-74654220D01*
X117565547Y-74717156D01*
X117515194Y-74809081D01*
X117460934Y-74908929D01*
X117410290Y-75002824D01*
X117380008Y-75059474D01*
X117344384Y-75125976D01*
X117314005Y-75181696D01*
X117292900Y-75219300D01*
X117286007Y-75230633D01*
X117273708Y-75251684D01*
X117249045Y-75296581D01*
X117215533Y-75358842D01*
X117176688Y-75431990D01*
X117174560Y-75436024D01*
X117132799Y-75514870D01*
X117093555Y-75588374D01*
X117061370Y-75648065D01*
X117041502Y-75684205D01*
X117015140Y-75731784D01*
X116980986Y-75794457D01*
X116952791Y-75846806D01*
X116838144Y-76059746D01*
X116729988Y-76257766D01*
X116641336Y-76417870D01*
X116600934Y-76490944D01*
X116567377Y-76552632D01*
X116543785Y-76597123D01*
X116533279Y-76618607D01*
X116533018Y-76619575D01*
X116525140Y-76636672D01*
X116504070Y-76676304D01*
X116473657Y-76731313D01*
X116458149Y-76758821D01*
X116413337Y-76838907D01*
X116365148Y-76926654D01*
X116323342Y-77004278D01*
X116319947Y-77010687D01*
X116256614Y-77130498D01*
X116258757Y-77440758D01*
X116258322Y-77590956D01*
X116254144Y-77716338D01*
X116245338Y-77826197D01*
X116231024Y-77929830D01*
X116210320Y-78036530D01*
X116196444Y-78097547D01*
X116118138Y-78360318D01*
X116010132Y-78617064D01*
X115875526Y-78862724D01*
X115717420Y-79092237D01*
X115538914Y-79300540D01*
X115353443Y-79474021D01*
X115263724Y-79544702D01*
X115160486Y-79619588D01*
X115053416Y-79692128D01*
X114952201Y-79755777D01*
X114866528Y-79803984D01*
X114861664Y-79806459D01*
X114814578Y-79838243D01*
X114771839Y-79880475D01*
X114739833Y-79924838D01*
X114724945Y-79963020D01*
X114473191Y-79963020D01*
X114534551Y-79941826D01*
X114612137Y-79912361D01*
X114681415Y-79883518D01*
X114734756Y-79858354D01*
X114764528Y-79839924D01*
X114766865Y-79837469D01*
X114782865Y-79812602D01*
X114808812Y-79768060D01*
X114833558Y-79723558D01*
X114867646Y-79661372D01*
X114900940Y-79601238D01*
X114918711Y-79569515D01*
X114941911Y-79527224D01*
X114975060Y-79465242D01*
X115012435Y-79394310D01*
X115028176Y-79364124D01*
X115061623Y-79300550D01*
X115089441Y-79249141D01*
X115107734Y-79217020D01*
X115112398Y-79210081D01*
X115123550Y-79192082D01*
X115146438Y-79150752D01*
X115177166Y-79093211D01*
X115196620Y-79056038D01*
X115234059Y-78984553D01*
X115269700Y-78917461D01*
X115297822Y-78865501D01*
X115306085Y-78850647D01*
X115333934Y-78800763D01*
X115368374Y-78738255D01*
X115388774Y-78700883D01*
X115426935Y-78630652D01*
X115468390Y-78554360D01*
X115486427Y-78521166D01*
X115520104Y-78459617D01*
X115553173Y-78399852D01*
X115569116Y-78371401D01*
X115592315Y-78329111D01*
X115625464Y-78267129D01*
X115662839Y-78196197D01*
X115678581Y-78166011D01*
X115712028Y-78102437D01*
X115739845Y-78051028D01*
X115758138Y-78018907D01*
X115762803Y-78011967D01*
X115773955Y-77993969D01*
X115796842Y-77952638D01*
X115827570Y-77895098D01*
X115847025Y-77857924D01*
X115884463Y-77786440D01*
X115920105Y-77719348D01*
X115948226Y-77667388D01*
X115956490Y-77652533D01*
X115983883Y-77603568D01*
X116018471Y-77541079D01*
X116041867Y-77498490D01*
X116077165Y-77434586D01*
X116120126Y-77357646D01*
X116161329Y-77284542D01*
X116197392Y-77215905D01*
X116218556Y-77157837D01*
X116225863Y-77100085D01*
X116220355Y-77032397D01*
X116203074Y-76944517D01*
X116198095Y-76922746D01*
X116139828Y-76716405D01*
X116061248Y-76506213D01*
X115966454Y-76300665D01*
X115859543Y-76108255D01*
X115744617Y-75937476D01*
X115688200Y-75866147D01*
X115646988Y-75817024D01*
X115613361Y-75908936D01*
X115594653Y-75961293D01*
X115568480Y-76036156D01*
X115538295Y-76123588D01*
X115507547Y-76213649D01*
X115507158Y-76214798D01*
X115478793Y-76297728D01*
X115453222Y-76371238D01*
X115433022Y-76428002D01*
X115420771Y-76460692D01*
X115419817Y-76462978D01*
X115408636Y-76492248D01*
X115388759Y-76547536D01*
X115362412Y-76622422D01*
X115331824Y-76710482D01*
X115299222Y-76805295D01*
X115266834Y-76900437D01*
X115236888Y-76989487D01*
X115229831Y-77010687D01*
X115209168Y-77070844D01*
X115190426Y-77121908D01*
X115179938Y-77147614D01*
X115164223Y-77186997D01*
X115138439Y-77258804D01*
X115102678Y-77362771D01*
X115057031Y-77498633D01*
X115034333Y-77566954D01*
X115011905Y-77632098D01*
X114991417Y-77687189D01*
X114976757Y-77721852D01*
X114975081Y-77725044D01*
X114960816Y-77761721D01*
X114958355Y-77778388D01*
X114951604Y-77809083D01*
X114932533Y-77866005D01*
X114902912Y-77944183D01*
X114872050Y-78020525D01*
X114861612Y-78048706D01*
X114842750Y-78102402D01*
X114817872Y-78174659D01*
X114789387Y-78258518D01*
X114780188Y-78285822D01*
X114746342Y-78385917D01*
X114703254Y-78512459D01*
X114652943Y-78659566D01*
X114597430Y-78821359D01*
X114538734Y-78991957D01*
X114478875Y-79165481D01*
X114419872Y-79336049D01*
X114377479Y-79458261D01*
X114348058Y-79543252D01*
X114319663Y-79625778D01*
X114296007Y-79695022D01*
X114283481Y-79732116D01*
X114264215Y-79788258D01*
X114247160Y-79835459D01*
X114240756Y-79851927D01*
X114208280Y-79931883D01*
X114190682Y-79985737D01*
X112914396Y-79985737D01*
X112677040Y-79903896D01*
X112431134Y-79789151D01*
X112331064Y-79732347D01*
X112095378Y-79571948D01*
X111870483Y-79381414D01*
X111660236Y-79164130D01*
X111590268Y-79081711D01*
X111534108Y-79013248D01*
X110865788Y-79013248D01*
X110855728Y-78996132D01*
X111518059Y-78996132D01*
X111526617Y-79004690D01*
X111535175Y-78996132D01*
X111526617Y-78987574D01*
X111518059Y-78996132D01*
X110855728Y-78996132D01*
X110836549Y-78963502D01*
X110826781Y-78944784D01*
X111483827Y-78944784D01*
X111492385Y-78953342D01*
X111500943Y-78944784D01*
X111492385Y-78936226D01*
X111483827Y-78944784D01*
X110826781Y-78944784D01*
X110799984Y-78893436D01*
X111449595Y-78893436D01*
X111458153Y-78901994D01*
X111466711Y-78893436D01*
X111458153Y-78884879D01*
X111449595Y-78893436D01*
X110799984Y-78893436D01*
X110764255Y-78824973D01*
X110716335Y-78722277D01*
X111346900Y-78722277D01*
X111355458Y-78730835D01*
X111364016Y-78722277D01*
X111355458Y-78713719D01*
X111346900Y-78722277D01*
X110716335Y-78722277D01*
X110684388Y-78653814D01*
X111312668Y-78653814D01*
X111321226Y-78662372D01*
X111329784Y-78653814D01*
X111321226Y-78645256D01*
X111312668Y-78653814D01*
X110684388Y-78653814D01*
X110652441Y-78585350D01*
X111278436Y-78585350D01*
X111286994Y-78593908D01*
X111295552Y-78585350D01*
X111286994Y-78576792D01*
X111278436Y-78585350D01*
X110652441Y-78585350D01*
X110589188Y-78449796D01*
X110443705Y-78073717D01*
X110326515Y-77691892D01*
X110236326Y-77299476D01*
X110171847Y-76891625D01*
X110131785Y-76463494D01*
X110130914Y-76449751D01*
X110124560Y-76250040D01*
X110695871Y-76250040D01*
X110722312Y-76669914D01*
X110781784Y-77089470D01*
X110874467Y-77507159D01*
X111000542Y-77921432D01*
X111064840Y-78097547D01*
X111094067Y-78170871D01*
X111127821Y-78251089D01*
X111163301Y-78332077D01*
X111197705Y-78407711D01*
X111228231Y-78471867D01*
X111252077Y-78518422D01*
X111266443Y-78541252D01*
X111268437Y-78542560D01*
X111266413Y-78528104D01*
X111253654Y-78489928D01*
X111232802Y-78435820D01*
X111229228Y-78427028D01*
X111169955Y-78268063D01*
X111125603Y-78114135D01*
X111094665Y-77956675D01*
X111075639Y-77787118D01*
X111067018Y-77596895D01*
X111066132Y-77498490D01*
X111070391Y-77294172D01*
X111084206Y-77114037D01*
X111109369Y-76948926D01*
X111147669Y-76789682D01*
X111200896Y-76627150D01*
X111270533Y-76452891D01*
X111366224Y-76257987D01*
X111485044Y-76062505D01*
X111621341Y-75873853D01*
X111769460Y-75699436D01*
X111923749Y-75546663D01*
X112028964Y-75459179D01*
X112086298Y-75415367D01*
X112068497Y-75297326D01*
X112053328Y-75175654D01*
X112109180Y-75175654D01*
X112110482Y-75259799D01*
X112113257Y-75323310D01*
X112117630Y-75360774D01*
X112120479Y-75368071D01*
X112138453Y-75364125D01*
X112177575Y-75344818D01*
X112230583Y-75313883D01*
X112251666Y-75300620D01*
X112501390Y-75159438D01*
X112764652Y-75046244D01*
X113037199Y-74962100D01*
X113314781Y-74908066D01*
X113593144Y-74885206D01*
X113868038Y-74894580D01*
X113875155Y-74895269D01*
X114181321Y-74941323D01*
X114472147Y-75017551D01*
X114746920Y-75123622D01*
X115004927Y-75259202D01*
X115245455Y-75423959D01*
X115467791Y-75617562D01*
X115505761Y-75655383D01*
X115565153Y-75715618D01*
X115605565Y-75751245D01*
X115633131Y-75760915D01*
X115653987Y-75743281D01*
X115674265Y-75696995D01*
X115700102Y-75620709D01*
X115703002Y-75612051D01*
X115727851Y-75539107D01*
X115759120Y-75448852D01*
X115791631Y-75356185D01*
X115805805Y-75316213D01*
X115836839Y-75228379D01*
X115868793Y-75136810D01*
X115896626Y-75055997D01*
X115907055Y-75025242D01*
X115931114Y-74954420D01*
X115962855Y-74862217D01*
X116002985Y-74746602D01*
X116052211Y-74605546D01*
X116111241Y-74437020D01*
X116180782Y-74238994D01*
X116208246Y-74160889D01*
X116243467Y-74060543D01*
X116276289Y-73966645D01*
X116304394Y-73885860D01*
X116325462Y-73824851D01*
X116336311Y-73792897D01*
X116351774Y-73747263D01*
X116374950Y-73680033D01*
X116402144Y-73601886D01*
X116419179Y-73553275D01*
X116444866Y-73480103D01*
X116478650Y-73383737D01*
X116517337Y-73273298D01*
X116557731Y-73157906D01*
X116590068Y-73065472D01*
X116620748Y-72977992D01*
X118530003Y-72977992D01*
X118538574Y-72994032D01*
X118560915Y-73022078D01*
X118596673Y-73066104D01*
X118631263Y-73108261D01*
X118892556Y-73447327D01*
X119140513Y-73813056D01*
X119371836Y-74199382D01*
X119583222Y-74600239D01*
X119771373Y-75009562D01*
X119932986Y-75421285D01*
X120004973Y-75632857D01*
X120119358Y-76020255D01*
X120207943Y-76394064D01*
X120271935Y-76761728D01*
X120312542Y-77130692D01*
X120330971Y-77508402D01*
X120332410Y-77652533D01*
X120323921Y-77988516D01*
X120297767Y-78301108D01*
X120253000Y-78596793D01*
X120188670Y-78882054D01*
X120116982Y-79123968D01*
X119997080Y-79441642D01*
X119854092Y-79734618D01*
X119687337Y-80004078D01*
X119496134Y-80251205D01*
X119417048Y-80339372D01*
X119364544Y-80395847D01*
X119334340Y-80429452D01*
X119325279Y-80442251D01*
X119336206Y-80436309D01*
X119365964Y-80413688D01*
X119382816Y-80400483D01*
X119434111Y-80359446D01*
X119500765Y-80305093D01*
X119572017Y-80246233D01*
X119607819Y-80216343D01*
X119687169Y-80146183D01*
X119782109Y-80056504D01*
X119886150Y-79953946D01*
X119992799Y-79845147D01*
X120095568Y-79736747D01*
X120187965Y-79635386D01*
X120263500Y-79547702D01*
X120273973Y-79534910D01*
X120529889Y-79192683D01*
X120756304Y-78834254D01*
X120952806Y-78461471D01*
X121118983Y-78076176D01*
X121254422Y-77680215D01*
X121358712Y-77275434D01*
X121431440Y-76863677D01*
X121472195Y-76446788D01*
X121480565Y-76026614D01*
X121456136Y-75604998D01*
X121398498Y-75183786D01*
X121324290Y-74832337D01*
X121205968Y-74421762D01*
X121056399Y-74024830D01*
X120876108Y-73642450D01*
X120665624Y-73275531D01*
X120425472Y-72924982D01*
X120156181Y-72591713D01*
X119858278Y-72276632D01*
X119821957Y-72241362D01*
X119735731Y-72160385D01*
X119644313Y-72078042D01*
X119551813Y-71997691D01*
X119462341Y-71922686D01*
X119380005Y-71856383D01*
X119308917Y-71802137D01*
X119253185Y-71763304D01*
X119216920Y-71743239D01*
X119209436Y-71741257D01*
X119189029Y-71755634D01*
X119155376Y-71800541D01*
X119108975Y-71875158D01*
X119050327Y-71978663D01*
X118979931Y-72110236D01*
X118950480Y-72166887D01*
X118918308Y-72227594D01*
X118878263Y-72300970D01*
X118843191Y-72363719D01*
X118803798Y-72434151D01*
X118757485Y-72518394D01*
X118713294Y-72599978D01*
X118706909Y-72611900D01*
X118664659Y-72690775D01*
X118619705Y-72774415D01*
X118580688Y-72846748D01*
X118575082Y-72857104D01*
X118544801Y-72915846D01*
X118530483Y-72953488D01*
X118530003Y-72977992D01*
X116620748Y-72977992D01*
X116625648Y-72964020D01*
X116658603Y-72870603D01*
X116686799Y-72791221D01*
X116708106Y-72731873D01*
X116720392Y-72698556D01*
X116720727Y-72697691D01*
X116728019Y-72678243D01*
X116731137Y-72661404D01*
X116727118Y-72644847D01*
X116712995Y-72626244D01*
X116685804Y-72603267D01*
X116642579Y-72573588D01*
X116580356Y-72534879D01*
X116496169Y-72484813D01*
X116387053Y-72421062D01*
X116314774Y-72378992D01*
X116093637Y-72263227D01*
X115849675Y-72158470D01*
X115593529Y-72068520D01*
X115335838Y-71997177D01*
X115125584Y-71954344D01*
X114985647Y-71935903D01*
X114829159Y-71923402D01*
X114668075Y-71917255D01*
X114514351Y-71917876D01*
X114379941Y-71925679D01*
X114359299Y-71927813D01*
X114302821Y-71936200D01*
X114227305Y-71950215D01*
X114141533Y-71967904D01*
X114054289Y-71987313D01*
X113974356Y-72006487D01*
X113910517Y-72023472D01*
X113871556Y-72036315D01*
X113871495Y-72036341D01*
X113837649Y-72050136D01*
X113784448Y-72071048D01*
X113734568Y-72090273D01*
X113595211Y-72151513D01*
X113446694Y-72230521D01*
X113302575Y-72319457D01*
X113176413Y-72410482D01*
X113165403Y-72419320D01*
X113131184Y-72449658D01*
X113080022Y-72498089D01*
X113018226Y-72558307D01*
X112952111Y-72624008D01*
X112887985Y-72688884D01*
X112832163Y-72746630D01*
X112790954Y-72790939D01*
X112775643Y-72808733D01*
X112735748Y-72860639D01*
X112693026Y-72919392D01*
X112656395Y-72972518D01*
X112639150Y-72999680D01*
X112622747Y-73027412D01*
X112594197Y-73075573D01*
X112558838Y-73135161D01*
X112547607Y-73154079D01*
X112485557Y-73268377D01*
X112421777Y-73402801D01*
X112362016Y-73544073D01*
X112312028Y-73678915D01*
X112289438Y-73750108D01*
X112257460Y-73864256D01*
X112226880Y-73981555D01*
X112199687Y-74093700D01*
X112177869Y-74192386D01*
X112163414Y-74269308D01*
X112160656Y-74288070D01*
X112153042Y-74338852D01*
X112146023Y-74374186D01*
X112143198Y-74382734D01*
X112136851Y-74409061D01*
X112130854Y-74463458D01*
X112125333Y-74540516D01*
X112120413Y-74634821D01*
X112116217Y-74740963D01*
X112112871Y-74853528D01*
X112110500Y-74967107D01*
X112109228Y-75076286D01*
X112109180Y-75175654D01*
X112053328Y-75175654D01*
X112050773Y-75155160D01*
X112036292Y-74990183D01*
X112025634Y-74813712D01*
X112019383Y-74637062D01*
X112018121Y-74471553D01*
X112020601Y-74366280D01*
X112050037Y-73966811D01*
X112105065Y-73590038D01*
X112185703Y-73235901D01*
X112291972Y-72904338D01*
X112423892Y-72595288D01*
X112581482Y-72308689D01*
X112764763Y-72044480D01*
X112775564Y-72030629D01*
X112845368Y-71947447D01*
X112932067Y-71852805D01*
X113026891Y-71755608D01*
X113121070Y-71664763D01*
X113205832Y-71589174D01*
X113229649Y-71569570D01*
X113261482Y-71543006D01*
X113268161Y-71534388D01*
X113249035Y-71544080D01*
X113203454Y-71572444D01*
X113130767Y-71619843D01*
X113084164Y-71650722D01*
X112801132Y-71855161D01*
X112522674Y-72087641D01*
X112255018Y-72342010D01*
X112004393Y-72612117D01*
X111777026Y-72891810D01*
X111651749Y-73065472D01*
X111420452Y-73432127D01*
X111220740Y-73810856D01*
X111052794Y-74200110D01*
X110916794Y-74598340D01*
X110812921Y-75003997D01*
X110741356Y-75415532D01*
X110702279Y-75831396D01*
X110695871Y-76250040D01*
X110124560Y-76250040D01*
X110121588Y-76156622D01*
X110128337Y-75847164D01*
X110150634Y-75534983D01*
X110174421Y-75327986D01*
X110250264Y-74888323D01*
X110357891Y-74459412D01*
X110496160Y-74042639D01*
X110663930Y-73639390D01*
X110860057Y-73251050D01*
X111083402Y-72879004D01*
X111332822Y-72524637D01*
X111607175Y-72189335D01*
X111905321Y-71874484D01*
X112226117Y-71581468D01*
X112568421Y-71311673D01*
X112872404Y-71106162D01*
G37*
%TD*%
M02*
