M48
; DRILL file {KiCad 7.0.1-0} date 2023 May 22, Monday 13:41:15
; FORMAT={-:-/ absolute / inch / decimal}
; #@! TF.CreationDate,2023-05-22T13:41:15+09:00
; #@! TF.GenerationSoftware,Kicad,Pcbnew,7.0.1-0
; #@! TF.FileFunction,NonPlated,1,2,NPTH
FMAT,2
INCH
; #@! TA.AperFunction,NonPlated,NPTH,ComponentDrill
T1C0.1260
; #@! TA.AperFunction,NonPlated,NPTH,ComponentDrill
T2C0.1693
; #@! TA.AperFunction,NonPlated,NPTH,ComponentDrill
T3C0.3228
; #@! TA.AperFunction,NonPlated,NPTH,ComponentDrill
T4C0.4016
%
G90
G05
T1
X3.3314Y-3.4405
X3.4186Y-2.7781
X3.4186Y-4.1028
X3.6743Y-2.1609
X3.6743Y-4.72
X4.0809Y-1.6309
X4.0809Y-5.25
X4.6109Y-1.2243
X4.6109Y-5.6567
X5.2281Y-0.9686
X5.2281Y-5.9123
X5.8905Y-0.8814
X5.8905Y-5.9995
X6.5528Y-0.9686
X6.5528Y-5.9123
X7.17Y-1.2243
X7.17Y-5.6567
X7.7Y-1.6309
X7.7Y-5.25
X8.1067Y-2.1609
X8.1067Y-4.72
X8.3623Y-2.7781
X8.3623Y-4.1028
X8.4495Y-3.4405
T2
X4.7094Y-2.2594
X4.7094Y-4.6216
X7.0716Y-2.2594
X7.0716Y-4.6216
T3
X5.1031Y-5.3302
X6.6779Y-5.3302
T4
X5.8905Y-5.409
T0
M30
