%TF.GenerationSoftware,KiCad,Pcbnew,7.0.1-0*%
%TF.CreationDate,2023-05-25T18:21:21+09:00*%
%TF.ProjectId,SystemData,53797374-656d-4446-9174-612e6b696361,rev?*%
%TF.SameCoordinates,Original*%
%TF.FileFunction,Soldermask,Top*%
%TF.FilePolarity,Negative*%
%FSLAX46Y46*%
G04 Gerber Fmt 4.6, Leading zero omitted, Abs format (unit mm)*
G04 Created by KiCad (PCBNEW 7.0.1-0) date 2023-05-25 18:21:21*
%MOMM*%
%LPD*%
G01*
G04 APERTURE LIST*
G04 Aperture macros list*
%AMRoundRect*
0 Rectangle with rounded corners*
0 $1 Rounding radius*
0 $2 $3 $4 $5 $6 $7 $8 $9 X,Y pos of 4 corners*
0 Add a 4 corners polygon primitive as box body*
4,1,4,$2,$3,$4,$5,$6,$7,$8,$9,$2,$3,0*
0 Add four circle primitives for the rounded corners*
1,1,$1+$1,$2,$3*
1,1,$1+$1,$4,$5*
1,1,$1+$1,$6,$7*
1,1,$1+$1,$8,$9*
0 Add four rect primitives between the rounded corners*
20,1,$1+$1,$2,$3,$4,$5,0*
20,1,$1+$1,$4,$5,$6,$7,0*
20,1,$1+$1,$6,$7,$8,$9,0*
20,1,$1+$1,$8,$9,$2,$3,0*%
G04 Aperture macros list end*
%ADD10C,4.500000*%
%ADD11C,2.250000*%
%ADD12RoundRect,0.250000X0.850000X0.350000X-0.850000X0.350000X-0.850000X-0.350000X0.850000X-0.350000X0*%
%ADD13RoundRect,0.249997X2.950003X2.650003X-2.950003X2.650003X-2.950003X-2.650003X2.950003X-2.650003X0*%
%ADD14RoundRect,0.237500X0.300000X0.237500X-0.300000X0.237500X-0.300000X-0.237500X0.300000X-0.237500X0*%
%ADD15RoundRect,0.237500X-0.237500X0.287500X-0.237500X-0.287500X0.237500X-0.287500X0.237500X0.287500X0*%
%ADD16RoundRect,0.237500X-0.237500X0.250000X-0.237500X-0.250000X0.237500X-0.250000X0.237500X0.250000X0*%
%ADD17RoundRect,0.237500X0.237500X-0.300000X0.237500X0.300000X-0.237500X0.300000X-0.237500X-0.300000X0*%
%ADD18RoundRect,0.237500X-0.300000X-0.237500X0.300000X-0.237500X0.300000X0.237500X-0.300000X0.237500X0*%
%ADD19RoundRect,0.237500X0.237500X-0.287500X0.237500X0.287500X-0.237500X0.287500X-0.237500X-0.287500X0*%
%ADD20R,1.500000X1.500000*%
%ADD21C,1.500000*%
%ADD22RoundRect,0.250000X0.300000X-0.300000X0.300000X0.300000X-0.300000X0.300000X-0.300000X-0.300000X0*%
%ADD23R,1.508000X1.508000*%
%ADD24C,1.508000*%
%ADD25RoundRect,0.250000X-0.450000X0.350000X-0.450000X-0.350000X0.450000X-0.350000X0.450000X0.350000X0*%
%ADD26RoundRect,0.250000X-1.500000X-0.550000X1.500000X-0.550000X1.500000X0.550000X-1.500000X0.550000X0*%
%ADD27RoundRect,0.237500X-0.250000X-0.237500X0.250000X-0.237500X0.250000X0.237500X-0.250000X0.237500X0*%
%ADD28RoundRect,0.237500X0.287500X0.237500X-0.287500X0.237500X-0.287500X-0.237500X0.287500X-0.237500X0*%
%ADD29RoundRect,0.250000X-0.350000X-0.450000X0.350000X-0.450000X0.350000X0.450000X-0.350000X0.450000X0*%
%ADD30RoundRect,0.250000X-0.350000X-0.560000X0.350000X-0.560000X0.350000X0.560000X-0.350000X0.560000X0*%
%ADD31O,1.200000X1.650000*%
%ADD32R,4.500000X2.000000*%
%ADD33RoundRect,0.237500X0.250000X0.237500X-0.250000X0.237500X-0.250000X-0.237500X0.250000X-0.237500X0*%
%ADD34R,1.600000X1.600000*%
%ADD35O,1.600000X1.600000*%
G04 APERTURE END LIST*
D10*
%TO.C,REF\u002A\u002A*%
X178500000Y-75000000D03*
%TD*%
D11*
%TO.C,TP2*%
X172122000Y-125573432D03*
%TD*%
D12*
%TO.C,U3*%
X172200000Y-113879432D03*
D13*
X165900000Y-111599432D03*
D12*
X172200000Y-109319432D03*
%TD*%
D14*
%TO.C,C2*%
X182722500Y-115100200D03*
X180997500Y-115100200D03*
%TD*%
D15*
%TO.C,D6*%
X166977500Y-62612700D03*
X166977500Y-64362700D03*
%TD*%
D16*
%TO.C,R8*%
X128500000Y-121587500D03*
X128500000Y-123412500D03*
%TD*%
D14*
%TO.C,C7*%
X171862500Y-106799432D03*
X170137500Y-106799432D03*
%TD*%
D17*
%TO.C,C5*%
X183044000Y-121890432D03*
X183044000Y-120165432D03*
%TD*%
D18*
%TO.C,C8*%
X184179500Y-85695432D03*
X185904500Y-85695432D03*
%TD*%
D19*
%TO.C,D7*%
X128500000Y-127875000D03*
X128500000Y-126125000D03*
%TD*%
D20*
%TO.C,U1*%
X193277500Y-119200200D03*
D21*
X190737500Y-119200200D03*
X188197500Y-119200200D03*
X185657500Y-119200200D03*
X185657500Y-126820200D03*
X188197500Y-126820200D03*
X190737500Y-126820200D03*
X193277500Y-126820200D03*
%TD*%
D22*
%TO.C,D2*%
X175400000Y-112999432D03*
X175400000Y-110199432D03*
%TD*%
D11*
%TO.C,U5*%
X103000000Y-86030000D03*
X103000000Y-126670000D03*
X123320000Y-86030000D03*
X123320000Y-126670000D03*
D23*
X103000000Y-89840000D03*
D24*
X103000000Y-92380000D03*
X103000000Y-94920000D03*
X103000000Y-97460000D03*
X103000000Y-100000000D03*
X103000000Y-102540000D03*
X103000000Y-105080000D03*
X103000000Y-107620000D03*
X103000000Y-110160000D03*
X103000000Y-112700000D03*
X103000000Y-115240000D03*
X103000000Y-117780000D03*
X103000000Y-120320000D03*
X103000000Y-122860000D03*
X123520000Y-122860000D03*
X123520000Y-120320000D03*
X123520000Y-117780000D03*
X123520000Y-115240000D03*
X123520000Y-112700000D03*
X123520000Y-110160000D03*
X123520000Y-107620000D03*
X123520000Y-105080000D03*
X123520000Y-102540000D03*
X123520000Y-100000000D03*
X123520000Y-97460000D03*
X123520000Y-94920000D03*
X123520000Y-92380000D03*
X123520000Y-89840000D03*
%TD*%
D25*
%TO.C,R6*%
X163977500Y-67412700D03*
X163977500Y-69412700D03*
%TD*%
D10*
%TO.C,REF\u002A\u002A*%
X118500000Y-135000000D03*
%TD*%
D25*
%TO.C,R4*%
X172977500Y-84500200D03*
X172977500Y-86500200D03*
%TD*%
D11*
%TO.C,U4*%
X158512500Y-56475000D03*
X138012500Y-56475000D03*
X158512500Y-113475000D03*
X138012500Y-113475000D03*
D23*
X138102500Y-76359800D03*
D24*
X138102500Y-78899800D03*
X138102500Y-81439800D03*
X138102500Y-83979800D03*
X138102500Y-86519800D03*
X138102500Y-89059800D03*
X138102500Y-91599800D03*
X138102500Y-94139800D03*
X138102500Y-96679800D03*
X138102500Y-99219800D03*
X138102500Y-101759800D03*
X138102500Y-104299800D03*
X138102500Y-106839800D03*
X138102500Y-109379800D03*
X158422500Y-109379800D03*
X158422500Y-106839800D03*
X158422500Y-104299800D03*
X158422500Y-101759800D03*
X158422500Y-99219800D03*
X158422500Y-96679800D03*
X158422500Y-94139800D03*
X158422500Y-91599800D03*
X158422500Y-89059800D03*
X158422500Y-86519800D03*
X158422500Y-83979800D03*
X158422500Y-81439800D03*
X158422500Y-78899800D03*
X158422500Y-76359800D03*
%TD*%
D26*
%TO.C,C6*%
X169800000Y-98499432D03*
X175400000Y-98499432D03*
%TD*%
D10*
%TO.C,REF\u002A\u002A*%
X178500000Y-135000000D03*
%TD*%
D19*
%TO.C,D3*%
X172977500Y-90125200D03*
X172977500Y-88375200D03*
%TD*%
D27*
%TO.C,R1*%
X192987500Y-129000000D03*
X194812500Y-129000000D03*
%TD*%
D17*
%TO.C,C4*%
X183044000Y-126462700D03*
X183044000Y-124737700D03*
%TD*%
D14*
%TO.C,C1*%
X196064500Y-85695432D03*
X194339500Y-85695432D03*
%TD*%
%TO.C,C3*%
X170562500Y-116299432D03*
X168837500Y-116299432D03*
%TD*%
D10*
%TO.C,REF\u002A\u002A*%
X118500000Y-75000000D03*
%TD*%
D15*
%TO.C,D5*%
X166977500Y-67625200D03*
X166977500Y-69375200D03*
%TD*%
D11*
%TO.C,TP1*%
X172100000Y-129129432D03*
%TD*%
D28*
%TO.C,D1*%
X176265000Y-119500200D03*
X174515000Y-119500200D03*
%TD*%
D29*
%TO.C,R3*%
X180985000Y-111790200D03*
X182985000Y-111790200D03*
%TD*%
D30*
%TO.C,J1*%
X162000000Y-131690000D03*
D31*
X162000000Y-133690000D03*
X164000000Y-131690000D03*
X164000000Y-133690000D03*
X166000000Y-131690000D03*
X166000000Y-133690000D03*
X168000000Y-131690000D03*
X168000000Y-133690000D03*
%TD*%
D25*
%TO.C,R7*%
X163890000Y-62487700D03*
X163890000Y-64487700D03*
%TD*%
D20*
%TO.C,U2*%
X193097500Y-115040200D03*
D21*
X193097500Y-112500200D03*
X193097500Y-109960200D03*
X193097500Y-107420200D03*
X193097500Y-104880200D03*
X193097500Y-102340200D03*
X193097500Y-99800200D03*
X193097500Y-97260200D03*
X193097500Y-94720200D03*
X185477500Y-94720200D03*
X185477500Y-97260200D03*
X185477500Y-99800200D03*
X185477500Y-102340200D03*
X185477500Y-104880200D03*
X185477500Y-107420200D03*
X185477500Y-109960200D03*
X185477500Y-112500200D03*
X185477500Y-115040200D03*
%TD*%
D32*
%TO.C,Y1*%
X185872000Y-89759432D03*
X194372000Y-89759432D03*
%TD*%
D33*
%TO.C,R2*%
X176302500Y-117500200D03*
X174477500Y-117500200D03*
%TD*%
D34*
%TO.C,SW1*%
X130750000Y-59774432D03*
D35*
X128210000Y-59774432D03*
X128210000Y-67394432D03*
X130750000Y-67394432D03*
%TD*%
D19*
%TO.C,D4*%
X179477500Y-90125200D03*
X179477500Y-88375200D03*
%TD*%
D25*
%TO.C,R5*%
X179477500Y-84337700D03*
X179477500Y-86337700D03*
%TD*%
M02*
