M48
; DRILL file {KiCad 7.0.1-0} date 2023 May 23, Tuesday 14:03:26
; FORMAT={-:-/ absolute / inch / decimal}
; #@! TF.CreationDate,2023-05-23T14:03:26+09:00
; #@! TF.GenerationSoftware,Kicad,Pcbnew,7.0.1-0
; #@! TF.FileFunction,Plated,1,2,PTH
FMAT,2
INCH
; #@! TA.AperFunction,Plated,PTH,ViaDrill
T1C0.0098
; #@! TA.AperFunction,Plated,PTH,ComponentDrill
T2C0.0315
; #@! TA.AperFunction,Plated,PTH,ComponentDrill
T3C0.0335
; #@! TA.AperFunction,Plated,PTH,ComponentDrill
T4C0.0394
; #@! TA.AperFunction,Plated,PTH,ComponentDrill
T5C0.0591
%
G90
G05
T1
X3.752Y-4.0
X3.7756Y-4.5118
X3.9252Y-3.252
X3.9961Y-5.1732
X4.1614Y-4.6299
X4.2008Y-4.1417
X4.2244Y-3.6063
X4.2874Y-3.1417
X4.3031Y-5.2362
X4.3583Y-2.6693
X4.437Y-4.4094
X4.437Y-4.9134
X4.4528Y-3.937
X4.4606Y-5.6378
X4.7362Y-4.6457
X4.7441Y-3.6142
X4.7441Y-4.1575
X4.752Y-2.6693
X4.9173Y-2.2677
X4.9724Y-3.0709
X4.9961Y-4.2047
X5.0118Y-3.7165
X5.0118Y-4.6378
X5.0433Y-5.252
X5.1378Y-4.7087
X5.1535Y-2.8425
X5.2402Y-3.1024
X5.2402Y-3.4488
X5.2559Y-2.2992
X5.2953Y-4.0709
X5.3661Y-3.7087
X5.3661Y-4.2677
X5.374Y-3.8583
X5.437Y-4.3937
X5.4449Y-5.6535
X5.4921Y-4.0551
X5.5079Y-4.2598
X5.5315Y-3.8031
X5.5315Y-5.4173
X5.5472Y-2.7874
X5.5551Y-2.4252
X5.5787Y-4.8661
X5.6181Y-3.1811
X5.6181Y-3.3858
X5.6339Y-3.9213
X5.6417Y-3.5669
X5.7087Y-3.878
X5.7329Y-3.3588
X5.7362Y-3.9685
X5.7404Y-3.4136
X5.7441Y-3.2756
X5.752Y-3.5039
X5.8307Y-2.0079
X5.8622Y-4.4567
X5.8858Y-5.1575
X5.9567Y-2.8346
X5.9961Y-3.4646
X5.9961Y-3.7874
X5.9961Y-4.2047
X6.0433Y-2.4173
X6.1457Y-4.9055
X6.1535Y-3.063
X6.1693Y-2.8346
X6.2087Y-5.3465
X6.2717Y-2.5197
X6.2874Y-4.2677
X6.2953Y-3.8583
X6.2953Y-4.1496
X6.3031Y-3.1654
X6.3031Y-3.3386
X6.3031Y-4.6535
X6.311Y-3.0394
X6.3504Y-2.6063
X6.3976Y-2.7087
X6.4134Y-3.3622
X6.4134Y-3.6929
X6.4134Y-3.9606
X6.4213Y-4.5039
X6.4213Y-4.6299
X6.4449Y-5.6614
X6.4528Y-2.9213
X6.4769Y-4.7947
X6.4843Y-4.8898
X6.5079Y-2.4803
X6.5079Y-4.8268
X6.5157Y-2.5984
X6.5472Y-3.6535
X6.563Y-3.1653
X6.563Y-4.9803
X6.5787Y-4.748
X6.5866Y-5.4252
X6.5906Y-4.1378
X6.6181Y-5.0551
X6.6496Y-3.1181
X6.6732Y-4.0197
X6.7126Y-3.3071
X6.7126Y-3.7323
X6.7283Y-3.0551
X6.7362Y-4.8327
X6.7717Y-4.3897
X6.7905Y-4.8327
X6.7913Y-4.7949
X6.7992Y-3.2677
X6.8071Y-4.7402
X6.8228Y-2.6063
X6.8307Y-2.2677
X6.8386Y-4.8819
X6.8583Y-4.248
X6.9331Y-3.2677
X6.9567Y-3.3701
X6.9606Y-4.0197
X6.9606Y-4.4016
X6.9877Y-4.6461
X6.9882Y-4.7402
X6.9961Y-4.1575
X7.0039Y-4.5748
X7.007Y-4.0551
X7.0188Y-4.6772
X7.0433Y-3.8031
X7.0433Y-4.9606
X7.0669Y-4.0945
X7.0748Y-4.4173
X7.0906Y-4.6378
X7.0984Y-4.7559
X7.1063Y-4.8346
X7.122Y-4.7795
X7.1365Y-4.7188
X7.2008Y-4.0787
X7.2323Y-3.9685
X7.2402Y-4.4803
X7.248Y-4.1732
X7.248Y-4.2756
X7.248Y-4.378
X7.2559Y-5.6535
X7.2717Y-3.5276
X7.2795Y-4.6142
X7.2953Y-5.2047
X7.3425Y-4.7559
X7.3504Y-2.6693
X7.3504Y-4.9213
X7.3583Y-5.0394
X7.374Y-3.2362
X7.374Y-4.5118
X7.374Y-4.6378
X7.3819Y-3.7008
X7.3819Y-4.0866
X7.4764Y-3.5276
X7.5236Y-3.7953
X7.5236Y-3.9764
X7.5236Y-4.3701
X7.5394Y-4.4882
X7.5551Y-4.6142
X7.5551Y-5.0472
X7.6496Y-4.8425
X7.6654Y-4.6142
X7.6732Y-3.5354
X7.7047Y-4.3622
X7.7205Y-3.8819
X7.7205Y-5.1732
X7.7756Y-3.2598
X7.9252Y-4.5118
X7.9488Y-4.0079
T2
X5.0476Y-2.3533
X5.0476Y-2.6533
X5.1476Y-2.3533
X5.1476Y-2.6533
T3
X6.378Y-5.1846
X6.378Y-5.2634
X6.4567Y-5.1846
X6.4567Y-5.2634
X6.5354Y-5.1846
X6.5354Y-5.2634
X6.6142Y-5.1846
X6.6142Y-5.2634
T4
X4.0551Y-3.537
X4.0551Y-3.637
X4.0551Y-3.737
X4.0551Y-3.837
X4.0551Y-3.937
X4.0551Y-4.037
X4.0551Y-4.137
X4.0551Y-4.237
X4.0551Y-4.337
X4.0551Y-4.437
X4.0551Y-4.537
X4.0551Y-4.637
X4.0551Y-4.737
X4.0551Y-4.837
X4.863Y-3.537
X4.863Y-3.637
X4.863Y-3.737
X4.863Y-3.837
X4.863Y-3.937
X4.863Y-4.037
X4.863Y-4.137
X4.863Y-4.237
X4.863Y-4.337
X4.863Y-4.437
X4.863Y-4.537
X4.863Y-4.637
X4.863Y-4.737
X4.863Y-4.837
X5.4371Y-3.0063
X5.4371Y-3.1063
X5.4371Y-3.2063
X5.4371Y-3.3063
X5.4371Y-3.4063
X5.4371Y-3.5063
X5.4371Y-3.6063
X5.4371Y-3.7063
X5.4371Y-3.8063
X5.4371Y-3.9063
X5.4371Y-4.0063
X5.4371Y-4.1063
X5.4371Y-4.2063
X5.4371Y-4.3063
X6.2371Y-3.0063
X6.2371Y-3.1063
X6.2371Y-3.2063
X6.2371Y-3.3063
X6.2371Y-3.4063
X6.2371Y-3.5063
X6.2371Y-3.6063
X6.2371Y-3.7063
X6.2371Y-3.8063
X6.2371Y-3.9063
X6.2371Y-4.0063
X6.2371Y-4.1063
X6.2371Y-4.2063
X6.2371Y-4.3063
X7.3023Y-3.7291
X7.3023Y-3.8291
X7.3023Y-3.9291
X7.3023Y-4.0291
X7.3023Y-4.1291
X7.3023Y-4.2291
X7.3023Y-4.3291
X7.3023Y-4.4291
X7.3023Y-4.5291
X7.3094Y-4.6929
X7.3094Y-4.9929
X7.3633Y-3.3858
X7.4094Y-4.6929
X7.4094Y-4.9929
X7.5094Y-4.6929
X7.5094Y-4.9929
X7.5554Y-3.3858
X7.6023Y-3.7291
X7.6023Y-3.8291
X7.6023Y-3.9291
X7.6023Y-4.0291
X7.6023Y-4.1291
X7.6023Y-4.2291
X7.6023Y-4.3291
X7.6023Y-4.4291
X7.6023Y-4.5291
X7.6094Y-4.6929
X7.6094Y-4.9929
T5
X6.7756Y-4.9488
X6.7756Y-5.0748
T0
M30
