%TF.GenerationSoftware,KiCad,Pcbnew,7.0.1-0*%
%TF.CreationDate,2023-05-24T18:26:20+09:00*%
%TF.ProjectId,SystemData,53797374-656d-4446-9174-612e6b696361,rev?*%
%TF.SameCoordinates,Original*%
%TF.FileFunction,Paste,Top*%
%TF.FilePolarity,Positive*%
%FSLAX46Y46*%
G04 Gerber Fmt 4.6, Leading zero omitted, Abs format (unit mm)*
G04 Created by KiCad (PCBNEW 7.0.1-0) date 2023-05-24 18:26:20*
%MOMM*%
%LPD*%
G01*
G04 APERTURE LIST*
G04 Aperture macros list*
%AMRoundRect*
0 Rectangle with rounded corners*
0 $1 Rounding radius*
0 $2 $3 $4 $5 $6 $7 $8 $9 X,Y pos of 4 corners*
0 Add a 4 corners polygon primitive as box body*
4,1,4,$2,$3,$4,$5,$6,$7,$8,$9,$2,$3,0*
0 Add four circle primitives for the rounded corners*
1,1,$1+$1,$2,$3*
1,1,$1+$1,$4,$5*
1,1,$1+$1,$6,$7*
1,1,$1+$1,$8,$9*
0 Add four rect primitives between the rounded corners*
20,1,$1+$1,$2,$3,$4,$5,0*
20,1,$1+$1,$4,$5,$6,$7,0*
20,1,$1+$1,$6,$7,$8,$9,0*
20,1,$1+$1,$8,$9,$2,$3,0*%
G04 Aperture macros list end*
%ADD10RoundRect,0.250000X0.850000X0.350000X-0.850000X0.350000X-0.850000X-0.350000X0.850000X-0.350000X0*%
%ADD11RoundRect,0.250000X1.275000X1.125000X-1.275000X1.125000X-1.275000X-1.125000X1.275000X-1.125000X0*%
%ADD12RoundRect,0.237500X0.300000X0.237500X-0.300000X0.237500X-0.300000X-0.237500X0.300000X-0.237500X0*%
%ADD13RoundRect,0.237500X-0.237500X0.287500X-0.237500X-0.287500X0.237500X-0.287500X0.237500X0.287500X0*%
%ADD14RoundRect,0.237500X-0.237500X0.250000X-0.237500X-0.250000X0.237500X-0.250000X0.237500X0.250000X0*%
%ADD15RoundRect,0.237500X0.237500X-0.300000X0.237500X0.300000X-0.237500X0.300000X-0.237500X-0.300000X0*%
%ADD16RoundRect,0.237500X0.237500X-0.287500X0.237500X0.287500X-0.237500X0.287500X-0.237500X-0.287500X0*%
%ADD17RoundRect,0.250000X0.300000X-0.300000X0.300000X0.300000X-0.300000X0.300000X-0.300000X-0.300000X0*%
%ADD18RoundRect,0.250000X-0.450000X0.350000X-0.450000X-0.350000X0.450000X-0.350000X0.450000X0.350000X0*%
%ADD19RoundRect,0.250000X-1.500000X-0.550000X1.500000X-0.550000X1.500000X0.550000X-1.500000X0.550000X0*%
%ADD20RoundRect,0.237500X-0.250000X-0.237500X0.250000X-0.237500X0.250000X0.237500X-0.250000X0.237500X0*%
%ADD21RoundRect,0.237500X0.287500X0.237500X-0.287500X0.237500X-0.287500X-0.237500X0.287500X-0.237500X0*%
%ADD22RoundRect,0.250000X-0.350000X-0.450000X0.350000X-0.450000X0.350000X0.450000X-0.350000X0.450000X0*%
%ADD23RoundRect,0.237500X0.250000X0.237500X-0.250000X0.237500X-0.250000X-0.237500X0.250000X-0.237500X0*%
%ADD24RoundRect,0.237500X-0.300000X-0.237500X0.300000X-0.237500X0.300000X0.237500X-0.300000X0.237500X0*%
G04 APERTURE END LIST*
D10*
%TO.C,U3*%
X172200000Y-113879432D03*
D11*
X167575000Y-113124432D03*
X167575000Y-110074432D03*
X164225000Y-113124432D03*
X164225000Y-110074432D03*
D10*
X172200000Y-109319432D03*
%TD*%
D12*
%TO.C,C2*%
X182722500Y-115100200D03*
X180997500Y-115100200D03*
%TD*%
D13*
%TO.C,D6*%
X166977500Y-62612700D03*
X166977500Y-64362700D03*
%TD*%
D14*
%TO.C,R8*%
X128500000Y-121587500D03*
X128500000Y-123412500D03*
%TD*%
D12*
%TO.C,C7*%
X171862500Y-106799432D03*
X170137500Y-106799432D03*
%TD*%
D15*
%TO.C,C5*%
X183044000Y-121890432D03*
X183044000Y-120165432D03*
%TD*%
D16*
%TO.C,D7*%
X128500000Y-127875000D03*
X128500000Y-126125000D03*
%TD*%
D17*
%TO.C,D2*%
X175400000Y-112999432D03*
X175400000Y-110199432D03*
%TD*%
D18*
%TO.C,R6*%
X163977500Y-67412700D03*
X163977500Y-69412700D03*
%TD*%
D12*
%TO.C,C1*%
X192840000Y-91000200D03*
X191115000Y-91000200D03*
%TD*%
D18*
%TO.C,R4*%
X172977500Y-84500200D03*
X172977500Y-86500200D03*
%TD*%
D19*
%TO.C,C6*%
X169900000Y-98499432D03*
X175300000Y-98499432D03*
%TD*%
D16*
%TO.C,D3*%
X172977500Y-90125200D03*
X172977500Y-88375200D03*
%TD*%
D20*
%TO.C,R1*%
X192987500Y-129000000D03*
X194812500Y-129000000D03*
%TD*%
D15*
%TO.C,C4*%
X183044000Y-126462700D03*
X183044000Y-124737700D03*
%TD*%
D12*
%TO.C,C3*%
X170562500Y-116299432D03*
X168837500Y-116299432D03*
%TD*%
D13*
%TO.C,D5*%
X166977500Y-67625200D03*
X166977500Y-69375200D03*
%TD*%
D21*
%TO.C,D1*%
X176265000Y-119500200D03*
X174515000Y-119500200D03*
%TD*%
D22*
%TO.C,R3*%
X180985000Y-111790200D03*
X182985000Y-111790200D03*
%TD*%
D18*
%TO.C,R7*%
X163890000Y-62487700D03*
X163890000Y-64487700D03*
%TD*%
D23*
%TO.C,R2*%
X176302500Y-117500200D03*
X174477500Y-117500200D03*
%TD*%
D24*
%TO.C,C8*%
X187115000Y-91000200D03*
X188840000Y-91000200D03*
%TD*%
D16*
%TO.C,D4*%
X179477500Y-90125200D03*
X179477500Y-88375200D03*
%TD*%
D18*
%TO.C,R5*%
X179477500Y-84337700D03*
X179477500Y-86337700D03*
%TD*%
M02*
