M48
; DRILL file {KiCad 7.0.1-0} date 2023 May 22, Monday 14:02:02
; FORMAT={-:-/ absolute / inch / decimal}
; #@! TF.CreationDate,2023-05-22T14:02:02+09:00
; #@! TF.GenerationSoftware,Kicad,Pcbnew,7.0.1-0
; #@! TF.FileFunction,Plated,1,2,PTH
FMAT,2
INCH
; #@! TA.AperFunction,Plated,PTH,ViaDrill
T1C0.0098
; #@! TA.AperFunction,Plated,PTH,ComponentDrill
T2C0.0315
; #@! TA.AperFunction,Plated,PTH,ComponentDrill
T3C0.0335
; #@! TA.AperFunction,Plated,PTH,ComponentDrill
T4C0.0394
; #@! TA.AperFunction,Plated,PTH,ComponentDrill
T5C0.0402
; #@! TA.AperFunction,Plated,PTH,ComponentDrill
T6C0.0591
%
G90
G05
T1
X3.7441Y-4.063
X3.815Y-4.6772
X3.9016Y-3.3386
X4.0512Y-5.1969
X4.0906Y-4.0472
X4.122Y-4.5512
X4.1299Y-4.685
X4.1457Y-4.1496
X4.1772Y-4.7559
X4.2008Y-3.3543
X4.2126Y-4.2717
X4.248Y-4.6614
X4.2953Y-4.2913
X4.2953Y-4.4016
X4.2953Y-4.4961
X4.3031Y-4.8976
X4.311Y-4.5984
X4.3583Y-2.6535
X4.374Y-3.5039
X4.3819Y-5.6299
X4.4055Y-4.8898
X4.4134Y-4.5984
X4.4528Y-3.8504
X4.4587Y-4.5866
X4.4788Y-4.4985
X4.5Y-4.3858
X4.5433Y-4.559
X4.5551Y-3.4882
X4.5551Y-3.622
X4.6102Y-4.063
X4.6417Y-4.748
X4.6457Y-4.4291
X4.7362Y-3.8583
X4.7362Y-4.0945
X4.7441Y-4.315
X4.7441Y-4.8504
X4.7677Y-3.6063
X4.7756Y-3.4961
X4.7835Y-4.0846
X4.7835Y-4.4291
X4.8228Y-3.8661
X4.8228Y-4.1496
X4.8307Y-4.2992
X4.8386Y-3.3465
X4.878Y-3.7087
X4.878Y-4.4803
X4.8937Y-4.9843
X4.9094Y-2.2362
X4.9685Y-4.5748
X4.9724Y-4.7008
X5.0118Y-2.8268
X5.0118Y-4.4803
X5.0276Y-5.0157
X5.0433Y-4.0866
X5.0512Y-3.6142
X5.0591Y-4.3602
X5.0591Y-4.3996
X5.0669Y-4.3071
X5.0748Y-4.189
X5.0787Y-4.124
X5.0827Y-4.6929
X5.0886Y-4.5802
X5.0984Y-3.811
X5.0984Y-5.4016
X5.1457Y-3.9921
X5.1614Y-4.7953
X5.1772Y-4.6457
X5.1772Y-5.0157
X5.2067Y-4.252
X5.2067Y-4.3012
X5.2087Y-3.9606
X5.2087Y-4.0551
X5.2087Y-4.189
X5.2244Y-5.6535
X5.2323Y-4.3543
X5.248Y-4.4803
X5.2559Y-4.7402
X5.2717Y-4.8504
X5.2953Y-3.4331
X5.3031Y-3.5669
X5.3031Y-3.9449
X5.3051Y-4.0059
X5.3189Y-3.7717
X5.3425Y-4.2441
X5.3642Y-3.563
X5.3976Y-4.6535
X5.5Y-3.6535
X5.5157Y-3.4252
X5.5157Y-3.9685
X5.5394Y-5.3701
X5.5472Y-5.0709
X5.5551Y-2.3701
X5.5827Y-3.2598
X5.5866Y-2.7795
X5.6339Y-3.5827
X5.6417Y-3.1339
X5.6417Y-4.2047
X5.7992Y-3.2047
X5.815Y-4.6535
X5.8228Y-4.2992
X5.8307Y-3.8976
X5.8307Y-4.8504
X5.8386Y-2.0157
X5.878Y-5.2283
X5.8858Y-4.6654
X5.8858Y-4.8425
X5.9252Y-4.8661
X5.9331Y-3.8976
X5.9331Y-4.2441
X5.9331Y-4.6378
X5.9331Y-5.126
X5.9646Y-2.7953
X5.9646Y-5.2913
X5.9744Y-4.6654
X5.9744Y-4.8425
X5.9882Y-3.4567
X6.0276Y-4.0315
X6.0276Y-4.3228
X6.0276Y-4.6378
X6.063Y-2.3622
X6.0827Y-5.0079
X6.122Y-4.7402
X6.122Y-4.8425
X6.1378Y-3.0945
X6.1535Y-3.6378
X6.1614Y-3.8583
X6.1772Y-2.8268
X6.1772Y-3.7559
X6.185Y-4.378
X6.2717Y-4.9843
X6.2953Y-4.2677
X6.3031Y-2.4646
X6.3031Y-2.9528
X6.3031Y-3.1654
X6.3031Y-3.3543
X6.3031Y-3.8661
X6.3031Y-4.1575
X6.3189Y-4.6693
X6.3346Y-2.6063
X6.3661Y-4.7638
X6.3898Y-5.4567
X6.3976Y-2.7087
X6.4134Y-3.378
X6.4213Y-3.9567
X6.4291Y-4.5118
X6.4291Y-5.6535
X6.4311Y-4.6555
X6.4331Y-4.1614
X6.4528Y-2.9213
X6.4646Y-4.7835
X6.4685Y-4.8898
X6.5039Y-4.8228
X6.5079Y-3.7795
X6.5157Y-2.4803
X6.5315Y-3.1614
X6.5472Y-3.6535
X6.5748Y-4.9547
X6.5866Y-2.9055
X6.5945Y-4.748
X6.6102Y-5.0551
X6.6358Y-4.2697
X6.6417Y-3.1102
X6.6811Y-4.0197
X6.7047Y-2.2283
X6.7283Y-3.4488
X6.7362Y-4.8327
X6.7441Y-5.1968
X6.752Y-4.4882
X6.7913Y-4.7933
X6.7913Y-4.8327
X6.8071Y-3.2756
X6.8071Y-4.748
X6.8228Y-4.8819
X6.8366Y-3.8464
X6.9331Y-3.2598
X6.937Y-4.1378
X6.9567Y-4.3169
X6.9961Y-4.7402
X7.0Y-4.6575
X7.0079Y-4.0551
X7.0157Y-4.8858
X7.0197Y-4.6772
X7.0236Y-4.0157
X7.0354Y-4.563
X7.0945Y-4.0984
X7.0984Y-4.7559
X7.1063Y-4.4606
X7.1063Y-4.6142
X7.1063Y-4.8346
X7.1142Y-4.7165
X7.122Y-4.7795
X7.1614Y-3.6772
X7.1654Y-4.0748
X7.2165Y-3.9685
X7.2559Y-4.1732
X7.2559Y-4.2716
X7.2638Y-4.6063
X7.2953Y-5.6378
X7.311Y-3.0945
X7.3268Y-2.6535
X7.3425Y-4.7559
X7.3504Y-3.5118
X7.3819Y-4.4961
X7.4134Y-4.9134
X7.4843Y-3.5276
X7.5236Y-4.1811
X7.5315Y-4.378
X7.5315Y-4.4961
X7.5551Y-5.0394
X7.6181Y-3.5276
X7.6417Y-5.2283
X7.6732Y-4.622
X7.6811Y-4.1732
X7.7756Y-3.3307
X7.8858Y-4.6772
X7.9488Y-4.1102
T2
X5.0516Y-2.3455
X5.0516Y-2.6455
X5.1516Y-2.3455
X5.1516Y-2.6455
T3
X6.378Y-5.1846
X6.378Y-5.2634
X6.4567Y-5.1846
X6.4567Y-5.2634
X6.5354Y-5.1846
X6.5354Y-5.2634
X6.6142Y-5.1846
X6.6142Y-5.2634
T4
X4.063Y-4.1614
X4.063Y-4.2614
X4.063Y-4.3614
X4.063Y-4.4614
X4.063Y-4.6437
X4.063Y-4.7437
X4.063Y-4.8437
X4.063Y-4.9437
X4.363Y-4.1614
X4.363Y-4.2614
X4.363Y-4.3614
X4.363Y-4.4614
X4.363Y-4.6437
X4.363Y-4.7437
X4.363Y-4.8437
X4.363Y-4.9437
X4.7829Y-4.6142
X4.7829Y-4.9142
X4.8829Y-4.6142
X4.8829Y-4.9142
X5.4371Y-3.0063
X5.4371Y-3.1063
X5.4371Y-3.2063
X5.4371Y-3.3063
X5.4371Y-3.4063
X5.4371Y-3.5063
X5.4371Y-3.6063
X5.4371Y-3.7063
X5.4371Y-3.8063
X5.4371Y-3.9063
X5.4371Y-4.0063
X5.4371Y-4.1063
X5.4371Y-4.2063
X5.4371Y-4.3063
X6.2371Y-3.0063
X6.2371Y-3.1063
X6.2371Y-3.2063
X6.2371Y-3.3063
X6.2371Y-3.4063
X6.2371Y-3.5063
X6.2371Y-3.6063
X6.2371Y-3.7063
X6.2371Y-3.8063
X6.2371Y-3.9063
X6.2371Y-4.0063
X6.2371Y-4.1063
X6.2371Y-4.2063
X6.2371Y-4.3063
X7.3031Y-3.7291
X7.3031Y-3.8291
X7.3031Y-3.9291
X7.3031Y-4.0291
X7.3031Y-4.1291
X7.3031Y-4.2291
X7.3031Y-4.3291
X7.3031Y-4.4291
X7.3031Y-4.5291
X7.3102Y-4.6929
X7.3102Y-4.9929
X7.3642Y-3.3858
X7.4102Y-4.6929
X7.4102Y-4.9929
X7.5102Y-4.6929
X7.5102Y-4.9929
X7.5563Y-3.3858
X7.6031Y-3.7291
X7.6031Y-3.8291
X7.6031Y-3.9291
X7.6031Y-4.0291
X7.6031Y-4.1291
X7.6031Y-4.2291
X7.6031Y-4.3291
X7.6031Y-4.4291
X7.6031Y-4.5291
X7.6102Y-4.6929
X7.6102Y-4.9929
T5
X5.822Y-5.0777
X5.822Y-5.1777
X5.822Y-5.2777
X5.822Y-5.3777
X5.822Y-5.4777
X6.122Y-5.0777
X6.122Y-5.1777
X6.122Y-5.2777
X6.122Y-5.3777
X6.122Y-5.4777
T6
X4.6299Y-4.6732
X6.7717Y-4.9527
X6.7717Y-5.0787
T0
M30
