%TF.GenerationSoftware,KiCad,Pcbnew,7.0.1-0*%
%TF.CreationDate,2023-05-23T13:55:37+09:00*%
%TF.ProjectId,MissionModule,4d697373-696f-46e4-9d6f-64756c652e6b,rev?*%
%TF.SameCoordinates,Original*%
%TF.FileFunction,Copper,L2,Bot*%
%TF.FilePolarity,Positive*%
%FSLAX46Y46*%
G04 Gerber Fmt 4.6, Leading zero omitted, Abs format (unit mm)*
G04 Created by KiCad (PCBNEW 7.0.1-0) date 2023-05-23 13:55:37*
%MOMM*%
%LPD*%
G01*
G04 APERTURE LIST*
G04 Aperture macros list*
%AMRoundRect*
0 Rectangle with rounded corners*
0 $1 Rounding radius*
0 $2 $3 $4 $5 $6 $7 $8 $9 X,Y pos of 4 corners*
0 Add a 4 corners polygon primitive as box body*
4,1,4,$2,$3,$4,$5,$6,$7,$8,$9,$2,$3,0*
0 Add four circle primitives for the rounded corners*
1,1,$1+$1,$2,$3*
1,1,$1+$1,$4,$5*
1,1,$1+$1,$6,$7*
1,1,$1+$1,$8,$9*
0 Add four rect primitives between the rounded corners*
20,1,$1+$1,$2,$3,$4,$5,0*
20,1,$1+$1,$4,$5,$6,$7,0*
20,1,$1+$1,$6,$7,$8,$9,0*
20,1,$1+$1,$8,$9,$2,$3,0*%
G04 Aperture macros list end*
%TA.AperFunction,ComponentPad*%
%ADD10C,2.250000*%
%TD*%
%TA.AperFunction,ComponentPad*%
%ADD11R,1.500000X1.500000*%
%TD*%
%TA.AperFunction,ComponentPad*%
%ADD12C,1.500000*%
%TD*%
%TA.AperFunction,ComponentPad*%
%ADD13R,1.530000X1.530000*%
%TD*%
%TA.AperFunction,ComponentPad*%
%ADD14C,1.530000*%
%TD*%
%TA.AperFunction,ComponentPad*%
%ADD15R,1.600000X1.600000*%
%TD*%
%TA.AperFunction,ComponentPad*%
%ADD16O,1.600000X1.600000*%
%TD*%
%TA.AperFunction,ComponentPad*%
%ADD17R,1.508000X1.508000*%
%TD*%
%TA.AperFunction,ComponentPad*%
%ADD18C,1.508000*%
%TD*%
%TA.AperFunction,ComponentPad*%
%ADD19RoundRect,0.250000X-0.350000X-0.560000X0.350000X-0.560000X0.350000X0.560000X-0.350000X0.560000X0*%
%TD*%
%TA.AperFunction,ComponentPad*%
%ADD20O,1.200000X1.650000*%
%TD*%
%TA.AperFunction,ViaPad*%
%ADD21C,0.510000*%
%TD*%
%TA.AperFunction,Conductor*%
%ADD22C,0.500000*%
%TD*%
%TA.AperFunction,Conductor*%
%ADD23C,0.200000*%
%TD*%
%TA.AperFunction,Conductor*%
%ADD24C,0.300000*%
%TD*%
G04 APERTURE END LIST*
D10*
%TO.P,TP1,1,1*%
%TO.N,CAN_H*%
X172000000Y-128999432D03*
%TD*%
%TO.P,TP3,1,1*%
%TO.N,MEMORY_POWER*%
X117600000Y-118699432D03*
%TD*%
D11*
%TO.P,U8,1,~{CS}*%
%TO.N,SPI_CS_FRAM0*%
X103200000Y-105700000D03*
D12*
%TO.P,U8,2,SO*%
%TO.N,SPI_MISO*%
X103200000Y-108240000D03*
%TO.P,U8,3,~{WP}*%
%TO.N,GND*%
X103200000Y-110780000D03*
%TO.P,U8,4,GND*%
X103200000Y-113320000D03*
%TO.P,U8,5,SI*%
%TO.N,SPI_MOSI*%
X110820000Y-113320000D03*
%TO.P,U8,6,SCK*%
%TO.N,SPI_SCLK*%
X110820000Y-110780000D03*
%TO.P,U8,7,~{HOLD}*%
%TO.N,GND*%
X110820000Y-108240000D03*
%TO.P,U8,8,VDD*%
%TO.N,MEMORY_POWER*%
X110820000Y-105700000D03*
%TD*%
D10*
%TO.P,TP2,1,1*%
%TO.N,CAN_L*%
X172000000Y-125799432D03*
%TD*%
D11*
%TO.P,U5,1*%
%TO.N,Net-(R10-Pad2)*%
X124025000Y-117200000D03*
D12*
%TO.P,U5,2*%
%TO.N,GND*%
X121485000Y-117200000D03*
%TO.P,U5,3*%
%TO.N,Net-(F1-Pad2)*%
X121485000Y-124820000D03*
%TO.P,U5,4*%
%TO.N,MEMORY_POWER*%
X124025000Y-124820000D03*
%TD*%
%TO.P,Y1,1,1*%
%TO.N,OSC2*%
X187050000Y-86000000D03*
%TO.P,Y1,2,2*%
%TO.N,OSC1*%
X191930000Y-86000000D03*
%TD*%
D13*
%TO.P,U4,1,GND*%
%TO.N,GND*%
X147880000Y-128972500D03*
D14*
%TO.P,U4,2,SCK/SCLK*%
%TO.N,I2C_SCL*%
X147880000Y-131512500D03*
%TO.P,U4,3,SDA/SDI/SDIO*%
%TO.N,I2C_SDA*%
X147880000Y-134052500D03*
%TO.P,U4,4,SDO/ALT_ADDRESS*%
%TO.N,GND*%
X147880000Y-136592500D03*
%TO.P,U4,5,~CS*%
%TO.N,+3.3V*%
X147880000Y-139132500D03*
%TO.P,U4,6,INT2*%
%TO.N,unconnected-(U4-INT2-Pad6)*%
X155500000Y-139132500D03*
%TO.P,U4,7,INT1*%
%TO.N,unconnected-(U4-INT1-Pad7)*%
X155500000Y-136592500D03*
%TO.P,U4,8,GND*%
%TO.N,GND*%
X155500000Y-134052500D03*
%TO.P,U4,9,VS*%
%TO.N,+3.3V*%
X155500000Y-131512500D03*
%TO.P,U4,10,VDDI/O*%
X155500000Y-128972500D03*
%TD*%
D11*
%TO.P,U1,1,TXD*%
%TO.N,CAN_TX*%
X193300000Y-119200000D03*
D12*
%TO.P,U1,2,VSS*%
%TO.N,GND*%
X190760000Y-119200000D03*
%TO.P,U1,3,VDD*%
%TO.N,+5V*%
X188220000Y-119200000D03*
%TO.P,U1,4,RXD*%
%TO.N,CAN_RX*%
X185680000Y-119200000D03*
%TO.P,U1,5,Vio*%
%TO.N,+3.3V*%
X185680000Y-126820000D03*
%TO.P,U1,6,CANL*%
%TO.N,CAN_L*%
X188220000Y-126820000D03*
%TO.P,U1,7,CANH*%
%TO.N,CAN_H*%
X190760000Y-126820000D03*
%TO.P,U1,8,STBY*%
%TO.N,GND*%
X193300000Y-126820000D03*
%TD*%
D15*
%TO.P,SW1,1*%
%TO.N,DEBUG_MODE*%
X130850000Y-59574432D03*
D16*
%TO.P,SW1,2*%
%TO.N,DUMP_MODE*%
X128310000Y-59574432D03*
%TO.P,SW1,3*%
%TO.N,GND*%
X128310000Y-67194432D03*
%TO.P,SW1,4*%
X130850000Y-67194432D03*
%TD*%
D17*
%TO.P,U6,1,PA03_VREFA/AREF*%
%TO.N,unconnected-(U6-PA03_VREFA{slash}AREF-Pad1)*%
X138102500Y-76359800D03*
D18*
%TO.P,U6,2,PA02_AIN0/DAC0/A0*%
%TO.N,unconnected-(U6-PA02_AIN0{slash}DAC0{slash}A0-Pad2)*%
X138102500Y-78899800D03*
%TO.P,U6,3,PB02_AIN10/A1*%
%TO.N,LORA_SEND_STATUS*%
X138102500Y-81439800D03*
%TO.P,U6,4,PB03_AIN11/A2*%
%TO.N,LORA_RECEIVE_STATUS*%
X138102500Y-83979800D03*
%TO.P,U6,5,PA04_AIN4/A3*%
%TO.N,DUMP_MODE*%
X138102500Y-86519800D03*
%TO.P,U6,6,PA05_AIN5/A4*%
%TO.N,DEBUG_MODE*%
X138102500Y-89059800D03*
%TO.P,U6,7,PA06_AIN6/A5*%
%TO.N,SPI_CS_FRAM1*%
X138102500Y-91599800D03*
%TO.P,U6,8,PA07_AIN7/A6*%
%TO.N,SPI_CS_FRAM0*%
X138102500Y-94139800D03*
%TO.P,U6,9,PA22_TC4-W0/0*%
%TO.N,CAN_RECEIVE_STATUS*%
X138102500Y-96679800D03*
%TO.P,U6,10,PA23_TC4-W1/1*%
%TO.N,CAN_SEND_STATUS*%
X138102500Y-99219800D03*
%TO.P,U6,11,PA10_TCC0-W2/~2*%
%TO.N,RECORD_STATUS*%
X138102500Y-101759800D03*
%TO.P,U6,12,PA11_TCC0-W3/~3*%
%TO.N,SD_CHECK*%
X138102500Y-104299800D03*
%TO.P,U6,13,PB10_TCC0-W4/~4*%
%TO.N,SD_STATUS*%
X138102500Y-106839800D03*
%TO.P,U6,14,PB11_TCC0-W5/~5*%
%TO.N,MEMORY_POWER_CONTROL*%
X138102500Y-109379800D03*
%TO.P,U6,15,PA20_TCC0-W6*%
%TO.N,SPI_CS_SD*%
X158422500Y-109379800D03*
%TO.P,U6,16,PA21_TCC0-W7*%
%TO.N,SPI_CS_MCP*%
X158422500Y-106839800D03*
%TO.P,U6,17,PA16_S1_MOSI*%
%TO.N,SPI_MOSI*%
X158422500Y-104299800D03*
%TO.P,U6,18,PA17_S1_SCK*%
%TO.N,SPI_SCLK*%
X158422500Y-101759800D03*
%TO.P,U6,19,PA19_S1_MISO*%
%TO.N,SPI_MISO*%
X158422500Y-99219800D03*
%TO.P,U6,20,PA08_S0_I2C_SDA*%
%TO.N,I2C_SDA*%
X158422500Y-96679800D03*
%TO.P,U6,21,PA09_S0_I2C_SCL*%
%TO.N,I2C_SCL*%
X158422500Y-94139800D03*
%TO.P,U6,22,PB23_S5_RX*%
%TO.N,unconnected-(U6-PB23_S5_RX-Pad22)*%
X158422500Y-91599800D03*
%TO.P,U6,23,PB22_S5_TX*%
%TO.N,unconnected-(U6-PB22_S5_TX-Pad23)*%
X158422500Y-89059800D03*
%TO.P,U6,24,RESET*%
%TO.N,unconnected-(U6-RESET-Pad24)*%
X158422500Y-86519800D03*
%TO.P,U6,25,GND*%
%TO.N,unconnected-(U6-GND-Pad25)*%
X158422500Y-83979800D03*
%TO.P,U6,26,+3V3*%
%TO.N,+3.3V*%
X158422500Y-81439800D03*
%TO.P,U6,27,VIN*%
%TO.N,+5V*%
X158422500Y-78899800D03*
%TO.P,U6,28,+5V*%
%TO.N,unconnected-(U6-+5V-Pad28)*%
X158422500Y-76359800D03*
%TD*%
D11*
%TO.P,U7,1,~{CS}*%
%TO.N,SPI_CS_FRAM1*%
X103200000Y-117950000D03*
D12*
%TO.P,U7,2,SO*%
%TO.N,SPI_MISO*%
X103200000Y-120490000D03*
%TO.P,U7,3,~{WP}*%
%TO.N,GND*%
X103200000Y-123030000D03*
%TO.P,U7,4,GND*%
X103200000Y-125570000D03*
%TO.P,U7,5,SI*%
%TO.N,SPI_MOSI*%
X110820000Y-125570000D03*
%TO.P,U7,6,SCK*%
%TO.N,SPI_SCLK*%
X110820000Y-123030000D03*
%TO.P,U7,7,~{HOLD}*%
%TO.N,GND*%
X110820000Y-120490000D03*
%TO.P,U7,8,VDD*%
%TO.N,MEMORY_POWER*%
X110820000Y-117950000D03*
%TD*%
D11*
%TO.P,U2,1,TXCAN*%
%TO.N,CAN_TX*%
X193120000Y-115040000D03*
D12*
%TO.P,U2,2,RXCAN*%
%TO.N,CAN_RX*%
X193120000Y-112500000D03*
%TO.P,U2,3,CLKOUT/SOF*%
%TO.N,unconnected-(U2-CLKOUT{slash}SOF-Pad3)*%
X193120000Y-109960000D03*
%TO.P,U2,4,~TX0RTS*%
%TO.N,unconnected-(U2-~TX0RTS-Pad4)*%
X193120000Y-107420000D03*
%TO.P,U2,5,~TX1RTS*%
%TO.N,unconnected-(U2-~TX1RTS-Pad5)*%
X193120000Y-104880000D03*
%TO.P,U2,6,~TX2RTS*%
%TO.N,unconnected-(U2-~TX2RTS-Pad6)*%
X193120000Y-102340000D03*
%TO.P,U2,7,OSC2*%
%TO.N,OSC2*%
X193120000Y-99800000D03*
%TO.P,U2,8,OSC1*%
%TO.N,OSC1*%
X193120000Y-97260000D03*
%TO.P,U2,9,VSS*%
%TO.N,GND*%
X193120000Y-94720000D03*
%TO.P,U2,10,~RX1BF*%
%TO.N,unconnected-(U2-~RX1BF-Pad10)*%
X185500000Y-94720000D03*
%TO.P,U2,11,~RX0BF*%
%TO.N,unconnected-(U2-~RX0BF-Pad11)*%
X185500000Y-97260000D03*
%TO.P,U2,12,~INT*%
%TO.N,unconnected-(U2-~INT-Pad12)*%
X185500000Y-99800000D03*
%TO.P,U2,13,SCK*%
%TO.N,SPI_SCLK*%
X185500000Y-102340000D03*
%TO.P,U2,14,SI*%
%TO.N,SPI_MOSI*%
X185500000Y-104880000D03*
%TO.P,U2,15,SO*%
%TO.N,SPI_MISO*%
X185500000Y-107420000D03*
%TO.P,U2,16,~CS*%
%TO.N,SPI_CS_MCP*%
X185500000Y-109960000D03*
%TO.P,U2,17,~RESET*%
%TO.N,Net-(U2-~RESET)*%
X185500000Y-112500000D03*
%TO.P,U2,18,VDD*%
%TO.N,+3.3V*%
X185500000Y-115040000D03*
%TD*%
D19*
%TO.P,J1,1,Pin_1*%
%TO.N,+12V*%
X162000000Y-131690000D03*
D20*
%TO.P,J1,2,Pin_2*%
X162000000Y-133690000D03*
%TO.P,J1,3,Pin_3*%
%TO.N,CAN_L*%
X164000000Y-131690000D03*
%TO.P,J1,4,Pin_4*%
X164000000Y-133690000D03*
%TO.P,J1,5,Pin_5*%
%TO.N,GND*%
X166000000Y-131690000D03*
%TO.P,J1,6,Pin_6*%
X166000000Y-133690000D03*
%TO.P,J1,7,Pin_7*%
%TO.N,CAN_H*%
X168000000Y-131690000D03*
%TO.P,J1,8,Pin_8*%
X168000000Y-133690000D03*
%TD*%
D21*
%TO.N,GND*%
X164300000Y-124200000D03*
X170300000Y-56600000D03*
X172900000Y-83200000D03*
X109100000Y-111800000D03*
X126300000Y-119400000D03*
X102900000Y-132000000D03*
X111100000Y-89000000D03*
X140100000Y-87000000D03*
X160100000Y-105600000D03*
X143300000Y-79600000D03*
X160500000Y-118600000D03*
X155900000Y-78600000D03*
X132300000Y-106400000D03*
X169700000Y-102099432D03*
X147900000Y-109200000D03*
X129500000Y-96800000D03*
X132300000Y-103000000D03*
X141100000Y-60200000D03*
X134700000Y-100200000D03*
X165900000Y-80299432D03*
X104700000Y-115600000D03*
X173650000Y-97699432D03*
X121100000Y-91600000D03*
X124300000Y-126600000D03*
X163100000Y-100499432D03*
X110700000Y-67400000D03*
X184300000Y-106000000D03*
X163400000Y-105699432D03*
X161700000Y-121000000D03*
X111900000Y-124200000D03*
X131500000Y-127400000D03*
X193500000Y-89600000D03*
X155500000Y-123000000D03*
X148100000Y-123200000D03*
X140900000Y-128800000D03*
X159900000Y-108400000D03*
X150500000Y-123600000D03*
X153100000Y-117800000D03*
X115400000Y-115799432D03*
X137100000Y-118200000D03*
X160100000Y-80400000D03*
X160100000Y-85200000D03*
X96900000Y-118800000D03*
X143100000Y-91000000D03*
X109100000Y-109000000D03*
X150700000Y-130200000D03*
X114300000Y-111400000D03*
X186100000Y-67400000D03*
X187500000Y-114200000D03*
X182000000Y-103499432D03*
X167300000Y-73800000D03*
X180500000Y-113299432D03*
X160100000Y-75000000D03*
X121300000Y-88800000D03*
X115700000Y-88600000D03*
X133300000Y-113800000D03*
X135100000Y-95800000D03*
X135700000Y-107800000D03*
X194900000Y-117400000D03*
X165500000Y-63000000D03*
X156300000Y-92400000D03*
X168700000Y-79000000D03*
X185700000Y-78600000D03*
X151500000Y-71000000D03*
X195100000Y-106000000D03*
X128700000Y-109400000D03*
X128900000Y-106400000D03*
X109500000Y-116800000D03*
X201900000Y-104400000D03*
X151500000Y-134400000D03*
X200300000Y-118800000D03*
X165300000Y-95999432D03*
X150700000Y-117800000D03*
X140700000Y-136400000D03*
X99100000Y-84800000D03*
X106700000Y-85200000D03*
X113100000Y-97800000D03*
X197500000Y-84600000D03*
X177700000Y-120400000D03*
X184300000Y-108499432D03*
X155500000Y-120400000D03*
X176200000Y-105099432D03*
X141800000Y-82799432D03*
X128100000Y-103800000D03*
X162500000Y-68800000D03*
X153100000Y-109800000D03*
X130700000Y-101400000D03*
X163900000Y-74200000D03*
X191900000Y-128000000D03*
X123900000Y-113800000D03*
X154000000Y-60000000D03*
X129100000Y-119200000D03*
X154500000Y-127200000D03*
X167000000Y-125849432D03*
X133900000Y-123200000D03*
X143300000Y-106800000D03*
X171300000Y-131999432D03*
X120300000Y-104000000D03*
X127300000Y-71800000D03*
X160900000Y-66200000D03*
X139700000Y-92800000D03*
X168550000Y-108449432D03*
X127300000Y-113800000D03*
X180700000Y-119800000D03*
X162900000Y-85800000D03*
X153100000Y-102400000D03*
X127700000Y-127400000D03*
X111300000Y-143000000D03*
X162300000Y-138600000D03*
X173300000Y-124000000D03*
X194100000Y-132800000D03*
X156500000Y-98000000D03*
X181900000Y-93400000D03*
X133500000Y-120400000D03*
X172900000Y-120600000D03*
X122900000Y-85000000D03*
X167900000Y-128400000D03*
X105300000Y-105400000D03*
X178700000Y-115899432D03*
X117100000Y-103200000D03*
X163300000Y-114600000D03*
X180500000Y-122800000D03*
X107900000Y-118400000D03*
X141900000Y-70600000D03*
X122500000Y-105400000D03*
X120500000Y-109600000D03*
X124700000Y-56800000D03*
X178200000Y-124099432D03*
X120300000Y-98000000D03*
X167500000Y-120600000D03*
X186700000Y-89200000D03*
X131500000Y-118000000D03*
X184500000Y-117000000D03*
X140100000Y-100800000D03*
X170900000Y-87600000D03*
X129500000Y-137200000D03*
X131100000Y-121800000D03*
X122700000Y-109200000D03*
X156900000Y-95400000D03*
X132900000Y-110600000D03*
X150700000Y-107800000D03*
X156900000Y-71800000D03*
X128300000Y-91800000D03*
X126200000Y-116199432D03*
X191100000Y-106200000D03*
X159300000Y-126600000D03*
X176100000Y-82800000D03*
X180200000Y-104099432D03*
X117900000Y-120600000D03*
X171500000Y-113999432D03*
X132700000Y-143600000D03*
X152100000Y-87800000D03*
X180500000Y-117199432D03*
X191300000Y-114200000D03*
X148100000Y-99000000D03*
X122500000Y-98200000D03*
X176700000Y-109649432D03*
X134500000Y-87200000D03*
X115700000Y-92000000D03*
X157100000Y-111200000D03*
X163300000Y-143600000D03*
X123900000Y-94200000D03*
X147300000Y-81400000D03*
X134700000Y-90600000D03*
X178400000Y-101999432D03*
X109100000Y-114200000D03*
X95100000Y-103200000D03*
X160100000Y-62600000D03*
X106100000Y-120800000D03*
X109300000Y-124400000D03*
X120500000Y-123200000D03*
X190100000Y-89600000D03*
X188300000Y-124800000D03*
X112100000Y-116800000D03*
X104900000Y-119000000D03*
X191300000Y-111200000D03*
X147700000Y-118200000D03*
X160100000Y-98200000D03*
X150700000Y-99000000D03*
X148300000Y-51200000D03*
X183300000Y-100800000D03*
X185300000Y-143200000D03*
X103900000Y-102800000D03*
X132300000Y-100600000D03*
X186500000Y-120800000D03*
X166300000Y-92800000D03*
X163350000Y-118249432D03*
X149300000Y-132800000D03*
%TO.N,+5V*%
X178300000Y-118800000D03*
X177800000Y-118300000D03*
X180900000Y-121400000D03*
X180300000Y-120800000D03*
%TO.N,+3.3V*%
X164200000Y-121500000D03*
X171100000Y-122750000D03*
X165200000Y-122500000D03*
X172500000Y-122750000D03*
%TO.N,SPI_CS_MCP*%
X172500000Y-121750497D03*
%TO.N,SPI_MOSI*%
X113250000Y-116500000D03*
%TO.N,SPI_SCLK*%
X107000000Y-108500000D03*
%TO.N,SPI_MISO*%
X178000000Y-103000000D03*
%TO.N,SPI_CS_SD*%
X121500000Y-112500000D03*
X121500000Y-103750000D03*
%TO.N,MEMORY_POWER_CONTROL*%
X129250000Y-116337500D03*
%TO.N,I2C_SCL*%
X149500000Y-123000000D03*
X149500000Y-118500000D03*
%TO.N,I2C_SDA*%
X151750000Y-123000000D03*
X151750000Y-118500000D03*
%TO.N,SPI_CS_FRAM1*%
X128500000Y-110750000D03*
X132250000Y-108000000D03*
X113762299Y-114262299D03*
%TO.N,SPI_CS_FRAM0*%
X132250000Y-109250000D03*
X128500000Y-111750000D03*
X118000000Y-112500000D03*
%TO.N,RECORD_STATUS*%
X129000000Y-104750000D03*
X134750000Y-101750000D03*
%TO.N,SD_STATUS*%
X136250000Y-90500000D03*
%TD*%
D22*
%TO.N,+5V*%
X177800000Y-118300000D02*
X180900000Y-121400000D01*
%TO.N,+3.3V*%
X165200000Y-122500000D02*
X164200000Y-121500000D01*
X172500000Y-122750000D02*
X165450000Y-122750000D01*
X165450000Y-122750000D02*
X165200000Y-122500000D01*
D23*
%TO.N,SPI_CS_MCP*%
X161000000Y-108000000D02*
X159839800Y-106839800D01*
X172500000Y-121750497D02*
X165500497Y-121750497D01*
X161000000Y-117250000D02*
X161000000Y-108000000D01*
X159839800Y-106839800D02*
X158422500Y-106839800D01*
X165500497Y-121750497D02*
X161000000Y-117250000D01*
%TO.N,SPI_MOSI*%
X179880000Y-104880000D02*
X185500000Y-104880000D01*
X113250000Y-116500000D02*
X113250000Y-124250000D01*
X158422500Y-104299800D02*
X179299800Y-104299800D01*
X113250000Y-124250000D02*
X111930000Y-125570000D01*
X179299800Y-104299800D02*
X179880000Y-104880000D01*
X111930000Y-125570000D02*
X110820000Y-125570000D01*
%TO.N,SPI_SCLK*%
X179250000Y-103750000D02*
X180660000Y-102340000D01*
X161009800Y-101759800D02*
X163000000Y-103750000D01*
X107000000Y-108500000D02*
X109280000Y-110780000D01*
X163000000Y-103750000D02*
X179250000Y-103750000D01*
X158422500Y-101759800D02*
X161009800Y-101759800D01*
X180660000Y-102340000D02*
X185500000Y-102340000D01*
X109280000Y-110780000D02*
X110820000Y-110780000D01*
%TO.N,SPI_MISO*%
X158422500Y-99219800D02*
X159719800Y-99219800D01*
X159719800Y-99219800D02*
X163500000Y-103000000D01*
X163500000Y-103000000D02*
X178000000Y-103000000D01*
%TO.N,SPI_CS_SD*%
X121500000Y-103750000D02*
X121500000Y-112500000D01*
D24*
%TO.N,MEMORY_POWER_CONTROL*%
X135750000Y-110500000D02*
X136870200Y-109379800D01*
X134412500Y-116337500D02*
X135750000Y-115000000D01*
X136870200Y-109379800D02*
X138102500Y-109379800D01*
X135750000Y-115000000D02*
X135750000Y-110500000D01*
X129250000Y-116337500D02*
X134412500Y-116337500D01*
D23*
%TO.N,I2C_SCL*%
X149500000Y-123000000D02*
X149500000Y-118500000D01*
%TO.N,I2C_SDA*%
X151750000Y-123000000D02*
X151750000Y-118500000D01*
%TO.N,SPI_CS_FRAM1*%
X113762299Y-114262299D02*
X112274598Y-115750000D01*
X129500000Y-110750000D02*
X128500000Y-110750000D01*
X104300000Y-117950000D02*
X103200000Y-117950000D01*
X132250000Y-108000000D02*
X129500000Y-110750000D01*
X112274598Y-115750000D02*
X106500000Y-115750000D01*
X106500000Y-115750000D02*
X104300000Y-117950000D01*
%TO.N,SPI_CS_FRAM0*%
X129750000Y-111750000D02*
X132250000Y-109250000D01*
X105250000Y-107000000D02*
X103950000Y-105700000D01*
X111750000Y-115250000D02*
X106500000Y-115250000D01*
X103950000Y-105700000D02*
X103200000Y-105700000D01*
X118000000Y-112500000D02*
X114500000Y-112500000D01*
X105250000Y-114000000D02*
X105250000Y-107000000D01*
X106500000Y-115250000D02*
X105250000Y-114000000D01*
X128500000Y-111750000D02*
X129750000Y-111750000D01*
X114500000Y-112500000D02*
X111750000Y-115250000D01*
D24*
%TO.N,RECORD_STATUS*%
X129000000Y-104750000D02*
X132000000Y-101750000D01*
X132000000Y-101750000D02*
X134750000Y-101750000D01*
%TO.N,SD_STATUS*%
X136250000Y-105743650D02*
X137346150Y-106839800D01*
X137346150Y-106839800D02*
X138102500Y-106839800D01*
X136250000Y-90500000D02*
X136250000Y-105743650D01*
%TD*%
%TA.AperFunction,Conductor*%
%TO.N,GND*%
G36*
X149237930Y-50304921D02*
G01*
X150709866Y-50344600D01*
X150711517Y-50344667D01*
X152181902Y-50423999D01*
X152183480Y-50424105D01*
X153651289Y-50543039D01*
X153652821Y-50543185D01*
X155116823Y-50701621D01*
X155118471Y-50701822D01*
X156577633Y-50899648D01*
X156579181Y-50899878D01*
X158032561Y-51136965D01*
X158034164Y-51137249D01*
X159480528Y-51413395D01*
X159482157Y-51413728D01*
X160920595Y-51728759D01*
X160922186Y-51729131D01*
X162351579Y-52082800D01*
X162353117Y-52083202D01*
X163772548Y-52475286D01*
X163774060Y-52475726D01*
X165182377Y-52905907D01*
X165183960Y-52906414D01*
X166580132Y-53374376D01*
X166581652Y-53374908D01*
X167964724Y-53880329D01*
X167966227Y-53880900D01*
X169335191Y-54423414D01*
X169336713Y-54424041D01*
X170690502Y-55003222D01*
X170692033Y-55003901D01*
X172029779Y-55619378D01*
X172031205Y-55620058D01*
X172842024Y-56019921D01*
X173351855Y-56271349D01*
X173353355Y-56272114D01*
X174176571Y-56706050D01*
X174601574Y-56930079D01*
X174655930Y-56958731D01*
X174657405Y-56959534D01*
X175941046Y-57681027D01*
X175942456Y-57681844D01*
X177206215Y-58437682D01*
X177207565Y-58438514D01*
X178450509Y-59228139D01*
X178451880Y-59229036D01*
X179557052Y-59973682D01*
X179673036Y-60051830D01*
X179674418Y-60052789D01*
X180872971Y-60908198D01*
X180874261Y-60909145D01*
X182049379Y-61796580D01*
X182050660Y-61797575D01*
X183201366Y-62716299D01*
X183202668Y-62717367D01*
X184328216Y-63666780D01*
X184329488Y-63667883D01*
X185429025Y-64647264D01*
X185430268Y-64648402D01*
X186502989Y-65657034D01*
X186504200Y-65658204D01*
X187549390Y-66695414D01*
X187550550Y-66696596D01*
X188567412Y-67761596D01*
X188568548Y-67762819D01*
X189163640Y-68420699D01*
X189556334Y-68854826D01*
X189557447Y-68856090D01*
X190515457Y-69974330D01*
X190516535Y-69975624D01*
X191444033Y-71119237D01*
X191445076Y-71120559D01*
X192341421Y-72288748D01*
X192342429Y-72290099D01*
X193207007Y-73482074D01*
X193207977Y-73483450D01*
X194040080Y-74698229D01*
X194041013Y-74699631D01*
X194840095Y-75936418D01*
X194840990Y-75937845D01*
X195606459Y-77195725D01*
X195607315Y-77197176D01*
X196338592Y-78475195D01*
X196339409Y-78476668D01*
X197035996Y-79773957D01*
X197036773Y-79775452D01*
X197698148Y-81091039D01*
X197698883Y-81092552D01*
X198213584Y-82189052D01*
X198324561Y-82425472D01*
X198325256Y-82427006D01*
X198914781Y-83776287D01*
X198915435Y-83777839D01*
X199468412Y-85142579D01*
X199469023Y-85144149D01*
X199984997Y-86523223D01*
X199985566Y-86524808D01*
X200464201Y-87917321D01*
X200464727Y-87918921D01*
X200905661Y-89323813D01*
X200906144Y-89325427D01*
X201309063Y-90741704D01*
X201309502Y-90743330D01*
X201674109Y-92169943D01*
X201674504Y-92171580D01*
X202000541Y-93607534D01*
X202000891Y-93609182D01*
X202288098Y-95053307D01*
X202288405Y-95054963D01*
X202536609Y-96506410D01*
X202536870Y-96508074D01*
X202745861Y-97965600D01*
X202746078Y-97967270D01*
X202915724Y-99429971D01*
X202915895Y-99431647D01*
X203046056Y-100898306D01*
X203046183Y-100899986D01*
X203136779Y-102369688D01*
X203136860Y-102371370D01*
X203187818Y-103842982D01*
X203187853Y-103844666D01*
X203199137Y-105317077D01*
X203199127Y-105318761D01*
X203170730Y-106790941D01*
X203170675Y-106792625D01*
X203102615Y-108263508D01*
X203102515Y-108265189D01*
X202994843Y-109733742D01*
X202994697Y-109735420D01*
X202847492Y-111200505D01*
X202847301Y-111202179D01*
X202660669Y-112662777D01*
X202660433Y-112664445D01*
X202434509Y-114119479D01*
X202434228Y-114121139D01*
X202169182Y-115569531D01*
X202168857Y-115571184D01*
X201864866Y-117011959D01*
X201864496Y-117013602D01*
X201521800Y-118445626D01*
X201521386Y-118447259D01*
X201140220Y-119869545D01*
X201139762Y-119871166D01*
X200720404Y-121282675D01*
X200719902Y-121284283D01*
X200262679Y-122683921D01*
X200262135Y-122685515D01*
X199767331Y-124072415D01*
X199766743Y-124073993D01*
X199234787Y-125446945D01*
X199234158Y-125448508D01*
X198665349Y-126806740D01*
X198664677Y-126808284D01*
X198059508Y-128150622D01*
X198058795Y-128152148D01*
X197417682Y-129477672D01*
X197416929Y-129479179D01*
X196740291Y-130787021D01*
X196739497Y-130788506D01*
X196027877Y-132077611D01*
X196027043Y-132079074D01*
X195280961Y-133348506D01*
X195280088Y-133349947D01*
X194500039Y-134598861D01*
X194499127Y-134600277D01*
X193685751Y-135827650D01*
X193684802Y-135829042D01*
X192838611Y-137034102D01*
X192837625Y-137035467D01*
X191959268Y-138217287D01*
X191958245Y-138218625D01*
X191048365Y-139376340D01*
X191047306Y-139377650D01*
X190106596Y-140510382D01*
X190105503Y-140511664D01*
X189134544Y-141618711D01*
X189133416Y-141619962D01*
X188133015Y-142700401D01*
X188131854Y-142701621D01*
X187102720Y-143754691D01*
X187101527Y-143755880D01*
X186146461Y-144681872D01*
X186102955Y-144699500D01*
X110897045Y-144699500D01*
X110853539Y-144681872D01*
X109898472Y-143755880D01*
X109897279Y-143754691D01*
X108868145Y-142701621D01*
X108866984Y-142700401D01*
X107866583Y-141619962D01*
X107865455Y-141618711D01*
X106894496Y-140511664D01*
X106893403Y-140510382D01*
X105952693Y-139377650D01*
X105951634Y-139376340D01*
X105759993Y-139132500D01*
X146809345Y-139132500D01*
X146829916Y-139341372D01*
X146890844Y-139542223D01*
X146978467Y-139706153D01*
X146989783Y-139727324D01*
X147122933Y-139889567D01*
X147285176Y-140022717D01*
X147470278Y-140121656D01*
X147671126Y-140182583D01*
X147880000Y-140203155D01*
X148088874Y-140182583D01*
X148289722Y-140121656D01*
X148474824Y-140022717D01*
X148637067Y-139889567D01*
X148770217Y-139727324D01*
X148869156Y-139542222D01*
X148930083Y-139341374D01*
X148950655Y-139132500D01*
X148950655Y-139132499D01*
X154429345Y-139132499D01*
X154449916Y-139341372D01*
X154510844Y-139542223D01*
X154598467Y-139706153D01*
X154609783Y-139727324D01*
X154742933Y-139889567D01*
X154905176Y-140022717D01*
X155090278Y-140121656D01*
X155291126Y-140182583D01*
X155500000Y-140203155D01*
X155708874Y-140182583D01*
X155909722Y-140121656D01*
X156094824Y-140022717D01*
X156257067Y-139889567D01*
X156390217Y-139727324D01*
X156489156Y-139542222D01*
X156550083Y-139341374D01*
X156570655Y-139132500D01*
X156550083Y-138923626D01*
X156489156Y-138722778D01*
X156390217Y-138537676D01*
X156257067Y-138375433D01*
X156094824Y-138242283D01*
X156048060Y-138217287D01*
X155909723Y-138143344D01*
X155708872Y-138082416D01*
X155522818Y-138064092D01*
X155500000Y-138061845D01*
X155499999Y-138061845D01*
X155291127Y-138082416D01*
X155090276Y-138143344D01*
X154905177Y-138242282D01*
X154742933Y-138375433D01*
X154609782Y-138537677D01*
X154510844Y-138722776D01*
X154449916Y-138923627D01*
X154429345Y-139132499D01*
X148950655Y-139132499D01*
X148930083Y-138923626D01*
X148869156Y-138722778D01*
X148770217Y-138537676D01*
X148637067Y-138375433D01*
X148474824Y-138242283D01*
X148428060Y-138217287D01*
X148289723Y-138143344D01*
X148088872Y-138082416D01*
X147902818Y-138064092D01*
X147880000Y-138061845D01*
X147879999Y-138061845D01*
X147671127Y-138082416D01*
X147470276Y-138143344D01*
X147285177Y-138242282D01*
X147122933Y-138375433D01*
X146989782Y-138537677D01*
X146890844Y-138722776D01*
X146829916Y-138923627D01*
X146809345Y-139132500D01*
X105759993Y-139132500D01*
X105041754Y-138218625D01*
X105040731Y-138217287D01*
X104616430Y-137646395D01*
X147179656Y-137646395D01*
X147245082Y-137692206D01*
X147445693Y-137785752D01*
X147659495Y-137843040D01*
X147879999Y-137862332D01*
X148100504Y-137843040D01*
X148314306Y-137785752D01*
X148514913Y-137692207D01*
X148580341Y-137646394D01*
X147880000Y-136946053D01*
X147179656Y-137646395D01*
X104616430Y-137646395D01*
X104162374Y-137035467D01*
X104161388Y-137034102D01*
X103563590Y-136182778D01*
X103315191Y-135829033D01*
X103314248Y-135827650D01*
X103228775Y-135698673D01*
X102713610Y-134921296D01*
X116045717Y-134921296D01*
X116055802Y-135235789D01*
X116106021Y-135546410D01*
X116189492Y-135827650D01*
X116195549Y-135848059D01*
X116322916Y-136135786D01*
X116486028Y-136404855D01*
X116486030Y-136404858D01*
X116682214Y-136650865D01*
X116682215Y-136650866D01*
X116908246Y-136869765D01*
X117160415Y-137057963D01*
X117434578Y-137212370D01*
X117591962Y-137276087D01*
X117726238Y-137330449D01*
X118030601Y-137410263D01*
X118342673Y-137450500D01*
X118578573Y-137450500D01*
X118578580Y-137450500D01*
X118814008Y-137435385D01*
X119122860Y-137375236D01*
X119421485Y-137276086D01*
X119704979Y-137139562D01*
X119968687Y-136967907D01*
X120208280Y-136763939D01*
X120363976Y-136592500D01*
X146610167Y-136592500D01*
X146629459Y-136813004D01*
X146686747Y-137026806D01*
X146780294Y-137227417D01*
X146826103Y-137292842D01*
X147526447Y-136592500D01*
X148233553Y-136592500D01*
X148933894Y-137292841D01*
X148979707Y-137227413D01*
X149073252Y-137026806D01*
X149130540Y-136813004D01*
X149149832Y-136592500D01*
X154429345Y-136592500D01*
X154449916Y-136801372D01*
X154510844Y-137002223D01*
X154584254Y-137139562D01*
X154609783Y-137187324D01*
X154742933Y-137349567D01*
X154905176Y-137482717D01*
X155090278Y-137581656D01*
X155291126Y-137642583D01*
X155500000Y-137663155D01*
X155708874Y-137642583D01*
X155909722Y-137581656D01*
X156094824Y-137482717D01*
X156257067Y-137349567D01*
X156390217Y-137187324D01*
X156489156Y-137002222D01*
X156550083Y-136801374D01*
X156570655Y-136592500D01*
X156550083Y-136383626D01*
X156489156Y-136182778D01*
X156390217Y-135997676D01*
X156257067Y-135835433D01*
X156094824Y-135702283D01*
X156073653Y-135690967D01*
X155909723Y-135603344D01*
X155708872Y-135542416D01*
X155500000Y-135521845D01*
X155291127Y-135542416D01*
X155090276Y-135603344D01*
X154905177Y-135702282D01*
X154742933Y-135835433D01*
X154609782Y-135997677D01*
X154510844Y-136182776D01*
X154449916Y-136383627D01*
X154429345Y-136592500D01*
X149149832Y-136592500D01*
X149130540Y-136371995D01*
X149073252Y-136158193D01*
X148979706Y-135957582D01*
X148933895Y-135892156D01*
X148233553Y-136592500D01*
X147526447Y-136592500D01*
X146826103Y-135892156D01*
X146780293Y-135957582D01*
X146686747Y-136158193D01*
X146629459Y-136371995D01*
X146610167Y-136592500D01*
X120363976Y-136592500D01*
X120419822Y-136531007D01*
X120599842Y-136272936D01*
X120745381Y-135993964D01*
X120854052Y-135698670D01*
X120890586Y-135538603D01*
X147179656Y-135538603D01*
X147879999Y-136238946D01*
X148580342Y-135538603D01*
X148514917Y-135492794D01*
X148314306Y-135399247D01*
X148100504Y-135341959D01*
X147880000Y-135322667D01*
X147659495Y-135341959D01*
X147445693Y-135399247D01*
X147245082Y-135492793D01*
X147179656Y-135538603D01*
X120890586Y-135538603D01*
X120924069Y-135391905D01*
X120954283Y-135078704D01*
X120944198Y-134764211D01*
X120893979Y-134453590D01*
X120804451Y-134151941D01*
X120760432Y-134052500D01*
X146809345Y-134052500D01*
X146829916Y-134261372D01*
X146890844Y-134462223D01*
X146902859Y-134484701D01*
X146989783Y-134647324D01*
X147122933Y-134809567D01*
X147285176Y-134942717D01*
X147470278Y-135041656D01*
X147671126Y-135102583D01*
X147880000Y-135123155D01*
X148050170Y-135106395D01*
X154799656Y-135106395D01*
X154865082Y-135152206D01*
X155065693Y-135245752D01*
X155279495Y-135303040D01*
X155500000Y-135322332D01*
X155720504Y-135303040D01*
X155934306Y-135245752D01*
X156134913Y-135152207D01*
X156200341Y-135106394D01*
X155500000Y-134406053D01*
X154799656Y-135106395D01*
X148050170Y-135106395D01*
X148088874Y-135102583D01*
X148289722Y-135041656D01*
X148474824Y-134942717D01*
X148637067Y-134809567D01*
X148770217Y-134647324D01*
X148869156Y-134462222D01*
X148930083Y-134261374D01*
X148950655Y-134052500D01*
X154230167Y-134052500D01*
X154249459Y-134273004D01*
X154306747Y-134486806D01*
X154400294Y-134687417D01*
X154446103Y-134752842D01*
X155146447Y-134052500D01*
X155853553Y-134052500D01*
X156553894Y-134752841D01*
X156599707Y-134687413D01*
X156693252Y-134486806D01*
X156750540Y-134273004D01*
X156769832Y-134052500D01*
X156762189Y-133965136D01*
X160979500Y-133965136D01*
X160994265Y-134115051D01*
X161052619Y-134307419D01*
X161062384Y-134325688D01*
X161147379Y-134484703D01*
X161274906Y-134640094D01*
X161430297Y-134767621D01*
X161607582Y-134862381D01*
X161799947Y-134920734D01*
X162000000Y-134940438D01*
X162200053Y-134920734D01*
X162392418Y-134862381D01*
X162569703Y-134767621D01*
X162725094Y-134640094D01*
X162852621Y-134484703D01*
X162947381Y-134307418D01*
X163002255Y-134126520D01*
X163024587Y-134094647D01*
X163061450Y-134082167D01*
X163098552Y-134093921D01*
X163121504Y-134125349D01*
X163130145Y-134151941D01*
X163172820Y-134283282D01*
X163267468Y-134447218D01*
X163303114Y-134486806D01*
X163394129Y-134587888D01*
X163547270Y-134699151D01*
X163720197Y-134776144D01*
X163843634Y-134802381D01*
X163905353Y-134815500D01*
X163905354Y-134815500D01*
X164094646Y-134815500D01*
X164094647Y-134815500D01*
X164140935Y-134805661D01*
X164279803Y-134776144D01*
X164452730Y-134699151D01*
X164605871Y-134587888D01*
X164732533Y-134447216D01*
X164827179Y-134283284D01*
X164835379Y-134258045D01*
X164858445Y-134226535D01*
X164895712Y-134214865D01*
X164932631Y-134227594D01*
X164954788Y-134259751D01*
X164974149Y-134325688D01*
X165070410Y-134512410D01*
X165200270Y-134677539D01*
X165359033Y-134815108D01*
X165540964Y-134920146D01*
X165739485Y-134988855D01*
X165750000Y-134990367D01*
X165750000Y-130393741D01*
X165638588Y-130420770D01*
X165447500Y-130508036D01*
X165276374Y-130629895D01*
X165131407Y-130781931D01*
X165017833Y-130958656D01*
X164951968Y-131123178D01*
X164928109Y-131152285D01*
X164891862Y-131162414D01*
X164856370Y-131149893D01*
X164834504Y-131119261D01*
X164827180Y-131096719D01*
X164827179Y-131096717D01*
X164827179Y-131096716D01*
X164732533Y-130932784D01*
X164732532Y-130932783D01*
X164732531Y-130932781D01*
X164660511Y-130852796D01*
X164605871Y-130792112D01*
X164452730Y-130680849D01*
X164279803Y-130603856D01*
X164279801Y-130603855D01*
X164279800Y-130603855D01*
X164094647Y-130564500D01*
X164094646Y-130564500D01*
X163905354Y-130564500D01*
X163905353Y-130564500D01*
X163720199Y-130603855D01*
X163547271Y-130680848D01*
X163547269Y-130680849D01*
X163547270Y-130680849D01*
X163394129Y-130792112D01*
X163394126Y-130792114D01*
X163394126Y-130792115D01*
X163267468Y-130932781D01*
X163172820Y-131096717D01*
X163142440Y-131190218D01*
X163115655Y-131224194D01*
X163073222Y-131232634D01*
X163035474Y-131211494D01*
X163020499Y-131170904D01*
X163020499Y-131075811D01*
X163020499Y-131075806D01*
X163014361Y-131008251D01*
X162965920Y-130852797D01*
X162881683Y-130713453D01*
X162766547Y-130598317D01*
X162627203Y-130514080D01*
X162556833Y-130492152D01*
X162471747Y-130465638D01*
X162404199Y-130459500D01*
X161595810Y-130459500D01*
X161566248Y-130462186D01*
X161528251Y-130465639D01*
X161443164Y-130492152D01*
X161372796Y-130514080D01*
X161233452Y-130598317D01*
X161118317Y-130713452D01*
X161034080Y-130852797D01*
X160985638Y-131008252D01*
X160979500Y-131075800D01*
X160979500Y-132304189D01*
X160981454Y-132325688D01*
X160985639Y-132371749D01*
X161009156Y-132447218D01*
X161034080Y-132527203D01*
X161118317Y-132666547D01*
X161197333Y-132745563D01*
X161215564Y-132786690D01*
X161201453Y-132829406D01*
X161147378Y-132895298D01*
X161052619Y-133072580D01*
X160994265Y-133264948D01*
X160979500Y-133414864D01*
X160979500Y-133965136D01*
X156762189Y-133965136D01*
X156750540Y-133831995D01*
X156693252Y-133618193D01*
X156599706Y-133417582D01*
X156553895Y-133352156D01*
X155853553Y-134052500D01*
X155146447Y-134052500D01*
X154446103Y-133352156D01*
X154400293Y-133417582D01*
X154306747Y-133618193D01*
X154249459Y-133831995D01*
X154230167Y-134052500D01*
X148950655Y-134052500D01*
X148930083Y-133843626D01*
X148869156Y-133642778D01*
X148770217Y-133457676D01*
X148637067Y-133295433D01*
X148474824Y-133162283D01*
X148451644Y-133149893D01*
X148289723Y-133063344D01*
X148088872Y-133002416D01*
X148050156Y-132998603D01*
X154799656Y-132998603D01*
X155499999Y-133698946D01*
X156200342Y-132998603D01*
X156134917Y-132952794D01*
X155934306Y-132859247D01*
X155720504Y-132801959D01*
X155500000Y-132782667D01*
X155279495Y-132801959D01*
X155065693Y-132859247D01*
X154865082Y-132952793D01*
X154799656Y-132998603D01*
X148050156Y-132998603D01*
X147880000Y-132981845D01*
X147671127Y-133002416D01*
X147470276Y-133063344D01*
X147285177Y-133162282D01*
X147122933Y-133295433D01*
X146989782Y-133457677D01*
X146890844Y-133642776D01*
X146829916Y-133843627D01*
X146809345Y-134052500D01*
X120760432Y-134052500D01*
X120677084Y-133864216D01*
X120677083Y-133864213D01*
X120513971Y-133595144D01*
X120513970Y-133595142D01*
X120317786Y-133349135D01*
X120264811Y-133297832D01*
X120091753Y-133130234D01*
X119839584Y-132942036D01*
X119565421Y-132787629D01*
X119273766Y-132669552D01*
X118969397Y-132589736D01*
X118657327Y-132549500D01*
X118421420Y-132549500D01*
X118185992Y-132564615D01*
X118185988Y-132564615D01*
X118185984Y-132564616D01*
X117877143Y-132624763D01*
X117578519Y-132723912D01*
X117295014Y-132860441D01*
X117031312Y-133032093D01*
X116791721Y-133236059D01*
X116580178Y-133468992D01*
X116400157Y-133727065D01*
X116254618Y-134006036D01*
X116152589Y-134283284D01*
X116145948Y-134301330D01*
X116144558Y-134307419D01*
X116075930Y-134608097D01*
X116051400Y-134862381D01*
X116045717Y-134921296D01*
X102713610Y-134921296D01*
X102500867Y-134600270D01*
X102499960Y-134598861D01*
X102493106Y-134587888D01*
X102102308Y-133962192D01*
X101719911Y-133349947D01*
X101719038Y-133348506D01*
X101293673Y-132624763D01*
X100972945Y-132079055D01*
X100972122Y-132077611D01*
X100908405Y-131962188D01*
X100660165Y-131512500D01*
X146809345Y-131512500D01*
X146829916Y-131721372D01*
X146890844Y-131922223D01*
X146912206Y-131962188D01*
X146989783Y-132107324D01*
X147122933Y-132269567D01*
X147285176Y-132402717D01*
X147470278Y-132501656D01*
X147671126Y-132562583D01*
X147880000Y-132583155D01*
X148088874Y-132562583D01*
X148289722Y-132501656D01*
X148474824Y-132402717D01*
X148637067Y-132269567D01*
X148770217Y-132107324D01*
X148869156Y-131922222D01*
X148930083Y-131721374D01*
X148950655Y-131512500D01*
X154429345Y-131512500D01*
X154449916Y-131721372D01*
X154510844Y-131922223D01*
X154532206Y-131962188D01*
X154609783Y-132107324D01*
X154742933Y-132269567D01*
X154905176Y-132402717D01*
X155090278Y-132501656D01*
X155291126Y-132562583D01*
X155500000Y-132583155D01*
X155708874Y-132562583D01*
X155909722Y-132501656D01*
X156094824Y-132402717D01*
X156257067Y-132269567D01*
X156390217Y-132107324D01*
X156489156Y-131922222D01*
X156550083Y-131721374D01*
X156570655Y-131512500D01*
X156550083Y-131303626D01*
X156489156Y-131102778D01*
X156390217Y-130917676D01*
X156257067Y-130755433D01*
X156094824Y-130622283D01*
X156073653Y-130610967D01*
X155909723Y-130523344D01*
X155708872Y-130462416D01*
X155500000Y-130441845D01*
X155291127Y-130462416D01*
X155090276Y-130523344D01*
X154905177Y-130622282D01*
X154742933Y-130755433D01*
X154609782Y-130917677D01*
X154510844Y-131102776D01*
X154449916Y-131303627D01*
X154429345Y-131512500D01*
X148950655Y-131512500D01*
X148930083Y-131303626D01*
X148869156Y-131102778D01*
X148770217Y-130917676D01*
X148637067Y-130755433D01*
X148474824Y-130622283D01*
X148453653Y-130610967D01*
X148289723Y-130523344D01*
X148088872Y-130462416D01*
X147880000Y-130441845D01*
X147671127Y-130462416D01*
X147470276Y-130523344D01*
X147285177Y-130622282D01*
X147122933Y-130755433D01*
X146989782Y-130917677D01*
X146890844Y-131102776D01*
X146829916Y-131303627D01*
X146809345Y-131512500D01*
X100660165Y-131512500D01*
X100260500Y-130788503D01*
X100259708Y-130787021D01*
X100123289Y-130523344D01*
X100054111Y-130389633D01*
X166250000Y-130389633D01*
X166250000Y-134986258D01*
X166361411Y-134959229D01*
X166444474Y-134921296D01*
X176045717Y-134921296D01*
X176055802Y-135235789D01*
X176106021Y-135546410D01*
X176189492Y-135827650D01*
X176195549Y-135848059D01*
X176322916Y-136135786D01*
X176486028Y-136404855D01*
X176486030Y-136404858D01*
X176682214Y-136650865D01*
X176682215Y-136650866D01*
X176908246Y-136869765D01*
X177160415Y-137057963D01*
X177434578Y-137212370D01*
X177591962Y-137276087D01*
X177726238Y-137330449D01*
X178030601Y-137410263D01*
X178342673Y-137450500D01*
X178578573Y-137450500D01*
X178578580Y-137450500D01*
X178814008Y-137435385D01*
X179122860Y-137375236D01*
X179421485Y-137276086D01*
X179704979Y-137139562D01*
X179968687Y-136967907D01*
X180208280Y-136763939D01*
X180419822Y-136531007D01*
X180599842Y-136272936D01*
X180745381Y-135993964D01*
X180854052Y-135698670D01*
X180924069Y-135391905D01*
X180954283Y-135078704D01*
X180944198Y-134764211D01*
X180893979Y-134453590D01*
X180804451Y-134151941D01*
X180677084Y-133864216D01*
X180677083Y-133864213D01*
X180513971Y-133595144D01*
X180513970Y-133595142D01*
X180317786Y-133349135D01*
X180264811Y-133297832D01*
X180091753Y-133130234D01*
X179839584Y-132942036D01*
X179565421Y-132787629D01*
X179273766Y-132669552D01*
X178969397Y-132589736D01*
X178657327Y-132549500D01*
X178421420Y-132549500D01*
X178185992Y-132564615D01*
X178185988Y-132564615D01*
X178185984Y-132564616D01*
X177877143Y-132624763D01*
X177578519Y-132723912D01*
X177295014Y-132860441D01*
X177031312Y-133032093D01*
X176791721Y-133236059D01*
X176580178Y-133468992D01*
X176400157Y-133727065D01*
X176254618Y-134006036D01*
X176152589Y-134283284D01*
X176145948Y-134301330D01*
X176144558Y-134307419D01*
X176075930Y-134608097D01*
X176051400Y-134862381D01*
X176045717Y-134921296D01*
X166444474Y-134921296D01*
X166552499Y-134871963D01*
X166723625Y-134750104D01*
X166868592Y-134598068D01*
X166982166Y-134421343D01*
X167048031Y-134256821D01*
X167071889Y-134227714D01*
X167108136Y-134217585D01*
X167143628Y-134230106D01*
X167165494Y-134260736D01*
X167172821Y-134283284D01*
X167197303Y-134325688D01*
X167267468Y-134447218D01*
X167303114Y-134486806D01*
X167394129Y-134587888D01*
X167547270Y-134699151D01*
X167720197Y-134776144D01*
X167843634Y-134802381D01*
X167905353Y-134815500D01*
X167905354Y-134815500D01*
X168094646Y-134815500D01*
X168094647Y-134815500D01*
X168140935Y-134805661D01*
X168279803Y-134776144D01*
X168452730Y-134699151D01*
X168605871Y-134587888D01*
X168732533Y-134447216D01*
X168827179Y-134283284D01*
X168885674Y-134103256D01*
X168900500Y-133962192D01*
X168900500Y-133417808D01*
X168885674Y-133276744D01*
X168827179Y-133096716D01*
X168732533Y-132932784D01*
X168732532Y-132932783D01*
X168732531Y-132932781D01*
X168605871Y-132792112D01*
X168534919Y-132740562D01*
X168512215Y-132709312D01*
X168512215Y-132670685D01*
X168534917Y-132639438D01*
X168605871Y-132587888D01*
X168732533Y-132447216D01*
X168827179Y-132283284D01*
X168885674Y-132103256D01*
X168900500Y-131962192D01*
X168900500Y-131417808D01*
X168885674Y-131276744D01*
X168827179Y-131096716D01*
X168732533Y-130932784D01*
X168732532Y-130932783D01*
X168732531Y-130932781D01*
X168660511Y-130852796D01*
X168605871Y-130792112D01*
X168452730Y-130680849D01*
X168279803Y-130603856D01*
X168279801Y-130603855D01*
X168279800Y-130603855D01*
X168094647Y-130564500D01*
X168094646Y-130564500D01*
X167905354Y-130564500D01*
X167905353Y-130564500D01*
X167720199Y-130603855D01*
X167547271Y-130680848D01*
X167547269Y-130680849D01*
X167547270Y-130680849D01*
X167394129Y-130792112D01*
X167394126Y-130792114D01*
X167394126Y-130792115D01*
X167267468Y-130932781D01*
X167172821Y-131096716D01*
X167164620Y-131121955D01*
X167141553Y-131153465D01*
X167104286Y-131165134D01*
X167067367Y-131152405D01*
X167045211Y-131120248D01*
X167025850Y-131054310D01*
X166929589Y-130867589D01*
X166799729Y-130702460D01*
X166640966Y-130564891D01*
X166459035Y-130459853D01*
X166260514Y-130391144D01*
X166250000Y-130389633D01*
X100054111Y-130389633D01*
X99687083Y-129680221D01*
X99583070Y-129479179D01*
X99582317Y-129477672D01*
X99458899Y-129222500D01*
X146615000Y-129222500D01*
X146615000Y-129785327D01*
X146621402Y-129844878D01*
X146671645Y-129979586D01*
X146757810Y-130094689D01*
X146872913Y-130180854D01*
X147007621Y-130231097D01*
X147067173Y-130237500D01*
X147630000Y-130237500D01*
X147630000Y-129222500D01*
X148130000Y-129222500D01*
X148130000Y-130237500D01*
X148692827Y-130237500D01*
X148752378Y-130231097D01*
X148887086Y-130180854D01*
X149002189Y-130094689D01*
X149088354Y-129979586D01*
X149138597Y-129844878D01*
X149145000Y-129785327D01*
X149145000Y-129222500D01*
X148130000Y-129222500D01*
X147630000Y-129222500D01*
X146615000Y-129222500D01*
X99458899Y-129222500D01*
X99337982Y-128972500D01*
X154429345Y-128972500D01*
X154449916Y-129181372D01*
X154510844Y-129382223D01*
X154598467Y-129546153D01*
X154609783Y-129567324D01*
X154742933Y-129729567D01*
X154905176Y-129862717D01*
X155090278Y-129961656D01*
X155291126Y-130022583D01*
X155500000Y-130043155D01*
X155708874Y-130022583D01*
X155909722Y-129961656D01*
X156094824Y-129862717D01*
X156257067Y-129729567D01*
X156390217Y-129567324D01*
X156489156Y-129382222D01*
X156550083Y-129181374D01*
X156568002Y-128999432D01*
X170569615Y-128999432D01*
X170589124Y-129234866D01*
X170647117Y-129463877D01*
X170692492Y-129567322D01*
X170742014Y-129680221D01*
X170871224Y-129877992D01*
X170871225Y-129877993D01*
X171031227Y-130051800D01*
X171217654Y-130196902D01*
X171425421Y-130309340D01*
X171648861Y-130386048D01*
X171881880Y-130424932D01*
X172118118Y-130424932D01*
X172118120Y-130424932D01*
X172351139Y-130386048D01*
X172574579Y-130309340D01*
X172782346Y-130196902D01*
X172968773Y-130051800D01*
X173128775Y-129877993D01*
X173257986Y-129680220D01*
X173352883Y-129463877D01*
X173410876Y-129234866D01*
X173430385Y-128999432D01*
X173410876Y-128763998D01*
X173352883Y-128534987D01*
X173257986Y-128318644D01*
X173128775Y-128120871D01*
X172968773Y-127947064D01*
X172782346Y-127801962D01*
X172574579Y-127689524D01*
X172351139Y-127612816D01*
X172118120Y-127573932D01*
X171881880Y-127573932D01*
X171648861Y-127612815D01*
X171648861Y-127612816D01*
X171425418Y-127689525D01*
X171217652Y-127801963D01*
X171031229Y-127947062D01*
X170871224Y-128120871D01*
X170742014Y-128318642D01*
X170658763Y-128508435D01*
X170647117Y-128534987D01*
X170589124Y-128763998D01*
X170569615Y-128999432D01*
X156568002Y-128999432D01*
X156570655Y-128972500D01*
X156550083Y-128763626D01*
X156489156Y-128562778D01*
X156390217Y-128377676D01*
X156257067Y-128215433D01*
X156094824Y-128082283D01*
X156045113Y-128055712D01*
X155909723Y-127983344D01*
X155708872Y-127922416D01*
X155500000Y-127901845D01*
X155291127Y-127922416D01*
X155090276Y-127983344D01*
X154905177Y-128082282D01*
X154742933Y-128215433D01*
X154609782Y-128377677D01*
X154510844Y-128562776D01*
X154449916Y-128763627D01*
X154429345Y-128972500D01*
X99337982Y-128972500D01*
X99217065Y-128722500D01*
X146615000Y-128722500D01*
X147630000Y-128722500D01*
X147630000Y-127707500D01*
X148130000Y-127707500D01*
X148130000Y-128722500D01*
X149145000Y-128722500D01*
X149145000Y-128159673D01*
X149138597Y-128100121D01*
X149088354Y-127965413D01*
X149002189Y-127850310D01*
X148887086Y-127764145D01*
X148752378Y-127713902D01*
X148692827Y-127707500D01*
X148130000Y-127707500D01*
X147630000Y-127707500D01*
X147067173Y-127707500D01*
X147007621Y-127713902D01*
X146872913Y-127764145D01*
X146757810Y-127850310D01*
X146671645Y-127965413D01*
X146621402Y-128100121D01*
X146615000Y-128159673D01*
X146615000Y-128722500D01*
X99217065Y-128722500D01*
X98941188Y-128152114D01*
X98940507Y-128150656D01*
X98335320Y-126808280D01*
X98334650Y-126806740D01*
X98253567Y-126613125D01*
X102510426Y-126613125D01*
X102572610Y-126656666D01*
X102770843Y-126749103D01*
X102982110Y-126805712D01*
X103200000Y-126824775D01*
X103417889Y-126805712D01*
X103629156Y-126749103D01*
X103827385Y-126656667D01*
X103889571Y-126613124D01*
X103200000Y-125923553D01*
X102510426Y-126613125D01*
X98253567Y-126613125D01*
X97816720Y-125569999D01*
X101945224Y-125569999D01*
X101964287Y-125787889D01*
X102020896Y-125999156D01*
X102113334Y-126197389D01*
X102156873Y-126259572D01*
X102846447Y-125570000D01*
X103553553Y-125570000D01*
X104243124Y-126259571D01*
X104286667Y-126197385D01*
X104379103Y-125999156D01*
X104435712Y-125787889D01*
X104454775Y-125570000D01*
X109764417Y-125570000D01*
X109784699Y-125775932D01*
X109814928Y-125875583D01*
X109844768Y-125973954D01*
X109928406Y-126130428D01*
X109942317Y-126156453D01*
X110073589Y-126316410D01*
X110233546Y-126447682D01*
X110233550Y-126447685D01*
X110416046Y-126545232D01*
X110614066Y-126605300D01*
X110820000Y-126625583D01*
X111025934Y-126605300D01*
X111223954Y-126545232D01*
X111406450Y-126447685D01*
X111536863Y-126340657D01*
X111547143Y-126333802D01*
X111548462Y-126333101D01*
X112003124Y-125972085D01*
X112032208Y-125959303D01*
X112055304Y-125955646D01*
X112079358Y-125943388D01*
X112088414Y-125939637D01*
X112114090Y-125931296D01*
X112135939Y-125915421D01*
X112144280Y-125910309D01*
X112168342Y-125898050D01*
X112183733Y-125882657D01*
X112183739Y-125882654D01*
X112221625Y-125844768D01*
X112443290Y-125623101D01*
X112448610Y-125618358D01*
X112456179Y-125612349D01*
X112495402Y-125571017D01*
X112496466Y-125569925D01*
X113246392Y-124820000D01*
X120429417Y-124820000D01*
X120449699Y-125025932D01*
X120449700Y-125025934D01*
X120509768Y-125223954D01*
X120584661Y-125364067D01*
X120607317Y-125406453D01*
X120738589Y-125566410D01*
X120898546Y-125697682D01*
X120898550Y-125697685D01*
X121081046Y-125795232D01*
X121279066Y-125855300D01*
X121485000Y-125875583D01*
X121690934Y-125855300D01*
X121888954Y-125795232D01*
X122071450Y-125697685D01*
X122231410Y-125566410D01*
X122362685Y-125406450D01*
X122460232Y-125223954D01*
X122520300Y-125025934D01*
X122540583Y-124820000D01*
X122969417Y-124820000D01*
X122989699Y-125025932D01*
X122989700Y-125025934D01*
X123049768Y-125223954D01*
X123124661Y-125364067D01*
X123147317Y-125406453D01*
X123278589Y-125566410D01*
X123438546Y-125697682D01*
X123438550Y-125697685D01*
X123621046Y-125795232D01*
X123819066Y-125855300D01*
X124025000Y-125875583D01*
X124230934Y-125855300D01*
X124415108Y-125799432D01*
X170569615Y-125799432D01*
X170589124Y-126034866D01*
X170647117Y-126263877D01*
X170680798Y-126340661D01*
X170742014Y-126480221D01*
X170829460Y-126614067D01*
X170871225Y-126677993D01*
X171031227Y-126851800D01*
X171217654Y-126996902D01*
X171425421Y-127109340D01*
X171648861Y-127186048D01*
X171881880Y-127224932D01*
X172118118Y-127224932D01*
X172118120Y-127224932D01*
X172351139Y-127186048D01*
X172574579Y-127109340D01*
X172782346Y-126996902D01*
X172968773Y-126851800D01*
X172998048Y-126819999D01*
X184624417Y-126819999D01*
X184644699Y-127025932D01*
X184644700Y-127025934D01*
X184704768Y-127223954D01*
X184705291Y-127224932D01*
X184802317Y-127406453D01*
X184933589Y-127566410D01*
X185083607Y-127689525D01*
X185093550Y-127697685D01*
X185276046Y-127795232D01*
X185474066Y-127855300D01*
X185680000Y-127875583D01*
X185885934Y-127855300D01*
X186083954Y-127795232D01*
X186266450Y-127697685D01*
X186426410Y-127566410D01*
X186557685Y-127406450D01*
X186655232Y-127223954D01*
X186715300Y-127025934D01*
X186735583Y-126820000D01*
X186735583Y-126819999D01*
X187164417Y-126819999D01*
X187184699Y-127025932D01*
X187184700Y-127025934D01*
X187244768Y-127223954D01*
X187245291Y-127224932D01*
X187342317Y-127406453D01*
X187473589Y-127566410D01*
X187623607Y-127689525D01*
X187633550Y-127697685D01*
X187816046Y-127795232D01*
X188014066Y-127855300D01*
X188220000Y-127875583D01*
X188425934Y-127855300D01*
X188623954Y-127795232D01*
X188806450Y-127697685D01*
X188966410Y-127566410D01*
X189097685Y-127406450D01*
X189195232Y-127223954D01*
X189255300Y-127025934D01*
X189275583Y-126820000D01*
X189275583Y-126819999D01*
X189704417Y-126819999D01*
X189724699Y-127025932D01*
X189724700Y-127025934D01*
X189784768Y-127223954D01*
X189785291Y-127224932D01*
X189882317Y-127406453D01*
X190013589Y-127566410D01*
X190163607Y-127689525D01*
X190173550Y-127697685D01*
X190356046Y-127795232D01*
X190554066Y-127855300D01*
X190760000Y-127875583D01*
X190886487Y-127863125D01*
X192610426Y-127863125D01*
X192672610Y-127906666D01*
X192870843Y-127999103D01*
X193082110Y-128055712D01*
X193300000Y-128074775D01*
X193517889Y-128055712D01*
X193729156Y-127999103D01*
X193927385Y-127906667D01*
X193989571Y-127863124D01*
X193300000Y-127173553D01*
X192610426Y-127863125D01*
X190886487Y-127863125D01*
X190965934Y-127855300D01*
X191163954Y-127795232D01*
X191346450Y-127697685D01*
X191506410Y-127566410D01*
X191637685Y-127406450D01*
X191735232Y-127223954D01*
X191795300Y-127025934D01*
X191815583Y-126820000D01*
X191815583Y-126819999D01*
X192045224Y-126819999D01*
X192064287Y-127037889D01*
X192120896Y-127249156D01*
X192213334Y-127447389D01*
X192256873Y-127509572D01*
X192946447Y-126820000D01*
X193653553Y-126820000D01*
X194343124Y-127509571D01*
X194386667Y-127447385D01*
X194479103Y-127249156D01*
X194535712Y-127037889D01*
X194554775Y-126819999D01*
X194535712Y-126602110D01*
X194479103Y-126390843D01*
X194386667Y-126192614D01*
X194343123Y-126130428D01*
X193653553Y-126820000D01*
X192946447Y-126820000D01*
X192256874Y-126130427D01*
X192213333Y-126192611D01*
X192120896Y-126390843D01*
X192064287Y-126602110D01*
X192045224Y-126819999D01*
X191815583Y-126819999D01*
X191795300Y-126614066D01*
X191735232Y-126416046D01*
X191637685Y-126233550D01*
X191608009Y-126197389D01*
X191506410Y-126073589D01*
X191346453Y-125942317D01*
X191346451Y-125942316D01*
X191346450Y-125942315D01*
X191163954Y-125844768D01*
X191077729Y-125818612D01*
X190965932Y-125784699D01*
X190886481Y-125776874D01*
X192610427Y-125776874D01*
X193299999Y-126466446D01*
X193989572Y-125776873D01*
X193927389Y-125733334D01*
X193729156Y-125640896D01*
X193517889Y-125584287D01*
X193300000Y-125565224D01*
X193082110Y-125584287D01*
X192870843Y-125640896D01*
X192672611Y-125733333D01*
X192610427Y-125776874D01*
X190886481Y-125776874D01*
X190760000Y-125764417D01*
X190554067Y-125784699D01*
X190356046Y-125844768D01*
X190173546Y-125942317D01*
X190013589Y-126073589D01*
X189882317Y-126233546D01*
X189784768Y-126416046D01*
X189724699Y-126614067D01*
X189704417Y-126819999D01*
X189275583Y-126819999D01*
X189255300Y-126614066D01*
X189195232Y-126416046D01*
X189097685Y-126233550D01*
X189068009Y-126197389D01*
X188966410Y-126073589D01*
X188806453Y-125942317D01*
X188806451Y-125942316D01*
X188806450Y-125942315D01*
X188623954Y-125844768D01*
X188537729Y-125818612D01*
X188425932Y-125784699D01*
X188220000Y-125764417D01*
X188014067Y-125784699D01*
X187816046Y-125844768D01*
X187633546Y-125942317D01*
X187473589Y-126073589D01*
X187342317Y-126233546D01*
X187244768Y-126416046D01*
X187184699Y-126614067D01*
X187164417Y-126819999D01*
X186735583Y-126819999D01*
X186715300Y-126614066D01*
X186655232Y-126416046D01*
X186557685Y-126233550D01*
X186528009Y-126197389D01*
X186426410Y-126073589D01*
X186266453Y-125942317D01*
X186266451Y-125942316D01*
X186266450Y-125942315D01*
X186083954Y-125844768D01*
X185997729Y-125818612D01*
X185885932Y-125784699D01*
X185680000Y-125764417D01*
X185474067Y-125784699D01*
X185276046Y-125844768D01*
X185093546Y-125942317D01*
X184933589Y-126073589D01*
X184802317Y-126233546D01*
X184704768Y-126416046D01*
X184644699Y-126614067D01*
X184624417Y-126819999D01*
X172998048Y-126819999D01*
X173128775Y-126677993D01*
X173257986Y-126480220D01*
X173352883Y-126263877D01*
X173410876Y-126034866D01*
X173430385Y-125799432D01*
X173410876Y-125563998D01*
X173352883Y-125334987D01*
X173257986Y-125118644D01*
X173197414Y-125025932D01*
X173128775Y-124920871D01*
X173075409Y-124862901D01*
X172968773Y-124747064D01*
X172782346Y-124601962D01*
X172574579Y-124489524D01*
X172351139Y-124412816D01*
X172118120Y-124373932D01*
X171881880Y-124373932D01*
X171675229Y-124408416D01*
X171648861Y-124412816D01*
X171425418Y-124489525D01*
X171217652Y-124601963D01*
X171031229Y-124747062D01*
X170871224Y-124920871D01*
X170742014Y-125118642D01*
X170658763Y-125308436D01*
X170647117Y-125334987D01*
X170589124Y-125563998D01*
X170569615Y-125799432D01*
X124415108Y-125799432D01*
X124428954Y-125795232D01*
X124611450Y-125697685D01*
X124771410Y-125566410D01*
X124902685Y-125406450D01*
X125000232Y-125223954D01*
X125060300Y-125025934D01*
X125080583Y-124820000D01*
X125060300Y-124614066D01*
X125000232Y-124416046D01*
X124902685Y-124233550D01*
X124882622Y-124209103D01*
X124771410Y-124073589D01*
X124611453Y-123942317D01*
X124611451Y-123942316D01*
X124611450Y-123942315D01*
X124428954Y-123844768D01*
X124342729Y-123818612D01*
X124230932Y-123784699D01*
X124025000Y-123764417D01*
X123819067Y-123784699D01*
X123621046Y-123844768D01*
X123438546Y-123942317D01*
X123278589Y-124073589D01*
X123147317Y-124233546D01*
X123049768Y-124416046D01*
X122989699Y-124614067D01*
X122969417Y-124820000D01*
X122540583Y-124820000D01*
X122520300Y-124614066D01*
X122460232Y-124416046D01*
X122362685Y-124233550D01*
X122342622Y-124209103D01*
X122231410Y-124073589D01*
X122071453Y-123942317D01*
X122071451Y-123942316D01*
X122071450Y-123942315D01*
X121888954Y-123844768D01*
X121802729Y-123818612D01*
X121690932Y-123784699D01*
X121485000Y-123764417D01*
X121279067Y-123784699D01*
X121081046Y-123844768D01*
X120898546Y-123942317D01*
X120738589Y-124073589D01*
X120607317Y-124233546D01*
X120509768Y-124416046D01*
X120449699Y-124614067D01*
X120429417Y-124820000D01*
X113246392Y-124820000D01*
X113555484Y-124510909D01*
X113555484Y-124510908D01*
X113562656Y-124503737D01*
X113562658Y-124503733D01*
X113578050Y-124488342D01*
X113590309Y-124464280D01*
X113595421Y-124455939D01*
X113611296Y-124434090D01*
X113619637Y-124408414D01*
X113623388Y-124399358D01*
X113635646Y-124375304D01*
X113639870Y-124348631D01*
X113642159Y-124339102D01*
X113650500Y-124313434D01*
X113650500Y-123000000D01*
X148939707Y-123000000D01*
X148958798Y-123145012D01*
X149014771Y-123280146D01*
X149103812Y-123396187D01*
X149185875Y-123459156D01*
X149219853Y-123485228D01*
X149354986Y-123541201D01*
X149500000Y-123560293D01*
X149645014Y-123541201D01*
X149780147Y-123485228D01*
X149896187Y-123396187D01*
X149985228Y-123280147D01*
X150041201Y-123145014D01*
X150060293Y-123000000D01*
X151189707Y-123000000D01*
X151208798Y-123145012D01*
X151264771Y-123280146D01*
X151353812Y-123396187D01*
X151435875Y-123459156D01*
X151469853Y-123485228D01*
X151604986Y-123541201D01*
X151750000Y-123560293D01*
X151895014Y-123541201D01*
X152030147Y-123485228D01*
X152146187Y-123396187D01*
X152235228Y-123280147D01*
X152291201Y-123145014D01*
X152310293Y-123000000D01*
X152291201Y-122854986D01*
X152281017Y-122830400D01*
X152277832Y-122820406D01*
X152272429Y-122796729D01*
X152153626Y-122435369D01*
X152150500Y-122415849D01*
X152150500Y-119084151D01*
X152153626Y-119064631D01*
X152196288Y-118934866D01*
X152272429Y-118703270D01*
X152277830Y-118679600D01*
X152281022Y-118669586D01*
X152291201Y-118645014D01*
X152310293Y-118500000D01*
X152291201Y-118354986D01*
X152235228Y-118219854D01*
X152146187Y-118103813D01*
X152146185Y-118103812D01*
X152146185Y-118103811D01*
X152030148Y-118014772D01*
X151895012Y-117958798D01*
X151750000Y-117939707D01*
X151604987Y-117958798D01*
X151469852Y-118014772D01*
X151353812Y-118103812D01*
X151264772Y-118219852D01*
X151208798Y-118354987D01*
X151189861Y-118498828D01*
X151189707Y-118500000D01*
X151190214Y-118503852D01*
X151208798Y-118645012D01*
X151218976Y-118669585D01*
X151222165Y-118679590D01*
X151227570Y-118703270D01*
X151346374Y-119064631D01*
X151349500Y-119084151D01*
X151349500Y-122415851D01*
X151346373Y-122435371D01*
X151227571Y-122796721D01*
X151222166Y-122820406D01*
X151218976Y-122830413D01*
X151208799Y-122854984D01*
X151189707Y-123000000D01*
X150060293Y-123000000D01*
X150041201Y-122854986D01*
X150031017Y-122830400D01*
X150027832Y-122820406D01*
X150022429Y-122796729D01*
X149903626Y-122435369D01*
X149900500Y-122415849D01*
X149900500Y-119084151D01*
X149903626Y-119064631D01*
X149946288Y-118934866D01*
X150022429Y-118703270D01*
X150027830Y-118679600D01*
X150031022Y-118669586D01*
X150041201Y-118645014D01*
X150060293Y-118500000D01*
X150041201Y-118354986D01*
X149985228Y-118219854D01*
X149896187Y-118103813D01*
X149896185Y-118103812D01*
X149896185Y-118103811D01*
X149780148Y-118014772D01*
X149645012Y-117958798D01*
X149500000Y-117939707D01*
X149354987Y-117958798D01*
X149219852Y-118014772D01*
X149103812Y-118103812D01*
X149014772Y-118219852D01*
X148958798Y-118354987D01*
X148939861Y-118498828D01*
X148939707Y-118500000D01*
X148940214Y-118503852D01*
X148958798Y-118645012D01*
X148968976Y-118669585D01*
X148972165Y-118679590D01*
X148977570Y-118703270D01*
X149096374Y-119064631D01*
X149099500Y-119084151D01*
X149099500Y-122415851D01*
X149096373Y-122435371D01*
X148977571Y-122796721D01*
X148972166Y-122820406D01*
X148968976Y-122830413D01*
X148958799Y-122854984D01*
X148939707Y-123000000D01*
X113650500Y-123000000D01*
X113650500Y-118699432D01*
X116169615Y-118699432D01*
X116189124Y-118934866D01*
X116247117Y-119163877D01*
X116281324Y-119241860D01*
X116342014Y-119380221D01*
X116471224Y-119577992D01*
X116471225Y-119577993D01*
X116631227Y-119751800D01*
X116817654Y-119896902D01*
X117025421Y-120009340D01*
X117248861Y-120086048D01*
X117481880Y-120124932D01*
X117718118Y-120124932D01*
X117718120Y-120124932D01*
X117951139Y-120086048D01*
X118174579Y-120009340D01*
X118382346Y-119896902D01*
X118568773Y-119751800D01*
X118728775Y-119577993D01*
X118857986Y-119380220D01*
X118952883Y-119163877D01*
X119010876Y-118934866D01*
X119030385Y-118699432D01*
X119010876Y-118463998D01*
X118954944Y-118243125D01*
X120795426Y-118243125D01*
X120857610Y-118286666D01*
X121055843Y-118379103D01*
X121267110Y-118435712D01*
X121485000Y-118454775D01*
X121702889Y-118435712D01*
X121914156Y-118379103D01*
X122112385Y-118286667D01*
X122174571Y-118243124D01*
X121926308Y-117994861D01*
X122974500Y-117994861D01*
X122977415Y-118019990D01*
X123022794Y-118122766D01*
X123102233Y-118202205D01*
X123102234Y-118202205D01*
X123102235Y-118202206D01*
X123205009Y-118247585D01*
X123230135Y-118250500D01*
X124819864Y-118250499D01*
X124844991Y-118247585D01*
X124947765Y-118202206D01*
X125027206Y-118122765D01*
X125072585Y-118019991D01*
X125075500Y-117994865D01*
X125075499Y-116405136D01*
X125072585Y-116380009D01*
X125053815Y-116337499D01*
X128689707Y-116337499D01*
X128708798Y-116482512D01*
X128764771Y-116617646D01*
X128853812Y-116733687D01*
X128926294Y-116789304D01*
X128969853Y-116822728D01*
X129104986Y-116878701D01*
X129250000Y-116897793D01*
X129395014Y-116878701D01*
X129406240Y-116874050D01*
X129417462Y-116870595D01*
X129419104Y-116870254D01*
X129419107Y-116870254D01*
X129809169Y-116789304D01*
X129821870Y-116788000D01*
X134383689Y-116788000D01*
X134390687Y-116788393D01*
X134429535Y-116792770D01*
X134486861Y-116781922D01*
X134489111Y-116781540D01*
X134524144Y-116776260D01*
X134546782Y-116772849D01*
X134546782Y-116772848D01*
X134546787Y-116772848D01*
X134547105Y-116772694D01*
X134562619Y-116767590D01*
X134562972Y-116767523D01*
X134562972Y-116767522D01*
X134614559Y-116740257D01*
X134616586Y-116739233D01*
X134669142Y-116713925D01*
X134669409Y-116713676D01*
X134682717Y-116704236D01*
X134682801Y-116704191D01*
X134683038Y-116704066D01*
X134724287Y-116662815D01*
X134725942Y-116661221D01*
X134768694Y-116621555D01*
X134768876Y-116621239D01*
X134778807Y-116608295D01*
X136048186Y-115338915D01*
X136053385Y-115334268D01*
X136083970Y-115309879D01*
X136116838Y-115261669D01*
X136118161Y-115259804D01*
X136152793Y-115212882D01*
X136152910Y-115212545D01*
X136160265Y-115197975D01*
X136160472Y-115197673D01*
X136177678Y-115141888D01*
X136178383Y-115139745D01*
X136197646Y-115084699D01*
X136197659Y-115084338D01*
X136200394Y-115068244D01*
X136200500Y-115067901D01*
X136200500Y-115009603D01*
X136200544Y-115007265D01*
X136202725Y-114948992D01*
X136202724Y-114948991D01*
X136202725Y-114948990D01*
X136202629Y-114948634D01*
X136200500Y-114932458D01*
X136200500Y-113474999D01*
X136681936Y-113474999D01*
X136702150Y-113706051D01*
X136762179Y-113930077D01*
X136860199Y-114140281D01*
X136993229Y-114330269D01*
X137157230Y-114494270D01*
X137226032Y-114542445D01*
X137347219Y-114627301D01*
X137557421Y-114725320D01*
X137632097Y-114745329D01*
X137781448Y-114785349D01*
X137954627Y-114800500D01*
X137954629Y-114800500D01*
X138070371Y-114800500D01*
X138070373Y-114800500D01*
X138243551Y-114785349D01*
X138339179Y-114759725D01*
X138467579Y-114725320D01*
X138677781Y-114627301D01*
X138867769Y-114494270D01*
X139031770Y-114330269D01*
X139164801Y-114140282D01*
X139262820Y-113930079D01*
X139318817Y-113721098D01*
X139322849Y-113706051D01*
X139343063Y-113475000D01*
X157181936Y-113475000D01*
X157202150Y-113706051D01*
X157262179Y-113930077D01*
X157360199Y-114140281D01*
X157493229Y-114330269D01*
X157657230Y-114494270D01*
X157726032Y-114542445D01*
X157847219Y-114627301D01*
X158057421Y-114725320D01*
X158132097Y-114745329D01*
X158281448Y-114785349D01*
X158454627Y-114800500D01*
X158454629Y-114800500D01*
X158570371Y-114800500D01*
X158570373Y-114800500D01*
X158743551Y-114785349D01*
X158839179Y-114759725D01*
X158967579Y-114725320D01*
X159177781Y-114627301D01*
X159367769Y-114494270D01*
X159531770Y-114330269D01*
X159664801Y-114140282D01*
X159762820Y-113930079D01*
X159818817Y-113721098D01*
X159822849Y-113706051D01*
X159843063Y-113475000D01*
X159822849Y-113243948D01*
X159763492Y-113022429D01*
X159762820Y-113019921D01*
X159664801Y-112809719D01*
X159592129Y-112705932D01*
X159531770Y-112619730D01*
X159367769Y-112455729D01*
X159177781Y-112322699D01*
X158967577Y-112224679D01*
X158743551Y-112164650D01*
X158570373Y-112149500D01*
X158570371Y-112149500D01*
X158454629Y-112149500D01*
X158454627Y-112149500D01*
X158281448Y-112164650D01*
X158057422Y-112224679D01*
X157847218Y-112322699D01*
X157657230Y-112455729D01*
X157493229Y-112619730D01*
X157360199Y-112809717D01*
X157262179Y-113019922D01*
X157202150Y-113243948D01*
X157181936Y-113475000D01*
X139343063Y-113475000D01*
X139322849Y-113243948D01*
X139263492Y-113022429D01*
X139262820Y-113019921D01*
X139164801Y-112809719D01*
X139092129Y-112705932D01*
X139031770Y-112619730D01*
X138867769Y-112455729D01*
X138677781Y-112322699D01*
X138467577Y-112224679D01*
X138243551Y-112164650D01*
X138070373Y-112149500D01*
X138070371Y-112149500D01*
X137954629Y-112149500D01*
X137954627Y-112149500D01*
X137781448Y-112164650D01*
X137557422Y-112224679D01*
X137347218Y-112322699D01*
X137157230Y-112455729D01*
X136993229Y-112619730D01*
X136860199Y-112809717D01*
X136762179Y-113019922D01*
X136702150Y-113243948D01*
X136681936Y-113474999D01*
X136200500Y-113474999D01*
X136200500Y-110712492D01*
X136218806Y-110668298D01*
X136340654Y-110546450D01*
X136823367Y-110063735D01*
X136854544Y-110046801D01*
X136889914Y-110049566D01*
X137693404Y-110357372D01*
X137695219Y-110358201D01*
X137697002Y-110358741D01*
X137697008Y-110358745D01*
X137895782Y-110419042D01*
X138102500Y-110439402D01*
X138309218Y-110419042D01*
X138507992Y-110358745D01*
X138691183Y-110260827D01*
X138851752Y-110129052D01*
X138983527Y-109968483D01*
X139081445Y-109785292D01*
X139141742Y-109586518D01*
X139162102Y-109379800D01*
X157362898Y-109379800D01*
X157383257Y-109586516D01*
X157443555Y-109785293D01*
X157541473Y-109968484D01*
X157673247Y-110129052D01*
X157833815Y-110260826D01*
X157993863Y-110346374D01*
X158017008Y-110358745D01*
X158215782Y-110419042D01*
X158422500Y-110439402D01*
X158629218Y-110419042D01*
X158827992Y-110358745D01*
X159011183Y-110260827D01*
X159171752Y-110129052D01*
X159303527Y-109968483D01*
X159401445Y-109785292D01*
X159461742Y-109586518D01*
X159482102Y-109379800D01*
X159461742Y-109173082D01*
X159401445Y-108974308D01*
X159377532Y-108929571D01*
X159303526Y-108791115D01*
X159171752Y-108630547D01*
X159011184Y-108498773D01*
X158827993Y-108400855D01*
X158629216Y-108340557D01*
X158422500Y-108320198D01*
X158215783Y-108340557D01*
X158017006Y-108400855D01*
X157833815Y-108498773D01*
X157673247Y-108630547D01*
X157541473Y-108791115D01*
X157443555Y-108974306D01*
X157383257Y-109173083D01*
X157362898Y-109379800D01*
X139162102Y-109379800D01*
X139141742Y-109173082D01*
X139081445Y-108974308D01*
X139057532Y-108929571D01*
X138983526Y-108791115D01*
X138851752Y-108630547D01*
X138691184Y-108498773D01*
X138507993Y-108400855D01*
X138309216Y-108340557D01*
X138102500Y-108320198D01*
X137895783Y-108340557D01*
X137697006Y-108400855D01*
X137513815Y-108498773D01*
X137450495Y-108550739D01*
X137444200Y-108555282D01*
X136871620Y-108916596D01*
X136849886Y-108925150D01*
X136795883Y-108935368D01*
X136793579Y-108935760D01*
X136735909Y-108944452D01*
X136735581Y-108944611D01*
X136720091Y-108949708D01*
X136719729Y-108949776D01*
X136668158Y-108977032D01*
X136666073Y-108978084D01*
X136613553Y-109003377D01*
X136613280Y-109003631D01*
X136599999Y-109013055D01*
X136599664Y-109013231D01*
X136558408Y-109054486D01*
X136556727Y-109056105D01*
X136514004Y-109095747D01*
X136513819Y-109096068D01*
X136503892Y-109109002D01*
X136360387Y-109252507D01*
X136357054Y-109255606D01*
X136349670Y-109261985D01*
X136343759Y-109268877D01*
X136340514Y-109272380D01*
X135451823Y-110161072D01*
X135446599Y-110165741D01*
X135416029Y-110190121D01*
X135383185Y-110238293D01*
X135381834Y-110240198D01*
X135347205Y-110287119D01*
X135347085Y-110287464D01*
X135339740Y-110302015D01*
X135339528Y-110302325D01*
X135322340Y-110358048D01*
X135321610Y-110360267D01*
X135302353Y-110415300D01*
X135302340Y-110415672D01*
X135299609Y-110431744D01*
X135299500Y-110432097D01*
X135299500Y-110490413D01*
X135299456Y-110492751D01*
X135297275Y-110551008D01*
X135297369Y-110551358D01*
X135299500Y-110567538D01*
X135299500Y-114787509D01*
X135281194Y-114831703D01*
X134244203Y-115868694D01*
X134200009Y-115887000D01*
X129821877Y-115887000D01*
X129809177Y-115885696D01*
X129417458Y-115804402D01*
X129406243Y-115800950D01*
X129395012Y-115796298D01*
X129271985Y-115780101D01*
X129250000Y-115777207D01*
X129249999Y-115777207D01*
X129104987Y-115796298D01*
X128969852Y-115852272D01*
X128853812Y-115941312D01*
X128764772Y-116057352D01*
X128708798Y-116192487D01*
X128689707Y-116337499D01*
X125053815Y-116337499D01*
X125027206Y-116277235D01*
X125027205Y-116277234D01*
X125027205Y-116277233D01*
X124947766Y-116197794D01*
X124882113Y-116168806D01*
X124844991Y-116152415D01*
X124819865Y-116149500D01*
X124819861Y-116149500D01*
X123230138Y-116149500D01*
X123205009Y-116152415D01*
X123102233Y-116197794D01*
X123022794Y-116277233D01*
X122977415Y-116380009D01*
X122974500Y-116405138D01*
X122974500Y-117994861D01*
X121926308Y-117994861D01*
X121485000Y-117553553D01*
X120795426Y-118243125D01*
X118954944Y-118243125D01*
X118952883Y-118234987D01*
X118857986Y-118018644D01*
X118855456Y-118014772D01*
X118728775Y-117820871D01*
X118658070Y-117744066D01*
X118568773Y-117647064D01*
X118382346Y-117501962D01*
X118174579Y-117389524D01*
X117951139Y-117312816D01*
X117718120Y-117273932D01*
X117481880Y-117273932D01*
X117248861Y-117312815D01*
X117248861Y-117312816D01*
X117025418Y-117389525D01*
X116817652Y-117501963D01*
X116631229Y-117647062D01*
X116471224Y-117820871D01*
X116342014Y-118018642D01*
X116277948Y-118164699D01*
X116247117Y-118234987D01*
X116216729Y-118354987D01*
X116189124Y-118463998D01*
X116176732Y-118613550D01*
X116169615Y-118699432D01*
X113650500Y-118699432D01*
X113650500Y-117200000D01*
X120230224Y-117200000D01*
X120249287Y-117417889D01*
X120305896Y-117629156D01*
X120398334Y-117827389D01*
X120441873Y-117889572D01*
X121131447Y-117200000D01*
X121838553Y-117200000D01*
X122528124Y-117889571D01*
X122571667Y-117827385D01*
X122664103Y-117629156D01*
X122720712Y-117417889D01*
X122739775Y-117200000D01*
X122720712Y-116982110D01*
X122664103Y-116770843D01*
X122571667Y-116572614D01*
X122528123Y-116510428D01*
X121838553Y-117200000D01*
X121131447Y-117200000D01*
X120441874Y-116510427D01*
X120398333Y-116572611D01*
X120305896Y-116770843D01*
X120249287Y-116982110D01*
X120230224Y-117200000D01*
X113650500Y-117200000D01*
X113650500Y-117084151D01*
X113653626Y-117064631D01*
X113707915Y-116899500D01*
X113772429Y-116703270D01*
X113777830Y-116679600D01*
X113781022Y-116669586D01*
X113791201Y-116645014D01*
X113810293Y-116500000D01*
X113791201Y-116354986D01*
X113735228Y-116219854D01*
X113686902Y-116156874D01*
X120795427Y-116156874D01*
X121484999Y-116846446D01*
X122174572Y-116156873D01*
X122112389Y-116113334D01*
X121914156Y-116020896D01*
X121702889Y-115964287D01*
X121485000Y-115945224D01*
X121267110Y-115964287D01*
X121055843Y-116020896D01*
X120857611Y-116113333D01*
X120795427Y-116156874D01*
X113686902Y-116156874D01*
X113646187Y-116103813D01*
X113646185Y-116103812D01*
X113646185Y-116103811D01*
X113530148Y-116014772D01*
X113395012Y-115958798D01*
X113250000Y-115939707D01*
X113104987Y-115958798D01*
X112969852Y-116014772D01*
X112853812Y-116103812D01*
X112764772Y-116219852D01*
X112708798Y-116354987D01*
X112689707Y-116499999D01*
X112708798Y-116645012D01*
X112718976Y-116669585D01*
X112722165Y-116679590D01*
X112727570Y-116703270D01*
X112846374Y-117064631D01*
X112849500Y-117084151D01*
X112849500Y-124058219D01*
X112844742Y-124082137D01*
X112831194Y-124102413D01*
X112085738Y-124847867D01*
X112055804Y-124864525D01*
X112021586Y-124862901D01*
X111214923Y-124591074D01*
X111202822Y-124588226D01*
X111199003Y-124587199D01*
X111025932Y-124534699D01*
X110820000Y-124514417D01*
X110614067Y-124534699D01*
X110416046Y-124594768D01*
X110233546Y-124692317D01*
X110073589Y-124823589D01*
X109942317Y-124983546D01*
X109844768Y-125166046D01*
X109784699Y-125364067D01*
X109764417Y-125570000D01*
X104454775Y-125570000D01*
X104454775Y-125569999D01*
X104435712Y-125352110D01*
X104379103Y-125140843D01*
X104286667Y-124942614D01*
X104243123Y-124880428D01*
X103553553Y-125570000D01*
X102846447Y-125570000D01*
X102156874Y-124880427D01*
X102113333Y-124942611D01*
X102020896Y-125140843D01*
X101964287Y-125352110D01*
X101945224Y-125569999D01*
X97816720Y-125569999D01*
X97765820Y-125448457D01*
X97765234Y-125447000D01*
X97233236Y-124073940D01*
X97232932Y-124073125D01*
X102510426Y-124073125D01*
X102572610Y-124116666D01*
X102770843Y-124209103D01*
X102884769Y-124239630D01*
X102918178Y-124261952D01*
X102931093Y-124300000D01*
X102918178Y-124338048D01*
X102884769Y-124360370D01*
X102770843Y-124390896D01*
X102572611Y-124483333D01*
X102510427Y-124526874D01*
X103199999Y-125216446D01*
X103889572Y-124526873D01*
X103827389Y-124483334D01*
X103629156Y-124390896D01*
X103515230Y-124360370D01*
X103481821Y-124338048D01*
X103468906Y-124300000D01*
X103481821Y-124261952D01*
X103515230Y-124239630D01*
X103629156Y-124209103D01*
X103827385Y-124116667D01*
X103889571Y-124073124D01*
X103200000Y-123383553D01*
X102510426Y-124073125D01*
X97232932Y-124073125D01*
X97232686Y-124072464D01*
X96860766Y-123029999D01*
X101945224Y-123029999D01*
X101964287Y-123247889D01*
X102020896Y-123459156D01*
X102113334Y-123657389D01*
X102156873Y-123719572D01*
X102846447Y-123030000D01*
X103553553Y-123030000D01*
X104243124Y-123719571D01*
X104286667Y-123657385D01*
X104379103Y-123459156D01*
X104435712Y-123247889D01*
X104454775Y-123030000D01*
X109764417Y-123030000D01*
X109766632Y-123052497D01*
X109784699Y-123235932D01*
X109804385Y-123300828D01*
X109844768Y-123433954D01*
X109942315Y-123616450D01*
X109942317Y-123616453D01*
X110073589Y-123776410D01*
X110233546Y-123907682D01*
X110233550Y-123907685D01*
X110416046Y-124005232D01*
X110614066Y-124065300D01*
X110820000Y-124085583D01*
X111025934Y-124065300D01*
X111223954Y-124005232D01*
X111406450Y-123907685D01*
X111566410Y-123776410D01*
X111697685Y-123616450D01*
X111795232Y-123433954D01*
X111855300Y-123235934D01*
X111875583Y-123030000D01*
X111855300Y-122824066D01*
X111795232Y-122626046D01*
X111697685Y-122443550D01*
X111683168Y-122425861D01*
X111566410Y-122283589D01*
X111406453Y-122152317D01*
X111406451Y-122152316D01*
X111406450Y-122152315D01*
X111223954Y-122054768D01*
X111137729Y-122028612D01*
X111025932Y-121994699D01*
X110820000Y-121974417D01*
X110614067Y-121994699D01*
X110416046Y-122054768D01*
X110233546Y-122152317D01*
X110073589Y-122283589D01*
X109942317Y-122443546D01*
X109844768Y-122626046D01*
X109784699Y-122824067D01*
X109767372Y-123000000D01*
X109764417Y-123030000D01*
X104454775Y-123030000D01*
X104454775Y-123029999D01*
X104435712Y-122812110D01*
X104379103Y-122600843D01*
X104286667Y-122402614D01*
X104243123Y-122340428D01*
X103553553Y-123030000D01*
X102846447Y-123030000D01*
X102156874Y-122340427D01*
X102113333Y-122402611D01*
X102020896Y-122600843D01*
X101964287Y-122812110D01*
X101945224Y-123029999D01*
X96860766Y-123029999D01*
X96830354Y-122944757D01*
X96737864Y-122685515D01*
X96737320Y-122683921D01*
X96509614Y-121986874D01*
X102510427Y-121986874D01*
X103199999Y-122676446D01*
X103889572Y-121986873D01*
X103827389Y-121943334D01*
X103629156Y-121850896D01*
X103417889Y-121794287D01*
X103200000Y-121775224D01*
X102982110Y-121794287D01*
X102770843Y-121850896D01*
X102572611Y-121943333D01*
X102510427Y-121986874D01*
X96509614Y-121986874D01*
X96280097Y-121284283D01*
X96279595Y-121282675D01*
X96196745Y-121003812D01*
X96044092Y-120489999D01*
X102144417Y-120489999D01*
X102164699Y-120695932D01*
X102164700Y-120695934D01*
X102224768Y-120893954D01*
X102322315Y-121076450D01*
X102322317Y-121076453D01*
X102453589Y-121236410D01*
X102591997Y-121349997D01*
X102613550Y-121367685D01*
X102796046Y-121465232D01*
X102994066Y-121525300D01*
X103200000Y-121545583D01*
X103326487Y-121533125D01*
X110130426Y-121533125D01*
X110192610Y-121576666D01*
X110390843Y-121669103D01*
X110602110Y-121725712D01*
X110820000Y-121744775D01*
X111037889Y-121725712D01*
X111249156Y-121669103D01*
X111447385Y-121576667D01*
X111509571Y-121533124D01*
X110820000Y-120843553D01*
X110130426Y-121533125D01*
X103326487Y-121533125D01*
X103405934Y-121525300D01*
X103603954Y-121465232D01*
X103786450Y-121367685D01*
X103946410Y-121236410D01*
X104077685Y-121076450D01*
X104175232Y-120893954D01*
X104235300Y-120695934D01*
X104255583Y-120490000D01*
X109565224Y-120490000D01*
X109584287Y-120707889D01*
X109640896Y-120919156D01*
X109733334Y-121117389D01*
X109776873Y-121179572D01*
X110466447Y-120490000D01*
X111173553Y-120490000D01*
X111863124Y-121179571D01*
X111906667Y-121117385D01*
X111999103Y-120919156D01*
X112055712Y-120707889D01*
X112074775Y-120490000D01*
X112055712Y-120272110D01*
X111999103Y-120060843D01*
X111906667Y-119862614D01*
X111863123Y-119800428D01*
X111173553Y-120490000D01*
X110466447Y-120490000D01*
X109776874Y-119800427D01*
X109733333Y-119862611D01*
X109640896Y-120060843D01*
X109584287Y-120272110D01*
X109565224Y-120490000D01*
X104255583Y-120490000D01*
X104235300Y-120284066D01*
X104175232Y-120086046D01*
X104077685Y-119903550D01*
X104066213Y-119889571D01*
X103946410Y-119743589D01*
X103786453Y-119612317D01*
X103786451Y-119612316D01*
X103786450Y-119612315D01*
X103603954Y-119514768D01*
X103496907Y-119482296D01*
X103405932Y-119454699D01*
X103326481Y-119446874D01*
X110130427Y-119446874D01*
X110819999Y-120136446D01*
X111509572Y-119446873D01*
X111447389Y-119403334D01*
X111249156Y-119310896D01*
X111037889Y-119254287D01*
X110820000Y-119235224D01*
X110602110Y-119254287D01*
X110390843Y-119310896D01*
X110192611Y-119403333D01*
X110130427Y-119446874D01*
X103326481Y-119446874D01*
X103200000Y-119434417D01*
X102994067Y-119454699D01*
X102796046Y-119514768D01*
X102613546Y-119612317D01*
X102453589Y-119743589D01*
X102322317Y-119903546D01*
X102224768Y-120086046D01*
X102164699Y-120284067D01*
X102144417Y-120489999D01*
X96044092Y-120489999D01*
X95860224Y-119871121D01*
X95859791Y-119869590D01*
X95558369Y-118744861D01*
X102149500Y-118744861D01*
X102151974Y-118766195D01*
X102152415Y-118769991D01*
X102175104Y-118821377D01*
X102197794Y-118872766D01*
X102277233Y-118952205D01*
X102277234Y-118952205D01*
X102277235Y-118952206D01*
X102380009Y-118997585D01*
X102405135Y-119000500D01*
X103994864Y-119000499D01*
X104019991Y-118997585D01*
X104122765Y-118952206D01*
X104202206Y-118872765D01*
X104247585Y-118769991D01*
X104250500Y-118744865D01*
X104250499Y-118703962D01*
X104265454Y-118663395D01*
X104281138Y-118645014D01*
X104874145Y-117950000D01*
X109764417Y-117950000D01*
X109784699Y-118155932D01*
X109808680Y-118234987D01*
X109844768Y-118353954D01*
X109928406Y-118510428D01*
X109942317Y-118536453D01*
X110073589Y-118696410D01*
X110233546Y-118827682D01*
X110233550Y-118827685D01*
X110416046Y-118925232D01*
X110614066Y-118985300D01*
X110820000Y-119005583D01*
X111025934Y-118985300D01*
X111223954Y-118925232D01*
X111406450Y-118827685D01*
X111566410Y-118696410D01*
X111697685Y-118536450D01*
X111795232Y-118353954D01*
X111855300Y-118155934D01*
X111875583Y-117950000D01*
X111855300Y-117744066D01*
X111795232Y-117546046D01*
X111697685Y-117363550D01*
X111677624Y-117339105D01*
X111566410Y-117203589D01*
X111406453Y-117072317D01*
X111406451Y-117072316D01*
X111406450Y-117072315D01*
X111223954Y-116974768D01*
X111135032Y-116947794D01*
X111025932Y-116914699D01*
X110820000Y-116894417D01*
X110614067Y-116914699D01*
X110416046Y-116974768D01*
X110233546Y-117072317D01*
X110073589Y-117203589D01*
X109942317Y-117363546D01*
X109844768Y-117546046D01*
X109784699Y-117744067D01*
X109764417Y-117950000D01*
X104874145Y-117950000D01*
X104878938Y-117944383D01*
X104892280Y-117925418D01*
X104899195Y-117917196D01*
X106647586Y-116168806D01*
X106691781Y-116150500D01*
X112338032Y-116150500D01*
X112350768Y-116146361D01*
X112363703Y-116142158D01*
X112373229Y-116139870D01*
X112399902Y-116135646D01*
X112423956Y-116123388D01*
X112433012Y-116119637D01*
X112458688Y-116111296D01*
X112480537Y-116095421D01*
X112488878Y-116090309D01*
X112512940Y-116078050D01*
X112528331Y-116062657D01*
X112528334Y-116062656D01*
X112535504Y-116055485D01*
X112535507Y-116055484D01*
X113632446Y-114958543D01*
X113648452Y-114946957D01*
X113987976Y-114775447D01*
X114008532Y-114762528D01*
X114017856Y-114757711D01*
X114042446Y-114747527D01*
X114158486Y-114658486D01*
X114247527Y-114542446D01*
X114303500Y-114407313D01*
X114322592Y-114262299D01*
X114303500Y-114117285D01*
X114247527Y-113982153D01*
X114158486Y-113866112D01*
X114158484Y-113866111D01*
X114158484Y-113866110D01*
X114042447Y-113777071D01*
X113949876Y-113738728D01*
X113919667Y-113712235D01*
X113911828Y-113672827D01*
X113929597Y-113636793D01*
X114647585Y-112918806D01*
X114691780Y-112900500D01*
X117415849Y-112900500D01*
X117435369Y-112903626D01*
X117796729Y-113022429D01*
X117820411Y-113027833D01*
X117830400Y-113031017D01*
X117854986Y-113041201D01*
X118000000Y-113060293D01*
X118145014Y-113041201D01*
X118280147Y-112985228D01*
X118396187Y-112896187D01*
X118485228Y-112780147D01*
X118541201Y-112645014D01*
X118560293Y-112500000D01*
X120939707Y-112500000D01*
X120958798Y-112645012D01*
X121014771Y-112780146D01*
X121103812Y-112896187D01*
X121195376Y-112966446D01*
X121219853Y-112985228D01*
X121354986Y-113041201D01*
X121500000Y-113060293D01*
X121645014Y-113041201D01*
X121780147Y-112985228D01*
X121896187Y-112896187D01*
X121985228Y-112780147D01*
X122041201Y-112645014D01*
X122060293Y-112500000D01*
X122041201Y-112354986D01*
X122031017Y-112330400D01*
X122027832Y-112320406D01*
X122022429Y-112296729D01*
X121903626Y-111935369D01*
X121900500Y-111915849D01*
X121900500Y-111750000D01*
X127939707Y-111750000D01*
X127958798Y-111895012D01*
X128014771Y-112030146D01*
X128103812Y-112146187D01*
X128178253Y-112203307D01*
X128219853Y-112235228D01*
X128354986Y-112291201D01*
X128500000Y-112310293D01*
X128645014Y-112291201D01*
X128669590Y-112281020D01*
X128679601Y-112277830D01*
X128703270Y-112272429D01*
X129052963Y-112157462D01*
X129064631Y-112153626D01*
X129084151Y-112150500D01*
X129813434Y-112150500D01*
X129826707Y-112146187D01*
X129839105Y-112142158D01*
X129848631Y-112139870D01*
X129875304Y-112135646D01*
X129899358Y-112123388D01*
X129908414Y-112119637D01*
X129934090Y-112111296D01*
X129955939Y-112095421D01*
X129964280Y-112090309D01*
X129988342Y-112078050D01*
X130003733Y-112062657D01*
X130003736Y-112062656D01*
X130010906Y-112055485D01*
X130010909Y-112055484D01*
X132120147Y-109946244D01*
X132136153Y-109934658D01*
X132475677Y-109763148D01*
X132496233Y-109750229D01*
X132505557Y-109745412D01*
X132530147Y-109735228D01*
X132646187Y-109646187D01*
X132735228Y-109530147D01*
X132791201Y-109395014D01*
X132810293Y-109250000D01*
X132791201Y-109104986D01*
X132735228Y-108969854D01*
X132646187Y-108853813D01*
X132646185Y-108853812D01*
X132646185Y-108853811D01*
X132530148Y-108764772D01*
X132395012Y-108708798D01*
X132352552Y-108703208D01*
X132317353Y-108686258D01*
X132299095Y-108651719D01*
X132304912Y-108613087D01*
X132332527Y-108585459D01*
X132475677Y-108513148D01*
X132496233Y-108500229D01*
X132505557Y-108495412D01*
X132530147Y-108485228D01*
X132646187Y-108396187D01*
X132735228Y-108280147D01*
X132791201Y-108145014D01*
X132810293Y-108000000D01*
X132791201Y-107854986D01*
X132735228Y-107719854D01*
X132646187Y-107603813D01*
X132646185Y-107603812D01*
X132646185Y-107603811D01*
X132530148Y-107514772D01*
X132395012Y-107458798D01*
X132250000Y-107439707D01*
X132104987Y-107458798D01*
X131969852Y-107514772D01*
X131853812Y-107603812D01*
X131764773Y-107719852D01*
X131764772Y-107719853D01*
X131764772Y-107719854D01*
X131764369Y-107720827D01*
X131754594Y-107744425D01*
X131749772Y-107753757D01*
X131736854Y-107774315D01*
X131565338Y-108113847D01*
X131553746Y-108129860D01*
X129352413Y-110331194D01*
X129332137Y-110344742D01*
X129308219Y-110349500D01*
X129084151Y-110349500D01*
X129064631Y-110346374D01*
X128723342Y-110234169D01*
X128723344Y-110234169D01*
X128703273Y-110227571D01*
X128703270Y-110227570D01*
X128690966Y-110224762D01*
X128679597Y-110222167D01*
X128669589Y-110218977D01*
X128645014Y-110208799D01*
X128500000Y-110189707D01*
X128354987Y-110208798D01*
X128219852Y-110264772D01*
X128103812Y-110353812D01*
X128014772Y-110469852D01*
X127958798Y-110604987D01*
X127939707Y-110749999D01*
X127958798Y-110895012D01*
X128014771Y-111030146D01*
X128103812Y-111146187D01*
X128174484Y-111200415D01*
X128196043Y-111231206D01*
X128196043Y-111268794D01*
X128174484Y-111299585D01*
X128103811Y-111353814D01*
X128014772Y-111469852D01*
X127958798Y-111604987D01*
X127939707Y-111750000D01*
X121900500Y-111750000D01*
X121900500Y-104750000D01*
X128439707Y-104750000D01*
X128458798Y-104895012D01*
X128514771Y-105030146D01*
X128603812Y-105146187D01*
X128684434Y-105208050D01*
X128719853Y-105235228D01*
X128854986Y-105291201D01*
X129000000Y-105310293D01*
X129145014Y-105291201D01*
X129280147Y-105235228D01*
X129396187Y-105146187D01*
X129485228Y-105030147D01*
X129489881Y-105018911D01*
X129495372Y-105008537D01*
X129496290Y-105007137D01*
X129496292Y-105007136D01*
X129714873Y-104674071D01*
X129722926Y-104664175D01*
X132168296Y-102218806D01*
X132212491Y-102200500D01*
X134178129Y-102200500D01*
X134190829Y-102201804D01*
X134580892Y-102282754D01*
X134580896Y-102282754D01*
X134582539Y-102283095D01*
X134593754Y-102286548D01*
X134604986Y-102291201D01*
X134750000Y-102310293D01*
X134895014Y-102291201D01*
X135030147Y-102235228D01*
X135146187Y-102146187D01*
X135235228Y-102030147D01*
X135291201Y-101895014D01*
X135310293Y-101750000D01*
X135291201Y-101604986D01*
X135235228Y-101469854D01*
X135146187Y-101353813D01*
X135146185Y-101353812D01*
X135146185Y-101353811D01*
X135030148Y-101264772D01*
X134895012Y-101208798D01*
X134750000Y-101189707D01*
X134604983Y-101208799D01*
X134593756Y-101213449D01*
X134582543Y-101216901D01*
X134190822Y-101298196D01*
X134178122Y-101299500D01*
X132028811Y-101299500D01*
X132021813Y-101299107D01*
X131982965Y-101294729D01*
X131925655Y-101305572D01*
X131923354Y-101305963D01*
X131865710Y-101314652D01*
X131865380Y-101314812D01*
X131849901Y-101319905D01*
X131849528Y-101319975D01*
X131797967Y-101347226D01*
X131795882Y-101348279D01*
X131743356Y-101373575D01*
X131743082Y-101373830D01*
X131729795Y-101383258D01*
X131729465Y-101383432D01*
X131688222Y-101424673D01*
X131686540Y-101426292D01*
X131643806Y-101465943D01*
X131643619Y-101466268D01*
X131633690Y-101479205D01*
X129085828Y-104027067D01*
X129075926Y-104035125D01*
X128741457Y-104254629D01*
X128731087Y-104260118D01*
X128719853Y-104264772D01*
X128603812Y-104353812D01*
X128514772Y-104469852D01*
X128458798Y-104604987D01*
X128439707Y-104750000D01*
X121900500Y-104750000D01*
X121900500Y-104334151D01*
X121903626Y-104314631D01*
X121922752Y-104256455D01*
X122022429Y-103953270D01*
X122027830Y-103929600D01*
X122031022Y-103919586D01*
X122041201Y-103895014D01*
X122060293Y-103750000D01*
X122041201Y-103604986D01*
X121985228Y-103469854D01*
X121896187Y-103353813D01*
X121896185Y-103353812D01*
X121896185Y-103353811D01*
X121780148Y-103264772D01*
X121645012Y-103208798D01*
X121500000Y-103189707D01*
X121354987Y-103208798D01*
X121219852Y-103264772D01*
X121103812Y-103353812D01*
X121014772Y-103469852D01*
X120958798Y-103604987D01*
X120939707Y-103749999D01*
X120958798Y-103895012D01*
X120968976Y-103919585D01*
X120972165Y-103929590D01*
X120977570Y-103953270D01*
X121096374Y-104314631D01*
X121099500Y-104334151D01*
X121099500Y-111915851D01*
X121096373Y-111935371D01*
X120977571Y-112296721D01*
X120972166Y-112320406D01*
X120968976Y-112330413D01*
X120958799Y-112354984D01*
X120939707Y-112500000D01*
X118560293Y-112500000D01*
X118541201Y-112354986D01*
X118485228Y-112219854D01*
X118396187Y-112103813D01*
X118396185Y-112103812D01*
X118396185Y-112103811D01*
X118280148Y-112014772D01*
X118145012Y-111958798D01*
X118000000Y-111939707D01*
X117854986Y-111958798D01*
X117830409Y-111968978D01*
X117820402Y-111972167D01*
X117796733Y-111977569D01*
X117435369Y-112096374D01*
X117415849Y-112099500D01*
X114463314Y-112099500D01*
X114463302Y-112099501D01*
X114436567Y-112099501D01*
X114424690Y-112103359D01*
X114410894Y-112107842D01*
X114401360Y-112110130D01*
X114374695Y-112114353D01*
X114350640Y-112126609D01*
X114341584Y-112130360D01*
X114315910Y-112138703D01*
X114294072Y-112154569D01*
X114285713Y-112159692D01*
X114261659Y-112171949D01*
X114261658Y-112171949D01*
X114261658Y-112171950D01*
X114239091Y-112194516D01*
X114239091Y-112194517D01*
X114230301Y-112203307D01*
X114230301Y-112203306D01*
X111602413Y-114831194D01*
X111558219Y-114849500D01*
X106691781Y-114849500D01*
X106647587Y-114831194D01*
X105668806Y-113852413D01*
X105650500Y-113808219D01*
X105650500Y-113319999D01*
X109764417Y-113319999D01*
X109784699Y-113525932D01*
X109793694Y-113555583D01*
X109844768Y-113723954D01*
X109920753Y-113866110D01*
X109942317Y-113906453D01*
X110073589Y-114066410D01*
X110216983Y-114184089D01*
X110233550Y-114197685D01*
X110416046Y-114295232D01*
X110614066Y-114355300D01*
X110820000Y-114375583D01*
X111025934Y-114355300D01*
X111223954Y-114295232D01*
X111406450Y-114197685D01*
X111566410Y-114066410D01*
X111697685Y-113906450D01*
X111795232Y-113723954D01*
X111855300Y-113525934D01*
X111875583Y-113320000D01*
X111855300Y-113114066D01*
X111795232Y-112916046D01*
X111697685Y-112733550D01*
X111697682Y-112733546D01*
X111566410Y-112573589D01*
X111406453Y-112442317D01*
X111406451Y-112442316D01*
X111406450Y-112442315D01*
X111223954Y-112344768D01*
X111110301Y-112310292D01*
X111025932Y-112284699D01*
X110820000Y-112264417D01*
X110614067Y-112284699D01*
X110416046Y-112344768D01*
X110233546Y-112442317D01*
X110073589Y-112573589D01*
X109942317Y-112733546D01*
X109844768Y-112916046D01*
X109784699Y-113114067D01*
X109764417Y-113319999D01*
X105650500Y-113319999D01*
X105650500Y-108500000D01*
X106439707Y-108500000D01*
X106458798Y-108645012D01*
X106514771Y-108780146D01*
X106550302Y-108826450D01*
X106581715Y-108867389D01*
X106603814Y-108896188D01*
X106641558Y-108925150D01*
X106719853Y-108985228D01*
X106744433Y-108995409D01*
X106753762Y-109000229D01*
X106774320Y-109013147D01*
X107113846Y-109184659D01*
X107129857Y-109196250D01*
X109023466Y-111089859D01*
X109023470Y-111089862D01*
X109041656Y-111108049D01*
X109065709Y-111120305D01*
X109074070Y-111125429D01*
X109095909Y-111141296D01*
X109098566Y-111142159D01*
X109121588Y-111149638D01*
X109130631Y-111153384D01*
X109154696Y-111165646D01*
X109181364Y-111169869D01*
X109190887Y-111172156D01*
X109216567Y-111180500D01*
X109224645Y-111180500D01*
X109252091Y-111186848D01*
X110387657Y-111741915D01*
X110390793Y-111742949D01*
X110391612Y-111743220D01*
X110401492Y-111747453D01*
X110416043Y-111755231D01*
X110416045Y-111755231D01*
X110416046Y-111755232D01*
X110614066Y-111815300D01*
X110820000Y-111835583D01*
X111025934Y-111815300D01*
X111223954Y-111755232D01*
X111406450Y-111657685D01*
X111566410Y-111526410D01*
X111697685Y-111366450D01*
X111795232Y-111183954D01*
X111855300Y-110985934D01*
X111875583Y-110780000D01*
X111855300Y-110574066D01*
X111795232Y-110376046D01*
X111697685Y-110193550D01*
X111694531Y-110189707D01*
X111566410Y-110033589D01*
X111406453Y-109902317D01*
X111406451Y-109902316D01*
X111406450Y-109902315D01*
X111223954Y-109804768D01*
X111137729Y-109778612D01*
X111025932Y-109744699D01*
X110820000Y-109724417D01*
X110614067Y-109744699D01*
X110416042Y-109804769D01*
X110401493Y-109812545D01*
X110391623Y-109816774D01*
X110387661Y-109818081D01*
X109418087Y-110292010D01*
X109380351Y-110297506D01*
X109346446Y-110280053D01*
X108349518Y-109283125D01*
X110130426Y-109283125D01*
X110192610Y-109326666D01*
X110390843Y-109419103D01*
X110602110Y-109475712D01*
X110820000Y-109494775D01*
X111037889Y-109475712D01*
X111249156Y-109419103D01*
X111447385Y-109326667D01*
X111509571Y-109283124D01*
X110820000Y-108593553D01*
X110130426Y-109283125D01*
X108349518Y-109283125D01*
X107696249Y-108629856D01*
X107684657Y-108613843D01*
X107513148Y-108274322D01*
X107500229Y-108253762D01*
X107495407Y-108244428D01*
X107493572Y-108239999D01*
X109565224Y-108239999D01*
X109584287Y-108457889D01*
X109640896Y-108669156D01*
X109733334Y-108867389D01*
X109776873Y-108929572D01*
X110466447Y-108240000D01*
X111173553Y-108240000D01*
X111863124Y-108929571D01*
X111906667Y-108867385D01*
X111999103Y-108669156D01*
X112055712Y-108457889D01*
X112074775Y-108239999D01*
X112055712Y-108022110D01*
X111999103Y-107810843D01*
X111906667Y-107612614D01*
X111863123Y-107550428D01*
X111173553Y-108240000D01*
X110466447Y-108240000D01*
X109776874Y-107550427D01*
X109733333Y-107612611D01*
X109640896Y-107810843D01*
X109584287Y-108022110D01*
X109565224Y-108239999D01*
X107493572Y-108239999D01*
X107485228Y-108219854D01*
X107429776Y-108147587D01*
X107396187Y-108103813D01*
X107396185Y-108103812D01*
X107396185Y-108103811D01*
X107280148Y-108014772D01*
X107145012Y-107958798D01*
X107000000Y-107939707D01*
X106854987Y-107958798D01*
X106719852Y-108014772D01*
X106603812Y-108103812D01*
X106514772Y-108219852D01*
X106458798Y-108354987D01*
X106439707Y-108500000D01*
X105650500Y-108500000D01*
X105650500Y-107196874D01*
X110130427Y-107196874D01*
X110819999Y-107886446D01*
X111509572Y-107196873D01*
X111447389Y-107153334D01*
X111249156Y-107060896D01*
X111037889Y-107004287D01*
X110820000Y-106985224D01*
X110602110Y-107004287D01*
X110390843Y-107060896D01*
X110192611Y-107153333D01*
X110130427Y-107196874D01*
X105650500Y-107196874D01*
X105650500Y-106936569D01*
X105650500Y-106936567D01*
X105642155Y-106910885D01*
X105639869Y-106901365D01*
X105635646Y-106874696D01*
X105623389Y-106850640D01*
X105619636Y-106841579D01*
X105611295Y-106815909D01*
X105595430Y-106794071D01*
X105590306Y-106785711D01*
X105578049Y-106761656D01*
X105559862Y-106743470D01*
X105559860Y-106743467D01*
X104808460Y-105992067D01*
X104799664Y-105981014D01*
X104787957Y-105962296D01*
X104623912Y-105700000D01*
X109764417Y-105700000D01*
X109784699Y-105905932D01*
X109793694Y-105935583D01*
X109844768Y-106103954D01*
X109923428Y-106251115D01*
X109942317Y-106286453D01*
X110073589Y-106446410D01*
X110233546Y-106577682D01*
X110233550Y-106577685D01*
X110416046Y-106675232D01*
X110614066Y-106735300D01*
X110820000Y-106755583D01*
X111025934Y-106735300D01*
X111223954Y-106675232D01*
X111406450Y-106577685D01*
X111566410Y-106446410D01*
X111697685Y-106286450D01*
X111795232Y-106103954D01*
X111855300Y-105905934D01*
X111875583Y-105700000D01*
X111855300Y-105494066D01*
X111795232Y-105296046D01*
X111697685Y-105113550D01*
X111697682Y-105113546D01*
X111566410Y-104953589D01*
X111406453Y-104822317D01*
X111406451Y-104822316D01*
X111406450Y-104822315D01*
X111223954Y-104724768D01*
X111135032Y-104697794D01*
X111025932Y-104664699D01*
X110820000Y-104644417D01*
X110614067Y-104664699D01*
X110416046Y-104724768D01*
X110233546Y-104822317D01*
X110073589Y-104953589D01*
X109942317Y-105113546D01*
X109844768Y-105296046D01*
X109784699Y-105494067D01*
X109764417Y-105700000D01*
X104623912Y-105700000D01*
X104260008Y-105118146D01*
X104250499Y-105085006D01*
X104250499Y-104905138D01*
X104249325Y-104895014D01*
X104247585Y-104880009D01*
X104202206Y-104777235D01*
X104202205Y-104777234D01*
X104202205Y-104777233D01*
X104122766Y-104697794D01*
X104047814Y-104664700D01*
X104019991Y-104652415D01*
X103994865Y-104649500D01*
X103994861Y-104649500D01*
X102405138Y-104649500D01*
X102380009Y-104652415D01*
X102277233Y-104697794D01*
X102197794Y-104777233D01*
X102177889Y-104822315D01*
X102152415Y-104880009D01*
X102150675Y-104895012D01*
X102149500Y-104905138D01*
X102149500Y-106494861D01*
X102149779Y-106497262D01*
X102152415Y-106519991D01*
X102157355Y-106531179D01*
X102197794Y-106622766D01*
X102277233Y-106702205D01*
X102277234Y-106702205D01*
X102277235Y-106702206D01*
X102380009Y-106747585D01*
X102405135Y-106750500D01*
X103930841Y-106750499D01*
X103936997Y-106750803D01*
X103962307Y-106753308D01*
X103962309Y-106753307D01*
X103962310Y-106753308D01*
X103968653Y-106753062D01*
X103974903Y-106751949D01*
X103977623Y-106751466D01*
X103988572Y-106750499D01*
X103994863Y-106750499D01*
X103994864Y-106750499D01*
X104019991Y-106747585D01*
X104026980Y-106744498D01*
X104041282Y-106740138D01*
X104051002Y-106738409D01*
X104294801Y-106659394D01*
X104328682Y-106658082D01*
X104358263Y-106674656D01*
X104831194Y-107147587D01*
X104849500Y-107191781D01*
X104849500Y-113936567D01*
X104849500Y-114063433D01*
X104857841Y-114089105D01*
X104860129Y-114098638D01*
X104864353Y-114125303D01*
X104876609Y-114149357D01*
X104880362Y-114158417D01*
X104888704Y-114184090D01*
X104904573Y-114205932D01*
X104909690Y-114214281D01*
X104921950Y-114238342D01*
X104921951Y-114238343D01*
X104941371Y-114257763D01*
X104941375Y-114257768D01*
X106139412Y-115455805D01*
X106157718Y-115499999D01*
X106139412Y-115544193D01*
X104519353Y-117164252D01*
X104480501Y-117182329D01*
X104439138Y-117171134D01*
X104134122Y-116956020D01*
X104134121Y-116956019D01*
X104129644Y-116952862D01*
X104130073Y-116952252D01*
X104125356Y-116948938D01*
X104117745Y-116945577D01*
X104019991Y-116902415D01*
X103994865Y-116899500D01*
X103994862Y-116899500D01*
X103930369Y-116899500D01*
X103924788Y-116899250D01*
X103920049Y-116898825D01*
X103914894Y-116899500D01*
X102405138Y-116899500D01*
X102380009Y-116902415D01*
X102277233Y-116947794D01*
X102197794Y-117027233D01*
X102152415Y-117130009D01*
X102149500Y-117155138D01*
X102149500Y-118744861D01*
X95558369Y-118744861D01*
X95478598Y-118447203D01*
X95478213Y-118445682D01*
X95135499Y-117013588D01*
X95135133Y-117011959D01*
X95127286Y-116974768D01*
X94831133Y-115571139D01*
X94830826Y-115569577D01*
X94610053Y-114363125D01*
X102510426Y-114363125D01*
X102572610Y-114406666D01*
X102770843Y-114499103D01*
X102982110Y-114555712D01*
X103200000Y-114574775D01*
X103417889Y-114555712D01*
X103629156Y-114499103D01*
X103827385Y-114406667D01*
X103889571Y-114363124D01*
X103200000Y-113673553D01*
X102510426Y-114363125D01*
X94610053Y-114363125D01*
X94565765Y-114121107D01*
X94565497Y-114119521D01*
X94441355Y-113320000D01*
X101945224Y-113320000D01*
X101964287Y-113537889D01*
X102020896Y-113749156D01*
X102113334Y-113947389D01*
X102156873Y-114009572D01*
X102846447Y-113320000D01*
X103553553Y-113320000D01*
X104243124Y-114009571D01*
X104286667Y-113947385D01*
X104379103Y-113749156D01*
X104435712Y-113537889D01*
X104454775Y-113320000D01*
X104435712Y-113102110D01*
X104379103Y-112890843D01*
X104286667Y-112692614D01*
X104243123Y-112630428D01*
X103553553Y-113320000D01*
X102846447Y-113320000D01*
X102156874Y-112630427D01*
X102113333Y-112692611D01*
X102020896Y-112890843D01*
X101964287Y-113102110D01*
X101945224Y-113320000D01*
X94441355Y-113320000D01*
X94339556Y-112664375D01*
X94339338Y-112662836D01*
X94232042Y-111823125D01*
X102510426Y-111823125D01*
X102572610Y-111866666D01*
X102770843Y-111959103D01*
X102884769Y-111989630D01*
X102918178Y-112011952D01*
X102931093Y-112050000D01*
X102918178Y-112088048D01*
X102884769Y-112110370D01*
X102770843Y-112140896D01*
X102572611Y-112233333D01*
X102510427Y-112276874D01*
X103199999Y-112966446D01*
X103889572Y-112276873D01*
X103827389Y-112233334D01*
X103629156Y-112140896D01*
X103515230Y-112110370D01*
X103481821Y-112088048D01*
X103468906Y-112050000D01*
X103481821Y-112011952D01*
X103515230Y-111989630D01*
X103629156Y-111959103D01*
X103827385Y-111866667D01*
X103889571Y-111823124D01*
X103200000Y-111133553D01*
X102510426Y-111823125D01*
X94232042Y-111823125D01*
X94152692Y-111202128D01*
X94152512Y-111200556D01*
X94110257Y-110779999D01*
X101945224Y-110779999D01*
X101964287Y-110997889D01*
X102020896Y-111209156D01*
X102113334Y-111407389D01*
X102156873Y-111469572D01*
X102846447Y-110780000D01*
X103553553Y-110780000D01*
X104243124Y-111469571D01*
X104286667Y-111407385D01*
X104379103Y-111209156D01*
X104435712Y-110997889D01*
X104454775Y-110779999D01*
X104435712Y-110562110D01*
X104379103Y-110350843D01*
X104286667Y-110152614D01*
X104243123Y-110090428D01*
X103553553Y-110780000D01*
X102846447Y-110780000D01*
X102156874Y-110090427D01*
X102113333Y-110152611D01*
X102020896Y-110350843D01*
X101964287Y-110562110D01*
X101945224Y-110779999D01*
X94110257Y-110779999D01*
X94005449Y-109736874D01*
X102510427Y-109736874D01*
X103199999Y-110426446D01*
X103889572Y-109736873D01*
X103827389Y-109693334D01*
X103629156Y-109600896D01*
X103417889Y-109544287D01*
X103200000Y-109525224D01*
X102982110Y-109544287D01*
X102770843Y-109600896D01*
X102572611Y-109693333D01*
X102510427Y-109736874D01*
X94005449Y-109736874D01*
X94005296Y-109735353D01*
X94005161Y-109733809D01*
X93897483Y-108265174D01*
X93897384Y-108263508D01*
X93896933Y-108253762D01*
X93896296Y-108240000D01*
X102144417Y-108240000D01*
X102164699Y-108445932D01*
X102181171Y-108500232D01*
X102224768Y-108643954D01*
X102303428Y-108791115D01*
X102322317Y-108826453D01*
X102453589Y-108986410D01*
X102613546Y-109117682D01*
X102613550Y-109117685D01*
X102796046Y-109215232D01*
X102994066Y-109275300D01*
X103200000Y-109295583D01*
X103405934Y-109275300D01*
X103603954Y-109215232D01*
X103786450Y-109117685D01*
X103946410Y-108986410D01*
X104077685Y-108826450D01*
X104175232Y-108643954D01*
X104235300Y-108445934D01*
X104255583Y-108240000D01*
X104235300Y-108034066D01*
X104175232Y-107836046D01*
X104077685Y-107653550D01*
X104077682Y-107653546D01*
X103946410Y-107493589D01*
X103786453Y-107362317D01*
X103786451Y-107362316D01*
X103786450Y-107362315D01*
X103603954Y-107264768D01*
X103517729Y-107238612D01*
X103405932Y-107204699D01*
X103200000Y-107184417D01*
X102994067Y-107204699D01*
X102796046Y-107264768D01*
X102613546Y-107362317D01*
X102453589Y-107493589D01*
X102322317Y-107653546D01*
X102224768Y-107836046D01*
X102164699Y-108034067D01*
X102144417Y-108240000D01*
X93896296Y-108240000D01*
X93829322Y-106792581D01*
X93829270Y-106790986D01*
X93800871Y-105318732D01*
X93800862Y-105317077D01*
X93801024Y-105296046D01*
X93812146Y-103844637D01*
X93812181Y-103842982D01*
X93812824Y-103824417D01*
X93863142Y-102371299D01*
X93863216Y-102369759D01*
X93953820Y-100899931D01*
X93953938Y-100898364D01*
X94084110Y-99431582D01*
X94084268Y-99430033D01*
X94253930Y-97967197D01*
X94254128Y-97965676D01*
X94463138Y-96508012D01*
X94463380Y-96506470D01*
X94711607Y-95054891D01*
X94711886Y-95053384D01*
X94999113Y-93609155D01*
X94999458Y-93607534D01*
X95012268Y-93551115D01*
X95325512Y-92171506D01*
X95325872Y-92170017D01*
X95690510Y-90743280D01*
X95690922Y-90741753D01*
X95759699Y-90499999D01*
X135689707Y-90499999D01*
X135708799Y-90645013D01*
X135713449Y-90656241D01*
X135716902Y-90667457D01*
X135798196Y-91059177D01*
X135799500Y-91071877D01*
X135799500Y-105714839D01*
X135799107Y-105721837D01*
X135794729Y-105760685D01*
X135805568Y-105817965D01*
X135805960Y-105820270D01*
X135814651Y-105877937D01*
X135814809Y-105878264D01*
X135819908Y-105893758D01*
X135819976Y-105894121D01*
X135847220Y-105945669D01*
X135848273Y-105947754D01*
X135873575Y-106000293D01*
X135873826Y-106000563D01*
X135883258Y-106013855D01*
X135883434Y-106014188D01*
X135924657Y-106055411D01*
X135926279Y-106057094D01*
X135965945Y-106099844D01*
X135966262Y-106100027D01*
X135979206Y-106109960D01*
X136464678Y-106595431D01*
X136470730Y-106602456D01*
X136488680Y-106626722D01*
X136488683Y-106626725D01*
X136488685Y-106626728D01*
X137333794Y-107567895D01*
X137336396Y-107570104D01*
X137344257Y-107578097D01*
X137353248Y-107589052D01*
X137513817Y-107720827D01*
X137697008Y-107818745D01*
X137895782Y-107879042D01*
X138102500Y-107899402D01*
X138309218Y-107879042D01*
X138507992Y-107818745D01*
X138691183Y-107720827D01*
X138851752Y-107589052D01*
X138983527Y-107428483D01*
X139081445Y-107245292D01*
X139141742Y-107046518D01*
X139162102Y-106839800D01*
X157362898Y-106839800D01*
X157383257Y-107046516D01*
X157443555Y-107245293D01*
X157541473Y-107428484D01*
X157673247Y-107589052D01*
X157833815Y-107720826D01*
X157970842Y-107794069D01*
X158017008Y-107818745D01*
X158215782Y-107879042D01*
X158422500Y-107899402D01*
X158629218Y-107879042D01*
X158827992Y-107818745D01*
X158845240Y-107809524D01*
X158854594Y-107805469D01*
X158859028Y-107803964D01*
X159737389Y-107364258D01*
X159775363Y-107358452D01*
X159809560Y-107375953D01*
X160581194Y-108147587D01*
X160599500Y-108191781D01*
X160599500Y-117186567D01*
X160599500Y-117313433D01*
X160607841Y-117339105D01*
X160610129Y-117348638D01*
X160614353Y-117375303D01*
X160626609Y-117399357D01*
X160630362Y-117408417D01*
X160638704Y-117434090D01*
X160654573Y-117455932D01*
X160659690Y-117464281D01*
X160671950Y-117488342D01*
X160671951Y-117488343D01*
X160691371Y-117507763D01*
X160691375Y-117507768D01*
X164050660Y-120867053D01*
X164068431Y-120903089D01*
X164060592Y-120942497D01*
X164030383Y-120968990D01*
X163919852Y-121014772D01*
X163803812Y-121103812D01*
X163714772Y-121219852D01*
X163658798Y-121354987D01*
X163639707Y-121499999D01*
X163658798Y-121645011D01*
X163681089Y-121698828D01*
X163682445Y-121702974D01*
X163684881Y-121707987D01*
X163714770Y-121780146D01*
X163753943Y-121831195D01*
X163756853Y-121835605D01*
X163760633Y-121839915D01*
X163803813Y-121896187D01*
X163860089Y-121939370D01*
X163866235Y-121944760D01*
X164755242Y-122833767D01*
X164760632Y-122839913D01*
X164803813Y-122896187D01*
X164860086Y-122939367D01*
X164866232Y-122944757D01*
X165053318Y-123131842D01*
X165054801Y-123133376D01*
X165099320Y-123181044D01*
X165137121Y-123204030D01*
X165142398Y-123207622D01*
X165177658Y-123234361D01*
X165199247Y-123242874D01*
X165208789Y-123247614D01*
X165228618Y-123259672D01*
X165271220Y-123271609D01*
X165277287Y-123273649D01*
X165318435Y-123289876D01*
X165321247Y-123290165D01*
X165341518Y-123292249D01*
X165351990Y-123294239D01*
X165374334Y-123300500D01*
X165374335Y-123300500D01*
X165418581Y-123300500D01*
X165424972Y-123300827D01*
X165435621Y-123301922D01*
X165468970Y-123305351D01*
X165468970Y-123305350D01*
X165468971Y-123305351D01*
X165491836Y-123301408D01*
X165502455Y-123300500D01*
X171021523Y-123300500D01*
X171029680Y-123301034D01*
X171100000Y-123310293D01*
X171170319Y-123301034D01*
X171178477Y-123300500D01*
X172421523Y-123300500D01*
X172429680Y-123301034D01*
X172500000Y-123310293D01*
X172645014Y-123291201D01*
X172780147Y-123235228D01*
X172896187Y-123146187D01*
X172985228Y-123030147D01*
X173041201Y-122895014D01*
X173060293Y-122750000D01*
X173041201Y-122604986D01*
X172985228Y-122469854D01*
X172896187Y-122353813D01*
X172896185Y-122353812D01*
X172896185Y-122353811D01*
X172825839Y-122299832D01*
X172804280Y-122269042D01*
X172804280Y-122231453D01*
X172825840Y-122200663D01*
X172827356Y-122199500D01*
X172896187Y-122146684D01*
X172985228Y-122030644D01*
X173041201Y-121895511D01*
X173060293Y-121750497D01*
X173041201Y-121605483D01*
X172985228Y-121470351D01*
X172896187Y-121354310D01*
X172896185Y-121354309D01*
X172896185Y-121354308D01*
X172780148Y-121265269D01*
X172645012Y-121209295D01*
X172500000Y-121190204D01*
X172354986Y-121209295D01*
X172330409Y-121219475D01*
X172320402Y-121222664D01*
X172296733Y-121228066D01*
X171935369Y-121346871D01*
X171915849Y-121349997D01*
X165692278Y-121349997D01*
X165648084Y-121331691D01*
X162616392Y-118299999D01*
X177239707Y-118299999D01*
X177258798Y-118445011D01*
X177258798Y-118445013D01*
X177258799Y-118445014D01*
X177267588Y-118466234D01*
X177281089Y-118498828D01*
X177282445Y-118502974D01*
X177284881Y-118507987D01*
X177314770Y-118580146D01*
X177353943Y-118631195D01*
X177356853Y-118635605D01*
X177360633Y-118639915D01*
X177403813Y-118696187D01*
X177460089Y-118739370D01*
X177466235Y-118744760D01*
X177855242Y-119133767D01*
X177860632Y-119139913D01*
X177903813Y-119196187D01*
X177960089Y-119239370D01*
X177966235Y-119244760D01*
X179855236Y-121133760D01*
X179860626Y-121139906D01*
X179903813Y-121196187D01*
X179960092Y-121239372D01*
X179966238Y-121244762D01*
X180455239Y-121733763D01*
X180460629Y-121739909D01*
X180503813Y-121796187D01*
X180619851Y-121885227D01*
X180619852Y-121885227D01*
X180619853Y-121885228D01*
X180754986Y-121941201D01*
X180900000Y-121960293D01*
X181045014Y-121941201D01*
X181180147Y-121885228D01*
X181296187Y-121796187D01*
X181385228Y-121680147D01*
X181441201Y-121545014D01*
X181460293Y-121400000D01*
X181441201Y-121254986D01*
X181434733Y-121239372D01*
X181418930Y-121201219D01*
X181417568Y-121197049D01*
X181415102Y-121191979D01*
X181409963Y-121179571D01*
X181385228Y-121119854D01*
X181346047Y-121068792D01*
X181343145Y-121064395D01*
X181339366Y-121060086D01*
X181296186Y-121003812D01*
X181239909Y-120960629D01*
X181233763Y-120955239D01*
X180744757Y-120466232D01*
X180739375Y-120460096D01*
X180696187Y-120403813D01*
X180696185Y-120403811D01*
X180696184Y-120403810D01*
X180639906Y-120360626D01*
X180633760Y-120355236D01*
X179478525Y-119200000D01*
X184624417Y-119200000D01*
X184644699Y-119405932D01*
X184659493Y-119454700D01*
X184704768Y-119603954D01*
X184779406Y-119743590D01*
X184802317Y-119786453D01*
X184933589Y-119946410D01*
X185093546Y-120077682D01*
X185093550Y-120077685D01*
X185276046Y-120175232D01*
X185474066Y-120235300D01*
X185680000Y-120255583D01*
X185885934Y-120235300D01*
X186083954Y-120175232D01*
X186266450Y-120077685D01*
X186426410Y-119946410D01*
X186557685Y-119786450D01*
X186655232Y-119603954D01*
X186715300Y-119405934D01*
X186735583Y-119200000D01*
X187164417Y-119200000D01*
X187184699Y-119405932D01*
X187199493Y-119454700D01*
X187244768Y-119603954D01*
X187319406Y-119743590D01*
X187342317Y-119786453D01*
X187473589Y-119946410D01*
X187633546Y-120077682D01*
X187633550Y-120077685D01*
X187816046Y-120175232D01*
X188014066Y-120235300D01*
X188220000Y-120255583D01*
X188346487Y-120243125D01*
X190070426Y-120243125D01*
X190132610Y-120286666D01*
X190330843Y-120379103D01*
X190542110Y-120435712D01*
X190760000Y-120454775D01*
X190977889Y-120435712D01*
X191189156Y-120379103D01*
X191387385Y-120286667D01*
X191449572Y-120243124D01*
X191201309Y-119994861D01*
X192249500Y-119994861D01*
X192252415Y-120019990D01*
X192297794Y-120122766D01*
X192377233Y-120202205D01*
X192377234Y-120202205D01*
X192377235Y-120202206D01*
X192480009Y-120247585D01*
X192505135Y-120250500D01*
X194094864Y-120250499D01*
X194119991Y-120247585D01*
X194222765Y-120202206D01*
X194302206Y-120122765D01*
X194347585Y-120019991D01*
X194350500Y-119994865D01*
X194350499Y-118405136D01*
X194347585Y-118380009D01*
X194302206Y-118277235D01*
X194302205Y-118277234D01*
X194302205Y-118277233D01*
X194222766Y-118197794D01*
X194147814Y-118164700D01*
X194119991Y-118152415D01*
X194094865Y-118149500D01*
X194094861Y-118149500D01*
X192505138Y-118149500D01*
X192480009Y-118152415D01*
X192377233Y-118197794D01*
X192297794Y-118277233D01*
X192260971Y-118360632D01*
X192252415Y-118380009D01*
X192249654Y-118403813D01*
X192249500Y-118405138D01*
X192249500Y-119994861D01*
X191201309Y-119994861D01*
X190760000Y-119553553D01*
X190070426Y-120243125D01*
X188346487Y-120243125D01*
X188425934Y-120235300D01*
X188623954Y-120175232D01*
X188806450Y-120077685D01*
X188966410Y-119946410D01*
X189097685Y-119786450D01*
X189195232Y-119603954D01*
X189255300Y-119405934D01*
X189275583Y-119200000D01*
X189505224Y-119200000D01*
X189524287Y-119417889D01*
X189580896Y-119629156D01*
X189673334Y-119827389D01*
X189716873Y-119889572D01*
X190406447Y-119200000D01*
X191113553Y-119200000D01*
X191803124Y-119889571D01*
X191846667Y-119827385D01*
X191939103Y-119629156D01*
X191995712Y-119417889D01*
X192014775Y-119200000D01*
X191995712Y-118982110D01*
X191939103Y-118770843D01*
X191846667Y-118572614D01*
X191803123Y-118510428D01*
X191113553Y-119200000D01*
X190406447Y-119200000D01*
X189716874Y-118510427D01*
X189673333Y-118572611D01*
X189580896Y-118770843D01*
X189524287Y-118982110D01*
X189505224Y-119200000D01*
X189275583Y-119200000D01*
X189255300Y-118994066D01*
X189195232Y-118796046D01*
X189097685Y-118613550D01*
X189070272Y-118580147D01*
X188966410Y-118453589D01*
X188806453Y-118322317D01*
X188806451Y-118322316D01*
X188806450Y-118322315D01*
X188623954Y-118224768D01*
X188535032Y-118197794D01*
X188425932Y-118164699D01*
X188346481Y-118156874D01*
X190070427Y-118156874D01*
X190759999Y-118846446D01*
X191449572Y-118156873D01*
X191387389Y-118113334D01*
X191189156Y-118020896D01*
X190977889Y-117964287D01*
X190760000Y-117945224D01*
X190542110Y-117964287D01*
X190330843Y-118020896D01*
X190132611Y-118113333D01*
X190070427Y-118156874D01*
X188346481Y-118156874D01*
X188220000Y-118144417D01*
X188014067Y-118164699D01*
X187816046Y-118224768D01*
X187633546Y-118322317D01*
X187473589Y-118453589D01*
X187342317Y-118613546D01*
X187244768Y-118796046D01*
X187184699Y-118994067D01*
X187164417Y-119200000D01*
X186735583Y-119200000D01*
X186715300Y-118994066D01*
X186655232Y-118796046D01*
X186557685Y-118613550D01*
X186530272Y-118580147D01*
X186426410Y-118453589D01*
X186266453Y-118322317D01*
X186266451Y-118322316D01*
X186266450Y-118322315D01*
X186083954Y-118224768D01*
X185995032Y-118197794D01*
X185885932Y-118164699D01*
X185680000Y-118144417D01*
X185474067Y-118164699D01*
X185276046Y-118224768D01*
X185093546Y-118322317D01*
X184933589Y-118453589D01*
X184802317Y-118613546D01*
X184704768Y-118796046D01*
X184644699Y-118994067D01*
X184624417Y-119200000D01*
X179478525Y-119200000D01*
X178744759Y-118466234D01*
X178739369Y-118460088D01*
X178696187Y-118403813D01*
X178639913Y-118360632D01*
X178633767Y-118355242D01*
X178244755Y-117966230D01*
X178239364Y-117960083D01*
X178231627Y-117950000D01*
X178196187Y-117903813D01*
X178177627Y-117889571D01*
X178080148Y-117814772D01*
X177945012Y-117758798D01*
X177800000Y-117739707D01*
X177654987Y-117758798D01*
X177519852Y-117814772D01*
X177403812Y-117903812D01*
X177314772Y-118019852D01*
X177258798Y-118154987D01*
X177239707Y-118299999D01*
X162616392Y-118299999D01*
X161418806Y-117102413D01*
X161400500Y-117058219D01*
X161400500Y-115039999D01*
X184444417Y-115039999D01*
X184464699Y-115245932D01*
X184469481Y-115261695D01*
X184524768Y-115443954D01*
X184622315Y-115626450D01*
X184622317Y-115626453D01*
X184753589Y-115786410D01*
X184913546Y-115917682D01*
X184913550Y-115917685D01*
X185096046Y-116015232D01*
X185294066Y-116075300D01*
X185500000Y-116095583D01*
X185705934Y-116075300D01*
X185903954Y-116015232D01*
X186086450Y-115917685D01*
X186187372Y-115834861D01*
X192069500Y-115834861D01*
X192072415Y-115859990D01*
X192117794Y-115962766D01*
X192197233Y-116042205D01*
X192197234Y-116042205D01*
X192197235Y-116042206D01*
X192300009Y-116087585D01*
X192325135Y-116090500D01*
X193914864Y-116090499D01*
X193939991Y-116087585D01*
X194042765Y-116042206D01*
X194122206Y-115962765D01*
X194167585Y-115859991D01*
X194170500Y-115834865D01*
X194170499Y-114245136D01*
X194167585Y-114220009D01*
X194122206Y-114117235D01*
X194122205Y-114117234D01*
X194122205Y-114117233D01*
X194042766Y-114037794D01*
X193967814Y-114004700D01*
X193939991Y-113992415D01*
X193914865Y-113989500D01*
X193914861Y-113989500D01*
X192325138Y-113989500D01*
X192300009Y-113992415D01*
X192197233Y-114037794D01*
X192117794Y-114117233D01*
X192072415Y-114220009D01*
X192069500Y-114245138D01*
X192069500Y-115834861D01*
X186187372Y-115834861D01*
X186246410Y-115786410D01*
X186377685Y-115626450D01*
X186475232Y-115443954D01*
X186535300Y-115245934D01*
X186555583Y-115040000D01*
X186535300Y-114834066D01*
X186475232Y-114636046D01*
X186377685Y-114453550D01*
X186339738Y-114407311D01*
X186246410Y-114293589D01*
X186086453Y-114162317D01*
X186086451Y-114162316D01*
X186086450Y-114162315D01*
X185903954Y-114064768D01*
X185815032Y-114037794D01*
X185705932Y-114004699D01*
X185500000Y-113984417D01*
X185294067Y-114004699D01*
X185096046Y-114064768D01*
X184913546Y-114162317D01*
X184753589Y-114293589D01*
X184622317Y-114453546D01*
X184524768Y-114636046D01*
X184464699Y-114834067D01*
X184444417Y-115039999D01*
X161400500Y-115039999D01*
X161400500Y-112499999D01*
X184444417Y-112499999D01*
X184464699Y-112705932D01*
X184464700Y-112705934D01*
X184524768Y-112903954D01*
X184608334Y-113060293D01*
X184622317Y-113086453D01*
X184753589Y-113246410D01*
X184843260Y-113320000D01*
X184913550Y-113377685D01*
X185096046Y-113475232D01*
X185294066Y-113535300D01*
X185500000Y-113555583D01*
X185705934Y-113535300D01*
X185903954Y-113475232D01*
X186086450Y-113377685D01*
X186246410Y-113246410D01*
X186377685Y-113086450D01*
X186475232Y-112903954D01*
X186535300Y-112705934D01*
X186555583Y-112500000D01*
X186555583Y-112499999D01*
X192064417Y-112499999D01*
X192084699Y-112705932D01*
X192084700Y-112705934D01*
X192144768Y-112903954D01*
X192228334Y-113060293D01*
X192242317Y-113086453D01*
X192373589Y-113246410D01*
X192463260Y-113320000D01*
X192533550Y-113377685D01*
X192716046Y-113475232D01*
X192914066Y-113535300D01*
X193120000Y-113555583D01*
X193325934Y-113535300D01*
X193523954Y-113475232D01*
X193706450Y-113377685D01*
X193866410Y-113246410D01*
X193997685Y-113086450D01*
X194095232Y-112903954D01*
X194155300Y-112705934D01*
X194175583Y-112500000D01*
X194155300Y-112294066D01*
X194095232Y-112096046D01*
X193997685Y-111913550D01*
X193982473Y-111895014D01*
X193866410Y-111753589D01*
X193706453Y-111622317D01*
X193706451Y-111622316D01*
X193706450Y-111622315D01*
X193523954Y-111524768D01*
X193437729Y-111498612D01*
X193325932Y-111464699D01*
X193120000Y-111444417D01*
X192914067Y-111464699D01*
X192716046Y-111524768D01*
X192533546Y-111622317D01*
X192373589Y-111753589D01*
X192242317Y-111913546D01*
X192144768Y-112096046D01*
X192084699Y-112294067D01*
X192064417Y-112499999D01*
X186555583Y-112499999D01*
X186535300Y-112294066D01*
X186475232Y-112096046D01*
X186377685Y-111913550D01*
X186362473Y-111895014D01*
X186246410Y-111753589D01*
X186086453Y-111622317D01*
X186086451Y-111622316D01*
X186086450Y-111622315D01*
X185903954Y-111524768D01*
X185817729Y-111498612D01*
X185705932Y-111464699D01*
X185500000Y-111444417D01*
X185294067Y-111464699D01*
X185096046Y-111524768D01*
X184913546Y-111622317D01*
X184753589Y-111753589D01*
X184622317Y-111913546D01*
X184524768Y-112096046D01*
X184464699Y-112294067D01*
X184444417Y-112499999D01*
X161400500Y-112499999D01*
X161400500Y-109960000D01*
X184444417Y-109960000D01*
X184464699Y-110165932D01*
X184486946Y-110239271D01*
X184524768Y-110363954D01*
X184592983Y-110491574D01*
X184622317Y-110546453D01*
X184753589Y-110706410D01*
X184843260Y-110780000D01*
X184913550Y-110837685D01*
X185096046Y-110935232D01*
X185294066Y-110995300D01*
X185500000Y-111015583D01*
X185705934Y-110995300D01*
X185903954Y-110935232D01*
X186086450Y-110837685D01*
X186246410Y-110706410D01*
X186377685Y-110546450D01*
X186475232Y-110363954D01*
X186535300Y-110165934D01*
X186555583Y-109960000D01*
X192064417Y-109960000D01*
X192084699Y-110165932D01*
X192106946Y-110239271D01*
X192144768Y-110363954D01*
X192212983Y-110491574D01*
X192242317Y-110546453D01*
X192373589Y-110706410D01*
X192463260Y-110780000D01*
X192533550Y-110837685D01*
X192716046Y-110935232D01*
X192914066Y-110995300D01*
X193120000Y-111015583D01*
X193325934Y-110995300D01*
X193523954Y-110935232D01*
X193706450Y-110837685D01*
X193866410Y-110706410D01*
X193997685Y-110546450D01*
X194095232Y-110363954D01*
X194155300Y-110165934D01*
X194175583Y-109960000D01*
X194155300Y-109754066D01*
X194095232Y-109556046D01*
X193997685Y-109373550D01*
X193997054Y-109372781D01*
X193866410Y-109213589D01*
X193706453Y-109082317D01*
X193706451Y-109082316D01*
X193706450Y-109082315D01*
X193523954Y-108984768D01*
X193408603Y-108949777D01*
X193325932Y-108924699D01*
X193120000Y-108904417D01*
X192914067Y-108924699D01*
X192716046Y-108984768D01*
X192533546Y-109082317D01*
X192373589Y-109213589D01*
X192242317Y-109373546D01*
X192144768Y-109556046D01*
X192084699Y-109754067D01*
X192064417Y-109960000D01*
X186555583Y-109960000D01*
X186535300Y-109754066D01*
X186475232Y-109556046D01*
X186377685Y-109373550D01*
X186377054Y-109372781D01*
X186246410Y-109213589D01*
X186086453Y-109082317D01*
X186086451Y-109082316D01*
X186086450Y-109082315D01*
X185903954Y-108984768D01*
X185788603Y-108949777D01*
X185705932Y-108924699D01*
X185500000Y-108904417D01*
X185294067Y-108924699D01*
X185096046Y-108984768D01*
X184913546Y-109082317D01*
X184753589Y-109213589D01*
X184622317Y-109373546D01*
X184524768Y-109556046D01*
X184464699Y-109754067D01*
X184444417Y-109960000D01*
X161400500Y-109960000D01*
X161400500Y-107936566D01*
X161392159Y-107910895D01*
X161389870Y-107901360D01*
X161385646Y-107874699D01*
X161385646Y-107874696D01*
X161373386Y-107850636D01*
X161369642Y-107841597D01*
X161361297Y-107815911D01*
X161345423Y-107794063D01*
X161340303Y-107785706D01*
X161328049Y-107761657D01*
X161309862Y-107743470D01*
X161309860Y-107743467D01*
X160986393Y-107420000D01*
X184444417Y-107420000D01*
X184464699Y-107625932D01*
X184464700Y-107625934D01*
X184524768Y-107823954D01*
X184622315Y-108006450D01*
X184622317Y-108006453D01*
X184753589Y-108166410D01*
X184913546Y-108297682D01*
X184913550Y-108297685D01*
X185096046Y-108395232D01*
X185294066Y-108455300D01*
X185500000Y-108475583D01*
X185705934Y-108455300D01*
X185903954Y-108395232D01*
X186086450Y-108297685D01*
X186246410Y-108166410D01*
X186377685Y-108006450D01*
X186475232Y-107823954D01*
X186535300Y-107625934D01*
X186555583Y-107420000D01*
X192064417Y-107420000D01*
X192084699Y-107625932D01*
X192084700Y-107625934D01*
X192144768Y-107823954D01*
X192242315Y-108006450D01*
X192242317Y-108006453D01*
X192373589Y-108166410D01*
X192533546Y-108297682D01*
X192533550Y-108297685D01*
X192716046Y-108395232D01*
X192914066Y-108455300D01*
X193120000Y-108475583D01*
X193325934Y-108455300D01*
X193523954Y-108395232D01*
X193706450Y-108297685D01*
X193866410Y-108166410D01*
X193997685Y-108006450D01*
X194095232Y-107823954D01*
X194155300Y-107625934D01*
X194175583Y-107420000D01*
X194155300Y-107214066D01*
X194095232Y-107016046D01*
X193997685Y-106833550D01*
X193983209Y-106815911D01*
X193866410Y-106673589D01*
X193706453Y-106542317D01*
X193706451Y-106542316D01*
X193706450Y-106542315D01*
X193523954Y-106444768D01*
X193437729Y-106418612D01*
X193325932Y-106384699D01*
X193120000Y-106364417D01*
X192914067Y-106384699D01*
X192716046Y-106444768D01*
X192533546Y-106542317D01*
X192373589Y-106673589D01*
X192242317Y-106833546D01*
X192144768Y-107016046D01*
X192084699Y-107214067D01*
X192064417Y-107420000D01*
X186555583Y-107420000D01*
X186535300Y-107214066D01*
X186475232Y-107016046D01*
X186377685Y-106833550D01*
X186363209Y-106815911D01*
X186246410Y-106673589D01*
X186086453Y-106542317D01*
X186086451Y-106542316D01*
X186086450Y-106542315D01*
X185903954Y-106444768D01*
X185817729Y-106418612D01*
X185705932Y-106384699D01*
X185500000Y-106364417D01*
X185294067Y-106384699D01*
X185096046Y-106444768D01*
X184913546Y-106542317D01*
X184753589Y-106673589D01*
X184622317Y-106833546D01*
X184524768Y-107016046D01*
X184464699Y-107214067D01*
X184444417Y-107420000D01*
X160986393Y-107420000D01*
X160192015Y-106625622D01*
X160190321Y-106623595D01*
X160190312Y-106623604D01*
X160181959Y-106614841D01*
X160176060Y-106609667D01*
X160097572Y-106531179D01*
X160097563Y-106531171D01*
X160078143Y-106511751D01*
X160078142Y-106511750D01*
X160054081Y-106499490D01*
X160045735Y-106494374D01*
X160023890Y-106478504D01*
X160010647Y-106474201D01*
X159998217Y-106470162D01*
X159989157Y-106466409D01*
X159965103Y-106454153D01*
X159938438Y-106449929D01*
X159928907Y-106447641D01*
X159903233Y-106439300D01*
X159903231Y-106439300D01*
X159893819Y-106436242D01*
X159893884Y-106436040D01*
X159876698Y-106431654D01*
X159071714Y-105992067D01*
X159017196Y-105962295D01*
X159014993Y-105960809D01*
X159002075Y-105953905D01*
X158990685Y-105947817D01*
X158990260Y-105947587D01*
X158868876Y-105881301D01*
X158863809Y-105879394D01*
X158856370Y-105876023D01*
X158827994Y-105860855D01*
X158629216Y-105800557D01*
X158422500Y-105780198D01*
X158215783Y-105800557D01*
X158017006Y-105860855D01*
X157833815Y-105958773D01*
X157673247Y-106090547D01*
X157541473Y-106251115D01*
X157443555Y-106434306D01*
X157383257Y-106633083D01*
X157362898Y-106839800D01*
X139162102Y-106839800D01*
X139141742Y-106633082D01*
X139081445Y-106434308D01*
X138983527Y-106251117D01*
X138983526Y-106251115D01*
X138851752Y-106090547D01*
X138691184Y-105958773D01*
X138507993Y-105860855D01*
X138309216Y-105800557D01*
X138158100Y-105785674D01*
X138102500Y-105780198D01*
X138102498Y-105780198D01*
X138073912Y-105783012D01*
X138065247Y-105783261D01*
X138059718Y-105783035D01*
X137057546Y-105881776D01*
X137030363Y-105878424D01*
X137007224Y-105863771D01*
X136718806Y-105575353D01*
X136700500Y-105531159D01*
X136700500Y-104299800D01*
X137042898Y-104299800D01*
X137063257Y-104506516D01*
X137123555Y-104705293D01*
X137221473Y-104888484D01*
X137353247Y-105049052D01*
X137513815Y-105180826D01*
X137672501Y-105265646D01*
X137697008Y-105278745D01*
X137895782Y-105339042D01*
X138102500Y-105359402D01*
X138309218Y-105339042D01*
X138507992Y-105278745D01*
X138691183Y-105180827D01*
X138851752Y-105049052D01*
X138983527Y-104888483D01*
X139081445Y-104705292D01*
X139141742Y-104506518D01*
X139162102Y-104299800D01*
X157362898Y-104299800D01*
X157383257Y-104506516D01*
X157443555Y-104705293D01*
X157541473Y-104888484D01*
X157673247Y-105049052D01*
X157833815Y-105180826D01*
X157992501Y-105265646D01*
X158017008Y-105278745D01*
X158215782Y-105339042D01*
X158422500Y-105359402D01*
X158629218Y-105339042D01*
X158827992Y-105278745D01*
X158842735Y-105270864D01*
X158852594Y-105266638D01*
X158856471Y-105265358D01*
X159998448Y-104706658D01*
X160025914Y-104700300D01*
X179108019Y-104700300D01*
X179152213Y-104718606D01*
X179623466Y-105189859D01*
X179623470Y-105189862D01*
X179641656Y-105208049D01*
X179665711Y-105220306D01*
X179674071Y-105225430D01*
X179695909Y-105241295D01*
X179695910Y-105241295D01*
X179695911Y-105241296D01*
X179721579Y-105249636D01*
X179730640Y-105253389D01*
X179754125Y-105265355D01*
X179754696Y-105265646D01*
X179781365Y-105269869D01*
X179790885Y-105272155D01*
X179816567Y-105280500D01*
X179848481Y-105280500D01*
X179943433Y-105280500D01*
X183904645Y-105280500D01*
X183932091Y-105286848D01*
X185067657Y-105841915D01*
X185070793Y-105842949D01*
X185071612Y-105843220D01*
X185081492Y-105847453D01*
X185096043Y-105855231D01*
X185096045Y-105855231D01*
X185096046Y-105855232D01*
X185294066Y-105915300D01*
X185500000Y-105935583D01*
X185705934Y-105915300D01*
X185903954Y-105855232D01*
X186086450Y-105757685D01*
X186246410Y-105626410D01*
X186377685Y-105466450D01*
X186475232Y-105283954D01*
X186535300Y-105085934D01*
X186555583Y-104880000D01*
X192064417Y-104880000D01*
X192084699Y-105085932D01*
X192102977Y-105146185D01*
X192144768Y-105283954D01*
X192242315Y-105466450D01*
X192242317Y-105466453D01*
X192373589Y-105626410D01*
X192533546Y-105757682D01*
X192533550Y-105757685D01*
X192716046Y-105855232D01*
X192914066Y-105915300D01*
X193120000Y-105935583D01*
X193325934Y-105915300D01*
X193523954Y-105855232D01*
X193706450Y-105757685D01*
X193866410Y-105626410D01*
X193997685Y-105466450D01*
X194095232Y-105283954D01*
X194155300Y-105085934D01*
X194175583Y-104880000D01*
X194155300Y-104674066D01*
X194095232Y-104476046D01*
X193997685Y-104293550D01*
X193974068Y-104264772D01*
X193866410Y-104133589D01*
X193706453Y-104002317D01*
X193706451Y-104002316D01*
X193706450Y-104002315D01*
X193523954Y-103904768D01*
X193437729Y-103878612D01*
X193325932Y-103844699D01*
X193120000Y-103824417D01*
X192914067Y-103844699D01*
X192716046Y-103904768D01*
X192533546Y-104002317D01*
X192373589Y-104133589D01*
X192242317Y-104293546D01*
X192144768Y-104476046D01*
X192084699Y-104674067D01*
X192064417Y-104880000D01*
X186555583Y-104880000D01*
X186535300Y-104674066D01*
X186475232Y-104476046D01*
X186377685Y-104293550D01*
X186354068Y-104264772D01*
X186246410Y-104133589D01*
X186086453Y-104002317D01*
X186086451Y-104002316D01*
X186086450Y-104002315D01*
X185903954Y-103904768D01*
X185817729Y-103878612D01*
X185705932Y-103844699D01*
X185500000Y-103824417D01*
X185294067Y-103844699D01*
X185096042Y-103904769D01*
X185081493Y-103912545D01*
X185071623Y-103916774D01*
X185067661Y-103918081D01*
X183932090Y-104473151D01*
X183904643Y-104479500D01*
X180071781Y-104479500D01*
X180027587Y-104461194D01*
X179610586Y-104044193D01*
X179594410Y-104016175D01*
X179594410Y-103983823D01*
X179610586Y-103955805D01*
X180807586Y-102758806D01*
X180851780Y-102740500D01*
X183904645Y-102740500D01*
X183932091Y-102746848D01*
X185067657Y-103301915D01*
X185070793Y-103302949D01*
X185071612Y-103303220D01*
X185081492Y-103307453D01*
X185096043Y-103315231D01*
X185096045Y-103315231D01*
X185096046Y-103315232D01*
X185294066Y-103375300D01*
X185500000Y-103395583D01*
X185705934Y-103375300D01*
X185903954Y-103315232D01*
X186086450Y-103217685D01*
X186246410Y-103086410D01*
X186377685Y-102926450D01*
X186475232Y-102743954D01*
X186535300Y-102545934D01*
X186555583Y-102340000D01*
X186555583Y-102339999D01*
X192064417Y-102339999D01*
X192084699Y-102545932D01*
X192102257Y-102603813D01*
X192144768Y-102743954D01*
X192204117Y-102854987D01*
X192242317Y-102926453D01*
X192373589Y-103086410D01*
X192522721Y-103208798D01*
X192533550Y-103217685D01*
X192716046Y-103315232D01*
X192914066Y-103375300D01*
X193120000Y-103395583D01*
X193325934Y-103375300D01*
X193523954Y-103315232D01*
X193706450Y-103217685D01*
X193866410Y-103086410D01*
X193997685Y-102926450D01*
X194095232Y-102743954D01*
X194155300Y-102545934D01*
X194175583Y-102340000D01*
X194155300Y-102134066D01*
X194095232Y-101936046D01*
X193997685Y-101753550D01*
X193994772Y-101750000D01*
X193866410Y-101593589D01*
X193706453Y-101462317D01*
X193706451Y-101462316D01*
X193706450Y-101462315D01*
X193523954Y-101364768D01*
X193437729Y-101338612D01*
X193325932Y-101304699D01*
X193120000Y-101284417D01*
X192914067Y-101304699D01*
X192716046Y-101364768D01*
X192533546Y-101462317D01*
X192373589Y-101593589D01*
X192242317Y-101753546D01*
X192144768Y-101936046D01*
X192084699Y-102134067D01*
X192064417Y-102339999D01*
X186555583Y-102339999D01*
X186535300Y-102134066D01*
X186475232Y-101936046D01*
X186377685Y-101753550D01*
X186374772Y-101750000D01*
X186246410Y-101593589D01*
X186086453Y-101462317D01*
X186086451Y-101462316D01*
X186086450Y-101462315D01*
X185903954Y-101364768D01*
X185817729Y-101338612D01*
X185705932Y-101304699D01*
X185500000Y-101284417D01*
X185294067Y-101304699D01*
X185096042Y-101364769D01*
X185081493Y-101372545D01*
X185071623Y-101376774D01*
X185067661Y-101378081D01*
X183932090Y-101933151D01*
X183904643Y-101939500D01*
X180596565Y-101939500D01*
X180570886Y-101947842D01*
X180561355Y-101950130D01*
X180534696Y-101954353D01*
X180510644Y-101966608D01*
X180501585Y-101970360D01*
X180475911Y-101978702D01*
X180454073Y-101994569D01*
X180445713Y-101999692D01*
X180421658Y-102011949D01*
X180369561Y-102064043D01*
X180369560Y-102064047D01*
X179102413Y-103331194D01*
X179058219Y-103349500D01*
X178550039Y-103349500D01*
X178511992Y-103336585D01*
X178489669Y-103303177D01*
X178492296Y-103263083D01*
X178511101Y-103217682D01*
X178541201Y-103145014D01*
X178560293Y-103000000D01*
X178541201Y-102854986D01*
X178485228Y-102719854D01*
X178396187Y-102603813D01*
X178396185Y-102603812D01*
X178396185Y-102603811D01*
X178280148Y-102514772D01*
X178145012Y-102458798D01*
X178000000Y-102439707D01*
X177854986Y-102458798D01*
X177830409Y-102468978D01*
X177820402Y-102472167D01*
X177796733Y-102477569D01*
X177435369Y-102596374D01*
X177415849Y-102599500D01*
X163691780Y-102599500D01*
X163667862Y-102594742D01*
X163647586Y-102581194D01*
X160866393Y-99800000D01*
X184444417Y-99800000D01*
X184464699Y-100005932D01*
X184464700Y-100005934D01*
X184524768Y-100203954D01*
X184622315Y-100386450D01*
X184622317Y-100386453D01*
X184753589Y-100546410D01*
X184913546Y-100677682D01*
X184913550Y-100677685D01*
X185096046Y-100775232D01*
X185294066Y-100835300D01*
X185500000Y-100855583D01*
X185705934Y-100835300D01*
X185903954Y-100775232D01*
X186086450Y-100677685D01*
X186246410Y-100546410D01*
X186377685Y-100386450D01*
X186475232Y-100203954D01*
X186535300Y-100005934D01*
X186555583Y-99800000D01*
X192064417Y-99800000D01*
X192084699Y-100005932D01*
X192084700Y-100005934D01*
X192144768Y-100203954D01*
X192242315Y-100386450D01*
X192242317Y-100386453D01*
X192373589Y-100546410D01*
X192533546Y-100677682D01*
X192533550Y-100677685D01*
X192716046Y-100775232D01*
X192914066Y-100835300D01*
X193120000Y-100855583D01*
X193325934Y-100835300D01*
X193523954Y-100775232D01*
X193706450Y-100677685D01*
X193866410Y-100546410D01*
X193997685Y-100386450D01*
X194095232Y-100203954D01*
X194155300Y-100005934D01*
X194175583Y-99800000D01*
X194155300Y-99594066D01*
X194095232Y-99396046D01*
X193997685Y-99213550D01*
X193997682Y-99213546D01*
X193866410Y-99053589D01*
X193706453Y-98922317D01*
X193706451Y-98922316D01*
X193706450Y-98922315D01*
X193523954Y-98824768D01*
X193437729Y-98798612D01*
X193325932Y-98764699D01*
X193120000Y-98744417D01*
X192914067Y-98764699D01*
X192716046Y-98824768D01*
X192533546Y-98922317D01*
X192373589Y-99053589D01*
X192242317Y-99213546D01*
X192144768Y-99396046D01*
X192084699Y-99594067D01*
X192064417Y-99800000D01*
X186555583Y-99800000D01*
X186535300Y-99594066D01*
X186475232Y-99396046D01*
X186377685Y-99213550D01*
X186377682Y-99213546D01*
X186246410Y-99053589D01*
X186086453Y-98922317D01*
X186086451Y-98922316D01*
X186086450Y-98922315D01*
X185903954Y-98824768D01*
X185817729Y-98798612D01*
X185705932Y-98764699D01*
X185500000Y-98744417D01*
X185294067Y-98764699D01*
X185096046Y-98824768D01*
X184913546Y-98922317D01*
X184753589Y-99053589D01*
X184622317Y-99213546D01*
X184524768Y-99396046D01*
X184464699Y-99594067D01*
X184444417Y-99800000D01*
X160866393Y-99800000D01*
X160168152Y-99101759D01*
X160164911Y-99098261D01*
X160163463Y-99096573D01*
X160158977Y-99091344D01*
X160151612Y-99084985D01*
X160148277Y-99081884D01*
X159977572Y-98911179D01*
X159977563Y-98911171D01*
X159958143Y-98891751D01*
X159958142Y-98891750D01*
X159934081Y-98879490D01*
X159925735Y-98874374D01*
X159903890Y-98858504D01*
X159890647Y-98854201D01*
X159878217Y-98850162D01*
X159869157Y-98846409D01*
X159845103Y-98834153D01*
X159818438Y-98829929D01*
X159808907Y-98827641D01*
X159783233Y-98819300D01*
X159783231Y-98819300D01*
X159771161Y-98819300D01*
X159737817Y-98809662D01*
X159080541Y-98395067D01*
X159074236Y-98390519D01*
X159060906Y-98379580D01*
X159011183Y-98338773D01*
X158914031Y-98286844D01*
X158827993Y-98240855D01*
X158629216Y-98180557D01*
X158445083Y-98162422D01*
X158422500Y-98160198D01*
X158422499Y-98160198D01*
X158215783Y-98180557D01*
X158017006Y-98240855D01*
X157833815Y-98338773D01*
X157673247Y-98470547D01*
X157541473Y-98631115D01*
X157443555Y-98814306D01*
X157383257Y-99013083D01*
X157362898Y-99219800D01*
X157383257Y-99426516D01*
X157443555Y-99625293D01*
X157541473Y-99808484D01*
X157673247Y-99969052D01*
X157833815Y-100100826D01*
X157833817Y-100100827D01*
X158017008Y-100198745D01*
X158215782Y-100259042D01*
X158422500Y-100279402D01*
X158629218Y-100259042D01*
X158827992Y-100198745D01*
X158832554Y-100196306D01*
X158844709Y-100191368D01*
X158844713Y-100191368D01*
X159051089Y-100100826D01*
X159267384Y-100005932D01*
X159695465Y-99818121D01*
X159732132Y-99813934D01*
X159764769Y-99831162D01*
X161208093Y-101274486D01*
X161226206Y-101313776D01*
X161214463Y-101355417D01*
X161178489Y-101379453D01*
X161144915Y-101375479D01*
X161144880Y-101375702D01*
X161139218Y-101374805D01*
X161135525Y-101374368D01*
X161135103Y-101374153D01*
X161108438Y-101369929D01*
X161098907Y-101367641D01*
X161073233Y-101359300D01*
X161073231Y-101359300D01*
X160025914Y-101359300D01*
X159998449Y-101352941D01*
X158856468Y-100794240D01*
X158852595Y-100792961D01*
X158842730Y-100788732D01*
X158827996Y-100780856D01*
X158629216Y-100720557D01*
X158422500Y-100700198D01*
X158215783Y-100720557D01*
X158017006Y-100780855D01*
X157833815Y-100878773D01*
X157673247Y-101010547D01*
X157541473Y-101171115D01*
X157443555Y-101354306D01*
X157383257Y-101553083D01*
X157362898Y-101759800D01*
X157383257Y-101966516D01*
X157443555Y-102165293D01*
X157541473Y-102348484D01*
X157673247Y-102509052D01*
X157833815Y-102640826D01*
X157981665Y-102719854D01*
X158017008Y-102738745D01*
X158215782Y-102799042D01*
X158422500Y-102819402D01*
X158629218Y-102799042D01*
X158827992Y-102738745D01*
X158842735Y-102730864D01*
X158852594Y-102726638D01*
X158856471Y-102725358D01*
X159998448Y-102166658D01*
X160025914Y-102160300D01*
X160818019Y-102160300D01*
X160862213Y-102178606D01*
X162476213Y-103792606D01*
X162494519Y-103836800D01*
X162476213Y-103880994D01*
X162432019Y-103899300D01*
X160025914Y-103899300D01*
X159998449Y-103892941D01*
X158856468Y-103334240D01*
X158852595Y-103332961D01*
X158842730Y-103328732D01*
X158827996Y-103320856D01*
X158629216Y-103260557D01*
X158422500Y-103240198D01*
X158215783Y-103260557D01*
X158017006Y-103320855D01*
X157833815Y-103418773D01*
X157673247Y-103550547D01*
X157541473Y-103711115D01*
X157443555Y-103894306D01*
X157383257Y-104093083D01*
X157362898Y-104299800D01*
X139162102Y-104299800D01*
X139141742Y-104093082D01*
X139081445Y-103894308D01*
X139074328Y-103880994D01*
X138983526Y-103711115D01*
X138851752Y-103550547D01*
X138691184Y-103418773D01*
X138507993Y-103320855D01*
X138309216Y-103260557D01*
X138102500Y-103240198D01*
X137895783Y-103260557D01*
X137697006Y-103320855D01*
X137513815Y-103418773D01*
X137353247Y-103550547D01*
X137221473Y-103711115D01*
X137123555Y-103894306D01*
X137063257Y-104093083D01*
X137042898Y-104299800D01*
X136700500Y-104299800D01*
X136700500Y-101759800D01*
X137042898Y-101759800D01*
X137063257Y-101966516D01*
X137123555Y-102165293D01*
X137221473Y-102348484D01*
X137353247Y-102509052D01*
X137513815Y-102640826D01*
X137661665Y-102719854D01*
X137697008Y-102738745D01*
X137895782Y-102799042D01*
X138102500Y-102819402D01*
X138309218Y-102799042D01*
X138507992Y-102738745D01*
X138691183Y-102640827D01*
X138851752Y-102509052D01*
X138983527Y-102348483D01*
X139081445Y-102165292D01*
X139141742Y-101966518D01*
X139162102Y-101759800D01*
X139141742Y-101553082D01*
X139081445Y-101354308D01*
X138983527Y-101171117D01*
X138983526Y-101171115D01*
X138851752Y-101010547D01*
X138691184Y-100878773D01*
X138507993Y-100780855D01*
X138309216Y-100720557D01*
X138102500Y-100700198D01*
X137895783Y-100720557D01*
X137697006Y-100780855D01*
X137513815Y-100878773D01*
X137353247Y-101010547D01*
X137221473Y-101171115D01*
X137123555Y-101354306D01*
X137063257Y-101553083D01*
X137042898Y-101759800D01*
X136700500Y-101759800D01*
X136700500Y-99219800D01*
X137042898Y-99219800D01*
X137063257Y-99426516D01*
X137123555Y-99625293D01*
X137221473Y-99808484D01*
X137353247Y-99969052D01*
X137513815Y-100100826D01*
X137513817Y-100100827D01*
X137697008Y-100198745D01*
X137895782Y-100259042D01*
X138102500Y-100279402D01*
X138309218Y-100259042D01*
X138507992Y-100198745D01*
X138691183Y-100100827D01*
X138851752Y-99969052D01*
X138983527Y-99808483D01*
X139081445Y-99625292D01*
X139141742Y-99426518D01*
X139162102Y-99219800D01*
X139141742Y-99013082D01*
X139081445Y-98814308D01*
X138983527Y-98631117D01*
X138983526Y-98631115D01*
X138851752Y-98470547D01*
X138691184Y-98338773D01*
X138507993Y-98240855D01*
X138309216Y-98180557D01*
X138125083Y-98162422D01*
X138102500Y-98160198D01*
X138102499Y-98160198D01*
X137895783Y-98180557D01*
X137697006Y-98240855D01*
X137513815Y-98338773D01*
X137353247Y-98470547D01*
X137221473Y-98631115D01*
X137123555Y-98814306D01*
X137063257Y-99013083D01*
X137042898Y-99219800D01*
X136700500Y-99219800D01*
X136700500Y-96679800D01*
X137042898Y-96679800D01*
X137063257Y-96886516D01*
X137123555Y-97085293D01*
X137221473Y-97268484D01*
X137353247Y-97429052D01*
X137513815Y-97560826D01*
X137513817Y-97560827D01*
X137697008Y-97658745D01*
X137895782Y-97719042D01*
X138102500Y-97739402D01*
X138309218Y-97719042D01*
X138507992Y-97658745D01*
X138691183Y-97560827D01*
X138851752Y-97429052D01*
X138983527Y-97268483D01*
X139081445Y-97085292D01*
X139141742Y-96886518D01*
X139162102Y-96679800D01*
X157362898Y-96679800D01*
X157383257Y-96886516D01*
X157443555Y-97085293D01*
X157541473Y-97268484D01*
X157673247Y-97429052D01*
X157833815Y-97560826D01*
X157833817Y-97560827D01*
X158017008Y-97658745D01*
X158215782Y-97719042D01*
X158422500Y-97739402D01*
X158629218Y-97719042D01*
X158827992Y-97658745D01*
X159011183Y-97560827D01*
X159171752Y-97429052D01*
X159303527Y-97268483D01*
X159308062Y-97259999D01*
X184444417Y-97259999D01*
X184464699Y-97465932D01*
X184464700Y-97465934D01*
X184524768Y-97663954D01*
X184622315Y-97846450D01*
X184622317Y-97846453D01*
X184753589Y-98006410D01*
X184913546Y-98137682D01*
X184913550Y-98137685D01*
X185096046Y-98235232D01*
X185294066Y-98295300D01*
X185500000Y-98315583D01*
X185705934Y-98295300D01*
X185903954Y-98235232D01*
X186086450Y-98137685D01*
X186246410Y-98006410D01*
X186377685Y-97846450D01*
X186475232Y-97663954D01*
X186535300Y-97465934D01*
X186555583Y-97260000D01*
X186555583Y-97259999D01*
X192064417Y-97259999D01*
X192084699Y-97465932D01*
X192084700Y-97465934D01*
X192144768Y-97663954D01*
X192242315Y-97846450D01*
X192242317Y-97846453D01*
X192373589Y-98006410D01*
X192533546Y-98137682D01*
X192533550Y-98137685D01*
X192716046Y-98235232D01*
X192914066Y-98295300D01*
X193120000Y-98315583D01*
X193325934Y-98295300D01*
X193523954Y-98235232D01*
X193706450Y-98137685D01*
X193866410Y-98006410D01*
X193997685Y-97846450D01*
X194095232Y-97663954D01*
X194155300Y-97465934D01*
X194175583Y-97260000D01*
X194155300Y-97054066D01*
X194095232Y-96856046D01*
X193997685Y-96673550D01*
X193997682Y-96673546D01*
X193866410Y-96513589D01*
X193706453Y-96382317D01*
X193706451Y-96382316D01*
X193706450Y-96382315D01*
X193523954Y-96284768D01*
X193437729Y-96258612D01*
X193325932Y-96224699D01*
X193120000Y-96204417D01*
X192914067Y-96224699D01*
X192716046Y-96284768D01*
X192533546Y-96382317D01*
X192373589Y-96513589D01*
X192242317Y-96673546D01*
X192144768Y-96856046D01*
X192084699Y-97054067D01*
X192064417Y-97259999D01*
X186555583Y-97259999D01*
X186535300Y-97054066D01*
X186475232Y-96856046D01*
X186377685Y-96673550D01*
X186377682Y-96673546D01*
X186246410Y-96513589D01*
X186086453Y-96382317D01*
X186086451Y-96382316D01*
X186086450Y-96382315D01*
X185903954Y-96284768D01*
X185817729Y-96258612D01*
X185705932Y-96224699D01*
X185500000Y-96204417D01*
X185294067Y-96224699D01*
X185096046Y-96284768D01*
X184913546Y-96382317D01*
X184753589Y-96513589D01*
X184622317Y-96673546D01*
X184524768Y-96856046D01*
X184464699Y-97054067D01*
X184444417Y-97259999D01*
X159308062Y-97259999D01*
X159401445Y-97085292D01*
X159461742Y-96886518D01*
X159482102Y-96679800D01*
X159461742Y-96473082D01*
X159401445Y-96274308D01*
X159303527Y-96091117D01*
X159303526Y-96091115D01*
X159171752Y-95930547D01*
X159011184Y-95798773D01*
X158827993Y-95700855D01*
X158629216Y-95640557D01*
X158422500Y-95620198D01*
X158215783Y-95640557D01*
X158017006Y-95700855D01*
X157833815Y-95798773D01*
X157673247Y-95930547D01*
X157541473Y-96091115D01*
X157443555Y-96274306D01*
X157383257Y-96473083D01*
X157362898Y-96679800D01*
X139162102Y-96679800D01*
X139141742Y-96473082D01*
X139081445Y-96274308D01*
X138983527Y-96091117D01*
X138983526Y-96091115D01*
X138851752Y-95930547D01*
X138691184Y-95798773D01*
X138507993Y-95700855D01*
X138309216Y-95640557D01*
X138102500Y-95620198D01*
X137895783Y-95640557D01*
X137697006Y-95700855D01*
X137513815Y-95798773D01*
X137353247Y-95930547D01*
X137221473Y-96091115D01*
X137123555Y-96274306D01*
X137063257Y-96473083D01*
X137042898Y-96679800D01*
X136700500Y-96679800D01*
X136700500Y-94139800D01*
X137042898Y-94139800D01*
X137063257Y-94346516D01*
X137123555Y-94545293D01*
X137221473Y-94728484D01*
X137353247Y-94889052D01*
X137513815Y-95020826D01*
X137574582Y-95053307D01*
X137697008Y-95118745D01*
X137895782Y-95179042D01*
X138102500Y-95199402D01*
X138309218Y-95179042D01*
X138507992Y-95118745D01*
X138691183Y-95020827D01*
X138851752Y-94889052D01*
X138983527Y-94728483D01*
X139081445Y-94545292D01*
X139141742Y-94346518D01*
X139162102Y-94139800D01*
X157362898Y-94139800D01*
X157383257Y-94346516D01*
X157443555Y-94545293D01*
X157541473Y-94728484D01*
X157673247Y-94889052D01*
X157833815Y-95020826D01*
X157894582Y-95053307D01*
X158017008Y-95118745D01*
X158215782Y-95179042D01*
X158422500Y-95199402D01*
X158629218Y-95179042D01*
X158827992Y-95118745D01*
X159011183Y-95020827D01*
X159171752Y-94889052D01*
X159303527Y-94728483D01*
X159308061Y-94720000D01*
X184444417Y-94720000D01*
X184464699Y-94925932D01*
X184464700Y-94925934D01*
X184524768Y-95123954D01*
X184622315Y-95306450D01*
X184622317Y-95306453D01*
X184753589Y-95466410D01*
X184913546Y-95597682D01*
X184913550Y-95597685D01*
X185096046Y-95695232D01*
X185294066Y-95755300D01*
X185500000Y-95775583D01*
X185626487Y-95763125D01*
X192430426Y-95763125D01*
X192492610Y-95806666D01*
X192690843Y-95899103D01*
X192902110Y-95955712D01*
X193120000Y-95974775D01*
X193337889Y-95955712D01*
X193549156Y-95899103D01*
X193747385Y-95806667D01*
X193809571Y-95763124D01*
X193120000Y-95073553D01*
X192430426Y-95763125D01*
X185626487Y-95763125D01*
X185705934Y-95755300D01*
X185903954Y-95695232D01*
X186086450Y-95597685D01*
X186246410Y-95466410D01*
X186377685Y-95306450D01*
X186475232Y-95123954D01*
X186535300Y-94925934D01*
X186555583Y-94720000D01*
X186555583Y-94719999D01*
X191865224Y-94719999D01*
X191884287Y-94937889D01*
X191940896Y-95149156D01*
X192033334Y-95347389D01*
X192076873Y-95409572D01*
X192766447Y-94720000D01*
X193473553Y-94720000D01*
X194163124Y-95409571D01*
X194206667Y-95347385D01*
X194299103Y-95149156D01*
X194355712Y-94937889D01*
X194374775Y-94719999D01*
X194355712Y-94502110D01*
X194299103Y-94290843D01*
X194206667Y-94092614D01*
X194163123Y-94030428D01*
X193473553Y-94720000D01*
X192766447Y-94720000D01*
X192076874Y-94030427D01*
X192033333Y-94092611D01*
X191940896Y-94290843D01*
X191884287Y-94502110D01*
X191865224Y-94719999D01*
X186555583Y-94719999D01*
X186535300Y-94514066D01*
X186475232Y-94316046D01*
X186377685Y-94133550D01*
X186344090Y-94092614D01*
X186246410Y-93973589D01*
X186086453Y-93842317D01*
X186086451Y-93842316D01*
X186086450Y-93842315D01*
X185903954Y-93744768D01*
X185817729Y-93718612D01*
X185705932Y-93684699D01*
X185626481Y-93676874D01*
X192430427Y-93676874D01*
X193119999Y-94366446D01*
X193809572Y-93676873D01*
X193747389Y-93633334D01*
X193549156Y-93540896D01*
X193337889Y-93484287D01*
X193120000Y-93465224D01*
X192902110Y-93484287D01*
X192690843Y-93540896D01*
X192492611Y-93633333D01*
X192430427Y-93676874D01*
X185626481Y-93676874D01*
X185500000Y-93664417D01*
X185294067Y-93684699D01*
X185096046Y-93744768D01*
X184913546Y-93842317D01*
X184753589Y-93973589D01*
X184622317Y-94133546D01*
X184524768Y-94316046D01*
X184464699Y-94514067D01*
X184444417Y-94720000D01*
X159308061Y-94720000D01*
X159401445Y-94545292D01*
X159461742Y-94346518D01*
X159482102Y-94139800D01*
X159461742Y-93933082D01*
X159401445Y-93734308D01*
X159303527Y-93551117D01*
X159303526Y-93551115D01*
X159171752Y-93390547D01*
X159011184Y-93258773D01*
X158827993Y-93160855D01*
X158629216Y-93100557D01*
X158422500Y-93080198D01*
X158215783Y-93100557D01*
X158017006Y-93160855D01*
X157833815Y-93258773D01*
X157673247Y-93390547D01*
X157541473Y-93551115D01*
X157443555Y-93734306D01*
X157383257Y-93933083D01*
X157362898Y-94139800D01*
X139162102Y-94139800D01*
X139141742Y-93933082D01*
X139081445Y-93734308D01*
X138983527Y-93551117D01*
X138983526Y-93551115D01*
X138851752Y-93390547D01*
X138691184Y-93258773D01*
X138507993Y-93160855D01*
X138309216Y-93100557D01*
X138102500Y-93080198D01*
X137895783Y-93100557D01*
X137697006Y-93160855D01*
X137513815Y-93258773D01*
X137353247Y-93390547D01*
X137221473Y-93551115D01*
X137123555Y-93734306D01*
X137063257Y-93933083D01*
X137042898Y-94139800D01*
X136700500Y-94139800D01*
X136700500Y-91599799D01*
X137042898Y-91599799D01*
X137063257Y-91806516D01*
X137123555Y-92005293D01*
X137221473Y-92188484D01*
X137353247Y-92349052D01*
X137513815Y-92480826D01*
X137513817Y-92480827D01*
X137697008Y-92578745D01*
X137895782Y-92639042D01*
X138102500Y-92659402D01*
X138309218Y-92639042D01*
X138507992Y-92578745D01*
X138691183Y-92480827D01*
X138851752Y-92349052D01*
X138983527Y-92188483D01*
X139081445Y-92005292D01*
X139141742Y-91806518D01*
X139162102Y-91599800D01*
X139162102Y-91599799D01*
X157362898Y-91599799D01*
X157383257Y-91806516D01*
X157443555Y-92005293D01*
X157541473Y-92188484D01*
X157673247Y-92349052D01*
X157833815Y-92480826D01*
X157833817Y-92480827D01*
X158017008Y-92578745D01*
X158215782Y-92639042D01*
X158422500Y-92659402D01*
X158629218Y-92639042D01*
X158827992Y-92578745D01*
X159011183Y-92480827D01*
X159171752Y-92349052D01*
X159303527Y-92188483D01*
X159401445Y-92005292D01*
X159461742Y-91806518D01*
X159482102Y-91599800D01*
X159461742Y-91393082D01*
X159401445Y-91194308D01*
X159303527Y-91011117D01*
X159303526Y-91011115D01*
X159171752Y-90850547D01*
X159011184Y-90718773D01*
X158827993Y-90620855D01*
X158629216Y-90560557D01*
X158422500Y-90540198D01*
X158215783Y-90560557D01*
X158017006Y-90620855D01*
X157833815Y-90718773D01*
X157673247Y-90850547D01*
X157541473Y-91011115D01*
X157443555Y-91194306D01*
X157383257Y-91393083D01*
X157362898Y-91599799D01*
X139162102Y-91599799D01*
X139141742Y-91393082D01*
X139081445Y-91194308D01*
X138983527Y-91011117D01*
X138983526Y-91011115D01*
X138851752Y-90850547D01*
X138691184Y-90718773D01*
X138507993Y-90620855D01*
X138309216Y-90560557D01*
X138102500Y-90540198D01*
X137895783Y-90560557D01*
X137697006Y-90620855D01*
X137513815Y-90718773D01*
X137353247Y-90850547D01*
X137221473Y-91011115D01*
X137123555Y-91194306D01*
X137063257Y-91393083D01*
X137042898Y-91599799D01*
X136700500Y-91599799D01*
X136700500Y-91071880D01*
X136701804Y-91059180D01*
X136720222Y-90970427D01*
X136782755Y-90669106D01*
X136782755Y-90669100D01*
X136783096Y-90667458D01*
X136786550Y-90656241D01*
X136791201Y-90645014D01*
X136810293Y-90500000D01*
X136791201Y-90354986D01*
X136735228Y-90219854D01*
X136646187Y-90103813D01*
X136646185Y-90103812D01*
X136646185Y-90103811D01*
X136530148Y-90014772D01*
X136395012Y-89958798D01*
X136250000Y-89939707D01*
X136104987Y-89958798D01*
X135969852Y-90014772D01*
X135853812Y-90103812D01*
X135764772Y-90219852D01*
X135708798Y-90354987D01*
X135689707Y-90499999D01*
X95759699Y-90499999D01*
X96093871Y-89325370D01*
X96094320Y-89323871D01*
X96177201Y-89059799D01*
X137042898Y-89059799D01*
X137063257Y-89266516D01*
X137123555Y-89465293D01*
X137221473Y-89648484D01*
X137353247Y-89809052D01*
X137513815Y-89940826D01*
X137513817Y-89940827D01*
X137697008Y-90038745D01*
X137895782Y-90099042D01*
X138102500Y-90119402D01*
X138309218Y-90099042D01*
X138507992Y-90038745D01*
X138691183Y-89940827D01*
X138851752Y-89809052D01*
X138983527Y-89648483D01*
X139081445Y-89465292D01*
X139141742Y-89266518D01*
X139162102Y-89059800D01*
X139162102Y-89059799D01*
X157362898Y-89059799D01*
X157383257Y-89266516D01*
X157443555Y-89465293D01*
X157541473Y-89648484D01*
X157673247Y-89809052D01*
X157833815Y-89940826D01*
X157833817Y-89940827D01*
X158017008Y-90038745D01*
X158215782Y-90099042D01*
X158422500Y-90119402D01*
X158629218Y-90099042D01*
X158827992Y-90038745D01*
X159011183Y-89940827D01*
X159171752Y-89809052D01*
X159303527Y-89648483D01*
X159401445Y-89465292D01*
X159461742Y-89266518D01*
X159482102Y-89059800D01*
X159461742Y-88853082D01*
X159401445Y-88654308D01*
X159303527Y-88471117D01*
X159303526Y-88471115D01*
X159171752Y-88310547D01*
X159011184Y-88178773D01*
X158827993Y-88080855D01*
X158629216Y-88020557D01*
X158422500Y-88000198D01*
X158215783Y-88020557D01*
X158017006Y-88080855D01*
X157833815Y-88178773D01*
X157673247Y-88310547D01*
X157541473Y-88471115D01*
X157443555Y-88654306D01*
X157383257Y-88853083D01*
X157362898Y-89059799D01*
X139162102Y-89059799D01*
X139141742Y-88853082D01*
X139081445Y-88654308D01*
X138983527Y-88471117D01*
X138983526Y-88471115D01*
X138851752Y-88310547D01*
X138691184Y-88178773D01*
X138507993Y-88080855D01*
X138309216Y-88020557D01*
X138102500Y-88000198D01*
X137895783Y-88020557D01*
X137697006Y-88080855D01*
X137513815Y-88178773D01*
X137353247Y-88310547D01*
X137221473Y-88471115D01*
X137123555Y-88654306D01*
X137063257Y-88853083D01*
X137042898Y-89059799D01*
X96177201Y-89059799D01*
X96535278Y-87918901D01*
X96535798Y-87917321D01*
X96658946Y-87559042D01*
X97014451Y-86524755D01*
X97014982Y-86523277D01*
X97016283Y-86519799D01*
X137042898Y-86519799D01*
X137063257Y-86726516D01*
X137123555Y-86925293D01*
X137221473Y-87108484D01*
X137353247Y-87269052D01*
X137513815Y-87400826D01*
X137513817Y-87400827D01*
X137697008Y-87498745D01*
X137895782Y-87559042D01*
X138102500Y-87579402D01*
X138309218Y-87559042D01*
X138507992Y-87498745D01*
X138691183Y-87400827D01*
X138851752Y-87269052D01*
X138983527Y-87108483D01*
X139081445Y-86925292D01*
X139141742Y-86726518D01*
X139162102Y-86519800D01*
X139162102Y-86519799D01*
X157362898Y-86519799D01*
X157383257Y-86726516D01*
X157443555Y-86925293D01*
X157541473Y-87108484D01*
X157673247Y-87269052D01*
X157833815Y-87400826D01*
X157833817Y-87400827D01*
X158017008Y-87498745D01*
X158215782Y-87559042D01*
X158422500Y-87579402D01*
X158629218Y-87559042D01*
X158827992Y-87498745D01*
X159011183Y-87400827D01*
X159171752Y-87269052D01*
X159303527Y-87108483D01*
X159401445Y-86925292D01*
X159461742Y-86726518D01*
X159482102Y-86519800D01*
X159461742Y-86313082D01*
X159401445Y-86114308D01*
X159340346Y-86000000D01*
X185994417Y-86000000D01*
X186014699Y-86205932D01*
X186014700Y-86205934D01*
X186074768Y-86403954D01*
X186172315Y-86586450D01*
X186172317Y-86586453D01*
X186303589Y-86746410D01*
X186463546Y-86877682D01*
X186463550Y-86877685D01*
X186646046Y-86975232D01*
X186844066Y-87035300D01*
X187050000Y-87055583D01*
X187255934Y-87035300D01*
X187453954Y-86975232D01*
X187636450Y-86877685D01*
X187796410Y-86746410D01*
X187927685Y-86586450D01*
X188025232Y-86403954D01*
X188085300Y-86205934D01*
X188105583Y-86000000D01*
X190874417Y-86000000D01*
X190894699Y-86205932D01*
X190894700Y-86205934D01*
X190954768Y-86403954D01*
X191052315Y-86586450D01*
X191052317Y-86586453D01*
X191183589Y-86746410D01*
X191343546Y-86877682D01*
X191343550Y-86877685D01*
X191526046Y-86975232D01*
X191724066Y-87035300D01*
X191930000Y-87055583D01*
X192135934Y-87035300D01*
X192333954Y-86975232D01*
X192516450Y-86877685D01*
X192676410Y-86746410D01*
X192807685Y-86586450D01*
X192905232Y-86403954D01*
X192965300Y-86205934D01*
X192985583Y-86000000D01*
X192965300Y-85794066D01*
X192905232Y-85596046D01*
X192807685Y-85413550D01*
X192807682Y-85413546D01*
X192676410Y-85253589D01*
X192516453Y-85122317D01*
X192516451Y-85122316D01*
X192516450Y-85122315D01*
X192333954Y-85024768D01*
X192247729Y-84998612D01*
X192135932Y-84964699D01*
X191930000Y-84944417D01*
X191724067Y-84964699D01*
X191526046Y-85024768D01*
X191343546Y-85122317D01*
X191183589Y-85253589D01*
X191052317Y-85413546D01*
X190954768Y-85596046D01*
X190894699Y-85794067D01*
X190874417Y-86000000D01*
X188105583Y-86000000D01*
X188085300Y-85794066D01*
X188025232Y-85596046D01*
X187927685Y-85413550D01*
X187927682Y-85413546D01*
X187796410Y-85253589D01*
X187636453Y-85122317D01*
X187636451Y-85122316D01*
X187636450Y-85122315D01*
X187453954Y-85024768D01*
X187367729Y-84998612D01*
X187255932Y-84964699D01*
X187050000Y-84944417D01*
X186844067Y-84964699D01*
X186646046Y-85024768D01*
X186463546Y-85122317D01*
X186303589Y-85253589D01*
X186172317Y-85413546D01*
X186074768Y-85596046D01*
X186014699Y-85794067D01*
X185994417Y-86000000D01*
X159340346Y-86000000D01*
X159303527Y-85931117D01*
X159303526Y-85931115D01*
X159171752Y-85770547D01*
X159011184Y-85638773D01*
X158827993Y-85540855D01*
X158629216Y-85480557D01*
X158422500Y-85460198D01*
X158215783Y-85480557D01*
X158017006Y-85540855D01*
X157833815Y-85638773D01*
X157673247Y-85770547D01*
X157541473Y-85931115D01*
X157443555Y-86114306D01*
X157383257Y-86313083D01*
X157362898Y-86519799D01*
X139162102Y-86519799D01*
X139141742Y-86313082D01*
X139081445Y-86114308D01*
X138983527Y-85931117D01*
X138983526Y-85931115D01*
X138851752Y-85770547D01*
X138691184Y-85638773D01*
X138507993Y-85540855D01*
X138309216Y-85480557D01*
X138102500Y-85460198D01*
X137895783Y-85480557D01*
X137697006Y-85540855D01*
X137513815Y-85638773D01*
X137353247Y-85770547D01*
X137221473Y-85931115D01*
X137123555Y-86114306D01*
X137063257Y-86313083D01*
X137042898Y-86519799D01*
X97016283Y-86519799D01*
X97531000Y-85144086D01*
X97531564Y-85142637D01*
X98002732Y-83979799D01*
X137042898Y-83979799D01*
X137063257Y-84186516D01*
X137123555Y-84385293D01*
X137221473Y-84568484D01*
X137353247Y-84729052D01*
X137513815Y-84860826D01*
X137513817Y-84860827D01*
X137697008Y-84958745D01*
X137895782Y-85019042D01*
X138102500Y-85039402D01*
X138309218Y-85019042D01*
X138507992Y-84958745D01*
X138691183Y-84860827D01*
X138851752Y-84729052D01*
X138983527Y-84568483D01*
X139081445Y-84385292D01*
X139141742Y-84186518D01*
X139162102Y-83979800D01*
X139162102Y-83979799D01*
X157362898Y-83979799D01*
X157383257Y-84186516D01*
X157443555Y-84385293D01*
X157541473Y-84568484D01*
X157673247Y-84729052D01*
X157833815Y-84860826D01*
X157833817Y-84860827D01*
X158017008Y-84958745D01*
X158215782Y-85019042D01*
X158422500Y-85039402D01*
X158629218Y-85019042D01*
X158827992Y-84958745D01*
X159011183Y-84860827D01*
X159171752Y-84729052D01*
X159303527Y-84568483D01*
X159401445Y-84385292D01*
X159461742Y-84186518D01*
X159482102Y-83979800D01*
X159461742Y-83773082D01*
X159401445Y-83574308D01*
X159303527Y-83391117D01*
X159303526Y-83391115D01*
X159171752Y-83230547D01*
X159011184Y-83098773D01*
X158827993Y-83000855D01*
X158629216Y-82940557D01*
X158422500Y-82920198D01*
X158215783Y-82940557D01*
X158017006Y-83000855D01*
X157833815Y-83098773D01*
X157673247Y-83230547D01*
X157541473Y-83391115D01*
X157443555Y-83574306D01*
X157383257Y-83773083D01*
X157362898Y-83979799D01*
X139162102Y-83979799D01*
X139141742Y-83773082D01*
X139081445Y-83574308D01*
X138983527Y-83391117D01*
X138983526Y-83391115D01*
X138851752Y-83230547D01*
X138691184Y-83098773D01*
X138507993Y-83000855D01*
X138309216Y-82940557D01*
X138102500Y-82920198D01*
X137895783Y-82940557D01*
X137697006Y-83000855D01*
X137513815Y-83098773D01*
X137353247Y-83230547D01*
X137221473Y-83391115D01*
X137123555Y-83574306D01*
X137063257Y-83773083D01*
X137042898Y-83979799D01*
X98002732Y-83979799D01*
X98084576Y-83777810D01*
X98085218Y-83776287D01*
X98086618Y-83773083D01*
X98674774Y-82426935D01*
X98675405Y-82425542D01*
X99138117Y-81439799D01*
X137042898Y-81439799D01*
X137063257Y-81646516D01*
X137123555Y-81845293D01*
X137221473Y-82028484D01*
X137353247Y-82189052D01*
X137513815Y-82320826D01*
X137513817Y-82320827D01*
X137697008Y-82418745D01*
X137895782Y-82479042D01*
X138102500Y-82499402D01*
X138309218Y-82479042D01*
X138507992Y-82418745D01*
X138691183Y-82320827D01*
X138851752Y-82189052D01*
X138983527Y-82028483D01*
X139081445Y-81845292D01*
X139141742Y-81646518D01*
X139162102Y-81439800D01*
X139162102Y-81439799D01*
X157362898Y-81439799D01*
X157383257Y-81646516D01*
X157443555Y-81845293D01*
X157541473Y-82028484D01*
X157673247Y-82189052D01*
X157833815Y-82320826D01*
X157833817Y-82320827D01*
X158017008Y-82418745D01*
X158215782Y-82479042D01*
X158422500Y-82499402D01*
X158629218Y-82479042D01*
X158827992Y-82418745D01*
X159011183Y-82320827D01*
X159171752Y-82189052D01*
X159303527Y-82028483D01*
X159401445Y-81845292D01*
X159461742Y-81646518D01*
X159482102Y-81439800D01*
X159461742Y-81233082D01*
X159401445Y-81034308D01*
X159303527Y-80851117D01*
X159303526Y-80851115D01*
X159171752Y-80690547D01*
X159011184Y-80558773D01*
X158827993Y-80460855D01*
X158629216Y-80400557D01*
X158422500Y-80380198D01*
X158215783Y-80400557D01*
X158017006Y-80460855D01*
X157833815Y-80558773D01*
X157673247Y-80690547D01*
X157541473Y-80851115D01*
X157443555Y-81034306D01*
X157383257Y-81233083D01*
X157362898Y-81439799D01*
X139162102Y-81439799D01*
X139141742Y-81233082D01*
X139081445Y-81034308D01*
X138983527Y-80851117D01*
X138983526Y-80851115D01*
X138851752Y-80690547D01*
X138691184Y-80558773D01*
X138507993Y-80460855D01*
X138309216Y-80400557D01*
X138102500Y-80380198D01*
X137895783Y-80400557D01*
X137697006Y-80460855D01*
X137513815Y-80558773D01*
X137353247Y-80690547D01*
X137221473Y-80851115D01*
X137123555Y-81034306D01*
X137063257Y-81233083D01*
X137042898Y-81439799D01*
X99138117Y-81439799D01*
X99301145Y-81092491D01*
X99301821Y-81091099D01*
X99963255Y-79775395D01*
X99963974Y-79774012D01*
X100433387Y-78899799D01*
X137042898Y-78899799D01*
X137063257Y-79106516D01*
X137123555Y-79305293D01*
X137221473Y-79488484D01*
X137353247Y-79649052D01*
X137513815Y-79780826D01*
X137513817Y-79780827D01*
X137697008Y-79878745D01*
X137895782Y-79939042D01*
X138102500Y-79959402D01*
X138309218Y-79939042D01*
X138507992Y-79878745D01*
X138691183Y-79780827D01*
X138851752Y-79649052D01*
X138983527Y-79488483D01*
X139081445Y-79305292D01*
X139141742Y-79106518D01*
X139162102Y-78899800D01*
X139162102Y-78899799D01*
X157362898Y-78899799D01*
X157383257Y-79106516D01*
X157443555Y-79305293D01*
X157541473Y-79488484D01*
X157673247Y-79649052D01*
X157833815Y-79780826D01*
X157833817Y-79780827D01*
X158017008Y-79878745D01*
X158215782Y-79939042D01*
X158422500Y-79959402D01*
X158629218Y-79939042D01*
X158827992Y-79878745D01*
X159011183Y-79780827D01*
X159171752Y-79649052D01*
X159303527Y-79488483D01*
X159401445Y-79305292D01*
X159461742Y-79106518D01*
X159482102Y-78899800D01*
X159461742Y-78693082D01*
X159401445Y-78494308D01*
X159303527Y-78311117D01*
X159303526Y-78311115D01*
X159171752Y-78150547D01*
X159011184Y-78018773D01*
X158827993Y-77920855D01*
X158629216Y-77860557D01*
X158422500Y-77840198D01*
X158215783Y-77860557D01*
X158017006Y-77920855D01*
X157833815Y-78018773D01*
X157673247Y-78150547D01*
X157541473Y-78311115D01*
X157443555Y-78494306D01*
X157383257Y-78693083D01*
X157362898Y-78899799D01*
X139162102Y-78899799D01*
X139141742Y-78693082D01*
X139081445Y-78494308D01*
X138983527Y-78311117D01*
X138983526Y-78311115D01*
X138851752Y-78150547D01*
X138691184Y-78018773D01*
X138507993Y-77920855D01*
X138309216Y-77860557D01*
X138102500Y-77840198D01*
X137895783Y-77860557D01*
X137697006Y-77920855D01*
X137513815Y-78018773D01*
X137353247Y-78150547D01*
X137221473Y-78311115D01*
X137123555Y-78494306D01*
X137063257Y-78693083D01*
X137042898Y-78899799D01*
X100433387Y-78899799D01*
X100660602Y-78476644D01*
X100661407Y-78475195D01*
X100847169Y-78150548D01*
X101392698Y-77197151D01*
X101393540Y-77195725D01*
X102159044Y-75937787D01*
X102159868Y-75936475D01*
X102815769Y-74921296D01*
X116045717Y-74921296D01*
X116055802Y-75235789D01*
X116106021Y-75546410D01*
X116172713Y-75771117D01*
X116195549Y-75848059D01*
X116322916Y-76135786D01*
X116486028Y-76404855D01*
X116486030Y-76404858D01*
X116614948Y-76566516D01*
X116682215Y-76650866D01*
X116908246Y-76869765D01*
X117160415Y-77057963D01*
X117434578Y-77212370D01*
X117726233Y-77330447D01*
X117726238Y-77330449D01*
X118030601Y-77410263D01*
X118342673Y-77450500D01*
X118578573Y-77450500D01*
X118578580Y-77450500D01*
X118814008Y-77435385D01*
X119122860Y-77375236D01*
X119421485Y-77276086D01*
X119665320Y-77158661D01*
X137048000Y-77158661D01*
X137050474Y-77179995D01*
X137050915Y-77183791D01*
X137056825Y-77197176D01*
X137096294Y-77286566D01*
X137175733Y-77366005D01*
X137175734Y-77366005D01*
X137175735Y-77366006D01*
X137278509Y-77411385D01*
X137303635Y-77414300D01*
X138901364Y-77414299D01*
X138926491Y-77411385D01*
X139029265Y-77366006D01*
X139108706Y-77286565D01*
X139154085Y-77183791D01*
X139157000Y-77158665D01*
X139156999Y-76359799D01*
X157362898Y-76359799D01*
X157383257Y-76566516D01*
X157443555Y-76765293D01*
X157541473Y-76948484D01*
X157673247Y-77109052D01*
X157833815Y-77240826D01*
X158001483Y-77330447D01*
X158017008Y-77338745D01*
X158215782Y-77399042D01*
X158422500Y-77419402D01*
X158629218Y-77399042D01*
X158827992Y-77338745D01*
X159011183Y-77240827D01*
X159171752Y-77109052D01*
X159303527Y-76948483D01*
X159401445Y-76765292D01*
X159461742Y-76566518D01*
X159482102Y-76359800D01*
X159461742Y-76153082D01*
X159401445Y-75954308D01*
X159303527Y-75771117D01*
X159303526Y-75771115D01*
X159171752Y-75610547D01*
X159011184Y-75478773D01*
X158827993Y-75380855D01*
X158629216Y-75320557D01*
X158422500Y-75300198D01*
X158215783Y-75320557D01*
X158017006Y-75380855D01*
X157833815Y-75478773D01*
X157673247Y-75610547D01*
X157541473Y-75771115D01*
X157443555Y-75954306D01*
X157383257Y-76153083D01*
X157362898Y-76359799D01*
X139156999Y-76359799D01*
X139156999Y-75560936D01*
X139154085Y-75535809D01*
X139108706Y-75433035D01*
X139108705Y-75433034D01*
X139108705Y-75433033D01*
X139029266Y-75353594D01*
X138954443Y-75320557D01*
X138926491Y-75308215D01*
X138901365Y-75305300D01*
X138901361Y-75305300D01*
X137303638Y-75305300D01*
X137278509Y-75308215D01*
X137175733Y-75353594D01*
X137096294Y-75433033D01*
X137050915Y-75535808D01*
X137050915Y-75535809D01*
X137049686Y-75546408D01*
X137048000Y-75560938D01*
X137048000Y-77158661D01*
X119665320Y-77158661D01*
X119704979Y-77139562D01*
X119968687Y-76967907D01*
X120208280Y-76763939D01*
X120419822Y-76531007D01*
X120599842Y-76272936D01*
X120745381Y-75993964D01*
X120854052Y-75698670D01*
X120924069Y-75391905D01*
X120954283Y-75078704D01*
X120949235Y-74921296D01*
X176045717Y-74921296D01*
X176055802Y-75235789D01*
X176106021Y-75546410D01*
X176172713Y-75771117D01*
X176195549Y-75848059D01*
X176322916Y-76135786D01*
X176486028Y-76404855D01*
X176486030Y-76404858D01*
X176614948Y-76566516D01*
X176682215Y-76650866D01*
X176908246Y-76869765D01*
X177160415Y-77057963D01*
X177434578Y-77212370D01*
X177726233Y-77330447D01*
X177726238Y-77330449D01*
X178030601Y-77410263D01*
X178342673Y-77450500D01*
X178578573Y-77450500D01*
X178578580Y-77450500D01*
X178814008Y-77435385D01*
X179122860Y-77375236D01*
X179421485Y-77276086D01*
X179704979Y-77139562D01*
X179968687Y-76967907D01*
X180208280Y-76763939D01*
X180419822Y-76531007D01*
X180599842Y-76272936D01*
X180745381Y-75993964D01*
X180854052Y-75698670D01*
X180924069Y-75391905D01*
X180954283Y-75078704D01*
X180944198Y-74764211D01*
X180893979Y-74453590D01*
X180804451Y-74151941D01*
X180677084Y-73864216D01*
X180677083Y-73864213D01*
X180513971Y-73595144D01*
X180513970Y-73595142D01*
X180317786Y-73349135D01*
X180091754Y-73130235D01*
X179960252Y-73032093D01*
X179839584Y-72942036D01*
X179565421Y-72787629D01*
X179273766Y-72669552D01*
X178969397Y-72589736D01*
X178657327Y-72549500D01*
X178421420Y-72549500D01*
X178185992Y-72564615D01*
X178185988Y-72564615D01*
X178185984Y-72564616D01*
X177877143Y-72624763D01*
X177578519Y-72723912D01*
X177295014Y-72860441D01*
X177031312Y-73032093D01*
X176791721Y-73236059D01*
X176580178Y-73468992D01*
X176400157Y-73727065D01*
X176254618Y-74006036D01*
X176145949Y-74301326D01*
X176075930Y-74608097D01*
X176045717Y-74921293D01*
X176045717Y-74921296D01*
X120949235Y-74921296D01*
X120944198Y-74764211D01*
X120893979Y-74453590D01*
X120804451Y-74151941D01*
X120677084Y-73864216D01*
X120677083Y-73864213D01*
X120513971Y-73595144D01*
X120513970Y-73595142D01*
X120317786Y-73349135D01*
X120091754Y-73130235D01*
X119960252Y-73032093D01*
X119839584Y-72942036D01*
X119565421Y-72787629D01*
X119273766Y-72669552D01*
X118969397Y-72589736D01*
X118657327Y-72549500D01*
X118421420Y-72549500D01*
X118185992Y-72564615D01*
X118185988Y-72564615D01*
X118185984Y-72564616D01*
X117877143Y-72624763D01*
X117578519Y-72723912D01*
X117295014Y-72860441D01*
X117031312Y-73032093D01*
X116791721Y-73236059D01*
X116580178Y-73468992D01*
X116400157Y-73727065D01*
X116254618Y-74006036D01*
X116145949Y-74301326D01*
X116075930Y-74608097D01*
X116045717Y-74921293D01*
X116045717Y-74921296D01*
X102815769Y-74921296D01*
X102959013Y-74699589D01*
X102959891Y-74698270D01*
X103792043Y-73483419D01*
X103792992Y-73482074D01*
X104296695Y-72787630D01*
X104657583Y-72290080D01*
X104658538Y-72288801D01*
X105554930Y-71120549D01*
X105555966Y-71119237D01*
X106483464Y-69975624D01*
X106484542Y-69974330D01*
X107442583Y-68856054D01*
X107443633Y-68854862D01*
X108431487Y-67762779D01*
X108432539Y-67761647D01*
X108735415Y-67444433D01*
X127031127Y-67444433D01*
X127083732Y-67640755D01*
X127179866Y-67846915D01*
X127310337Y-68033248D01*
X127471183Y-68194094D01*
X127657516Y-68324565D01*
X127863676Y-68420699D01*
X128059998Y-68473304D01*
X128060000Y-68473304D01*
X128060000Y-67444432D01*
X128560000Y-67444432D01*
X128560000Y-68473304D01*
X128560001Y-68473304D01*
X128756323Y-68420699D01*
X128962483Y-68324565D01*
X129148816Y-68194094D01*
X129309662Y-68033248D01*
X129440133Y-67846916D01*
X129523356Y-67668444D01*
X129556925Y-67636774D01*
X129603075Y-67636774D01*
X129636644Y-67668444D01*
X129719866Y-67846916D01*
X129850337Y-68033248D01*
X130011183Y-68194094D01*
X130197516Y-68324565D01*
X130403676Y-68420699D01*
X130599998Y-68473304D01*
X130600000Y-68473304D01*
X130600000Y-67444432D01*
X131100000Y-67444432D01*
X131100000Y-68473304D01*
X131100001Y-68473304D01*
X131296323Y-68420699D01*
X131502483Y-68324565D01*
X131688816Y-68194094D01*
X131849662Y-68033248D01*
X131980133Y-67846915D01*
X132076267Y-67640755D01*
X132128872Y-67444433D01*
X132128872Y-67444432D01*
X131100000Y-67444432D01*
X130600000Y-67444432D01*
X128560000Y-67444432D01*
X128060000Y-67444432D01*
X127031128Y-67444432D01*
X127031127Y-67444433D01*
X108735415Y-67444433D01*
X109212817Y-66944430D01*
X127031127Y-66944430D01*
X127031128Y-66944432D01*
X128060000Y-66944432D01*
X128560000Y-66944432D01*
X130600000Y-66944432D01*
X131100000Y-66944432D01*
X132128872Y-66944432D01*
X132128872Y-66944430D01*
X132076267Y-66748108D01*
X131980133Y-66541948D01*
X131849662Y-66355615D01*
X131688816Y-66194769D01*
X131502483Y-66064298D01*
X131296323Y-65968164D01*
X131100001Y-65915559D01*
X131100000Y-65915560D01*
X131100000Y-66944432D01*
X130600000Y-66944432D01*
X130600000Y-65915560D01*
X130599998Y-65915559D01*
X130403676Y-65968164D01*
X130197516Y-66064298D01*
X130011183Y-66194769D01*
X129850337Y-66355615D01*
X129719866Y-66541948D01*
X129636644Y-66720419D01*
X129603075Y-66752089D01*
X129556925Y-66752089D01*
X129523356Y-66720419D01*
X129440133Y-66541948D01*
X129309662Y-66355615D01*
X129148816Y-66194769D01*
X128962483Y-66064298D01*
X128756323Y-65968164D01*
X128560001Y-65915559D01*
X128560000Y-65915560D01*
X128560000Y-66944432D01*
X128060000Y-66944432D01*
X128060000Y-65915560D01*
X128059998Y-65915559D01*
X127863676Y-65968164D01*
X127657516Y-66064298D01*
X127471183Y-66194769D01*
X127310337Y-66355615D01*
X127179866Y-66541948D01*
X127083732Y-66748108D01*
X127031127Y-66944430D01*
X109212817Y-66944430D01*
X109449484Y-66696559D01*
X109450587Y-66695435D01*
X110495799Y-65658204D01*
X110496989Y-65657053D01*
X111569762Y-64648373D01*
X111570943Y-64647291D01*
X112670527Y-63667868D01*
X112671783Y-63666780D01*
X113797378Y-62717328D01*
X113798583Y-62716339D01*
X114949375Y-61797546D01*
X114950584Y-61796607D01*
X116125773Y-60909119D01*
X116126992Y-60908223D01*
X117325615Y-60052764D01*
X117326926Y-60051855D01*
X118035497Y-59574432D01*
X127204784Y-59574432D01*
X127223602Y-59777513D01*
X127279417Y-59973681D01*
X127370326Y-60156252D01*
X127370327Y-60156253D01*
X127493236Y-60319011D01*
X127643959Y-60456413D01*
X127817363Y-60563780D01*
X127817366Y-60563781D01*
X127979616Y-60626637D01*
X128007544Y-60637456D01*
X128208024Y-60674932D01*
X128411975Y-60674932D01*
X128411976Y-60674932D01*
X128612456Y-60637456D01*
X128802637Y-60563780D01*
X128976041Y-60456413D01*
X129016760Y-60419293D01*
X129749500Y-60419293D01*
X129751974Y-60440627D01*
X129752415Y-60444423D01*
X129757709Y-60456413D01*
X129797794Y-60547198D01*
X129877233Y-60626637D01*
X129877234Y-60626637D01*
X129877235Y-60626638D01*
X129980009Y-60672017D01*
X130005135Y-60674932D01*
X131694864Y-60674931D01*
X131719991Y-60672017D01*
X131822765Y-60626638D01*
X131902206Y-60547197D01*
X131947585Y-60444423D01*
X131950500Y-60419297D01*
X131950499Y-58729568D01*
X131947585Y-58704441D01*
X131902206Y-58601667D01*
X131902205Y-58601666D01*
X131902205Y-58601665D01*
X131822766Y-58522226D01*
X131771378Y-58499536D01*
X131719991Y-58476847D01*
X131694865Y-58473932D01*
X131694861Y-58473932D01*
X130005138Y-58473932D01*
X129980009Y-58476847D01*
X129877233Y-58522226D01*
X129797794Y-58601665D01*
X129752415Y-58704441D01*
X129749500Y-58729570D01*
X129749500Y-60419293D01*
X129016760Y-60419293D01*
X129126764Y-60319011D01*
X129249673Y-60156253D01*
X129340582Y-59973682D01*
X129396397Y-59777515D01*
X129415215Y-59574432D01*
X129396397Y-59371349D01*
X129340582Y-59175182D01*
X129249673Y-58992611D01*
X129126764Y-58829853D01*
X128976041Y-58692451D01*
X128802637Y-58585084D01*
X128802634Y-58585083D01*
X128802633Y-58585082D01*
X128612458Y-58511408D01*
X128478802Y-58486424D01*
X128411976Y-58473932D01*
X128208024Y-58473932D01*
X128157904Y-58483300D01*
X128007541Y-58511408D01*
X127817366Y-58585082D01*
X127643957Y-58692452D01*
X127493236Y-58829852D01*
X127370326Y-58992611D01*
X127279417Y-59175182D01*
X127223602Y-59371350D01*
X127204784Y-59574432D01*
X118035497Y-59574432D01*
X118548154Y-59229013D01*
X118549456Y-59228160D01*
X119792467Y-58438493D01*
X119793750Y-58437702D01*
X121057575Y-57681825D01*
X121058920Y-57681045D01*
X122342625Y-56959516D01*
X122344033Y-56958750D01*
X123261752Y-56474999D01*
X136681936Y-56474999D01*
X136702150Y-56706051D01*
X136762179Y-56930077D01*
X136860199Y-57140281D01*
X136993229Y-57330269D01*
X137157230Y-57494270D01*
X137290260Y-57587418D01*
X137347219Y-57627301D01*
X137557421Y-57725320D01*
X137632097Y-57745329D01*
X137781448Y-57785349D01*
X137954627Y-57800500D01*
X137954629Y-57800500D01*
X138070371Y-57800500D01*
X138070373Y-57800500D01*
X138243551Y-57785349D01*
X138318226Y-57765339D01*
X138467579Y-57725320D01*
X138677781Y-57627301D01*
X138867769Y-57494270D01*
X139031770Y-57330269D01*
X139164801Y-57140282D01*
X139262820Y-56930079D01*
X139322849Y-56706050D01*
X139343063Y-56475000D01*
X139343063Y-56474999D01*
X157181936Y-56474999D01*
X157202150Y-56706051D01*
X157262179Y-56930077D01*
X157360199Y-57140281D01*
X157493229Y-57330269D01*
X157657230Y-57494270D01*
X157790260Y-57587418D01*
X157847219Y-57627301D01*
X158057421Y-57725320D01*
X158132097Y-57745329D01*
X158281448Y-57785349D01*
X158454627Y-57800500D01*
X158454629Y-57800500D01*
X158570371Y-57800500D01*
X158570373Y-57800500D01*
X158743551Y-57785349D01*
X158818226Y-57765339D01*
X158967579Y-57725320D01*
X159177781Y-57627301D01*
X159367769Y-57494270D01*
X159531770Y-57330269D01*
X159664801Y-57140282D01*
X159762820Y-56930079D01*
X159822849Y-56706050D01*
X159843063Y-56475000D01*
X159822849Y-56243950D01*
X159822849Y-56243948D01*
X159762820Y-56019922D01*
X159762820Y-56019921D01*
X159664801Y-55809719D01*
X159624918Y-55752761D01*
X159531770Y-55619730D01*
X159367769Y-55455729D01*
X159177781Y-55322699D01*
X158967577Y-55224679D01*
X158743551Y-55164650D01*
X158570373Y-55149500D01*
X158570371Y-55149500D01*
X158454629Y-55149500D01*
X158454627Y-55149500D01*
X158281448Y-55164650D01*
X158057422Y-55224679D01*
X157847218Y-55322699D01*
X157657230Y-55455729D01*
X157493229Y-55619730D01*
X157360199Y-55809717D01*
X157262179Y-56019922D01*
X157202150Y-56243948D01*
X157181936Y-56474999D01*
X139343063Y-56474999D01*
X139322849Y-56243950D01*
X139322849Y-56243948D01*
X139262820Y-56019922D01*
X139262820Y-56019921D01*
X139164801Y-55809719D01*
X139124918Y-55752761D01*
X139031770Y-55619730D01*
X138867769Y-55455729D01*
X138677781Y-55322699D01*
X138467577Y-55224679D01*
X138243551Y-55164650D01*
X138070373Y-55149500D01*
X138070371Y-55149500D01*
X137954629Y-55149500D01*
X137954627Y-55149500D01*
X137781448Y-55164650D01*
X137557422Y-55224679D01*
X137347218Y-55322699D01*
X137157230Y-55455729D01*
X136993229Y-55619730D01*
X136860199Y-55809717D01*
X136762179Y-56019922D01*
X136702150Y-56243948D01*
X136681936Y-56474999D01*
X123261752Y-56474999D01*
X123646654Y-56272108D01*
X123648144Y-56271349D01*
X123703702Y-56243950D01*
X124968823Y-55620044D01*
X124970191Y-55619392D01*
X126307993Y-55003889D01*
X126309460Y-55003238D01*
X127663312Y-54424030D01*
X127664782Y-54423424D01*
X129033796Y-53880891D01*
X129035249Y-53880338D01*
X130418370Y-53374900D01*
X130419844Y-53374384D01*
X131816061Y-52906407D01*
X131817600Y-52905913D01*
X133225958Y-52475720D01*
X133227431Y-52475292D01*
X134646900Y-52083197D01*
X134648401Y-52082805D01*
X136077830Y-51729127D01*
X136079388Y-51728763D01*
X137517857Y-51413725D01*
X137519456Y-51413398D01*
X138965848Y-51137246D01*
X138967426Y-51136967D01*
X140420829Y-50899876D01*
X140422355Y-50899649D01*
X141881537Y-50701821D01*
X141883167Y-50701622D01*
X143347185Y-50543184D01*
X143348703Y-50543040D01*
X144816524Y-50424105D01*
X144818092Y-50423999D01*
X146288485Y-50344667D01*
X146290130Y-50344600D01*
X147762069Y-50304921D01*
X147763754Y-50304898D01*
X149236246Y-50304898D01*
X149237930Y-50304921D01*
G37*
%TD.AperFunction*%
%TD*%
%TA.AperFunction,Conductor*%
%TO.N,SPI_SCLK*%
G36*
X185213876Y-101653628D02*
G01*
X185217758Y-101658570D01*
X185499133Y-102335509D01*
X185500029Y-102340000D01*
X185499133Y-102344491D01*
X185217758Y-103021429D01*
X185213876Y-103026371D01*
X185207996Y-103028591D01*
X185201816Y-103027449D01*
X184541512Y-102704692D01*
X184006560Y-102443206D01*
X184001775Y-102438893D01*
X184000000Y-102432697D01*
X184000000Y-102247303D01*
X184001775Y-102241107D01*
X184006560Y-102236793D01*
X185201817Y-101652549D01*
X185207996Y-101651408D01*
X185213876Y-101653628D01*
G37*
%TD.AperFunction*%
%TD*%
%TA.AperFunction,Conductor*%
%TO.N,RECORD_STATUS*%
G36*
X129261290Y-104290042D02*
G01*
X129459957Y-104488709D01*
X129463323Y-104495787D01*
X129461466Y-104503401D01*
X129240882Y-104839517D01*
X129234563Y-104844274D01*
X129226662Y-104843924D01*
X129003823Y-104752564D01*
X128999988Y-104750011D01*
X128997435Y-104746176D01*
X128906075Y-104523337D01*
X128905725Y-104515436D01*
X128910481Y-104509118D01*
X129246600Y-104288532D01*
X129254212Y-104286676D01*
X129261290Y-104290042D01*
G37*
%TD.AperFunction*%
%TD*%
%TA.AperFunction,Conductor*%
%TO.N,SPI_CS_FRAM0*%
G36*
X103951856Y-105204635D02*
G01*
X103956388Y-105208817D01*
X104546103Y-106151725D01*
X104547808Y-106159251D01*
X104544456Y-106166202D01*
X104411608Y-106299050D01*
X104406942Y-106301907D01*
X103956814Y-106447791D01*
X103950471Y-106448037D01*
X103944934Y-106444934D01*
X103209382Y-105709382D01*
X103206179Y-105703388D01*
X103206848Y-105696626D01*
X103211160Y-105691377D01*
X103939977Y-105205286D01*
X103945827Y-105203339D01*
X103951856Y-105204635D01*
G37*
%TD.AperFunction*%
%TD*%
%TA.AperFunction,Conductor*%
%TO.N,SPI_CS_FRAM1*%
G36*
X128627928Y-110524387D02*
G01*
X129001954Y-110647355D01*
X129007777Y-110651609D01*
X129010000Y-110658470D01*
X129010000Y-110841530D01*
X129007777Y-110848391D01*
X129001954Y-110852645D01*
X128607856Y-110982211D01*
X128599341Y-110981739D01*
X128593409Y-110975612D01*
X128500888Y-110754512D01*
X128499982Y-110750000D01*
X128500888Y-110745487D01*
X128593409Y-110524386D01*
X128599341Y-110518260D01*
X128607856Y-110517788D01*
X128627928Y-110524387D01*
G37*
%TD.AperFunction*%
%TD*%
%TA.AperFunction,Conductor*%
%TO.N,SPI_MISO*%
G36*
X158722768Y-98530591D02*
G01*
X159927112Y-99290263D01*
X159931598Y-99295492D01*
X159932364Y-99302340D01*
X159929142Y-99308431D01*
X159799632Y-99437941D01*
X159796060Y-99440382D01*
X158721976Y-99911608D01*
X158715910Y-99912514D01*
X158710220Y-99910228D01*
X158706469Y-99905378D01*
X158423653Y-99223578D01*
X158422761Y-99219093D01*
X158423656Y-99214610D01*
X158705722Y-98535995D01*
X158709949Y-98530811D01*
X158716326Y-98528789D01*
X158722768Y-98530591D01*
G37*
%TD.AperFunction*%
%TD*%
%TA.AperFunction,Conductor*%
%TO.N,I2C_SDA*%
G36*
X151754512Y-118500888D02*
G01*
X151975612Y-118593409D01*
X151981739Y-118599341D01*
X151982211Y-118607856D01*
X151852645Y-119001954D01*
X151848391Y-119007777D01*
X151841530Y-119010000D01*
X151658470Y-119010000D01*
X151651609Y-119007777D01*
X151647355Y-119001954D01*
X151517788Y-118607856D01*
X151518260Y-118599341D01*
X151524386Y-118593409D01*
X151745487Y-118500888D01*
X151750000Y-118499982D01*
X151754512Y-118500888D01*
G37*
%TD.AperFunction*%
%TD*%
%TA.AperFunction,Conductor*%
%TO.N,RECORD_STATUS*%
G36*
X134650801Y-101517476D02*
G01*
X134656140Y-101523311D01*
X134749110Y-101745483D01*
X134750017Y-101749999D01*
X134749110Y-101754515D01*
X134656140Y-101976688D01*
X134650801Y-101982523D01*
X134642970Y-101983628D01*
X134337150Y-101920161D01*
X134249322Y-101901934D01*
X134242625Y-101897864D01*
X134240000Y-101890479D01*
X134240000Y-101609521D01*
X134242625Y-101602136D01*
X134249322Y-101598065D01*
X134642970Y-101516371D01*
X134650801Y-101517476D01*
G37*
%TD.AperFunction*%
%TD*%
%TA.AperFunction,Conductor*%
%TO.N,SPI_SCLK*%
G36*
X107240465Y-108412068D02*
G01*
X107427515Y-108782353D01*
X107428625Y-108789478D01*
X107425345Y-108795901D01*
X107295901Y-108925345D01*
X107289478Y-108928625D01*
X107282353Y-108927515D01*
X107225845Y-108898970D01*
X106912067Y-108740464D01*
X106906381Y-108734110D01*
X106906516Y-108725586D01*
X106997437Y-108503819D01*
X106999988Y-108499988D01*
X107003819Y-108497437D01*
X107225586Y-108406516D01*
X107234110Y-108406381D01*
X107240465Y-108412068D01*
G37*
%TD.AperFunction*%
%TD*%
%TA.AperFunction,Conductor*%
%TO.N,SPI_CS_FRAM0*%
G36*
X128627928Y-111524387D02*
G01*
X129001954Y-111647355D01*
X129007777Y-111651609D01*
X129010000Y-111658470D01*
X129010000Y-111841530D01*
X129007777Y-111848391D01*
X129001954Y-111852645D01*
X128607856Y-111982211D01*
X128599341Y-111981739D01*
X128593409Y-111975612D01*
X128500888Y-111754512D01*
X128499982Y-111750000D01*
X128500888Y-111745487D01*
X128593409Y-111524386D01*
X128599341Y-111518260D01*
X128607856Y-111517788D01*
X128627928Y-111524387D01*
G37*
%TD.AperFunction*%
%TD*%
%TA.AperFunction,Conductor*%
%TO.N,SPI_CS_FRAM0*%
G36*
X132024413Y-109156516D02*
G01*
X132246177Y-109247435D01*
X132250011Y-109249988D01*
X132252564Y-109253823D01*
X132343482Y-109475584D01*
X132343618Y-109484110D01*
X132337931Y-109490465D01*
X131967646Y-109677515D01*
X131960521Y-109678625D01*
X131954098Y-109675345D01*
X131824654Y-109545901D01*
X131821374Y-109539478D01*
X131822483Y-109532355D01*
X132009536Y-109162065D01*
X132015889Y-109156381D01*
X132024413Y-109156516D01*
G37*
%TD.AperFunction*%
%TD*%
%TA.AperFunction,Conductor*%
%TO.N,SPI_CS_FRAM0*%
G36*
X117900658Y-112268260D02*
G01*
X117906590Y-112274387D01*
X117999110Y-112495484D01*
X118000017Y-112500000D01*
X117999110Y-112504516D01*
X117906590Y-112725612D01*
X117900658Y-112731739D01*
X117892143Y-112732211D01*
X117498046Y-112602645D01*
X117492223Y-112598391D01*
X117490000Y-112591530D01*
X117490000Y-112408470D01*
X117492223Y-112401609D01*
X117498046Y-112397355D01*
X117648069Y-112348031D01*
X117892144Y-112267788D01*
X117900658Y-112268260D01*
G37*
%TD.AperFunction*%
%TD*%
%TA.AperFunction,Conductor*%
%TO.N,SPI_MISO*%
G36*
X177900658Y-102768260D02*
G01*
X177906590Y-102774387D01*
X177999110Y-102995484D01*
X178000017Y-103000000D01*
X177999110Y-103004516D01*
X177906590Y-103225612D01*
X177900658Y-103231739D01*
X177892143Y-103232211D01*
X177498046Y-103102645D01*
X177492223Y-103098391D01*
X177490000Y-103091530D01*
X177490000Y-102908470D01*
X177492223Y-102901609D01*
X177498046Y-102897355D01*
X177648069Y-102848031D01*
X177892144Y-102767788D01*
X177900658Y-102768260D01*
G37*
%TD.AperFunction*%
%TD*%
%TA.AperFunction,Conductor*%
%TO.N,SPI_MOSI*%
G36*
X158722212Y-103608659D02*
G01*
X159496815Y-103987624D01*
X159923942Y-104196592D01*
X159928726Y-104200908D01*
X159930500Y-104207102D01*
X159930500Y-104392498D01*
X159928726Y-104398692D01*
X159923942Y-104403008D01*
X158722215Y-104990939D01*
X158716034Y-104992083D01*
X158710152Y-104989863D01*
X158706269Y-104984920D01*
X158423366Y-104304290D01*
X158422470Y-104299799D01*
X158423364Y-104295313D01*
X158706270Y-103614677D01*
X158710152Y-103609736D01*
X158716034Y-103607516D01*
X158722212Y-103608659D01*
G37*
%TD.AperFunction*%
%TD*%
%TA.AperFunction,Conductor*%
%TO.N,SPI_SCLK*%
G36*
X110533876Y-110093628D02*
G01*
X110537758Y-110098570D01*
X110819133Y-110775509D01*
X110820029Y-110780000D01*
X110819133Y-110784491D01*
X110537758Y-111461429D01*
X110533876Y-111466371D01*
X110527996Y-111468591D01*
X110521816Y-111467449D01*
X109861512Y-111144692D01*
X109326560Y-110883206D01*
X109321775Y-110878893D01*
X109320000Y-110872697D01*
X109320000Y-110687303D01*
X109321775Y-110681107D01*
X109326560Y-110676793D01*
X110521817Y-110092549D01*
X110527996Y-110091408D01*
X110533876Y-110093628D01*
G37*
%TD.AperFunction*%
%TD*%
%TA.AperFunction,Conductor*%
%TO.N,SD_STATUS*%
G36*
X138095983Y-106088213D02*
G01*
X138100744Y-106092523D01*
X138102512Y-106098697D01*
X138103202Y-106835645D01*
X138102311Y-106840136D01*
X138099764Y-106843940D01*
X137578070Y-107364252D01*
X137572623Y-107367324D01*
X137566372Y-107367152D01*
X137561103Y-107363785D01*
X136715994Y-106422618D01*
X136713004Y-106414489D01*
X136716426Y-106406531D01*
X136917760Y-106205197D01*
X136924883Y-106201827D01*
X138089667Y-106087064D01*
X138095983Y-106088213D01*
G37*
%TD.AperFunction*%
%TD*%
%TA.AperFunction,Conductor*%
%TO.N,SPI_CS_FRAM1*%
G36*
X132024413Y-107906516D02*
G01*
X132246177Y-107997435D01*
X132250011Y-107999988D01*
X132252564Y-108003823D01*
X132343482Y-108225584D01*
X132343618Y-108234110D01*
X132337931Y-108240465D01*
X131967646Y-108427515D01*
X131960521Y-108428625D01*
X131954098Y-108425345D01*
X131824654Y-108295901D01*
X131821374Y-108289478D01*
X131822483Y-108282355D01*
X132009536Y-107912065D01*
X132015889Y-107906381D01*
X132024413Y-107906516D01*
G37*
%TD.AperFunction*%
%TD*%
%TA.AperFunction,Conductor*%
%TO.N,SPI_CS_MCP*%
G36*
X172400658Y-121518757D02*
G01*
X172406590Y-121524884D01*
X172499110Y-121745981D01*
X172500017Y-121750497D01*
X172499110Y-121755013D01*
X172406590Y-121976109D01*
X172400658Y-121982236D01*
X172392143Y-121982708D01*
X171998046Y-121853142D01*
X171992223Y-121848888D01*
X171990000Y-121842027D01*
X171990000Y-121658967D01*
X171992223Y-121652106D01*
X171998046Y-121647852D01*
X172148069Y-121598528D01*
X172392144Y-121518285D01*
X172400658Y-121518757D01*
G37*
%TD.AperFunction*%
%TD*%
%TA.AperFunction,Conductor*%
%TO.N,SPI_CS_SD*%
G36*
X121598391Y-111992223D02*
G01*
X121602645Y-111998046D01*
X121732211Y-112392143D01*
X121731739Y-112400658D01*
X121725612Y-112406590D01*
X121504516Y-112499110D01*
X121500000Y-112500017D01*
X121495484Y-112499110D01*
X121274387Y-112406590D01*
X121268260Y-112400658D01*
X121267788Y-112392143D01*
X121397355Y-111998046D01*
X121401609Y-111992223D01*
X121408470Y-111990000D01*
X121591530Y-111990000D01*
X121598391Y-111992223D01*
G37*
%TD.AperFunction*%
%TD*%
%TA.AperFunction,Conductor*%
%TO.N,I2C_SCL*%
G36*
X149504512Y-118500888D02*
G01*
X149725612Y-118593409D01*
X149731739Y-118599341D01*
X149732211Y-118607856D01*
X149602645Y-119001954D01*
X149598391Y-119007777D01*
X149591530Y-119010000D01*
X149408470Y-119010000D01*
X149401609Y-119007777D01*
X149397355Y-119001954D01*
X149267788Y-118607856D01*
X149268260Y-118599341D01*
X149274386Y-118593409D01*
X149495487Y-118500888D01*
X149500000Y-118499982D01*
X149504512Y-118500888D01*
G37*
%TD.AperFunction*%
%TD*%
%TA.AperFunction,Conductor*%
%TO.N,I2C_SCL*%
G36*
X149598391Y-122492223D02*
G01*
X149602645Y-122498046D01*
X149732211Y-122892143D01*
X149731739Y-122900658D01*
X149725612Y-122906590D01*
X149504516Y-122999110D01*
X149500000Y-123000017D01*
X149495484Y-122999110D01*
X149274387Y-122906590D01*
X149268260Y-122900658D01*
X149267788Y-122892143D01*
X149397355Y-122498046D01*
X149401609Y-122492223D01*
X149408470Y-122490000D01*
X149591530Y-122490000D01*
X149598391Y-122492223D01*
G37*
%TD.AperFunction*%
%TD*%
%TA.AperFunction,Conductor*%
%TO.N,SPI_CS_FRAM1*%
G36*
X103958050Y-117205677D02*
G01*
X104511310Y-117595867D01*
X104512840Y-117597155D01*
X104645909Y-117730224D01*
X104649327Y-117738035D01*
X104646536Y-117746091D01*
X103957424Y-118553742D01*
X103949580Y-118557800D01*
X103941133Y-118555218D01*
X103673509Y-118337137D01*
X103209332Y-117958888D01*
X103205655Y-117953606D01*
X103205328Y-117947176D01*
X103208450Y-117941549D01*
X103943035Y-117206964D01*
X103950307Y-117203581D01*
X103958050Y-117205677D01*
G37*
%TD.AperFunction*%
%TD*%
%TA.AperFunction,Conductor*%
%TO.N,SPI_CS_MCP*%
G36*
X158722460Y-106149429D02*
G01*
X159960928Y-106825733D01*
X159965844Y-106830890D01*
X159966858Y-106837942D01*
X159963593Y-106844275D01*
X159834563Y-106973305D01*
X159831527Y-106975494D01*
X158722274Y-107530782D01*
X158716066Y-107531980D01*
X158710141Y-107529771D01*
X158706230Y-107524803D01*
X158423942Y-106844275D01*
X158423653Y-106843578D01*
X158422761Y-106839093D01*
X158423656Y-106834610D01*
X158706050Y-106155205D01*
X158710074Y-106150163D01*
X158716162Y-106148019D01*
X158722460Y-106149429D01*
G37*
%TD.AperFunction*%
%TD*%
%TA.AperFunction,Conductor*%
%TO.N,SD_STATUS*%
G36*
X136254512Y-90500888D02*
G01*
X136476688Y-90593859D01*
X136482523Y-90599198D01*
X136483628Y-90607029D01*
X136401935Y-91000677D01*
X136397864Y-91007375D01*
X136390479Y-91010000D01*
X136109521Y-91010000D01*
X136102136Y-91007375D01*
X136098065Y-91000677D01*
X136016371Y-90607029D01*
X136017476Y-90599198D01*
X136023309Y-90593860D01*
X136245487Y-90500888D01*
X136250000Y-90499982D01*
X136254512Y-90500888D01*
G37*
%TD.AperFunction*%
%TD*%
%TA.AperFunction,Conductor*%
%TO.N,MEMORY_POWER_CONTROL*%
G36*
X137815051Y-108690812D02*
G01*
X137819278Y-108695998D01*
X138101342Y-109374606D01*
X138102238Y-109379093D01*
X138101345Y-109383580D01*
X137818318Y-110065889D01*
X137812130Y-110072155D01*
X137803326Y-110072332D01*
X136783643Y-109681706D01*
X136779555Y-109679053D01*
X136579538Y-109479036D01*
X136576316Y-109472946D01*
X136577081Y-109466098D01*
X136581564Y-109460871D01*
X137802233Y-108690593D01*
X137808673Y-108688791D01*
X137815051Y-108690812D01*
G37*
%TD.AperFunction*%
%TD*%
%TA.AperFunction,Conductor*%
%TO.N,SPI_MOSI*%
G36*
X112132461Y-125222642D02*
G01*
X112136998Y-125225456D01*
X112267204Y-125355662D01*
X112270339Y-125361340D01*
X112269969Y-125367815D01*
X112266207Y-125373098D01*
X111358490Y-126093850D01*
X111350553Y-126096368D01*
X111342952Y-126092971D01*
X110824839Y-125576238D01*
X110821627Y-125570241D01*
X110822293Y-125563472D01*
X111102826Y-124887182D01*
X111108795Y-124881013D01*
X111117367Y-124880579D01*
X112132461Y-125222642D01*
G37*
%TD.AperFunction*%
%TD*%
%TA.AperFunction,Conductor*%
%TO.N,SPI_CS_SD*%
G36*
X121504512Y-103750888D02*
G01*
X121725612Y-103843409D01*
X121731739Y-103849341D01*
X121732211Y-103857856D01*
X121602645Y-104251954D01*
X121598391Y-104257777D01*
X121591530Y-104260000D01*
X121408470Y-104260000D01*
X121401609Y-104257777D01*
X121397355Y-104251954D01*
X121267788Y-103857856D01*
X121268260Y-103849341D01*
X121274386Y-103843409D01*
X121495487Y-103750888D01*
X121500000Y-103749982D01*
X121504512Y-103750888D01*
G37*
%TD.AperFunction*%
%TD*%
%TA.AperFunction,Conductor*%
%TO.N,SPI_MOSI*%
G36*
X185213876Y-104193628D02*
G01*
X185217758Y-104198570D01*
X185499133Y-104875509D01*
X185500029Y-104880000D01*
X185499133Y-104884491D01*
X185217758Y-105561429D01*
X185213876Y-105566371D01*
X185207996Y-105568591D01*
X185201816Y-105567449D01*
X184541512Y-105244692D01*
X184006560Y-104983206D01*
X184001775Y-104978893D01*
X184000000Y-104972697D01*
X184000000Y-104787303D01*
X184001775Y-104781107D01*
X184006560Y-104776793D01*
X185201817Y-104192549D01*
X185207996Y-104191408D01*
X185213876Y-104193628D01*
G37*
%TD.AperFunction*%
%TD*%
%TA.AperFunction,Conductor*%
%TO.N,SPI_MOSI*%
G36*
X113254512Y-116500888D02*
G01*
X113475612Y-116593409D01*
X113481739Y-116599341D01*
X113482211Y-116607856D01*
X113352645Y-117001954D01*
X113348391Y-117007777D01*
X113341530Y-117010000D01*
X113158470Y-117010000D01*
X113151609Y-117007777D01*
X113147355Y-117001954D01*
X113017788Y-116607856D01*
X113018260Y-116599341D01*
X113024386Y-116593409D01*
X113245487Y-116500888D01*
X113250000Y-116499982D01*
X113254512Y-116500888D01*
G37*
%TD.AperFunction*%
%TD*%
%TA.AperFunction,Conductor*%
%TO.N,SPI_SCLK*%
G36*
X158722212Y-101068659D02*
G01*
X159496815Y-101447624D01*
X159923942Y-101656592D01*
X159928726Y-101660908D01*
X159930500Y-101667102D01*
X159930500Y-101852498D01*
X159928726Y-101858692D01*
X159923942Y-101863008D01*
X158722215Y-102450939D01*
X158716034Y-102452083D01*
X158710152Y-102449863D01*
X158706269Y-102444920D01*
X158423366Y-101764290D01*
X158422470Y-101759799D01*
X158423364Y-101755313D01*
X158706270Y-101074677D01*
X158710152Y-101069736D01*
X158716034Y-101067516D01*
X158722212Y-101068659D01*
G37*
%TD.AperFunction*%
%TD*%
%TA.AperFunction,Conductor*%
%TO.N,SPI_CS_FRAM1*%
G36*
X113536712Y-114168815D02*
G01*
X113758476Y-114259734D01*
X113762310Y-114262287D01*
X113764863Y-114266122D01*
X113855781Y-114487883D01*
X113855917Y-114496409D01*
X113850230Y-114502764D01*
X113479945Y-114689814D01*
X113472820Y-114690924D01*
X113466397Y-114687644D01*
X113336953Y-114558200D01*
X113333673Y-114551777D01*
X113334782Y-114544654D01*
X113521835Y-114174364D01*
X113528188Y-114168680D01*
X113536712Y-114168815D01*
G37*
%TD.AperFunction*%
%TD*%
%TA.AperFunction,Conductor*%
%TO.N,I2C_SDA*%
G36*
X151848391Y-122492223D02*
G01*
X151852645Y-122498046D01*
X151982211Y-122892143D01*
X151981739Y-122900658D01*
X151975612Y-122906590D01*
X151754516Y-122999110D01*
X151750000Y-123000017D01*
X151745484Y-122999110D01*
X151524387Y-122906590D01*
X151518260Y-122900658D01*
X151517788Y-122892143D01*
X151647355Y-122498046D01*
X151651609Y-122492223D01*
X151658470Y-122490000D01*
X151841530Y-122490000D01*
X151848391Y-122492223D01*
G37*
%TD.AperFunction*%
%TD*%
%TA.AperFunction,Conductor*%
%TO.N,MEMORY_POWER_CONTROL*%
G36*
X129750677Y-116185565D02*
G01*
X129757375Y-116189636D01*
X129760000Y-116197021D01*
X129760000Y-116477979D01*
X129757375Y-116485364D01*
X129750677Y-116489434D01*
X129679996Y-116504103D01*
X129357029Y-116571128D01*
X129349198Y-116570023D01*
X129343859Y-116564188D01*
X129312578Y-116489435D01*
X129250888Y-116342012D01*
X129249982Y-116337500D01*
X129250888Y-116332987D01*
X129343860Y-116110809D01*
X129349198Y-116104976D01*
X129357028Y-116103871D01*
X129750677Y-116185565D01*
G37*
%TD.AperFunction*%
%TD*%
M02*
