%TF.GenerationSoftware,KiCad,Pcbnew,7.0.1-0*%
%TF.CreationDate,2023-05-25T18:19:08+09:00*%
%TF.ProjectId,MissionModule,4d697373-696f-46e4-9d6f-64756c652e6b,rev?*%
%TF.SameCoordinates,Original*%
%TF.FileFunction,Soldermask,Top*%
%TF.FilePolarity,Negative*%
%FSLAX46Y46*%
G04 Gerber Fmt 4.6, Leading zero omitted, Abs format (unit mm)*
G04 Created by KiCad (PCBNEW 7.0.1-0) date 2023-05-25 18:19:08*
%MOMM*%
%LPD*%
G01*
G04 APERTURE LIST*
G04 Aperture macros list*
%AMRoundRect*
0 Rectangle with rounded corners*
0 $1 Rounding radius*
0 $2 $3 $4 $5 $6 $7 $8 $9 X,Y pos of 4 corners*
0 Add a 4 corners polygon primitive as box body*
4,1,4,$2,$3,$4,$5,$6,$7,$8,$9,$2,$3,0*
0 Add four circle primitives for the rounded corners*
1,1,$1+$1,$2,$3*
1,1,$1+$1,$4,$5*
1,1,$1+$1,$6,$7*
1,1,$1+$1,$8,$9*
0 Add four rect primitives between the rounded corners*
20,1,$1+$1,$2,$3,$4,$5,0*
20,1,$1+$1,$4,$5,$6,$7,0*
20,1,$1+$1,$6,$7,$8,$9,0*
20,1,$1+$1,$8,$9,$2,$3,0*%
G04 Aperture macros list end*
%ADD10RoundRect,0.250001X0.462499X0.624999X-0.462499X0.624999X-0.462499X-0.624999X0.462499X-0.624999X0*%
%ADD11RoundRect,0.237500X0.250000X0.237500X-0.250000X0.237500X-0.250000X-0.237500X0.250000X-0.237500X0*%
%ADD12C,4.500000*%
%ADD13C,2.250000*%
%ADD14RoundRect,0.250000X-0.450000X0.350000X-0.450000X-0.350000X0.450000X-0.350000X0.450000X0.350000X0*%
%ADD15RoundRect,0.237500X-0.300000X-0.237500X0.300000X-0.237500X0.300000X0.237500X-0.300000X0.237500X0*%
%ADD16RoundRect,0.237500X0.237500X-0.300000X0.237500X0.300000X-0.237500X0.300000X-0.237500X-0.300000X0*%
%ADD17RoundRect,0.237500X0.237500X-0.250000X0.237500X0.250000X-0.237500X0.250000X-0.237500X-0.250000X0*%
%ADD18RoundRect,0.250000X-0.350000X-0.450000X0.350000X-0.450000X0.350000X0.450000X-0.350000X0.450000X0*%
%ADD19RoundRect,0.237500X-0.237500X0.287500X-0.237500X-0.287500X0.237500X-0.287500X0.237500X0.287500X0*%
%ADD20R,1.500000X1.500000*%
%ADD21C,1.500000*%
%ADD22RoundRect,0.237500X0.237500X-0.287500X0.237500X0.287500X-0.237500X0.287500X-0.237500X-0.287500X0*%
%ADD23RoundRect,0.250000X-1.500000X-0.550000X1.500000X-0.550000X1.500000X0.550000X-1.500000X0.550000X0*%
%ADD24RoundRect,0.237500X-0.237500X0.250000X-0.237500X-0.250000X0.237500X-0.250000X0.237500X0.250000X0*%
%ADD25R,4.500000X2.000000*%
%ADD26R,1.530000X1.530000*%
%ADD27C,1.530000*%
%ADD28RoundRect,0.237500X0.287500X0.237500X-0.287500X0.237500X-0.287500X-0.237500X0.287500X-0.237500X0*%
%ADD29R,1.600000X1.600000*%
%ADD30O,1.600000X1.600000*%
%ADD31R,1.508000X1.508000*%
%ADD32C,1.508000*%
%ADD33RoundRect,0.250000X0.850000X0.350000X-0.850000X0.350000X-0.850000X-0.350000X0.850000X-0.350000X0*%
%ADD34RoundRect,0.249997X2.950003X2.650003X-2.950003X2.650003X-2.950003X-2.650003X2.950003X-2.650003X0*%
%ADD35RoundRect,0.237500X0.300000X0.237500X-0.300000X0.237500X-0.300000X-0.237500X0.300000X-0.237500X0*%
%ADD36RoundRect,0.237500X-0.287500X-0.237500X0.287500X-0.237500X0.287500X0.237500X-0.287500X0.237500X0*%
%ADD37RoundRect,0.250000X-0.550000X1.500000X-0.550000X-1.500000X0.550000X-1.500000X0.550000X1.500000X0*%
%ADD38RoundRect,0.250000X0.300000X-0.300000X0.300000X0.300000X-0.300000X0.300000X-0.300000X-0.300000X0*%
%ADD39RoundRect,0.237500X-0.250000X-0.237500X0.250000X-0.237500X0.250000X0.237500X-0.250000X0.237500X0*%
%ADD40R,1.200000X0.700000*%
%ADD41R,0.800000X1.000000*%
%ADD42R,1.200000X1.000000*%
%ADD43R,2.800000X1.000000*%
%ADD44R,1.900000X1.300000*%
%ADD45RoundRect,0.250000X-0.350000X-0.560000X0.350000X-0.560000X0.350000X0.560000X-0.350000X0.560000X0*%
%ADD46O,1.200000X1.650000*%
G04 APERTURE END LIST*
D10*
%TO.C,F1*%
X124487500Y-128500000D03*
X121512500Y-128500000D03*
%TD*%
D11*
%TO.C,R11*%
X120412500Y-107000000D03*
X118587500Y-107000000D03*
%TD*%
D12*
%TO.C,REF\u002A\u002A*%
X178500000Y-75000000D03*
%TD*%
D13*
%TO.C,TP1*%
X171868000Y-128875432D03*
%TD*%
D14*
%TO.C,R7*%
X163912500Y-62487500D03*
X163912500Y-64487500D03*
%TD*%
D15*
%TO.C,C6*%
X184213500Y-86203432D03*
X185938500Y-86203432D03*
%TD*%
D16*
%TO.C,C2*%
X182917000Y-121863932D03*
X182917000Y-120138932D03*
%TD*%
D17*
%TO.C,R12*%
X122750000Y-114750000D03*
X122750000Y-112925000D03*
%TD*%
D18*
%TO.C,R3*%
X181007500Y-111790000D03*
X183007500Y-111790000D03*
%TD*%
D19*
%TO.C,D5*%
X167000000Y-67625000D03*
X167000000Y-69375000D03*
%TD*%
D13*
%TO.C,TP3*%
X117600000Y-118699432D03*
%TD*%
D20*
%TO.C,U8*%
X103200000Y-105700000D03*
D21*
X103200000Y-108240000D03*
X103200000Y-110780000D03*
X103200000Y-113320000D03*
X110820000Y-113320000D03*
X110820000Y-110780000D03*
X110820000Y-108240000D03*
X110820000Y-105700000D03*
%TD*%
D13*
%TO.C,TP2*%
X171868000Y-125799432D03*
%TD*%
D22*
%TO.C,D3*%
X179500000Y-90125000D03*
X179500000Y-88375000D03*
%TD*%
D20*
%TO.C,U5*%
X124025000Y-117200000D03*
D21*
X121485000Y-117200000D03*
X121485000Y-124820000D03*
X124025000Y-124820000D03*
%TD*%
D11*
%TO.C,R15*%
X132900000Y-87099432D03*
X131075000Y-87099432D03*
%TD*%
D23*
%TO.C,C8*%
X170900000Y-99799432D03*
X176500000Y-99799432D03*
%TD*%
D14*
%TO.C,R6*%
X164000000Y-67412500D03*
X164000000Y-69412500D03*
%TD*%
D24*
%TO.C,R8*%
X128000000Y-120337500D03*
X128000000Y-122162500D03*
%TD*%
D14*
%TO.C,R4*%
X179500000Y-84337500D03*
X179500000Y-86337500D03*
%TD*%
D19*
%TO.C,D6*%
X167000000Y-62612500D03*
X167000000Y-64362500D03*
%TD*%
D17*
%TO.C,R13*%
X119500000Y-114750000D03*
X119500000Y-112925000D03*
%TD*%
D22*
%TO.C,D4*%
X173000000Y-90125000D03*
X173000000Y-88375000D03*
%TD*%
D25*
%TO.C,Y1*%
X185906000Y-90267432D03*
X194406000Y-90267432D03*
%TD*%
D26*
%TO.C,U4*%
X147880000Y-128972500D03*
D27*
X147880000Y-131512500D03*
X147880000Y-134052500D03*
X147880000Y-136592500D03*
X147880000Y-139132500D03*
X155500000Y-139132500D03*
X155500000Y-136592500D03*
X155500000Y-134052500D03*
X155500000Y-131512500D03*
X155500000Y-128972500D03*
%TD*%
D17*
%TO.C,R14*%
X116500000Y-114750000D03*
X116500000Y-112925000D03*
%TD*%
D28*
%TO.C,D1*%
X176287500Y-119500000D03*
X174537500Y-119500000D03*
%TD*%
D12*
%TO.C,REF\u002A\u002A*%
X118500000Y-135000000D03*
%TD*%
D20*
%TO.C,U1*%
X193300000Y-119200000D03*
D21*
X190760000Y-119200000D03*
X188220000Y-119200000D03*
X185680000Y-119200000D03*
X185680000Y-126820000D03*
X188220000Y-126820000D03*
X190760000Y-126820000D03*
X193300000Y-126820000D03*
%TD*%
D29*
%TO.C,SW1*%
X130850000Y-59574432D03*
D30*
X128310000Y-59574432D03*
X128310000Y-67194432D03*
X130850000Y-67194432D03*
%TD*%
D13*
%TO.C,U6*%
X158512500Y-56475000D03*
X138012500Y-56475000D03*
X158512500Y-113475000D03*
X138012500Y-113475000D03*
D31*
X138102500Y-76359800D03*
D32*
X138102500Y-78899800D03*
X138102500Y-81439800D03*
X138102500Y-83979800D03*
X138102500Y-86519800D03*
X138102500Y-89059800D03*
X138102500Y-91599800D03*
X138102500Y-94139800D03*
X138102500Y-96679800D03*
X138102500Y-99219800D03*
X138102500Y-101759800D03*
X138102500Y-104299800D03*
X138102500Y-106839800D03*
X138102500Y-109379800D03*
X158422500Y-109379800D03*
X158422500Y-106839800D03*
X158422500Y-104299800D03*
X158422500Y-101759800D03*
X158422500Y-99219800D03*
X158422500Y-96679800D03*
X158422500Y-94139800D03*
X158422500Y-91599800D03*
X158422500Y-89059800D03*
X158422500Y-86519800D03*
X158422500Y-83979800D03*
X158422500Y-81439800D03*
X158422500Y-78899800D03*
X158422500Y-76359800D03*
%TD*%
D33*
%TO.C,U3*%
X172000000Y-116579432D03*
D34*
X165700000Y-114299432D03*
D33*
X172000000Y-112019432D03*
%TD*%
D35*
%TO.C,C7*%
X172012500Y-109599432D03*
X170287500Y-109599432D03*
%TD*%
D12*
%TO.C,REF\u002A\u002A*%
X178500000Y-135000000D03*
%TD*%
D35*
%TO.C,C3*%
X171412500Y-118999432D03*
X169687500Y-118999432D03*
%TD*%
D36*
%TO.C,D7*%
X114625000Y-107000000D03*
X116375000Y-107000000D03*
%TD*%
D37*
%TO.C,C9*%
X129500000Y-125200000D03*
X129500000Y-130800000D03*
%TD*%
D20*
%TO.C,U7*%
X103200000Y-117950000D03*
D21*
X103200000Y-120490000D03*
X103200000Y-123030000D03*
X103200000Y-125570000D03*
X110820000Y-125570000D03*
X110820000Y-123030000D03*
X110820000Y-120490000D03*
X110820000Y-117950000D03*
%TD*%
D38*
%TO.C,D2*%
X175160306Y-114680000D03*
X175160306Y-111880000D03*
%TD*%
D11*
%TO.C,R2*%
X176325000Y-117500000D03*
X174500000Y-117500000D03*
%TD*%
D16*
%TO.C,C4*%
X182917000Y-126462500D03*
X182917000Y-124737500D03*
%TD*%
D39*
%TO.C,R1*%
X192987500Y-129000000D03*
X194812500Y-129000000D03*
%TD*%
D12*
%TO.C,REF\u002A\u002A*%
X118500000Y-75000000D03*
%TD*%
D35*
%TO.C,C1*%
X196098500Y-86203432D03*
X194373500Y-86203432D03*
%TD*%
D36*
%TO.C,D8*%
X127112500Y-87099432D03*
X128862500Y-87099432D03*
%TD*%
D22*
%TO.C,D9*%
X113500000Y-121625000D03*
X113500000Y-119875000D03*
%TD*%
D24*
%TO.C,R10*%
X128000000Y-116337500D03*
X128000000Y-118162500D03*
%TD*%
D40*
%TO.C,J2*%
X118725000Y-96525000D03*
X118725000Y-95425000D03*
X118725000Y-94325000D03*
X118725000Y-93225000D03*
X118725000Y-92125000D03*
X118725000Y-91025000D03*
X118725000Y-89925000D03*
X118725000Y-88825000D03*
X118725000Y-87875000D03*
D41*
X108225000Y-86925000D03*
D42*
X114425000Y-86925000D03*
D43*
X104075000Y-86925000D03*
D42*
X118725000Y-98075000D03*
D44*
X103625000Y-100425000D03*
%TD*%
D35*
%TO.C,C5*%
X182745000Y-115100000D03*
X181020000Y-115100000D03*
%TD*%
D20*
%TO.C,U2*%
X193120000Y-115040000D03*
D21*
X193120000Y-112500000D03*
X193120000Y-109960000D03*
X193120000Y-107420000D03*
X193120000Y-104880000D03*
X193120000Y-102340000D03*
X193120000Y-99800000D03*
X193120000Y-97260000D03*
X193120000Y-94720000D03*
X185500000Y-94720000D03*
X185500000Y-97260000D03*
X185500000Y-99800000D03*
X185500000Y-102340000D03*
X185500000Y-104880000D03*
X185500000Y-107420000D03*
X185500000Y-109960000D03*
X185500000Y-112500000D03*
X185500000Y-115040000D03*
%TD*%
D14*
%TO.C,R5*%
X173000000Y-84500000D03*
X173000000Y-86500000D03*
%TD*%
D24*
%TO.C,R9*%
X115200000Y-118000000D03*
X115200000Y-119825000D03*
%TD*%
D45*
%TO.C,J1*%
X162000000Y-132000000D03*
D46*
X162000000Y-134000000D03*
X164000000Y-132000000D03*
X164000000Y-134000000D03*
X166000000Y-132000000D03*
X166000000Y-134000000D03*
X168000000Y-132000000D03*
X168000000Y-134000000D03*
%TD*%
M02*
