%TF.GenerationSoftware,KiCad,Pcbnew,7.0.1-0*%
%TF.CreationDate,2023-05-23T13:31:28+09:00*%
%TF.ProjectId,SensingModule,53656e73-696e-4674-9d6f-64756c652e6b,rev?*%
%TF.SameCoordinates,Original*%
%TF.FileFunction,Soldermask,Top*%
%TF.FilePolarity,Negative*%
%FSLAX46Y46*%
G04 Gerber Fmt 4.6, Leading zero omitted, Abs format (unit mm)*
G04 Created by KiCad (PCBNEW 7.0.1-0) date 2023-05-23 13:31:28*
%MOMM*%
%LPD*%
G01*
G04 APERTURE LIST*
G04 Aperture macros list*
%AMRoundRect*
0 Rectangle with rounded corners*
0 $1 Rounding radius*
0 $2 $3 $4 $5 $6 $7 $8 $9 X,Y pos of 4 corners*
0 Add a 4 corners polygon primitive as box body*
4,1,4,$2,$3,$4,$5,$6,$7,$8,$9,$2,$3,0*
0 Add four circle primitives for the rounded corners*
1,1,$1+$1,$2,$3*
1,1,$1+$1,$4,$5*
1,1,$1+$1,$6,$7*
1,1,$1+$1,$8,$9*
0 Add four rect primitives between the rounded corners*
20,1,$1+$1,$2,$3,$4,$5,0*
20,1,$1+$1,$4,$5,$6,$7,0*
20,1,$1+$1,$6,$7,$8,$9,0*
20,1,$1+$1,$8,$9,$2,$3,0*%
G04 Aperture macros list end*
%ADD10RoundRect,0.237500X0.237500X-0.300000X0.237500X0.300000X-0.237500X0.300000X-0.237500X-0.300000X0*%
%ADD11RoundRect,0.250000X-0.350000X-0.560000X0.350000X-0.560000X0.350000X0.560000X-0.350000X0.560000X0*%
%ADD12O,1.200000X1.650000*%
%ADD13RoundRect,0.237500X-0.250000X-0.237500X0.250000X-0.237500X0.250000X0.237500X-0.250000X0.237500X0*%
%ADD14RoundRect,0.237500X0.237500X-0.250000X0.237500X0.250000X-0.237500X0.250000X-0.237500X-0.250000X0*%
%ADD15C,1.530000*%
%ADD16C,1.500000*%
%ADD17R,1.600000X1.600000*%
%ADD18O,1.600000X1.600000*%
%ADD19RoundRect,0.237500X-0.287500X-0.237500X0.287500X-0.237500X0.287500X0.237500X-0.287500X0.237500X0*%
%ADD20RoundRect,0.237500X0.250000X0.237500X-0.250000X0.237500X-0.250000X-0.237500X0.250000X-0.237500X0*%
%ADD21C,4.500000*%
%ADD22C,2.250000*%
%ADD23RoundRect,0.237500X0.287500X0.237500X-0.287500X0.237500X-0.287500X-0.237500X0.287500X-0.237500X0*%
%ADD24RoundRect,0.237500X-0.237500X0.250000X-0.237500X-0.250000X0.237500X-0.250000X0.237500X0.250000X0*%
%ADD25R,1.500000X1.500000*%
%ADD26C,1.853200*%
%ADD27R,1.530000X1.530000*%
%ADD28RoundRect,0.250001X0.462499X0.624999X-0.462499X0.624999X-0.462499X-0.624999X0.462499X-0.624999X0*%
%ADD29RoundRect,0.237500X0.237500X-0.287500X0.237500X0.287500X-0.237500X0.287500X-0.237500X-0.287500X0*%
%ADD30RoundRect,0.250000X0.550000X-1.500000X0.550000X1.500000X-0.550000X1.500000X-0.550000X-1.500000X0*%
%ADD31R,1.200000X0.700000*%
%ADD32R,0.800000X1.000000*%
%ADD33R,1.200000X1.000000*%
%ADD34R,2.800000X1.000000*%
%ADD35R,1.900000X1.300000*%
G04 APERTURE END LIST*
D10*
%TO.C,C2*%
X168058000Y-121967432D03*
X168058000Y-120242432D03*
%TD*%
%TO.C,C1*%
X168058000Y-117522432D03*
X168058000Y-115797432D03*
%TD*%
D11*
%TO.C,J2*%
X162000000Y-131690000D03*
D12*
X162000000Y-133690000D03*
X164000000Y-131690000D03*
X164000000Y-133690000D03*
X166000000Y-131690000D03*
X166000000Y-133690000D03*
X168000000Y-131690000D03*
X168000000Y-133690000D03*
%TD*%
D13*
%TO.C,R1*%
X184800000Y-116000000D03*
X186625000Y-116000000D03*
%TD*%
D14*
%TO.C,R13*%
X130500000Y-113912500D03*
X130500000Y-112087500D03*
%TD*%
D15*
%TO.C,U2*%
X178740000Y-81859000D03*
X176200000Y-81859000D03*
X173660000Y-81859000D03*
X171120000Y-81859000D03*
X168580000Y-81859000D03*
X166040000Y-81859000D03*
%TD*%
D16*
%TO.C,U1*%
X178300000Y-114700000D03*
X175760000Y-114700000D03*
X173220000Y-114700000D03*
X170680000Y-114700000D03*
X170680000Y-122320000D03*
X173220000Y-122320000D03*
X175760000Y-122320000D03*
X178300000Y-122320000D03*
%TD*%
D17*
%TO.C,SW1*%
X134150000Y-58024432D03*
D18*
X131610000Y-58024432D03*
X131610000Y-65644432D03*
X134150000Y-65644432D03*
%TD*%
D19*
%TO.C,D5*%
X122212500Y-106500000D03*
X123962500Y-106500000D03*
%TD*%
D20*
%TO.C,R7*%
X162000000Y-125500000D03*
X160175000Y-125500000D03*
%TD*%
D19*
%TO.C,D6*%
X124037500Y-86000000D03*
X125787500Y-86000000D03*
%TD*%
D14*
%TO.C,R14*%
X126500000Y-114000000D03*
X126500000Y-112175000D03*
%TD*%
D20*
%TO.C,R15*%
X129825000Y-86000000D03*
X128000000Y-86000000D03*
%TD*%
%TO.C,R11*%
X128000000Y-106500000D03*
X126175000Y-106500000D03*
%TD*%
D21*
%TO.C,REF\u002A\u002A*%
X118500000Y-75000000D03*
%TD*%
D22*
%TO.C,TP2*%
X171900000Y-124949432D03*
%TD*%
D21*
%TO.C,REF\u002A\u002A*%
X118500000Y-135000000D03*
%TD*%
D23*
%TO.C,D2*%
X190837500Y-119250000D03*
X189087500Y-119250000D03*
%TD*%
D21*
%TO.C,REF\u002A\u002A*%
X178500000Y-135000000D03*
%TD*%
D13*
%TO.C,R3*%
X184800000Y-119250000D03*
X186625000Y-119250000D03*
%TD*%
D24*
%TO.C,R6*%
X147000000Y-120587500D03*
X147000000Y-122412500D03*
%TD*%
D21*
%TO.C,REF\u002A\u002A*%
X178500000Y-75000000D03*
%TD*%
D25*
%TO.C,U4*%
X142275000Y-113700000D03*
D16*
X139735000Y-113700000D03*
X139735000Y-121320000D03*
X142275000Y-121320000D03*
%TD*%
D23*
%TO.C,D1*%
X190962500Y-116000000D03*
X189212500Y-116000000D03*
%TD*%
D14*
%TO.C,R2*%
X181500000Y-122312500D03*
X181500000Y-120487500D03*
%TD*%
%TO.C,R9*%
X150000000Y-110500000D03*
X150000000Y-108675000D03*
%TD*%
D22*
%TO.C,TP3*%
X134700000Y-118949432D03*
%TD*%
D14*
%TO.C,R4*%
X172000000Y-108412500D03*
X172000000Y-106587500D03*
%TD*%
D26*
%TO.C,J1*%
X153230000Y-132690000D03*
X155770000Y-132690000D03*
%TD*%
D19*
%TO.C,D3*%
X156125000Y-125500000D03*
X157875000Y-125500000D03*
%TD*%
D15*
%TO.C,U3*%
X176200000Y-100310000D03*
X173660000Y-100310000D03*
X171120000Y-100310000D03*
X168580000Y-100310000D03*
X168580000Y-92690000D03*
X171120000Y-92690000D03*
X173660000Y-92690000D03*
D27*
X176200000Y-92690000D03*
%TD*%
%TO.C,U5*%
X140880000Y-60220000D03*
D15*
X140880000Y-62760000D03*
X140880000Y-65300000D03*
X140880000Y-67840000D03*
X140880000Y-70380000D03*
X140880000Y-72920000D03*
X140880000Y-75460000D03*
X140880000Y-78000000D03*
X140880000Y-80540000D03*
X140880000Y-83080000D03*
X140880000Y-85620000D03*
X140880000Y-88160000D03*
X140880000Y-90700000D03*
X140880000Y-93240000D03*
X140880000Y-95780000D03*
D27*
X156120000Y-60220000D03*
D15*
X156120000Y-62760000D03*
X156120000Y-65300000D03*
X156120000Y-67840000D03*
X156120000Y-70380000D03*
X156120000Y-72920000D03*
X156120000Y-75460000D03*
X156120000Y-78000000D03*
X156120000Y-80540000D03*
X156120000Y-83080000D03*
X156120000Y-85620000D03*
X156120000Y-88160000D03*
X156120000Y-90700000D03*
X156120000Y-93240000D03*
X156120000Y-95780000D03*
%TD*%
D14*
%TO.C,R12*%
X134500000Y-113912500D03*
X134500000Y-112087500D03*
%TD*%
D25*
%TO.C,U6*%
X109000000Y-116380000D03*
D16*
X109000000Y-118920000D03*
X109000000Y-121460000D03*
X109000000Y-124000000D03*
X116620000Y-124000000D03*
X116620000Y-121460000D03*
X116620000Y-118920000D03*
X116620000Y-116380000D03*
%TD*%
D28*
%TO.C,F1*%
X151487500Y-125000000D03*
X148512500Y-125000000D03*
%TD*%
D14*
%TO.C,R5*%
X168500000Y-108500000D03*
X168500000Y-106675000D03*
%TD*%
D26*
%TO.C,J3*%
X127230000Y-132690000D03*
X129770000Y-132690000D03*
%TD*%
D29*
%TO.C,D4*%
X127000000Y-123787500D03*
X127000000Y-122037500D03*
%TD*%
D30*
%TO.C,C3*%
X153500000Y-118950000D03*
X153500000Y-113550000D03*
%TD*%
D22*
%TO.C,TP1*%
X175100000Y-124949432D03*
%TD*%
D24*
%TO.C,R8*%
X147000000Y-117087500D03*
X147000000Y-118912500D03*
%TD*%
D25*
%TO.C,U7*%
X109000000Y-103880000D03*
D16*
X109000000Y-106420000D03*
X109000000Y-108960000D03*
X109000000Y-111500000D03*
X116620000Y-111500000D03*
X116620000Y-108960000D03*
X116620000Y-106420000D03*
X116620000Y-103880000D03*
%TD*%
D24*
%TO.C,R10*%
X127000000Y-118000000D03*
X127000000Y-119825000D03*
%TD*%
D31*
%TO.C,J4*%
X120500000Y-94100000D03*
X120500000Y-93000000D03*
X120500000Y-91900000D03*
X120500000Y-90800000D03*
X120500000Y-89700000D03*
X120500000Y-88600000D03*
X120500000Y-87500000D03*
X120500000Y-86400000D03*
X120500000Y-85450000D03*
D32*
X110000000Y-84500000D03*
D33*
X116200000Y-84500000D03*
D34*
X105850000Y-84500000D03*
D33*
X120500000Y-95650000D03*
D35*
X105400000Y-98000000D03*
%TD*%
M02*
