M48
; DRILL file {KiCad 7.0.1-0} date 2023 May 22, Monday 13:58:12
; FORMAT={-:-/ absolute / inch / decimal}
; #@! TF.CreationDate,2023-05-22T13:58:12+09:00
; #@! TF.GenerationSoftware,Kicad,Pcbnew,7.0.1-0
; #@! TF.FileFunction,Plated,1,2,PTH
FMAT,2
INCH
; #@! TA.AperFunction,Plated,PTH,ViaDrill
T1C0.0098
; #@! TA.AperFunction,Plated,PTH,ComponentDrill
T2C0.0315
; #@! TA.AperFunction,Plated,PTH,ComponentDrill
T3C0.0335
; #@! TA.AperFunction,Plated,PTH,ComponentDrill
T4C0.0394
; #@! TA.AperFunction,Plated,PTH,ComponentDrill
T5C0.0402
; #@! TA.AperFunction,Plated,PTH,ComponentDrill
T6C0.0433
; #@! TA.AperFunction,Plated,PTH,ComponentDrill
T7C0.0591
%
G90
G05
T1
X3.7559Y-4.0551
X3.7874Y-4.5591
X3.8976Y-3.3307
X4.0157Y-5.1496
X4.0472Y-3.6063
X4.0866Y-4.3858
X4.3228Y-2.6929
X4.378Y-3.2126
X4.3937Y-4.7165
X4.3937Y-5.6142
X4.4016Y-3.9528
X4.4291Y-4.1929
X4.4409Y-3.4173
X4.4646Y-4.5827
X4.4724Y-3.252
X4.5118Y-4.378
X4.5276Y-3.748
X4.6063Y-3.5118
X4.6299Y-4.9764
X4.6614Y-4.0472
X4.6614Y-4.4331
X4.6614Y-4.5512
X4.7323Y-3.9449
X4.748Y-4.4331
X4.7559Y-4.5512
X4.7559Y-4.7087
X4.7874Y-2.622
X4.8031Y-3.4016
X4.8031Y-3.685
X4.8268Y-3.5118
X4.8661Y-4.6457
X4.8898Y-4.6457
X4.9213Y-3.1732
X4.9213Y-4.1417
X4.9291Y-2.2283
X4.9291Y-3.5748
X5.0472Y-4.5591
X5.0822Y-4.4129
X5.0866Y-4.9843
X5.0945Y-4.4488
X5.126Y-4.0315
X5.1575Y-4.0748
X5.2008Y-4.3327
X5.2047Y-4.1102
X5.2047Y-5.0394
X5.2397Y-4.4129
X5.252Y-4.4488
X5.2953Y-3.937
X5.2953Y-4.3602
X5.3071Y-3.4331
X5.3071Y-3.8504
X5.315Y-3.2087
X5.315Y-3.3071
X5.315Y-3.3858
X5.3307Y-5.6378
X5.3346Y-4.1737
X5.3386Y-3.9764
X5.3504Y-2.2618
X5.3701Y-4.3937
X5.3858Y-3.2205
X5.3858Y-3.3307
X5.4094Y-4.2598
X5.4488Y-2.9921
X5.4488Y-3.2677
X5.4488Y-3.4961
X5.4921Y-4.2717
X5.5039Y-2.2992
X5.5039Y-4.0079
X5.5039Y-4.1339
X5.5039Y-4.937
X5.5512Y-4.1969
X5.5512Y-4.2328
X5.5709Y-4.3307
X5.6009Y-4.3598
X5.6063Y-3.1417
X5.6063Y-3.6457
X5.6142Y-3.0236
X5.622Y-3.5433
X5.6654Y-3.1772
X5.6772Y-5.2835
X5.6791Y-4.3012
X5.685Y-4.5118
X5.685Y-4.7717
X5.7244Y-3.1181
X5.7244Y-3.3701
X5.7244Y-3.7008
X5.7244Y-4.0079
X5.748Y-4.9843
X5.7598Y-4.4705
X5.7805Y-4.2785
X5.7874Y-4.3504
X5.7874Y-4.4291
X5.8031Y-3.063
X5.8031Y-3.4488
X5.8031Y-3.9213
X5.8071Y-2.6181
X5.811Y-2.0157
X5.811Y-4.315
X5.8661Y-4.4173
X5.8819Y-3.0846
X5.8976Y-4.7717
X5.9213Y-3.1476
X5.9685Y-3.4724
X5.9685Y-3.8898
X5.9841Y-4.2367
X5.9843Y-4.0748
X5.9843Y-4.1142
X5.9941Y-4.1634
X5.9981Y-4.2126
X6.0079Y-4.315
X6.0235Y-4.1363
X6.0236Y-4.0394
X6.0315Y-2.811
X6.0551Y-3.2972
X6.0787Y-2.9134
X6.0787Y-3.0236
X6.0787Y-3.126
X6.0866Y-2.2598
X6.1024Y-3.4252
X6.1024Y-3.5276
X6.1181Y-4.748
X6.1496Y-4.0157
X6.1496Y-4.2441
X6.1496Y-5.0157
X6.189Y-3.1201
X6.189Y-3.7244
X6.1929Y-2.8248
X6.2047Y-4.3622
X6.2047Y-4.4803
X6.2283Y-3.3701
X6.2421Y-4.2283
X6.2421Y-4.2815
X6.252Y-3.6378
X6.2638Y-2.5964
X6.2835Y-4.5118
X6.2835Y-4.5748
X6.3071Y-4.5354
X6.315Y-3.4252
X6.315Y-4.0315
X6.315Y-4.4488
X6.315Y-5.1575
X6.3228Y-4.189
X6.3228Y-4.3622
X6.4016Y-3.7402
X6.4094Y-2.4311
X6.4252Y-4.4488
X6.4252Y-4.5827
X6.4252Y-4.6693
X6.4252Y-4.3278
X6.4331Y-4.0394
X6.437Y-4.1142
X6.4409Y-2.7953
X6.4409Y-3.2126
X6.4409Y-4.2835
X6.4409Y-4.8189
X6.4409Y-5.0866
X6.4488Y-4.1575
X6.4567Y-4.3592
X6.4646Y-4.3278
X6.4724Y-5.6378
X6.4961Y-4.626
X6.5Y-4.5059
X6.5Y-4.6712
X6.503Y-4.3602
X6.5276Y-4.1575
X6.5354Y-4.0394
X6.5354Y-4.3307
X6.5354Y-4.626
X6.5748Y-3.6378
X6.5906Y-3.3858
X6.5906Y-3.7638
X6.5906Y-4.3307
X6.6142Y-4.4136
X6.6299Y-3.874
X6.6299Y-4.1417
X6.6321Y-4.3898
X6.6772Y-4.2283
X6.6772Y-5.0866
X6.6772Y-5.4567
X6.685Y-3.6063
X6.7087Y-4.8898
X6.7165Y-4.5827
X6.7244Y-4.7087
X6.7323Y-4.1535
X6.7402Y-4.1102
X6.7559Y-2.2283
X6.7795Y-2.6299
X6.7953Y-3.7402
X6.8504Y-4.1575
X6.874Y-4.3307
X6.8819Y-3.4016
X6.8898Y-4.7539
X6.9685Y-3.8819
X6.9921Y-3.7323
X7.0Y-3.4016
X7.0236Y-4.4488
X7.063Y-4.6693
X7.0709Y-4.0866
X7.1654Y-4.5197
X7.2047Y-4.7795
X7.2126Y-4.4252
X7.2913Y-5.6378
X7.2992Y-5.2362
X7.315Y-3.4882
X7.3701Y-2.6772
X7.4803Y-4.0226
X7.5669Y-4.6299
X7.6457Y-5.2047
X7.7874Y-3.3307
X7.8976Y-4.6378
X7.9606Y-4.0551
T2
X5.1815Y-2.2844
X5.1815Y-2.5844
X5.2815Y-2.2844
X5.2815Y-2.5844
T3
X6.378Y-5.1846
X6.378Y-5.2634
X6.4567Y-5.1846
X6.4567Y-5.2634
X6.5354Y-5.1846
X6.5354Y-5.2634
X6.6142Y-5.1846
X6.6142Y-5.2634
T4
X4.2913Y-4.0898
X4.2913Y-4.1898
X4.2913Y-4.2898
X4.2913Y-4.3898
X4.2913Y-4.5819
X4.2913Y-4.6819
X4.2913Y-4.7819
X4.2913Y-4.8819
X4.5913Y-4.0898
X4.5913Y-4.1898
X4.5913Y-4.2898
X4.5913Y-4.3898
X4.5913Y-4.5819
X4.5913Y-4.6819
X4.5913Y-4.7819
X4.5913Y-4.8819
X5.5014Y-4.4764
X5.5014Y-4.7764
X5.6014Y-4.4764
X5.6014Y-4.7764
X6.7197Y-4.5157
X6.7197Y-4.8157
X6.8197Y-4.5157
X6.8197Y-4.8157
X6.9197Y-4.5157
X6.9197Y-4.8157
X7.0197Y-4.5157
X7.0197Y-4.8157
T5
X5.5465Y-2.3709
X5.5465Y-2.4709
X5.5465Y-2.5709
X5.5465Y-2.6709
X5.5465Y-2.7709
X5.5465Y-2.8709
X5.5465Y-2.9709
X5.5465Y-3.0709
X5.5465Y-3.1709
X5.5465Y-3.2709
X5.5465Y-3.3709
X5.5465Y-3.4709
X5.5465Y-3.5709
X5.5465Y-3.6709
X5.5465Y-3.7709
X6.1465Y-2.3709
X6.1465Y-2.4709
X6.1465Y-2.5709
X6.1465Y-2.6709
X6.1465Y-2.7709
X6.1465Y-2.8709
X6.1465Y-2.9709
X6.1465Y-3.0709
X6.1465Y-3.1709
X6.1465Y-3.2709
X6.1465Y-3.3709
X6.1465Y-3.4709
X6.1465Y-3.5709
X6.1465Y-3.6709
X6.1465Y-3.7709
X6.537Y-3.2228
X6.637Y-3.2228
X6.637Y-3.6492
X6.637Y-3.9492
X6.737Y-3.2228
X6.737Y-3.6492
X6.737Y-3.9492
X6.837Y-3.2228
X6.837Y-3.6492
X6.837Y-3.9492
X6.937Y-3.2228
X6.937Y-3.9492
X7.037Y-3.2228
T6
X5.0091Y-5.224
X5.1091Y-5.224
X6.0327Y-5.224
X6.1327Y-5.224
T7
X5.3031Y-4.683
X6.7677Y-4.9193
X6.8937Y-4.9193
T5
G00X6.937Y-3.6492
M15
G01X6.937Y-3.6492
M16
G05
T0
M30
