%TF.GenerationSoftware,KiCad,Pcbnew,7.0.1-0*%
%TF.CreationDate,2023-05-24T18:21:05+09:00*%
%TF.ProjectId,SensingModule,53656e73-696e-4674-9d6f-64756c652e6b,rev?*%
%TF.SameCoordinates,Original*%
%TF.FileFunction,Copper,L2,Bot*%
%TF.FilePolarity,Positive*%
%FSLAX46Y46*%
G04 Gerber Fmt 4.6, Leading zero omitted, Abs format (unit mm)*
G04 Created by KiCad (PCBNEW 7.0.1-0) date 2023-05-24 18:21:05*
%MOMM*%
%LPD*%
G01*
G04 APERTURE LIST*
G04 Aperture macros list*
%AMRoundRect*
0 Rectangle with rounded corners*
0 $1 Rounding radius*
0 $2 $3 $4 $5 $6 $7 $8 $9 X,Y pos of 4 corners*
0 Add a 4 corners polygon primitive as box body*
4,1,4,$2,$3,$4,$5,$6,$7,$8,$9,$2,$3,0*
0 Add four circle primitives for the rounded corners*
1,1,$1+$1,$2,$3*
1,1,$1+$1,$4,$5*
1,1,$1+$1,$6,$7*
1,1,$1+$1,$8,$9*
0 Add four rect primitives between the rounded corners*
20,1,$1+$1,$2,$3,$4,$5,0*
20,1,$1+$1,$4,$5,$6,$7,0*
20,1,$1+$1,$6,$7,$8,$9,0*
20,1,$1+$1,$8,$9,$2,$3,0*%
G04 Aperture macros list end*
%TA.AperFunction,ComponentPad*%
%ADD10C,1.530000*%
%TD*%
%TA.AperFunction,ComponentPad*%
%ADD11C,1.500000*%
%TD*%
%TA.AperFunction,ComponentPad*%
%ADD12R,1.600000X1.600000*%
%TD*%
%TA.AperFunction,ComponentPad*%
%ADD13O,1.600000X1.600000*%
%TD*%
%TA.AperFunction,ComponentPad*%
%ADD14C,2.250000*%
%TD*%
%TA.AperFunction,ComponentPad*%
%ADD15R,1.500000X1.500000*%
%TD*%
%TA.AperFunction,ComponentPad*%
%ADD16C,1.650000*%
%TD*%
%TA.AperFunction,ComponentPad*%
%ADD17R,1.530000X1.530000*%
%TD*%
%TA.AperFunction,ComponentPad*%
%ADD18RoundRect,0.250000X-0.350000X-0.560000X0.350000X-0.560000X0.350000X0.560000X-0.350000X0.560000X0*%
%TD*%
%TA.AperFunction,ComponentPad*%
%ADD19O,1.200000X1.650000*%
%TD*%
%TA.AperFunction,ViaPad*%
%ADD20C,0.510000*%
%TD*%
%TA.AperFunction,Conductor*%
%ADD21C,0.500000*%
%TD*%
%TA.AperFunction,Conductor*%
%ADD22C,0.200000*%
%TD*%
%TA.AperFunction,Conductor*%
%ADD23C,0.300000*%
%TD*%
G04 APERTURE END LIST*
D10*
%TO.P,U2,1,VDD*%
%TO.N,+3.3V*%
X178740000Y-81859000D03*
%TO.P,U2,2,GND*%
%TO.N,GND*%
X176200000Y-81859000D03*
%TO.P,U2,3,SCB*%
%TO.N,+3.3V*%
X173660000Y-81859000D03*
%TO.P,U2,4,SDI*%
%TO.N,I2C_SDA*%
X171120000Y-81859000D03*
%TO.P,U2,5,SDO*%
%TO.N,GND*%
X168580000Y-81859000D03*
%TO.P,U2,6,SCK*%
%TO.N,I2C_SCL*%
X166040000Y-81859000D03*
%TD*%
D11*
%TO.P,U1,1,TXD*%
%TO.N,CAN_TX*%
X178300000Y-114700000D03*
%TO.P,U1,2,VSS*%
%TO.N,GND*%
X175760000Y-114700000D03*
%TO.P,U1,3,VDD*%
%TO.N,+5V*%
X173220000Y-114700000D03*
%TO.P,U1,4,RXD*%
%TO.N,CAN_RX*%
X170680000Y-114700000D03*
%TO.P,U1,5,Vio*%
%TO.N,+3.3V*%
X170680000Y-122320000D03*
%TO.P,U1,6,CANL*%
%TO.N,CAN_L*%
X173220000Y-122320000D03*
%TO.P,U1,7,CANH*%
%TO.N,CAN_H*%
X175760000Y-122320000D03*
%TO.P,U1,8,STBY*%
%TO.N,GND*%
X178300000Y-122320000D03*
%TD*%
D12*
%TO.P,SW1,1*%
%TO.N,DEBUG_MODE*%
X134150000Y-58024432D03*
D13*
%TO.P,SW1,2*%
%TO.N,DUMP_MODE*%
X131610000Y-58024432D03*
%TO.P,SW1,3*%
%TO.N,GND*%
X131610000Y-65644432D03*
%TO.P,SW1,4*%
X134150000Y-65644432D03*
%TD*%
D14*
%TO.P,TP2,1,1*%
%TO.N,CAN_L*%
X171900000Y-124949432D03*
%TD*%
D15*
%TO.P,U4,1*%
%TO.N,Net-(R6-Pad1)*%
X142275000Y-113700000D03*
D11*
%TO.P,U4,2*%
%TO.N,GND*%
X139735000Y-113700000D03*
%TO.P,U4,3*%
%TO.N,Net-(F1-Pad2)*%
X139735000Y-121320000D03*
%TO.P,U4,4*%
%TO.N,MEMORY_POWER*%
X142275000Y-121320000D03*
%TD*%
D14*
%TO.P,TP3,1,1*%
%TO.N,MEMORY_POWER*%
X134700000Y-118949432D03*
%TD*%
D16*
%TO.P,J1,1,Pin_1*%
%TO.N,GND*%
X153230000Y-132690000D03*
%TO.P,J1,2,Pin_2*%
%TO.N,+12V*%
X155770000Y-132690000D03*
%TD*%
D17*
%TO.P,U3,1,VIN*%
%TO.N,+3.3V*%
X176200000Y-92690000D03*
D10*
%TO.P,U3,2*%
%TO.N,N/C*%
X173660000Y-92690000D03*
%TO.P,U3,3,SDA/T*%
%TO.N,I2C_SDA*%
X171120000Y-92690000D03*
%TO.P,U3,4,SCL/R*%
%TO.N,I2C_SCL*%
X168580000Y-92690000D03*
%TO.P,U3,5,RESET*%
%TO.N,unconnected-(U3-RESET-Pad5)*%
X168580000Y-100310000D03*
%TO.P,U3,6,INT*%
%TO.N,unconnected-(U3-INT-Pad6)*%
X171120000Y-100310000D03*
%TO.P,U3,7,GND*%
%TO.N,GND*%
X173660000Y-100310000D03*
%TO.P,U3,8,VOUT*%
%TO.N,unconnected-(U3-VOUT-Pad8)*%
X176200000Y-100310000D03*
%TD*%
D17*
%TO.P,U5,3_1,PA9*%
%TO.N,unconnected-(U5A-PA9-Pad3_1)*%
X140880000Y-60220000D03*
D10*
%TO.P,U5,3_2,PA10*%
%TO.N,unconnected-(U5A-PA10-Pad3_2)*%
X140880000Y-62760000D03*
%TO.P,U5,3_3,NRST_1*%
%TO.N,unconnected-(U5A-NRST_1-Pad3_3)*%
X140880000Y-65300000D03*
%TO.P,U5,3_4,GND_1*%
%TO.N,GND*%
X140880000Y-67840000D03*
%TO.P,U5,3_5,PA12*%
%TO.N,CAN_TX*%
X140880000Y-70380000D03*
%TO.P,U5,3_6,PB0*%
%TO.N,DEBUG_MODE*%
X140880000Y-72920000D03*
%TO.P,U5,3_7,PB7*%
%TO.N,I2C_SDA*%
X140880000Y-75460000D03*
%TO.P,U5,3_8,PB6*%
%TO.N,I2C_SCL*%
X140880000Y-78000000D03*
%TO.P,U5,3_9,PB1*%
%TO.N,RECORD_STATUS*%
X140880000Y-80540000D03*
%TO.P,U5,3_10,PF0*%
%TO.N,MEMORY_POWER_CONTROL*%
X140880000Y-83080000D03*
%TO.P,U5,3_11,PF1*%
%TO.N,SD_CHECK*%
X140880000Y-85620000D03*
%TO.P,U5,3_12,PA8*%
%TO.N,SD_STATUS*%
X140880000Y-88160000D03*
%TO.P,U5,3_13,PA11*%
%TO.N,CAN_RX*%
X140880000Y-90700000D03*
%TO.P,U5,3_14,PB5*%
%TO.N,CAN_RECEIVE_STATUS*%
X140880000Y-93240000D03*
%TO.P,U5,3_15,PB4*%
%TO.N,CAN_SEND_STATUS*%
X140880000Y-95780000D03*
D17*
%TO.P,U5,4_1,VIN*%
%TO.N,+12V*%
X156120000Y-60220000D03*
D10*
%TO.P,U5,4_2,GND_2*%
%TO.N,GND*%
X156120000Y-62760000D03*
%TO.P,U5,4_3,NRST_2*%
%TO.N,unconnected-(U5B-NRST_2-Pad4_3)*%
X156120000Y-65300000D03*
%TO.P,U5,4_4,+5V*%
%TO.N,+5V*%
X156120000Y-67840000D03*
%TO.P,U5,4_5,PA2*%
%TO.N,DUMP_MODE*%
X156120000Y-70380000D03*
%TO.P,U5,4_6,PA7*%
%TO.N,SPI_MOSI*%
X156120000Y-72920000D03*
%TO.P,U5,4_7,PA6*%
%TO.N,SPI_MISO*%
X156120000Y-75460000D03*
%TO.P,U5,4_8,PA5*%
%TO.N,SPI_SCLK*%
X156120000Y-78000000D03*
%TO.P,U5,4_9,PA4*%
%TO.N,SPI_CS_FRAM1*%
X156120000Y-80540000D03*
%TO.P,U5,4_10,PA3*%
%TO.N,SPI_CS_FRAM0*%
X156120000Y-83080000D03*
%TO.P,U5,4_11,PA1*%
%TO.N,THERMISTOR*%
X156120000Y-85620000D03*
%TO.P,U5,4_12,PA0*%
%TO.N,SPI_CS_SD*%
X156120000Y-88160000D03*
%TO.P,U5,4_13,AREF*%
%TO.N,unconnected-(U5B-AREF-Pad4_13)*%
X156120000Y-90700000D03*
%TO.P,U5,4_14,+3V3*%
%TO.N,+3.3V*%
X156120000Y-93240000D03*
%TO.P,U5,4_15,PB3*%
%TO.N,unconnected-(U5B-PB3-Pad4_15)*%
X156120000Y-95780000D03*
%TD*%
D15*
%TO.P,U6,1,~{CS}*%
%TO.N,SPI_CS_FRAM0*%
X109000000Y-116380000D03*
D11*
%TO.P,U6,2,SO*%
%TO.N,SPI_MISO*%
X109000000Y-118920000D03*
%TO.P,U6,3,~{WP}*%
%TO.N,GND*%
X109000000Y-121460000D03*
%TO.P,U6,4,GND*%
X109000000Y-124000000D03*
%TO.P,U6,5,SI*%
%TO.N,SPI_MOSI*%
X116620000Y-124000000D03*
%TO.P,U6,6,SCK*%
%TO.N,SPI_SCLK*%
X116620000Y-121460000D03*
%TO.P,U6,7,~{HOLD}*%
%TO.N,GND*%
X116620000Y-118920000D03*
%TO.P,U6,8,VDD*%
%TO.N,MEMORY_POWER*%
X116620000Y-116380000D03*
%TD*%
D18*
%TO.P,J2,1,Pin_1*%
%TO.N,+12V*%
X162000000Y-131690000D03*
D19*
%TO.P,J2,2,Pin_2*%
X162000000Y-133690000D03*
%TO.P,J2,3,Pin_3*%
%TO.N,CAN_L*%
X164000000Y-131690000D03*
%TO.P,J2,4,Pin_4*%
X164000000Y-133690000D03*
%TO.P,J2,5,Pin_5*%
%TO.N,GND*%
X166000000Y-131690000D03*
%TO.P,J2,6,Pin_6*%
X166000000Y-133690000D03*
%TO.P,J2,7,Pin_7*%
%TO.N,CAN_H*%
X168000000Y-131690000D03*
%TO.P,J2,8,Pin_8*%
X168000000Y-133690000D03*
%TD*%
D16*
%TO.P,J3,1,Pin_1*%
%TO.N,GND*%
X127230000Y-132690000D03*
%TO.P,J3,2,Pin_2*%
%TO.N,THERMISTOR*%
X129770000Y-132690000D03*
%TD*%
D14*
%TO.P,TP1,1,1*%
%TO.N,CAN_H*%
X175100000Y-124949432D03*
%TD*%
D15*
%TO.P,U7,1,~{CS}*%
%TO.N,SPI_CS_FRAM1*%
X109000000Y-103880000D03*
D11*
%TO.P,U7,2,SO*%
%TO.N,SPI_MISO*%
X109000000Y-106420000D03*
%TO.P,U7,3,~{WP}*%
%TO.N,GND*%
X109000000Y-108960000D03*
%TO.P,U7,4,GND*%
X109000000Y-111500000D03*
%TO.P,U7,5,SI*%
%TO.N,SPI_MOSI*%
X116620000Y-111500000D03*
%TO.P,U7,6,SCK*%
%TO.N,SPI_SCLK*%
X116620000Y-108960000D03*
%TO.P,U7,7,~{HOLD}*%
%TO.N,GND*%
X116620000Y-106420000D03*
%TO.P,U7,8,VDD*%
%TO.N,MEMORY_POWER*%
X116620000Y-103880000D03*
%TD*%
D20*
%TO.N,GND*%
X157600000Y-110800000D03*
X179400000Y-118600000D03*
X177600000Y-94800000D03*
X145400000Y-85600000D03*
X163800000Y-105600000D03*
X157600000Y-113800000D03*
X166000000Y-102600000D03*
X165100000Y-114449432D03*
X135900000Y-57449432D03*
X133400000Y-113000000D03*
X135600000Y-101000000D03*
X156200000Y-127400000D03*
X136400000Y-111600000D03*
X138400000Y-76000000D03*
X134500000Y-110749432D03*
X103800000Y-111400000D03*
X147400000Y-99600000D03*
X163600000Y-108800000D03*
X142400000Y-79800000D03*
X155400000Y-120600000D03*
X158200000Y-85600000D03*
X164400000Y-143200000D03*
X170600000Y-116400000D03*
X170400000Y-124200000D03*
X163600000Y-129200000D03*
X156200000Y-107800000D03*
X169800000Y-91600000D03*
X122000000Y-86400000D03*
X95400000Y-103000000D03*
X146000000Y-126600000D03*
X169600000Y-138600000D03*
X167400000Y-110000000D03*
X135000000Y-84000000D03*
X111600000Y-142600000D03*
X142600000Y-76800000D03*
X147500000Y-66500000D03*
X132200000Y-104400000D03*
X170800000Y-119600000D03*
X113400000Y-116400000D03*
X159100000Y-65949432D03*
X129400000Y-113000000D03*
X174600000Y-110000000D03*
X122600000Y-89200000D03*
X153200000Y-71400000D03*
X145400000Y-94000000D03*
X149000000Y-112200000D03*
X183000000Y-121400000D03*
X157300000Y-71749432D03*
X147400000Y-87600000D03*
X142400000Y-92600000D03*
X163200000Y-113000000D03*
X174000000Y-105600000D03*
X185800000Y-88600000D03*
X120800000Y-115600000D03*
X190000000Y-102175000D03*
X163600000Y-122400000D03*
X118400000Y-115600000D03*
X137400000Y-108200000D03*
X152600000Y-109600000D03*
X170217000Y-106600432D03*
X117000000Y-89200000D03*
X154400000Y-76800000D03*
X163600000Y-71000000D03*
X175000000Y-120749432D03*
X111600000Y-119800000D03*
X160400000Y-102400000D03*
X160400000Y-131000000D03*
X141000000Y-106600000D03*
X150400000Y-79949432D03*
X163600000Y-81600000D03*
X154400000Y-74000000D03*
X154400000Y-79400000D03*
X159600000Y-116200000D03*
X167400000Y-86000000D03*
X149400000Y-78349432D03*
X121600000Y-66600000D03*
X139800000Y-125400000D03*
X111800000Y-100400000D03*
X118400000Y-102800000D03*
X166788000Y-107235432D03*
X113600000Y-82600000D03*
X160400000Y-113000000D03*
X139800000Y-58400000D03*
X136800000Y-84600000D03*
X169600000Y-129200000D03*
X153000000Y-102600000D03*
X149800000Y-121200000D03*
X118400000Y-112600000D03*
X112800000Y-86800000D03*
X174800000Y-86400000D03*
X147400000Y-77800000D03*
X146300000Y-113549432D03*
X132200000Y-128000000D03*
X153800000Y-83749432D03*
X122000000Y-93600000D03*
X125200000Y-56600000D03*
X111200000Y-81600000D03*
X139800000Y-105000000D03*
X183200000Y-112400000D03*
X179600000Y-103800000D03*
X157200000Y-79249432D03*
X160400000Y-87000000D03*
X177800000Y-86400000D03*
X102000000Y-130800000D03*
X154600000Y-57400000D03*
X144200000Y-134200000D03*
X130200000Y-102400000D03*
X194200000Y-132200000D03*
X160600000Y-110800000D03*
X134800000Y-97800000D03*
X167000000Y-92400000D03*
X163200000Y-116400000D03*
X132100000Y-110049432D03*
X147357000Y-109521432D03*
X102800000Y-91600000D03*
X155000000Y-87000000D03*
X151600000Y-98800000D03*
X151600000Y-88200000D03*
X139800000Y-101800000D03*
X167400000Y-95600000D03*
X142800000Y-90000000D03*
X163200000Y-118600000D03*
X172200000Y-66800000D03*
X144400000Y-114600000D03*
X96200000Y-115800000D03*
X109800000Y-68400000D03*
X129200000Y-126600000D03*
X163400000Y-102600000D03*
X162600000Y-95000000D03*
X144400000Y-121200000D03*
X200600000Y-117800000D03*
X135400000Y-143200000D03*
X145400000Y-79200000D03*
X136800000Y-81800000D03*
X145400000Y-101800000D03*
X125000000Y-80600000D03*
X197800000Y-84600000D03*
X114600000Y-111200000D03*
X117600000Y-126400000D03*
X185200000Y-143200000D03*
X168400000Y-98400000D03*
X120600000Y-112600000D03*
X125000000Y-105200000D03*
X155000000Y-89600000D03*
X202200000Y-103000000D03*
X171600000Y-56600000D03*
X168312000Y-104949432D03*
X187200000Y-68000000D03*
X120800000Y-119600000D03*
X192200000Y-117600000D03*
X157200000Y-94600000D03*
X165100000Y-118649432D03*
X185400000Y-133000000D03*
X120200000Y-100200000D03*
X178400000Y-113000000D03*
X182000000Y-114800000D03*
X162800000Y-61749432D03*
X99000000Y-84600000D03*
X125200000Y-90800000D03*
X138400000Y-83000000D03*
X158800000Y-92400000D03*
X172600000Y-95000000D03*
X177000000Y-98600000D03*
X138400000Y-88800000D03*
X134800000Y-87200000D03*
X115000000Y-95200000D03*
X160600000Y-106400000D03*
X128200000Y-115800000D03*
X147600000Y-51200000D03*
X156200000Y-102000000D03*
%TO.N,+5V*%
X160200000Y-115200000D03*
X166000000Y-117500000D03*
X165000000Y-117500000D03*
X159600000Y-114600000D03*
%TO.N,+3.3V*%
X163201000Y-109925500D03*
X164000000Y-110724500D03*
X158550000Y-107400000D03*
X158550000Y-108750000D03*
X164200000Y-109925500D03*
%TO.N,CAN_TX*%
X152997046Y-105062447D03*
X143900000Y-80700000D03*
X166000000Y-110000000D03*
%TO.N,CAN_RX*%
X165177442Y-110750018D03*
X152250000Y-105750000D03*
%TO.N,THERMISTOR*%
X146825000Y-108675000D03*
%TO.N,SPI_SCLK*%
X139500000Y-108500000D03*
X112500000Y-106500000D03*
%TO.N,SPI_MOSI*%
X135500000Y-106012299D03*
%TO.N,SPI_MISO*%
X141000000Y-107512299D03*
%TO.N,SPI_CS_SD*%
X144250000Y-109250000D03*
%TO.N,SPI_CS_FRAM1*%
X141500000Y-110000000D03*
X129087500Y-112087500D03*
%TO.N,SPI_CS_FRAM0*%
X142261865Y-110738135D03*
X133087500Y-112087500D03*
%TO.N,MEMORY_POWER_CONTROL*%
X147000000Y-112500000D03*
X147000000Y-110500000D03*
%TO.N,MEMORY_POWER*%
X123600000Y-118000000D03*
X124200000Y-118000000D03*
%TO.N,I2C_SDA*%
X170587216Y-105087216D03*
X152000000Y-103500000D03*
%TO.N,I2C_SCL*%
X152000000Y-104500000D03*
X163500000Y-104500000D03*
%TO.N,SD_STATUS*%
X135000000Y-86000000D03*
%TO.N,CAN_SEND_STATUS*%
X151995123Y-107612861D03*
X168000000Y-112104500D03*
%TO.N,CAN_RECEIVE_STATUS*%
X168454500Y-111500000D03*
X152352606Y-107000000D03*
%TO.N,RECORD_STATUS*%
X134500000Y-100000000D03*
X131000000Y-103500000D03*
%TO.N,SD_CHECK*%
X135000000Y-81500000D03*
%TD*%
D21*
%TO.N,+5V*%
X159600000Y-114600000D02*
X162500000Y-117500000D01*
X162500000Y-117500000D02*
X165000000Y-117500000D01*
X166000000Y-117500000D02*
X165000000Y-117500000D01*
%TO.N,+3.3V*%
X159725500Y-109925500D02*
X163201000Y-109925500D01*
X163201000Y-109925500D02*
X164200000Y-109925500D01*
X158550000Y-108750000D02*
X159725500Y-109925500D01*
X158550000Y-108750000D02*
X158550000Y-107400000D01*
X164000000Y-110724500D02*
X163201000Y-109925500D01*
D22*
%TO.N,CAN_TX*%
X143900000Y-80700000D02*
X143900000Y-71700000D01*
X166000000Y-110000000D02*
X166000000Y-109434314D01*
X153009599Y-105075000D02*
X152997046Y-105062447D01*
X166000000Y-109434314D02*
X161640686Y-105075000D01*
X143900000Y-71700000D02*
X142580000Y-70380000D01*
X161640686Y-105075000D02*
X153009599Y-105075000D01*
X142580000Y-70380000D02*
X140880000Y-70380000D01*
%TO.N,CAN_RX*%
X165177442Y-110750018D02*
X165177442Y-109177442D01*
X153750000Y-105500000D02*
X153500000Y-105750000D01*
X153500000Y-105750000D02*
X152250000Y-105750000D01*
X165177442Y-109177442D02*
X161500000Y-105500000D01*
X161500000Y-105500000D02*
X153750000Y-105500000D01*
D23*
%TO.N,THERMISTOR*%
X131000000Y-126500000D02*
X129770000Y-127730000D01*
X146825000Y-108675000D02*
X145500000Y-110000000D01*
X145500000Y-125500000D02*
X144500000Y-126500000D01*
X129770000Y-127730000D02*
X129770000Y-132690000D01*
X145500000Y-110000000D02*
X145500000Y-125500000D01*
X144500000Y-126500000D02*
X131000000Y-126500000D01*
D22*
%TO.N,SPI_SCLK*%
X142000000Y-108500000D02*
X150500000Y-100000000D01*
X112500000Y-106500000D02*
X114960000Y-108960000D01*
X150500000Y-81000000D02*
X153500000Y-78000000D01*
X139500000Y-108500000D02*
X142000000Y-108500000D01*
X114960000Y-108960000D02*
X116620000Y-108960000D01*
X150500000Y-100000000D02*
X150500000Y-81000000D01*
X153500000Y-78000000D02*
X156120000Y-78000000D01*
%TO.N,SPI_MOSI*%
X148500000Y-78000000D02*
X153580000Y-72920000D01*
X148500000Y-100000000D02*
X148500000Y-78000000D01*
X142500000Y-106000000D02*
X148500000Y-100000000D01*
X153580000Y-72920000D02*
X156120000Y-72920000D01*
X135512299Y-106000000D02*
X142500000Y-106000000D01*
X135500000Y-106012299D02*
X135512299Y-106000000D01*
%TO.N,SPI_MISO*%
X153540000Y-75460000D02*
X156120000Y-75460000D01*
X141987701Y-107512299D02*
X149500000Y-100000000D01*
X141000000Y-107512299D02*
X141987701Y-107512299D01*
X149500000Y-100000000D02*
X149500000Y-79500000D01*
X149500000Y-79500000D02*
X153540000Y-75460000D01*
%TO.N,SPI_CS_SD*%
X144250000Y-109250000D02*
X145000000Y-108500000D01*
X153500000Y-99500000D02*
X153500000Y-89500000D01*
X153500000Y-89500000D02*
X154840000Y-88160000D01*
X145000000Y-108000000D02*
X153500000Y-99500000D01*
X145000000Y-108500000D02*
X145000000Y-108000000D01*
X154840000Y-88160000D02*
X156120000Y-88160000D01*
%TO.N,SPI_CS_FRAM1*%
X141691382Y-110000000D02*
X152550000Y-99141382D01*
X152550000Y-99141382D02*
X152550000Y-82950000D01*
X129087500Y-112087500D02*
X127675000Y-113500000D01*
X154960000Y-80540000D02*
X156120000Y-80540000D01*
X127675000Y-113500000D02*
X112500000Y-113500000D01*
X111000000Y-105000000D02*
X109880000Y-103880000D01*
X141500000Y-110000000D02*
X141691382Y-110000000D01*
X109880000Y-103880000D02*
X109000000Y-103880000D01*
X112500000Y-113500000D02*
X111000000Y-112000000D01*
X111000000Y-112000000D02*
X111000000Y-105000000D01*
X152550000Y-82950000D02*
X154960000Y-80540000D01*
%TO.N,SPI_CS_FRAM0*%
X131175000Y-114000000D02*
X111380000Y-114000000D01*
X153000000Y-86200000D02*
X156120000Y-83080000D01*
X142261865Y-110738135D02*
X143000000Y-110000000D01*
X111380000Y-114000000D02*
X109000000Y-116380000D01*
X133087500Y-112087500D02*
X131175000Y-114000000D01*
X143000000Y-110000000D02*
X143000000Y-109373557D01*
X153000000Y-99373557D02*
X153000000Y-86200000D01*
X143000000Y-109373557D02*
X153000000Y-99373557D01*
D23*
%TO.N,MEMORY_POWER_CONTROL*%
X147000000Y-112500000D02*
X147000000Y-110500000D01*
D21*
%TO.N,MEMORY_POWER*%
X123600000Y-118000000D02*
X118240000Y-118000000D01*
X118240000Y-118000000D02*
X116620000Y-116380000D01*
X124200000Y-118000000D02*
X123600000Y-118000000D01*
D22*
%TO.N,I2C_SDA*%
X170587216Y-105087216D02*
X169000000Y-103500000D01*
X169000000Y-103500000D02*
X152000000Y-103500000D01*
%TO.N,I2C_SCL*%
X163500000Y-104500000D02*
X152000000Y-104500000D01*
D23*
%TO.N,SD_STATUS*%
X135000000Y-86000000D02*
X137000000Y-86000000D01*
X137000000Y-86000000D02*
X139160000Y-88160000D01*
X139160000Y-88160000D02*
X140880000Y-88160000D01*
%TO.N,CAN_SEND_STATUS*%
X156486762Y-112104500D02*
X168000000Y-112104500D01*
X151995123Y-107612861D02*
X156486762Y-112104500D01*
%TO.N,CAN_RECEIVE_STATUS*%
X156852606Y-111500000D02*
X168454500Y-111500000D01*
X152352606Y-107000000D02*
X156852606Y-111500000D01*
%TO.N,RECORD_STATUS*%
X131000000Y-103500000D02*
X134500000Y-100000000D01*
D22*
%TO.N,SD_CHECK*%
X135000000Y-81500000D02*
X139120000Y-85620000D01*
X139120000Y-85620000D02*
X140880000Y-85620000D01*
%TD*%
%TA.AperFunction,Conductor*%
%TO.N,GND*%
G36*
X149237930Y-50304921D02*
G01*
X150709866Y-50344600D01*
X150711517Y-50344667D01*
X152181902Y-50423999D01*
X152183480Y-50424105D01*
X153651289Y-50543039D01*
X153652821Y-50543185D01*
X155116823Y-50701621D01*
X155118471Y-50701822D01*
X156577633Y-50899648D01*
X156579181Y-50899878D01*
X158032561Y-51136965D01*
X158034164Y-51137249D01*
X159480528Y-51413395D01*
X159482157Y-51413728D01*
X160920595Y-51728759D01*
X160922186Y-51729131D01*
X162351579Y-52082800D01*
X162353117Y-52083202D01*
X163772548Y-52475286D01*
X163774060Y-52475726D01*
X165182377Y-52905907D01*
X165183960Y-52906414D01*
X166580132Y-53374376D01*
X166581652Y-53374908D01*
X167964724Y-53880329D01*
X167966227Y-53880900D01*
X169335191Y-54423414D01*
X169336713Y-54424041D01*
X170690502Y-55003222D01*
X170692033Y-55003901D01*
X172029779Y-55619378D01*
X172031205Y-55620058D01*
X172968972Y-56082526D01*
X173351855Y-56271349D01*
X173353355Y-56272114D01*
X174655930Y-56958731D01*
X174657405Y-56959534D01*
X175941046Y-57681027D01*
X175942456Y-57681844D01*
X177206215Y-58437682D01*
X177207565Y-58438514D01*
X178450509Y-59228139D01*
X178451880Y-59229036D01*
X178738129Y-59421906D01*
X179673036Y-60051830D01*
X179674418Y-60052789D01*
X180872971Y-60908198D01*
X180874261Y-60909145D01*
X182049379Y-61796580D01*
X182050660Y-61797575D01*
X182979918Y-62539495D01*
X183201366Y-62716299D01*
X183202657Y-62717357D01*
X183514622Y-62980504D01*
X184328216Y-63666780D01*
X184329488Y-63667883D01*
X185429025Y-64647264D01*
X185430268Y-64648402D01*
X186502989Y-65657034D01*
X186504200Y-65658204D01*
X187549390Y-66695414D01*
X187550550Y-66696596D01*
X188304699Y-67486446D01*
X188567412Y-67761596D01*
X188568548Y-67762819D01*
X189015988Y-68257468D01*
X189556334Y-68854826D01*
X189557447Y-68856090D01*
X190515457Y-69974330D01*
X190516535Y-69975624D01*
X191444033Y-71119237D01*
X191445076Y-71120559D01*
X192341421Y-72288748D01*
X192342429Y-72290099D01*
X193207007Y-73482074D01*
X193207977Y-73483450D01*
X194040080Y-74698229D01*
X194041013Y-74699631D01*
X194840095Y-75936418D01*
X194840990Y-75937845D01*
X195606459Y-77195725D01*
X195607315Y-77197176D01*
X196338592Y-78475195D01*
X196339409Y-78476668D01*
X197035996Y-79773957D01*
X197036773Y-79775452D01*
X197698148Y-81091039D01*
X197698883Y-81092552D01*
X198076112Y-81896187D01*
X198324561Y-82425472D01*
X198325252Y-82426997D01*
X198383076Y-82559342D01*
X198914781Y-83776287D01*
X198915435Y-83777839D01*
X199468412Y-85142579D01*
X199469023Y-85144149D01*
X199984997Y-86523223D01*
X199985566Y-86524808D01*
X200464201Y-87917321D01*
X200464727Y-87918921D01*
X200905661Y-89323813D01*
X200906144Y-89325427D01*
X201309063Y-90741704D01*
X201309502Y-90743330D01*
X201674109Y-92169943D01*
X201674504Y-92171580D01*
X202000541Y-93607534D01*
X202000891Y-93609182D01*
X202288098Y-95053307D01*
X202288405Y-95054963D01*
X202536609Y-96506410D01*
X202536870Y-96508074D01*
X202745861Y-97965600D01*
X202746078Y-97967270D01*
X202915724Y-99429971D01*
X202915895Y-99431647D01*
X203046056Y-100898306D01*
X203046183Y-100899986D01*
X203136779Y-102369688D01*
X203136860Y-102371370D01*
X203187818Y-103842982D01*
X203187853Y-103844666D01*
X203199137Y-105317077D01*
X203199127Y-105318761D01*
X203170730Y-106790941D01*
X203170675Y-106792625D01*
X203102615Y-108263508D01*
X203102515Y-108265189D01*
X202994843Y-109733742D01*
X202994697Y-109735420D01*
X202847492Y-111200505D01*
X202847301Y-111202179D01*
X202660669Y-112662777D01*
X202660433Y-112664445D01*
X202434509Y-114119479D01*
X202434228Y-114121139D01*
X202169182Y-115569531D01*
X202168857Y-115571184D01*
X201864866Y-117011959D01*
X201864496Y-117013602D01*
X201521800Y-118445626D01*
X201521386Y-118447259D01*
X201140220Y-119869545D01*
X201139762Y-119871166D01*
X200720404Y-121282675D01*
X200719902Y-121284283D01*
X200262679Y-122683921D01*
X200262135Y-122685515D01*
X199767331Y-124072415D01*
X199766743Y-124073993D01*
X199234787Y-125446945D01*
X199234158Y-125448508D01*
X198665349Y-126806740D01*
X198664677Y-126808284D01*
X198059508Y-128150622D01*
X198058795Y-128152148D01*
X197417682Y-129477672D01*
X197416929Y-129479179D01*
X196740291Y-130787021D01*
X196739497Y-130788506D01*
X196027877Y-132077611D01*
X196027043Y-132079074D01*
X195280961Y-133348506D01*
X195280088Y-133349947D01*
X194500039Y-134598861D01*
X194499127Y-134600277D01*
X193685751Y-135827650D01*
X193684802Y-135829042D01*
X192838611Y-137034102D01*
X192837625Y-137035467D01*
X191959268Y-138217287D01*
X191958245Y-138218625D01*
X191048365Y-139376340D01*
X191047306Y-139377650D01*
X190106596Y-140510382D01*
X190105503Y-140511664D01*
X189134544Y-141618711D01*
X189133416Y-141619962D01*
X188133015Y-142700401D01*
X188131854Y-142701621D01*
X187102720Y-143754691D01*
X187101527Y-143755880D01*
X186146461Y-144681872D01*
X186102955Y-144699500D01*
X110897045Y-144699500D01*
X110853539Y-144681872D01*
X109898472Y-143755880D01*
X109897279Y-143754691D01*
X108868145Y-142701621D01*
X108866984Y-142700401D01*
X107866583Y-141619962D01*
X107865455Y-141618711D01*
X106894496Y-140511664D01*
X106893403Y-140510382D01*
X105952693Y-139377650D01*
X105951634Y-139376340D01*
X105041754Y-138218625D01*
X105040731Y-138217287D01*
X104162374Y-137035467D01*
X104161388Y-137034102D01*
X103315197Y-135829042D01*
X103314248Y-135827650D01*
X103228775Y-135698673D01*
X102713610Y-134921296D01*
X116045717Y-134921296D01*
X116055802Y-135235789D01*
X116106021Y-135546410D01*
X116151211Y-135698670D01*
X116195549Y-135848059D01*
X116322916Y-136135786D01*
X116406058Y-136272936D01*
X116486030Y-136404858D01*
X116682214Y-136650865D01*
X116682215Y-136650866D01*
X116908246Y-136869765D01*
X117160415Y-137057963D01*
X117434578Y-137212370D01*
X117591962Y-137276087D01*
X117726238Y-137330449D01*
X118030601Y-137410263D01*
X118342673Y-137450500D01*
X118578573Y-137450500D01*
X118578580Y-137450500D01*
X118814008Y-137435385D01*
X119122860Y-137375236D01*
X119421485Y-137276086D01*
X119704979Y-137139562D01*
X119968687Y-136967907D01*
X120208280Y-136763939D01*
X120419822Y-136531007D01*
X120599842Y-136272936D01*
X120745381Y-135993964D01*
X120854052Y-135698670D01*
X120924069Y-135391905D01*
X120954283Y-135078704D01*
X120944198Y-134764211D01*
X120893979Y-134453590D01*
X120804451Y-134151941D01*
X120720453Y-133962188D01*
X120677083Y-133864213D01*
X120630261Y-133786976D01*
X126486575Y-133786976D01*
X126564967Y-133841866D01*
X126775093Y-133939849D01*
X126999036Y-133999854D01*
X127230000Y-134020061D01*
X127460963Y-133999854D01*
X127684906Y-133939849D01*
X127895028Y-133841867D01*
X127973422Y-133786975D01*
X127230000Y-133043553D01*
X126486575Y-133786976D01*
X120630261Y-133786976D01*
X120513971Y-133595144D01*
X120513970Y-133595142D01*
X120317786Y-133349135D01*
X120264811Y-133297832D01*
X120091753Y-133130234D01*
X119839584Y-132942036D01*
X119565421Y-132787629D01*
X119324271Y-132689999D01*
X125899938Y-132689999D01*
X125920145Y-132920963D01*
X125980150Y-133144906D01*
X126078133Y-133355032D01*
X126133022Y-133433423D01*
X126876447Y-132690000D01*
X127583553Y-132690000D01*
X128326975Y-133433422D01*
X128381867Y-133355028D01*
X128479849Y-133144906D01*
X128541270Y-132915681D01*
X128542194Y-132915928D01*
X128557746Y-132882400D01*
X128596184Y-132864201D01*
X128637368Y-132874810D01*
X128662229Y-132909315D01*
X128697163Y-133032093D01*
X128716006Y-133098319D01*
X128808981Y-133285038D01*
X128934682Y-133451493D01*
X129088829Y-133592016D01*
X129266172Y-133701823D01*
X129266175Y-133701824D01*
X129449268Y-133772755D01*
X129460673Y-133777173D01*
X129665707Y-133815500D01*
X129874292Y-133815500D01*
X129874293Y-133815500D01*
X130026885Y-133786976D01*
X152486575Y-133786976D01*
X152564967Y-133841866D01*
X152775093Y-133939849D01*
X152999036Y-133999854D01*
X153230000Y-134020061D01*
X153460963Y-133999854D01*
X153590533Y-133965136D01*
X160979500Y-133965136D01*
X160994265Y-134115051D01*
X161052619Y-134307419D01*
X161062384Y-134325688D01*
X161147379Y-134484703D01*
X161274906Y-134640094D01*
X161430297Y-134767621D01*
X161607582Y-134862381D01*
X161799947Y-134920734D01*
X162000000Y-134940438D01*
X162200053Y-134920734D01*
X162392418Y-134862381D01*
X162569703Y-134767621D01*
X162725094Y-134640094D01*
X162852621Y-134484703D01*
X162947381Y-134307418D01*
X163002255Y-134126520D01*
X163024587Y-134094647D01*
X163061450Y-134082167D01*
X163098552Y-134093921D01*
X163121504Y-134125349D01*
X163130145Y-134151941D01*
X163172820Y-134283282D01*
X163267468Y-134447218D01*
X163326168Y-134512410D01*
X163394129Y-134587888D01*
X163547270Y-134699151D01*
X163720197Y-134776144D01*
X163843634Y-134802381D01*
X163905353Y-134815500D01*
X163905354Y-134815500D01*
X164094646Y-134815500D01*
X164094647Y-134815500D01*
X164140935Y-134805661D01*
X164279803Y-134776144D01*
X164452730Y-134699151D01*
X164605871Y-134587888D01*
X164732533Y-134447216D01*
X164827179Y-134283284D01*
X164835379Y-134258045D01*
X164858445Y-134226535D01*
X164895712Y-134214865D01*
X164932631Y-134227594D01*
X164954788Y-134259751D01*
X164974149Y-134325688D01*
X165070410Y-134512410D01*
X165200270Y-134677539D01*
X165359033Y-134815108D01*
X165540964Y-134920146D01*
X165739485Y-134988855D01*
X165750000Y-134990367D01*
X165750000Y-130393741D01*
X165638588Y-130420770D01*
X165447500Y-130508036D01*
X165276374Y-130629895D01*
X165131407Y-130781931D01*
X165017833Y-130958656D01*
X164951968Y-131123178D01*
X164928109Y-131152285D01*
X164891862Y-131162414D01*
X164856370Y-131149893D01*
X164834504Y-131119261D01*
X164827180Y-131096719D01*
X164827179Y-131096717D01*
X164827179Y-131096716D01*
X164732533Y-130932784D01*
X164732532Y-130932783D01*
X164732531Y-130932781D01*
X164660511Y-130852796D01*
X164605871Y-130792112D01*
X164452730Y-130680849D01*
X164279803Y-130603856D01*
X164279801Y-130603855D01*
X164279800Y-130603855D01*
X164094647Y-130564500D01*
X164094646Y-130564500D01*
X163905354Y-130564500D01*
X163905353Y-130564500D01*
X163720199Y-130603855D01*
X163547271Y-130680848D01*
X163547269Y-130680849D01*
X163547270Y-130680849D01*
X163394129Y-130792112D01*
X163394126Y-130792114D01*
X163394126Y-130792115D01*
X163267468Y-130932781D01*
X163172820Y-131096717D01*
X163142440Y-131190218D01*
X163115655Y-131224194D01*
X163073222Y-131232634D01*
X163035474Y-131211494D01*
X163020499Y-131170904D01*
X163020499Y-131075811D01*
X163020499Y-131075806D01*
X163014361Y-131008251D01*
X162965920Y-130852797D01*
X162881683Y-130713453D01*
X162766547Y-130598317D01*
X162627203Y-130514080D01*
X162556833Y-130492152D01*
X162471747Y-130465638D01*
X162404199Y-130459500D01*
X161595810Y-130459500D01*
X161566248Y-130462186D01*
X161528251Y-130465639D01*
X161443164Y-130492152D01*
X161372796Y-130514080D01*
X161233452Y-130598317D01*
X161118317Y-130713452D01*
X161034080Y-130852797D01*
X160985638Y-131008252D01*
X160979500Y-131075800D01*
X160979500Y-132304189D01*
X160981454Y-132325688D01*
X160985639Y-132371749D01*
X161027220Y-132505189D01*
X161034080Y-132527203D01*
X161118317Y-132666547D01*
X161197333Y-132745563D01*
X161215564Y-132786690D01*
X161201453Y-132829406D01*
X161147378Y-132895298D01*
X161052619Y-133072580D01*
X160994265Y-133264948D01*
X160979500Y-133414864D01*
X160979500Y-133965136D01*
X153590533Y-133965136D01*
X153684906Y-133939849D01*
X153895028Y-133841867D01*
X153973422Y-133786975D01*
X153230000Y-133043553D01*
X152486575Y-133786976D01*
X130026885Y-133786976D01*
X130079327Y-133777173D01*
X130273828Y-133701823D01*
X130451171Y-133592016D01*
X130605318Y-133451493D01*
X130731019Y-133285038D01*
X130823994Y-133098319D01*
X130881076Y-132897696D01*
X130900322Y-132690000D01*
X130900322Y-132689999D01*
X151899938Y-132689999D01*
X151920145Y-132920963D01*
X151980150Y-133144906D01*
X152078133Y-133355032D01*
X152133022Y-133433423D01*
X152876447Y-132690000D01*
X153583553Y-132690000D01*
X154326975Y-133433422D01*
X154381867Y-133355028D01*
X154479849Y-133144907D01*
X154482122Y-133136423D01*
X154502316Y-133104719D01*
X154537044Y-133090333D01*
X154573742Y-133098468D01*
X154599137Y-133126181D01*
X154687245Y-133315129D01*
X154812246Y-133493650D01*
X154966349Y-133647753D01*
X155043571Y-133701824D01*
X155144871Y-133772755D01*
X155342387Y-133864858D01*
X155412556Y-133883659D01*
X155552893Y-133921264D01*
X155770000Y-133940258D01*
X155987106Y-133921264D01*
X156057274Y-133902461D01*
X156197613Y-133864858D01*
X156395129Y-133772755D01*
X156573650Y-133647753D01*
X156727753Y-133493650D01*
X156852755Y-133315129D01*
X156944858Y-133117613D01*
X157001264Y-132907105D01*
X157020258Y-132690000D01*
X157016986Y-132652599D01*
X157001264Y-132472893D01*
X156956062Y-132304200D01*
X156944858Y-132262387D01*
X156852755Y-132064871D01*
X156815279Y-132011351D01*
X156727753Y-131886349D01*
X156573650Y-131732246D01*
X156395129Y-131607245D01*
X156197611Y-131515141D01*
X155987106Y-131458735D01*
X155770000Y-131439741D01*
X155552893Y-131458735D01*
X155342388Y-131515141D01*
X155144870Y-131607245D01*
X154966349Y-131732246D01*
X154812246Y-131886349D01*
X154687245Y-132064870D01*
X154599137Y-132253818D01*
X154573742Y-132281531D01*
X154537044Y-132289666D01*
X154502317Y-132275280D01*
X154482122Y-132243577D01*
X154479848Y-132235091D01*
X154381867Y-132024971D01*
X154326974Y-131946577D01*
X153583553Y-132690000D01*
X152876447Y-132690000D01*
X152133023Y-131946576D01*
X152078133Y-132024968D01*
X151980150Y-132235093D01*
X151920145Y-132459036D01*
X151899938Y-132689999D01*
X130900322Y-132689999D01*
X130881076Y-132482304D01*
X130823994Y-132281681D01*
X130812875Y-132259351D01*
X130809045Y-132249738D01*
X130804809Y-132235858D01*
X130509862Y-131593023D01*
X152486576Y-131593023D01*
X153229999Y-132336446D01*
X153973423Y-131593022D01*
X153895032Y-131538133D01*
X153684906Y-131440150D01*
X153460963Y-131380145D01*
X153230000Y-131359938D01*
X152999036Y-131380145D01*
X152775093Y-131440150D01*
X152564968Y-131538133D01*
X152486576Y-131593023D01*
X130509862Y-131593023D01*
X130226194Y-130974770D01*
X130220500Y-130948707D01*
X130220500Y-130389633D01*
X166250000Y-130389633D01*
X166250000Y-134986258D01*
X166361411Y-134959229D01*
X166444474Y-134921296D01*
X176045717Y-134921296D01*
X176055802Y-135235789D01*
X176106021Y-135546410D01*
X176151211Y-135698670D01*
X176195549Y-135848059D01*
X176322916Y-136135786D01*
X176406058Y-136272936D01*
X176486030Y-136404858D01*
X176682214Y-136650865D01*
X176682215Y-136650866D01*
X176908246Y-136869765D01*
X177160415Y-137057963D01*
X177434578Y-137212370D01*
X177591962Y-137276087D01*
X177726238Y-137330449D01*
X178030601Y-137410263D01*
X178342673Y-137450500D01*
X178578573Y-137450500D01*
X178578580Y-137450500D01*
X178814008Y-137435385D01*
X179122860Y-137375236D01*
X179421485Y-137276086D01*
X179704979Y-137139562D01*
X179968687Y-136967907D01*
X180208280Y-136763939D01*
X180419822Y-136531007D01*
X180599842Y-136272936D01*
X180745381Y-135993964D01*
X180854052Y-135698670D01*
X180924069Y-135391905D01*
X180954283Y-135078704D01*
X180944198Y-134764211D01*
X180893979Y-134453590D01*
X180804451Y-134151941D01*
X180720453Y-133962188D01*
X180677083Y-133864213D01*
X180513971Y-133595144D01*
X180513970Y-133595142D01*
X180317786Y-133349135D01*
X180264811Y-133297832D01*
X180091753Y-133130234D01*
X179839584Y-132942036D01*
X179565421Y-132787629D01*
X179273766Y-132669552D01*
X178969397Y-132589736D01*
X178657327Y-132549500D01*
X178421420Y-132549500D01*
X178185992Y-132564615D01*
X178185988Y-132564615D01*
X178185984Y-132564616D01*
X177877143Y-132624763D01*
X177578519Y-132723912D01*
X177295014Y-132860441D01*
X177031312Y-133032093D01*
X176791721Y-133236059D01*
X176580178Y-133468992D01*
X176400157Y-133727065D01*
X176254618Y-134006036D01*
X176152589Y-134283284D01*
X176145948Y-134301330D01*
X176144558Y-134307419D01*
X176075930Y-134608097D01*
X176051400Y-134862381D01*
X176045717Y-134921296D01*
X166444474Y-134921296D01*
X166552499Y-134871963D01*
X166723625Y-134750104D01*
X166868592Y-134598068D01*
X166982166Y-134421343D01*
X167048031Y-134256821D01*
X167071889Y-134227714D01*
X167108136Y-134217585D01*
X167143628Y-134230106D01*
X167165494Y-134260736D01*
X167172821Y-134283284D01*
X167197303Y-134325688D01*
X167267468Y-134447218D01*
X167326168Y-134512410D01*
X167394129Y-134587888D01*
X167547270Y-134699151D01*
X167720197Y-134776144D01*
X167843634Y-134802381D01*
X167905353Y-134815500D01*
X167905354Y-134815500D01*
X168094646Y-134815500D01*
X168094647Y-134815500D01*
X168140935Y-134805661D01*
X168279803Y-134776144D01*
X168452730Y-134699151D01*
X168605871Y-134587888D01*
X168732533Y-134447216D01*
X168827179Y-134283284D01*
X168885674Y-134103256D01*
X168900500Y-133962192D01*
X168900500Y-133417808D01*
X168885674Y-133276744D01*
X168827179Y-133096716D01*
X168732533Y-132932784D01*
X168732532Y-132932783D01*
X168732531Y-132932781D01*
X168605871Y-132792112D01*
X168534919Y-132740562D01*
X168512215Y-132709312D01*
X168512215Y-132670685D01*
X168534917Y-132639438D01*
X168605871Y-132587888D01*
X168732533Y-132447216D01*
X168827179Y-132283284D01*
X168885674Y-132103256D01*
X168900500Y-131962192D01*
X168900500Y-131417808D01*
X168885674Y-131276744D01*
X168827179Y-131096716D01*
X168732533Y-130932784D01*
X168732532Y-130932783D01*
X168732531Y-130932781D01*
X168660511Y-130852796D01*
X168605871Y-130792112D01*
X168452730Y-130680849D01*
X168279803Y-130603856D01*
X168279801Y-130603855D01*
X168279800Y-130603855D01*
X168094647Y-130564500D01*
X168094646Y-130564500D01*
X167905354Y-130564500D01*
X167905353Y-130564500D01*
X167720199Y-130603855D01*
X167547271Y-130680848D01*
X167547269Y-130680849D01*
X167547270Y-130680849D01*
X167394129Y-130792112D01*
X167394126Y-130792114D01*
X167394126Y-130792115D01*
X167267468Y-130932781D01*
X167172821Y-131096716D01*
X167164620Y-131121955D01*
X167141553Y-131153465D01*
X167104286Y-131165134D01*
X167067367Y-131152405D01*
X167045211Y-131120248D01*
X167025850Y-131054310D01*
X166929589Y-130867589D01*
X166799729Y-130702460D01*
X166640966Y-130564891D01*
X166459035Y-130459853D01*
X166260514Y-130391144D01*
X166250000Y-130389633D01*
X130220500Y-130389633D01*
X130220500Y-127942492D01*
X130238806Y-127898298D01*
X131168297Y-126968806D01*
X131188573Y-126955258D01*
X131212491Y-126950500D01*
X144471189Y-126950500D01*
X144478187Y-126950893D01*
X144517035Y-126955270D01*
X144574361Y-126944422D01*
X144576611Y-126944040D01*
X144611644Y-126938760D01*
X144634282Y-126935349D01*
X144634282Y-126935348D01*
X144634287Y-126935348D01*
X144634605Y-126935194D01*
X144650119Y-126930090D01*
X144650472Y-126930023D01*
X144650471Y-126930023D01*
X144702059Y-126902757D01*
X144704086Y-126901733D01*
X144756642Y-126876425D01*
X144756909Y-126876176D01*
X144770217Y-126866736D01*
X144770301Y-126866691D01*
X144770538Y-126866566D01*
X144811787Y-126825315D01*
X144813442Y-126823721D01*
X144856194Y-126784055D01*
X144856376Y-126783739D01*
X144866307Y-126770795D01*
X145798186Y-125838915D01*
X145803385Y-125834268D01*
X145833970Y-125809879D01*
X145866838Y-125761669D01*
X145868161Y-125759804D01*
X145902793Y-125712882D01*
X145902910Y-125712545D01*
X145910265Y-125697975D01*
X145910472Y-125697673D01*
X145927678Y-125641888D01*
X145928383Y-125639745D01*
X145947646Y-125584699D01*
X145947659Y-125584338D01*
X145950394Y-125568244D01*
X145950500Y-125567901D01*
X145950500Y-125509603D01*
X145950544Y-125507265D01*
X145952725Y-125448992D01*
X145952724Y-125448991D01*
X145952725Y-125448990D01*
X145952629Y-125448634D01*
X145950500Y-125432458D01*
X145950500Y-124949432D01*
X170469615Y-124949432D01*
X170489124Y-125184866D01*
X170547117Y-125413877D01*
X170600388Y-125535323D01*
X170642014Y-125630221D01*
X170771224Y-125827992D01*
X170771225Y-125827993D01*
X170931227Y-126001800D01*
X171117654Y-126146902D01*
X171325421Y-126259340D01*
X171548861Y-126336048D01*
X171781880Y-126374932D01*
X172018118Y-126374932D01*
X172018120Y-126374932D01*
X172251139Y-126336048D01*
X172474579Y-126259340D01*
X172682346Y-126146902D01*
X172868773Y-126001800D01*
X173028775Y-125827993D01*
X173157986Y-125630220D01*
X173252883Y-125413877D01*
X173310876Y-125184866D01*
X173330385Y-124949432D01*
X173669615Y-124949432D01*
X173689124Y-125184866D01*
X173747117Y-125413877D01*
X173800388Y-125535323D01*
X173842014Y-125630221D01*
X173971224Y-125827992D01*
X173971225Y-125827993D01*
X174131227Y-126001800D01*
X174317654Y-126146902D01*
X174525421Y-126259340D01*
X174748861Y-126336048D01*
X174981880Y-126374932D01*
X175218118Y-126374932D01*
X175218120Y-126374932D01*
X175451139Y-126336048D01*
X175674579Y-126259340D01*
X175882346Y-126146902D01*
X176068773Y-126001800D01*
X176228775Y-125827993D01*
X176357986Y-125630220D01*
X176452883Y-125413877D01*
X176510876Y-125184866D01*
X176530385Y-124949432D01*
X176510876Y-124713998D01*
X176452883Y-124484987D01*
X176357986Y-124268644D01*
X176317014Y-124205932D01*
X176228775Y-124070871D01*
X176163532Y-123999999D01*
X176068773Y-123897064D01*
X175882346Y-123751962D01*
X175674579Y-123639524D01*
X175451139Y-123562816D01*
X175218120Y-123523932D01*
X174981880Y-123523932D01*
X174791433Y-123555712D01*
X174748861Y-123562816D01*
X174525418Y-123639525D01*
X174317652Y-123751963D01*
X174131229Y-123897062D01*
X173971224Y-124070871D01*
X173842014Y-124268642D01*
X173804769Y-124353553D01*
X173747117Y-124484987D01*
X173689124Y-124713998D01*
X173669615Y-124949432D01*
X173330385Y-124949432D01*
X173310876Y-124713998D01*
X173252883Y-124484987D01*
X173157986Y-124268644D01*
X173117014Y-124205932D01*
X173028775Y-124070871D01*
X172963532Y-123999999D01*
X172868773Y-123897064D01*
X172682346Y-123751962D01*
X172474579Y-123639524D01*
X172251139Y-123562816D01*
X172018120Y-123523932D01*
X171781880Y-123523932D01*
X171591433Y-123555712D01*
X171548861Y-123562816D01*
X171325418Y-123639525D01*
X171117652Y-123751963D01*
X170931229Y-123897062D01*
X170771224Y-124070871D01*
X170642014Y-124268642D01*
X170604769Y-124353553D01*
X170547117Y-124484987D01*
X170489124Y-124713998D01*
X170469615Y-124949432D01*
X145950500Y-124949432D01*
X145950500Y-122319999D01*
X169624417Y-122319999D01*
X169644699Y-122525932D01*
X169644700Y-122525934D01*
X169704768Y-122723954D01*
X169756585Y-122820896D01*
X169802317Y-122906453D01*
X169933589Y-123066410D01*
X170001713Y-123122317D01*
X170093550Y-123197685D01*
X170276046Y-123295232D01*
X170474066Y-123355300D01*
X170680000Y-123375583D01*
X170885934Y-123355300D01*
X171083954Y-123295232D01*
X171266450Y-123197685D01*
X171426410Y-123066410D01*
X171557685Y-122906450D01*
X171655232Y-122723954D01*
X171715300Y-122525934D01*
X171735583Y-122320000D01*
X171735583Y-122319999D01*
X172164417Y-122319999D01*
X172184699Y-122525932D01*
X172184700Y-122525934D01*
X172244768Y-122723954D01*
X172296585Y-122820896D01*
X172342317Y-122906453D01*
X172473589Y-123066410D01*
X172541713Y-123122317D01*
X172633550Y-123197685D01*
X172816046Y-123295232D01*
X173014066Y-123355300D01*
X173220000Y-123375583D01*
X173425934Y-123355300D01*
X173623954Y-123295232D01*
X173806450Y-123197685D01*
X173966410Y-123066410D01*
X174097685Y-122906450D01*
X174195232Y-122723954D01*
X174255300Y-122525934D01*
X174275583Y-122320000D01*
X174275583Y-122319999D01*
X174704417Y-122319999D01*
X174724699Y-122525932D01*
X174724700Y-122525934D01*
X174784768Y-122723954D01*
X174836585Y-122820896D01*
X174882317Y-122906453D01*
X175013589Y-123066410D01*
X175081713Y-123122317D01*
X175173550Y-123197685D01*
X175356046Y-123295232D01*
X175554066Y-123355300D01*
X175760000Y-123375583D01*
X175886487Y-123363125D01*
X177610426Y-123363125D01*
X177672610Y-123406666D01*
X177870843Y-123499103D01*
X178082110Y-123555712D01*
X178300000Y-123574775D01*
X178517889Y-123555712D01*
X178729156Y-123499103D01*
X178927385Y-123406667D01*
X178989571Y-123363124D01*
X178300000Y-122673553D01*
X177610426Y-123363125D01*
X175886487Y-123363125D01*
X175965934Y-123355300D01*
X176163954Y-123295232D01*
X176346450Y-123197685D01*
X176506410Y-123066410D01*
X176637685Y-122906450D01*
X176735232Y-122723954D01*
X176795300Y-122525934D01*
X176815583Y-122320000D01*
X176815583Y-122319999D01*
X177045224Y-122319999D01*
X177064287Y-122537889D01*
X177120896Y-122749156D01*
X177213334Y-122947389D01*
X177256873Y-123009572D01*
X177946447Y-122320000D01*
X178653553Y-122320000D01*
X179343124Y-123009571D01*
X179386667Y-122947385D01*
X179479103Y-122749156D01*
X179535712Y-122537889D01*
X179554775Y-122319999D01*
X179535712Y-122102110D01*
X179479103Y-121890843D01*
X179386667Y-121692614D01*
X179343123Y-121630428D01*
X178653553Y-122320000D01*
X177946447Y-122320000D01*
X177256874Y-121630427D01*
X177213333Y-121692611D01*
X177120896Y-121890843D01*
X177064287Y-122102110D01*
X177045224Y-122319999D01*
X176815583Y-122319999D01*
X176795300Y-122114066D01*
X176735232Y-121916046D01*
X176637685Y-121733550D01*
X176604090Y-121692614D01*
X176506410Y-121573589D01*
X176346453Y-121442317D01*
X176346451Y-121442316D01*
X176346450Y-121442315D01*
X176163954Y-121344768D01*
X176077729Y-121318612D01*
X175965932Y-121284699D01*
X175886481Y-121276874D01*
X177610427Y-121276874D01*
X178299999Y-121966446D01*
X178989572Y-121276873D01*
X178927389Y-121233334D01*
X178729156Y-121140896D01*
X178517889Y-121084287D01*
X178300000Y-121065224D01*
X178082110Y-121084287D01*
X177870843Y-121140896D01*
X177672611Y-121233333D01*
X177610427Y-121276874D01*
X175886481Y-121276874D01*
X175760000Y-121264417D01*
X175554067Y-121284699D01*
X175356046Y-121344768D01*
X175173546Y-121442317D01*
X175013589Y-121573589D01*
X174882317Y-121733546D01*
X174784768Y-121916046D01*
X174724699Y-122114067D01*
X174704417Y-122319999D01*
X174275583Y-122319999D01*
X174255300Y-122114066D01*
X174195232Y-121916046D01*
X174097685Y-121733550D01*
X174064090Y-121692614D01*
X173966410Y-121573589D01*
X173806453Y-121442317D01*
X173806451Y-121442316D01*
X173806450Y-121442315D01*
X173623954Y-121344768D01*
X173537729Y-121318612D01*
X173425932Y-121284699D01*
X173220000Y-121264417D01*
X173014067Y-121284699D01*
X172816046Y-121344768D01*
X172633546Y-121442317D01*
X172473589Y-121573589D01*
X172342317Y-121733546D01*
X172244768Y-121916046D01*
X172184699Y-122114067D01*
X172164417Y-122319999D01*
X171735583Y-122319999D01*
X171715300Y-122114066D01*
X171655232Y-121916046D01*
X171557685Y-121733550D01*
X171524090Y-121692614D01*
X171426410Y-121573589D01*
X171266453Y-121442317D01*
X171266451Y-121442316D01*
X171266450Y-121442315D01*
X171083954Y-121344768D01*
X170997729Y-121318612D01*
X170885932Y-121284699D01*
X170680000Y-121264417D01*
X170474067Y-121284699D01*
X170276046Y-121344768D01*
X170093546Y-121442317D01*
X169933589Y-121573589D01*
X169802317Y-121733546D01*
X169704768Y-121916046D01*
X169644699Y-122114067D01*
X169624417Y-122319999D01*
X145950500Y-122319999D01*
X145950500Y-114599999D01*
X159039707Y-114599999D01*
X159058798Y-114745011D01*
X159058798Y-114745013D01*
X159058799Y-114745014D01*
X159068437Y-114768284D01*
X159081089Y-114798828D01*
X159082445Y-114802974D01*
X159084881Y-114807987D01*
X159114770Y-114880146D01*
X159153943Y-114931195D01*
X159156853Y-114935605D01*
X159160633Y-114939915D01*
X159203813Y-114996187D01*
X159260089Y-115039370D01*
X159266235Y-115044760D01*
X159755242Y-115533767D01*
X159760632Y-115539913D01*
X159803812Y-115596186D01*
X159860086Y-115639366D01*
X159866233Y-115644757D01*
X162103317Y-117881841D01*
X162104800Y-117883375D01*
X162149320Y-117931044D01*
X162187121Y-117954030D01*
X162192398Y-117957622D01*
X162227658Y-117984361D01*
X162249247Y-117992874D01*
X162258789Y-117997614D01*
X162278618Y-118009672D01*
X162321220Y-118021609D01*
X162327287Y-118023649D01*
X162368435Y-118039876D01*
X162391517Y-118042249D01*
X162401987Y-118044238D01*
X162424335Y-118050500D01*
X162468573Y-118050500D01*
X162474965Y-118050828D01*
X162518970Y-118055352D01*
X162518970Y-118055351D01*
X162518971Y-118055352D01*
X162541840Y-118051408D01*
X162552459Y-118050500D01*
X164921523Y-118050500D01*
X164929680Y-118051034D01*
X165000000Y-118060293D01*
X165070319Y-118051034D01*
X165078477Y-118050500D01*
X165921523Y-118050500D01*
X165929680Y-118051034D01*
X166000000Y-118060293D01*
X166145014Y-118041201D01*
X166280147Y-117985228D01*
X166396187Y-117896187D01*
X166485228Y-117780147D01*
X166541201Y-117645014D01*
X166560293Y-117500000D01*
X166541201Y-117354986D01*
X166485228Y-117219854D01*
X166396187Y-117103813D01*
X166396185Y-117103812D01*
X166396185Y-117103811D01*
X166280146Y-117014771D01*
X166226358Y-116992491D01*
X166222475Y-116990521D01*
X166217170Y-116988686D01*
X166145012Y-116958798D01*
X166081209Y-116950398D01*
X166076041Y-116949340D01*
X166070319Y-116948965D01*
X166000000Y-116939707D01*
X165929681Y-116948965D01*
X165921523Y-116949500D01*
X165078477Y-116949500D01*
X165070319Y-116948965D01*
X165000000Y-116939707D01*
X164929681Y-116948965D01*
X164921523Y-116949500D01*
X162753912Y-116949500D01*
X162729994Y-116944742D01*
X162709718Y-116931194D01*
X160644759Y-114866234D01*
X160639369Y-114860088D01*
X160596187Y-114803813D01*
X160539913Y-114760632D01*
X160533767Y-114755242D01*
X160478525Y-114700000D01*
X169624417Y-114700000D01*
X169644699Y-114905932D01*
X169672078Y-114996187D01*
X169704768Y-115103954D01*
X169802315Y-115286450D01*
X169802317Y-115286453D01*
X169933589Y-115446410D01*
X170085628Y-115571184D01*
X170093550Y-115577685D01*
X170276046Y-115675232D01*
X170474066Y-115735300D01*
X170680000Y-115755583D01*
X170885934Y-115735300D01*
X171083954Y-115675232D01*
X171266450Y-115577685D01*
X171426410Y-115446410D01*
X171557685Y-115286450D01*
X171655232Y-115103954D01*
X171715300Y-114905934D01*
X171735583Y-114700000D01*
X172164417Y-114700000D01*
X172184699Y-114905932D01*
X172212078Y-114996187D01*
X172244768Y-115103954D01*
X172342315Y-115286450D01*
X172342317Y-115286453D01*
X172473589Y-115446410D01*
X172625628Y-115571184D01*
X172633550Y-115577685D01*
X172816046Y-115675232D01*
X173014066Y-115735300D01*
X173220000Y-115755583D01*
X173346487Y-115743125D01*
X175070426Y-115743125D01*
X175132610Y-115786666D01*
X175330843Y-115879103D01*
X175542110Y-115935712D01*
X175760000Y-115954775D01*
X175977889Y-115935712D01*
X176189156Y-115879103D01*
X176387385Y-115786667D01*
X176449571Y-115743124D01*
X175760000Y-115053553D01*
X175070426Y-115743125D01*
X173346487Y-115743125D01*
X173425934Y-115735300D01*
X173623954Y-115675232D01*
X173806450Y-115577685D01*
X173966410Y-115446410D01*
X174097685Y-115286450D01*
X174195232Y-115103954D01*
X174255300Y-114905934D01*
X174275583Y-114700000D01*
X174505224Y-114700000D01*
X174524287Y-114917889D01*
X174580896Y-115129156D01*
X174673334Y-115327389D01*
X174716873Y-115389572D01*
X175406447Y-114700000D01*
X176113553Y-114700000D01*
X176803124Y-115389571D01*
X176846667Y-115327385D01*
X176939103Y-115129156D01*
X176995712Y-114917889D01*
X177014775Y-114700000D01*
X177244417Y-114700000D01*
X177264699Y-114905932D01*
X177292078Y-114996187D01*
X177324768Y-115103954D01*
X177422315Y-115286450D01*
X177422317Y-115286453D01*
X177553589Y-115446410D01*
X177705628Y-115571184D01*
X177713550Y-115577685D01*
X177896046Y-115675232D01*
X178094066Y-115735300D01*
X178300000Y-115755583D01*
X178505934Y-115735300D01*
X178703954Y-115675232D01*
X178886450Y-115577685D01*
X179046410Y-115446410D01*
X179177685Y-115286450D01*
X179275232Y-115103954D01*
X179335300Y-114905934D01*
X179355583Y-114700000D01*
X179335300Y-114494066D01*
X179275232Y-114296046D01*
X179177685Y-114113550D01*
X179144090Y-114072614D01*
X179046410Y-113953589D01*
X178886453Y-113822317D01*
X178886451Y-113822316D01*
X178886450Y-113822315D01*
X178703954Y-113724768D01*
X178583948Y-113688365D01*
X178505932Y-113664699D01*
X178300000Y-113644417D01*
X178094067Y-113664699D01*
X177896046Y-113724768D01*
X177713546Y-113822317D01*
X177553589Y-113953589D01*
X177422317Y-114113546D01*
X177324768Y-114296046D01*
X177264699Y-114494067D01*
X177244417Y-114700000D01*
X177014775Y-114700000D01*
X176995712Y-114482110D01*
X176939103Y-114270843D01*
X176846667Y-114072614D01*
X176803123Y-114010428D01*
X176113553Y-114700000D01*
X175406447Y-114700000D01*
X174716874Y-114010427D01*
X174673333Y-114072611D01*
X174580896Y-114270843D01*
X174524287Y-114482110D01*
X174505224Y-114700000D01*
X174275583Y-114700000D01*
X174255300Y-114494066D01*
X174195232Y-114296046D01*
X174097685Y-114113550D01*
X174064090Y-114072614D01*
X173966410Y-113953589D01*
X173806453Y-113822317D01*
X173806451Y-113822316D01*
X173806450Y-113822315D01*
X173623954Y-113724768D01*
X173503948Y-113688365D01*
X173425932Y-113664699D01*
X173346481Y-113656874D01*
X175070427Y-113656874D01*
X175759999Y-114346446D01*
X176449572Y-113656873D01*
X176387389Y-113613334D01*
X176189156Y-113520896D01*
X175977889Y-113464287D01*
X175760000Y-113445224D01*
X175542110Y-113464287D01*
X175330843Y-113520896D01*
X175132611Y-113613333D01*
X175070427Y-113656874D01*
X173346481Y-113656874D01*
X173220000Y-113644417D01*
X173014067Y-113664699D01*
X172816046Y-113724768D01*
X172633546Y-113822317D01*
X172473589Y-113953589D01*
X172342317Y-114113546D01*
X172244768Y-114296046D01*
X172184699Y-114494067D01*
X172164417Y-114700000D01*
X171735583Y-114700000D01*
X171715300Y-114494066D01*
X171655232Y-114296046D01*
X171557685Y-114113550D01*
X171524090Y-114072614D01*
X171426410Y-113953589D01*
X171266453Y-113822317D01*
X171266451Y-113822316D01*
X171266450Y-113822315D01*
X171083954Y-113724768D01*
X170963948Y-113688365D01*
X170885932Y-113664699D01*
X170680000Y-113644417D01*
X170474067Y-113664699D01*
X170276046Y-113724768D01*
X170093546Y-113822317D01*
X169933589Y-113953589D01*
X169802317Y-114113546D01*
X169704768Y-114296046D01*
X169644699Y-114494067D01*
X169624417Y-114700000D01*
X160478525Y-114700000D01*
X160044755Y-114266230D01*
X160039364Y-114260083D01*
X159996186Y-114203812D01*
X159880148Y-114114772D01*
X159745012Y-114058798D01*
X159600000Y-114039707D01*
X159454987Y-114058798D01*
X159319852Y-114114772D01*
X159203812Y-114203812D01*
X159114772Y-114319852D01*
X159058798Y-114454987D01*
X159039707Y-114599999D01*
X145950500Y-114599999D01*
X145950500Y-112500000D01*
X146439707Y-112500000D01*
X146458798Y-112645012D01*
X146514771Y-112780146D01*
X146603812Y-112896187D01*
X146719852Y-112985227D01*
X146719853Y-112985228D01*
X146854986Y-113041201D01*
X147000000Y-113060293D01*
X147145014Y-113041201D01*
X147280147Y-112985228D01*
X147396187Y-112896187D01*
X147485228Y-112780147D01*
X147541201Y-112645014D01*
X147560293Y-112500000D01*
X147541201Y-112354986D01*
X147536546Y-112343750D01*
X147533095Y-112332538D01*
X147532753Y-112330892D01*
X147485771Y-112104500D01*
X147451804Y-111940824D01*
X147450500Y-111928124D01*
X147450500Y-111071880D01*
X147451804Y-111059180D01*
X147472636Y-110958798D01*
X147532755Y-110669106D01*
X147532755Y-110669100D01*
X147533096Y-110667458D01*
X147536550Y-110656241D01*
X147541201Y-110645014D01*
X147560293Y-110500000D01*
X147541201Y-110354986D01*
X147485228Y-110219854D01*
X147396187Y-110103813D01*
X147396185Y-110103812D01*
X147396185Y-110103811D01*
X147280148Y-110014772D01*
X147145012Y-109958798D01*
X147000000Y-109939707D01*
X146854987Y-109958798D01*
X146719852Y-110014772D01*
X146603812Y-110103812D01*
X146514772Y-110219852D01*
X146458798Y-110354987D01*
X146439707Y-110499999D01*
X146439707Y-110500000D01*
X146454894Y-110615357D01*
X146458799Y-110645013D01*
X146463449Y-110656241D01*
X146466902Y-110667457D01*
X146548196Y-111059177D01*
X146549500Y-111071877D01*
X146549500Y-111928123D01*
X146548196Y-111940823D01*
X146466901Y-112332543D01*
X146463449Y-112343756D01*
X146458799Y-112354983D01*
X146439707Y-112500000D01*
X145950500Y-112500000D01*
X145950500Y-110212492D01*
X145968806Y-110168298D01*
X146090438Y-110046666D01*
X146739176Y-109397925D01*
X146749070Y-109389874D01*
X147082136Y-109171292D01*
X147082137Y-109171290D01*
X147083537Y-109170372D01*
X147093913Y-109164881D01*
X147105147Y-109160228D01*
X147221187Y-109071187D01*
X147310228Y-108955147D01*
X147366201Y-108820014D01*
X147385293Y-108675000D01*
X147366201Y-108529986D01*
X147310228Y-108394854D01*
X147221187Y-108278813D01*
X147221185Y-108278812D01*
X147221185Y-108278811D01*
X147105148Y-108189772D01*
X146970012Y-108133798D01*
X146825000Y-108114707D01*
X146679987Y-108133798D01*
X146544852Y-108189772D01*
X146428812Y-108278812D01*
X146339772Y-108394853D01*
X146335118Y-108406087D01*
X146329629Y-108416457D01*
X146110128Y-108750923D01*
X146102070Y-108760825D01*
X145201823Y-109661072D01*
X145196599Y-109665741D01*
X145166029Y-109690121D01*
X145133185Y-109738293D01*
X145131834Y-109740198D01*
X145097205Y-109787119D01*
X145097085Y-109787464D01*
X145089740Y-109802015D01*
X145089528Y-109802325D01*
X145072340Y-109858048D01*
X145071610Y-109860267D01*
X145052353Y-109915300D01*
X145052340Y-109915672D01*
X145049609Y-109931744D01*
X145049500Y-109932097D01*
X145049500Y-109990413D01*
X145049456Y-109992751D01*
X145047275Y-110051008D01*
X145047369Y-110051358D01*
X145049500Y-110067538D01*
X145049500Y-125287509D01*
X145031194Y-125331703D01*
X144331703Y-126031194D01*
X144287509Y-126049500D01*
X131028811Y-126049500D01*
X131021813Y-126049107D01*
X130982965Y-126044729D01*
X130925655Y-126055572D01*
X130923354Y-126055963D01*
X130865710Y-126064652D01*
X130865380Y-126064812D01*
X130849901Y-126069905D01*
X130849528Y-126069975D01*
X130797967Y-126097226D01*
X130795882Y-126098279D01*
X130743356Y-126123575D01*
X130743082Y-126123830D01*
X130729795Y-126133258D01*
X130729465Y-126133432D01*
X130688222Y-126174673D01*
X130686540Y-126176292D01*
X130643806Y-126215943D01*
X130643619Y-126216268D01*
X130633690Y-126229205D01*
X129471823Y-127391072D01*
X129466599Y-127395741D01*
X129436029Y-127420121D01*
X129403185Y-127468293D01*
X129401834Y-127470198D01*
X129367205Y-127517119D01*
X129367085Y-127517464D01*
X129359740Y-127532015D01*
X129359528Y-127532325D01*
X129342340Y-127588048D01*
X129341610Y-127590267D01*
X129322353Y-127645300D01*
X129322340Y-127645672D01*
X129319609Y-127661744D01*
X129319500Y-127662097D01*
X129319500Y-127720413D01*
X129319456Y-127722751D01*
X129317275Y-127781008D01*
X129317369Y-127781358D01*
X129319500Y-127797538D01*
X129319500Y-130948706D01*
X129313806Y-130974770D01*
X128735189Y-132235861D01*
X128730951Y-132249744D01*
X128727124Y-132259351D01*
X128716005Y-132281683D01*
X128662229Y-132470684D01*
X128637368Y-132505189D01*
X128596184Y-132515798D01*
X128557747Y-132497600D01*
X128542194Y-132464071D01*
X128541270Y-132464319D01*
X128479849Y-132235093D01*
X128381867Y-132024971D01*
X128326974Y-131946577D01*
X127583553Y-132690000D01*
X126876447Y-132690000D01*
X126133023Y-131946576D01*
X126078133Y-132024968D01*
X125980150Y-132235093D01*
X125920145Y-132459036D01*
X125899938Y-132689999D01*
X119324271Y-132689999D01*
X119273766Y-132669552D01*
X118969397Y-132589736D01*
X118657327Y-132549500D01*
X118421420Y-132549500D01*
X118185992Y-132564615D01*
X118185988Y-132564615D01*
X118185984Y-132564616D01*
X117877143Y-132624763D01*
X117578519Y-132723912D01*
X117295014Y-132860441D01*
X117031312Y-133032093D01*
X116791721Y-133236059D01*
X116580178Y-133468992D01*
X116400157Y-133727065D01*
X116254618Y-134006036D01*
X116152589Y-134283284D01*
X116145948Y-134301330D01*
X116144558Y-134307419D01*
X116075930Y-134608097D01*
X116051400Y-134862381D01*
X116045717Y-134921296D01*
X102713610Y-134921296D01*
X102500867Y-134600270D01*
X102499960Y-134598861D01*
X102493106Y-134587888D01*
X102102308Y-133962192D01*
X101719911Y-133349947D01*
X101719038Y-133348506D01*
X101293673Y-132624763D01*
X100972945Y-132079055D01*
X100972122Y-132077611D01*
X100965089Y-132064871D01*
X100704616Y-131593023D01*
X126486576Y-131593023D01*
X127229999Y-132336446D01*
X127973423Y-131593022D01*
X127895032Y-131538133D01*
X127684906Y-131440150D01*
X127460963Y-131380145D01*
X127230000Y-131359938D01*
X126999036Y-131380145D01*
X126775093Y-131440150D01*
X126564968Y-131538133D01*
X126486576Y-131593023D01*
X100704616Y-131593023D01*
X100260500Y-130788503D01*
X100259708Y-130787021D01*
X99583070Y-129479179D01*
X99582317Y-129477672D01*
X99439628Y-129182657D01*
X98941188Y-128152114D01*
X98940507Y-128150656D01*
X98335320Y-126808280D01*
X98334650Y-126806740D01*
X98137531Y-126336048D01*
X97765820Y-125448457D01*
X97765234Y-125447000D01*
X97608751Y-125043125D01*
X108310426Y-125043125D01*
X108372610Y-125086666D01*
X108570843Y-125179103D01*
X108782110Y-125235712D01*
X109000000Y-125254775D01*
X109217889Y-125235712D01*
X109429156Y-125179103D01*
X109627385Y-125086667D01*
X109689571Y-125043124D01*
X109000000Y-124353553D01*
X108310426Y-125043125D01*
X97608751Y-125043125D01*
X97233236Y-124073940D01*
X97232686Y-124072464D01*
X97206833Y-124000000D01*
X107745224Y-124000000D01*
X107764287Y-124217889D01*
X107820896Y-124429156D01*
X107913334Y-124627389D01*
X107956873Y-124689572D01*
X108646447Y-124000000D01*
X109353553Y-124000000D01*
X110043124Y-124689571D01*
X110086667Y-124627385D01*
X110179103Y-124429156D01*
X110235712Y-124217889D01*
X110254775Y-124000000D01*
X110254775Y-123999999D01*
X115564417Y-123999999D01*
X115584699Y-124205932D01*
X115618612Y-124317729D01*
X115644768Y-124403954D01*
X115742315Y-124586450D01*
X115742317Y-124586453D01*
X115873589Y-124746410D01*
X116033546Y-124877682D01*
X116033550Y-124877685D01*
X116216046Y-124975232D01*
X116414066Y-125035300D01*
X116620000Y-125055583D01*
X116825934Y-125035300D01*
X117023954Y-124975232D01*
X117206450Y-124877685D01*
X117366410Y-124746410D01*
X117497685Y-124586450D01*
X117595232Y-124403954D01*
X117655300Y-124205934D01*
X117675583Y-124000000D01*
X117655300Y-123794066D01*
X117595232Y-123596046D01*
X117497685Y-123413550D01*
X117497682Y-123413546D01*
X117366410Y-123253589D01*
X117206453Y-123122317D01*
X117206451Y-123122316D01*
X117206450Y-123122315D01*
X117023954Y-123024768D01*
X116937729Y-122998612D01*
X116825932Y-122964699D01*
X116620000Y-122944417D01*
X116414067Y-122964699D01*
X116216046Y-123024768D01*
X116033546Y-123122317D01*
X115873589Y-123253589D01*
X115742317Y-123413546D01*
X115644768Y-123596046D01*
X115584699Y-123794067D01*
X115564417Y-123999999D01*
X110254775Y-123999999D01*
X110235712Y-123782110D01*
X110179103Y-123570843D01*
X110086667Y-123372614D01*
X110043123Y-123310428D01*
X109353553Y-124000000D01*
X108646447Y-124000000D01*
X107956874Y-123310427D01*
X107913333Y-123372611D01*
X107820896Y-123570843D01*
X107764287Y-123782110D01*
X107745224Y-124000000D01*
X97206833Y-124000000D01*
X96751578Y-122723954D01*
X96737864Y-122685515D01*
X96737320Y-122683921D01*
X96678259Y-122503125D01*
X108310426Y-122503125D01*
X108372610Y-122546666D01*
X108570843Y-122639103D01*
X108684769Y-122669630D01*
X108718178Y-122691952D01*
X108731093Y-122730000D01*
X108718178Y-122768048D01*
X108684769Y-122790370D01*
X108570843Y-122820896D01*
X108372611Y-122913333D01*
X108310427Y-122956874D01*
X108999999Y-123646446D01*
X109689572Y-122956873D01*
X109627389Y-122913334D01*
X109429156Y-122820896D01*
X109315230Y-122790370D01*
X109281821Y-122768048D01*
X109268906Y-122730000D01*
X109281821Y-122691952D01*
X109315230Y-122669630D01*
X109429156Y-122639103D01*
X109627385Y-122546667D01*
X109689571Y-122503124D01*
X109000000Y-121813553D01*
X108310426Y-122503125D01*
X96678259Y-122503125D01*
X96337499Y-121459999D01*
X107745224Y-121459999D01*
X107764287Y-121677889D01*
X107820896Y-121889156D01*
X107913334Y-122087389D01*
X107956873Y-122149572D01*
X108646447Y-121460000D01*
X109353553Y-121460000D01*
X110043124Y-122149571D01*
X110086667Y-122087385D01*
X110179103Y-121889156D01*
X110235712Y-121677889D01*
X110254775Y-121459999D01*
X115564417Y-121459999D01*
X115584699Y-121665932D01*
X115605211Y-121733550D01*
X115644768Y-121863954D01*
X115672612Y-121916046D01*
X115742317Y-122046453D01*
X115873589Y-122206410D01*
X116013226Y-122321006D01*
X116033550Y-122337685D01*
X116216046Y-122435232D01*
X116414066Y-122495300D01*
X116620000Y-122515583D01*
X116825934Y-122495300D01*
X117023954Y-122435232D01*
X117206450Y-122337685D01*
X117366410Y-122206410D01*
X117497685Y-122046450D01*
X117595232Y-121863954D01*
X117655300Y-121665934D01*
X117675583Y-121460000D01*
X117661794Y-121320000D01*
X138679417Y-121320000D01*
X138699699Y-121525932D01*
X138699700Y-121525934D01*
X138759768Y-121723954D01*
X138848071Y-121889156D01*
X138857317Y-121906453D01*
X138988589Y-122066410D01*
X139148546Y-122197682D01*
X139148550Y-122197685D01*
X139331046Y-122295232D01*
X139529066Y-122355300D01*
X139735000Y-122375583D01*
X139940934Y-122355300D01*
X140138954Y-122295232D01*
X140321450Y-122197685D01*
X140481410Y-122066410D01*
X140612685Y-121906450D01*
X140710232Y-121723954D01*
X140770300Y-121525934D01*
X140790583Y-121320000D01*
X141219417Y-121320000D01*
X141239699Y-121525932D01*
X141239700Y-121525934D01*
X141299768Y-121723954D01*
X141388071Y-121889156D01*
X141397317Y-121906453D01*
X141528589Y-122066410D01*
X141688546Y-122197682D01*
X141688550Y-122197685D01*
X141871046Y-122295232D01*
X142069066Y-122355300D01*
X142275000Y-122375583D01*
X142480934Y-122355300D01*
X142678954Y-122295232D01*
X142861450Y-122197685D01*
X143021410Y-122066410D01*
X143152685Y-121906450D01*
X143250232Y-121723954D01*
X143310300Y-121525934D01*
X143330583Y-121320000D01*
X143310300Y-121114066D01*
X143250232Y-120916046D01*
X143152685Y-120733550D01*
X143152682Y-120733546D01*
X143021410Y-120573589D01*
X142861453Y-120442317D01*
X142861451Y-120442316D01*
X142861450Y-120442315D01*
X142678954Y-120344768D01*
X142592729Y-120318612D01*
X142480932Y-120284699D01*
X142275000Y-120264417D01*
X142069067Y-120284699D01*
X141871046Y-120344768D01*
X141688546Y-120442317D01*
X141528589Y-120573589D01*
X141397317Y-120733546D01*
X141299768Y-120916046D01*
X141239699Y-121114067D01*
X141219417Y-121320000D01*
X140790583Y-121320000D01*
X140770300Y-121114066D01*
X140710232Y-120916046D01*
X140612685Y-120733550D01*
X140612682Y-120733546D01*
X140481410Y-120573589D01*
X140321453Y-120442317D01*
X140321451Y-120442316D01*
X140321450Y-120442315D01*
X140138954Y-120344768D01*
X140052729Y-120318612D01*
X139940932Y-120284699D01*
X139735000Y-120264417D01*
X139529067Y-120284699D01*
X139331046Y-120344768D01*
X139148546Y-120442317D01*
X138988589Y-120573589D01*
X138857317Y-120733546D01*
X138759768Y-120916046D01*
X138699699Y-121114067D01*
X138679417Y-121320000D01*
X117661794Y-121320000D01*
X117655300Y-121254066D01*
X117595232Y-121056046D01*
X117497685Y-120873550D01*
X117464090Y-120832614D01*
X117366410Y-120713589D01*
X117206453Y-120582317D01*
X117206451Y-120582316D01*
X117206450Y-120582315D01*
X117023954Y-120484768D01*
X116937729Y-120458612D01*
X116825932Y-120424699D01*
X116620000Y-120404417D01*
X116414067Y-120424699D01*
X116216046Y-120484768D01*
X116033546Y-120582317D01*
X115873589Y-120713589D01*
X115742317Y-120873546D01*
X115644768Y-121056046D01*
X115584699Y-121254067D01*
X115564417Y-121459999D01*
X110254775Y-121459999D01*
X110235712Y-121242110D01*
X110179103Y-121030843D01*
X110086667Y-120832614D01*
X110043123Y-120770428D01*
X109353553Y-121460000D01*
X108646447Y-121460000D01*
X107956874Y-120770427D01*
X107913333Y-120832611D01*
X107820896Y-121030843D01*
X107764287Y-121242110D01*
X107745224Y-121459999D01*
X96337499Y-121459999D01*
X96280097Y-121284283D01*
X96279595Y-121282675D01*
X96145882Y-120832614D01*
X96022366Y-120416874D01*
X108310427Y-120416874D01*
X108999999Y-121106446D01*
X109689572Y-120416873D01*
X109627389Y-120373334D01*
X109429156Y-120280896D01*
X109217889Y-120224287D01*
X109000000Y-120205224D01*
X108782110Y-120224287D01*
X108570843Y-120280896D01*
X108372611Y-120373333D01*
X108310427Y-120416874D01*
X96022366Y-120416874D01*
X95860224Y-119871121D01*
X95859791Y-119869590D01*
X95605305Y-118920000D01*
X107944417Y-118920000D01*
X107964699Y-119125932D01*
X107998612Y-119237729D01*
X108024768Y-119323954D01*
X108122315Y-119506450D01*
X108122317Y-119506453D01*
X108253589Y-119666410D01*
X108413546Y-119797682D01*
X108413550Y-119797685D01*
X108596046Y-119895232D01*
X108794066Y-119955300D01*
X109000000Y-119975583D01*
X109126487Y-119963125D01*
X115930426Y-119963125D01*
X115992610Y-120006666D01*
X116190843Y-120099103D01*
X116402110Y-120155712D01*
X116620000Y-120174775D01*
X116837889Y-120155712D01*
X117049156Y-120099103D01*
X117247385Y-120006667D01*
X117309571Y-119963124D01*
X116620000Y-119273553D01*
X115930426Y-119963125D01*
X109126487Y-119963125D01*
X109205934Y-119955300D01*
X109403954Y-119895232D01*
X109586450Y-119797685D01*
X109746410Y-119666410D01*
X109877685Y-119506450D01*
X109975232Y-119323954D01*
X110035300Y-119125934D01*
X110055583Y-118920000D01*
X110055583Y-118919999D01*
X115365224Y-118919999D01*
X115384287Y-119137889D01*
X115440896Y-119349156D01*
X115533334Y-119547389D01*
X115576873Y-119609572D01*
X116266447Y-118920000D01*
X115576874Y-118230427D01*
X115533333Y-118292611D01*
X115440896Y-118490843D01*
X115384287Y-118702110D01*
X115365224Y-118919999D01*
X110055583Y-118919999D01*
X110035300Y-118714066D01*
X109975232Y-118516046D01*
X109877685Y-118333550D01*
X109877682Y-118333546D01*
X109746410Y-118173589D01*
X109586453Y-118042317D01*
X109586451Y-118042316D01*
X109586450Y-118042315D01*
X109403954Y-117944768D01*
X109317729Y-117918612D01*
X109205932Y-117884699D01*
X109000000Y-117864417D01*
X108794067Y-117884699D01*
X108596046Y-117944768D01*
X108413546Y-118042317D01*
X108253589Y-118173589D01*
X108122317Y-118333546D01*
X108024768Y-118516046D01*
X107964699Y-118714067D01*
X107944417Y-118920000D01*
X95605305Y-118920000D01*
X95478598Y-118447203D01*
X95478213Y-118445682D01*
X95174093Y-117174861D01*
X107949500Y-117174861D01*
X107951974Y-117196195D01*
X107952415Y-117199991D01*
X107975104Y-117251377D01*
X107997794Y-117302766D01*
X108077233Y-117382205D01*
X108077234Y-117382205D01*
X108077235Y-117382206D01*
X108180009Y-117427585D01*
X108205135Y-117430500D01*
X109794864Y-117430499D01*
X109819991Y-117427585D01*
X109922765Y-117382206D01*
X110002206Y-117302765D01*
X110047585Y-117199991D01*
X110050500Y-117174865D01*
X110050499Y-116773409D01*
X110054876Y-116750431D01*
X110201326Y-116380000D01*
X115564417Y-116380000D01*
X115584699Y-116585932D01*
X115584700Y-116585934D01*
X115644768Y-116783954D01*
X115742315Y-116966450D01*
X115742317Y-116966453D01*
X115873589Y-117126410D01*
X116033548Y-117257684D01*
X116033550Y-117257685D01*
X116206864Y-117350324D01*
X116209029Y-117351538D01*
X116214316Y-117354641D01*
X116628715Y-117547358D01*
X116657776Y-117575127D01*
X116663916Y-117614850D01*
X116644596Y-117650098D01*
X116607807Y-117666291D01*
X116402110Y-117684287D01*
X116190843Y-117740896D01*
X115992611Y-117833333D01*
X115930427Y-117876874D01*
X117663124Y-119609571D01*
X117706667Y-119547385D01*
X117799103Y-119349156D01*
X117855712Y-119137889D01*
X117872200Y-118949432D01*
X133269615Y-118949432D01*
X133289124Y-119184866D01*
X133347117Y-119413877D01*
X133387723Y-119506450D01*
X133442014Y-119630221D01*
X133571224Y-119827992D01*
X133571225Y-119827993D01*
X133731227Y-120001800D01*
X133917654Y-120146902D01*
X134125421Y-120259340D01*
X134348861Y-120336048D01*
X134581880Y-120374932D01*
X134818118Y-120374932D01*
X134818120Y-120374932D01*
X135051139Y-120336048D01*
X135274579Y-120259340D01*
X135482346Y-120146902D01*
X135668773Y-120001800D01*
X135828775Y-119827993D01*
X135957986Y-119630220D01*
X136052883Y-119413877D01*
X136110876Y-119184866D01*
X136130385Y-118949432D01*
X136110876Y-118713998D01*
X136052883Y-118484987D01*
X135957986Y-118268644D01*
X135895884Y-118173590D01*
X135828775Y-118070871D01*
X135810859Y-118051409D01*
X135668773Y-117897064D01*
X135482346Y-117751962D01*
X135274579Y-117639524D01*
X135051139Y-117562816D01*
X134818120Y-117523932D01*
X134581880Y-117523932D01*
X134441496Y-117547358D01*
X134348861Y-117562816D01*
X134125418Y-117639525D01*
X133917652Y-117751963D01*
X133731229Y-117897062D01*
X133571224Y-118070871D01*
X133442014Y-118268642D01*
X133367621Y-118438242D01*
X133347117Y-118484987D01*
X133289124Y-118713998D01*
X133269615Y-118949432D01*
X117872200Y-118949432D01*
X117874775Y-118919999D01*
X117855712Y-118702110D01*
X117802745Y-118504433D01*
X117804047Y-118467830D01*
X117825634Y-118438242D01*
X117860093Y-118425830D01*
X117895588Y-118434855D01*
X117925814Y-118453236D01*
X117927114Y-118454027D01*
X117932405Y-118457628D01*
X117967656Y-118484360D01*
X117967657Y-118484360D01*
X117967658Y-118484361D01*
X117989247Y-118492874D01*
X117998789Y-118497614D01*
X118010002Y-118504433D01*
X118018618Y-118509672D01*
X118061240Y-118521614D01*
X118067262Y-118523639D01*
X118108436Y-118539876D01*
X118128498Y-118541938D01*
X118131518Y-118542249D01*
X118141987Y-118544238D01*
X118164335Y-118550500D01*
X118208574Y-118550500D01*
X118214966Y-118550828D01*
X118258971Y-118555352D01*
X118258971Y-118555351D01*
X118258972Y-118555352D01*
X118281841Y-118551408D01*
X118292460Y-118550500D01*
X123521523Y-118550500D01*
X123529680Y-118551034D01*
X123600000Y-118560293D01*
X123670319Y-118551034D01*
X123678477Y-118550500D01*
X124121523Y-118550500D01*
X124129680Y-118551034D01*
X124200000Y-118560293D01*
X124345014Y-118541201D01*
X124480147Y-118485228D01*
X124596187Y-118396187D01*
X124685228Y-118280147D01*
X124741201Y-118145014D01*
X124760293Y-118000000D01*
X124741201Y-117854986D01*
X124685228Y-117719854D01*
X124596187Y-117603813D01*
X124596185Y-117603812D01*
X124596185Y-117603811D01*
X124480146Y-117514771D01*
X124426358Y-117492491D01*
X124422475Y-117490521D01*
X124417170Y-117488686D01*
X124345012Y-117458798D01*
X124281209Y-117450398D01*
X124276041Y-117449340D01*
X124270319Y-117448965D01*
X124200000Y-117439707D01*
X124129681Y-117448965D01*
X124121523Y-117449500D01*
X123678477Y-117449500D01*
X123670319Y-117448965D01*
X123600000Y-117439707D01*
X123529681Y-117448965D01*
X123521523Y-117449500D01*
X118493913Y-117449500D01*
X118449719Y-117431194D01*
X118125623Y-117107098D01*
X118113146Y-117089259D01*
X118078505Y-117014771D01*
X117594641Y-115974316D01*
X117591534Y-115969022D01*
X117590318Y-115966853D01*
X117497684Y-115793548D01*
X117366410Y-115633589D01*
X117206453Y-115502317D01*
X117206451Y-115502316D01*
X117206450Y-115502315D01*
X117023954Y-115404768D01*
X116935032Y-115377794D01*
X116825932Y-115344699D01*
X116620000Y-115324417D01*
X116414067Y-115344699D01*
X116216046Y-115404768D01*
X116033546Y-115502317D01*
X115873589Y-115633589D01*
X115742317Y-115793546D01*
X115644768Y-115976046D01*
X115584699Y-116174067D01*
X115564417Y-116380000D01*
X110201326Y-116380000D01*
X110611713Y-115341962D01*
X110625639Y-115320751D01*
X111203266Y-114743125D01*
X139045426Y-114743125D01*
X139107610Y-114786666D01*
X139305843Y-114879103D01*
X139517110Y-114935712D01*
X139735000Y-114954775D01*
X139952889Y-114935712D01*
X140164156Y-114879103D01*
X140362385Y-114786667D01*
X140424571Y-114743124D01*
X140176308Y-114494861D01*
X141224500Y-114494861D01*
X141227415Y-114519990D01*
X141272794Y-114622766D01*
X141352233Y-114702205D01*
X141352234Y-114702205D01*
X141352235Y-114702206D01*
X141455009Y-114747585D01*
X141480135Y-114750500D01*
X143069864Y-114750499D01*
X143094991Y-114747585D01*
X143197765Y-114702206D01*
X143277206Y-114622765D01*
X143322585Y-114519991D01*
X143325500Y-114494865D01*
X143325499Y-112905136D01*
X143322585Y-112880009D01*
X143277206Y-112777235D01*
X143277205Y-112777234D01*
X143277205Y-112777233D01*
X143197766Y-112697794D01*
X143146378Y-112675104D01*
X143094991Y-112652415D01*
X143069865Y-112649500D01*
X143069861Y-112649500D01*
X141480138Y-112649500D01*
X141455009Y-112652415D01*
X141352233Y-112697794D01*
X141272794Y-112777233D01*
X141227415Y-112880009D01*
X141224500Y-112905138D01*
X141224500Y-114494861D01*
X140176308Y-114494861D01*
X139735000Y-114053553D01*
X139045426Y-114743125D01*
X111203266Y-114743125D01*
X111527585Y-114418806D01*
X111571780Y-114400500D01*
X131238434Y-114400500D01*
X131251170Y-114396361D01*
X131264105Y-114392158D01*
X131273631Y-114389870D01*
X131300304Y-114385646D01*
X131324358Y-114373388D01*
X131333414Y-114369637D01*
X131359090Y-114361296D01*
X131380939Y-114345421D01*
X131389280Y-114340309D01*
X131413342Y-114328050D01*
X131428733Y-114312657D01*
X131428736Y-114312656D01*
X131435906Y-114305485D01*
X131435909Y-114305484D01*
X132041393Y-113699999D01*
X138480224Y-113699999D01*
X138499287Y-113917889D01*
X138555896Y-114129156D01*
X138648334Y-114327389D01*
X138691873Y-114389572D01*
X139381447Y-113700000D01*
X140088553Y-113700000D01*
X140778124Y-114389571D01*
X140821667Y-114327385D01*
X140914103Y-114129156D01*
X140970712Y-113917889D01*
X140989775Y-113699999D01*
X140970712Y-113482110D01*
X140914103Y-113270843D01*
X140821667Y-113072614D01*
X140778123Y-113010428D01*
X140088553Y-113700000D01*
X139381447Y-113700000D01*
X138691874Y-113010427D01*
X138648333Y-113072611D01*
X138555896Y-113270843D01*
X138499287Y-113482110D01*
X138480224Y-113699999D01*
X132041393Y-113699999D01*
X132957646Y-112783744D01*
X132973652Y-112772158D01*
X133201871Y-112656874D01*
X139045427Y-112656874D01*
X139734999Y-113346446D01*
X140424572Y-112656873D01*
X140362389Y-112613334D01*
X140164156Y-112520896D01*
X139952889Y-112464287D01*
X139735000Y-112445224D01*
X139517110Y-112464287D01*
X139305843Y-112520896D01*
X139107611Y-112613333D01*
X139045427Y-112656874D01*
X133201871Y-112656874D01*
X133313177Y-112600648D01*
X133333733Y-112587729D01*
X133343057Y-112582912D01*
X133367647Y-112572728D01*
X133483687Y-112483687D01*
X133572728Y-112367647D01*
X133628701Y-112232514D01*
X133647793Y-112087500D01*
X133628701Y-111942486D01*
X133572728Y-111807354D01*
X133483687Y-111691313D01*
X133483685Y-111691312D01*
X133483685Y-111691311D01*
X133367648Y-111602272D01*
X133232512Y-111546298D01*
X133087500Y-111527207D01*
X132942487Y-111546298D01*
X132807352Y-111602272D01*
X132691312Y-111691312D01*
X132602273Y-111807352D01*
X132592094Y-111831925D01*
X132587272Y-111841257D01*
X132574354Y-111861815D01*
X132402838Y-112201347D01*
X132391246Y-112217360D01*
X131027413Y-113581194D01*
X131007137Y-113594742D01*
X130983219Y-113599500D01*
X128292781Y-113599500D01*
X128248587Y-113581194D01*
X128230281Y-113537000D01*
X128248587Y-113492806D01*
X128394947Y-113346446D01*
X128957647Y-112783744D01*
X128973653Y-112772158D01*
X129313177Y-112600648D01*
X129333733Y-112587729D01*
X129343057Y-112582912D01*
X129367647Y-112572728D01*
X129483687Y-112483687D01*
X129572728Y-112367647D01*
X129628701Y-112232514D01*
X129647793Y-112087500D01*
X129628701Y-111942486D01*
X129572728Y-111807354D01*
X129483687Y-111691313D01*
X129483685Y-111691312D01*
X129483685Y-111691311D01*
X129367648Y-111602272D01*
X129232512Y-111546298D01*
X129087500Y-111527207D01*
X128942487Y-111546298D01*
X128807352Y-111602272D01*
X128691312Y-111691312D01*
X128602273Y-111807352D01*
X128592094Y-111831925D01*
X128587272Y-111841257D01*
X128574354Y-111861815D01*
X128402838Y-112201346D01*
X128391246Y-112217359D01*
X127527413Y-113081194D01*
X127507137Y-113094742D01*
X127483219Y-113099500D01*
X112691780Y-113099500D01*
X112667862Y-113094742D01*
X112647586Y-113081194D01*
X111418806Y-111852413D01*
X111400500Y-111808219D01*
X111400500Y-111500000D01*
X115564417Y-111500000D01*
X115584699Y-111705932D01*
X115584700Y-111705934D01*
X115644768Y-111903954D01*
X115730011Y-112063431D01*
X115742317Y-112086453D01*
X115873589Y-112246410D01*
X116033546Y-112377682D01*
X116033550Y-112377685D01*
X116216046Y-112475232D01*
X116414066Y-112535300D01*
X116620000Y-112555583D01*
X116825934Y-112535300D01*
X117023954Y-112475232D01*
X117206450Y-112377685D01*
X117366410Y-112246410D01*
X117497685Y-112086450D01*
X117595232Y-111903954D01*
X117655300Y-111705934D01*
X117675583Y-111500000D01*
X117655300Y-111294066D01*
X117595232Y-111096046D01*
X117497685Y-110913550D01*
X117464090Y-110872614D01*
X117366410Y-110753589D01*
X117206453Y-110622317D01*
X117206451Y-110622316D01*
X117206450Y-110622315D01*
X117023954Y-110524768D01*
X116879181Y-110480852D01*
X116825932Y-110464699D01*
X116620000Y-110444417D01*
X116414067Y-110464699D01*
X116216046Y-110524768D01*
X116033546Y-110622317D01*
X115873589Y-110753589D01*
X115742317Y-110913546D01*
X115644768Y-111096046D01*
X115584699Y-111294067D01*
X115564417Y-111500000D01*
X111400500Y-111500000D01*
X111400500Y-106499999D01*
X111939707Y-106499999D01*
X111958798Y-106645012D01*
X112014771Y-106780146D01*
X112023707Y-106791791D01*
X112103813Y-106896187D01*
X112219853Y-106985228D01*
X112244433Y-106995409D01*
X112253762Y-107000229D01*
X112274320Y-107013147D01*
X112613846Y-107184659D01*
X112629857Y-107196250D01*
X114631950Y-109198342D01*
X114721658Y-109288050D01*
X114740410Y-109297604D01*
X114745707Y-109300303D01*
X114754070Y-109305427D01*
X114775910Y-109321296D01*
X114791055Y-109326216D01*
X114801578Y-109329636D01*
X114810639Y-109333389D01*
X114824653Y-109340529D01*
X114834696Y-109345646D01*
X114861358Y-109349868D01*
X114870896Y-109352158D01*
X114896567Y-109360499D01*
X114923302Y-109360499D01*
X114923314Y-109360500D01*
X114928481Y-109360500D01*
X115024645Y-109360500D01*
X115052091Y-109366848D01*
X116187657Y-109921915D01*
X116190793Y-109922949D01*
X116191612Y-109923220D01*
X116201492Y-109927453D01*
X116216043Y-109935231D01*
X116216045Y-109935231D01*
X116216046Y-109935232D01*
X116414066Y-109995300D01*
X116620000Y-110015583D01*
X116825934Y-109995300D01*
X117023954Y-109935232D01*
X117206450Y-109837685D01*
X117366410Y-109706410D01*
X117497685Y-109546450D01*
X117595232Y-109363954D01*
X117655300Y-109165934D01*
X117675583Y-108960000D01*
X117655300Y-108754066D01*
X117595232Y-108556046D01*
X117497685Y-108373550D01*
X117464090Y-108332614D01*
X117366410Y-108213589D01*
X117206453Y-108082317D01*
X117206451Y-108082316D01*
X117206450Y-108082315D01*
X117023954Y-107984768D01*
X116937729Y-107958612D01*
X116825932Y-107924699D01*
X116620000Y-107904417D01*
X116414067Y-107924699D01*
X116216042Y-107984769D01*
X116201493Y-107992545D01*
X116191623Y-107996774D01*
X116187661Y-107998081D01*
X115137484Y-108511408D01*
X115099748Y-108516904D01*
X115065843Y-108499451D01*
X114029518Y-107463125D01*
X115930426Y-107463125D01*
X115992610Y-107506666D01*
X116190843Y-107599103D01*
X116402110Y-107655712D01*
X116620000Y-107674775D01*
X116837889Y-107655712D01*
X117049156Y-107599103D01*
X117247385Y-107506667D01*
X117309571Y-107463124D01*
X116620000Y-106773553D01*
X115930426Y-107463125D01*
X114029518Y-107463125D01*
X113196249Y-106629856D01*
X113184657Y-106613843D01*
X113086737Y-106420000D01*
X115365224Y-106420000D01*
X115384287Y-106637889D01*
X115440896Y-106849156D01*
X115533334Y-107047389D01*
X115576873Y-107109572D01*
X116266447Y-106420000D01*
X116973553Y-106420000D01*
X117663124Y-107109571D01*
X117706667Y-107047385D01*
X117799103Y-106849156D01*
X117855712Y-106637889D01*
X117874775Y-106420000D01*
X117855712Y-106202110D01*
X117804852Y-106012299D01*
X134939707Y-106012299D01*
X134958798Y-106157311D01*
X135014771Y-106292445D01*
X135103812Y-106408486D01*
X135219853Y-106497527D01*
X135354986Y-106553500D01*
X135500000Y-106572592D01*
X135645014Y-106553500D01*
X135672015Y-106542315D01*
X135680384Y-106539524D01*
X135711715Y-106531486D01*
X136064549Y-106404208D01*
X136085758Y-106400500D01*
X142382219Y-106400500D01*
X142426413Y-106418806D01*
X142444719Y-106463000D01*
X142426413Y-106507194D01*
X141840114Y-107093493D01*
X141795920Y-107111799D01*
X141584151Y-107111799D01*
X141564631Y-107108673D01*
X141223342Y-106996468D01*
X141223344Y-106996468D01*
X141203273Y-106989870D01*
X141203270Y-106989869D01*
X141182935Y-106985228D01*
X141179597Y-106984466D01*
X141169589Y-106981276D01*
X141145014Y-106971098D01*
X141000000Y-106952006D01*
X140854987Y-106971097D01*
X140719852Y-107027071D01*
X140603812Y-107116111D01*
X140514772Y-107232151D01*
X140458798Y-107367286D01*
X140439707Y-107512298D01*
X140458798Y-107657311D01*
X140514771Y-107792445D01*
X140603812Y-107908486D01*
X140706675Y-107987415D01*
X140728436Y-108018857D01*
X140727810Y-108057090D01*
X140705032Y-108087803D01*
X140668627Y-108099500D01*
X140084151Y-108099500D01*
X140064631Y-108096374D01*
X139723342Y-107984169D01*
X139723344Y-107984169D01*
X139703273Y-107977571D01*
X139703270Y-107977570D01*
X139690966Y-107974762D01*
X139679597Y-107972167D01*
X139669589Y-107968977D01*
X139645014Y-107958799D01*
X139500000Y-107939707D01*
X139354987Y-107958798D01*
X139219852Y-108014772D01*
X139103812Y-108103812D01*
X139014772Y-108219852D01*
X138958798Y-108354987D01*
X138939707Y-108499999D01*
X138958798Y-108645012D01*
X139014771Y-108780146D01*
X139103812Y-108896187D01*
X139180651Y-108955147D01*
X139219853Y-108985228D01*
X139354986Y-109041201D01*
X139500000Y-109060293D01*
X139645014Y-109041201D01*
X139669590Y-109031020D01*
X139679601Y-109027830D01*
X139703270Y-109022429D01*
X140064630Y-108903626D01*
X140084151Y-108900500D01*
X142073332Y-108900500D01*
X142073332Y-108903809D01*
X142095260Y-108904196D01*
X142126982Y-108930153D01*
X142135800Y-108970181D01*
X142117923Y-109007064D01*
X141733570Y-109391417D01*
X141697959Y-109409131D01*
X141514976Y-109434500D01*
X141468109Y-109440998D01*
X141468108Y-109440998D01*
X141468103Y-109440999D01*
X141458798Y-109444047D01*
X141447504Y-109446617D01*
X141354987Y-109458798D01*
X141219852Y-109514772D01*
X141103812Y-109603812D01*
X141014772Y-109719852D01*
X140958798Y-109854987D01*
X140939707Y-110000000D01*
X140958798Y-110145012D01*
X141014771Y-110280146D01*
X141103812Y-110396187D01*
X141214150Y-110480852D01*
X141219853Y-110485228D01*
X141354986Y-110541201D01*
X141500000Y-110560293D01*
X141645014Y-110541201D01*
X141645016Y-110541199D01*
X141648199Y-110540781D01*
X141685216Y-110547308D01*
X141711795Y-110573886D01*
X141718322Y-110610904D01*
X141703367Y-110724500D01*
X141701572Y-110738135D01*
X141703607Y-110753589D01*
X141720663Y-110883147D01*
X141776636Y-111018281D01*
X141865677Y-111134322D01*
X141977145Y-111219854D01*
X141981718Y-111223363D01*
X142116851Y-111279336D01*
X142261865Y-111298428D01*
X142406879Y-111279336D01*
X142542012Y-111223363D01*
X142658052Y-111134322D01*
X142747093Y-111018282D01*
X142757277Y-110993692D01*
X142762097Y-110984365D01*
X142775013Y-110963812D01*
X142946523Y-110624288D01*
X142958109Y-110608282D01*
X143305484Y-110260909D01*
X143305484Y-110260908D01*
X143312656Y-110253737D01*
X143312658Y-110253733D01*
X143328050Y-110238342D01*
X143340304Y-110214290D01*
X143345428Y-110205930D01*
X143347720Y-110202775D01*
X143361297Y-110184089D01*
X143369643Y-110158398D01*
X143373386Y-110149362D01*
X143385646Y-110125304D01*
X143389870Y-110098632D01*
X143392154Y-110089118D01*
X143400500Y-110063433D01*
X143400500Y-109936567D01*
X143400500Y-109565338D01*
X143418806Y-109521144D01*
X143504581Y-109435369D01*
X143600119Y-109339829D01*
X143641587Y-109321583D01*
X143684487Y-109336146D01*
X143706278Y-109375866D01*
X143708798Y-109395012D01*
X143764771Y-109530146D01*
X143853812Y-109646187D01*
X143949815Y-109719852D01*
X143969853Y-109735228D01*
X144104986Y-109791201D01*
X144250000Y-109810293D01*
X144395014Y-109791201D01*
X144530147Y-109735228D01*
X144646187Y-109646187D01*
X144735228Y-109530147D01*
X144745412Y-109505557D01*
X144750232Y-109496230D01*
X144763148Y-109475677D01*
X144934658Y-109136152D01*
X144946244Y-109120146D01*
X145305483Y-108760909D01*
X145328050Y-108738342D01*
X145340306Y-108714285D01*
X145345430Y-108705926D01*
X145361294Y-108684093D01*
X145361294Y-108684092D01*
X145361296Y-108684090D01*
X145369639Y-108658409D01*
X145373387Y-108649360D01*
X145385646Y-108625304D01*
X145389870Y-108598631D01*
X145392159Y-108589102D01*
X145400500Y-108563434D01*
X145400500Y-108191781D01*
X145418806Y-108147587D01*
X145953533Y-107612860D01*
X151434830Y-107612860D01*
X151453921Y-107757873D01*
X151509894Y-107893007D01*
X151598937Y-108009049D01*
X151611719Y-108018857D01*
X151714976Y-108098089D01*
X151718383Y-108099500D01*
X151726205Y-108102740D01*
X151736582Y-108108231D01*
X151737983Y-108109151D01*
X151737986Y-108109153D01*
X152071044Y-108327730D01*
X152080946Y-108335788D01*
X156147838Y-112402679D01*
X156152500Y-112407895D01*
X156176883Y-112438470D01*
X156214749Y-112464287D01*
X156225077Y-112471328D01*
X156226953Y-112472659D01*
X156273880Y-112507293D01*
X156274216Y-112507410D01*
X156288783Y-112514763D01*
X156289089Y-112514972D01*
X156334110Y-112528858D01*
X156344817Y-112532161D01*
X156347038Y-112532892D01*
X156363749Y-112538739D01*
X156402063Y-112552146D01*
X156402421Y-112552159D01*
X156418508Y-112554891D01*
X156418860Y-112555000D01*
X156477159Y-112555000D01*
X156479497Y-112555044D01*
X156537769Y-112557225D01*
X156537769Y-112557224D01*
X156537772Y-112557225D01*
X156538127Y-112557129D01*
X156554304Y-112555000D01*
X167428129Y-112555000D01*
X167440829Y-112556304D01*
X167830892Y-112637254D01*
X167830896Y-112637254D01*
X167832539Y-112637595D01*
X167843754Y-112641048D01*
X167854986Y-112645701D01*
X168000000Y-112664793D01*
X168145014Y-112645701D01*
X168280147Y-112589728D01*
X168396187Y-112500687D01*
X168485228Y-112384647D01*
X168541201Y-112249514D01*
X168560293Y-112104500D01*
X168560292Y-112104499D01*
X168561367Y-112096342D01*
X168562844Y-112096536D01*
X168568516Y-112068020D01*
X168598726Y-112041526D01*
X168599509Y-112041201D01*
X168599514Y-112041201D01*
X168734647Y-111985228D01*
X168850687Y-111896187D01*
X168939728Y-111780147D01*
X168995701Y-111645014D01*
X169014793Y-111500000D01*
X168995701Y-111354986D01*
X168939728Y-111219854D01*
X168850687Y-111103813D01*
X168850685Y-111103812D01*
X168850685Y-111103811D01*
X168734648Y-111014772D01*
X168599512Y-110958798D01*
X168454500Y-110939707D01*
X168309483Y-110958799D01*
X168298256Y-110963449D01*
X168287043Y-110966901D01*
X167895322Y-111048196D01*
X167882622Y-111049500D01*
X165748199Y-111049500D01*
X165710152Y-111036585D01*
X165687829Y-111003177D01*
X165690456Y-110963083D01*
X165700138Y-110939707D01*
X165718643Y-110895032D01*
X165737735Y-110750018D01*
X165718643Y-110605004D01*
X165716245Y-110599216D01*
X165712689Y-110563108D01*
X165729793Y-110531107D01*
X165761794Y-110514001D01*
X165797902Y-110517556D01*
X165854986Y-110541201D01*
X166000000Y-110560293D01*
X166145014Y-110541201D01*
X166280147Y-110485228D01*
X166396187Y-110396187D01*
X166485228Y-110280147D01*
X166541201Y-110145014D01*
X166560293Y-110000000D01*
X166541201Y-109854986D01*
X166531017Y-109830400D01*
X166527833Y-109820411D01*
X166522429Y-109796729D01*
X166403626Y-109435369D01*
X166400500Y-109415849D01*
X166400500Y-109370882D01*
X166397127Y-109360500D01*
X166392156Y-109345201D01*
X166389869Y-109335678D01*
X166385646Y-109309010D01*
X166373384Y-109284945D01*
X166369638Y-109275902D01*
X166361296Y-109250224D01*
X166361296Y-109250223D01*
X166345429Y-109228384D01*
X166340305Y-109220023D01*
X166328049Y-109195970D01*
X166309862Y-109177784D01*
X166309860Y-109177781D01*
X162139273Y-105007194D01*
X162120967Y-104963000D01*
X162139273Y-104918806D01*
X162183467Y-104900500D01*
X162915849Y-104900500D01*
X162935369Y-104903626D01*
X163296729Y-105022429D01*
X163320411Y-105027833D01*
X163330400Y-105031017D01*
X163354986Y-105041201D01*
X163500000Y-105060293D01*
X163645014Y-105041201D01*
X163780147Y-104985228D01*
X163896187Y-104896187D01*
X163985228Y-104780147D01*
X164041201Y-104645014D01*
X164060293Y-104500000D01*
X164041201Y-104354986D01*
X163985228Y-104219854D01*
X163896187Y-104103813D01*
X163896185Y-104103812D01*
X163896185Y-104103811D01*
X163777297Y-104012584D01*
X163755536Y-103981142D01*
X163756162Y-103942910D01*
X163778940Y-103912197D01*
X163815345Y-103900500D01*
X168808219Y-103900500D01*
X168852413Y-103918806D01*
X169890963Y-104957355D01*
X169902555Y-104973368D01*
X170074069Y-105312897D01*
X170086987Y-105333456D01*
X170091810Y-105342791D01*
X170101987Y-105367362D01*
X170191028Y-105483403D01*
X170267804Y-105542315D01*
X170307069Y-105572444D01*
X170442202Y-105628417D01*
X170587216Y-105647509D01*
X170732230Y-105628417D01*
X170867363Y-105572444D01*
X170983403Y-105483403D01*
X171072444Y-105367363D01*
X171128417Y-105232230D01*
X171147509Y-105087216D01*
X171128417Y-104942202D01*
X171072444Y-104807070D01*
X170983403Y-104691029D01*
X170983401Y-104691028D01*
X170983401Y-104691027D01*
X170867364Y-104601988D01*
X170842791Y-104591810D01*
X170833456Y-104586987D01*
X170812897Y-104574069D01*
X170473368Y-104402555D01*
X170457355Y-104390963D01*
X169257772Y-103191379D01*
X169257763Y-103191371D01*
X169238343Y-103171951D01*
X169238342Y-103171950D01*
X169214281Y-103159690D01*
X169205935Y-103154574D01*
X169184090Y-103138704D01*
X169168348Y-103133589D01*
X169158417Y-103130362D01*
X169149357Y-103126609D01*
X169125303Y-103114353D01*
X169098638Y-103110129D01*
X169089107Y-103107841D01*
X169063433Y-103099500D01*
X169063431Y-103099500D01*
X152584151Y-103099500D01*
X152564631Y-103096374D01*
X152223342Y-102984169D01*
X152223344Y-102984169D01*
X152203273Y-102977571D01*
X152203270Y-102977570D01*
X152190966Y-102974762D01*
X152179597Y-102972167D01*
X152169589Y-102968977D01*
X152145014Y-102958799D01*
X152000000Y-102939707D01*
X151854987Y-102958798D01*
X151719852Y-103014772D01*
X151603812Y-103103812D01*
X151514772Y-103219852D01*
X151458798Y-103354987D01*
X151439707Y-103500000D01*
X151458798Y-103645012D01*
X151514771Y-103780146D01*
X151603812Y-103896187D01*
X151674484Y-103950415D01*
X151696043Y-103981206D01*
X151696043Y-104018794D01*
X151674484Y-104049585D01*
X151603811Y-104103814D01*
X151514772Y-104219852D01*
X151458798Y-104354987D01*
X151439707Y-104499999D01*
X151458798Y-104645012D01*
X151514771Y-104780146D01*
X151603812Y-104896187D01*
X151702902Y-104972221D01*
X151719853Y-104985228D01*
X151854986Y-105041201D01*
X152000000Y-105060293D01*
X152145014Y-105041201D01*
X152169590Y-105031020D01*
X152179601Y-105027830D01*
X152203270Y-105022429D01*
X152203274Y-105022427D01*
X152203277Y-105022427D01*
X152358358Y-104971441D01*
X152399630Y-104972221D01*
X152431413Y-104998561D01*
X152439843Y-105038971D01*
X152436752Y-105062445D01*
X152446465Y-105136217D01*
X152439938Y-105173234D01*
X152413359Y-105199813D01*
X152376342Y-105206340D01*
X152250000Y-105189707D01*
X152104987Y-105208798D01*
X151969852Y-105264772D01*
X151853812Y-105353812D01*
X151764772Y-105469852D01*
X151708798Y-105604987D01*
X151689707Y-105750000D01*
X151708798Y-105895012D01*
X151764771Y-106030146D01*
X151853812Y-106146187D01*
X151949815Y-106219852D01*
X151969853Y-106235228D01*
X152104986Y-106291201D01*
X152250000Y-106310293D01*
X152395014Y-106291201D01*
X152419590Y-106281020D01*
X152429601Y-106277830D01*
X152453270Y-106272429D01*
X152814630Y-106153626D01*
X152834151Y-106150500D01*
X153563434Y-106150500D01*
X153576707Y-106146187D01*
X153589105Y-106142158D01*
X153598631Y-106139870D01*
X153625304Y-106135646D01*
X153649358Y-106123388D01*
X153658414Y-106119637D01*
X153684090Y-106111296D01*
X153705939Y-106095421D01*
X153714280Y-106090309D01*
X153738342Y-106078050D01*
X153753733Y-106062657D01*
X153753739Y-106062654D01*
X153897586Y-105918806D01*
X153917862Y-105905258D01*
X153941780Y-105900500D01*
X161308219Y-105900500D01*
X161352413Y-105918806D01*
X164758636Y-109325028D01*
X164772184Y-109345304D01*
X164776942Y-109369222D01*
X164776942Y-109580758D01*
X164765245Y-109617163D01*
X164734532Y-109639941D01*
X164696299Y-109640567D01*
X164664857Y-109618806D01*
X164663596Y-109617163D01*
X164596187Y-109529313D01*
X164596185Y-109529312D01*
X164596185Y-109529311D01*
X164480146Y-109440271D01*
X164426358Y-109417991D01*
X164422475Y-109416021D01*
X164417170Y-109414186D01*
X164345012Y-109384298D01*
X164281209Y-109375898D01*
X164276041Y-109374840D01*
X164270319Y-109374465D01*
X164243104Y-109370882D01*
X164200000Y-109365207D01*
X164156896Y-109370882D01*
X164129681Y-109374465D01*
X164121523Y-109375000D01*
X163279477Y-109375000D01*
X163271319Y-109374465D01*
X163244104Y-109370882D01*
X163201000Y-109365207D01*
X163157896Y-109370882D01*
X163130681Y-109374465D01*
X163122523Y-109375000D01*
X159979412Y-109375000D01*
X159955494Y-109370242D01*
X159935218Y-109356694D01*
X159118806Y-108540281D01*
X159100500Y-108496087D01*
X159100500Y-107478477D01*
X159101035Y-107470319D01*
X159101360Y-107467848D01*
X159110293Y-107400000D01*
X159091201Y-107254986D01*
X159035228Y-107119854D01*
X158946187Y-107003813D01*
X158946185Y-107003812D01*
X158946185Y-107003811D01*
X158830148Y-106914772D01*
X158695012Y-106858798D01*
X158550000Y-106839707D01*
X158404987Y-106858798D01*
X158269852Y-106914772D01*
X158153812Y-107003812D01*
X158064770Y-107119854D01*
X158042481Y-107173666D01*
X158040522Y-107177532D01*
X158038693Y-107182809D01*
X158008799Y-107254985D01*
X158000397Y-107318797D01*
X157999339Y-107323964D01*
X157998965Y-107329680D01*
X157989707Y-107400000D01*
X157998639Y-107467847D01*
X157998965Y-107470319D01*
X157999500Y-107478477D01*
X157999500Y-108671523D01*
X157998965Y-108679680D01*
X157998384Y-108684093D01*
X157994986Y-108709907D01*
X157989707Y-108750000D01*
X157990416Y-108755384D01*
X158008798Y-108895011D01*
X158008798Y-108895013D01*
X158008799Y-108895014D01*
X158011071Y-108900500D01*
X158031089Y-108948828D01*
X158032445Y-108952974D01*
X158034881Y-108957987D01*
X158064770Y-109030146D01*
X158103943Y-109081195D01*
X158106853Y-109085605D01*
X158110633Y-109089915D01*
X158153813Y-109146187D01*
X158210089Y-109189370D01*
X158216235Y-109194760D01*
X159328817Y-110307341D01*
X159330300Y-110308875D01*
X159374820Y-110356544D01*
X159412621Y-110379530D01*
X159417898Y-110383122D01*
X159453158Y-110409861D01*
X159474747Y-110418374D01*
X159484290Y-110423114D01*
X159504118Y-110435172D01*
X159546740Y-110447114D01*
X159552762Y-110449139D01*
X159593936Y-110465376D01*
X159613998Y-110467438D01*
X159617018Y-110467749D01*
X159627487Y-110469738D01*
X159649835Y-110476000D01*
X159694074Y-110476000D01*
X159700466Y-110476328D01*
X159744471Y-110480852D01*
X159744471Y-110480851D01*
X159744472Y-110480852D01*
X159767341Y-110476908D01*
X159777960Y-110476000D01*
X162947087Y-110476000D01*
X162991281Y-110494306D01*
X163439781Y-110942806D01*
X163458087Y-110987000D01*
X163439781Y-111031194D01*
X163395587Y-111049500D01*
X157065098Y-111049500D01*
X157020904Y-111031194D01*
X153075536Y-107085827D01*
X153067478Y-107075925D01*
X152847973Y-106741453D01*
X152842485Y-106731084D01*
X152837834Y-106719854D01*
X152748793Y-106603813D01*
X152748792Y-106603812D01*
X152632754Y-106514772D01*
X152497618Y-106458798D01*
X152352606Y-106439707D01*
X152207593Y-106458798D01*
X152072458Y-106514772D01*
X151956418Y-106603812D01*
X151867378Y-106719852D01*
X151811404Y-106854987D01*
X151792313Y-107000000D01*
X151797988Y-107043107D01*
X151790150Y-107082515D01*
X151759941Y-107109007D01*
X151714977Y-107127631D01*
X151598935Y-107216673D01*
X151509895Y-107332713D01*
X151453921Y-107467848D01*
X151434830Y-107612860D01*
X145953533Y-107612860D01*
X153256393Y-100309999D01*
X167509345Y-100309999D01*
X167529916Y-100518872D01*
X167590844Y-100719723D01*
X167603984Y-100744306D01*
X167689783Y-100904824D01*
X167822933Y-101067067D01*
X167985176Y-101200217D01*
X168170278Y-101299156D01*
X168371126Y-101360083D01*
X168580000Y-101380655D01*
X168788874Y-101360083D01*
X168989722Y-101299156D01*
X169174824Y-101200217D01*
X169337067Y-101067067D01*
X169470217Y-100904824D01*
X169569156Y-100719722D01*
X169630083Y-100518874D01*
X169650655Y-100310000D01*
X169650655Y-100309999D01*
X170049345Y-100309999D01*
X170069916Y-100518872D01*
X170130844Y-100719723D01*
X170143984Y-100744306D01*
X170229783Y-100904824D01*
X170362933Y-101067067D01*
X170525176Y-101200217D01*
X170710278Y-101299156D01*
X170911126Y-101360083D01*
X171120000Y-101380655D01*
X171290170Y-101363895D01*
X172959656Y-101363895D01*
X173025082Y-101409706D01*
X173225693Y-101503252D01*
X173439495Y-101560540D01*
X173660000Y-101579832D01*
X173880504Y-101560540D01*
X174094306Y-101503252D01*
X174294913Y-101409707D01*
X174360341Y-101363894D01*
X173660000Y-100663553D01*
X172959656Y-101363895D01*
X171290170Y-101363895D01*
X171328874Y-101360083D01*
X171529722Y-101299156D01*
X171714824Y-101200217D01*
X171877067Y-101067067D01*
X172010217Y-100904824D01*
X172109156Y-100719722D01*
X172170083Y-100518874D01*
X172190655Y-100310000D01*
X172190655Y-100309999D01*
X172390167Y-100309999D01*
X172409459Y-100530504D01*
X172466747Y-100744306D01*
X172560294Y-100944917D01*
X172606103Y-101010342D01*
X173306447Y-100310000D01*
X174013553Y-100310000D01*
X174713894Y-101010341D01*
X174759707Y-100944913D01*
X174853252Y-100744306D01*
X174910540Y-100530504D01*
X174929832Y-100309999D01*
X175129345Y-100309999D01*
X175149916Y-100518872D01*
X175210844Y-100719723D01*
X175223984Y-100744306D01*
X175309783Y-100904824D01*
X175442933Y-101067067D01*
X175605176Y-101200217D01*
X175790278Y-101299156D01*
X175991126Y-101360083D01*
X176200000Y-101380655D01*
X176408874Y-101360083D01*
X176609722Y-101299156D01*
X176794824Y-101200217D01*
X176957067Y-101067067D01*
X177090217Y-100904824D01*
X177189156Y-100719722D01*
X177250083Y-100518874D01*
X177270655Y-100310000D01*
X177250083Y-100101126D01*
X177189156Y-99900278D01*
X177090217Y-99715176D01*
X176957067Y-99552933D01*
X176794824Y-99419783D01*
X176773653Y-99408467D01*
X176609723Y-99320844D01*
X176408872Y-99259916D01*
X176222818Y-99241592D01*
X176200000Y-99239345D01*
X176199999Y-99239345D01*
X175991127Y-99259916D01*
X175790276Y-99320844D01*
X175605177Y-99419782D01*
X175442933Y-99552933D01*
X175309782Y-99715177D01*
X175210844Y-99900276D01*
X175149916Y-100101127D01*
X175129345Y-100309999D01*
X174929832Y-100309999D01*
X174910540Y-100089495D01*
X174853252Y-99875693D01*
X174759706Y-99675082D01*
X174713895Y-99609656D01*
X174013553Y-100310000D01*
X173306447Y-100310000D01*
X172606103Y-99609656D01*
X172560293Y-99675082D01*
X172466747Y-99875693D01*
X172409459Y-100089495D01*
X172390167Y-100309999D01*
X172190655Y-100309999D01*
X172170083Y-100101126D01*
X172109156Y-99900278D01*
X172010217Y-99715176D01*
X171877067Y-99552933D01*
X171714824Y-99419783D01*
X171693653Y-99408467D01*
X171529723Y-99320844D01*
X171328872Y-99259916D01*
X171290156Y-99256103D01*
X172959656Y-99256103D01*
X173659999Y-99956446D01*
X174360342Y-99256103D01*
X174294917Y-99210294D01*
X174094306Y-99116747D01*
X173880504Y-99059459D01*
X173660000Y-99040167D01*
X173439495Y-99059459D01*
X173225693Y-99116747D01*
X173025082Y-99210293D01*
X172959656Y-99256103D01*
X171290156Y-99256103D01*
X171142818Y-99241592D01*
X171120000Y-99239345D01*
X171119999Y-99239345D01*
X170911127Y-99259916D01*
X170710276Y-99320844D01*
X170525177Y-99419782D01*
X170362933Y-99552933D01*
X170229782Y-99715177D01*
X170130844Y-99900276D01*
X170069916Y-100101127D01*
X170049345Y-100309999D01*
X169650655Y-100309999D01*
X169630083Y-100101126D01*
X169569156Y-99900278D01*
X169470217Y-99715176D01*
X169337067Y-99552933D01*
X169174824Y-99419783D01*
X169153653Y-99408467D01*
X168989723Y-99320844D01*
X168788872Y-99259916D01*
X168602818Y-99241592D01*
X168580000Y-99239345D01*
X168579999Y-99239345D01*
X168371127Y-99259916D01*
X168170276Y-99320844D01*
X167985177Y-99419782D01*
X167822933Y-99552933D01*
X167689782Y-99715177D01*
X167590844Y-99900276D01*
X167529916Y-100101127D01*
X167509345Y-100309999D01*
X153256393Y-100309999D01*
X153828047Y-99738345D01*
X153828047Y-99738344D01*
X153828050Y-99738342D01*
X153840306Y-99714285D01*
X153845425Y-99705931D01*
X153861296Y-99684090D01*
X153869640Y-99658407D01*
X153873381Y-99649372D01*
X153885646Y-99625304D01*
X153889870Y-99598625D01*
X153892153Y-99589116D01*
X153900499Y-99563433D01*
X153900499Y-99536698D01*
X153900500Y-99536686D01*
X153900500Y-95780000D01*
X155049345Y-95780000D01*
X155069916Y-95988872D01*
X155130844Y-96189723D01*
X155218467Y-96353653D01*
X155229783Y-96374824D01*
X155362933Y-96537067D01*
X155525176Y-96670217D01*
X155710278Y-96769156D01*
X155911126Y-96830083D01*
X156120000Y-96850655D01*
X156328874Y-96830083D01*
X156529722Y-96769156D01*
X156714824Y-96670217D01*
X156877067Y-96537067D01*
X157010217Y-96374824D01*
X157109156Y-96189722D01*
X157170083Y-95988874D01*
X157190655Y-95780000D01*
X157170083Y-95571126D01*
X157109156Y-95370278D01*
X157010217Y-95185176D01*
X156877067Y-95022933D01*
X156714824Y-94889783D01*
X156693653Y-94878467D01*
X156529723Y-94790844D01*
X156328872Y-94729916D01*
X156120000Y-94709345D01*
X155911127Y-94729916D01*
X155710276Y-94790844D01*
X155525177Y-94889782D01*
X155362933Y-95022933D01*
X155229782Y-95185177D01*
X155130844Y-95370276D01*
X155069916Y-95571127D01*
X155049345Y-95780000D01*
X153900500Y-95780000D01*
X153900500Y-93240000D01*
X155049345Y-93240000D01*
X155069916Y-93448872D01*
X155130844Y-93649723D01*
X155179143Y-93740083D01*
X155229783Y-93834824D01*
X155362933Y-93997067D01*
X155525176Y-94130217D01*
X155710278Y-94229156D01*
X155911126Y-94290083D01*
X156120000Y-94310655D01*
X156328874Y-94290083D01*
X156529722Y-94229156D01*
X156714824Y-94130217D01*
X156877067Y-93997067D01*
X157010217Y-93834824D01*
X157109156Y-93649722D01*
X157170083Y-93448874D01*
X157190655Y-93240000D01*
X157170083Y-93031126D01*
X157109156Y-92830278D01*
X157034176Y-92690000D01*
X167509345Y-92690000D01*
X167529916Y-92898872D01*
X167590844Y-93099723D01*
X167665824Y-93240000D01*
X167689783Y-93284824D01*
X167822933Y-93447067D01*
X167985176Y-93580217D01*
X168170278Y-93679156D01*
X168371126Y-93740083D01*
X168580000Y-93760655D01*
X168788874Y-93740083D01*
X168989722Y-93679156D01*
X169174824Y-93580217D01*
X169337067Y-93447067D01*
X169470217Y-93284824D01*
X169569156Y-93099722D01*
X169630083Y-92898874D01*
X169650655Y-92690000D01*
X170049345Y-92690000D01*
X170069916Y-92898872D01*
X170130844Y-93099723D01*
X170205824Y-93240000D01*
X170229783Y-93284824D01*
X170362933Y-93447067D01*
X170525176Y-93580217D01*
X170710278Y-93679156D01*
X170911126Y-93740083D01*
X171120000Y-93760655D01*
X171328874Y-93740083D01*
X171529722Y-93679156D01*
X171714824Y-93580217D01*
X171877067Y-93447067D01*
X172010217Y-93284824D01*
X172109156Y-93099722D01*
X172170083Y-92898874D01*
X172190655Y-92690000D01*
X172589345Y-92690000D01*
X172609916Y-92898872D01*
X172670844Y-93099723D01*
X172745824Y-93240000D01*
X172769783Y-93284824D01*
X172902933Y-93447067D01*
X173065176Y-93580217D01*
X173250278Y-93679156D01*
X173451126Y-93740083D01*
X173660000Y-93760655D01*
X173868874Y-93740083D01*
X174069722Y-93679156D01*
X174254824Y-93580217D01*
X174352738Y-93499861D01*
X175134500Y-93499861D01*
X175137415Y-93524990D01*
X175182794Y-93627766D01*
X175262233Y-93707205D01*
X175262234Y-93707205D01*
X175262235Y-93707206D01*
X175365009Y-93752585D01*
X175390135Y-93755500D01*
X177009864Y-93755499D01*
X177034991Y-93752585D01*
X177137765Y-93707206D01*
X177217206Y-93627765D01*
X177262585Y-93524991D01*
X177265500Y-93499865D01*
X177265499Y-91880136D01*
X177262585Y-91855009D01*
X177217206Y-91752235D01*
X177217205Y-91752234D01*
X177217205Y-91752233D01*
X177137766Y-91672794D01*
X177063303Y-91639916D01*
X177034991Y-91627415D01*
X177009865Y-91624500D01*
X177009861Y-91624500D01*
X175390138Y-91624500D01*
X175365009Y-91627415D01*
X175262233Y-91672794D01*
X175182794Y-91752233D01*
X175137415Y-91855009D01*
X175134500Y-91880138D01*
X175134500Y-93499861D01*
X174352738Y-93499861D01*
X174417067Y-93447067D01*
X174550217Y-93284824D01*
X174649156Y-93099722D01*
X174710083Y-92898874D01*
X174730655Y-92690000D01*
X174710083Y-92481126D01*
X174649156Y-92280278D01*
X174550217Y-92095176D01*
X174417067Y-91932933D01*
X174254824Y-91799783D01*
X174233653Y-91788467D01*
X174069723Y-91700844D01*
X173868872Y-91639916D01*
X173660000Y-91619345D01*
X173451127Y-91639916D01*
X173250276Y-91700844D01*
X173065177Y-91799782D01*
X172902933Y-91932933D01*
X172769782Y-92095177D01*
X172670844Y-92280276D01*
X172609916Y-92481127D01*
X172589345Y-92690000D01*
X172190655Y-92690000D01*
X172170083Y-92481126D01*
X172109156Y-92280278D01*
X172010217Y-92095176D01*
X171877067Y-91932933D01*
X171714824Y-91799783D01*
X171693653Y-91788467D01*
X171529723Y-91700844D01*
X171328872Y-91639916D01*
X171120000Y-91619345D01*
X170911127Y-91639916D01*
X170710276Y-91700844D01*
X170525177Y-91799782D01*
X170362933Y-91932933D01*
X170229782Y-92095177D01*
X170130844Y-92280276D01*
X170069916Y-92481127D01*
X170049345Y-92690000D01*
X169650655Y-92690000D01*
X169630083Y-92481126D01*
X169569156Y-92280278D01*
X169470217Y-92095176D01*
X169337067Y-91932933D01*
X169174824Y-91799783D01*
X169153653Y-91788467D01*
X168989723Y-91700844D01*
X168788872Y-91639916D01*
X168580000Y-91619345D01*
X168371127Y-91639916D01*
X168170276Y-91700844D01*
X167985177Y-91799782D01*
X167822933Y-91932933D01*
X167689782Y-92095177D01*
X167590844Y-92280276D01*
X167529916Y-92481127D01*
X167509345Y-92690000D01*
X157034176Y-92690000D01*
X157010217Y-92645176D01*
X156877067Y-92482933D01*
X156714824Y-92349783D01*
X156693653Y-92338467D01*
X156529723Y-92250844D01*
X156328872Y-92189916D01*
X156120000Y-92169345D01*
X155911127Y-92189916D01*
X155710276Y-92250844D01*
X155525177Y-92349782D01*
X155362933Y-92482933D01*
X155229782Y-92645177D01*
X155130844Y-92830276D01*
X155069916Y-93031127D01*
X155049345Y-93240000D01*
X153900500Y-93240000D01*
X153900500Y-90700000D01*
X155049345Y-90700000D01*
X155069916Y-90908872D01*
X155130844Y-91109723D01*
X155218467Y-91273653D01*
X155229783Y-91294824D01*
X155362933Y-91457067D01*
X155525176Y-91590217D01*
X155710278Y-91689156D01*
X155911126Y-91750083D01*
X156120000Y-91770655D01*
X156328874Y-91750083D01*
X156529722Y-91689156D01*
X156714824Y-91590217D01*
X156877067Y-91457067D01*
X157010217Y-91294824D01*
X157109156Y-91109722D01*
X157170083Y-90908874D01*
X157190655Y-90700000D01*
X157170083Y-90491126D01*
X157109156Y-90290278D01*
X157010217Y-90105176D01*
X156877067Y-89942933D01*
X156714824Y-89809783D01*
X156693653Y-89798467D01*
X156529723Y-89710844D01*
X156328872Y-89649916D01*
X156120000Y-89629345D01*
X155911127Y-89649916D01*
X155710276Y-89710844D01*
X155525177Y-89809782D01*
X155362933Y-89942933D01*
X155229782Y-90105177D01*
X155130844Y-90290276D01*
X155069916Y-90491127D01*
X155049345Y-90700000D01*
X153900500Y-90700000D01*
X153900500Y-89691781D01*
X153918806Y-89647587D01*
X154335738Y-89230654D01*
X154770165Y-88796225D01*
X154802317Y-88779092D01*
X154838561Y-88782798D01*
X155689865Y-89140417D01*
X155701882Y-89145465D01*
X155701818Y-89145616D01*
X155709009Y-89148478D01*
X155710276Y-89149155D01*
X155710278Y-89149156D01*
X155911126Y-89210083D01*
X156120000Y-89230655D01*
X156328874Y-89210083D01*
X156529722Y-89149156D01*
X156714824Y-89050217D01*
X156877067Y-88917067D01*
X157010217Y-88754824D01*
X157109156Y-88569722D01*
X157170083Y-88368874D01*
X157190655Y-88160000D01*
X157170083Y-87951126D01*
X157109156Y-87750278D01*
X157010217Y-87565176D01*
X156877067Y-87402933D01*
X156714824Y-87269783D01*
X156693653Y-87258467D01*
X156529723Y-87170844D01*
X156328872Y-87109916D01*
X156120000Y-87089345D01*
X155911127Y-87109916D01*
X155710276Y-87170844D01*
X155525174Y-87269783D01*
X155425805Y-87351333D01*
X155420522Y-87355224D01*
X154822050Y-87749204D01*
X154787684Y-87759500D01*
X154776565Y-87759500D01*
X154750886Y-87767842D01*
X154741355Y-87770130D01*
X154714696Y-87774353D01*
X154690644Y-87786608D01*
X154681585Y-87790360D01*
X154655911Y-87798702D01*
X154634073Y-87814569D01*
X154625713Y-87819692D01*
X154601658Y-87831949D01*
X154549562Y-87884042D01*
X154549560Y-87884046D01*
X154381390Y-88052215D01*
X154378886Y-88054585D01*
X154369434Y-88063046D01*
X154365779Y-88067450D01*
X154361886Y-88071720D01*
X153507194Y-88926413D01*
X153475193Y-88943518D01*
X153439082Y-88939961D01*
X153411033Y-88916942D01*
X153400500Y-88882219D01*
X153400500Y-86391781D01*
X153418806Y-86347587D01*
X153621381Y-86145012D01*
X154146392Y-85620000D01*
X155049345Y-85620000D01*
X155069916Y-85828872D01*
X155130844Y-86029723D01*
X155192468Y-86145012D01*
X155229783Y-86214824D01*
X155362933Y-86377067D01*
X155525176Y-86510217D01*
X155710278Y-86609156D01*
X155911126Y-86670083D01*
X156120000Y-86690655D01*
X156328874Y-86670083D01*
X156529722Y-86609156D01*
X156714824Y-86510217D01*
X156877067Y-86377067D01*
X157010217Y-86214824D01*
X157109156Y-86029722D01*
X157170083Y-85828874D01*
X157190655Y-85620000D01*
X157170083Y-85411126D01*
X157109156Y-85210278D01*
X157010217Y-85025176D01*
X156877067Y-84862933D01*
X156714824Y-84729783D01*
X156693653Y-84718467D01*
X156529723Y-84630844D01*
X156328872Y-84569916D01*
X156120000Y-84549345D01*
X155911127Y-84569916D01*
X155710276Y-84630844D01*
X155525177Y-84729782D01*
X155362933Y-84862933D01*
X155229782Y-85025177D01*
X155130844Y-85210276D01*
X155069916Y-85411127D01*
X155049345Y-85620000D01*
X154146392Y-85620000D01*
X155253742Y-84512648D01*
X155277712Y-84497705D01*
X156499807Y-84079866D01*
X156503237Y-84078142D01*
X156513146Y-84074183D01*
X156529722Y-84069156D01*
X156714824Y-83970217D01*
X156877067Y-83837067D01*
X157010217Y-83674824D01*
X157109156Y-83489722D01*
X157170083Y-83288874D01*
X157190655Y-83080000D01*
X157170083Y-82871126D01*
X157109156Y-82670278D01*
X157010217Y-82485176D01*
X156877067Y-82322933D01*
X156714824Y-82189783D01*
X156693653Y-82178467D01*
X156529723Y-82090844D01*
X156328872Y-82029916D01*
X156142818Y-82011592D01*
X156120000Y-82009345D01*
X156119999Y-82009345D01*
X155911127Y-82029916D01*
X155710276Y-82090844D01*
X155525177Y-82189782D01*
X155362933Y-82322933D01*
X155229782Y-82485177D01*
X155130842Y-82670280D01*
X155125818Y-82686841D01*
X155121863Y-82696743D01*
X155120135Y-82700182D01*
X154702291Y-83922286D01*
X154687346Y-83946260D01*
X153057194Y-85576413D01*
X153025193Y-85593518D01*
X152989082Y-85589961D01*
X152961033Y-85566942D01*
X152950500Y-85532219D01*
X152950500Y-83141781D01*
X152968806Y-83097587D01*
X153396117Y-82670276D01*
X154207392Y-81859000D01*
X164969345Y-81859000D01*
X164989916Y-82067872D01*
X165050844Y-82268723D01*
X165063984Y-82293306D01*
X165149783Y-82453824D01*
X165282933Y-82616067D01*
X165445176Y-82749217D01*
X165630278Y-82848156D01*
X165831126Y-82909083D01*
X166040000Y-82929655D01*
X166210170Y-82912895D01*
X167879656Y-82912895D01*
X167945082Y-82958706D01*
X168145693Y-83052252D01*
X168359495Y-83109540D01*
X168579999Y-83128832D01*
X168800504Y-83109540D01*
X169014306Y-83052252D01*
X169214913Y-82958707D01*
X169280341Y-82912894D01*
X168580000Y-82212553D01*
X167879656Y-82912895D01*
X166210170Y-82912895D01*
X166248874Y-82909083D01*
X166449722Y-82848156D01*
X166634824Y-82749217D01*
X166797067Y-82616067D01*
X166930217Y-82453824D01*
X167029156Y-82268722D01*
X167090083Y-82067874D01*
X167110655Y-81859000D01*
X167110655Y-81858999D01*
X167310167Y-81858999D01*
X167329459Y-82079504D01*
X167386747Y-82293306D01*
X167480294Y-82493917D01*
X167526103Y-82559342D01*
X168226447Y-81859000D01*
X168933553Y-81859000D01*
X169633894Y-82559341D01*
X169679707Y-82493913D01*
X169773252Y-82293306D01*
X169830540Y-82079504D01*
X169849832Y-81859000D01*
X170049345Y-81859000D01*
X170069916Y-82067872D01*
X170130844Y-82268723D01*
X170143984Y-82293306D01*
X170229783Y-82453824D01*
X170362933Y-82616067D01*
X170525176Y-82749217D01*
X170710278Y-82848156D01*
X170911126Y-82909083D01*
X171120000Y-82929655D01*
X171328874Y-82909083D01*
X171529722Y-82848156D01*
X171714824Y-82749217D01*
X171877067Y-82616067D01*
X172010217Y-82453824D01*
X172109156Y-82268722D01*
X172170083Y-82067874D01*
X172190655Y-81859000D01*
X172589345Y-81859000D01*
X172609916Y-82067872D01*
X172670844Y-82268723D01*
X172683984Y-82293306D01*
X172769783Y-82453824D01*
X172902933Y-82616067D01*
X173065176Y-82749217D01*
X173250278Y-82848156D01*
X173451126Y-82909083D01*
X173660000Y-82929655D01*
X173830170Y-82912895D01*
X175499656Y-82912895D01*
X175565082Y-82958706D01*
X175765693Y-83052252D01*
X175979495Y-83109540D01*
X176199999Y-83128832D01*
X176420504Y-83109540D01*
X176634306Y-83052252D01*
X176834913Y-82958707D01*
X176900341Y-82912894D01*
X176200000Y-82212553D01*
X175499656Y-82912895D01*
X173830170Y-82912895D01*
X173868874Y-82909083D01*
X174069722Y-82848156D01*
X174254824Y-82749217D01*
X174417067Y-82616067D01*
X174550217Y-82453824D01*
X174649156Y-82268722D01*
X174710083Y-82067874D01*
X174730655Y-81859000D01*
X174730655Y-81858999D01*
X174930167Y-81858999D01*
X174949459Y-82079504D01*
X175006747Y-82293306D01*
X175100294Y-82493917D01*
X175146103Y-82559342D01*
X175846447Y-81859000D01*
X176553553Y-81859000D01*
X177253894Y-82559341D01*
X177299707Y-82493913D01*
X177393252Y-82293306D01*
X177450540Y-82079504D01*
X177469832Y-81859000D01*
X177669345Y-81859000D01*
X177689916Y-82067872D01*
X177750844Y-82268723D01*
X177763984Y-82293306D01*
X177849783Y-82453824D01*
X177982933Y-82616067D01*
X178145176Y-82749217D01*
X178330278Y-82848156D01*
X178531126Y-82909083D01*
X178740000Y-82929655D01*
X178948874Y-82909083D01*
X179149722Y-82848156D01*
X179334824Y-82749217D01*
X179497067Y-82616067D01*
X179630217Y-82453824D01*
X179729156Y-82268722D01*
X179790083Y-82067874D01*
X179810655Y-81859000D01*
X179790083Y-81650126D01*
X179729156Y-81449278D01*
X179630217Y-81264176D01*
X179497067Y-81101933D01*
X179334824Y-80968783D01*
X179274320Y-80936443D01*
X179149723Y-80869844D01*
X178948872Y-80808916D01*
X178740000Y-80788345D01*
X178531127Y-80808916D01*
X178330276Y-80869844D01*
X178145177Y-80968782D01*
X177982933Y-81101933D01*
X177849782Y-81264177D01*
X177750844Y-81449276D01*
X177689916Y-81650127D01*
X177669345Y-81859000D01*
X177469832Y-81859000D01*
X177469832Y-81858999D01*
X177450540Y-81638495D01*
X177393252Y-81424693D01*
X177299706Y-81224082D01*
X177253895Y-81158656D01*
X176553553Y-81859000D01*
X175846447Y-81859000D01*
X175146103Y-81158656D01*
X175100293Y-81224082D01*
X175006747Y-81424693D01*
X174949459Y-81638495D01*
X174930167Y-81858999D01*
X174730655Y-81858999D01*
X174710083Y-81650126D01*
X174649156Y-81449278D01*
X174550217Y-81264176D01*
X174417067Y-81101933D01*
X174254824Y-80968783D01*
X174194320Y-80936443D01*
X174069723Y-80869844D01*
X173868872Y-80808916D01*
X173830156Y-80805103D01*
X175499656Y-80805103D01*
X176199999Y-81505446D01*
X176900342Y-80805103D01*
X176834917Y-80759294D01*
X176634306Y-80665747D01*
X176420504Y-80608459D01*
X176200000Y-80589167D01*
X175979495Y-80608459D01*
X175765693Y-80665747D01*
X175565082Y-80759293D01*
X175499656Y-80805103D01*
X173830156Y-80805103D01*
X173660000Y-80788345D01*
X173451127Y-80808916D01*
X173250276Y-80869844D01*
X173065177Y-80968782D01*
X172902933Y-81101933D01*
X172769782Y-81264177D01*
X172670844Y-81449276D01*
X172609916Y-81650127D01*
X172589345Y-81859000D01*
X172190655Y-81859000D01*
X172170083Y-81650126D01*
X172109156Y-81449278D01*
X172010217Y-81264176D01*
X171877067Y-81101933D01*
X171714824Y-80968783D01*
X171654320Y-80936443D01*
X171529723Y-80869844D01*
X171328872Y-80808916D01*
X171120000Y-80788345D01*
X170911127Y-80808916D01*
X170710276Y-80869844D01*
X170525177Y-80968782D01*
X170362933Y-81101933D01*
X170229782Y-81264177D01*
X170130844Y-81449276D01*
X170069916Y-81650127D01*
X170049345Y-81859000D01*
X169849832Y-81859000D01*
X169849832Y-81858999D01*
X169830540Y-81638495D01*
X169773252Y-81424693D01*
X169679706Y-81224082D01*
X169633895Y-81158656D01*
X168933553Y-81859000D01*
X168226447Y-81859000D01*
X167526103Y-81158656D01*
X167480293Y-81224082D01*
X167386747Y-81424693D01*
X167329459Y-81638495D01*
X167310167Y-81858999D01*
X167110655Y-81858999D01*
X167090083Y-81650126D01*
X167029156Y-81449278D01*
X166930217Y-81264176D01*
X166797067Y-81101933D01*
X166634824Y-80968783D01*
X166574320Y-80936443D01*
X166449723Y-80869844D01*
X166248872Y-80808916D01*
X166210156Y-80805103D01*
X167879656Y-80805103D01*
X168579999Y-81505446D01*
X169280342Y-80805103D01*
X169214917Y-80759294D01*
X169014306Y-80665747D01*
X168800504Y-80608459D01*
X168580000Y-80589167D01*
X168359495Y-80608459D01*
X168145693Y-80665747D01*
X167945082Y-80759293D01*
X167879656Y-80805103D01*
X166210156Y-80805103D01*
X166040000Y-80788345D01*
X165831127Y-80808916D01*
X165630276Y-80869844D01*
X165445177Y-80968782D01*
X165282933Y-81101933D01*
X165149782Y-81264177D01*
X165050844Y-81449276D01*
X164989916Y-81650127D01*
X164969345Y-81859000D01*
X154207392Y-81859000D01*
X154815741Y-81250650D01*
X154846132Y-81233889D01*
X154880782Y-81235926D01*
X155053572Y-81297067D01*
X155714879Y-81531068D01*
X155723122Y-81533130D01*
X155726056Y-81533941D01*
X155911126Y-81590083D01*
X156120000Y-81610655D01*
X156328874Y-81590083D01*
X156529722Y-81529156D01*
X156714824Y-81430217D01*
X156877067Y-81297067D01*
X157010217Y-81134824D01*
X157109156Y-80949722D01*
X157170083Y-80748874D01*
X157190655Y-80540000D01*
X157170083Y-80331126D01*
X157109156Y-80130278D01*
X157010217Y-79945176D01*
X156877067Y-79782933D01*
X156714824Y-79649783D01*
X156579233Y-79577308D01*
X156529723Y-79550844D01*
X156328872Y-79489916D01*
X156120000Y-79469345D01*
X155911127Y-79489916D01*
X155710276Y-79550844D01*
X155525174Y-79649783D01*
X155396101Y-79755710D01*
X155385085Y-79762953D01*
X155384663Y-79763170D01*
X154903158Y-80133561D01*
X154884365Y-80143463D01*
X154870891Y-80147841D01*
X154861356Y-80150130D01*
X154834696Y-80154353D01*
X154810635Y-80166612D01*
X154801584Y-80170361D01*
X154784757Y-80175829D01*
X154775907Y-80178705D01*
X154754067Y-80194572D01*
X154745710Y-80199694D01*
X154721656Y-80211951D01*
X154699091Y-80234516D01*
X154459181Y-80474424D01*
X154453106Y-80479760D01*
X154451952Y-80480647D01*
X154410919Y-80522680D01*
X154410391Y-80523214D01*
X152244516Y-82689091D01*
X152221951Y-82711656D01*
X152209695Y-82735708D01*
X152204574Y-82744065D01*
X152188702Y-82765912D01*
X152180360Y-82791585D01*
X152176609Y-82800642D01*
X152164353Y-82824697D01*
X152160130Y-82851355D01*
X152157842Y-82860886D01*
X152149500Y-82886565D01*
X152149500Y-98949601D01*
X152144742Y-98973519D01*
X152131194Y-98993795D01*
X151007063Y-100117925D01*
X150970191Y-100135801D01*
X150930172Y-100126996D01*
X150904207Y-100095295D01*
X150903805Y-100073333D01*
X150900499Y-100073333D01*
X150900499Y-100036698D01*
X150900500Y-100036686D01*
X150900500Y-81191781D01*
X150918806Y-81147587D01*
X153647587Y-78418806D01*
X153691781Y-78400500D01*
X154494425Y-78400500D01*
X154521945Y-78406885D01*
X155235991Y-78757066D01*
X155681552Y-78975577D01*
X155685196Y-78976783D01*
X155695010Y-78980995D01*
X155710278Y-78989156D01*
X155911126Y-79050083D01*
X156120000Y-79070655D01*
X156328874Y-79050083D01*
X156529722Y-78989156D01*
X156714824Y-78890217D01*
X156877067Y-78757067D01*
X157010217Y-78594824D01*
X157109156Y-78409722D01*
X157170083Y-78208874D01*
X157190655Y-78000000D01*
X157170083Y-77791126D01*
X157109156Y-77590278D01*
X157010217Y-77405176D01*
X156877067Y-77242933D01*
X156714824Y-77109783D01*
X156617876Y-77057963D01*
X156529723Y-77010844D01*
X156328872Y-76949916D01*
X156120000Y-76929345D01*
X155911127Y-76949916D01*
X155710277Y-77010844D01*
X155695012Y-77019003D01*
X155685206Y-77023211D01*
X155681551Y-77024421D01*
X154521945Y-77593115D01*
X154494425Y-77599500D01*
X153436567Y-77599500D01*
X153410893Y-77607841D01*
X153401362Y-77610129D01*
X153374695Y-77614353D01*
X153350635Y-77626612D01*
X153341584Y-77630361D01*
X153324757Y-77635829D01*
X153315907Y-77638705D01*
X153294067Y-77654572D01*
X153285710Y-77659694D01*
X153261656Y-77671951D01*
X153239094Y-77694512D01*
X153239094Y-77694513D01*
X153239091Y-77694516D01*
X150194516Y-80739091D01*
X150194513Y-80739094D01*
X150192593Y-80741013D01*
X150192416Y-80741191D01*
X150163788Y-80757519D01*
X150130835Y-80757016D01*
X150102720Y-80739821D01*
X149917488Y-80543012D01*
X149900500Y-80500177D01*
X149900500Y-79691781D01*
X149918806Y-79647587D01*
X153687587Y-75878806D01*
X153731781Y-75860500D01*
X154494425Y-75860500D01*
X154521945Y-75866885D01*
X155507496Y-76350217D01*
X155681552Y-76435577D01*
X155685196Y-76436783D01*
X155695010Y-76440995D01*
X155710278Y-76449156D01*
X155911126Y-76510083D01*
X156120000Y-76530655D01*
X156328874Y-76510083D01*
X156529722Y-76449156D01*
X156714824Y-76350217D01*
X156877067Y-76217067D01*
X157010217Y-76054824D01*
X157109156Y-75869722D01*
X157170083Y-75668874D01*
X157190655Y-75460000D01*
X157170083Y-75251126D01*
X157109156Y-75050278D01*
X157040214Y-74921296D01*
X176045717Y-74921296D01*
X176055802Y-75235789D01*
X176106021Y-75546410D01*
X176142367Y-75668872D01*
X176195549Y-75848059D01*
X176322916Y-76135786D01*
X176406058Y-76272936D01*
X176486030Y-76404858D01*
X176650630Y-76611260D01*
X176682215Y-76650866D01*
X176908246Y-76869765D01*
X177160415Y-77057963D01*
X177434578Y-77212370D01*
X177591962Y-77276087D01*
X177726238Y-77330449D01*
X178030601Y-77410263D01*
X178342673Y-77450500D01*
X178578573Y-77450500D01*
X178578580Y-77450500D01*
X178814008Y-77435385D01*
X179122860Y-77375236D01*
X179421485Y-77276086D01*
X179704979Y-77139562D01*
X179968687Y-76967907D01*
X180208280Y-76763939D01*
X180419822Y-76531007D01*
X180599842Y-76272936D01*
X180745381Y-75993964D01*
X180854052Y-75698670D01*
X180924069Y-75391905D01*
X180954283Y-75078704D01*
X180944198Y-74764211D01*
X180893979Y-74453590D01*
X180804451Y-74151941D01*
X180693365Y-73900995D01*
X180677083Y-73864213D01*
X180513971Y-73595144D01*
X180513970Y-73595142D01*
X180317786Y-73349135D01*
X180307120Y-73338806D01*
X180091753Y-73130234D01*
X179839584Y-72942036D01*
X179565421Y-72787629D01*
X179273766Y-72669552D01*
X178969397Y-72589736D01*
X178657327Y-72549500D01*
X178421420Y-72549500D01*
X178185992Y-72564615D01*
X178185988Y-72564615D01*
X178185984Y-72564616D01*
X177877143Y-72624763D01*
X177578519Y-72723912D01*
X177295014Y-72860441D01*
X177031312Y-73032093D01*
X176791721Y-73236059D01*
X176580178Y-73468992D01*
X176400157Y-73727065D01*
X176254618Y-74006036D01*
X176145949Y-74301326D01*
X176075930Y-74608097D01*
X176045717Y-74921293D01*
X176045717Y-74921296D01*
X157040214Y-74921296D01*
X157010217Y-74865176D01*
X156877067Y-74702933D01*
X156714824Y-74569783D01*
X156693653Y-74558467D01*
X156529723Y-74470844D01*
X156328872Y-74409916D01*
X156120000Y-74389345D01*
X155911127Y-74409916D01*
X155710277Y-74470844D01*
X155695012Y-74479003D01*
X155685206Y-74483211D01*
X155681551Y-74484421D01*
X154521945Y-75053115D01*
X154494425Y-75059500D01*
X153476567Y-75059500D01*
X153450893Y-75067841D01*
X153441362Y-75070129D01*
X153414695Y-75074353D01*
X153390635Y-75086612D01*
X153381584Y-75090361D01*
X153364757Y-75095829D01*
X153355907Y-75098705D01*
X153334067Y-75114572D01*
X153325710Y-75119694D01*
X153301656Y-75131951D01*
X149171951Y-79261656D01*
X149159695Y-79285708D01*
X149154574Y-79294065D01*
X149138702Y-79315912D01*
X149130360Y-79341585D01*
X149126609Y-79350642D01*
X149114353Y-79374697D01*
X149110130Y-79401355D01*
X149107842Y-79410886D01*
X149099500Y-79436565D01*
X149099500Y-79516302D01*
X149088702Y-79551418D01*
X149060040Y-79574400D01*
X149023417Y-79577308D01*
X148991488Y-79559137D01*
X148917488Y-79480512D01*
X148900500Y-79437677D01*
X148900500Y-78191781D01*
X148918806Y-78147587D01*
X153727587Y-73338806D01*
X153771781Y-73320500D01*
X154494425Y-73320500D01*
X154521945Y-73326885D01*
X155068942Y-73595142D01*
X155681552Y-73895577D01*
X155685196Y-73896783D01*
X155695010Y-73900995D01*
X155710278Y-73909156D01*
X155911126Y-73970083D01*
X156120000Y-73990655D01*
X156328874Y-73970083D01*
X156529722Y-73909156D01*
X156714824Y-73810217D01*
X156877067Y-73677067D01*
X157010217Y-73514824D01*
X157109156Y-73329722D01*
X157170083Y-73128874D01*
X157190655Y-72920000D01*
X157170083Y-72711126D01*
X157109156Y-72510278D01*
X157010217Y-72325176D01*
X156877067Y-72162933D01*
X156714824Y-72029783D01*
X156693653Y-72018467D01*
X156529723Y-71930844D01*
X156328872Y-71869916D01*
X156120000Y-71849345D01*
X155911127Y-71869916D01*
X155710277Y-71930844D01*
X155695012Y-71939003D01*
X155685206Y-71943211D01*
X155681551Y-71944421D01*
X154521945Y-72513115D01*
X154494425Y-72519500D01*
X153516565Y-72519500D01*
X153490886Y-72527842D01*
X153481355Y-72530130D01*
X153454697Y-72534353D01*
X153430642Y-72546609D01*
X153421585Y-72550360D01*
X153395912Y-72558702D01*
X153374065Y-72574574D01*
X153365708Y-72579695D01*
X153341656Y-72591951D01*
X148171951Y-77761656D01*
X148159695Y-77785708D01*
X148154574Y-77794065D01*
X148138702Y-77815912D01*
X148130360Y-77841585D01*
X148126609Y-77850642D01*
X148114353Y-77874697D01*
X148110130Y-77901355D01*
X148107842Y-77910886D01*
X148099500Y-77936565D01*
X148099500Y-99808220D01*
X148094742Y-99832138D01*
X148081194Y-99852414D01*
X142352413Y-105581194D01*
X142308219Y-105599500D01*
X136078315Y-105599500D01*
X136060316Y-105596852D01*
X135856108Y-105535440D01*
X135847303Y-105532792D01*
X135847302Y-105532792D01*
X135695656Y-105487188D01*
X135688509Y-105486407D01*
X135671382Y-105482020D01*
X135645012Y-105471097D01*
X135500000Y-105452006D01*
X135354987Y-105471097D01*
X135219852Y-105527071D01*
X135103812Y-105616111D01*
X135014772Y-105732151D01*
X134958798Y-105867286D01*
X134939707Y-106012299D01*
X117804852Y-106012299D01*
X117799103Y-105990843D01*
X117706667Y-105792614D01*
X117663123Y-105730428D01*
X116973553Y-106420000D01*
X116266447Y-106420000D01*
X115576874Y-105730427D01*
X115533333Y-105792611D01*
X115440896Y-105990843D01*
X115384287Y-106202110D01*
X115365224Y-106420000D01*
X113086737Y-106420000D01*
X113013148Y-106274322D01*
X113000229Y-106253762D01*
X112995407Y-106244428D01*
X112985228Y-106219854D01*
X112937237Y-106157311D01*
X112896187Y-106103813D01*
X112896185Y-106103812D01*
X112896185Y-106103811D01*
X112780148Y-106014772D01*
X112645012Y-105958798D01*
X112500000Y-105939707D01*
X112354987Y-105958798D01*
X112219852Y-106014772D01*
X112103812Y-106103812D01*
X112014772Y-106219852D01*
X111958798Y-106354987D01*
X111939707Y-106499999D01*
X111400500Y-106499999D01*
X111400500Y-105376874D01*
X115930427Y-105376874D01*
X116619999Y-106066446D01*
X117309572Y-105376873D01*
X117247389Y-105333334D01*
X117049156Y-105240896D01*
X116837889Y-105184287D01*
X116620000Y-105165224D01*
X116402110Y-105184287D01*
X116190843Y-105240896D01*
X115992611Y-105333333D01*
X115930427Y-105376874D01*
X111400500Y-105376874D01*
X111400500Y-104963314D01*
X111400499Y-104963302D01*
X111400499Y-104936567D01*
X111392158Y-104910896D01*
X111389868Y-104901358D01*
X111386835Y-104882205D01*
X111385646Y-104874696D01*
X111375729Y-104855232D01*
X111373389Y-104850639D01*
X111369636Y-104841578D01*
X111361296Y-104815911D01*
X111361296Y-104815910D01*
X111345427Y-104794070D01*
X111340303Y-104785707D01*
X111328049Y-104761657D01*
X111238342Y-104671950D01*
X110643797Y-104077404D01*
X110637169Y-104067951D01*
X110636515Y-104068412D01*
X110504038Y-103880000D01*
X115564417Y-103880000D01*
X115584699Y-104085932D01*
X115618612Y-104197729D01*
X115644768Y-104283954D01*
X115742315Y-104466450D01*
X115742317Y-104466453D01*
X115873589Y-104626410D01*
X116033546Y-104757682D01*
X116033550Y-104757685D01*
X116216046Y-104855232D01*
X116414066Y-104915300D01*
X116620000Y-104935583D01*
X116825934Y-104915300D01*
X117023954Y-104855232D01*
X117206450Y-104757685D01*
X117366410Y-104626410D01*
X117497685Y-104466450D01*
X117595232Y-104283954D01*
X117655300Y-104085934D01*
X117675583Y-103880000D01*
X117655300Y-103674066D01*
X117602498Y-103500000D01*
X130439707Y-103500000D01*
X130458798Y-103645012D01*
X130514771Y-103780146D01*
X130603812Y-103896187D01*
X130664703Y-103942910D01*
X130719853Y-103985228D01*
X130854986Y-104041201D01*
X131000000Y-104060293D01*
X131145014Y-104041201D01*
X131280147Y-103985228D01*
X131396187Y-103896187D01*
X131485228Y-103780147D01*
X131489881Y-103768911D01*
X131495372Y-103758537D01*
X131496290Y-103757137D01*
X131496292Y-103757136D01*
X131714872Y-103424073D01*
X131722923Y-103414179D01*
X134414179Y-100722923D01*
X134424073Y-100714872D01*
X134757136Y-100496292D01*
X134757137Y-100496290D01*
X134758537Y-100495372D01*
X134768913Y-100489881D01*
X134780147Y-100485228D01*
X134896187Y-100396187D01*
X134985228Y-100280147D01*
X135041201Y-100145014D01*
X135060293Y-100000000D01*
X135041201Y-99854986D01*
X134985228Y-99719854D01*
X134896187Y-99603813D01*
X134896185Y-99603812D01*
X134896185Y-99603811D01*
X134780148Y-99514772D01*
X134645012Y-99458798D01*
X134500000Y-99439707D01*
X134354987Y-99458798D01*
X134219852Y-99514772D01*
X134103812Y-99603812D01*
X134014772Y-99719853D01*
X134010118Y-99731087D01*
X134004629Y-99741457D01*
X133785125Y-100075926D01*
X133777067Y-100085828D01*
X131085828Y-102777067D01*
X131075926Y-102785125D01*
X130741457Y-103004629D01*
X130731087Y-103010118D01*
X130719853Y-103014772D01*
X130603812Y-103103812D01*
X130514772Y-103219852D01*
X130458798Y-103354987D01*
X130439707Y-103500000D01*
X117602498Y-103500000D01*
X117595232Y-103476046D01*
X117497685Y-103293550D01*
X117497682Y-103293546D01*
X117366410Y-103133589D01*
X117206453Y-103002317D01*
X117206451Y-103002316D01*
X117206450Y-103002315D01*
X117023954Y-102904768D01*
X116935032Y-102877794D01*
X116825932Y-102844699D01*
X116642497Y-102826632D01*
X116620000Y-102824417D01*
X116619999Y-102824417D01*
X116414067Y-102844699D01*
X116216046Y-102904768D01*
X116033546Y-103002317D01*
X115873589Y-103133589D01*
X115742317Y-103293546D01*
X115644768Y-103476046D01*
X115584699Y-103674067D01*
X115564417Y-103880000D01*
X110504038Y-103880000D01*
X110061872Y-103251140D01*
X110050499Y-103215192D01*
X110050499Y-103085138D01*
X110050499Y-103085135D01*
X110047585Y-103060009D01*
X110002206Y-102957235D01*
X110002205Y-102957234D01*
X110002205Y-102957233D01*
X109922766Y-102877794D01*
X109847814Y-102844700D01*
X109819991Y-102832415D01*
X109794865Y-102829500D01*
X109794861Y-102829500D01*
X108205138Y-102829500D01*
X108180009Y-102832415D01*
X108077233Y-102877794D01*
X107997794Y-102957233D01*
X107952415Y-103060009D01*
X107949500Y-103085138D01*
X107949500Y-104674861D01*
X107952415Y-104699990D01*
X107997794Y-104802766D01*
X108077233Y-104882205D01*
X108077234Y-104882205D01*
X108077235Y-104882206D01*
X108180009Y-104927585D01*
X108205135Y-104930500D01*
X109794864Y-104930499D01*
X109819991Y-104927585D01*
X109850894Y-104913939D01*
X109857882Y-104911341D01*
X109890576Y-104901361D01*
X109890576Y-104901360D01*
X109890579Y-104901360D01*
X110150035Y-104775783D01*
X110187668Y-104770414D01*
X110221454Y-104787847D01*
X110581194Y-105147586D01*
X110594742Y-105167862D01*
X110599500Y-105191780D01*
X110599500Y-111936567D01*
X110599500Y-112063433D01*
X110607841Y-112089105D01*
X110610129Y-112098638D01*
X110614353Y-112125303D01*
X110626609Y-112149357D01*
X110630362Y-112158417D01*
X110638704Y-112184090D01*
X110642687Y-112189572D01*
X110654573Y-112205932D01*
X110659690Y-112214281D01*
X110671950Y-112238342D01*
X110671951Y-112238343D01*
X110691371Y-112257763D01*
X110691375Y-112257768D01*
X110694515Y-112260908D01*
X110694516Y-112260909D01*
X111338745Y-112905138D01*
X111926414Y-113492806D01*
X111943519Y-113524807D01*
X111939962Y-113560918D01*
X111916943Y-113588967D01*
X111882220Y-113599500D01*
X111343314Y-113599500D01*
X111343302Y-113599501D01*
X111316567Y-113599501D01*
X111304690Y-113603359D01*
X111290894Y-113607842D01*
X111281360Y-113610130D01*
X111254695Y-113614353D01*
X111230640Y-113626609D01*
X111221584Y-113630360D01*
X111195912Y-113638702D01*
X111174074Y-113654569D01*
X111165713Y-113659692D01*
X111141657Y-113671949D01*
X111119092Y-113694516D01*
X111119091Y-113694517D01*
X110059250Y-114754355D01*
X110038035Y-114768284D01*
X108629560Y-115325123D01*
X108606581Y-115329500D01*
X108205138Y-115329500D01*
X108180009Y-115332415D01*
X108077233Y-115377794D01*
X107997794Y-115457233D01*
X107977889Y-115502315D01*
X107952415Y-115560009D01*
X107950365Y-115577685D01*
X107949500Y-115585138D01*
X107949500Y-117174861D01*
X95174093Y-117174861D01*
X95135499Y-117013588D01*
X95135133Y-117011959D01*
X94831133Y-115571139D01*
X94830826Y-115569577D01*
X94565765Y-114121107D01*
X94565497Y-114119521D01*
X94339556Y-112664375D01*
X94339338Y-112662836D01*
X94324042Y-112543125D01*
X108310426Y-112543125D01*
X108372610Y-112586666D01*
X108570843Y-112679103D01*
X108782110Y-112735712D01*
X109000000Y-112754775D01*
X109217889Y-112735712D01*
X109429156Y-112679103D01*
X109627385Y-112586667D01*
X109689571Y-112543124D01*
X109000000Y-111853553D01*
X108310426Y-112543125D01*
X94324042Y-112543125D01*
X94190753Y-111499999D01*
X107745224Y-111499999D01*
X107764287Y-111717889D01*
X107820896Y-111929156D01*
X107913334Y-112127389D01*
X107956873Y-112189572D01*
X108646447Y-111500000D01*
X109353553Y-111500000D01*
X110043124Y-112189571D01*
X110086667Y-112127385D01*
X110179103Y-111929156D01*
X110235712Y-111717889D01*
X110254775Y-111499999D01*
X110235712Y-111282110D01*
X110179103Y-111070843D01*
X110086667Y-110872614D01*
X110043123Y-110810428D01*
X109353553Y-111500000D01*
X108646447Y-111500000D01*
X107956874Y-110810427D01*
X107913333Y-110872611D01*
X107820896Y-111070843D01*
X107764287Y-111282110D01*
X107745224Y-111499999D01*
X94190753Y-111499999D01*
X94152692Y-111202128D01*
X94152512Y-111200556D01*
X94032200Y-110003125D01*
X108310426Y-110003125D01*
X108372610Y-110046666D01*
X108570843Y-110139103D01*
X108684769Y-110169630D01*
X108718178Y-110191952D01*
X108731093Y-110230000D01*
X108718178Y-110268048D01*
X108684769Y-110290370D01*
X108570843Y-110320896D01*
X108372611Y-110413333D01*
X108310427Y-110456874D01*
X108999999Y-111146446D01*
X109689572Y-110456873D01*
X109627389Y-110413334D01*
X109429156Y-110320896D01*
X109315230Y-110290370D01*
X109281821Y-110268048D01*
X109268906Y-110230000D01*
X109281821Y-110191952D01*
X109315230Y-110169630D01*
X109429156Y-110139103D01*
X109627385Y-110046667D01*
X109689571Y-110003124D01*
X109000000Y-109313553D01*
X108310426Y-110003125D01*
X94032200Y-110003125D01*
X94005296Y-109735353D01*
X94005161Y-109733809D01*
X93948427Y-108960000D01*
X107745224Y-108960000D01*
X107764287Y-109177889D01*
X107820896Y-109389156D01*
X107913334Y-109587389D01*
X107956873Y-109649572D01*
X108646447Y-108960000D01*
X109353553Y-108960000D01*
X110043124Y-109649571D01*
X110086667Y-109587385D01*
X110179103Y-109389156D01*
X110235712Y-109177889D01*
X110254775Y-108960000D01*
X110235712Y-108742110D01*
X110179103Y-108530843D01*
X110086667Y-108332614D01*
X110043123Y-108270428D01*
X109353553Y-108960000D01*
X108646447Y-108960000D01*
X107956874Y-108270427D01*
X107913333Y-108332611D01*
X107820896Y-108530843D01*
X107764287Y-108742110D01*
X107745224Y-108960000D01*
X93948427Y-108960000D01*
X93897483Y-108265174D01*
X93897384Y-108263508D01*
X93889730Y-108098089D01*
X93881345Y-107916874D01*
X108310427Y-107916874D01*
X108999999Y-108606446D01*
X109689572Y-107916873D01*
X109627389Y-107873334D01*
X109429156Y-107780896D01*
X109217889Y-107724287D01*
X109000000Y-107705224D01*
X108782110Y-107724287D01*
X108570843Y-107780896D01*
X108372611Y-107873333D01*
X108310427Y-107916874D01*
X93881345Y-107916874D01*
X93829322Y-106792581D01*
X93829270Y-106790986D01*
X93822114Y-106420000D01*
X107944417Y-106420000D01*
X107964699Y-106625932D01*
X107993189Y-106719852D01*
X108024768Y-106823954D01*
X108122315Y-107006450D01*
X108122317Y-107006453D01*
X108253589Y-107166410D01*
X108413546Y-107297682D01*
X108413550Y-107297685D01*
X108596046Y-107395232D01*
X108794066Y-107455300D01*
X109000000Y-107475583D01*
X109205934Y-107455300D01*
X109403954Y-107395232D01*
X109586450Y-107297685D01*
X109746410Y-107166410D01*
X109877685Y-107006450D01*
X109975232Y-106823954D01*
X110035300Y-106625934D01*
X110055583Y-106420000D01*
X110035300Y-106214066D01*
X109975232Y-106016046D01*
X109877685Y-105833550D01*
X109844090Y-105792614D01*
X109746410Y-105673589D01*
X109586453Y-105542317D01*
X109586451Y-105542316D01*
X109586450Y-105542315D01*
X109403954Y-105444768D01*
X109317729Y-105418612D01*
X109205932Y-105384699D01*
X109022497Y-105366632D01*
X109000000Y-105364417D01*
X108999999Y-105364417D01*
X108794067Y-105384699D01*
X108596046Y-105444768D01*
X108413546Y-105542317D01*
X108253589Y-105673589D01*
X108122317Y-105833546D01*
X108024768Y-106016046D01*
X107964699Y-106214067D01*
X107944417Y-106420000D01*
X93822114Y-106420000D01*
X93800871Y-105318732D01*
X93800862Y-105317077D01*
X93801513Y-105232230D01*
X93812146Y-103844637D01*
X93812181Y-103842982D01*
X93814746Y-103768913D01*
X93863142Y-102371299D01*
X93863216Y-102369759D01*
X93953820Y-100899931D01*
X93953938Y-100898364D01*
X94084110Y-99431582D01*
X94084268Y-99430033D01*
X94253930Y-97967197D01*
X94254128Y-97965676D01*
X94463138Y-96508012D01*
X94463380Y-96506470D01*
X94587610Y-95780000D01*
X139809345Y-95780000D01*
X139829916Y-95988872D01*
X139890844Y-96189723D01*
X139978467Y-96353653D01*
X139989783Y-96374824D01*
X140122933Y-96537067D01*
X140285176Y-96670217D01*
X140470278Y-96769156D01*
X140671126Y-96830083D01*
X140880000Y-96850655D01*
X141088874Y-96830083D01*
X141289722Y-96769156D01*
X141474824Y-96670217D01*
X141637067Y-96537067D01*
X141770217Y-96374824D01*
X141869156Y-96189722D01*
X141930083Y-95988874D01*
X141950655Y-95780000D01*
X141930083Y-95571126D01*
X141869156Y-95370278D01*
X141770217Y-95185176D01*
X141637067Y-95022933D01*
X141474824Y-94889783D01*
X141453653Y-94878467D01*
X141289723Y-94790844D01*
X141088872Y-94729916D01*
X140880000Y-94709345D01*
X140671127Y-94729916D01*
X140470276Y-94790844D01*
X140285177Y-94889782D01*
X140122933Y-95022933D01*
X139989782Y-95185177D01*
X139890844Y-95370276D01*
X139829916Y-95571127D01*
X139809345Y-95780000D01*
X94587610Y-95780000D01*
X94711607Y-95054891D01*
X94711886Y-95053384D01*
X94999113Y-93609155D01*
X94999458Y-93607534D01*
X95082908Y-93240000D01*
X139809345Y-93240000D01*
X139829916Y-93448872D01*
X139890844Y-93649723D01*
X139939143Y-93740083D01*
X139989783Y-93834824D01*
X140122933Y-93997067D01*
X140285176Y-94130217D01*
X140470278Y-94229156D01*
X140671126Y-94290083D01*
X140880000Y-94310655D01*
X141088874Y-94290083D01*
X141289722Y-94229156D01*
X141474824Y-94130217D01*
X141637067Y-93997067D01*
X141770217Y-93834824D01*
X141869156Y-93649722D01*
X141930083Y-93448874D01*
X141950655Y-93240000D01*
X141930083Y-93031126D01*
X141869156Y-92830278D01*
X141770217Y-92645176D01*
X141637067Y-92482933D01*
X141474824Y-92349783D01*
X141453653Y-92338467D01*
X141289723Y-92250844D01*
X141088872Y-92189916D01*
X140880000Y-92169345D01*
X140671127Y-92189916D01*
X140470276Y-92250844D01*
X140285177Y-92349782D01*
X140122933Y-92482933D01*
X139989782Y-92645177D01*
X139890844Y-92830276D01*
X139829916Y-93031127D01*
X139809345Y-93240000D01*
X95082908Y-93240000D01*
X95325512Y-92171506D01*
X95325872Y-92170017D01*
X95690510Y-90743280D01*
X95690922Y-90741753D01*
X95702800Y-90700000D01*
X139809345Y-90700000D01*
X139829916Y-90908872D01*
X139890844Y-91109723D01*
X139978467Y-91273653D01*
X139989783Y-91294824D01*
X140122933Y-91457067D01*
X140285176Y-91590217D01*
X140470278Y-91689156D01*
X140671126Y-91750083D01*
X140880000Y-91770655D01*
X141088874Y-91750083D01*
X141289722Y-91689156D01*
X141474824Y-91590217D01*
X141637067Y-91457067D01*
X141770217Y-91294824D01*
X141869156Y-91109722D01*
X141930083Y-90908874D01*
X141950655Y-90700000D01*
X141930083Y-90491126D01*
X141869156Y-90290278D01*
X141770217Y-90105176D01*
X141637067Y-89942933D01*
X141474824Y-89809783D01*
X141453653Y-89798467D01*
X141289723Y-89710844D01*
X141088872Y-89649916D01*
X140880000Y-89629345D01*
X140671127Y-89649916D01*
X140470276Y-89710844D01*
X140285177Y-89809782D01*
X140122933Y-89942933D01*
X139989782Y-90105177D01*
X139890844Y-90290276D01*
X139829916Y-90491127D01*
X139809345Y-90700000D01*
X95702800Y-90700000D01*
X96093871Y-89325370D01*
X96094320Y-89323871D01*
X96535278Y-87918901D01*
X96535798Y-87917321D01*
X97014451Y-86524755D01*
X97014982Y-86523277D01*
X97210764Y-85999999D01*
X134439707Y-85999999D01*
X134458798Y-86145012D01*
X134514771Y-86280146D01*
X134603812Y-86396187D01*
X134719853Y-86485228D01*
X134854986Y-86541201D01*
X135000000Y-86560293D01*
X135145014Y-86541201D01*
X135156240Y-86536550D01*
X135167462Y-86533095D01*
X135169104Y-86532754D01*
X135169107Y-86532754D01*
X135559169Y-86451804D01*
X135571870Y-86450500D01*
X136787508Y-86450500D01*
X136831702Y-86468806D01*
X138821076Y-88458179D01*
X138825738Y-88463395D01*
X138850121Y-88493970D01*
X138850122Y-88493971D01*
X138898315Y-88526828D01*
X138900191Y-88528159D01*
X138947118Y-88562793D01*
X138947457Y-88562911D01*
X138962021Y-88570263D01*
X138962327Y-88570472D01*
X139018112Y-88587679D01*
X139020211Y-88588369D01*
X139075300Y-88607646D01*
X139075659Y-88607659D01*
X139091746Y-88610391D01*
X139092098Y-88610500D01*
X139150412Y-88610500D01*
X139152747Y-88610543D01*
X139173277Y-88611312D01*
X139211008Y-88612724D01*
X139211008Y-88612723D01*
X139211010Y-88612724D01*
X139211247Y-88612660D01*
X139211358Y-88612631D01*
X139227538Y-88610500D01*
X139259900Y-88610500D01*
X139285548Y-88616005D01*
X140450891Y-89140415D01*
X140450892Y-89140415D01*
X140450896Y-89140417D01*
X140451694Y-89140654D01*
X140463320Y-89145437D01*
X140470275Y-89149155D01*
X140470277Y-89149155D01*
X140470278Y-89149156D01*
X140671126Y-89210083D01*
X140880000Y-89230655D01*
X141088874Y-89210083D01*
X141289722Y-89149156D01*
X141474824Y-89050217D01*
X141637067Y-88917067D01*
X141770217Y-88754824D01*
X141869156Y-88569722D01*
X141930083Y-88368874D01*
X141950655Y-88160000D01*
X141930083Y-87951126D01*
X141869156Y-87750278D01*
X141770217Y-87565176D01*
X141637067Y-87402933D01*
X141474824Y-87269783D01*
X141453653Y-87258467D01*
X141289723Y-87170844D01*
X141088872Y-87109916D01*
X140880000Y-87089345D01*
X140671127Y-87109916D01*
X140470274Y-87170845D01*
X140463308Y-87174568D01*
X140451714Y-87179338D01*
X140450898Y-87179581D01*
X139363196Y-87669052D01*
X139326281Y-87673533D01*
X139293354Y-87656251D01*
X137338922Y-85701819D01*
X137334261Y-85696604D01*
X137309879Y-85666030D01*
X137309877Y-85666029D01*
X137309876Y-85666027D01*
X137261683Y-85633169D01*
X137259777Y-85631817D01*
X137212882Y-85597206D01*
X137212540Y-85597087D01*
X137197975Y-85589734D01*
X137197673Y-85589528D01*
X137141914Y-85572329D01*
X137139730Y-85571610D01*
X137084697Y-85552353D01*
X137084329Y-85552340D01*
X137068257Y-85549609D01*
X137067904Y-85549500D01*
X137067902Y-85549500D01*
X137009587Y-85549500D01*
X137007251Y-85549456D01*
X137005010Y-85549372D01*
X136948991Y-85547275D01*
X136948642Y-85547369D01*
X136932462Y-85549500D01*
X135571877Y-85549500D01*
X135559177Y-85548196D01*
X135167458Y-85466902D01*
X135156243Y-85463450D01*
X135145012Y-85458798D01*
X135021985Y-85442601D01*
X135000000Y-85439707D01*
X134999999Y-85439707D01*
X134854987Y-85458798D01*
X134719852Y-85514772D01*
X134603812Y-85603812D01*
X134514772Y-85719852D01*
X134458798Y-85854987D01*
X134439707Y-85999999D01*
X97210764Y-85999999D01*
X97531000Y-85144086D01*
X97531564Y-85142637D01*
X98084576Y-83777810D01*
X98085218Y-83776287D01*
X98674774Y-82426935D01*
X98675405Y-82425542D01*
X99109859Y-81499999D01*
X134439707Y-81499999D01*
X134458798Y-81645012D01*
X134514771Y-81780146D01*
X134514772Y-81780147D01*
X134603813Y-81896187D01*
X134719853Y-81985228D01*
X134744433Y-81995409D01*
X134753762Y-82000229D01*
X134774320Y-82013147D01*
X135113846Y-82184659D01*
X135129857Y-82196250D01*
X138863466Y-85929859D01*
X138863470Y-85929862D01*
X138881656Y-85948049D01*
X138905709Y-85960305D01*
X138914070Y-85965429D01*
X138935909Y-85981296D01*
X138943166Y-85983653D01*
X138961588Y-85989638D01*
X138970631Y-85993384D01*
X138994696Y-86005646D01*
X139021364Y-86009869D01*
X139030887Y-86012156D01*
X139056567Y-86020500D01*
X139088481Y-86020500D01*
X139183433Y-86020500D01*
X139254425Y-86020500D01*
X139281945Y-86026885D01*
X140145729Y-86450500D01*
X140441552Y-86595577D01*
X140445196Y-86596783D01*
X140455010Y-86600995D01*
X140470278Y-86609156D01*
X140671126Y-86670083D01*
X140880000Y-86690655D01*
X141088874Y-86670083D01*
X141289722Y-86609156D01*
X141474824Y-86510217D01*
X141637067Y-86377067D01*
X141770217Y-86214824D01*
X141869156Y-86029722D01*
X141930083Y-85828874D01*
X141950655Y-85620000D01*
X141930083Y-85411126D01*
X141869156Y-85210278D01*
X141770217Y-85025176D01*
X141637067Y-84862933D01*
X141474824Y-84729783D01*
X141453653Y-84718467D01*
X141289723Y-84630844D01*
X141088872Y-84569916D01*
X140880000Y-84549345D01*
X140671127Y-84569916D01*
X140470277Y-84630844D01*
X140455012Y-84639003D01*
X140445206Y-84643211D01*
X140441551Y-84644421D01*
X139320427Y-85194241D01*
X139282658Y-85199780D01*
X139248713Y-85182320D01*
X137146392Y-83079999D01*
X139809345Y-83079999D01*
X139829916Y-83288872D01*
X139890844Y-83489723D01*
X139978467Y-83653653D01*
X139989783Y-83674824D01*
X140122933Y-83837067D01*
X140285176Y-83970217D01*
X140470278Y-84069156D01*
X140671126Y-84130083D01*
X140880000Y-84150655D01*
X141088874Y-84130083D01*
X141289722Y-84069156D01*
X141474824Y-83970217D01*
X141637067Y-83837067D01*
X141770217Y-83674824D01*
X141869156Y-83489722D01*
X141930083Y-83288874D01*
X141950655Y-83080000D01*
X141930083Y-82871126D01*
X141869156Y-82670278D01*
X141770217Y-82485176D01*
X141637067Y-82322933D01*
X141474824Y-82189783D01*
X141453653Y-82178467D01*
X141289723Y-82090844D01*
X141088872Y-82029916D01*
X140902818Y-82011592D01*
X140880000Y-82009345D01*
X140879999Y-82009345D01*
X140671127Y-82029916D01*
X140470276Y-82090844D01*
X140285177Y-82189782D01*
X140122933Y-82322933D01*
X139989782Y-82485177D01*
X139890844Y-82670276D01*
X139829916Y-82871127D01*
X139809345Y-83079999D01*
X137146392Y-83079999D01*
X135696249Y-81629856D01*
X135684657Y-81613843D01*
X135683047Y-81610655D01*
X135513148Y-81274322D01*
X135500229Y-81253762D01*
X135495407Y-81244428D01*
X135485228Y-81219854D01*
X135396185Y-81103811D01*
X135280148Y-81014772D01*
X135145012Y-80958798D01*
X135000000Y-80939707D01*
X134854987Y-80958798D01*
X134719852Y-81014772D01*
X134603812Y-81103812D01*
X134514772Y-81219852D01*
X134458798Y-81354987D01*
X134439707Y-81499999D01*
X99109859Y-81499999D01*
X99301145Y-81092491D01*
X99301821Y-81091099D01*
X99578871Y-80539999D01*
X139809345Y-80539999D01*
X139829916Y-80748872D01*
X139890844Y-80949723D01*
X139901032Y-80968783D01*
X139989783Y-81134824D01*
X140122933Y-81297067D01*
X140285176Y-81430217D01*
X140470278Y-81529156D01*
X140671126Y-81590083D01*
X140880000Y-81610655D01*
X141088874Y-81590083D01*
X141289722Y-81529156D01*
X141474824Y-81430217D01*
X141637067Y-81297067D01*
X141770217Y-81134824D01*
X141869156Y-80949722D01*
X141930083Y-80748874D01*
X141950655Y-80540000D01*
X141930083Y-80331126D01*
X141869156Y-80130278D01*
X141770217Y-79945176D01*
X141637067Y-79782933D01*
X141474824Y-79649783D01*
X141339233Y-79577308D01*
X141289723Y-79550844D01*
X141088872Y-79489916D01*
X140880000Y-79469345D01*
X140671127Y-79489916D01*
X140470276Y-79550844D01*
X140285177Y-79649782D01*
X140122933Y-79782933D01*
X139989782Y-79945177D01*
X139890844Y-80130276D01*
X139829916Y-80331127D01*
X139809345Y-80539999D01*
X99578871Y-80539999D01*
X99963255Y-79775395D01*
X99963974Y-79774012D01*
X100660602Y-78476644D01*
X100661407Y-78475195D01*
X100698870Y-78409723D01*
X100933312Y-78000000D01*
X139809345Y-78000000D01*
X139829916Y-78208872D01*
X139890844Y-78409723D01*
X139926627Y-78476668D01*
X139989783Y-78594824D01*
X140122933Y-78757067D01*
X140285176Y-78890217D01*
X140470278Y-78989156D01*
X140671126Y-79050083D01*
X140880000Y-79070655D01*
X141088874Y-79050083D01*
X141289722Y-78989156D01*
X141474824Y-78890217D01*
X141637067Y-78757067D01*
X141770217Y-78594824D01*
X141869156Y-78409722D01*
X141930083Y-78208874D01*
X141950655Y-78000000D01*
X141930083Y-77791126D01*
X141869156Y-77590278D01*
X141770217Y-77405176D01*
X141637067Y-77242933D01*
X141474824Y-77109783D01*
X141377876Y-77057963D01*
X141289723Y-77010844D01*
X141088872Y-76949916D01*
X140880000Y-76929345D01*
X140671127Y-76949916D01*
X140470276Y-77010844D01*
X140285177Y-77109782D01*
X140122933Y-77242933D01*
X139989782Y-77405177D01*
X139890844Y-77590276D01*
X139829916Y-77791127D01*
X139809345Y-78000000D01*
X100933312Y-78000000D01*
X101392698Y-77197151D01*
X101393540Y-77195725D01*
X102159044Y-75937787D01*
X102159868Y-75936475D01*
X102815769Y-74921296D01*
X116045717Y-74921296D01*
X116055802Y-75235789D01*
X116106021Y-75546410D01*
X116142367Y-75668872D01*
X116195549Y-75848059D01*
X116322916Y-76135786D01*
X116406058Y-76272936D01*
X116486030Y-76404858D01*
X116650630Y-76611260D01*
X116682215Y-76650866D01*
X116908246Y-76869765D01*
X117160415Y-77057963D01*
X117434578Y-77212370D01*
X117591962Y-77276087D01*
X117726238Y-77330449D01*
X118030601Y-77410263D01*
X118342673Y-77450500D01*
X118578573Y-77450500D01*
X118578580Y-77450500D01*
X118814008Y-77435385D01*
X119122860Y-77375236D01*
X119421485Y-77276086D01*
X119704979Y-77139562D01*
X119968687Y-76967907D01*
X120208280Y-76763939D01*
X120419822Y-76531007D01*
X120599842Y-76272936D01*
X120745381Y-75993964D01*
X120854052Y-75698670D01*
X120908527Y-75460000D01*
X139809345Y-75460000D01*
X139829916Y-75668872D01*
X139890844Y-75869723D01*
X139927256Y-75937845D01*
X139989783Y-76054824D01*
X140122933Y-76217067D01*
X140285176Y-76350217D01*
X140470278Y-76449156D01*
X140671126Y-76510083D01*
X140880000Y-76530655D01*
X141088874Y-76510083D01*
X141289722Y-76449156D01*
X141474824Y-76350217D01*
X141637067Y-76217067D01*
X141770217Y-76054824D01*
X141869156Y-75869722D01*
X141930083Y-75668874D01*
X141950655Y-75460000D01*
X141930083Y-75251126D01*
X141869156Y-75050278D01*
X141770217Y-74865176D01*
X141637067Y-74702933D01*
X141474824Y-74569783D01*
X141453653Y-74558467D01*
X141289723Y-74470844D01*
X141088872Y-74409916D01*
X140880000Y-74389345D01*
X140671127Y-74409916D01*
X140470276Y-74470844D01*
X140285177Y-74569782D01*
X140122933Y-74702933D01*
X139989782Y-74865177D01*
X139890844Y-75050276D01*
X139829916Y-75251127D01*
X139809345Y-75460000D01*
X120908527Y-75460000D01*
X120924069Y-75391905D01*
X120954283Y-75078704D01*
X120944198Y-74764211D01*
X120893979Y-74453590D01*
X120804451Y-74151941D01*
X120693365Y-73900995D01*
X120677083Y-73864213D01*
X120513971Y-73595144D01*
X120513970Y-73595142D01*
X120317786Y-73349135D01*
X120307120Y-73338806D01*
X120091753Y-73130234D01*
X119839584Y-72942036D01*
X119800457Y-72920000D01*
X139809345Y-72920000D01*
X139829916Y-73128872D01*
X139890844Y-73329723D01*
X139895699Y-73338806D01*
X139989783Y-73514824D01*
X140122933Y-73677067D01*
X140285176Y-73810217D01*
X140470278Y-73909156D01*
X140671126Y-73970083D01*
X140880000Y-73990655D01*
X141088874Y-73970083D01*
X141289722Y-73909156D01*
X141474824Y-73810217D01*
X141637067Y-73677067D01*
X141770217Y-73514824D01*
X141869156Y-73329722D01*
X141930083Y-73128874D01*
X141950655Y-72920000D01*
X141930083Y-72711126D01*
X141869156Y-72510278D01*
X141770217Y-72325176D01*
X141637067Y-72162933D01*
X141474824Y-72029783D01*
X141453653Y-72018467D01*
X141289723Y-71930844D01*
X141088872Y-71869916D01*
X140880000Y-71849345D01*
X140671127Y-71869916D01*
X140470276Y-71930844D01*
X140285177Y-72029782D01*
X140122933Y-72162933D01*
X139989782Y-72325177D01*
X139890844Y-72510276D01*
X139829916Y-72711127D01*
X139809345Y-72920000D01*
X119800457Y-72920000D01*
X119565421Y-72787629D01*
X119273766Y-72669552D01*
X118969397Y-72589736D01*
X118657327Y-72549500D01*
X118421420Y-72549500D01*
X118185992Y-72564615D01*
X118185988Y-72564615D01*
X118185984Y-72564616D01*
X117877143Y-72624763D01*
X117578519Y-72723912D01*
X117295014Y-72860441D01*
X117031312Y-73032093D01*
X116791721Y-73236059D01*
X116580178Y-73468992D01*
X116400157Y-73727065D01*
X116254618Y-74006036D01*
X116145949Y-74301326D01*
X116075930Y-74608097D01*
X116045717Y-74921293D01*
X116045717Y-74921296D01*
X102815769Y-74921296D01*
X102959013Y-74699589D01*
X102959891Y-74698270D01*
X103792043Y-73483419D01*
X103792992Y-73482074D01*
X104184699Y-72942036D01*
X104657583Y-72290080D01*
X104658538Y-72288801D01*
X105554930Y-71120549D01*
X105555966Y-71119237D01*
X106155505Y-70380000D01*
X139809345Y-70380000D01*
X139829916Y-70588872D01*
X139890844Y-70789723D01*
X139909967Y-70825499D01*
X139989783Y-70974824D01*
X140122933Y-71137067D01*
X140285176Y-71270217D01*
X140470278Y-71369156D01*
X140671126Y-71430083D01*
X140880000Y-71450655D01*
X141088874Y-71430083D01*
X141289722Y-71369156D01*
X141304995Y-71360991D01*
X141314805Y-71356782D01*
X141318447Y-71355577D01*
X142399316Y-70825498D01*
X142437082Y-70819960D01*
X142471027Y-70837420D01*
X143481194Y-71847587D01*
X143499500Y-71891781D01*
X143499500Y-80115851D01*
X143496373Y-80135371D01*
X143377571Y-80496721D01*
X143372166Y-80520406D01*
X143368976Y-80530413D01*
X143358799Y-80554984D01*
X143339707Y-80700000D01*
X143358798Y-80845012D01*
X143414771Y-80980146D01*
X143503812Y-81096187D01*
X143585224Y-81158656D01*
X143619853Y-81185228D01*
X143754986Y-81241201D01*
X143900000Y-81260293D01*
X144045014Y-81241201D01*
X144180147Y-81185228D01*
X144296187Y-81096187D01*
X144385228Y-80980147D01*
X144441201Y-80845014D01*
X144460293Y-80700000D01*
X144441201Y-80554986D01*
X144431017Y-80530400D01*
X144427832Y-80520406D01*
X144422429Y-80496729D01*
X144303626Y-80135369D01*
X144300500Y-80115849D01*
X144300500Y-71636568D01*
X144300500Y-71636567D01*
X144292156Y-71610887D01*
X144289869Y-71601364D01*
X144285646Y-71574696D01*
X144273384Y-71550631D01*
X144269638Y-71541588D01*
X144261296Y-71515910D01*
X144261296Y-71515909D01*
X144245429Y-71494070D01*
X144240305Y-71485709D01*
X144228049Y-71461656D01*
X144209862Y-71443470D01*
X144209860Y-71443467D01*
X143146393Y-70380000D01*
X155049345Y-70380000D01*
X155069916Y-70588872D01*
X155130844Y-70789723D01*
X155149967Y-70825499D01*
X155229783Y-70974824D01*
X155362933Y-71137067D01*
X155525176Y-71270217D01*
X155710278Y-71369156D01*
X155911126Y-71430083D01*
X156120000Y-71450655D01*
X156328874Y-71430083D01*
X156529722Y-71369156D01*
X156714824Y-71270217D01*
X156877067Y-71137067D01*
X157010217Y-70974824D01*
X157109156Y-70789722D01*
X157170083Y-70588874D01*
X157190655Y-70380000D01*
X157170083Y-70171126D01*
X157109156Y-69970278D01*
X157010217Y-69785176D01*
X156877067Y-69622933D01*
X156714824Y-69489783D01*
X156693653Y-69478467D01*
X156529723Y-69390844D01*
X156328872Y-69329916D01*
X156120000Y-69309345D01*
X155911127Y-69329916D01*
X155710276Y-69390844D01*
X155525177Y-69489782D01*
X155362933Y-69622933D01*
X155229782Y-69785177D01*
X155130844Y-69970276D01*
X155069916Y-70171127D01*
X155049345Y-70380000D01*
X143146393Y-70380000D01*
X142837772Y-70071379D01*
X142837763Y-70071371D01*
X142818343Y-70051951D01*
X142818342Y-70051950D01*
X142794281Y-70039690D01*
X142785935Y-70034574D01*
X142764090Y-70018704D01*
X142750847Y-70014401D01*
X142738417Y-70010362D01*
X142729357Y-70006609D01*
X142705303Y-69994353D01*
X142678638Y-69990129D01*
X142669107Y-69987841D01*
X142643433Y-69979500D01*
X142643431Y-69979500D01*
X142505575Y-69979500D01*
X142478055Y-69973115D01*
X141318443Y-69404419D01*
X141314794Y-69403211D01*
X141304989Y-69399003D01*
X141289725Y-69390845D01*
X141088872Y-69329916D01*
X140880000Y-69309345D01*
X140671127Y-69329916D01*
X140470276Y-69390844D01*
X140285177Y-69489782D01*
X140122933Y-69622933D01*
X139989782Y-69785177D01*
X139890844Y-69970276D01*
X139829916Y-70171127D01*
X139809345Y-70380000D01*
X106155505Y-70380000D01*
X106483480Y-69975604D01*
X106484542Y-69974330D01*
X106485583Y-69973115D01*
X107410164Y-68893895D01*
X140179656Y-68893895D01*
X140245082Y-68939706D01*
X140445693Y-69033252D01*
X140659495Y-69090540D01*
X140880000Y-69109832D01*
X141100504Y-69090540D01*
X141314306Y-69033252D01*
X141514913Y-68939707D01*
X141580342Y-68893894D01*
X140880000Y-68193553D01*
X140179656Y-68893895D01*
X107410164Y-68893895D01*
X107442583Y-68856054D01*
X107443633Y-68854862D01*
X108361637Y-67839999D01*
X139610167Y-67839999D01*
X139629459Y-68060504D01*
X139686747Y-68274306D01*
X139780294Y-68474917D01*
X139826103Y-68540342D01*
X140526447Y-67840000D01*
X141233553Y-67840000D01*
X141933894Y-68540341D01*
X141979707Y-68474913D01*
X142073252Y-68274306D01*
X142130540Y-68060504D01*
X142149832Y-67840000D01*
X155049345Y-67840000D01*
X155069916Y-68048872D01*
X155130844Y-68249723D01*
X155134984Y-68257468D01*
X155229783Y-68434824D01*
X155362933Y-68597067D01*
X155525176Y-68730217D01*
X155710278Y-68829156D01*
X155911126Y-68890083D01*
X156120000Y-68910655D01*
X156328874Y-68890083D01*
X156529722Y-68829156D01*
X156714824Y-68730217D01*
X156877067Y-68597067D01*
X157010217Y-68434824D01*
X157109156Y-68249722D01*
X157170083Y-68048874D01*
X157190655Y-67840000D01*
X157170083Y-67631126D01*
X157109156Y-67430278D01*
X157010217Y-67245176D01*
X156877067Y-67082933D01*
X156714824Y-66949783D01*
X156665285Y-66923304D01*
X156529723Y-66850844D01*
X156328872Y-66789916D01*
X156120000Y-66769345D01*
X155911127Y-66789916D01*
X155710276Y-66850844D01*
X155525177Y-66949782D01*
X155362933Y-67082933D01*
X155229782Y-67245177D01*
X155130844Y-67430276D01*
X155069916Y-67631127D01*
X155049345Y-67840000D01*
X142149832Y-67840000D01*
X142149832Y-67839999D01*
X142130540Y-67619495D01*
X142073252Y-67405693D01*
X141979706Y-67205082D01*
X141933895Y-67139656D01*
X141233553Y-67840000D01*
X140526447Y-67840000D01*
X139826103Y-67139656D01*
X139780293Y-67205082D01*
X139686747Y-67405693D01*
X139629459Y-67619495D01*
X139610167Y-67839999D01*
X108361637Y-67839999D01*
X108431487Y-67762779D01*
X108432539Y-67761647D01*
X109449484Y-66696559D01*
X109450587Y-66695435D01*
X110093868Y-66057066D01*
X110257752Y-65894433D01*
X130331127Y-65894433D01*
X130383732Y-66090755D01*
X130479866Y-66296915D01*
X130610337Y-66483248D01*
X130771183Y-66644094D01*
X130957516Y-66774565D01*
X131163676Y-66870699D01*
X131359998Y-66923304D01*
X131360000Y-66923304D01*
X131360000Y-65894432D01*
X131860000Y-65894432D01*
X131860000Y-66923304D01*
X131860001Y-66923304D01*
X132056323Y-66870699D01*
X132262483Y-66774565D01*
X132448816Y-66644094D01*
X132609662Y-66483248D01*
X132740133Y-66296916D01*
X132823356Y-66118444D01*
X132856925Y-66086774D01*
X132903075Y-66086774D01*
X132936644Y-66118444D01*
X133019866Y-66296916D01*
X133150337Y-66483248D01*
X133311183Y-66644094D01*
X133497516Y-66774565D01*
X133703676Y-66870699D01*
X133899998Y-66923304D01*
X133900000Y-66923304D01*
X133900000Y-65894432D01*
X134400000Y-65894432D01*
X134400000Y-66923304D01*
X134400001Y-66923304D01*
X134596323Y-66870699D01*
X134777740Y-66786103D01*
X140179656Y-66786103D01*
X140879999Y-67486446D01*
X141580342Y-66786103D01*
X141514917Y-66740294D01*
X141314306Y-66646747D01*
X141100504Y-66589459D01*
X140880000Y-66570167D01*
X140659495Y-66589459D01*
X140445693Y-66646747D01*
X140245082Y-66740293D01*
X140179656Y-66786103D01*
X134777740Y-66786103D01*
X134802483Y-66774565D01*
X134988816Y-66644094D01*
X135149662Y-66483248D01*
X135280133Y-66296915D01*
X135376267Y-66090755D01*
X135428872Y-65894433D01*
X135428872Y-65894432D01*
X134400000Y-65894432D01*
X133900000Y-65894432D01*
X131860000Y-65894432D01*
X131360000Y-65894432D01*
X130331128Y-65894432D01*
X130331127Y-65894433D01*
X110257752Y-65894433D01*
X110495799Y-65658204D01*
X110496989Y-65657053D01*
X110776299Y-65394430D01*
X130331127Y-65394430D01*
X130331128Y-65394432D01*
X131360000Y-65394432D01*
X131860000Y-65394432D01*
X133900000Y-65394432D01*
X134400000Y-65394432D01*
X135428872Y-65394432D01*
X135428872Y-65394430D01*
X135403569Y-65299999D01*
X139809345Y-65299999D01*
X139829916Y-65508872D01*
X139890844Y-65709723D01*
X139978467Y-65873653D01*
X139989783Y-65894824D01*
X140122933Y-66057067D01*
X140285176Y-66190217D01*
X140470278Y-66289156D01*
X140671126Y-66350083D01*
X140880000Y-66370655D01*
X141088874Y-66350083D01*
X141289722Y-66289156D01*
X141474824Y-66190217D01*
X141637067Y-66057067D01*
X141770217Y-65894824D01*
X141869156Y-65709722D01*
X141930083Y-65508874D01*
X141950655Y-65300000D01*
X141950655Y-65299999D01*
X155049345Y-65299999D01*
X155069916Y-65508872D01*
X155130844Y-65709723D01*
X155218467Y-65873653D01*
X155229783Y-65894824D01*
X155362933Y-66057067D01*
X155525176Y-66190217D01*
X155710278Y-66289156D01*
X155911126Y-66350083D01*
X156120000Y-66370655D01*
X156328874Y-66350083D01*
X156529722Y-66289156D01*
X156714824Y-66190217D01*
X156877067Y-66057067D01*
X157010217Y-65894824D01*
X157109156Y-65709722D01*
X157170083Y-65508874D01*
X157190655Y-65300000D01*
X157170083Y-65091126D01*
X157109156Y-64890278D01*
X157010217Y-64705176D01*
X156877067Y-64542933D01*
X156714824Y-64409783D01*
X156632087Y-64365559D01*
X156529723Y-64310844D01*
X156328872Y-64249916D01*
X156120000Y-64229345D01*
X155911127Y-64249916D01*
X155710276Y-64310844D01*
X155525177Y-64409782D01*
X155362933Y-64542933D01*
X155229782Y-64705177D01*
X155130844Y-64890276D01*
X155069916Y-65091127D01*
X155049345Y-65299999D01*
X141950655Y-65299999D01*
X141930083Y-65091126D01*
X141869156Y-64890278D01*
X141770217Y-64705176D01*
X141637067Y-64542933D01*
X141474824Y-64409783D01*
X141392087Y-64365559D01*
X141289723Y-64310844D01*
X141088872Y-64249916D01*
X140880000Y-64229345D01*
X140671127Y-64249916D01*
X140470276Y-64310844D01*
X140285177Y-64409782D01*
X140122933Y-64542933D01*
X139989782Y-64705177D01*
X139890844Y-64890276D01*
X139829916Y-65091127D01*
X139809345Y-65299999D01*
X135403569Y-65299999D01*
X135376267Y-65198108D01*
X135280133Y-64991948D01*
X135149662Y-64805615D01*
X134988816Y-64644769D01*
X134802483Y-64514298D01*
X134596323Y-64418164D01*
X134400001Y-64365559D01*
X134400000Y-64365560D01*
X134400000Y-65394432D01*
X133900000Y-65394432D01*
X133900000Y-64365560D01*
X133899998Y-64365559D01*
X133703676Y-64418164D01*
X133497516Y-64514298D01*
X133311183Y-64644769D01*
X133150337Y-64805615D01*
X133019866Y-64991948D01*
X132936644Y-65170419D01*
X132903075Y-65202089D01*
X132856925Y-65202089D01*
X132823356Y-65170419D01*
X132740133Y-64991948D01*
X132609662Y-64805615D01*
X132448816Y-64644769D01*
X132262483Y-64514298D01*
X132056323Y-64418164D01*
X131860001Y-64365559D01*
X131860000Y-64365560D01*
X131860000Y-65394432D01*
X131360000Y-65394432D01*
X131360000Y-64365560D01*
X131359998Y-64365559D01*
X131163676Y-64418164D01*
X130957516Y-64514298D01*
X130771183Y-64644769D01*
X130610337Y-64805615D01*
X130479866Y-64991948D01*
X130383732Y-65198108D01*
X130331127Y-65394430D01*
X110776299Y-65394430D01*
X111569762Y-64648373D01*
X111570943Y-64647291D01*
X112670527Y-63667868D01*
X112671783Y-63666780D01*
X112849271Y-63517067D01*
X113746791Y-62759999D01*
X139809345Y-62759999D01*
X139829916Y-62968872D01*
X139890844Y-63169723D01*
X139903984Y-63194306D01*
X139989783Y-63354824D01*
X140122933Y-63517067D01*
X140285176Y-63650217D01*
X140470278Y-63749156D01*
X140671126Y-63810083D01*
X140880000Y-63830655D01*
X141050170Y-63813895D01*
X155419656Y-63813895D01*
X155485082Y-63859706D01*
X155685693Y-63953252D01*
X155899495Y-64010540D01*
X156120000Y-64029832D01*
X156340504Y-64010540D01*
X156554306Y-63953252D01*
X156754913Y-63859707D01*
X156820341Y-63813894D01*
X156120000Y-63113553D01*
X155419656Y-63813895D01*
X141050170Y-63813895D01*
X141088874Y-63810083D01*
X141289722Y-63749156D01*
X141474824Y-63650217D01*
X141637067Y-63517067D01*
X141770217Y-63354824D01*
X141869156Y-63169722D01*
X141930083Y-62968874D01*
X141950655Y-62760000D01*
X154850167Y-62760000D01*
X154869459Y-62980504D01*
X154926747Y-63194306D01*
X155020294Y-63394917D01*
X155066103Y-63460342D01*
X155766447Y-62760000D01*
X156473553Y-62760000D01*
X157173894Y-63460341D01*
X157219707Y-63394913D01*
X157313252Y-63194306D01*
X157370540Y-62980504D01*
X157389832Y-62760000D01*
X157370540Y-62539495D01*
X157313252Y-62325693D01*
X157219706Y-62125082D01*
X157173895Y-62059656D01*
X156473553Y-62760000D01*
X155766447Y-62760000D01*
X155066103Y-62059656D01*
X155020293Y-62125082D01*
X154926747Y-62325693D01*
X154869459Y-62539495D01*
X154850167Y-62760000D01*
X141950655Y-62760000D01*
X141930083Y-62551126D01*
X141869156Y-62350278D01*
X141770217Y-62165176D01*
X141637067Y-62002933D01*
X141474824Y-61869783D01*
X141339770Y-61797595D01*
X141289723Y-61770844D01*
X141088872Y-61709916D01*
X140880000Y-61689345D01*
X140671127Y-61709916D01*
X140470276Y-61770844D01*
X140285177Y-61869782D01*
X140122933Y-62002933D01*
X139989782Y-62165177D01*
X139890844Y-62350276D01*
X139829916Y-62551127D01*
X139809345Y-62759999D01*
X113746791Y-62759999D01*
X113797378Y-62717328D01*
X113798583Y-62716339D01*
X114949375Y-61797546D01*
X114950584Y-61796607D01*
X115965890Y-61029861D01*
X139814500Y-61029861D01*
X139817415Y-61054990D01*
X139862794Y-61157766D01*
X139942233Y-61237205D01*
X139942234Y-61237205D01*
X139942235Y-61237206D01*
X140045009Y-61282585D01*
X140070135Y-61285500D01*
X141689864Y-61285499D01*
X141714991Y-61282585D01*
X141817765Y-61237206D01*
X141897206Y-61157765D01*
X141942585Y-61054991D01*
X141945500Y-61029865D01*
X141945500Y-61018093D01*
X154934500Y-61018093D01*
X154950095Y-61116563D01*
X155010567Y-61235246D01*
X155104753Y-61329432D01*
X155104755Y-61329433D01*
X155223438Y-61389905D01*
X155321903Y-61405500D01*
X155812746Y-61405499D01*
X155853954Y-61421009D01*
X155874710Y-61459841D01*
X155864712Y-61502722D01*
X155828921Y-61528369D01*
X155685693Y-61566747D01*
X155485082Y-61660293D01*
X155419656Y-61706103D01*
X156119999Y-62406446D01*
X156820342Y-61706103D01*
X156754917Y-61660294D01*
X156554306Y-61566747D01*
X156411077Y-61528369D01*
X156375286Y-61502722D01*
X156365288Y-61459841D01*
X156386044Y-61421009D01*
X156427252Y-61405499D01*
X156918096Y-61405499D01*
X157016562Y-61389905D01*
X157135245Y-61329433D01*
X157229433Y-61235245D01*
X157289905Y-61116562D01*
X157305500Y-61018097D01*
X157305499Y-59421904D01*
X157289905Y-59323438D01*
X157229433Y-59204755D01*
X157229432Y-59204753D01*
X157135246Y-59110567D01*
X157016563Y-59050095D01*
X156991945Y-59046196D01*
X156918097Y-59034500D01*
X156918094Y-59034500D01*
X155321906Y-59034500D01*
X155223436Y-59050095D01*
X155104753Y-59110567D01*
X155010567Y-59204753D01*
X154950095Y-59323436D01*
X154950094Y-59323438D01*
X154950095Y-59323438D01*
X154936364Y-59410138D01*
X154934500Y-59421905D01*
X154934500Y-61018093D01*
X141945500Y-61018093D01*
X141945499Y-59410136D01*
X141942585Y-59385009D01*
X141897206Y-59282235D01*
X141897205Y-59282234D01*
X141897205Y-59282233D01*
X141817766Y-59202794D01*
X141766377Y-59180104D01*
X141714991Y-59157415D01*
X141689865Y-59154500D01*
X141689861Y-59154500D01*
X140070138Y-59154500D01*
X140045009Y-59157415D01*
X139942233Y-59202794D01*
X139862794Y-59282233D01*
X139817415Y-59385009D01*
X139814500Y-59410138D01*
X139814500Y-61029861D01*
X115965890Y-61029861D01*
X116125773Y-60909119D01*
X116126992Y-60908223D01*
X117325615Y-60052764D01*
X117326926Y-60051855D01*
X118548154Y-59229013D01*
X118549456Y-59228160D01*
X119792467Y-58438493D01*
X119793750Y-58437702D01*
X120484738Y-58024431D01*
X130504784Y-58024431D01*
X130523602Y-58227513D01*
X130579417Y-58423681D01*
X130670326Y-58606252D01*
X130670327Y-58606253D01*
X130793236Y-58769011D01*
X130943959Y-58906413D01*
X131117363Y-59013780D01*
X131211103Y-59050095D01*
X131279616Y-59076637D01*
X131307544Y-59087456D01*
X131508024Y-59124932D01*
X131711975Y-59124932D01*
X131711976Y-59124932D01*
X131912456Y-59087456D01*
X132102637Y-59013780D01*
X132276041Y-58906413D01*
X132316760Y-58869293D01*
X133049500Y-58869293D01*
X133051974Y-58890627D01*
X133052415Y-58894423D01*
X133057709Y-58906413D01*
X133097794Y-58997198D01*
X133177233Y-59076637D01*
X133177234Y-59076637D01*
X133177235Y-59076638D01*
X133280009Y-59122017D01*
X133305135Y-59124932D01*
X134994864Y-59124931D01*
X135019991Y-59122017D01*
X135122765Y-59076638D01*
X135202206Y-58997197D01*
X135247585Y-58894423D01*
X135250500Y-58869297D01*
X135250499Y-57179568D01*
X135247585Y-57154441D01*
X135202206Y-57051667D01*
X135202205Y-57051666D01*
X135202205Y-57051665D01*
X135122766Y-56972226D01*
X135071377Y-56949536D01*
X135019991Y-56926847D01*
X134994865Y-56923932D01*
X134994861Y-56923932D01*
X133305138Y-56923932D01*
X133280009Y-56926847D01*
X133177233Y-56972226D01*
X133097794Y-57051665D01*
X133052415Y-57154441D01*
X133049500Y-57179570D01*
X133049500Y-58869293D01*
X132316760Y-58869293D01*
X132426764Y-58769011D01*
X132549673Y-58606253D01*
X132640582Y-58423682D01*
X132696397Y-58227515D01*
X132715215Y-58024432D01*
X132696397Y-57821349D01*
X132640582Y-57625182D01*
X132549673Y-57442611D01*
X132426764Y-57279853D01*
X132276041Y-57142451D01*
X132102637Y-57035084D01*
X132102634Y-57035083D01*
X132102633Y-57035082D01*
X131912458Y-56961408D01*
X131778802Y-56936423D01*
X131711976Y-56923932D01*
X131508024Y-56923932D01*
X131457904Y-56933300D01*
X131307541Y-56961408D01*
X131117366Y-57035082D01*
X130943957Y-57142452D01*
X130793236Y-57279852D01*
X130670326Y-57442611D01*
X130579417Y-57625182D01*
X130523602Y-57821350D01*
X130504784Y-58024431D01*
X120484738Y-58024431D01*
X121057575Y-57681825D01*
X121058920Y-57681045D01*
X122342625Y-56959516D01*
X122344033Y-56958750D01*
X123646654Y-56272108D01*
X123648144Y-56271349D01*
X124968823Y-55620044D01*
X124970191Y-55619392D01*
X126307993Y-55003889D01*
X126309460Y-55003238D01*
X127663312Y-54424030D01*
X127664782Y-54423424D01*
X129033796Y-53880891D01*
X129035249Y-53880338D01*
X130418370Y-53374900D01*
X130419844Y-53374384D01*
X131816061Y-52906407D01*
X131817600Y-52905913D01*
X133225958Y-52475720D01*
X133227431Y-52475292D01*
X134646900Y-52083197D01*
X134648401Y-52082805D01*
X136077830Y-51729127D01*
X136079388Y-51728763D01*
X137517857Y-51413725D01*
X137519456Y-51413398D01*
X138965848Y-51137246D01*
X138967426Y-51136967D01*
X140420829Y-50899876D01*
X140422355Y-50899649D01*
X141881537Y-50701821D01*
X141883167Y-50701622D01*
X143347185Y-50543184D01*
X143348703Y-50543040D01*
X144816524Y-50424105D01*
X144818092Y-50423999D01*
X146288485Y-50344667D01*
X146290130Y-50344600D01*
X147762069Y-50304921D01*
X147763754Y-50304898D01*
X149236246Y-50304898D01*
X149237930Y-50304921D01*
G37*
%TD.AperFunction*%
%TD*%
%TA.AperFunction,Conductor*%
%TO.N,SPI_SCLK*%
G36*
X116333876Y-108273628D02*
G01*
X116337758Y-108278570D01*
X116619133Y-108955508D01*
X116620029Y-108959999D01*
X116619133Y-108964490D01*
X116337758Y-109641429D01*
X116333876Y-109646371D01*
X116327996Y-109648591D01*
X116321816Y-109647449D01*
X115661512Y-109324692D01*
X115126560Y-109063206D01*
X115121775Y-109058893D01*
X115120000Y-109052697D01*
X115120000Y-108867303D01*
X115121775Y-108861107D01*
X115126560Y-108856793D01*
X116321817Y-108272549D01*
X116327996Y-108271408D01*
X116333876Y-108273628D01*
G37*
%TD.AperFunction*%
%TD*%
%TA.AperFunction,Conductor*%
%TO.N,SPI_CS_FRAM0*%
G36*
X142557766Y-110312789D02*
G01*
X142687210Y-110442233D01*
X142690490Y-110448656D01*
X142689380Y-110455781D01*
X142502330Y-110826066D01*
X142495975Y-110831753D01*
X142487449Y-110831617D01*
X142265688Y-110740699D01*
X142261853Y-110738146D01*
X142259300Y-110734311D01*
X142168382Y-110512550D01*
X142168246Y-110504024D01*
X142173930Y-110497671D01*
X142544220Y-110310618D01*
X142551343Y-110309509D01*
X142557766Y-110312789D01*
G37*
%TD.AperFunction*%
%TD*%
%TA.AperFunction,Conductor*%
%TO.N,THERMISTOR*%
G36*
X146598335Y-108581074D02*
G01*
X146821177Y-108672435D01*
X146825011Y-108674988D01*
X146827564Y-108678823D01*
X146918924Y-108901662D01*
X146919274Y-108909563D01*
X146914517Y-108915882D01*
X146578401Y-109136466D01*
X146570787Y-109138323D01*
X146563709Y-109134957D01*
X146365042Y-108936290D01*
X146361676Y-108929212D01*
X146363532Y-108921600D01*
X146584118Y-108585481D01*
X146590436Y-108580725D01*
X146598335Y-108581074D01*
G37*
%TD.AperFunction*%
%TD*%
%TA.AperFunction,Conductor*%
%TO.N,SPI_CS_SD*%
G36*
X155828385Y-87461060D02*
G01*
X155832674Y-87466289D01*
X156118842Y-88154807D01*
X156119738Y-88159293D01*
X156118845Y-88163780D01*
X155831749Y-88855912D01*
X155828046Y-88860725D01*
X155822429Y-88863034D01*
X155816411Y-88862216D01*
X154736051Y-88408376D01*
X154732309Y-88405862D01*
X154602664Y-88276217D01*
X154599457Y-88270200D01*
X154600148Y-88263417D01*
X154604501Y-88258173D01*
X155815438Y-87461005D01*
X155821919Y-87459079D01*
X155828385Y-87461060D01*
G37*
%TD.AperFunction*%
%TD*%
%TA.AperFunction,Conductor*%
%TO.N,MEMORY_POWER*%
G36*
X117317631Y-116103140D02*
G01*
X117853985Y-117256462D01*
X117854897Y-117263434D01*
X117851649Y-117269669D01*
X117509669Y-117611649D01*
X117503434Y-117614897D01*
X117496462Y-117613985D01*
X116343140Y-117077631D01*
X116337174Y-117071275D01*
X116337258Y-117062560D01*
X116617438Y-116383785D01*
X116619979Y-116379979D01*
X116623785Y-116377438D01*
X117302560Y-116097258D01*
X117311275Y-116097174D01*
X117317631Y-116103140D01*
G37*
%TD.AperFunction*%
%TD*%
%TA.AperFunction,Conductor*%
%TO.N,CAN_RX*%
G36*
X165275833Y-110242241D02*
G01*
X165280087Y-110248064D01*
X165409653Y-110642161D01*
X165409181Y-110650676D01*
X165403054Y-110656608D01*
X165181958Y-110749128D01*
X165177442Y-110750035D01*
X165172926Y-110749128D01*
X164951829Y-110656608D01*
X164945702Y-110650676D01*
X164945230Y-110642161D01*
X165074797Y-110248064D01*
X165079051Y-110242241D01*
X165085912Y-110240018D01*
X165268972Y-110240018D01*
X165275833Y-110242241D01*
G37*
%TD.AperFunction*%
%TD*%
%TA.AperFunction,Conductor*%
%TO.N,CAN_TX*%
G36*
X143998391Y-80192223D02*
G01*
X144002645Y-80198046D01*
X144132211Y-80592143D01*
X144131739Y-80600658D01*
X144125612Y-80606590D01*
X143904516Y-80699110D01*
X143900000Y-80700017D01*
X143895484Y-80699110D01*
X143674387Y-80606590D01*
X143668260Y-80600658D01*
X143667788Y-80592143D01*
X143797355Y-80198046D01*
X143801609Y-80192223D01*
X143808470Y-80190000D01*
X143991530Y-80190000D01*
X143998391Y-80192223D01*
G37*
%TD.AperFunction*%
%TD*%
%TA.AperFunction,Conductor*%
%TO.N,CAN_SEND_STATUS*%
G36*
X167900801Y-111871976D02*
G01*
X167906140Y-111877811D01*
X167999110Y-112099984D01*
X168000017Y-112104500D01*
X167999110Y-112109016D01*
X167906140Y-112331188D01*
X167900801Y-112337023D01*
X167892970Y-112338128D01*
X167587150Y-112274661D01*
X167499322Y-112256434D01*
X167492625Y-112252364D01*
X167490000Y-112244979D01*
X167490000Y-111964021D01*
X167492625Y-111956636D01*
X167499322Y-111952565D01*
X167892970Y-111870871D01*
X167900801Y-111871976D01*
G37*
%TD.AperFunction*%
%TD*%
%TA.AperFunction,Conductor*%
%TO.N,SPI_SCLK*%
G36*
X112740465Y-106412068D02*
G01*
X112927515Y-106782353D01*
X112928625Y-106789478D01*
X112925345Y-106795901D01*
X112795901Y-106925345D01*
X112789478Y-106928625D01*
X112782353Y-106927515D01*
X112725845Y-106898970D01*
X112412067Y-106740464D01*
X112406381Y-106734110D01*
X112406516Y-106725586D01*
X112497437Y-106503819D01*
X112499988Y-106499988D01*
X112503819Y-106497437D01*
X112725586Y-106406516D01*
X112734110Y-106406381D01*
X112740465Y-106412068D01*
G37*
%TD.AperFunction*%
%TD*%
%TA.AperFunction,Conductor*%
%TO.N,SPI_CS_FRAM1*%
G36*
X109752118Y-103344506D02*
G01*
X109756805Y-103348408D01*
X110383457Y-104239648D01*
X110385542Y-104247386D01*
X110382159Y-104254651D01*
X110249091Y-104387719D01*
X110245915Y-104389977D01*
X109757487Y-104626375D01*
X109750442Y-104627381D01*
X109744117Y-104624117D01*
X109009021Y-103889021D01*
X109005846Y-103883164D01*
X109006383Y-103876524D01*
X109010455Y-103871255D01*
X109740399Y-103345642D01*
X109746104Y-103343493D01*
X109752118Y-103344506D01*
G37*
%TD.AperFunction*%
%TD*%
%TA.AperFunction,Conductor*%
%TO.N,CAN_TX*%
G36*
X153496826Y-104972209D02*
G01*
X153502425Y-104976490D01*
X153504549Y-104983212D01*
X153504549Y-105166296D01*
X153502236Y-105173279D01*
X153496212Y-105177502D01*
X153104719Y-105295007D01*
X153096357Y-105294379D01*
X153090563Y-105288317D01*
X152997934Y-105066960D01*
X152997028Y-105062446D01*
X152997933Y-105057935D01*
X153090332Y-104837127D01*
X153096419Y-104830933D01*
X153105101Y-104830642D01*
X153496826Y-104972209D01*
G37*
%TD.AperFunction*%
%TD*%
%TA.AperFunction,Conductor*%
%TO.N,SPI_CS_FRAM0*%
G36*
X132861913Y-111994016D02*
G01*
X133083677Y-112084935D01*
X133087511Y-112087488D01*
X133090064Y-112091323D01*
X133180982Y-112313084D01*
X133181118Y-112321610D01*
X133175431Y-112327965D01*
X132805146Y-112515015D01*
X132798021Y-112516125D01*
X132791598Y-112512845D01*
X132662154Y-112383401D01*
X132658874Y-112376978D01*
X132659983Y-112369855D01*
X132847036Y-111999565D01*
X132853389Y-111993881D01*
X132861913Y-111994016D01*
G37*
%TD.AperFunction*%
%TD*%
%TA.AperFunction,Conductor*%
%TO.N,CAN_SEND_STATUS*%
G36*
X152236005Y-107523343D02*
G01*
X152456589Y-107859459D01*
X152458446Y-107867073D01*
X152455080Y-107874151D01*
X152256413Y-108072818D01*
X152249335Y-108076184D01*
X152241721Y-108074327D01*
X151905605Y-107853743D01*
X151900848Y-107847424D01*
X151901197Y-107839525D01*
X151992560Y-107616680D01*
X151995111Y-107612849D01*
X151998942Y-107610298D01*
X152221787Y-107518935D01*
X152229686Y-107518586D01*
X152236005Y-107523343D01*
G37*
%TD.AperFunction*%
%TD*%
%TA.AperFunction,Conductor*%
%TO.N,SD_STATUS*%
G36*
X140588086Y-87459484D02*
G01*
X140591869Y-87464353D01*
X140879133Y-88155510D01*
X140880029Y-88160000D01*
X140879133Y-88164490D01*
X140591869Y-88855646D01*
X140588086Y-88860515D01*
X140582354Y-88862785D01*
X140576264Y-88861825D01*
X139858538Y-88538845D01*
X139356897Y-88313104D01*
X139351875Y-88308789D01*
X139350000Y-88302436D01*
X139350000Y-88017564D01*
X139351875Y-88011211D01*
X139356897Y-88006895D01*
X140576265Y-87458173D01*
X140582354Y-87457214D01*
X140588086Y-87459484D01*
G37*
%TD.AperFunction*%
%TD*%
%TA.AperFunction,Conductor*%
%TO.N,CAN_TX*%
G36*
X166098391Y-109492223D02*
G01*
X166102645Y-109498046D01*
X166232211Y-109892143D01*
X166231739Y-109900658D01*
X166225612Y-109906590D01*
X166004516Y-109999110D01*
X166000000Y-110000017D01*
X165995484Y-109999110D01*
X165774387Y-109906590D01*
X165768260Y-109900658D01*
X165767788Y-109892143D01*
X165897355Y-109498046D01*
X165901609Y-109492223D01*
X165908470Y-109490000D01*
X166091530Y-109490000D01*
X166098391Y-109492223D01*
G37*
%TD.AperFunction*%
%TD*%
%TA.AperFunction,Conductor*%
%TO.N,RECORD_STATUS*%
G36*
X131261290Y-103040042D02*
G01*
X131459957Y-103238709D01*
X131463323Y-103245787D01*
X131461466Y-103253401D01*
X131240882Y-103589517D01*
X131234563Y-103594274D01*
X131226662Y-103593924D01*
X131003823Y-103502564D01*
X130999988Y-103500011D01*
X130997435Y-103496176D01*
X130906075Y-103273337D01*
X130905725Y-103265436D01*
X130910481Y-103259118D01*
X131246600Y-103038532D01*
X131254212Y-103036676D01*
X131261290Y-103040042D01*
G37*
%TD.AperFunction*%
%TD*%
%TA.AperFunction,Conductor*%
%TO.N,SPI_MISO*%
G36*
X141127928Y-107286686D02*
G01*
X141501954Y-107409654D01*
X141507777Y-107413908D01*
X141510000Y-107420769D01*
X141510000Y-107603829D01*
X141507777Y-107610690D01*
X141501954Y-107614944D01*
X141107856Y-107744510D01*
X141099341Y-107744038D01*
X141093409Y-107737911D01*
X141000888Y-107516811D01*
X140999982Y-107512299D01*
X141000888Y-107507786D01*
X141093409Y-107286685D01*
X141099341Y-107280559D01*
X141107856Y-107280087D01*
X141127928Y-107286686D01*
G37*
%TD.AperFunction*%
%TD*%
%TA.AperFunction,Conductor*%
%TO.N,SPI_CS_FRAM1*%
G36*
X141853611Y-109697211D02*
G01*
X141858161Y-109700030D01*
X141987536Y-109829405D01*
X141990960Y-109837431D01*
X141987878Y-109845594D01*
X141688538Y-110171359D01*
X141683283Y-110174650D01*
X141677084Y-110174793D01*
X141671682Y-110171749D01*
X141502765Y-110004152D01*
X141500199Y-110000330D01*
X141499306Y-109995816D01*
X141499971Y-109755158D01*
X141502859Y-109747497D01*
X141510062Y-109743604D01*
X141848282Y-109696714D01*
X141853611Y-109697211D01*
G37*
%TD.AperFunction*%
%TD*%
%TA.AperFunction,Conductor*%
%TO.N,I2C_SCL*%
G36*
X152127928Y-104274387D02*
G01*
X152501954Y-104397355D01*
X152507777Y-104401609D01*
X152510000Y-104408470D01*
X152510000Y-104591530D01*
X152507777Y-104598391D01*
X152501954Y-104602645D01*
X152107856Y-104732211D01*
X152099341Y-104731739D01*
X152093409Y-104725612D01*
X152000888Y-104504512D01*
X151999982Y-104500000D01*
X152000888Y-104495487D01*
X152093409Y-104274386D01*
X152099341Y-104268260D01*
X152107856Y-104267788D01*
X152127928Y-104274387D01*
G37*
%TD.AperFunction*%
%TD*%
%TA.AperFunction,Conductor*%
%TO.N,SPI_CS_SD*%
G36*
X144545901Y-108824654D02*
G01*
X144675345Y-108954098D01*
X144678625Y-108960521D01*
X144677515Y-108967646D01*
X144490465Y-109337931D01*
X144484110Y-109343618D01*
X144475584Y-109343482D01*
X144253823Y-109252564D01*
X144249988Y-109250011D01*
X144247435Y-109246176D01*
X144156517Y-109024415D01*
X144156381Y-109015889D01*
X144162065Y-109009536D01*
X144532355Y-108822483D01*
X144539478Y-108821374D01*
X144545901Y-108824654D01*
G37*
%TD.AperFunction*%
%TD*%
%TA.AperFunction,Conductor*%
%TO.N,SPI_CS_FRAM1*%
G36*
X155586327Y-80006308D02*
G01*
X156115160Y-80533761D01*
X156118372Y-80539758D01*
X156117705Y-80546528D01*
X155831497Y-81236520D01*
X155825447Y-81242726D01*
X155816787Y-81243066D01*
X155253783Y-81043849D01*
X154771578Y-80873223D01*
X154767208Y-80870466D01*
X154637082Y-80740340D01*
X154633933Y-80734604D01*
X154634357Y-80728074D01*
X154638219Y-80722795D01*
X155570931Y-80005317D01*
X155578816Y-80002916D01*
X155586327Y-80006308D01*
G37*
%TD.AperFunction*%
%TD*%
%TA.AperFunction,Conductor*%
%TO.N,I2C_SCL*%
G36*
X163400658Y-104268260D02*
G01*
X163406590Y-104274387D01*
X163499110Y-104495484D01*
X163500017Y-104500000D01*
X163499110Y-104504516D01*
X163406590Y-104725612D01*
X163400658Y-104731739D01*
X163392143Y-104732211D01*
X162998046Y-104602645D01*
X162992223Y-104598391D01*
X162990000Y-104591530D01*
X162990000Y-104408470D01*
X162992223Y-104401609D01*
X162998046Y-104397355D01*
X163148069Y-104348031D01*
X163392144Y-104267788D01*
X163400658Y-104268260D01*
G37*
%TD.AperFunction*%
%TD*%
%TA.AperFunction,Conductor*%
%TO.N,SPI_MOSI*%
G36*
X155828139Y-72219782D02*
G01*
X155832025Y-72224728D01*
X156119133Y-72915509D01*
X156120029Y-72919999D01*
X156119133Y-72924489D01*
X155832025Y-73615271D01*
X155828139Y-73620217D01*
X155822253Y-73622435D01*
X155816069Y-73621286D01*
X154596548Y-73023211D01*
X154591771Y-73018895D01*
X154590000Y-73012706D01*
X154590000Y-72827294D01*
X154591771Y-72821105D01*
X154596548Y-72816789D01*
X154868835Y-72683253D01*
X155816071Y-72218712D01*
X155822253Y-72217564D01*
X155828139Y-72219782D01*
G37*
%TD.AperFunction*%
%TD*%
%TA.AperFunction,Conductor*%
%TO.N,I2C_SDA*%
G36*
X170304860Y-104659699D02*
G01*
X170675148Y-104846751D01*
X170680834Y-104853105D01*
X170680698Y-104861631D01*
X170589780Y-105083392D01*
X170587227Y-105087227D01*
X170583392Y-105089780D01*
X170361631Y-105180698D01*
X170353105Y-105180834D01*
X170346751Y-105175148D01*
X170159699Y-104804860D01*
X170158590Y-104797737D01*
X170161868Y-104791316D01*
X170291316Y-104661868D01*
X170297737Y-104658590D01*
X170304860Y-104659699D01*
G37*
%TD.AperFunction*%
%TD*%
%TA.AperFunction,Conductor*%
%TO.N,SPI_SCLK*%
G36*
X155828139Y-77299782D02*
G01*
X155832025Y-77304728D01*
X156119133Y-77995510D01*
X156120029Y-78000000D01*
X156119133Y-78004490D01*
X155832025Y-78695271D01*
X155828139Y-78700217D01*
X155822253Y-78702435D01*
X155816069Y-78701286D01*
X154596548Y-78103211D01*
X154591771Y-78098895D01*
X154590000Y-78092706D01*
X154590000Y-77907294D01*
X154591771Y-77901105D01*
X154596548Y-77896789D01*
X154868835Y-77763253D01*
X155816071Y-77298712D01*
X155822253Y-77297564D01*
X155828139Y-77299782D01*
G37*
%TD.AperFunction*%
%TD*%
%TA.AperFunction,Conductor*%
%TO.N,SPI_CS_FRAM0*%
G36*
X155424739Y-82791997D02*
G01*
X156116211Y-83077437D01*
X156120020Y-83079979D01*
X156122562Y-83083788D01*
X156408002Y-83775260D01*
X156408751Y-83781505D01*
X156406158Y-83787235D01*
X156400972Y-83790795D01*
X155115737Y-84230224D01*
X155109308Y-84230550D01*
X155103679Y-84227426D01*
X154972573Y-84096320D01*
X154969449Y-84090691D01*
X154969775Y-84084262D01*
X155071331Y-83787235D01*
X155409204Y-82799025D01*
X155412764Y-82793841D01*
X155418494Y-82791248D01*
X155424739Y-82791997D01*
G37*
%TD.AperFunction*%
%TD*%
%TA.AperFunction,Conductor*%
%TO.N,I2C_SDA*%
G36*
X152127928Y-103274387D02*
G01*
X152501954Y-103397355D01*
X152507777Y-103401609D01*
X152510000Y-103408470D01*
X152510000Y-103591530D01*
X152507777Y-103598391D01*
X152501954Y-103602645D01*
X152107856Y-103732211D01*
X152099341Y-103731739D01*
X152093409Y-103725612D01*
X152000888Y-103504512D01*
X151999982Y-103500000D01*
X152000888Y-103495487D01*
X152093409Y-103274386D01*
X152099341Y-103268260D01*
X152107856Y-103267788D01*
X152127928Y-103274387D01*
G37*
%TD.AperFunction*%
%TD*%
%TA.AperFunction,Conductor*%
%TO.N,MEMORY_POWER_CONTROL*%
G36*
X147004513Y-110500888D02*
G01*
X147226688Y-110593859D01*
X147232523Y-110599198D01*
X147233628Y-110607029D01*
X147151935Y-111000677D01*
X147147864Y-111007375D01*
X147140479Y-111010000D01*
X146859521Y-111010000D01*
X146852136Y-111007375D01*
X146848065Y-111000677D01*
X146766371Y-110607029D01*
X146767476Y-110599198D01*
X146773309Y-110593860D01*
X146995488Y-110500887D01*
X146999999Y-110499982D01*
X147004513Y-110500888D01*
G37*
%TD.AperFunction*%
%TD*%
%TA.AperFunction,Conductor*%
%TO.N,THERMISTOR*%
G36*
X129918813Y-131041852D02*
G01*
X129923130Y-131046821D01*
X130527141Y-132363258D01*
X130528142Y-132369370D01*
X130525883Y-132375136D01*
X130520996Y-132378941D01*
X129774489Y-132689134D01*
X129770000Y-132690030D01*
X129765511Y-132689134D01*
X129019003Y-132378941D01*
X129014116Y-132375136D01*
X129011857Y-132369370D01*
X129012857Y-132363261D01*
X129616870Y-131046820D01*
X129621187Y-131041852D01*
X129627504Y-131040000D01*
X129912496Y-131040000D01*
X129918813Y-131041852D01*
G37*
%TD.AperFunction*%
%TD*%
%TA.AperFunction,Conductor*%
%TO.N,CAN_RECEIVE_STATUS*%
G36*
X168355301Y-111267476D02*
G01*
X168360640Y-111273311D01*
X168453610Y-111495484D01*
X168454517Y-111500000D01*
X168453610Y-111504516D01*
X168360640Y-111726688D01*
X168355301Y-111732523D01*
X168347469Y-111733628D01*
X168228425Y-111708922D01*
X168224478Y-111707309D01*
X168191166Y-111685901D01*
X168065491Y-111649000D01*
X167956200Y-111649000D01*
X167947927Y-111645573D01*
X167944500Y-111637300D01*
X167944500Y-111359521D01*
X167947125Y-111352136D01*
X167953822Y-111348065D01*
X168347470Y-111266371D01*
X168355301Y-111267476D01*
G37*
%TD.AperFunction*%
%TD*%
%TA.AperFunction,Conductor*%
%TO.N,CAN_RECEIVE_STATUS*%
G36*
X152593488Y-106910482D02*
G01*
X152814072Y-107246598D01*
X152815929Y-107254212D01*
X152812563Y-107261290D01*
X152613896Y-107459957D01*
X152606818Y-107463323D01*
X152599204Y-107461466D01*
X152263088Y-107240882D01*
X152258331Y-107234563D01*
X152258680Y-107226664D01*
X152350043Y-107003819D01*
X152352594Y-106999988D01*
X152356425Y-106997437D01*
X152579270Y-106906074D01*
X152587169Y-106905725D01*
X152593488Y-106910482D01*
G37*
%TD.AperFunction*%
%TD*%
%TA.AperFunction,Conductor*%
%TO.N,RECORD_STATUS*%
G36*
X134273335Y-99906074D02*
G01*
X134496177Y-99997435D01*
X134500011Y-99999988D01*
X134502564Y-100003823D01*
X134593924Y-100226662D01*
X134594274Y-100234563D01*
X134589517Y-100240882D01*
X134253401Y-100461466D01*
X134245787Y-100463323D01*
X134238709Y-100459957D01*
X134040042Y-100261290D01*
X134036676Y-100254212D01*
X134038532Y-100246600D01*
X134259118Y-99910481D01*
X134265436Y-99905725D01*
X134273335Y-99906074D01*
G37*
%TD.AperFunction*%
%TD*%
%TA.AperFunction,Conductor*%
%TO.N,CAN_RX*%
G36*
X152377928Y-105524387D02*
G01*
X152751954Y-105647355D01*
X152757777Y-105651609D01*
X152760000Y-105658470D01*
X152760000Y-105841530D01*
X152757777Y-105848391D01*
X152751954Y-105852645D01*
X152357856Y-105982211D01*
X152349341Y-105981739D01*
X152343409Y-105975612D01*
X152250888Y-105754512D01*
X152249982Y-105750000D01*
X152250888Y-105745487D01*
X152343409Y-105524386D01*
X152349341Y-105518260D01*
X152357856Y-105517788D01*
X152377928Y-105524387D01*
G37*
%TD.AperFunction*%
%TD*%
%TA.AperFunction,Conductor*%
%TO.N,SD_CHECK*%
G36*
X140588139Y-84919782D02*
G01*
X140592025Y-84924728D01*
X140879133Y-85615510D01*
X140880029Y-85620000D01*
X140879133Y-85624490D01*
X140592025Y-86315271D01*
X140588139Y-86320217D01*
X140582253Y-86322435D01*
X140576069Y-86321286D01*
X139356548Y-85723211D01*
X139351771Y-85718895D01*
X139350000Y-85712706D01*
X139350000Y-85527294D01*
X139351771Y-85521105D01*
X139356548Y-85516789D01*
X139628835Y-85383253D01*
X140576071Y-84918712D01*
X140582253Y-84917564D01*
X140588139Y-84919782D01*
G37*
%TD.AperFunction*%
%TD*%
%TA.AperFunction,Conductor*%
%TO.N,SPI_SCLK*%
G36*
X139627928Y-108274387D02*
G01*
X140001954Y-108397355D01*
X140007777Y-108401609D01*
X140010000Y-108408470D01*
X140010000Y-108591530D01*
X140007777Y-108598391D01*
X140001954Y-108602645D01*
X139607856Y-108732211D01*
X139599341Y-108731739D01*
X139593409Y-108725612D01*
X139500888Y-108504512D01*
X139499982Y-108500000D01*
X139500888Y-108495487D01*
X139593409Y-108274386D01*
X139599341Y-108268260D01*
X139607856Y-108267788D01*
X139627928Y-108274387D01*
G37*
%TD.AperFunction*%
%TD*%
%TA.AperFunction,Conductor*%
%TO.N,SD_STATUS*%
G36*
X135500677Y-85848065D02*
G01*
X135507375Y-85852136D01*
X135510000Y-85859521D01*
X135510000Y-86140479D01*
X135507375Y-86147864D01*
X135500677Y-86151934D01*
X135429996Y-86166603D01*
X135107029Y-86233628D01*
X135099198Y-86232523D01*
X135093859Y-86226688D01*
X135062578Y-86151935D01*
X135000888Y-86004512D01*
X134999982Y-86000000D01*
X135000888Y-85995487D01*
X135093860Y-85773309D01*
X135099198Y-85767476D01*
X135107028Y-85766371D01*
X135500677Y-85848065D01*
G37*
%TD.AperFunction*%
%TD*%
%TA.AperFunction,Conductor*%
%TO.N,SPI_MOSI*%
G36*
X135768127Y-105827997D02*
G01*
X135999223Y-105897495D01*
X136005243Y-105901718D01*
X136007554Y-105908699D01*
X136007554Y-106091782D01*
X136005428Y-106098507D01*
X135999824Y-106102788D01*
X135608051Y-106244112D01*
X135599373Y-106243817D01*
X135593288Y-106237622D01*
X135500888Y-106016811D01*
X135499982Y-106012299D01*
X135500888Y-106007786D01*
X135593515Y-105786432D01*
X135599312Y-105780369D01*
X135607676Y-105779745D01*
X135768127Y-105827997D01*
G37*
%TD.AperFunction*%
%TD*%
%TA.AperFunction,Conductor*%
%TO.N,CAN_TX*%
G36*
X141183928Y-69678712D02*
G01*
X141927665Y-70043454D01*
X142403452Y-70276789D01*
X142408229Y-70281105D01*
X142410000Y-70287294D01*
X142410000Y-70472706D01*
X142408229Y-70478895D01*
X142403452Y-70483211D01*
X141183930Y-71081286D01*
X141177746Y-71082435D01*
X141171860Y-71080217D01*
X141167975Y-71075272D01*
X140880865Y-70384489D01*
X140879970Y-70380000D01*
X140880866Y-70375510D01*
X140917531Y-70287294D01*
X141167975Y-69684725D01*
X141171860Y-69679782D01*
X141177746Y-69677564D01*
X141183928Y-69678712D01*
G37*
%TD.AperFunction*%
%TD*%
%TA.AperFunction,Conductor*%
%TO.N,SD_CHECK*%
G36*
X135240465Y-81412068D02*
G01*
X135427515Y-81782353D01*
X135428625Y-81789478D01*
X135425345Y-81795901D01*
X135295901Y-81925345D01*
X135289478Y-81928625D01*
X135282353Y-81927515D01*
X135225845Y-81898970D01*
X134912067Y-81740464D01*
X134906381Y-81734110D01*
X134906516Y-81725586D01*
X134997437Y-81503819D01*
X134999988Y-81499988D01*
X135003819Y-81497437D01*
X135225586Y-81406516D01*
X135234110Y-81406381D01*
X135240465Y-81412068D01*
G37*
%TD.AperFunction*%
%TD*%
%TA.AperFunction,Conductor*%
%TO.N,SPI_CS_FRAM1*%
G36*
X128861913Y-111994016D02*
G01*
X129083677Y-112084935D01*
X129087511Y-112087488D01*
X129090064Y-112091323D01*
X129180982Y-112313084D01*
X129181118Y-112321610D01*
X129175431Y-112327965D01*
X128805146Y-112515015D01*
X128798021Y-112516125D01*
X128791598Y-112512845D01*
X128662154Y-112383401D01*
X128658874Y-112376978D01*
X128659983Y-112369855D01*
X128847036Y-111999565D01*
X128853389Y-111993881D01*
X128861913Y-111994016D01*
G37*
%TD.AperFunction*%
%TD*%
%TA.AperFunction,Conductor*%
%TO.N,SPI_MISO*%
G36*
X155828139Y-74759782D02*
G01*
X155832025Y-74764728D01*
X156119133Y-75455509D01*
X156120029Y-75459999D01*
X156119133Y-75464489D01*
X155832025Y-76155271D01*
X155828139Y-76160217D01*
X155822253Y-76162435D01*
X155816069Y-76161286D01*
X154596548Y-75563211D01*
X154591771Y-75558895D01*
X154590000Y-75552706D01*
X154590000Y-75367294D01*
X154591771Y-75361105D01*
X154596548Y-75356789D01*
X154868835Y-75223253D01*
X155816071Y-74758712D01*
X155822253Y-74757564D01*
X155828139Y-74759782D01*
G37*
%TD.AperFunction*%
%TD*%
%TA.AperFunction,Conductor*%
%TO.N,MEMORY_POWER_CONTROL*%
G36*
X147147864Y-111992625D02*
G01*
X147151935Y-111999323D01*
X147233628Y-112392970D01*
X147232523Y-112400801D01*
X147226688Y-112406140D01*
X147004516Y-112499110D01*
X147000000Y-112500017D01*
X146995484Y-112499110D01*
X146773311Y-112406140D01*
X146767476Y-112400801D01*
X146766371Y-112392970D01*
X146848065Y-111999323D01*
X146852136Y-111992625D01*
X146859521Y-111990000D01*
X147140479Y-111990000D01*
X147147864Y-111992625D01*
G37*
%TD.AperFunction*%
%TD*%
%TA.AperFunction,Conductor*%
%TO.N,SPI_CS_FRAM0*%
G36*
X110215050Y-115034391D02*
G01*
X110345608Y-115164949D01*
X110348791Y-115170847D01*
X110348216Y-115177524D01*
X109754366Y-116679614D01*
X109750711Y-116684514D01*
X109745084Y-116686902D01*
X109739020Y-116686126D01*
X109003786Y-116382562D01*
X108999978Y-116380021D01*
X108997438Y-116376215D01*
X108693872Y-115640978D01*
X108693097Y-115634915D01*
X108695485Y-115629288D01*
X108700383Y-115625633D01*
X110202479Y-115031782D01*
X110209152Y-115031208D01*
X110215050Y-115034391D01*
G37*
%TD.AperFunction*%
%TD*%
M02*
