M48
; DRILL file {KiCad 7.0.1-0} date 2023 May 25, Thursday 16:37:57
; FORMAT={-:-/ absolute / inch / decimal}
; #@! TF.CreationDate,2023-05-25T16:37:57+09:00
; #@! TF.GenerationSoftware,Kicad,Pcbnew,7.0.1-0
; #@! TF.FileFunction,Plated,1,2,PTH
FMAT,2
INCH
; #@! TA.AperFunction,Plated,PTH,ComponentDrill
T1C0.0354
; #@! TA.AperFunction,Plated,PTH,ComponentDrill
T2C0.0433
; #@! TA.AperFunction,Plated,PTH,ComponentDrill
T3C0.1260
%
G90
G05
T1
X3.9283Y-3.0908
X3.9283Y-4.6892
X4.5189Y-3.0902
X4.5189Y-4.6886
X4.9008Y-1.9602
X4.9008Y-2.5086
X4.9008Y-5.2727
X5.1094Y-3.0908
X5.1094Y-4.6892
X5.7Y-3.0902
X5.7Y-4.6886
X6.2906Y-3.0908
X6.2906Y-4.6892
X6.4992Y-1.9602
X6.4992Y-2.5086
X6.4992Y-5.2727
X6.8811Y-3.0902
X6.8811Y-4.6886
X7.4717Y-3.0908
X7.4717Y-4.6892
T2
X4.07Y-4.97
X4.17Y-4.97
T3
X3.9283Y-3.39
X3.9283Y-4.39
X4.5189Y-3.3894
X4.5189Y-4.3894
X5.1094Y-3.39
X5.1094Y-4.39
X5.2Y-1.9602
X5.2Y-2.5086
X5.2Y-5.2727
X5.7Y-3.3894
X5.7Y-4.3894
X6.2Y-1.9602
X6.2Y-2.5086
X6.2Y-5.2727
X6.2906Y-3.39
X6.2906Y-4.39
X6.8811Y-3.3894
X6.8811Y-4.3894
X7.4717Y-3.39
X7.4717Y-4.39
T0
M30
