%TF.GenerationSoftware,KiCad,Pcbnew,7.0.1-0*%
%TF.CreationDate,2023-05-22T13:56:39+09:00*%
%TF.ProjectId,Transformation,5472616e-7366-46f7-926d-6174696f6e2e,rev?*%
%TF.SameCoordinates,Original*%
%TF.FileFunction,Copper,L2,Bot*%
%TF.FilePolarity,Positive*%
%FSLAX46Y46*%
G04 Gerber Fmt 4.6, Leading zero omitted, Abs format (unit mm)*
G04 Created by KiCad (PCBNEW 7.0.1-0) date 2023-05-22 13:56:39*
%MOMM*%
%LPD*%
G01*
G04 APERTURE LIST*
%TA.AperFunction,ComponentPad*%
%ADD10R,2.000000X2.000000*%
%TD*%
%TA.AperFunction,ComponentPad*%
%ADD11C,2.000000*%
%TD*%
%TA.AperFunction,ComponentPad*%
%ADD12C,2.250000*%
%TD*%
%TA.AperFunction,ComponentPad*%
%ADD13C,1.650000*%
%TD*%
%TA.AperFunction,ViaPad*%
%ADD14C,0.800000*%
%TD*%
%TA.AperFunction,Conductor*%
%ADD15C,0.300000*%
%TD*%
G04 APERTURE END LIST*
D10*
%TO.P,C14,1*%
%TO.N,+12V*%
X109600492Y-116449344D03*
D11*
%TO.P,C14,2*%
%TO.N,GND*%
X106100492Y-116449344D03*
%TD*%
D10*
%TO.P,C8,1*%
%TO.N,+12V*%
X158100492Y-68067021D03*
D11*
%TO.P,C8,2*%
%TO.N,GND*%
X158100492Y-64567021D03*
%TD*%
D12*
%TO.P,TP3,1,1*%
%TO.N,+VSW*%
X152600492Y-101149344D03*
%TD*%
%TO.P,TP4,1,1*%
%TO.N,+VDC*%
X156700492Y-123449344D03*
%TD*%
%TO.P,TP5,1,1*%
%TO.N,Net-(J4-Pin_2)*%
X174850492Y-119199344D03*
%TD*%
D10*
%TO.P,C15,1*%
%TO.N,+12V*%
X124100492Y-118949344D03*
D11*
%TO.P,C15,2*%
%TO.N,GND*%
X124100492Y-122449344D03*
%TD*%
D13*
%TO.P,J3,1,Pin_1*%
%TO.N,GND*%
X156330492Y-128639344D03*
%TO.P,J3,2,Pin_2*%
%TO.N,+VDC*%
X158870492Y-128639344D03*
%TD*%
D10*
%TO.P,C7,1*%
%TO.N,+12V*%
X145600492Y-68567021D03*
D11*
%TO.P,C7,2*%
%TO.N,GND*%
X145600492Y-65067021D03*
%TD*%
D13*
%TO.P,J4,1,Pin_1*%
%TO.N,GND*%
X165330492Y-128639344D03*
%TO.P,J4,2,Pin_2*%
%TO.N,Net-(J4-Pin_2)*%
X167870492Y-128639344D03*
%TD*%
D10*
%TO.P,C1,1*%
%TO.N,+12V*%
X133100492Y-68449344D03*
D11*
%TO.P,C1,2*%
%TO.N,GND*%
X133100492Y-64949344D03*
%TD*%
D13*
%TO.P,J1,1,Pin_1*%
%TO.N,+BATT*%
X131830492Y-128639344D03*
%TO.P,J1,2,Pin_2*%
%TO.N,+VSW*%
X134370492Y-128639344D03*
%TD*%
%TO.P,J2,1,Pin_1*%
%TO.N,GND*%
X143830492Y-128639344D03*
%TO.P,J2,2,Pin_2*%
%TO.N,+12V*%
X146370492Y-128639344D03*
%TD*%
D10*
%TO.P,C11,1*%
%TO.N,+12V*%
X109600492Y-103949344D03*
D11*
%TO.P,C11,2*%
%TO.N,GND*%
X106100492Y-103949344D03*
%TD*%
D12*
%TO.P,TP2,1,1*%
%TO.N,+12V*%
X134100492Y-110649344D03*
%TD*%
D10*
%TO.P,C13,1*%
%TO.N,+12V*%
X123100492Y-104067021D03*
D11*
%TO.P,C13,2*%
%TO.N,GND*%
X123100492Y-100567021D03*
%TD*%
D12*
%TO.P,SW1,*%
%TO.N,*%
X192600492Y-100949344D03*
%TO.P,SW1,1,A*%
%TO.N,unconnected-(SW1-A-Pad1)*%
X187520492Y-100949344D03*
%TO.P,SW1,2,B*%
%TO.N,Net-(J4-Pin_2)*%
X184980492Y-100949344D03*
%TO.P,SW1,3,C*%
%TO.N,+BATT*%
X182440492Y-100949344D03*
%TD*%
D11*
%TO.P,TP1,1,1*%
%TO.N,GND*%
X177000492Y-87549344D03*
%TD*%
D10*
%TO.P,C12,1*%
%TO.N,+12V*%
X135600492Y-104067021D03*
D11*
%TO.P,C12,2*%
%TO.N,GND*%
X135600492Y-100567021D03*
%TD*%
D10*
%TO.P,C10,1*%
%TO.N,+12V*%
X109600492Y-91449344D03*
D11*
%TO.P,C10,2*%
%TO.N,GND*%
X106100492Y-91449344D03*
%TD*%
D14*
%TO.N,+VSW*%
X143975492Y-116824344D03*
X163600492Y-97449344D03*
X137850492Y-122949344D03*
X159600492Y-97449344D03*
%TO.N,GND*%
X192100492Y-126449344D03*
X125100492Y-131699344D03*
X166100492Y-123449344D03*
X114850492Y-122199344D03*
X171850492Y-95949344D03*
X95600492Y-81949344D03*
X142600492Y-108449344D03*
X92600492Y-98949344D03*
X154850492Y-90449344D03*
X138350492Y-90449344D03*
X132850492Y-90449344D03*
X182600492Y-103949344D03*
X176350492Y-123199344D03*
X136100492Y-75949344D03*
X187100492Y-103449344D03*
X149600492Y-90199344D03*
X108100492Y-62949344D03*
X165100492Y-75949344D03*
X154350492Y-56449344D03*
X186100492Y-98949344D03*
X165850492Y-100699344D03*
X145600492Y-47449344D03*
X110600492Y-138949344D03*
X122100492Y-65449344D03*
X170100492Y-66949344D03*
X171600492Y-82449344D03*
X152100492Y-138949344D03*
X143600492Y-119949344D03*
X167100492Y-52449344D03*
X183100492Y-62949344D03*
X179600492Y-111449344D03*
X184850492Y-123699344D03*
X181100492Y-139449344D03*
X152850492Y-76199344D03*
X122100492Y-80949344D03*
X136350492Y-57199344D03*
X199600492Y-99449344D03*
X136100492Y-121949344D03*
X138600492Y-82449344D03*
X154500492Y-121849344D03*
X172600492Y-99699344D03*
X197600492Y-113949344D03*
X140600492Y-125449344D03*
X132100492Y-75949344D03*
X163600492Y-93449344D03*
X181100492Y-85699344D03*
X175600492Y-101449344D03*
X94600492Y-113949344D03*
X101600492Y-129949344D03*
X195100492Y-82449344D03*
X140100492Y-122949344D03*
X184600492Y-114949344D03*
X124100492Y-52449344D03*
X142600492Y-115949344D03*
X155100492Y-82449344D03*
X110100492Y-79949344D03*
X148350492Y-75949344D03*
X169600492Y-75949344D03*
X151100492Y-125449344D03*
X185100492Y-96449344D03*
%TO.N,+BATT*%
X134850492Y-123949344D03*
X170600492Y-116699344D03*
%TO.N,+VDC*%
X168600492Y-102949344D03*
X168600492Y-113449344D03*
%TO.N,Net-(Q2-G)*%
X164600492Y-109949344D03*
X164530492Y-99944344D03*
X166600492Y-113449344D03*
X157040492Y-117009344D03*
%TD*%
D15*
%TO.N,+VSW*%
X143975492Y-116824344D02*
X137850492Y-122949344D01*
X163600492Y-97449344D02*
X159600492Y-97449344D01*
%TO.N,+BATT*%
X163350492Y-123949344D02*
X170600492Y-116699344D01*
X134850492Y-123949344D02*
X163350492Y-123949344D01*
%TO.N,+VDC*%
X168600492Y-113449344D02*
X168600492Y-102949344D01*
%TO.N,Net-(Q2-G)*%
X164600492Y-109949344D02*
X164600492Y-100014344D01*
X164540492Y-117009344D02*
X166600492Y-114949344D01*
X166600492Y-114949344D02*
X166600492Y-113449344D01*
X157040492Y-117009344D02*
X164540492Y-117009344D01*
X164600492Y-100014344D02*
X164530492Y-99944344D01*
%TD*%
%TA.AperFunction,Conductor*%
%TO.N,GND*%
G36*
X145936232Y-45953775D02*
G01*
X146742470Y-45964578D01*
X146743050Y-45964590D01*
X147412835Y-45982646D01*
X147413332Y-45982662D01*
X148219321Y-46015079D01*
X148219805Y-46015103D01*
X148888738Y-46051194D01*
X148889369Y-46051231D01*
X149694009Y-46105221D01*
X149694852Y-46105284D01*
X150362363Y-46159371D01*
X150363077Y-46159434D01*
X151166039Y-46234971D01*
X151166668Y-46235035D01*
X151832550Y-46307098D01*
X151833203Y-46307173D01*
X152633915Y-46404206D01*
X152634582Y-46404292D01*
X153298262Y-46494270D01*
X153298908Y-46494362D01*
X154096698Y-46612811D01*
X154097380Y-46612917D01*
X154758560Y-46720774D01*
X154758811Y-46720816D01*
X155553461Y-46860657D01*
X155554127Y-46860780D01*
X156211779Y-46986341D01*
X156212436Y-46986471D01*
X157002994Y-47147543D01*
X157003796Y-47147713D01*
X157657739Y-47290932D01*
X157658095Y-47291012D01*
X158444453Y-47473303D01*
X158444932Y-47473418D01*
X159094873Y-47634230D01*
X159095074Y-47634281D01*
X159876334Y-47837595D01*
X159877138Y-47837811D01*
X160522096Y-48015965D01*
X160522556Y-48016095D01*
X161298209Y-48240306D01*
X161298836Y-48240492D01*
X161938653Y-48435929D01*
X161939185Y-48436096D01*
X162708592Y-48681023D01*
X162709281Y-48681248D01*
X163343399Y-48893789D01*
X163343915Y-48893965D01*
X164106688Y-49159493D01*
X164107377Y-49159739D01*
X164735418Y-49389246D01*
X164735671Y-49389340D01*
X165491338Y-49675320D01*
X165492244Y-49675670D01*
X166113451Y-49921851D01*
X166113849Y-49922012D01*
X166861726Y-50228197D01*
X166862564Y-50228547D01*
X167476688Y-50491283D01*
X167477307Y-50491552D01*
X168216751Y-50817684D01*
X168217532Y-50818036D01*
X168824210Y-51097159D01*
X168824742Y-51097407D01*
X169555532Y-51443403D01*
X169556308Y-51443778D01*
X169994479Y-51659866D01*
X170154820Y-51738940D01*
X170155425Y-51739242D01*
X170876994Y-52104854D01*
X170877777Y-52105259D01*
X171467948Y-52416352D01*
X171468208Y-52416490D01*
X172180113Y-52801518D01*
X172180981Y-52801997D01*
X172762230Y-53128698D01*
X172762653Y-53128939D01*
X173464118Y-53532981D01*
X173464916Y-53533449D01*
X174036789Y-53875478D01*
X174037344Y-53875814D01*
X174728036Y-54298695D01*
X174728897Y-54299232D01*
X175291012Y-54656336D01*
X175291317Y-54656532D01*
X175970951Y-55098106D01*
X175971708Y-55098608D01*
X176523724Y-55470546D01*
X176524023Y-55470749D01*
X177083528Y-55855981D01*
X177191859Y-55930570D01*
X177192723Y-55931176D01*
X177734028Y-56317506D01*
X177734267Y-56317678D01*
X178390013Y-56795571D01*
X178390867Y-56796205D01*
X178921103Y-57196633D01*
X178921589Y-57197004D01*
X179564573Y-57692511D01*
X179565309Y-57693089D01*
X180012638Y-58050236D01*
X180084250Y-58107412D01*
X180084717Y-58107789D01*
X180714515Y-58620611D01*
X180715158Y-58621143D01*
X181222555Y-59049138D01*
X181222870Y-59049407D01*
X181445981Y-59241246D01*
X181839058Y-59579229D01*
X181839880Y-59579948D01*
X182335046Y-60021003D01*
X182335225Y-60021164D01*
X182551211Y-60217184D01*
X182937511Y-60567776D01*
X182938321Y-60568524D01*
X183420942Y-61022310D01*
X183421317Y-61022666D01*
X184009024Y-61585492D01*
X184009732Y-61586181D01*
X184479627Y-62052488D01*
X184479977Y-62052839D01*
X185052819Y-62631643D01*
X185053534Y-62632378D01*
X185248708Y-62836792D01*
X185510204Y-63110668D01*
X185510584Y-63111070D01*
X185866268Y-63490260D01*
X186052363Y-63688654D01*
X186068078Y-63705407D01*
X186068845Y-63706239D01*
X186511963Y-64196111D01*
X186512326Y-64196516D01*
X187054178Y-64806123D01*
X187054911Y-64806962D01*
X187176890Y-64949343D01*
X187484221Y-65308076D01*
X187484567Y-65308484D01*
X188010335Y-65932921D01*
X188011067Y-65933807D01*
X188205021Y-66172953D01*
X188425972Y-66445387D01*
X188426228Y-66445702D01*
X188426503Y-66446044D01*
X188935915Y-67085055D01*
X188936564Y-67085885D01*
X189337416Y-67608309D01*
X189337575Y-67608518D01*
X189830147Y-68261566D01*
X189830784Y-68262428D01*
X189965998Y-68448844D01*
X190216924Y-68794790D01*
X190217105Y-68795041D01*
X190692469Y-69461711D01*
X190693118Y-69462639D01*
X191064221Y-70004410D01*
X191064500Y-70004821D01*
X191522206Y-70684547D01*
X191522860Y-70685539D01*
X191878760Y-71236389D01*
X191879023Y-71236799D01*
X192318828Y-71929297D01*
X192319460Y-71930313D01*
X192659894Y-72489741D01*
X192660104Y-72490089D01*
X192830951Y-72775735D01*
X193081724Y-73195010D01*
X193082333Y-73196051D01*
X193407021Y-73763494D01*
X193407252Y-73763901D01*
X193810324Y-74480740D01*
X193810910Y-74481806D01*
X194119686Y-75056855D01*
X194119902Y-75057260D01*
X194504140Y-75785630D01*
X194504701Y-75786720D01*
X194797399Y-76368945D01*
X194797599Y-76369347D01*
X195162612Y-77108621D01*
X195163148Y-77109734D01*
X195439556Y-77698584D01*
X195439742Y-77698983D01*
X195785326Y-78448883D01*
X195785835Y-78450018D01*
X196045813Y-79045046D01*
X196045984Y-79045441D01*
X196371775Y-79805322D01*
X196372258Y-79806479D01*
X196615696Y-80407281D01*
X196615852Y-80407672D01*
X196921609Y-81177131D01*
X196922064Y-81178310D01*
X197148690Y-81784028D01*
X197148833Y-81784414D01*
X197434363Y-82563155D01*
X197434789Y-82564354D01*
X197644589Y-83174735D01*
X197644718Y-83175116D01*
X197909705Y-83962497D01*
X197910102Y-83963716D01*
X198102899Y-84578004D01*
X198103015Y-84578379D01*
X198347270Y-85374082D01*
X198347637Y-85375321D01*
X198523425Y-85993223D01*
X198523528Y-85993592D01*
X198746758Y-86796939D01*
X198747094Y-86798196D01*
X198905703Y-87418795D01*
X198905794Y-87419157D01*
X199107875Y-88230035D01*
X199108179Y-88231310D01*
X199249631Y-88854299D01*
X199300144Y-89082930D01*
X199430360Y-89672328D01*
X199430631Y-89673620D01*
X199554800Y-90297967D01*
X199554677Y-90297991D01*
X199554870Y-90298315D01*
X199713967Y-91122725D01*
X199714205Y-91124033D01*
X199821219Y-91749830D01*
X199821276Y-91750171D01*
X199958502Y-92580226D01*
X199958706Y-92581549D01*
X200048507Y-93207839D01*
X200048554Y-93208172D01*
X200163788Y-94043765D01*
X200163958Y-94045102D01*
X200236592Y-94671358D01*
X200236629Y-94671683D01*
X200329684Y-95512361D01*
X200329818Y-95513712D01*
X200385317Y-96139070D01*
X200385196Y-96139080D01*
X200385346Y-96139386D01*
X200456056Y-96984825D01*
X200456155Y-96986189D01*
X200494636Y-97610466D01*
X200494654Y-97610773D01*
X200542817Y-98460146D01*
X200542880Y-98461521D01*
X200564438Y-99084087D01*
X200564447Y-99084385D01*
X200589909Y-99937279D01*
X200589935Y-99938665D01*
X200594685Y-100558470D01*
X200594567Y-100558470D01*
X200594688Y-100558759D01*
X200597295Y-101415183D01*
X200597283Y-101416578D01*
X200585389Y-102033206D01*
X200585383Y-102033486D01*
X200564968Y-102892736D01*
X200564919Y-102894140D01*
X200536573Y-103506753D01*
X200536560Y-103507022D01*
X200492954Y-104368867D01*
X200492867Y-104370279D01*
X200448273Y-104978491D01*
X200448253Y-104978751D01*
X200381305Y-105842537D01*
X200381179Y-105843955D01*
X200320588Y-106446999D01*
X200320562Y-106447249D01*
X200230100Y-107312674D01*
X200229935Y-107314098D01*
X200153680Y-107910883D01*
X200153649Y-107911122D01*
X200039437Y-108778298D01*
X200039232Y-108779726D01*
X199947647Y-109369575D01*
X199947611Y-109369804D01*
X199809477Y-110238184D01*
X199809232Y-110239616D01*
X199702637Y-110822127D01*
X199702597Y-110822346D01*
X199540372Y-111691370D01*
X199540087Y-111692804D01*
X199418924Y-112267069D01*
X199418879Y-112267277D01*
X199232306Y-113136867D01*
X199231981Y-113138302D01*
X199096831Y-113703050D01*
X199096783Y-113703248D01*
X198885521Y-114573523D01*
X198885155Y-114574958D01*
X198736468Y-115129771D01*
X198736417Y-115129958D01*
X198500270Y-116000309D01*
X198499863Y-116001743D01*
X198338335Y-116545432D01*
X198338282Y-116545609D01*
X198076790Y-117416331D01*
X198076341Y-117417762D01*
X197902767Y-117949103D01*
X197902713Y-117949269D01*
X197615433Y-118820405D01*
X197614943Y-118821833D01*
X197430100Y-119339935D01*
X197430044Y-119340090D01*
X197116510Y-120211599D01*
X197115978Y-120213022D01*
X196920937Y-120716413D01*
X196920881Y-120716559D01*
X196580391Y-121588869D01*
X196579818Y-121590285D01*
X196375665Y-122077775D01*
X196375608Y-122077911D01*
X196007464Y-122951229D01*
X196006849Y-122952638D01*
X195794893Y-123422782D01*
X195794837Y-123422907D01*
X195398111Y-124297760D01*
X195397454Y-124299161D01*
X195179495Y-124749798D01*
X195179440Y-124749913D01*
X194752842Y-125627339D01*
X194752144Y-125628730D01*
X194529902Y-126058293D01*
X194529847Y-126058399D01*
X194072051Y-126939163D01*
X194071312Y-126940543D01*
X193847431Y-127346106D01*
X193847378Y-127346201D01*
X193356250Y-128232232D01*
X193355469Y-128233600D01*
X193133058Y-128612027D01*
X193133007Y-128612113D01*
X192605989Y-129505560D01*
X192605167Y-129506915D01*
X192387994Y-129854625D01*
X192387946Y-129854701D01*
X191821752Y-130758321D01*
X191820888Y-130759661D01*
X191614486Y-131071119D01*
X191614442Y-131071186D01*
X191004150Y-131989538D01*
X191003245Y-131990863D01*
X190815064Y-132258853D01*
X190815023Y-132258911D01*
X190153771Y-133198329D01*
X190152826Y-133199636D01*
X189993065Y-133414595D01*
X189271213Y-134383844D01*
X189270227Y-134385133D01*
X189155161Y-134531543D01*
X189095698Y-134607072D01*
X188357076Y-135545270D01*
X188356050Y-135546538D01*
X188313180Y-135598161D01*
X188313152Y-135598195D01*
X187413631Y-136679829D01*
X187412543Y-136681103D01*
X186441157Y-137787454D01*
X186440035Y-137788697D01*
X185439386Y-138868582D01*
X185438231Y-138869795D01*
X184409008Y-139922479D01*
X184407821Y-139923661D01*
X183368470Y-140931219D01*
X183324968Y-140948844D01*
X107876016Y-140948844D01*
X107832514Y-140931219D01*
X106793162Y-139923661D01*
X106791975Y-139922479D01*
X105762752Y-138869795D01*
X105761597Y-138868582D01*
X105268124Y-138336033D01*
X104760918Y-137788664D01*
X104759854Y-137787485D01*
X103788436Y-136681098D01*
X103787352Y-136679829D01*
X103322476Y-136120836D01*
X102887463Y-135597752D01*
X102844919Y-135546523D01*
X102843906Y-135545270D01*
X102622465Y-135263995D01*
X102045627Y-134531295D01*
X101930741Y-134385115D01*
X101929769Y-134383844D01*
X101207839Y-133414488D01*
X101048154Y-133199633D01*
X101047211Y-133198329D01*
X100749749Y-132775735D01*
X100385848Y-132258752D01*
X100215465Y-132016110D01*
X100197728Y-131990850D01*
X100196832Y-131989538D01*
X99610117Y-131106663D01*
X113099992Y-131106663D01*
X113139426Y-131418818D01*
X113217671Y-131723565D01*
X113333498Y-132016110D01*
X113466979Y-132258911D01*
X113485076Y-132291828D01*
X113670014Y-132546374D01*
X113670016Y-132546376D01*
X113885399Y-132775735D01*
X114127826Y-132976289D01*
X114127828Y-132976290D01*
X114127829Y-132976291D01*
X114393485Y-133144881D01*
X114678177Y-133278847D01*
X114977413Y-133376075D01*
X115286477Y-133435032D01*
X115521909Y-133449844D01*
X115679070Y-133449844D01*
X115679075Y-133449844D01*
X115914507Y-133435032D01*
X116223571Y-133376075D01*
X116522807Y-133278847D01*
X116807499Y-133144881D01*
X117073155Y-132976291D01*
X117315586Y-132775734D01*
X117530970Y-132546374D01*
X117715908Y-132291828D01*
X117867486Y-132016110D01*
X117983311Y-131723569D01*
X118061558Y-131418817D01*
X118100992Y-131106663D01*
X173099992Y-131106663D01*
X173139426Y-131418818D01*
X173217671Y-131723565D01*
X173333498Y-132016110D01*
X173466979Y-132258911D01*
X173485076Y-132291828D01*
X173670014Y-132546374D01*
X173670016Y-132546376D01*
X173885399Y-132775735D01*
X174127826Y-132976289D01*
X174127828Y-132976290D01*
X174127829Y-132976291D01*
X174393485Y-133144881D01*
X174678177Y-133278847D01*
X174977413Y-133376075D01*
X175286477Y-133435032D01*
X175521909Y-133449844D01*
X175679070Y-133449844D01*
X175679075Y-133449844D01*
X175914507Y-133435032D01*
X176223571Y-133376075D01*
X176522807Y-133278847D01*
X176807499Y-133144881D01*
X177073155Y-132976291D01*
X177315586Y-132775734D01*
X177530970Y-132546374D01*
X177715908Y-132291828D01*
X177867486Y-132016110D01*
X177983311Y-131723569D01*
X178061558Y-131418817D01*
X178100992Y-131106662D01*
X178100992Y-130792026D01*
X178061558Y-130479871D01*
X177983311Y-130175119D01*
X177867486Y-129882578D01*
X177715908Y-129606860D01*
X177530970Y-129352314D01*
X177315586Y-129122954D01*
X177280889Y-129094250D01*
X177073157Y-128922398D01*
X176982751Y-128865025D01*
X176807499Y-128753807D01*
X176522807Y-128619841D01*
X176522805Y-128619840D01*
X176223570Y-128522612D01*
X175914509Y-128463656D01*
X175847240Y-128459424D01*
X175679075Y-128448844D01*
X175521909Y-128448844D01*
X175374763Y-128458101D01*
X175286474Y-128463656D01*
X174977413Y-128522612D01*
X174678178Y-128619840D01*
X174527452Y-128690766D01*
X174393485Y-128753807D01*
X174299353Y-128813545D01*
X174127826Y-128922398D01*
X173885399Y-129122952D01*
X173670016Y-129352311D01*
X173485073Y-129606864D01*
X173333498Y-129882577D01*
X173217671Y-130175122D01*
X173139426Y-130479869D01*
X173099992Y-130792025D01*
X173099992Y-131106663D01*
X118100992Y-131106663D01*
X118100992Y-131106662D01*
X118100992Y-130792026D01*
X118061558Y-130479871D01*
X117983311Y-130175119D01*
X117867486Y-129882578D01*
X117715908Y-129606860D01*
X117530970Y-129352314D01*
X117315586Y-129122954D01*
X117280889Y-129094250D01*
X117073157Y-128922398D01*
X116982751Y-128865025D01*
X116807499Y-128753807D01*
X116564251Y-128639343D01*
X130700169Y-128639343D01*
X130719415Y-128847038D01*
X130740857Y-128922397D01*
X130776498Y-129047663D01*
X130869473Y-129234382D01*
X130995174Y-129400837D01*
X131149321Y-129541360D01*
X131326664Y-129651167D01*
X131521165Y-129726517D01*
X131726199Y-129764844D01*
X131934784Y-129764844D01*
X131934785Y-129764844D01*
X132139819Y-129726517D01*
X132334320Y-129651167D01*
X132511663Y-129541360D01*
X132665810Y-129400837D01*
X132791511Y-129234382D01*
X132884486Y-129047663D01*
X132941568Y-128847040D01*
X132960814Y-128639344D01*
X132960814Y-128639343D01*
X133240169Y-128639343D01*
X133259415Y-128847038D01*
X133280857Y-128922397D01*
X133316498Y-129047663D01*
X133409473Y-129234382D01*
X133535174Y-129400837D01*
X133689321Y-129541360D01*
X133866664Y-129651167D01*
X134061165Y-129726517D01*
X134266199Y-129764844D01*
X134474784Y-129764844D01*
X134474785Y-129764844D01*
X134627377Y-129736320D01*
X143087067Y-129736320D01*
X143165459Y-129791210D01*
X143375585Y-129889193D01*
X143599528Y-129949198D01*
X143830492Y-129969405D01*
X144061455Y-129949198D01*
X144285398Y-129889193D01*
X144495520Y-129791211D01*
X144573914Y-129736319D01*
X143830492Y-128992897D01*
X143087067Y-129736320D01*
X134627377Y-129736320D01*
X134679819Y-129726517D01*
X134874320Y-129651167D01*
X135051663Y-129541360D01*
X135205810Y-129400837D01*
X135331511Y-129234382D01*
X135424486Y-129047663D01*
X135481568Y-128847040D01*
X135500814Y-128639344D01*
X135500814Y-128639343D01*
X142500430Y-128639343D01*
X142520637Y-128870307D01*
X142580642Y-129094250D01*
X142678625Y-129304376D01*
X142733514Y-129382767D01*
X143476939Y-128639344D01*
X144184045Y-128639344D01*
X144927467Y-129382766D01*
X144982359Y-129304372D01*
X145080341Y-129094250D01*
X145141762Y-128865025D01*
X145142686Y-128865272D01*
X145158238Y-128831744D01*
X145196676Y-128813545D01*
X145237860Y-128824154D01*
X145262721Y-128858659D01*
X145280857Y-128922398D01*
X145316498Y-129047663D01*
X145409473Y-129234382D01*
X145535174Y-129400837D01*
X145689321Y-129541360D01*
X145866664Y-129651167D01*
X146061165Y-129726517D01*
X146266199Y-129764844D01*
X146474784Y-129764844D01*
X146474785Y-129764844D01*
X146627377Y-129736320D01*
X155587067Y-129736320D01*
X155665459Y-129791210D01*
X155875585Y-129889193D01*
X156099528Y-129949198D01*
X156330492Y-129969405D01*
X156561455Y-129949198D01*
X156785398Y-129889193D01*
X156995520Y-129791211D01*
X157073914Y-129736319D01*
X156330492Y-128992897D01*
X155587067Y-129736320D01*
X146627377Y-129736320D01*
X146679819Y-129726517D01*
X146874320Y-129651167D01*
X147051663Y-129541360D01*
X147205810Y-129400837D01*
X147331511Y-129234382D01*
X147424486Y-129047663D01*
X147481568Y-128847040D01*
X147500814Y-128639344D01*
X147500814Y-128639343D01*
X155000430Y-128639343D01*
X155020637Y-128870307D01*
X155080642Y-129094250D01*
X155178625Y-129304376D01*
X155233514Y-129382767D01*
X155976937Y-128639344D01*
X156684045Y-128639344D01*
X157427467Y-129382766D01*
X157482359Y-129304372D01*
X157580341Y-129094250D01*
X157641762Y-128865025D01*
X157642686Y-128865272D01*
X157658238Y-128831744D01*
X157696676Y-128813545D01*
X157737860Y-128824154D01*
X157762721Y-128858659D01*
X157780857Y-128922398D01*
X157816498Y-129047663D01*
X157909473Y-129234382D01*
X158035174Y-129400837D01*
X158189321Y-129541360D01*
X158366664Y-129651167D01*
X158561165Y-129726517D01*
X158766199Y-129764844D01*
X158974784Y-129764844D01*
X158974785Y-129764844D01*
X159127377Y-129736320D01*
X164587067Y-129736320D01*
X164665459Y-129791210D01*
X164875585Y-129889193D01*
X165099528Y-129949198D01*
X165330492Y-129969405D01*
X165561455Y-129949198D01*
X165785398Y-129889193D01*
X165995520Y-129791211D01*
X166073914Y-129736319D01*
X165330492Y-128992897D01*
X164587067Y-129736320D01*
X159127377Y-129736320D01*
X159179819Y-129726517D01*
X159374320Y-129651167D01*
X159551663Y-129541360D01*
X159705810Y-129400837D01*
X159831511Y-129234382D01*
X159924486Y-129047663D01*
X159981568Y-128847040D01*
X160000814Y-128639344D01*
X160000814Y-128639343D01*
X164000430Y-128639343D01*
X164020637Y-128870307D01*
X164080642Y-129094250D01*
X164178625Y-129304376D01*
X164233514Y-129382767D01*
X164976938Y-128639343D01*
X165684044Y-128639343D01*
X166427467Y-129382766D01*
X166482359Y-129304372D01*
X166580341Y-129094250D01*
X166641762Y-128865025D01*
X166642686Y-128865272D01*
X166658238Y-128831744D01*
X166696676Y-128813545D01*
X166737860Y-128824154D01*
X166762721Y-128858659D01*
X166780857Y-128922398D01*
X166816498Y-129047663D01*
X166909473Y-129234382D01*
X167035174Y-129400837D01*
X167189321Y-129541360D01*
X167366664Y-129651167D01*
X167561165Y-129726517D01*
X167766199Y-129764844D01*
X167974784Y-129764844D01*
X167974785Y-129764844D01*
X168179819Y-129726517D01*
X168374320Y-129651167D01*
X168551663Y-129541360D01*
X168705810Y-129400837D01*
X168831511Y-129234382D01*
X168924486Y-129047663D01*
X168981568Y-128847040D01*
X169000814Y-128639344D01*
X168981568Y-128431648D01*
X168924486Y-128231025D01*
X168831511Y-128044306D01*
X168705810Y-127877851D01*
X168551663Y-127737328D01*
X168374320Y-127627521D01*
X168374317Y-127627520D01*
X168374316Y-127627519D01*
X168179821Y-127552171D01*
X168043129Y-127526619D01*
X167974785Y-127513844D01*
X167766199Y-127513844D01*
X167714940Y-127523425D01*
X167561162Y-127552171D01*
X167366667Y-127627519D01*
X167189319Y-127737329D01*
X167035174Y-127877850D01*
X166909474Y-128044304D01*
X166816497Y-128231028D01*
X166762721Y-128420028D01*
X166737860Y-128454533D01*
X166696676Y-128465142D01*
X166658239Y-128446944D01*
X166642686Y-128413415D01*
X166641762Y-128413663D01*
X166580341Y-128184437D01*
X166482359Y-127974315D01*
X166427466Y-127895921D01*
X165684044Y-128639343D01*
X164976938Y-128639343D01*
X164233515Y-127895920D01*
X164178625Y-127974312D01*
X164080642Y-128184437D01*
X164020637Y-128408380D01*
X164000430Y-128639343D01*
X160000814Y-128639343D01*
X159981568Y-128431648D01*
X159924486Y-128231025D01*
X159831511Y-128044306D01*
X159705810Y-127877851D01*
X159551663Y-127737328D01*
X159374320Y-127627521D01*
X159374317Y-127627520D01*
X159374316Y-127627519D01*
X159179821Y-127552171D01*
X159127374Y-127542367D01*
X164587068Y-127542367D01*
X165330491Y-128285790D01*
X166073915Y-127542366D01*
X165995524Y-127487477D01*
X165785398Y-127389494D01*
X165561455Y-127329489D01*
X165330492Y-127309282D01*
X165099528Y-127329489D01*
X164875585Y-127389494D01*
X164665460Y-127487477D01*
X164587068Y-127542367D01*
X159127374Y-127542367D01*
X159043129Y-127526619D01*
X158974785Y-127513844D01*
X158766199Y-127513844D01*
X158714940Y-127523425D01*
X158561162Y-127552171D01*
X158366667Y-127627519D01*
X158189319Y-127737329D01*
X158035174Y-127877850D01*
X157909474Y-128044304D01*
X157816497Y-128231028D01*
X157762721Y-128420028D01*
X157737860Y-128454533D01*
X157696676Y-128465142D01*
X157658239Y-128446944D01*
X157642686Y-128413415D01*
X157641762Y-128413663D01*
X157580341Y-128184437D01*
X157482359Y-127974315D01*
X157427466Y-127895921D01*
X156684045Y-128639344D01*
X155976937Y-128639344D01*
X155976938Y-128639343D01*
X155233515Y-127895920D01*
X155178625Y-127974312D01*
X155080642Y-128184437D01*
X155020637Y-128408380D01*
X155000430Y-128639343D01*
X147500814Y-128639343D01*
X147481568Y-128431648D01*
X147424486Y-128231025D01*
X147331511Y-128044306D01*
X147205810Y-127877851D01*
X147051663Y-127737328D01*
X146874320Y-127627521D01*
X146874317Y-127627520D01*
X146874316Y-127627519D01*
X146679821Y-127552171D01*
X146627374Y-127542367D01*
X155587068Y-127542367D01*
X156330491Y-128285790D01*
X157073915Y-127542366D01*
X156995524Y-127487477D01*
X156785398Y-127389494D01*
X156561455Y-127329489D01*
X156330492Y-127309282D01*
X156099528Y-127329489D01*
X155875585Y-127389494D01*
X155665460Y-127487477D01*
X155587068Y-127542367D01*
X146627374Y-127542367D01*
X146543129Y-127526619D01*
X146474785Y-127513844D01*
X146266199Y-127513844D01*
X146214940Y-127523425D01*
X146061162Y-127552171D01*
X145866667Y-127627519D01*
X145689319Y-127737329D01*
X145535174Y-127877850D01*
X145409474Y-128044304D01*
X145316497Y-128231028D01*
X145262721Y-128420028D01*
X145237860Y-128454533D01*
X145196676Y-128465142D01*
X145158239Y-128446944D01*
X145142686Y-128413415D01*
X145141762Y-128413663D01*
X145080341Y-128184437D01*
X144982359Y-127974315D01*
X144927466Y-127895921D01*
X144184045Y-128639344D01*
X143476939Y-128639344D01*
X142733515Y-127895920D01*
X142678625Y-127974312D01*
X142580642Y-128184437D01*
X142520637Y-128408380D01*
X142500430Y-128639343D01*
X135500814Y-128639343D01*
X135481568Y-128431648D01*
X135424486Y-128231025D01*
X135331511Y-128044306D01*
X135205810Y-127877851D01*
X135051663Y-127737328D01*
X134874320Y-127627521D01*
X134874317Y-127627520D01*
X134874316Y-127627519D01*
X134679821Y-127552171D01*
X134627374Y-127542367D01*
X143087068Y-127542367D01*
X143830491Y-128285790D01*
X144573915Y-127542366D01*
X144495524Y-127487477D01*
X144285398Y-127389494D01*
X144061455Y-127329489D01*
X143830492Y-127309282D01*
X143599528Y-127329489D01*
X143375585Y-127389494D01*
X143165460Y-127487477D01*
X143087068Y-127542367D01*
X134627374Y-127542367D01*
X134543129Y-127526619D01*
X134474785Y-127513844D01*
X134266199Y-127513844D01*
X134214940Y-127523425D01*
X134061162Y-127552171D01*
X133866667Y-127627519D01*
X133689319Y-127737329D01*
X133535174Y-127877850D01*
X133409474Y-128044304D01*
X133316497Y-128231027D01*
X133259415Y-128431649D01*
X133240169Y-128639343D01*
X132960814Y-128639343D01*
X132941568Y-128431648D01*
X132884486Y-128231025D01*
X132791511Y-128044306D01*
X132665810Y-127877851D01*
X132511663Y-127737328D01*
X132334320Y-127627521D01*
X132334317Y-127627520D01*
X132334316Y-127627519D01*
X132139821Y-127552171D01*
X132003129Y-127526619D01*
X131934785Y-127513844D01*
X131726199Y-127513844D01*
X131674940Y-127523425D01*
X131521162Y-127552171D01*
X131326667Y-127627519D01*
X131149319Y-127737329D01*
X130995174Y-127877850D01*
X130869474Y-128044304D01*
X130776497Y-128231027D01*
X130719415Y-128431649D01*
X130700169Y-128639343D01*
X116564251Y-128639343D01*
X116522807Y-128619841D01*
X116522805Y-128619840D01*
X116223570Y-128522612D01*
X115914509Y-128463656D01*
X115847240Y-128459424D01*
X115679075Y-128448844D01*
X115521909Y-128448844D01*
X115374763Y-128458101D01*
X115286474Y-128463656D01*
X114977413Y-128522612D01*
X114678178Y-128619840D01*
X114527452Y-128690766D01*
X114393485Y-128753807D01*
X114299353Y-128813545D01*
X114127826Y-128922398D01*
X113885399Y-129122952D01*
X113670016Y-129352311D01*
X113485073Y-129606864D01*
X113333498Y-129882577D01*
X113217671Y-130175122D01*
X113139426Y-130479869D01*
X113099992Y-130792025D01*
X113099992Y-131106663D01*
X99610117Y-131106663D01*
X99586541Y-131071186D01*
X99586497Y-131071120D01*
X99576977Y-131056754D01*
X99380065Y-130759617D01*
X99379230Y-130758321D01*
X99013805Y-130175119D01*
X98812844Y-129854393D01*
X98773382Y-129791211D01*
X98595780Y-129506858D01*
X98595031Y-129505623D01*
X98067847Y-128611894D01*
X97845500Y-128233578D01*
X97844732Y-128232232D01*
X97818239Y-128184437D01*
X97353442Y-127345908D01*
X97344379Y-127329489D01*
X97129637Y-126940481D01*
X97128965Y-126939227D01*
X96670929Y-126058002D01*
X96448831Y-125628718D01*
X96448140Y-125627339D01*
X96021487Y-124749798D01*
X95803500Y-124299102D01*
X95802897Y-124297816D01*
X95519537Y-123672953D01*
X123230433Y-123672953D01*
X123277259Y-123709398D01*
X123495881Y-123827710D01*
X123731003Y-123908427D01*
X123976200Y-123949344D01*
X124224784Y-123949344D01*
X124224790Y-123949343D01*
X134144846Y-123949343D01*
X134165350Y-124118213D01*
X134225674Y-124277276D01*
X134313571Y-124404614D01*
X134322309Y-124417273D01*
X134449640Y-124530078D01*
X134600267Y-124609134D01*
X134765436Y-124649844D01*
X134935548Y-124649844D01*
X135100717Y-124609134D01*
X135100722Y-124609131D01*
X135101737Y-124608881D01*
X135109439Y-124606003D01*
X135109310Y-124605621D01*
X135112088Y-124604677D01*
X135112097Y-124604676D01*
X135705883Y-124403158D01*
X135725969Y-124399844D01*
X155610527Y-124399844D01*
X155635633Y-124405108D01*
X155656509Y-124420014D01*
X155731717Y-124501711D01*
X155835494Y-124582483D01*
X155918146Y-124646814D01*
X156125913Y-124759252D01*
X156349353Y-124835960D01*
X156582372Y-124874844D01*
X156818610Y-124874844D01*
X156818612Y-124874844D01*
X157051631Y-124835960D01*
X157275071Y-124759252D01*
X157482838Y-124646814D01*
X157669265Y-124501712D01*
X157669266Y-124501711D01*
X157744475Y-124420014D01*
X157765351Y-124405108D01*
X157790457Y-124399844D01*
X163321681Y-124399844D01*
X163328679Y-124400237D01*
X163367527Y-124404614D01*
X163424853Y-124393766D01*
X163427103Y-124393384D01*
X163462136Y-124388104D01*
X163484774Y-124384693D01*
X163484774Y-124384692D01*
X163484779Y-124384692D01*
X163485097Y-124384538D01*
X163500611Y-124379434D01*
X163500964Y-124379367D01*
X163500964Y-124379366D01*
X163552551Y-124352101D01*
X163554578Y-124351077D01*
X163607134Y-124325769D01*
X163607401Y-124325520D01*
X163620709Y-124316080D01*
X163620793Y-124316035D01*
X163621030Y-124315910D01*
X163662280Y-124274658D01*
X163663935Y-124273064D01*
X163706686Y-124233399D01*
X163706868Y-124233083D01*
X163716799Y-124220139D01*
X168737593Y-119199344D01*
X173420107Y-119199344D01*
X173439616Y-119434778D01*
X173497609Y-119663789D01*
X173550880Y-119785235D01*
X173592506Y-119880133D01*
X173683451Y-120019335D01*
X173721717Y-120077905D01*
X173881719Y-120251712D01*
X174068146Y-120396814D01*
X174275913Y-120509252D01*
X174499353Y-120585960D01*
X174732372Y-120624844D01*
X174968610Y-120624844D01*
X174968612Y-120624844D01*
X175201631Y-120585960D01*
X175425071Y-120509252D01*
X175632838Y-120396814D01*
X175819265Y-120251712D01*
X175979267Y-120077905D01*
X176108478Y-119880132D01*
X176203375Y-119663789D01*
X176261368Y-119434778D01*
X176280877Y-119199344D01*
X176261368Y-118963910D01*
X176203375Y-118734899D01*
X176108478Y-118518556D01*
X175979267Y-118320783D01*
X175819265Y-118146976D01*
X175632838Y-118001874D01*
X175425071Y-117889436D01*
X175201631Y-117812728D01*
X174968612Y-117773844D01*
X174732372Y-117773844D01*
X174499352Y-117812728D01*
X174499353Y-117812728D01*
X174275910Y-117889437D01*
X174068144Y-118001875D01*
X173881721Y-118146974D01*
X173721716Y-118320783D01*
X173592506Y-118518554D01*
X173509255Y-118708347D01*
X173497609Y-118734899D01*
X173439616Y-118963910D01*
X173420107Y-119199344D01*
X168737593Y-119199344D01*
X170299992Y-117636945D01*
X170316533Y-117625091D01*
X170878898Y-117347716D01*
X170914049Y-117326059D01*
X170917763Y-117323944D01*
X171001344Y-117280078D01*
X171128675Y-117167273D01*
X171225310Y-117027274D01*
X171285632Y-116868216D01*
X171285632Y-116868215D01*
X171285633Y-116868213D01*
X171306137Y-116699344D01*
X171285633Y-116530474D01*
X171225309Y-116371411D01*
X171128675Y-116231415D01*
X171001345Y-116118611D01*
X171001344Y-116118610D01*
X170892463Y-116061464D01*
X170850716Y-116039553D01*
X170685548Y-115998844D01*
X170515436Y-115998844D01*
X170350267Y-116039553D01*
X170199638Y-116118611D01*
X170072308Y-116231415D01*
X169975675Y-116371411D01*
X169966644Y-116395222D01*
X169961421Y-116405836D01*
X169952119Y-116420936D01*
X169851072Y-116625801D01*
X169674742Y-116983301D01*
X169662883Y-116999848D01*
X163182195Y-123480538D01*
X163161919Y-123494086D01*
X163138001Y-123498844D01*
X158192514Y-123498844D01*
X158150184Y-123482327D01*
X158130227Y-123441505D01*
X158128686Y-123422907D01*
X158111368Y-123213910D01*
X158053375Y-122984899D01*
X157958478Y-122768556D01*
X157829267Y-122570783D01*
X157669265Y-122396976D01*
X157482838Y-122251874D01*
X157275071Y-122139436D01*
X157051631Y-122062728D01*
X156818612Y-122023844D01*
X156582372Y-122023844D01*
X156349353Y-122062727D01*
X156349353Y-122062728D01*
X156125910Y-122139437D01*
X155918144Y-122251875D01*
X155731721Y-122396974D01*
X155571716Y-122570783D01*
X155442506Y-122768554D01*
X155368155Y-122938058D01*
X155347609Y-122984899D01*
X155289616Y-123213910D01*
X155274127Y-123400840D01*
X155270757Y-123441505D01*
X155250800Y-123482327D01*
X155208470Y-123498844D01*
X138441454Y-123498844D01*
X138400009Y-123483126D01*
X138379410Y-123443877D01*
X138390018Y-123400840D01*
X138466666Y-123289797D01*
X138475310Y-123277274D01*
X138484342Y-123253455D01*
X138489567Y-123242838D01*
X138498864Y-123227750D01*
X138776238Y-122665387D01*
X138788092Y-122648846D01*
X143674992Y-117761945D01*
X143691533Y-117750091D01*
X144253898Y-117472716D01*
X144289049Y-117451059D01*
X144292763Y-117448944D01*
X144376344Y-117405078D01*
X144503675Y-117292273D01*
X144565968Y-117202025D01*
X144600309Y-117152276D01*
X144654516Y-117009344D01*
X144654516Y-117009343D01*
X156334846Y-117009343D01*
X156355350Y-117178213D01*
X156415674Y-117337276D01*
X156511128Y-117475562D01*
X156512309Y-117477273D01*
X156639640Y-117590078D01*
X156790267Y-117669134D01*
X156955436Y-117709844D01*
X157125548Y-117709844D01*
X157290717Y-117669134D01*
X157441344Y-117590078D01*
X157568675Y-117477273D01*
X157568675Y-117477272D01*
X157570606Y-117475562D01*
X157612051Y-117459844D01*
X164511681Y-117459844D01*
X164518679Y-117460237D01*
X164557527Y-117464614D01*
X164614853Y-117453766D01*
X164617103Y-117453384D01*
X164652136Y-117448104D01*
X164674774Y-117444693D01*
X164674774Y-117444692D01*
X164674779Y-117444692D01*
X164675097Y-117444538D01*
X164690611Y-117439434D01*
X164690964Y-117439367D01*
X164690963Y-117439367D01*
X164742551Y-117412101D01*
X164744578Y-117411077D01*
X164797134Y-117385769D01*
X164797401Y-117385520D01*
X164810709Y-117376080D01*
X164810793Y-117376035D01*
X164811030Y-117375910D01*
X164852279Y-117334659D01*
X164853934Y-117333065D01*
X164896686Y-117293399D01*
X164896868Y-117293083D01*
X164906799Y-117280139D01*
X166898678Y-115288259D01*
X166903877Y-115283612D01*
X166934462Y-115259223D01*
X166967330Y-115211013D01*
X166968653Y-115209148D01*
X167003285Y-115162226D01*
X167003402Y-115161889D01*
X167010757Y-115147319D01*
X167010964Y-115147017D01*
X167028170Y-115091232D01*
X167028875Y-115089089D01*
X167048138Y-115034043D01*
X167048151Y-115033683D01*
X167050885Y-115017592D01*
X167050992Y-115017245D01*
X167050992Y-114958931D01*
X167051036Y-114956593D01*
X167053216Y-114898335D01*
X167053123Y-114897986D01*
X167050992Y-114881806D01*
X167050992Y-114014223D01*
X167056498Y-113988572D01*
X167072047Y-113967441D01*
X167075571Y-113964318D01*
X167128675Y-113917273D01*
X167225310Y-113777274D01*
X167285632Y-113618216D01*
X167285632Y-113618215D01*
X167285633Y-113618213D01*
X167306137Y-113449344D01*
X167894846Y-113449344D01*
X167915350Y-113618213D01*
X167975674Y-113777276D01*
X168072308Y-113917272D01*
X168072309Y-113917273D01*
X168199640Y-114030078D01*
X168350267Y-114109134D01*
X168515436Y-114149844D01*
X168685548Y-114149844D01*
X168850717Y-114109134D01*
X169001344Y-114030078D01*
X169128675Y-113917273D01*
X169225310Y-113777274D01*
X169285632Y-113618216D01*
X169285632Y-113618215D01*
X169285633Y-113618213D01*
X169306137Y-113449344D01*
X169285633Y-113280474D01*
X169280320Y-113266467D01*
X169266247Y-113229360D01*
X169263880Y-113221650D01*
X169260321Y-113206669D01*
X169255824Y-113187739D01*
X169054306Y-112593950D01*
X169050992Y-112573865D01*
X169050992Y-103824823D01*
X169054307Y-103804737D01*
X169125218Y-103595791D01*
X169255824Y-103210948D01*
X169263881Y-103177031D01*
X169266243Y-103169339D01*
X169285632Y-103118216D01*
X169285632Y-103118215D01*
X169285633Y-103118213D01*
X169306137Y-102949344D01*
X169285633Y-102780474D01*
X169225309Y-102621411D01*
X169128675Y-102481415D01*
X169001345Y-102368611D01*
X169001344Y-102368610D01*
X168926030Y-102329082D01*
X168850716Y-102289553D01*
X168685548Y-102248844D01*
X168515436Y-102248844D01*
X168350267Y-102289553D01*
X168199638Y-102368611D01*
X168072308Y-102481415D01*
X167975674Y-102621411D01*
X167915350Y-102780474D01*
X167894846Y-102949344D01*
X167915350Y-103118213D01*
X167934733Y-103169321D01*
X167937100Y-103177034D01*
X167945159Y-103210949D01*
X168045548Y-103506753D01*
X168146677Y-103804738D01*
X168149992Y-103824824D01*
X168149992Y-112573864D01*
X168146677Y-112593950D01*
X167945157Y-113187746D01*
X167937102Y-113221649D01*
X167934734Y-113229363D01*
X167915351Y-113280473D01*
X167894846Y-113449344D01*
X167306137Y-113449344D01*
X167285633Y-113280474D01*
X167225309Y-113121411D01*
X167128675Y-112981415D01*
X167001345Y-112868611D01*
X167001344Y-112868610D01*
X166926030Y-112829081D01*
X166850716Y-112789553D01*
X166685548Y-112748844D01*
X166515436Y-112748844D01*
X166350267Y-112789553D01*
X166199638Y-112868611D01*
X166072308Y-112981415D01*
X165975674Y-113121411D01*
X165915350Y-113280474D01*
X165894846Y-113449344D01*
X165915350Y-113618213D01*
X165975674Y-113777276D01*
X166072308Y-113917272D01*
X166128937Y-113967441D01*
X166144486Y-113988572D01*
X166149992Y-114014223D01*
X166149992Y-114736852D01*
X166131686Y-114781046D01*
X164372195Y-116540538D01*
X164351919Y-116554086D01*
X164328001Y-116558844D01*
X157612051Y-116558844D01*
X157570606Y-116543126D01*
X157556733Y-116530836D01*
X157441344Y-116428610D01*
X157366030Y-116389082D01*
X157290716Y-116349553D01*
X157125548Y-116308844D01*
X156955436Y-116308844D01*
X156790267Y-116349553D01*
X156639638Y-116428611D01*
X156512308Y-116541415D01*
X156415674Y-116681411D01*
X156355350Y-116840474D01*
X156334846Y-117009343D01*
X144654516Y-117009343D01*
X144660632Y-116993216D01*
X144660632Y-116993215D01*
X144660633Y-116993213D01*
X144681137Y-116824343D01*
X144660633Y-116655474D01*
X144600309Y-116496411D01*
X144503675Y-116356415D01*
X144376344Y-116243610D01*
X144296303Y-116201601D01*
X144225716Y-116164553D01*
X144060548Y-116123844D01*
X143890436Y-116123844D01*
X143725267Y-116164553D01*
X143574638Y-116243611D01*
X143447308Y-116356415D01*
X143350675Y-116496411D01*
X143341644Y-116520222D01*
X143336421Y-116530836D01*
X143327119Y-116545936D01*
X143260297Y-116681414D01*
X143049743Y-117108299D01*
X143037884Y-117124846D01*
X138150998Y-122011733D01*
X138134451Y-122023592D01*
X137572082Y-122300972D01*
X137536940Y-122322622D01*
X137533205Y-122324749D01*
X137449640Y-122368609D01*
X137322308Y-122481415D01*
X137225674Y-122621411D01*
X137165350Y-122780474D01*
X137144846Y-122949343D01*
X137165350Y-123118213D01*
X137225673Y-123277274D01*
X137277380Y-123352183D01*
X137310966Y-123400840D01*
X137321574Y-123443877D01*
X137300975Y-123483126D01*
X137259530Y-123498844D01*
X135725971Y-123498844D01*
X135705885Y-123495529D01*
X135701633Y-123494086D01*
X135112095Y-123294011D01*
X135112090Y-123294009D01*
X135109315Y-123293068D01*
X135109439Y-123292700D01*
X135101704Y-123289797D01*
X134935548Y-123248844D01*
X134765436Y-123248844D01*
X134600267Y-123289553D01*
X134449638Y-123368611D01*
X134322308Y-123481415D01*
X134225674Y-123621411D01*
X134165350Y-123780474D01*
X134144846Y-123949343D01*
X124224790Y-123949343D01*
X124469980Y-123908427D01*
X124705102Y-123827710D01*
X124923727Y-123709396D01*
X124970548Y-123672954D01*
X124970549Y-123672953D01*
X124100492Y-122802897D01*
X123230433Y-123672953D01*
X95519537Y-123672953D01*
X95406090Y-123422782D01*
X95359403Y-123319225D01*
X95194096Y-122952553D01*
X95193554Y-122951311D01*
X94981952Y-122449344D01*
X122595351Y-122449344D01*
X122615879Y-122697086D01*
X122676902Y-122938058D01*
X122776760Y-123165713D01*
X122877055Y-123319225D01*
X122877056Y-123319225D01*
X123746939Y-122449344D01*
X124454045Y-122449344D01*
X125323926Y-123319225D01*
X125424224Y-123165710D01*
X125524081Y-122938058D01*
X125585104Y-122697086D01*
X125605632Y-122449344D01*
X125585104Y-122201601D01*
X125524081Y-121960629D01*
X125424222Y-121732974D01*
X125323927Y-121579461D01*
X125323926Y-121579461D01*
X124454045Y-122449344D01*
X123746939Y-122449344D01*
X122877056Y-121579461D01*
X122877055Y-121579461D01*
X122776760Y-121732974D01*
X122676902Y-121960629D01*
X122615879Y-122201601D01*
X122595351Y-122449344D01*
X94981952Y-122449344D01*
X94825318Y-122077775D01*
X94621140Y-121590227D01*
X94620615Y-121588930D01*
X94478848Y-121225733D01*
X123230434Y-121225733D01*
X124100492Y-122095791D01*
X124970549Y-121225733D01*
X124923724Y-121189289D01*
X124705102Y-121070977D01*
X124469980Y-120990260D01*
X124224784Y-120949344D01*
X123976200Y-120949344D01*
X123731003Y-120990260D01*
X123495881Y-121070977D01*
X123277259Y-121189288D01*
X123230434Y-121225733D01*
X94478848Y-121225733D01*
X94279971Y-120716224D01*
X94084987Y-120212978D01*
X94084489Y-120211645D01*
X94006263Y-119994205D01*
X122799992Y-119994205D01*
X122802907Y-120019334D01*
X122848286Y-120122110D01*
X122927725Y-120201549D01*
X122927726Y-120201549D01*
X122927727Y-120201550D01*
X123030501Y-120246929D01*
X123055627Y-120249844D01*
X125145356Y-120249843D01*
X125170483Y-120246929D01*
X125273257Y-120201550D01*
X125352698Y-120122109D01*
X125398077Y-120019335D01*
X125400992Y-119994209D01*
X125400991Y-117904480D01*
X125398077Y-117879353D01*
X125352698Y-117776579D01*
X125352697Y-117776578D01*
X125352697Y-117776577D01*
X125273258Y-117697138D01*
X125209834Y-117669134D01*
X125170483Y-117651759D01*
X125145357Y-117648844D01*
X125145353Y-117648844D01*
X123055630Y-117648844D01*
X123030501Y-117651759D01*
X122927725Y-117697138D01*
X122848286Y-117776577D01*
X122802907Y-117879353D01*
X122799992Y-117904482D01*
X122799992Y-119994205D01*
X94006263Y-119994205D01*
X93887393Y-119663790D01*
X93770939Y-119340090D01*
X93770883Y-119339935D01*
X93586039Y-118821833D01*
X93585549Y-118820405D01*
X93557351Y-118734899D01*
X93298262Y-117949245D01*
X93298216Y-117949103D01*
X93240964Y-117773844D01*
X93208006Y-117672953D01*
X105230433Y-117672953D01*
X105277259Y-117709398D01*
X105495881Y-117827710D01*
X105731003Y-117908427D01*
X105976200Y-117949344D01*
X106224784Y-117949344D01*
X106469980Y-117908427D01*
X106705102Y-117827710D01*
X106923727Y-117709396D01*
X106970548Y-117672954D01*
X106970549Y-117672953D01*
X106791801Y-117494205D01*
X108299992Y-117494205D01*
X108302907Y-117519334D01*
X108348286Y-117622110D01*
X108427725Y-117701549D01*
X108427726Y-117701549D01*
X108427727Y-117701550D01*
X108530501Y-117746929D01*
X108555627Y-117749844D01*
X110645356Y-117749843D01*
X110670483Y-117746929D01*
X110773257Y-117701550D01*
X110852698Y-117622109D01*
X110898077Y-117519335D01*
X110900992Y-117494209D01*
X110900991Y-115404480D01*
X110898077Y-115379353D01*
X110852698Y-115276579D01*
X110852697Y-115276578D01*
X110852697Y-115276577D01*
X110773258Y-115197138D01*
X110694193Y-115162228D01*
X110670483Y-115151759D01*
X110645357Y-115148844D01*
X110645353Y-115148844D01*
X108555630Y-115148844D01*
X108530501Y-115151759D01*
X108427725Y-115197138D01*
X108348286Y-115276577D01*
X108302907Y-115379353D01*
X108299992Y-115404482D01*
X108299992Y-117494205D01*
X106791801Y-117494205D01*
X106100492Y-116802897D01*
X105230433Y-117672953D01*
X93208006Y-117672953D01*
X93124628Y-117417721D01*
X93124204Y-117416371D01*
X92862649Y-116545432D01*
X92834101Y-116449343D01*
X104595351Y-116449343D01*
X104615879Y-116697086D01*
X104676902Y-116938058D01*
X104776760Y-117165713D01*
X104877055Y-117319225D01*
X104877056Y-117319225D01*
X105746939Y-116449344D01*
X106454045Y-116449344D01*
X107323926Y-117319225D01*
X107424224Y-117165710D01*
X107524081Y-116938058D01*
X107585104Y-116697086D01*
X107605632Y-116449343D01*
X107585104Y-116201601D01*
X107524081Y-115960629D01*
X107424222Y-115732974D01*
X107323927Y-115579461D01*
X107323926Y-115579461D01*
X106454045Y-116449344D01*
X105746939Y-116449344D01*
X104877056Y-115579461D01*
X104877055Y-115579461D01*
X104776760Y-115732974D01*
X104676902Y-115960629D01*
X104615879Y-116201601D01*
X104595351Y-116449343D01*
X92834101Y-116449343D01*
X92701094Y-116001658D01*
X92700739Y-116000406D01*
X92504347Y-115276577D01*
X92490552Y-115225733D01*
X105230434Y-115225733D01*
X106100492Y-116095791D01*
X106970549Y-115225733D01*
X106923724Y-115189289D01*
X106705102Y-115070977D01*
X106469980Y-114990260D01*
X106224784Y-114949344D01*
X105976200Y-114949344D01*
X105731003Y-114990260D01*
X105495881Y-115070977D01*
X105277259Y-115189288D01*
X105230434Y-115225733D01*
X92490552Y-115225733D01*
X92464566Y-115129958D01*
X92464515Y-115129771D01*
X92438765Y-115033686D01*
X92315815Y-114574912D01*
X92315473Y-114573572D01*
X92104135Y-113702984D01*
X92043437Y-113449344D01*
X91968987Y-113138240D01*
X91968691Y-113136934D01*
X91782029Y-112266929D01*
X91717112Y-111959250D01*
X91660894Y-111692802D01*
X91660610Y-111691370D01*
X91498346Y-110822127D01*
X91466728Y-110649344D01*
X132670107Y-110649344D01*
X132689616Y-110884778D01*
X132747609Y-111113789D01*
X132800880Y-111235236D01*
X132842506Y-111330133D01*
X132971716Y-111527904D01*
X132971717Y-111527905D01*
X133131719Y-111701712D01*
X133318146Y-111846814D01*
X133525913Y-111959252D01*
X133749353Y-112035960D01*
X133982372Y-112074844D01*
X134218610Y-112074844D01*
X134218612Y-112074844D01*
X134451631Y-112035960D01*
X134675071Y-111959252D01*
X134882838Y-111846814D01*
X135069265Y-111701712D01*
X135229267Y-111527905D01*
X135358478Y-111330132D01*
X135453375Y-111113789D01*
X135511368Y-110884778D01*
X135530877Y-110649344D01*
X135511368Y-110413910D01*
X135453375Y-110184899D01*
X135358478Y-109968556D01*
X135345926Y-109949344D01*
X135229267Y-109770783D01*
X135069265Y-109596976D01*
X134882838Y-109451874D01*
X134675071Y-109339436D01*
X134451631Y-109262728D01*
X134218612Y-109223844D01*
X133982372Y-109223844D01*
X133749353Y-109262727D01*
X133749353Y-109262728D01*
X133525910Y-109339437D01*
X133318144Y-109451875D01*
X133131721Y-109596974D01*
X132971716Y-109770783D01*
X132842506Y-109968554D01*
X132776860Y-110118213D01*
X132747609Y-110184899D01*
X132689616Y-110413910D01*
X132670107Y-110649344D01*
X91466728Y-110649344D01*
X91391733Y-110239519D01*
X91391522Y-110238284D01*
X91253336Y-109369575D01*
X91161737Y-108779642D01*
X91161557Y-108778386D01*
X91047315Y-107910975D01*
X90971035Y-107313996D01*
X90970894Y-107312784D01*
X90880394Y-106446993D01*
X90819793Y-105843847D01*
X90819687Y-105842652D01*
X90767781Y-105172953D01*
X105230433Y-105172953D01*
X105277259Y-105209398D01*
X105495881Y-105327710D01*
X105731003Y-105408427D01*
X105976200Y-105449344D01*
X106224784Y-105449344D01*
X106469980Y-105408427D01*
X106705102Y-105327710D01*
X106923727Y-105209396D01*
X106970548Y-105172954D01*
X106970549Y-105172953D01*
X106791801Y-104994205D01*
X108299992Y-104994205D01*
X108302907Y-105019334D01*
X108348286Y-105122110D01*
X108427725Y-105201549D01*
X108427726Y-105201549D01*
X108427727Y-105201550D01*
X108530501Y-105246929D01*
X108555627Y-105249844D01*
X110645356Y-105249843D01*
X110670483Y-105246929D01*
X110773257Y-105201550D01*
X110852698Y-105122109D01*
X110857214Y-105111882D01*
X121799992Y-105111882D01*
X121802466Y-105133216D01*
X121802907Y-105137012D01*
X121818777Y-105172954D01*
X121848286Y-105239787D01*
X121927725Y-105319226D01*
X121927726Y-105319226D01*
X121927727Y-105319227D01*
X122030501Y-105364606D01*
X122055627Y-105367521D01*
X124145356Y-105367520D01*
X124170483Y-105364606D01*
X124273257Y-105319227D01*
X124352698Y-105239786D01*
X124398077Y-105137012D01*
X124400992Y-105111886D01*
X124400992Y-105111882D01*
X134299992Y-105111882D01*
X134302466Y-105133216D01*
X134302907Y-105137012D01*
X134318777Y-105172954D01*
X134348286Y-105239787D01*
X134427725Y-105319226D01*
X134427726Y-105319226D01*
X134427727Y-105319227D01*
X134530501Y-105364606D01*
X134555627Y-105367521D01*
X136645356Y-105367520D01*
X136670483Y-105364606D01*
X136773257Y-105319227D01*
X136852698Y-105239786D01*
X136898077Y-105137012D01*
X136900992Y-105111886D01*
X136900991Y-103022157D01*
X136898077Y-102997030D01*
X136852698Y-102894256D01*
X136852697Y-102894255D01*
X136852697Y-102894254D01*
X136773258Y-102814815D01*
X136721869Y-102792125D01*
X136670483Y-102769436D01*
X136645357Y-102766521D01*
X136645353Y-102766521D01*
X134555630Y-102766521D01*
X134530501Y-102769436D01*
X134427725Y-102814815D01*
X134348286Y-102894254D01*
X134302907Y-102997030D01*
X134299992Y-103022159D01*
X134299992Y-105111882D01*
X124400992Y-105111882D01*
X124400991Y-103022157D01*
X124398077Y-102997030D01*
X124352698Y-102894256D01*
X124352697Y-102894255D01*
X124352697Y-102894254D01*
X124273258Y-102814815D01*
X124221869Y-102792125D01*
X124170483Y-102769436D01*
X124145357Y-102766521D01*
X124145353Y-102766521D01*
X122055630Y-102766521D01*
X122030501Y-102769436D01*
X121927725Y-102814815D01*
X121848286Y-102894254D01*
X121802907Y-102997030D01*
X121799992Y-103022159D01*
X121799992Y-105111882D01*
X110857214Y-105111882D01*
X110898077Y-105019335D01*
X110900992Y-104994209D01*
X110900991Y-102904480D01*
X110898077Y-102879353D01*
X110852698Y-102776579D01*
X110852697Y-102776578D01*
X110852697Y-102776577D01*
X110773258Y-102697138D01*
X110721870Y-102674448D01*
X110670483Y-102651759D01*
X110645357Y-102648844D01*
X110645353Y-102648844D01*
X108555630Y-102648844D01*
X108530501Y-102651759D01*
X108427725Y-102697138D01*
X108348286Y-102776577D01*
X108331403Y-102814815D01*
X108302907Y-102879353D01*
X108301192Y-102894140D01*
X108299992Y-102904482D01*
X108299992Y-104994205D01*
X106791801Y-104994205D01*
X106100492Y-104302897D01*
X105230433Y-105172953D01*
X90767781Y-105172953D01*
X90752706Y-104978452D01*
X90741032Y-104819225D01*
X90708112Y-104370235D01*
X90708031Y-104368916D01*
X90686802Y-103949343D01*
X104595351Y-103949343D01*
X104615879Y-104197086D01*
X104676902Y-104438058D01*
X104776760Y-104665713D01*
X104877055Y-104819225D01*
X104877056Y-104819225D01*
X105746939Y-103949344D01*
X106454045Y-103949344D01*
X107323926Y-104819225D01*
X107424224Y-104665710D01*
X107524081Y-104438058D01*
X107585104Y-104197086D01*
X107605632Y-103949343D01*
X107585104Y-103701601D01*
X107524081Y-103460629D01*
X107424222Y-103232974D01*
X107323927Y-103079461D01*
X107323926Y-103079461D01*
X106454045Y-103949344D01*
X105746939Y-103949344D01*
X104877056Y-103079461D01*
X104877055Y-103079461D01*
X104776760Y-103232974D01*
X104676902Y-103460629D01*
X104615879Y-103701601D01*
X104595351Y-103949343D01*
X90686802Y-103949343D01*
X90664409Y-103506753D01*
X90649153Y-103177044D01*
X90636062Y-102894118D01*
X90636014Y-102892736D01*
X90633347Y-102780472D01*
X90632046Y-102725733D01*
X105230434Y-102725733D01*
X106100492Y-103595791D01*
X106970549Y-102725733D01*
X106923724Y-102689289D01*
X106705102Y-102570977D01*
X106469980Y-102490260D01*
X106224784Y-102449344D01*
X105976200Y-102449344D01*
X105731003Y-102490260D01*
X105495881Y-102570977D01*
X105277259Y-102689288D01*
X105230434Y-102725733D01*
X90632046Y-102725733D01*
X90615595Y-102033303D01*
X90610914Y-101790630D01*
X122230433Y-101790630D01*
X122277259Y-101827075D01*
X122495881Y-101945387D01*
X122731003Y-102026104D01*
X122976200Y-102067021D01*
X123224784Y-102067021D01*
X123469980Y-102026104D01*
X123705102Y-101945387D01*
X123923727Y-101827073D01*
X123970548Y-101790631D01*
X123970549Y-101790630D01*
X134730433Y-101790630D01*
X134777259Y-101827075D01*
X134995881Y-101945387D01*
X135231003Y-102026104D01*
X135476200Y-102067021D01*
X135724784Y-102067021D01*
X135969980Y-102026104D01*
X136205102Y-101945387D01*
X136423727Y-101827073D01*
X136470548Y-101790631D01*
X136470549Y-101790630D01*
X135600492Y-100920574D01*
X134730433Y-101790630D01*
X123970549Y-101790630D01*
X123100492Y-100920574D01*
X122230433Y-101790630D01*
X90610914Y-101790630D01*
X90603698Y-101416520D01*
X90603687Y-101415238D01*
X90606271Y-100567020D01*
X121595351Y-100567020D01*
X121615879Y-100814763D01*
X121676902Y-101055735D01*
X121776760Y-101283390D01*
X121877055Y-101436902D01*
X121877056Y-101436902D01*
X122746939Y-100567021D01*
X123454045Y-100567021D01*
X124323926Y-101436902D01*
X124424224Y-101283387D01*
X124524081Y-101055735D01*
X124585104Y-100814763D01*
X124605632Y-100567021D01*
X134095351Y-100567021D01*
X134115879Y-100814763D01*
X134176902Y-101055735D01*
X134276760Y-101283390D01*
X134377055Y-101436902D01*
X134377056Y-101436902D01*
X135246939Y-100567021D01*
X135954045Y-100567021D01*
X136823926Y-101436902D01*
X136924224Y-101283387D01*
X136983020Y-101149344D01*
X151170107Y-101149344D01*
X151189616Y-101384778D01*
X151247609Y-101613789D01*
X151281841Y-101691829D01*
X151342506Y-101830133D01*
X151454604Y-102001712D01*
X151471717Y-102027905D01*
X151631719Y-102201712D01*
X151818146Y-102346814D01*
X152025913Y-102459252D01*
X152249353Y-102535960D01*
X152482372Y-102574844D01*
X152718610Y-102574844D01*
X152718612Y-102574844D01*
X152951631Y-102535960D01*
X153175071Y-102459252D01*
X153382838Y-102346814D01*
X153569265Y-102201712D01*
X153729267Y-102027905D01*
X153858478Y-101830132D01*
X153953375Y-101613789D01*
X154011368Y-101384778D01*
X154030877Y-101149344D01*
X154011368Y-100913910D01*
X153953375Y-100684899D01*
X153858478Y-100468556D01*
X153729267Y-100270783D01*
X153569265Y-100096976D01*
X153382838Y-99951874D01*
X153368924Y-99944344D01*
X163824846Y-99944344D01*
X163845350Y-100113213D01*
X163905674Y-100272276D01*
X164002308Y-100412272D01*
X164002309Y-100412273D01*
X164065837Y-100468554D01*
X164128937Y-100524455D01*
X164144486Y-100545586D01*
X164149992Y-100571237D01*
X164149992Y-109384465D01*
X164144486Y-109410116D01*
X164128937Y-109431247D01*
X164072308Y-109481415D01*
X163975674Y-109621411D01*
X163915350Y-109780474D01*
X163894846Y-109949344D01*
X163915350Y-110118213D01*
X163975674Y-110277276D01*
X164072308Y-110417272D01*
X164072309Y-110417273D01*
X164199640Y-110530078D01*
X164350267Y-110609134D01*
X164515436Y-110649844D01*
X164685548Y-110649844D01*
X164850717Y-110609134D01*
X165001344Y-110530078D01*
X165128675Y-110417273D01*
X165225310Y-110277274D01*
X165285632Y-110118216D01*
X165285632Y-110118215D01*
X165285633Y-110118213D01*
X165306137Y-109949344D01*
X165285633Y-109780474D01*
X165225309Y-109621411D01*
X165128675Y-109481415D01*
X165072047Y-109431247D01*
X165056498Y-109410116D01*
X165050992Y-109384465D01*
X165050992Y-100949344D01*
X181010107Y-100949344D01*
X181029616Y-101184778D01*
X181087609Y-101413789D01*
X181133677Y-101518814D01*
X181182506Y-101630133D01*
X181311716Y-101827904D01*
X181311717Y-101827905D01*
X181471719Y-102001712D01*
X181658146Y-102146814D01*
X181865913Y-102259252D01*
X182089353Y-102335960D01*
X182322372Y-102374844D01*
X182558610Y-102374844D01*
X182558612Y-102374844D01*
X182791631Y-102335960D01*
X183015071Y-102259252D01*
X183222838Y-102146814D01*
X183409265Y-102001712D01*
X183569267Y-101827905D01*
X183658170Y-101691828D01*
X183690198Y-101666899D01*
X183730786Y-101666899D01*
X183762813Y-101691828D01*
X183815724Y-101772814D01*
X183851174Y-101827075D01*
X183851717Y-101827905D01*
X184011719Y-102001712D01*
X184198146Y-102146814D01*
X184405913Y-102259252D01*
X184629353Y-102335960D01*
X184862372Y-102374844D01*
X185098610Y-102374844D01*
X185098612Y-102374844D01*
X185331631Y-102335960D01*
X185555071Y-102259252D01*
X185762838Y-102146814D01*
X185949265Y-102001712D01*
X186109267Y-101827905D01*
X186198170Y-101691828D01*
X186230198Y-101666899D01*
X186270786Y-101666899D01*
X186302813Y-101691828D01*
X186355724Y-101772814D01*
X186391174Y-101827075D01*
X186391717Y-101827905D01*
X186551719Y-102001712D01*
X186738146Y-102146814D01*
X186945913Y-102259252D01*
X187169353Y-102335960D01*
X187402372Y-102374844D01*
X187638610Y-102374844D01*
X187638612Y-102374844D01*
X187871631Y-102335960D01*
X188095071Y-102259252D01*
X188302838Y-102146814D01*
X188489265Y-102001712D01*
X188649267Y-101827905D01*
X188778478Y-101630132D01*
X188873375Y-101413789D01*
X188931368Y-101184778D01*
X188950877Y-100949344D01*
X191170107Y-100949344D01*
X191189616Y-101184778D01*
X191247609Y-101413789D01*
X191293677Y-101518814D01*
X191342506Y-101630133D01*
X191471716Y-101827904D01*
X191471717Y-101827905D01*
X191631719Y-102001712D01*
X191818146Y-102146814D01*
X192025913Y-102259252D01*
X192249353Y-102335960D01*
X192482372Y-102374844D01*
X192718610Y-102374844D01*
X192718612Y-102374844D01*
X192951631Y-102335960D01*
X193175071Y-102259252D01*
X193382838Y-102146814D01*
X193569265Y-102001712D01*
X193729267Y-101827905D01*
X193858478Y-101630132D01*
X193953375Y-101413789D01*
X194011368Y-101184778D01*
X194030877Y-100949344D01*
X194011368Y-100713910D01*
X193953375Y-100484899D01*
X193858478Y-100268556D01*
X193834456Y-100231788D01*
X193729267Y-100070783D01*
X193705448Y-100044909D01*
X193569265Y-99896976D01*
X193382838Y-99751874D01*
X193175071Y-99639436D01*
X192951631Y-99562728D01*
X192718612Y-99523844D01*
X192482372Y-99523844D01*
X192249352Y-99562728D01*
X192249353Y-99562728D01*
X192025910Y-99639437D01*
X191818144Y-99751875D01*
X191631721Y-99896974D01*
X191471716Y-100070783D01*
X191342506Y-100268554D01*
X191320257Y-100319278D01*
X191247609Y-100484899D01*
X191189616Y-100713910D01*
X191170107Y-100949344D01*
X188950877Y-100949344D01*
X188931368Y-100713910D01*
X188873375Y-100484899D01*
X188778478Y-100268556D01*
X188754456Y-100231788D01*
X188649267Y-100070783D01*
X188625448Y-100044909D01*
X188489265Y-99896976D01*
X188302838Y-99751874D01*
X188095071Y-99639436D01*
X187871631Y-99562728D01*
X187638612Y-99523844D01*
X187402372Y-99523844D01*
X187169352Y-99562728D01*
X187169353Y-99562728D01*
X186945910Y-99639437D01*
X186738144Y-99751875D01*
X186551721Y-99896974D01*
X186391716Y-100070783D01*
X186302815Y-100206858D01*
X186270786Y-100231788D01*
X186230198Y-100231788D01*
X186198169Y-100206858D01*
X186109267Y-100070783D01*
X186085448Y-100044909D01*
X185949265Y-99896976D01*
X185762838Y-99751874D01*
X185555071Y-99639436D01*
X185331631Y-99562728D01*
X185098612Y-99523844D01*
X184862372Y-99523844D01*
X184629352Y-99562728D01*
X184629353Y-99562728D01*
X184405910Y-99639437D01*
X184198144Y-99751875D01*
X184011721Y-99896974D01*
X183851716Y-100070783D01*
X183762815Y-100206858D01*
X183730786Y-100231788D01*
X183690198Y-100231788D01*
X183658169Y-100206858D01*
X183569267Y-100070783D01*
X183545448Y-100044909D01*
X183409265Y-99896976D01*
X183222838Y-99751874D01*
X183015071Y-99639436D01*
X182791631Y-99562728D01*
X182558612Y-99523844D01*
X182322372Y-99523844D01*
X182089352Y-99562728D01*
X182089353Y-99562728D01*
X181865910Y-99639437D01*
X181658144Y-99751875D01*
X181471721Y-99896974D01*
X181311716Y-100070783D01*
X181182506Y-100268554D01*
X181160257Y-100319278D01*
X181087609Y-100484899D01*
X181029616Y-100713910D01*
X181010107Y-100949344D01*
X165050992Y-100949344D01*
X165050992Y-100442880D01*
X165062056Y-100407376D01*
X165155309Y-100272276D01*
X165215633Y-100113213D01*
X165236137Y-99944344D01*
X165215633Y-99775474D01*
X165155309Y-99616411D01*
X165058675Y-99476415D01*
X164931345Y-99363611D01*
X164931344Y-99363610D01*
X164856030Y-99324081D01*
X164780716Y-99284553D01*
X164615548Y-99243844D01*
X164445436Y-99243844D01*
X164280267Y-99284553D01*
X164129638Y-99363611D01*
X164002308Y-99476415D01*
X163905674Y-99616411D01*
X163845350Y-99775474D01*
X163824846Y-99944344D01*
X153368924Y-99944344D01*
X153206687Y-99856545D01*
X153175073Y-99839437D01*
X153175072Y-99839436D01*
X153175071Y-99839436D01*
X152951631Y-99762728D01*
X152718612Y-99723844D01*
X152482372Y-99723844D01*
X152249352Y-99762728D01*
X152249353Y-99762728D01*
X152025910Y-99839437D01*
X151818144Y-99951875D01*
X151631721Y-100096974D01*
X151471716Y-100270783D01*
X151342506Y-100468554D01*
X151259255Y-100658348D01*
X151247609Y-100684899D01*
X151189616Y-100913910D01*
X151170107Y-101149344D01*
X136983020Y-101149344D01*
X137024081Y-101055735D01*
X137085104Y-100814763D01*
X137105632Y-100567020D01*
X137085104Y-100319278D01*
X137024081Y-100078306D01*
X136924222Y-99850651D01*
X136823927Y-99697138D01*
X136823926Y-99697138D01*
X135954045Y-100567021D01*
X135246939Y-100567021D01*
X134377056Y-99697138D01*
X134377055Y-99697138D01*
X134276760Y-99850651D01*
X134176902Y-100078306D01*
X134115879Y-100319278D01*
X134095351Y-100567021D01*
X124605632Y-100567021D01*
X124605632Y-100567020D01*
X124585104Y-100319278D01*
X124524081Y-100078306D01*
X124424222Y-99850651D01*
X124323927Y-99697138D01*
X124323926Y-99697138D01*
X123454045Y-100567021D01*
X122746939Y-100567021D01*
X121877056Y-99697138D01*
X121877055Y-99697138D01*
X121776760Y-99850651D01*
X121676902Y-100078306D01*
X121615879Y-100319278D01*
X121595351Y-100567020D01*
X90606271Y-100567020D01*
X90606296Y-100558684D01*
X90611048Y-99938563D01*
X90611070Y-99937389D01*
X90628803Y-99343410D01*
X122230434Y-99343410D01*
X123100492Y-100213468D01*
X123970549Y-99343410D01*
X134730434Y-99343410D01*
X135600492Y-100213468D01*
X136470549Y-99343410D01*
X136423724Y-99306966D01*
X136205102Y-99188654D01*
X135969980Y-99107937D01*
X135724784Y-99067021D01*
X135476200Y-99067021D01*
X135231003Y-99107937D01*
X134995881Y-99188654D01*
X134777259Y-99306965D01*
X134730434Y-99343410D01*
X123970549Y-99343410D01*
X123923724Y-99306966D01*
X123705102Y-99188654D01*
X123469980Y-99107937D01*
X123224784Y-99067021D01*
X122976200Y-99067021D01*
X122731003Y-99107937D01*
X122495881Y-99188654D01*
X122277259Y-99306965D01*
X122230434Y-99343410D01*
X90628803Y-99343410D01*
X90636545Y-99084083D01*
X90637136Y-99067021D01*
X90658105Y-98461435D01*
X90658160Y-98460242D01*
X90706340Y-97610566D01*
X90716278Y-97449344D01*
X158894846Y-97449344D01*
X158915350Y-97618213D01*
X158975674Y-97777276D01*
X159072308Y-97917272D01*
X159072309Y-97917273D01*
X159199640Y-98030078D01*
X159350267Y-98109134D01*
X159515436Y-98149844D01*
X159685548Y-98149844D01*
X159850717Y-98109134D01*
X159850722Y-98109131D01*
X159851737Y-98108881D01*
X159859439Y-98106003D01*
X159859310Y-98105621D01*
X159862088Y-98104677D01*
X159862097Y-98104676D01*
X160455883Y-97903158D01*
X160475969Y-97899844D01*
X162725014Y-97899844D01*
X162745099Y-97903158D01*
X163338886Y-98104676D01*
X163338897Y-98104678D01*
X163341668Y-98105619D01*
X163341539Y-98105998D01*
X163349267Y-98108887D01*
X163350265Y-98109133D01*
X163350267Y-98109134D01*
X163515436Y-98149844D01*
X163685548Y-98149844D01*
X163850717Y-98109134D01*
X164001344Y-98030078D01*
X164128675Y-97917273D01*
X164225310Y-97777274D01*
X164285632Y-97618216D01*
X164285632Y-97618215D01*
X164285633Y-97618213D01*
X164306137Y-97449344D01*
X164285633Y-97280474D01*
X164225309Y-97121411D01*
X164128675Y-96981415D01*
X164001345Y-96868611D01*
X164001344Y-96868610D01*
X163926030Y-96829081D01*
X163850716Y-96789553D01*
X163685548Y-96748844D01*
X163515436Y-96748844D01*
X163349278Y-96789797D01*
X163341538Y-96792698D01*
X163341664Y-96793069D01*
X163338889Y-96794010D01*
X163338888Y-96794011D01*
X162772619Y-96986189D01*
X162745098Y-96995529D01*
X162725012Y-96998844D01*
X160475971Y-96998844D01*
X160455885Y-96995529D01*
X160428364Y-96986189D01*
X159862095Y-96794011D01*
X159862090Y-96794009D01*
X159859315Y-96793068D01*
X159859439Y-96792700D01*
X159851704Y-96789797D01*
X159685548Y-96748844D01*
X159515436Y-96748844D01*
X159350267Y-96789553D01*
X159199638Y-96868611D01*
X159072308Y-96981415D01*
X158975674Y-97121411D01*
X158915350Y-97280474D01*
X158894846Y-97449344D01*
X90716278Y-97449344D01*
X90744838Y-96986028D01*
X90744913Y-96984995D01*
X90815647Y-96139267D01*
X90871173Y-95513618D01*
X90871289Y-95512449D01*
X90964376Y-94671480D01*
X91037039Y-94044978D01*
X91037176Y-94043903D01*
X91152443Y-93208063D01*
X91152475Y-93207839D01*
X91229171Y-92672953D01*
X105230433Y-92672953D01*
X105277259Y-92709398D01*
X105495881Y-92827710D01*
X105731003Y-92908427D01*
X105976200Y-92949344D01*
X106224784Y-92949344D01*
X106469980Y-92908427D01*
X106705102Y-92827710D01*
X106923727Y-92709396D01*
X106970548Y-92672954D01*
X106970549Y-92672953D01*
X106791801Y-92494205D01*
X108299992Y-92494205D01*
X108302907Y-92519334D01*
X108348286Y-92622110D01*
X108427725Y-92701549D01*
X108427726Y-92701549D01*
X108427727Y-92701550D01*
X108530501Y-92746929D01*
X108555627Y-92749844D01*
X110645356Y-92749843D01*
X110670483Y-92746929D01*
X110773257Y-92701550D01*
X110852698Y-92622109D01*
X110898077Y-92519335D01*
X110900992Y-92494209D01*
X110900991Y-90404480D01*
X110898077Y-90379353D01*
X110852698Y-90276579D01*
X110852697Y-90276578D01*
X110852697Y-90276577D01*
X110773258Y-90197138D01*
X110721870Y-90174448D01*
X110670483Y-90151759D01*
X110645357Y-90148844D01*
X110645353Y-90148844D01*
X108555630Y-90148844D01*
X108530501Y-90151759D01*
X108427725Y-90197138D01*
X108348286Y-90276577D01*
X108302907Y-90379353D01*
X108299992Y-90404482D01*
X108299992Y-92494205D01*
X106791801Y-92494205D01*
X106100492Y-91802897D01*
X105230433Y-92672953D01*
X91229171Y-92672953D01*
X91242293Y-92581438D01*
X91242463Y-92580335D01*
X91379764Y-91749830D01*
X91431149Y-91449343D01*
X104595351Y-91449343D01*
X104615879Y-91697086D01*
X104676902Y-91938058D01*
X104776760Y-92165713D01*
X104877055Y-92319225D01*
X104877056Y-92319225D01*
X105746939Y-91449344D01*
X106454045Y-91449344D01*
X107323926Y-92319225D01*
X107424224Y-92165710D01*
X107524081Y-91938058D01*
X107585104Y-91697086D01*
X107605632Y-91449343D01*
X107585104Y-91201601D01*
X107524081Y-90960629D01*
X107424222Y-90732974D01*
X107323927Y-90579461D01*
X107323926Y-90579461D01*
X106454045Y-91449344D01*
X105746939Y-91449344D01*
X104877056Y-90579461D01*
X104877055Y-90579461D01*
X104776760Y-90732974D01*
X104676902Y-90960629D01*
X104615879Y-91201601D01*
X104595351Y-91449343D01*
X91431149Y-91449343D01*
X91486807Y-91123867D01*
X91486984Y-91122893D01*
X91646132Y-90298217D01*
X91660548Y-90225733D01*
X105230434Y-90225733D01*
X106100492Y-91095791D01*
X106970549Y-90225733D01*
X106923724Y-90189289D01*
X106705102Y-90070977D01*
X106469980Y-89990260D01*
X106224784Y-89949344D01*
X105976200Y-89949344D01*
X105731003Y-89990260D01*
X105495881Y-90070977D01*
X105277259Y-90189288D01*
X105230434Y-90225733D01*
X91660548Y-90225733D01*
X91770381Y-89673475D01*
X91770590Y-89672475D01*
X91951373Y-88854202D01*
X91969821Y-88772953D01*
X176130433Y-88772953D01*
X176177259Y-88809398D01*
X176395881Y-88927710D01*
X176631003Y-89008427D01*
X176876200Y-89049344D01*
X177124784Y-89049344D01*
X177369980Y-89008427D01*
X177605102Y-88927710D01*
X177823727Y-88809396D01*
X177870548Y-88772954D01*
X177870549Y-88772953D01*
X177000492Y-87902897D01*
X176130433Y-88772953D01*
X91969821Y-88772953D01*
X92092824Y-88231221D01*
X92093083Y-88230131D01*
X92262745Y-87549344D01*
X175495351Y-87549344D01*
X175515879Y-87797086D01*
X175576902Y-88038058D01*
X175676760Y-88265713D01*
X175777055Y-88419225D01*
X175777056Y-88419225D01*
X176646939Y-87549344D01*
X177354045Y-87549344D01*
X178223926Y-88419225D01*
X178324224Y-88265710D01*
X178424081Y-88038058D01*
X178485104Y-87797086D01*
X178505632Y-87549344D01*
X178485104Y-87301601D01*
X178424081Y-87060629D01*
X178324222Y-86832974D01*
X178223927Y-86679461D01*
X178223926Y-86679461D01*
X177354045Y-87549344D01*
X176646939Y-87549344D01*
X175777056Y-86679461D01*
X175777055Y-86679461D01*
X175676760Y-86832974D01*
X175576902Y-87060629D01*
X175515879Y-87301601D01*
X175495351Y-87549344D01*
X92262745Y-87549344D01*
X92295249Y-87418916D01*
X92453934Y-86798022D01*
X92454169Y-86797144D01*
X92585162Y-86325733D01*
X176130434Y-86325733D01*
X177000492Y-87195791D01*
X177870549Y-86325733D01*
X177823724Y-86289289D01*
X177605102Y-86170977D01*
X177369980Y-86090260D01*
X177124784Y-86049344D01*
X176876200Y-86049344D01*
X176631003Y-86090260D01*
X176395881Y-86170977D01*
X176177259Y-86289288D01*
X176130434Y-86325733D01*
X92585162Y-86325733D01*
X92677569Y-85993181D01*
X92853375Y-85375217D01*
X92853675Y-85374204D01*
X93098085Y-84577995D01*
X93290931Y-83963556D01*
X93291213Y-83962692D01*
X93556362Y-83174826D01*
X93766257Y-82564172D01*
X93766548Y-82563353D01*
X94052226Y-81784205D01*
X94278970Y-81178175D01*
X94279318Y-81177272D01*
X94585295Y-80407258D01*
X94828779Y-79806347D01*
X94829146Y-79805467D01*
X95155101Y-79045201D01*
X95415209Y-78449879D01*
X95415595Y-78449017D01*
X95761335Y-77698780D01*
X96037918Y-77109558D01*
X96038278Y-77108810D01*
X96403525Y-76369061D01*
X96696334Y-75786616D01*
X96696789Y-75785731D01*
X97081188Y-75057058D01*
X97390157Y-74481649D01*
X97390557Y-74480922D01*
X97793897Y-73763605D01*
X98118747Y-73195882D01*
X98119152Y-73195189D01*
X98541063Y-72489782D01*
X98881602Y-71930183D01*
X98882062Y-71929444D01*
X99322025Y-71236695D01*
X99322222Y-71236389D01*
X99406037Y-71106663D01*
X113099992Y-71106663D01*
X113139426Y-71418818D01*
X113217671Y-71723565D01*
X113333498Y-72016110D01*
X113485076Y-72291828D01*
X113670014Y-72546374D01*
X113670016Y-72546376D01*
X113885399Y-72775735D01*
X114127826Y-72976289D01*
X114127828Y-72976290D01*
X114127829Y-72976291D01*
X114393485Y-73144881D01*
X114678177Y-73278847D01*
X114977413Y-73376075D01*
X115286477Y-73435032D01*
X115521909Y-73449844D01*
X115679070Y-73449844D01*
X115679075Y-73449844D01*
X115914507Y-73435032D01*
X116223571Y-73376075D01*
X116522807Y-73278847D01*
X116807499Y-73144881D01*
X117073155Y-72976291D01*
X117315586Y-72775734D01*
X117530970Y-72546374D01*
X117715908Y-72291828D01*
X117867486Y-72016110D01*
X117983311Y-71723569D01*
X118061558Y-71418817D01*
X118100992Y-71106663D01*
X173099992Y-71106663D01*
X173139426Y-71418818D01*
X173217671Y-71723565D01*
X173333497Y-72016109D01*
X173333498Y-72016110D01*
X173485076Y-72291828D01*
X173670014Y-72546374D01*
X173670016Y-72546376D01*
X173885399Y-72775735D01*
X174127826Y-72976289D01*
X174127828Y-72976290D01*
X174127829Y-72976291D01*
X174393485Y-73144881D01*
X174678177Y-73278847D01*
X174977413Y-73376075D01*
X175286477Y-73435032D01*
X175521909Y-73449844D01*
X175679070Y-73449844D01*
X175679075Y-73449844D01*
X175914507Y-73435032D01*
X176223571Y-73376075D01*
X176522807Y-73278847D01*
X176807499Y-73144881D01*
X177073155Y-72976291D01*
X177315586Y-72775734D01*
X177530970Y-72546374D01*
X177715908Y-72291828D01*
X177867486Y-72016110D01*
X177983311Y-71723569D01*
X178061558Y-71418817D01*
X178100992Y-71106662D01*
X178100992Y-70792026D01*
X178061558Y-70479871D01*
X177983311Y-70175119D01*
X177867486Y-69882578D01*
X177715908Y-69606860D01*
X177530970Y-69352314D01*
X177315586Y-69122954D01*
X177315584Y-69122952D01*
X177073157Y-68922398D01*
X177026665Y-68892894D01*
X176807499Y-68753807D01*
X176522807Y-68619841D01*
X176522805Y-68619840D01*
X176223570Y-68522612D01*
X175914509Y-68463656D01*
X175847240Y-68459423D01*
X175679075Y-68448844D01*
X175521909Y-68448844D01*
X175374764Y-68458101D01*
X175286474Y-68463656D01*
X174977413Y-68522612D01*
X174678178Y-68619840D01*
X174527451Y-68690766D01*
X174393485Y-68753807D01*
X174328260Y-68795200D01*
X174127826Y-68922398D01*
X173885399Y-69122952D01*
X173670016Y-69352311D01*
X173485073Y-69606864D01*
X173333498Y-69882577D01*
X173217671Y-70175122D01*
X173139426Y-70479869D01*
X173099992Y-70792025D01*
X173099992Y-71106663D01*
X118100992Y-71106663D01*
X118100992Y-71106662D01*
X118100992Y-70792026D01*
X118061558Y-70479871D01*
X117983311Y-70175119D01*
X117867486Y-69882578D01*
X117715908Y-69606860D01*
X117634060Y-69494205D01*
X131799992Y-69494205D01*
X131802907Y-69519334D01*
X131848286Y-69622110D01*
X131927725Y-69701549D01*
X131927726Y-69701549D01*
X131927727Y-69701550D01*
X132030501Y-69746929D01*
X132055627Y-69749844D01*
X134145356Y-69749843D01*
X134170483Y-69746929D01*
X134273257Y-69701550D01*
X134352698Y-69622109D01*
X134357214Y-69611882D01*
X144299992Y-69611882D01*
X144302907Y-69637011D01*
X144348286Y-69739787D01*
X144427725Y-69819226D01*
X144427726Y-69819226D01*
X144427727Y-69819227D01*
X144530501Y-69864606D01*
X144555627Y-69867521D01*
X146645356Y-69867520D01*
X146670483Y-69864606D01*
X146773257Y-69819227D01*
X146852698Y-69739786D01*
X146898077Y-69637012D01*
X146900992Y-69611886D01*
X146900992Y-69111882D01*
X156799992Y-69111882D01*
X156802907Y-69137011D01*
X156848286Y-69239787D01*
X156927725Y-69319226D01*
X156927726Y-69319226D01*
X156927727Y-69319227D01*
X157030501Y-69364606D01*
X157055627Y-69367521D01*
X159145356Y-69367520D01*
X159170483Y-69364606D01*
X159273257Y-69319227D01*
X159352698Y-69239786D01*
X159398077Y-69137012D01*
X159400992Y-69111886D01*
X159400991Y-67022157D01*
X159398077Y-66997030D01*
X159352698Y-66894256D01*
X159352697Y-66894255D01*
X159352697Y-66894254D01*
X159273258Y-66814815D01*
X159221870Y-66792125D01*
X159170483Y-66769436D01*
X159145357Y-66766521D01*
X159145353Y-66766521D01*
X157055630Y-66766521D01*
X157030501Y-66769436D01*
X156927725Y-66814815D01*
X156848286Y-66894254D01*
X156802907Y-66997030D01*
X156799992Y-67022159D01*
X156799992Y-69111882D01*
X146900992Y-69111882D01*
X146900991Y-67522157D01*
X146898077Y-67497030D01*
X146852698Y-67394256D01*
X146852697Y-67394255D01*
X146852697Y-67394254D01*
X146773258Y-67314815D01*
X146686660Y-67276579D01*
X146670483Y-67269436D01*
X146645357Y-67266521D01*
X146645353Y-67266521D01*
X144555630Y-67266521D01*
X144530501Y-67269436D01*
X144427725Y-67314815D01*
X144348286Y-67394254D01*
X144302907Y-67497030D01*
X144299992Y-67522159D01*
X144299992Y-69611882D01*
X134357214Y-69611882D01*
X134398077Y-69519335D01*
X134400992Y-69494209D01*
X134400991Y-67404480D01*
X134398077Y-67379353D01*
X134352698Y-67276579D01*
X134352697Y-67276578D01*
X134352697Y-67276577D01*
X134273258Y-67197138D01*
X134221869Y-67174448D01*
X134170483Y-67151759D01*
X134145357Y-67148844D01*
X134145353Y-67148844D01*
X132055630Y-67148844D01*
X132030501Y-67151759D01*
X131927725Y-67197138D01*
X131848286Y-67276577D01*
X131802907Y-67379353D01*
X131799992Y-67404482D01*
X131799992Y-69494205D01*
X117634060Y-69494205D01*
X117530970Y-69352314D01*
X117315586Y-69122954D01*
X117315584Y-69122952D01*
X117073157Y-68922398D01*
X117026665Y-68892894D01*
X116807499Y-68753807D01*
X116522807Y-68619841D01*
X116522805Y-68619840D01*
X116223570Y-68522612D01*
X115914509Y-68463656D01*
X115847240Y-68459423D01*
X115679075Y-68448844D01*
X115521909Y-68448844D01*
X115374764Y-68458101D01*
X115286474Y-68463656D01*
X114977413Y-68522612D01*
X114678178Y-68619840D01*
X114527451Y-68690766D01*
X114393485Y-68753807D01*
X114328260Y-68795200D01*
X114127826Y-68922398D01*
X113885399Y-69122952D01*
X113670016Y-69352311D01*
X113485073Y-69606864D01*
X113333498Y-69882577D01*
X113217671Y-70175122D01*
X113139426Y-70479869D01*
X113099992Y-70792025D01*
X113099992Y-71106663D01*
X99406037Y-71106663D01*
X99678204Y-70685414D01*
X99678662Y-70684718D01*
X100136661Y-70004557D01*
X100507955Y-69462508D01*
X100508408Y-69461859D01*
X100983968Y-68794915D01*
X101370302Y-68262285D01*
X101370717Y-68261724D01*
X101863498Y-67608399D01*
X102264523Y-67085750D01*
X102264957Y-67085195D01*
X102774614Y-66445876D01*
X102995961Y-66172953D01*
X132230433Y-66172953D01*
X132277259Y-66209398D01*
X132495881Y-66327710D01*
X132731003Y-66408427D01*
X132976200Y-66449344D01*
X133224784Y-66449344D01*
X133469980Y-66408427D01*
X133705102Y-66327710D01*
X133773620Y-66290630D01*
X144730433Y-66290630D01*
X144777259Y-66327075D01*
X144995881Y-66445387D01*
X145231003Y-66526104D01*
X145476200Y-66567021D01*
X145724784Y-66567021D01*
X145969980Y-66526104D01*
X146205102Y-66445387D01*
X146423727Y-66327073D01*
X146470548Y-66290631D01*
X146470549Y-66290630D01*
X145600492Y-65420574D01*
X144730433Y-66290630D01*
X133773620Y-66290630D01*
X133923727Y-66209396D01*
X133970548Y-66172954D01*
X133970549Y-66172953D01*
X133100492Y-65302897D01*
X132230433Y-66172953D01*
X102995961Y-66172953D01*
X103189979Y-65933728D01*
X103190576Y-65933006D01*
X103716699Y-65308147D01*
X104024091Y-64949344D01*
X131595351Y-64949344D01*
X131615879Y-65197086D01*
X131676902Y-65438058D01*
X131776760Y-65665713D01*
X131877055Y-65819225D01*
X131877056Y-65819225D01*
X132746939Y-64949344D01*
X133454045Y-64949344D01*
X134323926Y-65819225D01*
X134424224Y-65665710D01*
X134524081Y-65438058D01*
X134585104Y-65197086D01*
X134595881Y-65067021D01*
X144095351Y-65067021D01*
X144115879Y-65314763D01*
X144176902Y-65555735D01*
X144276760Y-65783390D01*
X144377055Y-65936902D01*
X144377056Y-65936902D01*
X145246939Y-65067021D01*
X145954045Y-65067021D01*
X146823926Y-65936902D01*
X146919492Y-65790630D01*
X157230433Y-65790630D01*
X157277259Y-65827075D01*
X157495881Y-65945387D01*
X157731003Y-66026104D01*
X157976200Y-66067021D01*
X158224784Y-66067021D01*
X158469980Y-66026104D01*
X158705102Y-65945387D01*
X158923727Y-65827073D01*
X158970548Y-65790631D01*
X158970549Y-65790630D01*
X158100492Y-64920574D01*
X157230433Y-65790630D01*
X146919492Y-65790630D01*
X146924224Y-65783387D01*
X147024081Y-65555735D01*
X147085104Y-65314763D01*
X147105632Y-65067021D01*
X147085104Y-64819278D01*
X147024081Y-64578306D01*
X147019130Y-64567020D01*
X156595351Y-64567020D01*
X156615879Y-64814763D01*
X156676902Y-65055735D01*
X156776760Y-65283390D01*
X156877055Y-65436902D01*
X156877056Y-65436902D01*
X157746939Y-64567021D01*
X158454045Y-64567021D01*
X159323926Y-65436902D01*
X159424224Y-65283387D01*
X159524081Y-65055735D01*
X159585104Y-64814763D01*
X159605632Y-64567020D01*
X159585104Y-64319278D01*
X159524081Y-64078306D01*
X159424222Y-63850651D01*
X159323927Y-63697138D01*
X159323926Y-63697138D01*
X158454045Y-64567021D01*
X157746939Y-64567021D01*
X156877056Y-63697138D01*
X156877055Y-63697138D01*
X156776760Y-63850651D01*
X156676902Y-64078306D01*
X156615879Y-64319278D01*
X156595351Y-64567020D01*
X147019130Y-64567020D01*
X146924222Y-64350651D01*
X146823927Y-64197138D01*
X146823926Y-64197138D01*
X145954045Y-65067021D01*
X145246939Y-65067021D01*
X144377056Y-64197138D01*
X144377055Y-64197138D01*
X144276760Y-64350651D01*
X144176902Y-64578306D01*
X144115879Y-64819278D01*
X144095351Y-65067021D01*
X134595881Y-65067021D01*
X134605632Y-64949343D01*
X134585104Y-64701601D01*
X134524081Y-64460629D01*
X134424222Y-64232974D01*
X134323927Y-64079461D01*
X134323926Y-64079461D01*
X133454045Y-64949344D01*
X132746939Y-64949344D01*
X131877056Y-64079461D01*
X131877055Y-64079461D01*
X131776760Y-64232974D01*
X131676902Y-64460629D01*
X131615879Y-64701601D01*
X131595351Y-64949344D01*
X104024091Y-64949344D01*
X104146177Y-64806840D01*
X104146659Y-64806288D01*
X104688931Y-64196207D01*
X105114504Y-63725733D01*
X132230434Y-63725733D01*
X133100492Y-64595791D01*
X133852872Y-63843410D01*
X144730434Y-63843410D01*
X145600492Y-64713468D01*
X146470549Y-63843410D01*
X146423724Y-63806966D01*
X146205102Y-63688654D01*
X145969980Y-63607937D01*
X145724784Y-63567021D01*
X145476200Y-63567021D01*
X145231003Y-63607937D01*
X144995881Y-63688654D01*
X144777259Y-63806965D01*
X144730434Y-63843410D01*
X133852872Y-63843410D01*
X133970549Y-63725733D01*
X133923724Y-63689289D01*
X133705102Y-63570977D01*
X133469980Y-63490260D01*
X133224784Y-63449344D01*
X132976200Y-63449344D01*
X132731003Y-63490260D01*
X132495881Y-63570977D01*
X132277259Y-63689288D01*
X132230434Y-63725733D01*
X105114504Y-63725733D01*
X105132245Y-63706120D01*
X105132763Y-63705558D01*
X105472461Y-63343410D01*
X157230434Y-63343410D01*
X158100492Y-64213468D01*
X158970549Y-63343410D01*
X158923724Y-63306966D01*
X158705102Y-63188654D01*
X158469980Y-63107937D01*
X158224784Y-63067021D01*
X157976200Y-63067021D01*
X157731003Y-63107937D01*
X157495881Y-63188654D01*
X157277259Y-63306965D01*
X157230434Y-63343410D01*
X105472461Y-63343410D01*
X105690665Y-63110785D01*
X106147556Y-62632266D01*
X106148033Y-62631776D01*
X106721214Y-62052629D01*
X107191355Y-61586078D01*
X107191822Y-61585623D01*
X107779880Y-61022461D01*
X108262720Y-60568469D01*
X108263406Y-60567835D01*
X108865899Y-60021036D01*
X109361193Y-59579867D01*
X109361812Y-59579326D01*
X109978337Y-59049214D01*
X110485929Y-58621055D01*
X110486309Y-58620740D01*
X111116578Y-58107535D01*
X111635788Y-57692998D01*
X111636277Y-57692614D01*
X112279735Y-57196742D01*
X112810195Y-56796145D01*
X112810832Y-56795671D01*
X113466837Y-56317589D01*
X114008359Y-55931105D01*
X114009018Y-55930643D01*
X114677186Y-55470594D01*
X115229384Y-55098534D01*
X115229901Y-55098192D01*
X115909916Y-54656369D01*
X116472191Y-54299165D01*
X116472804Y-54298783D01*
X117163882Y-53875665D01*
X117164004Y-53875592D01*
X117736168Y-53533388D01*
X117736726Y-53533061D01*
X118438648Y-53128756D01*
X119020108Y-52801937D01*
X119020732Y-52801592D01*
X119732919Y-52416413D01*
X120323312Y-52105203D01*
X120323878Y-52104910D01*
X121045673Y-51739183D01*
X121046033Y-51739004D01*
X121644780Y-51443727D01*
X121645357Y-51443447D01*
X122376430Y-51097318D01*
X122376621Y-51097229D01*
X122983541Y-50817994D01*
X122984107Y-50817739D01*
X123723844Y-50491478D01*
X123724155Y-50491343D01*
X124338505Y-50228510D01*
X124339147Y-50228241D01*
X125087278Y-49921953D01*
X125087423Y-49921895D01*
X125708824Y-49675637D01*
X125709550Y-49675356D01*
X126465474Y-49389279D01*
X127093690Y-49159709D01*
X127094217Y-49159520D01*
X127857246Y-48893903D01*
X127857478Y-48893824D01*
X128491776Y-48681224D01*
X128492315Y-48681048D01*
X129261949Y-48436048D01*
X129262246Y-48435955D01*
X129902218Y-48240471D01*
X129902703Y-48240327D01*
X130678544Y-48016061D01*
X130678797Y-48015990D01*
X131323908Y-47837793D01*
X131324554Y-47837620D01*
X132106052Y-47634244D01*
X132756113Y-47473403D01*
X132756472Y-47473316D01*
X133542991Y-47290989D01*
X133543181Y-47290946D01*
X134197244Y-47147700D01*
X134197920Y-47147557D01*
X134988612Y-46986457D01*
X134989138Y-46986354D01*
X135646904Y-46860770D01*
X135647435Y-46860673D01*
X136442264Y-46720800D01*
X136442374Y-46720782D01*
X137103641Y-46612911D01*
X137104234Y-46612819D01*
X137902131Y-46494353D01*
X137902676Y-46494276D01*
X138566439Y-46404287D01*
X138567033Y-46404210D01*
X139367816Y-46307168D01*
X139368397Y-46307102D01*
X140034343Y-46235032D01*
X140034912Y-46234974D01*
X140837943Y-46159430D01*
X140838595Y-46159373D01*
X141506152Y-46105282D01*
X141506949Y-46105223D01*
X142311634Y-46051230D01*
X142312225Y-46051195D01*
X142981194Y-46015102D01*
X142981643Y-46015080D01*
X143787671Y-45982661D01*
X143788137Y-45982646D01*
X144457939Y-45964590D01*
X144458511Y-45964578D01*
X145264751Y-45953775D01*
X145265589Y-45953769D01*
X145935395Y-45953769D01*
X145936232Y-45953775D01*
G37*
%TD.AperFunction*%
%TD*%
%TA.AperFunction,Conductor*%
%TO.N,+VSW*%
G36*
X163445643Y-97083721D02*
G01*
X163451625Y-97089882D01*
X163599615Y-97444842D01*
X163600516Y-97449344D01*
X163599615Y-97453846D01*
X163451625Y-97808805D01*
X163445643Y-97814966D01*
X163437066Y-97815382D01*
X163088991Y-97697254D01*
X162808431Y-97602038D01*
X162802682Y-97597775D01*
X162800492Y-97590960D01*
X162800492Y-97307728D01*
X162802682Y-97300913D01*
X162808431Y-97296649D01*
X163437067Y-97083305D01*
X163445643Y-97083721D01*
G37*
%TD.AperFunction*%
%TD*%
%TA.AperFunction,Conductor*%
%TO.N,+VDC*%
G36*
X168604989Y-102950219D02*
G01*
X168919931Y-103081524D01*
X168959953Y-103098210D01*
X168966114Y-103104192D01*
X168966530Y-103112769D01*
X168753187Y-103741404D01*
X168748923Y-103747154D01*
X168742108Y-103749344D01*
X168458876Y-103749344D01*
X168452061Y-103747154D01*
X168447797Y-103741404D01*
X168234453Y-103112769D01*
X168234869Y-103104192D01*
X168241029Y-103098210D01*
X168595994Y-102950219D01*
X168600492Y-102949319D01*
X168604989Y-102950219D01*
G37*
%TD.AperFunction*%
%TD*%
%TA.AperFunction,Conductor*%
%TO.N,+VDC*%
G36*
X168748923Y-112651534D02*
G01*
X168753187Y-112657284D01*
X168966530Y-113285918D01*
X168966114Y-113294495D01*
X168959953Y-113300477D01*
X168604994Y-113448467D01*
X168600492Y-113449368D01*
X168595990Y-113448467D01*
X168241030Y-113300477D01*
X168234869Y-113294495D01*
X168234453Y-113285919D01*
X168447797Y-112657283D01*
X168452061Y-112651534D01*
X168458876Y-112649344D01*
X168742108Y-112649344D01*
X168748923Y-112651534D01*
G37*
%TD.AperFunction*%
%TD*%
%TA.AperFunction,Conductor*%
%TO.N,+BATT*%
G36*
X135642552Y-123796649D02*
G01*
X135648302Y-123800913D01*
X135650492Y-123807728D01*
X135650492Y-124090960D01*
X135648302Y-124097775D01*
X135642552Y-124102038D01*
X135447005Y-124168402D01*
X135013917Y-124315382D01*
X135005340Y-124314966D01*
X134999358Y-124308805D01*
X134913153Y-124102039D01*
X134851367Y-123953841D01*
X134850467Y-123949344D01*
X134851367Y-123944846D01*
X134999358Y-123589881D01*
X135005340Y-123583721D01*
X135013916Y-123583305D01*
X135642552Y-123796649D01*
G37*
%TD.AperFunction*%
%TD*%
%TA.AperFunction,Conductor*%
%TO.N,+BATT*%
G36*
X170241049Y-116550431D02*
G01*
X170596688Y-116696780D01*
X170600508Y-116699327D01*
X170603055Y-116703148D01*
X170749404Y-117058786D01*
X170749529Y-117067372D01*
X170743760Y-117073731D01*
X170148392Y-117367385D01*
X170141311Y-117368436D01*
X170134943Y-117365165D01*
X169934670Y-117164892D01*
X169931399Y-117158524D01*
X169932450Y-117151443D01*
X169973165Y-117068896D01*
X170226104Y-116556074D01*
X170232463Y-116550306D01*
X170241049Y-116550431D01*
G37*
%TD.AperFunction*%
%TD*%
%TA.AperFunction,Conductor*%
%TO.N,+VSW*%
G36*
X138316040Y-122283522D02*
G01*
X138516313Y-122483795D01*
X138519584Y-122490163D01*
X138518533Y-122497244D01*
X138224879Y-123092612D01*
X138218520Y-123098381D01*
X138209934Y-123098256D01*
X137854296Y-122951907D01*
X137850475Y-122949360D01*
X137847928Y-122945539D01*
X137701579Y-122589901D01*
X137701454Y-122581315D01*
X137707222Y-122574956D01*
X138302591Y-122281301D01*
X138309672Y-122280251D01*
X138316040Y-122283522D01*
G37*
%TD.AperFunction*%
%TD*%
%TA.AperFunction,Conductor*%
%TO.N,+VSW*%
G36*
X160392552Y-97296649D02*
G01*
X160398302Y-97300913D01*
X160400492Y-97307728D01*
X160400492Y-97590960D01*
X160398302Y-97597775D01*
X160392552Y-97602038D01*
X160197005Y-97668402D01*
X159763917Y-97815382D01*
X159755340Y-97814966D01*
X159749358Y-97808805D01*
X159663153Y-97602039D01*
X159601367Y-97453842D01*
X159600467Y-97449343D01*
X159601366Y-97444847D01*
X159749358Y-97089881D01*
X159755340Y-97083721D01*
X159763916Y-97083305D01*
X160392552Y-97296649D01*
G37*
%TD.AperFunction*%
%TD*%
%TA.AperFunction,Conductor*%
%TO.N,+VSW*%
G36*
X143616049Y-116675431D02*
G01*
X143971688Y-116821780D01*
X143975508Y-116824327D01*
X143978055Y-116828148D01*
X144124404Y-117183786D01*
X144124529Y-117192372D01*
X144118760Y-117198731D01*
X143523392Y-117492385D01*
X143516311Y-117493436D01*
X143509943Y-117490165D01*
X143309670Y-117289892D01*
X143306399Y-117283524D01*
X143307450Y-117276443D01*
X143348165Y-117193896D01*
X143601104Y-116681074D01*
X143607463Y-116675306D01*
X143616049Y-116675431D01*
G37*
%TD.AperFunction*%
%TD*%
M02*
