M48
; DRILL file {KiCad 7.0.1-0} date 2023 May 22, Monday 13:56:41
; FORMAT={-:-/ absolute / inch / decimal}
; #@! TF.CreationDate,2023-05-22T13:56:41+09:00
; #@! TF.GenerationSoftware,Kicad,Pcbnew,7.0.1-0
; #@! TF.FileFunction,Plated,1,2,PTH
FMAT,2
INCH
; #@! TA.AperFunction,Plated,PTH,ViaDrill
T1C0.0157
; #@! TA.AperFunction,Plated,PTH,ComponentDrill
T2C0.0394
; #@! TA.AperFunction,Plated,PTH,ComponentDrill
T3C0.0433
; #@! TA.AperFunction,Plated,PTH,ComponentDrill
T4C0.0591
%
G90
G05
T1
X3.6457Y-3.8956
X3.7244Y-4.4862
X3.7638Y-3.2264
X4.0Y-5.1161
X4.2559Y-2.4783
X4.3347Y-3.1476
X4.3544Y-5.4704
X4.5217Y-4.811
X4.8071Y-2.5767
X4.8071Y-3.187
X4.8858Y-2.0649
X4.9252Y-5.185
X5.2008Y-2.9901
X5.2303Y-3.561
X5.3091Y-4.8799
X5.3583Y-2.9901
X5.3583Y-4.8012
X5.3681Y-2.2519
X5.4272Y-4.8405
X5.4469Y-3.561
X5.4567Y-3.246
X5.5158Y-4.8405
X5.5355Y-4.939
X5.6142Y-4.2697
X5.6142Y-4.5649
X5.6536Y-4.7224
X5.6683Y-4.5994
X5.7323Y-1.8681
X5.8406Y-2.9901
X5.8898Y-3.5512
X5.9488Y-4.939
X5.9882Y-5.4704
X6.0177Y-3.0
X6.0768Y-2.2224
X6.0827Y-4.7972
X6.0965Y-3.561
X6.1063Y-3.246
X6.1827Y-4.6067
X6.2835Y-3.8366
X6.441Y-3.6791
X6.441Y-3.8366
X6.4776Y-3.9348
X6.4803Y-4.3287
X6.5Y-2.9901
X6.5295Y-3.9645
X6.5394Y-4.8602
X6.5591Y-4.4665
X6.5788Y-2.0649
X6.6378Y-4.0531
X6.6378Y-4.4665
X6.6772Y-2.9901
X6.6969Y-2.6358
X6.7166Y-4.5945
X6.7559Y-3.246
X6.7658Y-3.7775
X6.7953Y-3.9252
X6.9134Y-3.9941
X6.9429Y-4.8504
X7.0709Y-4.3878
X7.1299Y-3.374
X7.1299Y-5.4901
X7.189Y-4.0925
X7.2087Y-2.4783
X7.2677Y-4.5256
X7.2776Y-4.8701
X7.2874Y-3.7972
X7.3268Y-3.8956
X7.3662Y-4.0728
X7.563Y-4.9783
X7.6811Y-3.246
X7.7795Y-4.4862
X7.8583Y-3.9153
T2
X4.1772Y-3.6004
X4.1772Y-4.0925
X4.1772Y-4.5846
X4.315Y-3.6004
X4.315Y-4.0925
X4.315Y-4.5846
X4.8465Y-3.9593
X4.8465Y-4.0971
X4.8858Y-4.683
X4.8858Y-4.8208
X5.2402Y-2.5571
X5.2402Y-2.6949
X5.3386Y-3.9593
X5.3386Y-4.0971
X5.7323Y-2.5617
X5.7323Y-2.6995
X6.2244Y-2.542
X6.2244Y-2.6798
X6.9685Y-3.4468
T3
X5.1902Y-5.0645
X5.2902Y-5.0645
X5.6626Y-5.0645
X5.7626Y-5.0645
X6.1547Y-5.0645
X6.2547Y-5.0645
X6.5091Y-5.0645
X6.6091Y-5.0645
T4
X5.2795Y-4.3563
X6.0079Y-3.9823
X6.1693Y-4.8602
X6.8839Y-4.6929
X7.1827Y-3.9744
X7.2827Y-3.9744
X7.3827Y-3.9744
X7.5827Y-3.9744
T0
M30
