%TF.GenerationSoftware,KiCad,Pcbnew,7.0.1-0*%
%TF.CreationDate,2023-05-25T18:05:17+09:00*%
%TF.ProjectId,Transformation,5472616e-7366-46f7-926d-6174696f6e2e,rev?*%
%TF.SameCoordinates,Original*%
%TF.FileFunction,Copper,L2,Bot*%
%TF.FilePolarity,Positive*%
%FSLAX46Y46*%
G04 Gerber Fmt 4.6, Leading zero omitted, Abs format (unit mm)*
G04 Created by KiCad (PCBNEW 7.0.1-0) date 2023-05-25 18:05:17*
%MOMM*%
%LPD*%
G01*
G04 APERTURE LIST*
G04 Aperture macros list*
%AMRoundRect*
0 Rectangle with rounded corners*
0 $1 Rounding radius*
0 $2 $3 $4 $5 $6 $7 $8 $9 X,Y pos of 4 corners*
0 Add a 4 corners polygon primitive as box body*
4,1,4,$2,$3,$4,$5,$6,$7,$8,$9,$2,$3,0*
0 Add four circle primitives for the rounded corners*
1,1,$1+$1,$2,$3*
1,1,$1+$1,$4,$5*
1,1,$1+$1,$6,$7*
1,1,$1+$1,$8,$9*
0 Add four rect primitives between the rounded corners*
20,1,$1+$1,$2,$3,$4,$5,0*
20,1,$1+$1,$4,$5,$6,$7,0*
20,1,$1+$1,$6,$7,$8,$9,0*
20,1,$1+$1,$8,$9,$2,$3,0*%
G04 Aperture macros list end*
%TA.AperFunction,ComponentPad*%
%ADD10C,2.250000*%
%TD*%
%TA.AperFunction,ComponentPad*%
%ADD11C,1.650000*%
%TD*%
%TA.AperFunction,ComponentPad*%
%ADD12RoundRect,0.250000X-0.350000X-0.560000X0.350000X-0.560000X0.350000X0.560000X-0.350000X0.560000X0*%
%TD*%
%TA.AperFunction,ComponentPad*%
%ADD13O,1.200000X1.650000*%
%TD*%
%TA.AperFunction,ComponentPad*%
%ADD14C,2.000000*%
%TD*%
%TA.AperFunction,ViaPad*%
%ADD15C,0.800000*%
%TD*%
%TA.AperFunction,Conductor*%
%ADD16C,0.300000*%
%TD*%
G04 APERTURE END LIST*
D10*
%TO.P,TP3,1,1*%
%TO.N,+VSW*%
X152600492Y-101149344D03*
%TD*%
%TO.P,TP4,1,1*%
%TO.N,+VDC*%
X156700492Y-123449344D03*
%TD*%
%TO.P,TP5,1,1*%
%TO.N,Net-(J4-Pin_2)*%
X174850492Y-119199344D03*
%TD*%
D11*
%TO.P,J3,1,Pin_1*%
%TO.N,GND*%
X150299492Y-128449344D03*
%TO.P,J3,2,Pin_2*%
%TO.N,+VDC*%
X152839492Y-128449344D03*
%TD*%
%TO.P,J4,1,Pin_1*%
%TO.N,GND*%
X124772492Y-128449344D03*
%TO.P,J4,2,Pin_2*%
%TO.N,Net-(J4-Pin_2)*%
X127312492Y-128449344D03*
%TD*%
%TO.P,J1,1,Pin_1*%
%TO.N,+BATT*%
X138234492Y-128449344D03*
%TO.P,J1,2,Pin_2*%
%TO.N,+VSW*%
X140774492Y-128449344D03*
%TD*%
D12*
%TO.P,J2,1,Pin_1*%
%TO.N,+12V*%
X159100492Y-128949344D03*
D13*
%TO.P,J2,2,Pin_2*%
X159100492Y-130949344D03*
%TO.P,J2,3,Pin_3*%
%TO.N,GND*%
X161100492Y-128949344D03*
%TO.P,J2,4,Pin_4*%
X161100492Y-130949344D03*
%TO.P,J2,5,Pin_5*%
%TO.N,Net-(J2-Pin_5)*%
X163100492Y-128949344D03*
%TO.P,J2,6,Pin_6*%
X163100492Y-130949344D03*
%TO.P,J2,7,Pin_7*%
%TO.N,Net-(J2-Pin_7)*%
X165100492Y-128949344D03*
%TO.P,J2,8,Pin_8*%
X165100492Y-130949344D03*
%TD*%
D10*
%TO.P,TP2,1,1*%
%TO.N,+12V*%
X116390492Y-81137344D03*
%TD*%
%TO.P,SW1,*%
%TO.N,*%
X192600492Y-100949344D03*
%TO.P,SW1,1,A*%
%TO.N,unconnected-(SW1-A-Pad1)*%
X187520492Y-100949344D03*
%TO.P,SW1,2,B*%
%TO.N,Net-(J4-Pin_2)*%
X184980492Y-100949344D03*
%TO.P,SW1,3,C*%
%TO.N,+BATT*%
X182440492Y-100949344D03*
%TD*%
D14*
%TO.P,TP1,1,1*%
%TO.N,GND*%
X177000492Y-87549344D03*
%TD*%
D15*
%TO.N,+VSW*%
X143975492Y-116824344D03*
X163600492Y-97449344D03*
X140774492Y-125841344D03*
X159600492Y-97449344D03*
%TO.N,GND*%
X192100492Y-126449344D03*
X125100492Y-131699344D03*
X166100492Y-123449344D03*
X111818492Y-124063344D03*
X171850492Y-95949344D03*
X95600492Y-81949344D03*
X142600492Y-108449344D03*
X92600492Y-98949344D03*
X154850492Y-90449344D03*
X138350492Y-90449344D03*
X132850492Y-90449344D03*
X182600492Y-103949344D03*
X176350492Y-123199344D03*
X136100492Y-75949344D03*
X187100492Y-103449344D03*
X149600492Y-90199344D03*
X108100492Y-62949344D03*
X165100492Y-75949344D03*
X154350492Y-56449344D03*
X186100492Y-98949344D03*
X165850492Y-100699344D03*
X145600492Y-47449344D03*
X110600492Y-138949344D03*
X122100492Y-65449344D03*
X170100492Y-66949344D03*
X171600492Y-82449344D03*
X146870492Y-139303344D03*
X143600492Y-119949344D03*
X167100492Y-52449344D03*
X183100492Y-62949344D03*
X179600492Y-111449344D03*
X184850492Y-123699344D03*
X181100492Y-139449344D03*
X152850492Y-76199344D03*
X122100492Y-80949344D03*
X136350492Y-57199344D03*
X199600492Y-99449344D03*
X140393492Y-122793344D03*
X138600492Y-82449344D03*
X154500492Y-121849344D03*
X172600492Y-99699344D03*
X197600492Y-113949344D03*
X144076492Y-126603344D03*
X132100492Y-75949344D03*
X163600492Y-93449344D03*
X181100492Y-85699344D03*
X174937492Y-101838344D03*
X94600492Y-113949344D03*
X101600492Y-129949344D03*
X195100492Y-82449344D03*
X137980492Y-123047344D03*
X184600492Y-114949344D03*
X124100492Y-52449344D03*
X142600492Y-115949344D03*
X155100492Y-82449344D03*
X110100492Y-79949344D03*
X148350492Y-75949344D03*
X169600492Y-75949344D03*
X152712492Y-125460344D03*
X185100492Y-96449344D03*
%TO.N,+BATT*%
X140774492Y-124317344D03*
X170600492Y-116699344D03*
%TO.N,+VDC*%
X168600492Y-102949344D03*
X168600492Y-113449344D03*
%TO.N,Net-(Q2-G)*%
X164600492Y-109949344D03*
X164530492Y-99944344D03*
X166600492Y-113449344D03*
X157040492Y-117009344D03*
%TD*%
D16*
%TO.N,+VSW*%
X139123492Y-121676344D02*
X143975492Y-116824344D01*
X140774492Y-125841344D02*
X139123492Y-124190344D01*
X163600492Y-97449344D02*
X159600492Y-97449344D01*
X139123492Y-124190344D02*
X139123492Y-121676344D01*
%TO.N,+BATT*%
X162375492Y-124924344D02*
X170600492Y-116699344D01*
X140774492Y-124317344D02*
X141031526Y-124060310D01*
X141031526Y-124060310D02*
X155225492Y-124060310D01*
X156089526Y-124924344D02*
X162375492Y-124924344D01*
X155225492Y-124060310D02*
X156089526Y-124924344D01*
%TO.N,+VDC*%
X168600492Y-113449344D02*
X168600492Y-102949344D01*
%TO.N,Net-(Q2-G)*%
X164600492Y-109949344D02*
X164600492Y-100014344D01*
X164540492Y-117009344D02*
X166600492Y-114949344D01*
X166600492Y-114949344D02*
X166600492Y-113449344D01*
X157040492Y-117009344D02*
X164540492Y-117009344D01*
X164600492Y-100014344D02*
X164530492Y-99944344D01*
%TD*%
%TA.AperFunction,Conductor*%
%TO.N,GND*%
G36*
X145936232Y-45953775D02*
G01*
X146742470Y-45964578D01*
X146743050Y-45964590D01*
X147412835Y-45982646D01*
X147413332Y-45982662D01*
X148219321Y-46015079D01*
X148219805Y-46015103D01*
X148888738Y-46051194D01*
X148889369Y-46051231D01*
X149694009Y-46105221D01*
X149694852Y-46105284D01*
X150362363Y-46159371D01*
X150363077Y-46159434D01*
X151166039Y-46234971D01*
X151166668Y-46235035D01*
X151832550Y-46307098D01*
X151833203Y-46307173D01*
X152633915Y-46404206D01*
X152634582Y-46404292D01*
X153298262Y-46494270D01*
X153298908Y-46494362D01*
X154096698Y-46612811D01*
X154097380Y-46612917D01*
X154758560Y-46720774D01*
X154758811Y-46720816D01*
X155553461Y-46860657D01*
X155554127Y-46860780D01*
X156211779Y-46986341D01*
X156212436Y-46986471D01*
X157002994Y-47147543D01*
X157003796Y-47147713D01*
X157657739Y-47290932D01*
X157658095Y-47291012D01*
X158444453Y-47473303D01*
X158444932Y-47473418D01*
X159094873Y-47634230D01*
X159095074Y-47634281D01*
X159876334Y-47837595D01*
X159877138Y-47837811D01*
X160522096Y-48015965D01*
X160522556Y-48016095D01*
X161298209Y-48240306D01*
X161298836Y-48240492D01*
X161938653Y-48435929D01*
X161939185Y-48436096D01*
X162708592Y-48681023D01*
X162709281Y-48681248D01*
X163343399Y-48893789D01*
X163343915Y-48893965D01*
X164106688Y-49159493D01*
X164107377Y-49159739D01*
X164735418Y-49389246D01*
X164735671Y-49389340D01*
X165491338Y-49675320D01*
X165492244Y-49675670D01*
X166113451Y-49921851D01*
X166113849Y-49922012D01*
X166861726Y-50228197D01*
X166862564Y-50228547D01*
X167476688Y-50491283D01*
X167477307Y-50491552D01*
X168216751Y-50817684D01*
X168217532Y-50818036D01*
X168824210Y-51097159D01*
X168824742Y-51097407D01*
X169555532Y-51443403D01*
X169556308Y-51443778D01*
X169994479Y-51659866D01*
X170154820Y-51738940D01*
X170155425Y-51739242D01*
X170876994Y-52104854D01*
X170877777Y-52105259D01*
X171467948Y-52416352D01*
X171468208Y-52416490D01*
X172180113Y-52801518D01*
X172180981Y-52801997D01*
X172762230Y-53128698D01*
X172762653Y-53128939D01*
X173464118Y-53532981D01*
X173464916Y-53533449D01*
X174036789Y-53875478D01*
X174037344Y-53875814D01*
X174728036Y-54298695D01*
X174728897Y-54299232D01*
X175291012Y-54656336D01*
X175291317Y-54656532D01*
X175970951Y-55098106D01*
X175971708Y-55098608D01*
X176523724Y-55470546D01*
X176524023Y-55470749D01*
X177083528Y-55855981D01*
X177191859Y-55930570D01*
X177192723Y-55931176D01*
X177734028Y-56317506D01*
X177734267Y-56317678D01*
X178390013Y-56795571D01*
X178390867Y-56796205D01*
X178921103Y-57196633D01*
X178921589Y-57197004D01*
X179564573Y-57692511D01*
X179565309Y-57693089D01*
X180012638Y-58050236D01*
X180084250Y-58107412D01*
X180084717Y-58107789D01*
X180714515Y-58620611D01*
X180715158Y-58621143D01*
X181222555Y-59049138D01*
X181222870Y-59049407D01*
X181445981Y-59241246D01*
X181839058Y-59579229D01*
X181839880Y-59579948D01*
X182335046Y-60021003D01*
X182335225Y-60021164D01*
X182551211Y-60217184D01*
X182937511Y-60567776D01*
X182938321Y-60568524D01*
X183420942Y-61022310D01*
X183421317Y-61022666D01*
X184009024Y-61585492D01*
X184009732Y-61586181D01*
X184479627Y-62052488D01*
X184479977Y-62052839D01*
X185052819Y-62631643D01*
X185053534Y-62632378D01*
X185248708Y-62836792D01*
X185510204Y-63110668D01*
X185510584Y-63111070D01*
X186068078Y-63705407D01*
X186068845Y-63706239D01*
X186511963Y-64196111D01*
X186512326Y-64196516D01*
X187054178Y-64806123D01*
X187054928Y-64806982D01*
X187484221Y-65308076D01*
X187484567Y-65308484D01*
X188010335Y-65932921D01*
X188011067Y-65933807D01*
X188426228Y-66445702D01*
X188426503Y-66446044D01*
X188935915Y-67085055D01*
X188936564Y-67085885D01*
X189337416Y-67608309D01*
X189337575Y-67608518D01*
X189830147Y-68261566D01*
X189830784Y-68262428D01*
X189965998Y-68448844D01*
X190216924Y-68794790D01*
X190217105Y-68795041D01*
X190692469Y-69461711D01*
X190693118Y-69462639D01*
X191064221Y-70004410D01*
X191064500Y-70004821D01*
X191522206Y-70684547D01*
X191522860Y-70685539D01*
X191878760Y-71236389D01*
X191879023Y-71236799D01*
X192318828Y-71929297D01*
X192319460Y-71930313D01*
X192659894Y-72489741D01*
X192660104Y-72490089D01*
X192830951Y-72775735D01*
X193081724Y-73195010D01*
X193082333Y-73196051D01*
X193407021Y-73763494D01*
X193407252Y-73763901D01*
X193810324Y-74480740D01*
X193810910Y-74481806D01*
X194119686Y-75056855D01*
X194119902Y-75057260D01*
X194504140Y-75785630D01*
X194504701Y-75786720D01*
X194797399Y-76368945D01*
X194797599Y-76369347D01*
X195162612Y-77108621D01*
X195163148Y-77109734D01*
X195439556Y-77698584D01*
X195439742Y-77698983D01*
X195785326Y-78448883D01*
X195785835Y-78450018D01*
X196045813Y-79045046D01*
X196045984Y-79045441D01*
X196371775Y-79805322D01*
X196372258Y-79806479D01*
X196615696Y-80407281D01*
X196615852Y-80407672D01*
X196921609Y-81177131D01*
X196922064Y-81178310D01*
X197148690Y-81784028D01*
X197148833Y-81784414D01*
X197233710Y-82015904D01*
X197419991Y-82523959D01*
X197434363Y-82563155D01*
X197434789Y-82564354D01*
X197644589Y-83174735D01*
X197644718Y-83175116D01*
X197909705Y-83962497D01*
X197910102Y-83963716D01*
X198102899Y-84578004D01*
X198103015Y-84578379D01*
X198347270Y-85374082D01*
X198347637Y-85375321D01*
X198523425Y-85993223D01*
X198523528Y-85993592D01*
X198746758Y-86796939D01*
X198747094Y-86798196D01*
X198905703Y-87418795D01*
X198905794Y-87419157D01*
X199107875Y-88230035D01*
X199108179Y-88231310D01*
X199249631Y-88854299D01*
X199300144Y-89082930D01*
X199430360Y-89672328D01*
X199430631Y-89673620D01*
X199554800Y-90297967D01*
X199554677Y-90297991D01*
X199554870Y-90298315D01*
X199713967Y-91122725D01*
X199714205Y-91124033D01*
X199821219Y-91749830D01*
X199821276Y-91750171D01*
X199958502Y-92580226D01*
X199958706Y-92581549D01*
X200048507Y-93207839D01*
X200048554Y-93208172D01*
X200163788Y-94043765D01*
X200163958Y-94045102D01*
X200236592Y-94671358D01*
X200236629Y-94671683D01*
X200329684Y-95512361D01*
X200329818Y-95513712D01*
X200385317Y-96139070D01*
X200385196Y-96139080D01*
X200385346Y-96139386D01*
X200456056Y-96984825D01*
X200456155Y-96986189D01*
X200494636Y-97610466D01*
X200494654Y-97610773D01*
X200542817Y-98460146D01*
X200542880Y-98461521D01*
X200564438Y-99084087D01*
X200564447Y-99084385D01*
X200589909Y-99937279D01*
X200589935Y-99938665D01*
X200594685Y-100558470D01*
X200594567Y-100558470D01*
X200594688Y-100558759D01*
X200597295Y-101415183D01*
X200597283Y-101416578D01*
X200585389Y-102033206D01*
X200585383Y-102033486D01*
X200564968Y-102892736D01*
X200564919Y-102894140D01*
X200536573Y-103506753D01*
X200536560Y-103507022D01*
X200492954Y-104368867D01*
X200492867Y-104370279D01*
X200448273Y-104978491D01*
X200448253Y-104978751D01*
X200381305Y-105842537D01*
X200381179Y-105843955D01*
X200320588Y-106446999D01*
X200320562Y-106447249D01*
X200230100Y-107312674D01*
X200229935Y-107314098D01*
X200153680Y-107910883D01*
X200153649Y-107911122D01*
X200039437Y-108778298D01*
X200039232Y-108779726D01*
X199947647Y-109369575D01*
X199947611Y-109369804D01*
X199809477Y-110238184D01*
X199809232Y-110239616D01*
X199702637Y-110822127D01*
X199702597Y-110822346D01*
X199540372Y-111691370D01*
X199540087Y-111692804D01*
X199418924Y-112267069D01*
X199418879Y-112267277D01*
X199232306Y-113136867D01*
X199231981Y-113138302D01*
X199096831Y-113703050D01*
X199096783Y-113703248D01*
X198885521Y-114573523D01*
X198885155Y-114574958D01*
X198736468Y-115129771D01*
X198736417Y-115129958D01*
X198500270Y-116000309D01*
X198499863Y-116001743D01*
X198338335Y-116545432D01*
X198338282Y-116545609D01*
X198076790Y-117416331D01*
X198076341Y-117417762D01*
X197902767Y-117949103D01*
X197902713Y-117949269D01*
X197615433Y-118820405D01*
X197614943Y-118821833D01*
X197430100Y-119339935D01*
X197430044Y-119340090D01*
X197116510Y-120211599D01*
X197115978Y-120213022D01*
X196920937Y-120716413D01*
X196920881Y-120716559D01*
X196580391Y-121588869D01*
X196579818Y-121590285D01*
X196375665Y-122077775D01*
X196375608Y-122077911D01*
X196007464Y-122951229D01*
X196006849Y-122952638D01*
X195794893Y-123422782D01*
X195794837Y-123422907D01*
X195398111Y-124297760D01*
X195397454Y-124299161D01*
X195179495Y-124749798D01*
X195179440Y-124749913D01*
X194752842Y-125627339D01*
X194752144Y-125628730D01*
X194529902Y-126058293D01*
X194529847Y-126058399D01*
X194072051Y-126939163D01*
X194071312Y-126940543D01*
X193847431Y-127346106D01*
X193847378Y-127346201D01*
X193356250Y-128232232D01*
X193355469Y-128233600D01*
X193133058Y-128612027D01*
X193133007Y-128612113D01*
X192605989Y-129505560D01*
X192605167Y-129506915D01*
X192387994Y-129854625D01*
X192387946Y-129854701D01*
X191821752Y-130758321D01*
X191820888Y-130759661D01*
X191614486Y-131071119D01*
X191614442Y-131071186D01*
X191004150Y-131989538D01*
X191003245Y-131990863D01*
X190815064Y-132258853D01*
X190815023Y-132258911D01*
X190153771Y-133198329D01*
X190152826Y-133199636D01*
X189993065Y-133414595D01*
X189271213Y-134383844D01*
X189270227Y-134385133D01*
X189155161Y-134531543D01*
X189095698Y-134607072D01*
X188357076Y-135545270D01*
X188356050Y-135546538D01*
X188313180Y-135598161D01*
X188313152Y-135598195D01*
X187413631Y-136679829D01*
X187412543Y-136681103D01*
X186441157Y-137787454D01*
X186440035Y-137788697D01*
X185439386Y-138868582D01*
X185438231Y-138869795D01*
X184409008Y-139922479D01*
X184407821Y-139923661D01*
X183368470Y-140931219D01*
X183324968Y-140948844D01*
X107876016Y-140948844D01*
X107832514Y-140931219D01*
X106793162Y-139923661D01*
X106791975Y-139922479D01*
X105762752Y-138869795D01*
X105761597Y-138868582D01*
X105268124Y-138336033D01*
X104760918Y-137788664D01*
X104759854Y-137787485D01*
X103788436Y-136681098D01*
X103787352Y-136679829D01*
X103322476Y-136120836D01*
X102887463Y-135597752D01*
X102844919Y-135546523D01*
X102843906Y-135545270D01*
X102622465Y-135263995D01*
X102045627Y-134531295D01*
X101930741Y-134385115D01*
X101929769Y-134383844D01*
X101207839Y-133414488D01*
X101048154Y-133199633D01*
X101047211Y-133198329D01*
X100749749Y-132775735D01*
X100385848Y-132258752D01*
X100357634Y-132218573D01*
X100197728Y-131990850D01*
X100196832Y-131989538D01*
X100176202Y-131958495D01*
X99610117Y-131106663D01*
X113099992Y-131106663D01*
X113139426Y-131418818D01*
X113217671Y-131723565D01*
X113333498Y-132016110D01*
X113466979Y-132258911D01*
X113485076Y-132291828D01*
X113670014Y-132546374D01*
X113670016Y-132546376D01*
X113885399Y-132775735D01*
X114127826Y-132976289D01*
X114127828Y-132976290D01*
X114127829Y-132976291D01*
X114393485Y-133144881D01*
X114678177Y-133278847D01*
X114977413Y-133376075D01*
X115286477Y-133435032D01*
X115521909Y-133449844D01*
X115679070Y-133449844D01*
X115679075Y-133449844D01*
X115914507Y-133435032D01*
X116223571Y-133376075D01*
X116522807Y-133278847D01*
X116807499Y-133144881D01*
X117073155Y-132976291D01*
X117315586Y-132775734D01*
X117530970Y-132546374D01*
X117715908Y-132291828D01*
X117867486Y-132016110D01*
X117983311Y-131723569D01*
X118061558Y-131418817D01*
X118086481Y-131221532D01*
X158199992Y-131221532D01*
X158214818Y-131362601D01*
X158273312Y-131542626D01*
X158367960Y-131706562D01*
X158426660Y-131771754D01*
X158494621Y-131847232D01*
X158647762Y-131958495D01*
X158820689Y-132035488D01*
X158944126Y-132061725D01*
X159005845Y-132074844D01*
X159005846Y-132074844D01*
X159195138Y-132074844D01*
X159195139Y-132074844D01*
X159241427Y-132065004D01*
X159380295Y-132035488D01*
X159553222Y-131958495D01*
X159706363Y-131847232D01*
X159833025Y-131706560D01*
X159927671Y-131542628D01*
X159935871Y-131517389D01*
X159958937Y-131485879D01*
X159996204Y-131474209D01*
X160033123Y-131486938D01*
X160055280Y-131519095D01*
X160074641Y-131585032D01*
X160170902Y-131771754D01*
X160300762Y-131936883D01*
X160459525Y-132074452D01*
X160641456Y-132179490D01*
X160839977Y-132248199D01*
X160850492Y-132249711D01*
X160850492Y-127653085D01*
X160739080Y-127680114D01*
X160547992Y-127767380D01*
X160376866Y-127889239D01*
X160231899Y-128041275D01*
X160118326Y-128217999D01*
X160104423Y-128252727D01*
X160081364Y-128281302D01*
X160046238Y-128291997D01*
X160011168Y-128281120D01*
X159988258Y-128252426D01*
X159934853Y-128117001D01*
X159843414Y-127996421D01*
X159722834Y-127904982D01*
X159582056Y-127849466D01*
X159493595Y-127838844D01*
X159493594Y-127838844D01*
X158707390Y-127838844D01*
X158707389Y-127838844D01*
X158618927Y-127849466D01*
X158478149Y-127904982D01*
X158357569Y-127996421D01*
X158266130Y-128117001D01*
X158210614Y-128257779D01*
X158199992Y-128346241D01*
X158199992Y-129552447D01*
X158210614Y-129640908D01*
X158266130Y-129781686D01*
X158357569Y-129902266D01*
X158464656Y-129983472D01*
X158485154Y-130010653D01*
X158488366Y-130044545D01*
X158473338Y-130075093D01*
X158367958Y-130192128D01*
X158273312Y-130356061D01*
X158214818Y-130536086D01*
X158199992Y-130677156D01*
X158199992Y-131221532D01*
X118086481Y-131221532D01*
X118100992Y-131106662D01*
X118100992Y-130792026D01*
X118061558Y-130479871D01*
X117987678Y-130192128D01*
X117983312Y-130175122D01*
X117983311Y-130175119D01*
X117867486Y-129882578D01*
X117715908Y-129606860D01*
X117671923Y-129546320D01*
X124029067Y-129546320D01*
X124107459Y-129601210D01*
X124317585Y-129699193D01*
X124541528Y-129759198D01*
X124772492Y-129779405D01*
X125003455Y-129759198D01*
X125227398Y-129699193D01*
X125437520Y-129601211D01*
X125515914Y-129546319D01*
X124772492Y-128802897D01*
X124029067Y-129546320D01*
X117671923Y-129546320D01*
X117530970Y-129352314D01*
X117315586Y-129122954D01*
X117305217Y-129114376D01*
X117073157Y-128922398D01*
X116971150Y-128857663D01*
X116807499Y-128753807D01*
X116522807Y-128619841D01*
X116522805Y-128619840D01*
X116223570Y-128522612D01*
X115914509Y-128463656D01*
X115847240Y-128459424D01*
X115687006Y-128449343D01*
X123442430Y-128449343D01*
X123462637Y-128680307D01*
X123522642Y-128904250D01*
X123620625Y-129114376D01*
X123675514Y-129192767D01*
X124418939Y-128449344D01*
X125126045Y-128449344D01*
X125869467Y-129192766D01*
X125924359Y-129114372D01*
X126022341Y-128904250D01*
X126083762Y-128675025D01*
X126084686Y-128675272D01*
X126100238Y-128641744D01*
X126138676Y-128623545D01*
X126179860Y-128634154D01*
X126204721Y-128668659D01*
X126242916Y-128802897D01*
X126258498Y-128857663D01*
X126351473Y-129044382D01*
X126477174Y-129210837D01*
X126631321Y-129351360D01*
X126808664Y-129461167D01*
X127003165Y-129536517D01*
X127208199Y-129574844D01*
X127416784Y-129574844D01*
X127416785Y-129574844D01*
X127621819Y-129536517D01*
X127816320Y-129461167D01*
X127993663Y-129351360D01*
X128147810Y-129210837D01*
X128273511Y-129044382D01*
X128366486Y-128857663D01*
X128423568Y-128657040D01*
X128442814Y-128449344D01*
X128442814Y-128449343D01*
X137104169Y-128449343D01*
X137123415Y-128657038D01*
X137164916Y-128802897D01*
X137180498Y-128857663D01*
X137273473Y-129044382D01*
X137399174Y-129210837D01*
X137553321Y-129351360D01*
X137730664Y-129461167D01*
X137925165Y-129536517D01*
X138130199Y-129574844D01*
X138338784Y-129574844D01*
X138338785Y-129574844D01*
X138543819Y-129536517D01*
X138738320Y-129461167D01*
X138915663Y-129351360D01*
X139069810Y-129210837D01*
X139195511Y-129044382D01*
X139288486Y-128857663D01*
X139345568Y-128657040D01*
X139364814Y-128449344D01*
X139364814Y-128449343D01*
X139644169Y-128449343D01*
X139663415Y-128657038D01*
X139704916Y-128802897D01*
X139720498Y-128857663D01*
X139813473Y-129044382D01*
X139939174Y-129210837D01*
X140093321Y-129351360D01*
X140270664Y-129461167D01*
X140465165Y-129536517D01*
X140670199Y-129574844D01*
X140878784Y-129574844D01*
X140878785Y-129574844D01*
X141031377Y-129546320D01*
X149556067Y-129546320D01*
X149634459Y-129601210D01*
X149844585Y-129699193D01*
X150068528Y-129759198D01*
X150299492Y-129779405D01*
X150530455Y-129759198D01*
X150754398Y-129699193D01*
X150964520Y-129601211D01*
X151042914Y-129546319D01*
X150299492Y-128802897D01*
X149556067Y-129546320D01*
X141031377Y-129546320D01*
X141083819Y-129536517D01*
X141278320Y-129461167D01*
X141455663Y-129351360D01*
X141609810Y-129210837D01*
X141735511Y-129044382D01*
X141828486Y-128857663D01*
X141885568Y-128657040D01*
X141904814Y-128449344D01*
X141904814Y-128449343D01*
X148969430Y-128449343D01*
X148989637Y-128680307D01*
X149049642Y-128904250D01*
X149147625Y-129114376D01*
X149202514Y-129192767D01*
X149945939Y-128449344D01*
X150653045Y-128449344D01*
X151396467Y-129192766D01*
X151451359Y-129114372D01*
X151549341Y-128904250D01*
X151610762Y-128675025D01*
X151611686Y-128675272D01*
X151627238Y-128641744D01*
X151665676Y-128623545D01*
X151706860Y-128634154D01*
X151731721Y-128668659D01*
X151769916Y-128802897D01*
X151785498Y-128857663D01*
X151878473Y-129044382D01*
X152004174Y-129210837D01*
X152158321Y-129351360D01*
X152335664Y-129461167D01*
X152530165Y-129536517D01*
X152735199Y-129574844D01*
X152943784Y-129574844D01*
X152943785Y-129574844D01*
X153148819Y-129536517D01*
X153343320Y-129461167D01*
X153520663Y-129351360D01*
X153674810Y-129210837D01*
X153800511Y-129044382D01*
X153893486Y-128857663D01*
X153950568Y-128657040D01*
X153969814Y-128449344D01*
X153963350Y-128379592D01*
X153955234Y-128291997D01*
X153950568Y-128241648D01*
X153893486Y-128041025D01*
X153800511Y-127854306D01*
X153674810Y-127687851D01*
X153632167Y-127648977D01*
X161350492Y-127648977D01*
X161350492Y-132245602D01*
X161461903Y-132218573D01*
X161652991Y-132131307D01*
X161824117Y-132009448D01*
X161969084Y-131857412D01*
X162082658Y-131680687D01*
X162148523Y-131516165D01*
X162172381Y-131487058D01*
X162208628Y-131476929D01*
X162244120Y-131489450D01*
X162265986Y-131520080D01*
X162273313Y-131542628D01*
X162297795Y-131585032D01*
X162367960Y-131706562D01*
X162426660Y-131771754D01*
X162494621Y-131847232D01*
X162647762Y-131958495D01*
X162820689Y-132035488D01*
X162944126Y-132061725D01*
X163005845Y-132074844D01*
X163005846Y-132074844D01*
X163195138Y-132074844D01*
X163195139Y-132074844D01*
X163241427Y-132065004D01*
X163380295Y-132035488D01*
X163553222Y-131958495D01*
X163706363Y-131847232D01*
X163833025Y-131706560D01*
X163927671Y-131542628D01*
X163986166Y-131362600D01*
X164000992Y-131221536D01*
X164000992Y-131221532D01*
X164199992Y-131221532D01*
X164214818Y-131362601D01*
X164273312Y-131542626D01*
X164367960Y-131706562D01*
X164426660Y-131771754D01*
X164494621Y-131847232D01*
X164647762Y-131958495D01*
X164820689Y-132035488D01*
X164944126Y-132061725D01*
X165005845Y-132074844D01*
X165005846Y-132074844D01*
X165195138Y-132074844D01*
X165195139Y-132074844D01*
X165241427Y-132065004D01*
X165380295Y-132035488D01*
X165553222Y-131958495D01*
X165706363Y-131847232D01*
X165833025Y-131706560D01*
X165927671Y-131542628D01*
X165986166Y-131362600D01*
X166000992Y-131221536D01*
X166000992Y-131106663D01*
X173099992Y-131106663D01*
X173139426Y-131418818D01*
X173217671Y-131723565D01*
X173333498Y-132016110D01*
X173466979Y-132258911D01*
X173485076Y-132291828D01*
X173670014Y-132546374D01*
X173670016Y-132546376D01*
X173885399Y-132775735D01*
X174127826Y-132976289D01*
X174127828Y-132976290D01*
X174127829Y-132976291D01*
X174393485Y-133144881D01*
X174678177Y-133278847D01*
X174977413Y-133376075D01*
X175286477Y-133435032D01*
X175521909Y-133449844D01*
X175679070Y-133449844D01*
X175679075Y-133449844D01*
X175914507Y-133435032D01*
X176223571Y-133376075D01*
X176522807Y-133278847D01*
X176807499Y-133144881D01*
X177073155Y-132976291D01*
X177315586Y-132775734D01*
X177530970Y-132546374D01*
X177715908Y-132291828D01*
X177867486Y-132016110D01*
X177983311Y-131723569D01*
X178061558Y-131418817D01*
X178100992Y-131106662D01*
X178100992Y-130792026D01*
X178061558Y-130479871D01*
X177987678Y-130192128D01*
X177983312Y-130175122D01*
X177983311Y-130175119D01*
X177867486Y-129882578D01*
X177715908Y-129606860D01*
X177530970Y-129352314D01*
X177315586Y-129122954D01*
X177305217Y-129114376D01*
X177073157Y-128922398D01*
X176971150Y-128857663D01*
X176807499Y-128753807D01*
X176522807Y-128619841D01*
X176522805Y-128619840D01*
X176223570Y-128522612D01*
X175914509Y-128463656D01*
X175847240Y-128459424D01*
X175679075Y-128448844D01*
X175521909Y-128448844D01*
X175374763Y-128458101D01*
X175286474Y-128463656D01*
X174977413Y-128522612D01*
X174678178Y-128619840D01*
X174549680Y-128680307D01*
X174393485Y-128753807D01*
X174283901Y-128823350D01*
X174127826Y-128922398D01*
X173885399Y-129122952D01*
X173670016Y-129352311D01*
X173485073Y-129606864D01*
X173333498Y-129882577D01*
X173217671Y-130175122D01*
X173139426Y-130479869D01*
X173099992Y-130792025D01*
X173099992Y-131106663D01*
X166000992Y-131106663D01*
X166000992Y-130677152D01*
X165986166Y-130536088D01*
X165927671Y-130356060D01*
X165833025Y-130192128D01*
X165833024Y-130192127D01*
X165833023Y-130192125D01*
X165774323Y-130126933D01*
X165706363Y-130051456D01*
X165635411Y-129999906D01*
X165612707Y-129968658D01*
X165612707Y-129930030D01*
X165635411Y-129898781D01*
X165706363Y-129847232D01*
X165833025Y-129706560D01*
X165927671Y-129542628D01*
X165986166Y-129362600D01*
X166000992Y-129221536D01*
X166000992Y-128677152D01*
X165986166Y-128536088D01*
X165927671Y-128356060D01*
X165833025Y-128192128D01*
X165833024Y-128192127D01*
X165833023Y-128192125D01*
X165765380Y-128117001D01*
X165706363Y-128051456D01*
X165553222Y-127940193D01*
X165380295Y-127863200D01*
X165380293Y-127863199D01*
X165380292Y-127863199D01*
X165195139Y-127823844D01*
X165195138Y-127823844D01*
X165005846Y-127823844D01*
X165005845Y-127823844D01*
X164820691Y-127863199D01*
X164647763Y-127940192D01*
X164647761Y-127940193D01*
X164647762Y-127940193D01*
X164494621Y-128051456D01*
X164494618Y-128051458D01*
X164494618Y-128051459D01*
X164367960Y-128192125D01*
X164273312Y-128356061D01*
X164214818Y-128536086D01*
X164214817Y-128536088D01*
X164214818Y-128536088D01*
X164203714Y-128641744D01*
X164199992Y-128677156D01*
X164199992Y-129221532D01*
X164214818Y-129362601D01*
X164264714Y-129516165D01*
X164273313Y-129542628D01*
X164278982Y-129552447D01*
X164367960Y-129706562D01*
X164426660Y-129771754D01*
X164494621Y-129847232D01*
X164534772Y-129876403D01*
X164565571Y-129898781D01*
X164588275Y-129930031D01*
X164588275Y-129968657D01*
X164565571Y-129999907D01*
X164494621Y-130051456D01*
X164367960Y-130192125D01*
X164273312Y-130356061D01*
X164214818Y-130536086D01*
X164199992Y-130677156D01*
X164199992Y-131221532D01*
X164000992Y-131221532D01*
X164000992Y-130677152D01*
X163986166Y-130536088D01*
X163927671Y-130356060D01*
X163833025Y-130192128D01*
X163833024Y-130192127D01*
X163833023Y-130192125D01*
X163774323Y-130126933D01*
X163706363Y-130051456D01*
X163635411Y-129999906D01*
X163612707Y-129968658D01*
X163612707Y-129930030D01*
X163635411Y-129898781D01*
X163706363Y-129847232D01*
X163833025Y-129706560D01*
X163927671Y-129542628D01*
X163986166Y-129362600D01*
X164000992Y-129221536D01*
X164000992Y-128677152D01*
X163986166Y-128536088D01*
X163927671Y-128356060D01*
X163833025Y-128192128D01*
X163833024Y-128192127D01*
X163833023Y-128192125D01*
X163765380Y-128117001D01*
X163706363Y-128051456D01*
X163553222Y-127940193D01*
X163380295Y-127863200D01*
X163380293Y-127863199D01*
X163380292Y-127863199D01*
X163195139Y-127823844D01*
X163195138Y-127823844D01*
X163005846Y-127823844D01*
X163005845Y-127823844D01*
X162820691Y-127863199D01*
X162647763Y-127940192D01*
X162647761Y-127940193D01*
X162647762Y-127940193D01*
X162494621Y-128051456D01*
X162494618Y-128051458D01*
X162494618Y-128051459D01*
X162367960Y-128192125D01*
X162273313Y-128356060D01*
X162265112Y-128381299D01*
X162242045Y-128412809D01*
X162204778Y-128424478D01*
X162167859Y-128411749D01*
X162145703Y-128379592D01*
X162126342Y-128313654D01*
X162030081Y-128126933D01*
X161900221Y-127961804D01*
X161741458Y-127824235D01*
X161559527Y-127719197D01*
X161361006Y-127650488D01*
X161350492Y-127648977D01*
X153632167Y-127648977D01*
X153520663Y-127547328D01*
X153343320Y-127437521D01*
X153343317Y-127437520D01*
X153343316Y-127437519D01*
X153148821Y-127362171D01*
X153012129Y-127336619D01*
X152943785Y-127323844D01*
X152735199Y-127323844D01*
X152683940Y-127333425D01*
X152530162Y-127362171D01*
X152335667Y-127437519D01*
X152158319Y-127547329D01*
X152004174Y-127687850D01*
X151878474Y-127854304D01*
X151878473Y-127854305D01*
X151878473Y-127854306D01*
X151807709Y-127996421D01*
X151785497Y-128041028D01*
X151731721Y-128230028D01*
X151706860Y-128264533D01*
X151665676Y-128275142D01*
X151627239Y-128256944D01*
X151611686Y-128223415D01*
X151610762Y-128223663D01*
X151549341Y-127994437D01*
X151451359Y-127784315D01*
X151396466Y-127705921D01*
X150653045Y-128449344D01*
X149945939Y-128449344D01*
X149202515Y-127705920D01*
X149147625Y-127784312D01*
X149049642Y-127994437D01*
X148989637Y-128218380D01*
X148969430Y-128449343D01*
X141904814Y-128449343D01*
X141898350Y-128379592D01*
X141890234Y-128291997D01*
X141885568Y-128241648D01*
X141828486Y-128041025D01*
X141735511Y-127854306D01*
X141609810Y-127687851D01*
X141455663Y-127547328D01*
X141278320Y-127437521D01*
X141278317Y-127437520D01*
X141278316Y-127437519D01*
X141083821Y-127362171D01*
X141031374Y-127352367D01*
X149556068Y-127352367D01*
X150299491Y-128095790D01*
X151042915Y-127352366D01*
X150964524Y-127297477D01*
X150754398Y-127199494D01*
X150530455Y-127139489D01*
X150299492Y-127119282D01*
X150068528Y-127139489D01*
X149844585Y-127199494D01*
X149634460Y-127297477D01*
X149556068Y-127352367D01*
X141031374Y-127352367D01*
X140947129Y-127336619D01*
X140878785Y-127323844D01*
X140670199Y-127323844D01*
X140618940Y-127333425D01*
X140465162Y-127362171D01*
X140270667Y-127437519D01*
X140093319Y-127547329D01*
X139939174Y-127687850D01*
X139813474Y-127854304D01*
X139720497Y-128041027D01*
X139663415Y-128241649D01*
X139644169Y-128449343D01*
X139364814Y-128449343D01*
X139358350Y-128379592D01*
X139350234Y-128291997D01*
X139345568Y-128241648D01*
X139288486Y-128041025D01*
X139195511Y-127854306D01*
X139069810Y-127687851D01*
X138915663Y-127547328D01*
X138738320Y-127437521D01*
X138738317Y-127437520D01*
X138738316Y-127437519D01*
X138543821Y-127362171D01*
X138407129Y-127336619D01*
X138338785Y-127323844D01*
X138130199Y-127323844D01*
X138078940Y-127333425D01*
X137925162Y-127362171D01*
X137730667Y-127437519D01*
X137553319Y-127547329D01*
X137399174Y-127687850D01*
X137273474Y-127854304D01*
X137180497Y-128041027D01*
X137123415Y-128241649D01*
X137104169Y-128449343D01*
X128442814Y-128449343D01*
X128436350Y-128379592D01*
X128428234Y-128291997D01*
X128423568Y-128241648D01*
X128366486Y-128041025D01*
X128273511Y-127854306D01*
X128147810Y-127687851D01*
X127993663Y-127547328D01*
X127816320Y-127437521D01*
X127816317Y-127437520D01*
X127816316Y-127437519D01*
X127621821Y-127362171D01*
X127485129Y-127336619D01*
X127416785Y-127323844D01*
X127208199Y-127323844D01*
X127156940Y-127333425D01*
X127003162Y-127362171D01*
X126808667Y-127437519D01*
X126631319Y-127547329D01*
X126477174Y-127687850D01*
X126351474Y-127854304D01*
X126351473Y-127854305D01*
X126351473Y-127854306D01*
X126280709Y-127996421D01*
X126258497Y-128041028D01*
X126204721Y-128230028D01*
X126179860Y-128264533D01*
X126138676Y-128275142D01*
X126100239Y-128256944D01*
X126084686Y-128223415D01*
X126083762Y-128223663D01*
X126022341Y-127994437D01*
X125924359Y-127784315D01*
X125869466Y-127705921D01*
X125126045Y-128449344D01*
X124418939Y-128449344D01*
X123675515Y-127705920D01*
X123620625Y-127784312D01*
X123522642Y-127994437D01*
X123462637Y-128218380D01*
X123442430Y-128449343D01*
X115687006Y-128449343D01*
X115679075Y-128448844D01*
X115521909Y-128448844D01*
X115374763Y-128458101D01*
X115286474Y-128463656D01*
X114977413Y-128522612D01*
X114678178Y-128619840D01*
X114549680Y-128680307D01*
X114393485Y-128753807D01*
X114283901Y-128823350D01*
X114127826Y-128922398D01*
X113885399Y-129122952D01*
X113670016Y-129352311D01*
X113485073Y-129606864D01*
X113333498Y-129882577D01*
X113217671Y-130175122D01*
X113139426Y-130479869D01*
X113099992Y-130792025D01*
X113099992Y-131106663D01*
X99610117Y-131106663D01*
X99586541Y-131071186D01*
X99586497Y-131071120D01*
X99576977Y-131056754D01*
X99380065Y-130759617D01*
X99379230Y-130758321D01*
X99328373Y-130677156D01*
X98812845Y-129854395D01*
X98808371Y-129847231D01*
X98595780Y-129506858D01*
X98595031Y-129505623D01*
X98067847Y-128611894D01*
X97845500Y-128233578D01*
X97844732Y-128232232D01*
X97843510Y-128230028D01*
X97357023Y-127352367D01*
X124029068Y-127352367D01*
X124772491Y-128095790D01*
X125515915Y-127352366D01*
X125437524Y-127297477D01*
X125227398Y-127199494D01*
X125003455Y-127139489D01*
X124772492Y-127119282D01*
X124541528Y-127139489D01*
X124317585Y-127199494D01*
X124107460Y-127297477D01*
X124029068Y-127352367D01*
X97357023Y-127352367D01*
X97353443Y-127345908D01*
X97341263Y-127323844D01*
X97129637Y-126940481D01*
X97128965Y-126939227D01*
X96728766Y-126169275D01*
X96671136Y-126058399D01*
X96671081Y-126058294D01*
X96670929Y-126058002D01*
X96448831Y-125628718D01*
X96448140Y-125627339D01*
X96406085Y-125540840D01*
X96021487Y-124749798D01*
X95803500Y-124299102D01*
X95802897Y-124297816D01*
X95761886Y-124207379D01*
X138668221Y-124207379D01*
X138679060Y-124264659D01*
X138679452Y-124266964D01*
X138688143Y-124324631D01*
X138688301Y-124324958D01*
X138693400Y-124340452D01*
X138693468Y-124340815D01*
X138720712Y-124392363D01*
X138721765Y-124394448D01*
X138747067Y-124446987D01*
X138747318Y-124447257D01*
X138756750Y-124460549D01*
X138756926Y-124460882D01*
X138798149Y-124502105D01*
X138799771Y-124503788D01*
X138839437Y-124546538D01*
X138839751Y-124546719D01*
X138852697Y-124556653D01*
X139836884Y-125540840D01*
X139848743Y-125557387D01*
X140126119Y-126119750D01*
X140126120Y-126119751D01*
X140135418Y-126134844D01*
X140140643Y-126145462D01*
X140149674Y-126169275D01*
X140149675Y-126169276D01*
X140246309Y-126309273D01*
X140373640Y-126422078D01*
X140524267Y-126501134D01*
X140689436Y-126541844D01*
X140859548Y-126541844D01*
X141024717Y-126501134D01*
X141175344Y-126422078D01*
X141302675Y-126309273D01*
X141399310Y-126169274D01*
X141459632Y-126010216D01*
X141459632Y-126010215D01*
X141459633Y-126010213D01*
X141480137Y-125841343D01*
X141459633Y-125672474D01*
X141399309Y-125513411D01*
X141302675Y-125373415D01*
X141301081Y-125372003D01*
X141175344Y-125260610D01*
X141091766Y-125216744D01*
X141088043Y-125214623D01*
X141052898Y-125192971D01*
X140983218Y-125158603D01*
X140905307Y-125120174D01*
X140878169Y-125094203D01*
X140870820Y-125057366D01*
X140885913Y-125022970D01*
X140917994Y-125003438D01*
X141024717Y-124977134D01*
X141175344Y-124898078D01*
X141228415Y-124851060D01*
X141231735Y-124848319D01*
X141274161Y-124815696D01*
X141582433Y-124527643D01*
X141625104Y-124510810D01*
X155013000Y-124510810D01*
X155057194Y-124529116D01*
X155750602Y-125222523D01*
X155755264Y-125227739D01*
X155772745Y-125249659D01*
X155779648Y-125258315D01*
X155783016Y-125260611D01*
X155827456Y-125290910D01*
X155827841Y-125291172D01*
X155829717Y-125292503D01*
X155876644Y-125327137D01*
X155876980Y-125327254D01*
X155891547Y-125334607D01*
X155891853Y-125334816D01*
X155936874Y-125348702D01*
X155947581Y-125352005D01*
X155949802Y-125352736D01*
X155959028Y-125355964D01*
X156004827Y-125371990D01*
X156005185Y-125372003D01*
X156021272Y-125374735D01*
X156021624Y-125374844D01*
X156079923Y-125374844D01*
X156082261Y-125374888D01*
X156140533Y-125377069D01*
X156140533Y-125377068D01*
X156140536Y-125377069D01*
X156140891Y-125376973D01*
X156157068Y-125374844D01*
X162346681Y-125374844D01*
X162353679Y-125375237D01*
X162392527Y-125379614D01*
X162449853Y-125368766D01*
X162452103Y-125368384D01*
X162487136Y-125363104D01*
X162509774Y-125359693D01*
X162509774Y-125359692D01*
X162509779Y-125359692D01*
X162510097Y-125359538D01*
X162525611Y-125354434D01*
X162525964Y-125354367D01*
X162530433Y-125352005D01*
X162577551Y-125327101D01*
X162579578Y-125326077D01*
X162632134Y-125300769D01*
X162632401Y-125300520D01*
X162645709Y-125291080D01*
X162645793Y-125291035D01*
X162646030Y-125290910D01*
X162687280Y-125249658D01*
X162688935Y-125248064D01*
X162731686Y-125208399D01*
X162731868Y-125208083D01*
X162741799Y-125195139D01*
X168737593Y-119199344D01*
X173420107Y-119199344D01*
X173439616Y-119434778D01*
X173497609Y-119663789D01*
X173550880Y-119785235D01*
X173592506Y-119880133D01*
X173721716Y-120077904D01*
X173721717Y-120077905D01*
X173881719Y-120251712D01*
X174068146Y-120396814D01*
X174275913Y-120509252D01*
X174499353Y-120585960D01*
X174732372Y-120624844D01*
X174968610Y-120624844D01*
X174968612Y-120624844D01*
X175201631Y-120585960D01*
X175425071Y-120509252D01*
X175632838Y-120396814D01*
X175819265Y-120251712D01*
X175979267Y-120077905D01*
X176108478Y-119880132D01*
X176203375Y-119663789D01*
X176261368Y-119434778D01*
X176280877Y-119199344D01*
X176261368Y-118963910D01*
X176203375Y-118734899D01*
X176108478Y-118518556D01*
X175979267Y-118320783D01*
X175819265Y-118146976D01*
X175632838Y-118001874D01*
X175425071Y-117889436D01*
X175201631Y-117812728D01*
X174968612Y-117773844D01*
X174732372Y-117773844D01*
X174499352Y-117812728D01*
X174499353Y-117812728D01*
X174275910Y-117889437D01*
X174068144Y-118001875D01*
X173881721Y-118146974D01*
X173721716Y-118320783D01*
X173592506Y-118518554D01*
X173509255Y-118708347D01*
X173497609Y-118734899D01*
X173439616Y-118963910D01*
X173420107Y-119199344D01*
X168737593Y-119199344D01*
X170299992Y-117636945D01*
X170316533Y-117625091D01*
X170878898Y-117347716D01*
X170914049Y-117326059D01*
X170917763Y-117323944D01*
X171001344Y-117280078D01*
X171128675Y-117167273D01*
X171225310Y-117027274D01*
X171285632Y-116868216D01*
X171285632Y-116868215D01*
X171285633Y-116868213D01*
X171306137Y-116699344D01*
X171285633Y-116530474D01*
X171225309Y-116371411D01*
X171128675Y-116231415D01*
X171001345Y-116118611D01*
X171001344Y-116118610D01*
X170892463Y-116061464D01*
X170850716Y-116039553D01*
X170685548Y-115998844D01*
X170515436Y-115998844D01*
X170350267Y-116039553D01*
X170199638Y-116118611D01*
X170072308Y-116231415D01*
X169975675Y-116371411D01*
X169966644Y-116395222D01*
X169961421Y-116405836D01*
X169952119Y-116420936D01*
X169851072Y-116625801D01*
X169674742Y-116983301D01*
X169662883Y-116999848D01*
X162207195Y-124455538D01*
X162186919Y-124469086D01*
X162163001Y-124473844D01*
X157837406Y-124473844D01*
X157793825Y-124456143D01*
X157774930Y-124413066D01*
X157791423Y-124369014D01*
X157814589Y-124343849D01*
X157829267Y-124327905D01*
X157958478Y-124130132D01*
X158053375Y-123913789D01*
X158111368Y-123684778D01*
X158130877Y-123449344D01*
X158111368Y-123213910D01*
X158053375Y-122984899D01*
X157958478Y-122768556D01*
X157829267Y-122570783D01*
X157669265Y-122396976D01*
X157482838Y-122251874D01*
X157275071Y-122139436D01*
X157051631Y-122062728D01*
X156818612Y-122023844D01*
X156582372Y-122023844D01*
X156349353Y-122062727D01*
X156349353Y-122062728D01*
X156125910Y-122139437D01*
X155918144Y-122251875D01*
X155731721Y-122396974D01*
X155571716Y-122570783D01*
X155442506Y-122768554D01*
X155347610Y-122984897D01*
X155289616Y-123213910D01*
X155270107Y-123449344D01*
X155277736Y-123541414D01*
X155270859Y-123575489D01*
X155246841Y-123600620D01*
X155213112Y-123609031D01*
X155174483Y-123607585D01*
X155174134Y-123607679D01*
X155157954Y-123609810D01*
X141503292Y-123609810D01*
X141495706Y-123609348D01*
X141459694Y-123604944D01*
X141459693Y-123604944D01*
X141452861Y-123605012D01*
X141053976Y-123609019D01*
X141046351Y-123608629D01*
X141014491Y-123605039D01*
X140995509Y-123608630D01*
X140984521Y-123609716D01*
X140782968Y-123611742D01*
X140747156Y-123615606D01*
X140739030Y-123616483D01*
X140732328Y-123616844D01*
X140689436Y-123616844D01*
X140524267Y-123657553D01*
X140373638Y-123736611D01*
X140246308Y-123849415D01*
X140149674Y-123989411D01*
X140089350Y-124148474D01*
X140068846Y-124317345D01*
X140072064Y-124343849D01*
X140064915Y-124381260D01*
X140037380Y-124407574D01*
X139999683Y-124413020D01*
X139965826Y-124395575D01*
X139592298Y-124022047D01*
X139573992Y-123977853D01*
X139573992Y-121888836D01*
X139592298Y-121844642D01*
X140099524Y-121337416D01*
X143674992Y-117761945D01*
X143691533Y-117750091D01*
X144253898Y-117472716D01*
X144289049Y-117451059D01*
X144292763Y-117448944D01*
X144376344Y-117405078D01*
X144503675Y-117292273D01*
X144565968Y-117202025D01*
X144600309Y-117152276D01*
X144616987Y-117108301D01*
X144654516Y-117009343D01*
X156334846Y-117009343D01*
X156355350Y-117178213D01*
X156415674Y-117337276D01*
X156512308Y-117477272D01*
X156512309Y-117477273D01*
X156639640Y-117590078D01*
X156790267Y-117669134D01*
X156955436Y-117709844D01*
X157125548Y-117709844D01*
X157290717Y-117669134D01*
X157290722Y-117669131D01*
X157291737Y-117668881D01*
X157299439Y-117666003D01*
X157299310Y-117665621D01*
X157302088Y-117664677D01*
X157302097Y-117664676D01*
X157895883Y-117463158D01*
X157915969Y-117459844D01*
X164511681Y-117459844D01*
X164518679Y-117460237D01*
X164557527Y-117464614D01*
X164614853Y-117453766D01*
X164617103Y-117453384D01*
X164652136Y-117448104D01*
X164674774Y-117444693D01*
X164674774Y-117444692D01*
X164674779Y-117444692D01*
X164675097Y-117444538D01*
X164690611Y-117439434D01*
X164690964Y-117439367D01*
X164690963Y-117439367D01*
X164742551Y-117412101D01*
X164744578Y-117411077D01*
X164797134Y-117385769D01*
X164797401Y-117385520D01*
X164810709Y-117376080D01*
X164810793Y-117376035D01*
X164811030Y-117375910D01*
X164852279Y-117334659D01*
X164853934Y-117333065D01*
X164896686Y-117293399D01*
X164896868Y-117293083D01*
X164906799Y-117280139D01*
X166898678Y-115288259D01*
X166903877Y-115283612D01*
X166934462Y-115259223D01*
X166967330Y-115211013D01*
X166968653Y-115209148D01*
X167003285Y-115162226D01*
X167003402Y-115161889D01*
X167010757Y-115147319D01*
X167010964Y-115147017D01*
X167028170Y-115091232D01*
X167028875Y-115089089D01*
X167048138Y-115034043D01*
X167048151Y-115033683D01*
X167050885Y-115017592D01*
X167050992Y-115017245D01*
X167050992Y-114958931D01*
X167051036Y-114956593D01*
X167053216Y-114898335D01*
X167053123Y-114897986D01*
X167050992Y-114881806D01*
X167050992Y-114324823D01*
X167054307Y-114304737D01*
X167106874Y-114149844D01*
X167255824Y-113710948D01*
X167263881Y-113677031D01*
X167266243Y-113669339D01*
X167285632Y-113618216D01*
X167285632Y-113618215D01*
X167285633Y-113618213D01*
X167306137Y-113449344D01*
X167894846Y-113449344D01*
X167915350Y-113618213D01*
X167975674Y-113777276D01*
X168072308Y-113917272D01*
X168072309Y-113917273D01*
X168199640Y-114030078D01*
X168350267Y-114109134D01*
X168515436Y-114149844D01*
X168685548Y-114149844D01*
X168850717Y-114109134D01*
X169001344Y-114030078D01*
X169128675Y-113917273D01*
X169225310Y-113777274D01*
X169285632Y-113618216D01*
X169285632Y-113618215D01*
X169285633Y-113618213D01*
X169306137Y-113449344D01*
X169285633Y-113280474D01*
X169280320Y-113266467D01*
X169266247Y-113229360D01*
X169263880Y-113221650D01*
X169260321Y-113206669D01*
X169255824Y-113187739D01*
X169054306Y-112593950D01*
X169050992Y-112573865D01*
X169050992Y-103824823D01*
X169054307Y-103804737D01*
X169080053Y-103728874D01*
X169255824Y-103210948D01*
X169263881Y-103177031D01*
X169266243Y-103169339D01*
X169285632Y-103118216D01*
X169285632Y-103118215D01*
X169285633Y-103118213D01*
X169306137Y-102949344D01*
X169285633Y-102780474D01*
X169225309Y-102621411D01*
X169128675Y-102481415D01*
X169001345Y-102368611D01*
X169001344Y-102368610D01*
X168926030Y-102329082D01*
X168850716Y-102289553D01*
X168685548Y-102248844D01*
X168515436Y-102248844D01*
X168350267Y-102289553D01*
X168199638Y-102368611D01*
X168072308Y-102481415D01*
X167975674Y-102621411D01*
X167915350Y-102780474D01*
X167894846Y-102949344D01*
X167915350Y-103118213D01*
X167934733Y-103169321D01*
X167937101Y-103177035D01*
X167945157Y-103210942D01*
X168146677Y-103804738D01*
X168149992Y-103824824D01*
X168149992Y-112573864D01*
X168146677Y-112593950D01*
X167945157Y-113187746D01*
X167937102Y-113221649D01*
X167934734Y-113229363D01*
X167915351Y-113280473D01*
X167894846Y-113449344D01*
X167306137Y-113449344D01*
X167285633Y-113280474D01*
X167225309Y-113121411D01*
X167128675Y-112981415D01*
X167001345Y-112868611D01*
X167001344Y-112868610D01*
X166926030Y-112829081D01*
X166850716Y-112789553D01*
X166685548Y-112748844D01*
X166515436Y-112748844D01*
X166350267Y-112789553D01*
X166199638Y-112868611D01*
X166072308Y-112981415D01*
X165975674Y-113121411D01*
X165915350Y-113280474D01*
X165894846Y-113449344D01*
X165915350Y-113618213D01*
X165934733Y-113669321D01*
X165937100Y-113677034D01*
X165945159Y-113710949D01*
X166017937Y-113925395D01*
X166146677Y-114304738D01*
X166149992Y-114324824D01*
X166149992Y-114736852D01*
X166131686Y-114781046D01*
X164372195Y-116540538D01*
X164351919Y-116554086D01*
X164328001Y-116558844D01*
X157915971Y-116558844D01*
X157895885Y-116555529D01*
X157867618Y-116545936D01*
X157302095Y-116354011D01*
X157302090Y-116354009D01*
X157299315Y-116353068D01*
X157299439Y-116352700D01*
X157291704Y-116349797D01*
X157125548Y-116308844D01*
X156955436Y-116308844D01*
X156790267Y-116349553D01*
X156639638Y-116428611D01*
X156512308Y-116541415D01*
X156415674Y-116681411D01*
X156355350Y-116840474D01*
X156334846Y-117009343D01*
X144654516Y-117009343D01*
X144660632Y-116993216D01*
X144660632Y-116993215D01*
X144660633Y-116993213D01*
X144681137Y-116824343D01*
X144660633Y-116655474D01*
X144600309Y-116496411D01*
X144503675Y-116356415D01*
X144496205Y-116349797D01*
X144376344Y-116243610D01*
X144301030Y-116204081D01*
X144225716Y-116164553D01*
X144060548Y-116123844D01*
X143890436Y-116123844D01*
X143725267Y-116164553D01*
X143574638Y-116243611D01*
X143447308Y-116356415D01*
X143350675Y-116496411D01*
X143341644Y-116520222D01*
X143336421Y-116530836D01*
X143327119Y-116545936D01*
X143260297Y-116681414D01*
X143049742Y-117108301D01*
X143037883Y-117124848D01*
X138825315Y-121337416D01*
X138820091Y-121342085D01*
X138789521Y-121366465D01*
X138756677Y-121414637D01*
X138755326Y-121416542D01*
X138720697Y-121463463D01*
X138720577Y-121463808D01*
X138713232Y-121478359D01*
X138713020Y-121478669D01*
X138695832Y-121534392D01*
X138695102Y-121536611D01*
X138675845Y-121591644D01*
X138675832Y-121592016D01*
X138673101Y-121608088D01*
X138672992Y-121608441D01*
X138672992Y-121666757D01*
X138672948Y-121669095D01*
X138670767Y-121727352D01*
X138670861Y-121727702D01*
X138672992Y-121743882D01*
X138672992Y-124161533D01*
X138672599Y-124168531D01*
X138668221Y-124207379D01*
X95761886Y-124207379D01*
X95406090Y-123422782D01*
X95194096Y-122952553D01*
X95193554Y-122951311D01*
X94825318Y-122077775D01*
X94621140Y-121590227D01*
X94620615Y-121588930D01*
X94279971Y-120716224D01*
X94084987Y-120212978D01*
X94084489Y-120211645D01*
X93887393Y-119663790D01*
X93770939Y-119340090D01*
X93770883Y-119339935D01*
X93586039Y-118821833D01*
X93585549Y-118820405D01*
X93557351Y-118734899D01*
X93298262Y-117949245D01*
X93298216Y-117949103D01*
X93240964Y-117773844D01*
X93124628Y-117417721D01*
X93124204Y-117416371D01*
X92862649Y-116545432D01*
X92701094Y-116001658D01*
X92700739Y-116000406D01*
X92506251Y-115283596D01*
X92464566Y-115129958D01*
X92464515Y-115129771D01*
X92438765Y-115033686D01*
X92315815Y-114574912D01*
X92315473Y-114573572D01*
X92104135Y-113702984D01*
X91968987Y-113138240D01*
X91968691Y-113136934D01*
X91782029Y-112266929D01*
X91660895Y-111692804D01*
X91660610Y-111691370D01*
X91498346Y-110822127D01*
X91391733Y-110239519D01*
X91391522Y-110238284D01*
X91253336Y-109369575D01*
X91161737Y-108779642D01*
X91161557Y-108778386D01*
X91047315Y-107910975D01*
X90971035Y-107313996D01*
X90970894Y-107312784D01*
X90880394Y-106446993D01*
X90819793Y-105843847D01*
X90819687Y-105842652D01*
X90752706Y-104978452D01*
X90708112Y-104370235D01*
X90708031Y-104368916D01*
X90664409Y-103506753D01*
X90649153Y-103177044D01*
X90636062Y-102894118D01*
X90636014Y-102892736D01*
X90629568Y-102621411D01*
X90615595Y-102033303D01*
X90603698Y-101416520D01*
X90603687Y-101415238D01*
X90604497Y-101149344D01*
X151170107Y-101149344D01*
X151189616Y-101384778D01*
X151247609Y-101613789D01*
X151281841Y-101691829D01*
X151342506Y-101830133D01*
X151454604Y-102001712D01*
X151471717Y-102027905D01*
X151631719Y-102201712D01*
X151818146Y-102346814D01*
X152025913Y-102459252D01*
X152249353Y-102535960D01*
X152482372Y-102574844D01*
X152718610Y-102574844D01*
X152718612Y-102574844D01*
X152951631Y-102535960D01*
X153175071Y-102459252D01*
X153382838Y-102346814D01*
X153569265Y-102201712D01*
X153729267Y-102027905D01*
X153858478Y-101830132D01*
X153953375Y-101613789D01*
X154011368Y-101384778D01*
X154030877Y-101149344D01*
X154011368Y-100913910D01*
X153953375Y-100684899D01*
X153858478Y-100468556D01*
X153729267Y-100270783D01*
X153569265Y-100096976D01*
X153382838Y-99951874D01*
X153368924Y-99944344D01*
X163824846Y-99944344D01*
X163845350Y-100113212D01*
X163872975Y-100186052D01*
X163874332Y-100190031D01*
X163888159Y-100235502D01*
X164144328Y-100795525D01*
X164149992Y-100821523D01*
X164149992Y-109073864D01*
X164146677Y-109093950D01*
X163945157Y-109687746D01*
X163937102Y-109721649D01*
X163934734Y-109729363D01*
X163915351Y-109780473D01*
X163894846Y-109949344D01*
X163915350Y-110118213D01*
X163975674Y-110277276D01*
X164072308Y-110417272D01*
X164072309Y-110417273D01*
X164199640Y-110530078D01*
X164350267Y-110609134D01*
X164515436Y-110649844D01*
X164685548Y-110649844D01*
X164850717Y-110609134D01*
X165001344Y-110530078D01*
X165128675Y-110417273D01*
X165225310Y-110277274D01*
X165285632Y-110118216D01*
X165285632Y-110118215D01*
X165285633Y-110118213D01*
X165306137Y-109949344D01*
X165285633Y-109780474D01*
X165280320Y-109766467D01*
X165266247Y-109729360D01*
X165263880Y-109721650D01*
X165263880Y-109721649D01*
X165255824Y-109687739D01*
X165054306Y-109093950D01*
X165050992Y-109073865D01*
X165050992Y-100949344D01*
X181010107Y-100949344D01*
X181029616Y-101184778D01*
X181087609Y-101413789D01*
X181133677Y-101518814D01*
X181182506Y-101630133D01*
X181222814Y-101691829D01*
X181311717Y-101827905D01*
X181471719Y-102001712D01*
X181658146Y-102146814D01*
X181865913Y-102259252D01*
X182089353Y-102335960D01*
X182322372Y-102374844D01*
X182558610Y-102374844D01*
X182558612Y-102374844D01*
X182791631Y-102335960D01*
X183015071Y-102259252D01*
X183222838Y-102146814D01*
X183409265Y-102001712D01*
X183569267Y-101827905D01*
X183658170Y-101691828D01*
X183690198Y-101666899D01*
X183730786Y-101666899D01*
X183762813Y-101691828D01*
X183851717Y-101827905D01*
X184011719Y-102001712D01*
X184198146Y-102146814D01*
X184405913Y-102259252D01*
X184629353Y-102335960D01*
X184862372Y-102374844D01*
X185098610Y-102374844D01*
X185098612Y-102374844D01*
X185331631Y-102335960D01*
X185555071Y-102259252D01*
X185762838Y-102146814D01*
X185949265Y-102001712D01*
X186109267Y-101827905D01*
X186198170Y-101691828D01*
X186230198Y-101666899D01*
X186270786Y-101666899D01*
X186302813Y-101691828D01*
X186391717Y-101827905D01*
X186551719Y-102001712D01*
X186738146Y-102146814D01*
X186945913Y-102259252D01*
X187169353Y-102335960D01*
X187402372Y-102374844D01*
X187638610Y-102374844D01*
X187638612Y-102374844D01*
X187871631Y-102335960D01*
X188095071Y-102259252D01*
X188302838Y-102146814D01*
X188489265Y-102001712D01*
X188649267Y-101827905D01*
X188778478Y-101630132D01*
X188873375Y-101413789D01*
X188931368Y-101184778D01*
X188950877Y-100949344D01*
X191170107Y-100949344D01*
X191189616Y-101184778D01*
X191247609Y-101413789D01*
X191293677Y-101518814D01*
X191342506Y-101630133D01*
X191382814Y-101691829D01*
X191471717Y-101827905D01*
X191631719Y-102001712D01*
X191818146Y-102146814D01*
X192025913Y-102259252D01*
X192249353Y-102335960D01*
X192482372Y-102374844D01*
X192718610Y-102374844D01*
X192718612Y-102374844D01*
X192951631Y-102335960D01*
X193175071Y-102259252D01*
X193382838Y-102146814D01*
X193569265Y-102001712D01*
X193729267Y-101827905D01*
X193858478Y-101630132D01*
X193953375Y-101413789D01*
X194011368Y-101184778D01*
X194030877Y-100949344D01*
X194011368Y-100713910D01*
X193953375Y-100484899D01*
X193858478Y-100268556D01*
X193836883Y-100235503D01*
X193729267Y-100070783D01*
X193705448Y-100044909D01*
X193569265Y-99896976D01*
X193382838Y-99751874D01*
X193175071Y-99639436D01*
X192951631Y-99562728D01*
X192718612Y-99523844D01*
X192482372Y-99523844D01*
X192249352Y-99562728D01*
X192249353Y-99562728D01*
X192025910Y-99639437D01*
X191818144Y-99751875D01*
X191631721Y-99896974D01*
X191471716Y-100070783D01*
X191342506Y-100268554D01*
X191259255Y-100458347D01*
X191247609Y-100484899D01*
X191189616Y-100713910D01*
X191170107Y-100949344D01*
X188950877Y-100949344D01*
X188931368Y-100713910D01*
X188873375Y-100484899D01*
X188778478Y-100268556D01*
X188756883Y-100235503D01*
X188649267Y-100070783D01*
X188625448Y-100044909D01*
X188489265Y-99896976D01*
X188302838Y-99751874D01*
X188095071Y-99639436D01*
X187871631Y-99562728D01*
X187638612Y-99523844D01*
X187402372Y-99523844D01*
X187169352Y-99562728D01*
X187169353Y-99562728D01*
X186945910Y-99639437D01*
X186738144Y-99751875D01*
X186551721Y-99896974D01*
X186391716Y-100070783D01*
X186302815Y-100206858D01*
X186270786Y-100231788D01*
X186230198Y-100231788D01*
X186198169Y-100206858D01*
X186109267Y-100070783D01*
X186085448Y-100044909D01*
X185949265Y-99896976D01*
X185762838Y-99751874D01*
X185555071Y-99639436D01*
X185331631Y-99562728D01*
X185098612Y-99523844D01*
X184862372Y-99523844D01*
X184629352Y-99562728D01*
X184629353Y-99562728D01*
X184405910Y-99639437D01*
X184198144Y-99751875D01*
X184011721Y-99896974D01*
X183851716Y-100070783D01*
X183762815Y-100206858D01*
X183730786Y-100231788D01*
X183690198Y-100231788D01*
X183658169Y-100206858D01*
X183569267Y-100070783D01*
X183545448Y-100044909D01*
X183409265Y-99896976D01*
X183222838Y-99751874D01*
X183015071Y-99639436D01*
X182791631Y-99562728D01*
X182558612Y-99523844D01*
X182322372Y-99523844D01*
X182089352Y-99562728D01*
X182089353Y-99562728D01*
X181865910Y-99639437D01*
X181658144Y-99751875D01*
X181471721Y-99896974D01*
X181311716Y-100070783D01*
X181182506Y-100268554D01*
X181099255Y-100458347D01*
X181087609Y-100484899D01*
X181029616Y-100713910D01*
X181010107Y-100949344D01*
X165050992Y-100949344D01*
X165050992Y-100794463D01*
X165052667Y-100780092D01*
X165195075Y-100177327D01*
X165195186Y-100175347D01*
X165199149Y-100156677D01*
X165215632Y-100113216D01*
X165215632Y-100113215D01*
X165215633Y-100113213D01*
X165236137Y-99944344D01*
X165215633Y-99775474D01*
X165155309Y-99616411D01*
X165058675Y-99476415D01*
X164931345Y-99363611D01*
X164931344Y-99363610D01*
X164856030Y-99324081D01*
X164780716Y-99284553D01*
X164615548Y-99243844D01*
X164445436Y-99243844D01*
X164280267Y-99284553D01*
X164129638Y-99363611D01*
X164002308Y-99476415D01*
X163905674Y-99616411D01*
X163845350Y-99775474D01*
X163824846Y-99944344D01*
X153368924Y-99944344D01*
X153175071Y-99839436D01*
X152951631Y-99762728D01*
X152718612Y-99723844D01*
X152482372Y-99723844D01*
X152249352Y-99762728D01*
X152249353Y-99762728D01*
X152025910Y-99839437D01*
X151818144Y-99951875D01*
X151631721Y-100096974D01*
X151471716Y-100270783D01*
X151342506Y-100468554D01*
X151259255Y-100658348D01*
X151247609Y-100684899D01*
X151189616Y-100913910D01*
X151170107Y-101149344D01*
X90604497Y-101149344D01*
X90606296Y-100558684D01*
X90611048Y-99938563D01*
X90611070Y-99937389D01*
X90636545Y-99084083D01*
X90658105Y-98461435D01*
X90658160Y-98460242D01*
X90706340Y-97610566D01*
X90716278Y-97449344D01*
X158894846Y-97449344D01*
X158915350Y-97618213D01*
X158975674Y-97777276D01*
X159072308Y-97917272D01*
X159072309Y-97917273D01*
X159199640Y-98030078D01*
X159350267Y-98109134D01*
X159515436Y-98149844D01*
X159685548Y-98149844D01*
X159850717Y-98109134D01*
X159850722Y-98109131D01*
X159851737Y-98108881D01*
X159859439Y-98106003D01*
X159859310Y-98105621D01*
X159862088Y-98104677D01*
X159862097Y-98104676D01*
X160455883Y-97903158D01*
X160475969Y-97899844D01*
X162725014Y-97899844D01*
X162745099Y-97903158D01*
X163338886Y-98104676D01*
X163338897Y-98104678D01*
X163341668Y-98105619D01*
X163341539Y-98105998D01*
X163349267Y-98108887D01*
X163350265Y-98109133D01*
X163350267Y-98109134D01*
X163515436Y-98149844D01*
X163685548Y-98149844D01*
X163850717Y-98109134D01*
X164001344Y-98030078D01*
X164128675Y-97917273D01*
X164225310Y-97777274D01*
X164285632Y-97618216D01*
X164285632Y-97618215D01*
X164285633Y-97618213D01*
X164306137Y-97449344D01*
X164285633Y-97280474D01*
X164225309Y-97121411D01*
X164128675Y-96981415D01*
X164001345Y-96868611D01*
X164001344Y-96868610D01*
X163926030Y-96829081D01*
X163850716Y-96789553D01*
X163685548Y-96748844D01*
X163515436Y-96748844D01*
X163349278Y-96789797D01*
X163341538Y-96792698D01*
X163341664Y-96793069D01*
X163338889Y-96794010D01*
X163338888Y-96794011D01*
X162772619Y-96986189D01*
X162745098Y-96995529D01*
X162725012Y-96998844D01*
X160475971Y-96998844D01*
X160455885Y-96995529D01*
X160428364Y-96986189D01*
X159862095Y-96794011D01*
X159862090Y-96794009D01*
X159859315Y-96793068D01*
X159859439Y-96792700D01*
X159851704Y-96789797D01*
X159685548Y-96748844D01*
X159515436Y-96748844D01*
X159350267Y-96789553D01*
X159199638Y-96868611D01*
X159072308Y-96981415D01*
X158975674Y-97121411D01*
X158915350Y-97280474D01*
X158894846Y-97449344D01*
X90716278Y-97449344D01*
X90744838Y-96986028D01*
X90744913Y-96984995D01*
X90815647Y-96139267D01*
X90871173Y-95513618D01*
X90871289Y-95512449D01*
X90964376Y-94671480D01*
X91037039Y-94044978D01*
X91037176Y-94043903D01*
X91152443Y-93208063D01*
X91152475Y-93207839D01*
X91242293Y-92581438D01*
X91242463Y-92580335D01*
X91379764Y-91749830D01*
X91486807Y-91123867D01*
X91486984Y-91122893D01*
X91646132Y-90298217D01*
X91770381Y-89673475D01*
X91770590Y-89672475D01*
X91951373Y-88854202D01*
X91969821Y-88772953D01*
X176130433Y-88772953D01*
X176177259Y-88809398D01*
X176395881Y-88927710D01*
X176631003Y-89008427D01*
X176876200Y-89049344D01*
X177124784Y-89049344D01*
X177369980Y-89008427D01*
X177605102Y-88927710D01*
X177823727Y-88809396D01*
X177870548Y-88772954D01*
X177870549Y-88772953D01*
X177000492Y-87902897D01*
X176130433Y-88772953D01*
X91969821Y-88772953D01*
X92092824Y-88231221D01*
X92093083Y-88230131D01*
X92262745Y-87549344D01*
X175495351Y-87549344D01*
X175515879Y-87797086D01*
X175576902Y-88038058D01*
X175676760Y-88265713D01*
X175777055Y-88419225D01*
X175777056Y-88419225D01*
X176646939Y-87549344D01*
X177354045Y-87549344D01*
X178223926Y-88419225D01*
X178324224Y-88265710D01*
X178424081Y-88038058D01*
X178485104Y-87797086D01*
X178505632Y-87549344D01*
X178485104Y-87301601D01*
X178424081Y-87060629D01*
X178324222Y-86832974D01*
X178223927Y-86679461D01*
X178223926Y-86679461D01*
X177354045Y-87549344D01*
X176646939Y-87549344D01*
X175777056Y-86679461D01*
X175777055Y-86679461D01*
X175676760Y-86832974D01*
X175576902Y-87060629D01*
X175515879Y-87301601D01*
X175495351Y-87549344D01*
X92262745Y-87549344D01*
X92295249Y-87418916D01*
X92453934Y-86798022D01*
X92454169Y-86797144D01*
X92585162Y-86325733D01*
X176130434Y-86325733D01*
X177000492Y-87195791D01*
X177870549Y-86325733D01*
X177823724Y-86289289D01*
X177605102Y-86170977D01*
X177369980Y-86090260D01*
X177124784Y-86049344D01*
X176876200Y-86049344D01*
X176631003Y-86090260D01*
X176395881Y-86170977D01*
X176177259Y-86289288D01*
X176130434Y-86325733D01*
X92585162Y-86325733D01*
X92677569Y-85993181D01*
X92853375Y-85375217D01*
X92853675Y-85374204D01*
X93098085Y-84577995D01*
X93290931Y-83963556D01*
X93291213Y-83962692D01*
X93556362Y-83174826D01*
X93766257Y-82564172D01*
X93766548Y-82563353D01*
X94052226Y-81784205D01*
X94278970Y-81178175D01*
X94279318Y-81177272D01*
X94295184Y-81137344D01*
X114960107Y-81137344D01*
X114979616Y-81372778D01*
X115037609Y-81601789D01*
X115090880Y-81723236D01*
X115132506Y-81818133D01*
X115260339Y-82013796D01*
X115261717Y-82015905D01*
X115421719Y-82189712D01*
X115608146Y-82334814D01*
X115815913Y-82447252D01*
X116039353Y-82523960D01*
X116272372Y-82562844D01*
X116508610Y-82562844D01*
X116508612Y-82562844D01*
X116741631Y-82523960D01*
X116965071Y-82447252D01*
X117172838Y-82334814D01*
X117359265Y-82189712D01*
X117519267Y-82015905D01*
X117648478Y-81818132D01*
X117743375Y-81601789D01*
X117801368Y-81372778D01*
X117820877Y-81137344D01*
X117801368Y-80901910D01*
X117743375Y-80672899D01*
X117648478Y-80456556D01*
X117519267Y-80258783D01*
X117359265Y-80084976D01*
X117172838Y-79939874D01*
X116965071Y-79827436D01*
X116741631Y-79750728D01*
X116508612Y-79711844D01*
X116272372Y-79711844D01*
X116039352Y-79750728D01*
X116039353Y-79750728D01*
X115815910Y-79827437D01*
X115608144Y-79939875D01*
X115421721Y-80084974D01*
X115261716Y-80258783D01*
X115132506Y-80456554D01*
X115049255Y-80646347D01*
X115037609Y-80672899D01*
X114979616Y-80901910D01*
X114960107Y-81137344D01*
X94295184Y-81137344D01*
X94585295Y-80407258D01*
X94828779Y-79806347D01*
X94829146Y-79805467D01*
X95155101Y-79045201D01*
X95415209Y-78449879D01*
X95415595Y-78449017D01*
X95761335Y-77698780D01*
X96037918Y-77109558D01*
X96038278Y-77108810D01*
X96403525Y-76369061D01*
X96696334Y-75786616D01*
X96696789Y-75785731D01*
X97081188Y-75057058D01*
X97390157Y-74481649D01*
X97390557Y-74480922D01*
X97793897Y-73763605D01*
X98118747Y-73195882D01*
X98119152Y-73195189D01*
X98541063Y-72489782D01*
X98881602Y-71930183D01*
X98882062Y-71929444D01*
X99322025Y-71236695D01*
X99322222Y-71236389D01*
X99406037Y-71106663D01*
X113099992Y-71106663D01*
X113139426Y-71418818D01*
X113217671Y-71723565D01*
X113333498Y-72016110D01*
X113485076Y-72291828D01*
X113670014Y-72546374D01*
X113670016Y-72546376D01*
X113885399Y-72775735D01*
X114127826Y-72976289D01*
X114127828Y-72976290D01*
X114127829Y-72976291D01*
X114393485Y-73144881D01*
X114678177Y-73278847D01*
X114977413Y-73376075D01*
X115286477Y-73435032D01*
X115521909Y-73449844D01*
X115679070Y-73449844D01*
X115679075Y-73449844D01*
X115914507Y-73435032D01*
X116223571Y-73376075D01*
X116522807Y-73278847D01*
X116807499Y-73144881D01*
X117073155Y-72976291D01*
X117315586Y-72775734D01*
X117530970Y-72546374D01*
X117715908Y-72291828D01*
X117867486Y-72016110D01*
X117983311Y-71723569D01*
X118061558Y-71418817D01*
X118100992Y-71106663D01*
X173099992Y-71106663D01*
X173139426Y-71418818D01*
X173217671Y-71723565D01*
X173333497Y-72016109D01*
X173333498Y-72016110D01*
X173485076Y-72291828D01*
X173670014Y-72546374D01*
X173670016Y-72546376D01*
X173885399Y-72775735D01*
X174127826Y-72976289D01*
X174127828Y-72976290D01*
X174127829Y-72976291D01*
X174393485Y-73144881D01*
X174678177Y-73278847D01*
X174977413Y-73376075D01*
X175286477Y-73435032D01*
X175521909Y-73449844D01*
X175679070Y-73449844D01*
X175679075Y-73449844D01*
X175914507Y-73435032D01*
X176223571Y-73376075D01*
X176522807Y-73278847D01*
X176807499Y-73144881D01*
X177073155Y-72976291D01*
X177315586Y-72775734D01*
X177530970Y-72546374D01*
X177715908Y-72291828D01*
X177867486Y-72016110D01*
X177983311Y-71723569D01*
X178061558Y-71418817D01*
X178100992Y-71106662D01*
X178100992Y-70792026D01*
X178061558Y-70479871D01*
X177983311Y-70175119D01*
X177867486Y-69882578D01*
X177715908Y-69606860D01*
X177530970Y-69352314D01*
X177315586Y-69122954D01*
X177315584Y-69122952D01*
X177073157Y-68922398D01*
X177026665Y-68892894D01*
X176807499Y-68753807D01*
X176522807Y-68619841D01*
X176522805Y-68619840D01*
X176223570Y-68522612D01*
X175914509Y-68463656D01*
X175847240Y-68459423D01*
X175679075Y-68448844D01*
X175521909Y-68448844D01*
X175374764Y-68458101D01*
X175286474Y-68463656D01*
X174977413Y-68522612D01*
X174678178Y-68619840D01*
X174527451Y-68690766D01*
X174393485Y-68753807D01*
X174328260Y-68795200D01*
X174127826Y-68922398D01*
X173885399Y-69122952D01*
X173670016Y-69352311D01*
X173485073Y-69606864D01*
X173333498Y-69882577D01*
X173217671Y-70175122D01*
X173139426Y-70479869D01*
X173099992Y-70792025D01*
X173099992Y-71106663D01*
X118100992Y-71106663D01*
X118100992Y-71106662D01*
X118100992Y-70792026D01*
X118061558Y-70479871D01*
X117983311Y-70175119D01*
X117867486Y-69882578D01*
X117715908Y-69606860D01*
X117530970Y-69352314D01*
X117315586Y-69122954D01*
X117315584Y-69122952D01*
X117073157Y-68922398D01*
X117026665Y-68892894D01*
X116807499Y-68753807D01*
X116522807Y-68619841D01*
X116522805Y-68619840D01*
X116223570Y-68522612D01*
X115914509Y-68463656D01*
X115847240Y-68459423D01*
X115679075Y-68448844D01*
X115521909Y-68448844D01*
X115374764Y-68458101D01*
X115286474Y-68463656D01*
X114977413Y-68522612D01*
X114678178Y-68619840D01*
X114527451Y-68690766D01*
X114393485Y-68753807D01*
X114328260Y-68795200D01*
X114127826Y-68922398D01*
X113885399Y-69122952D01*
X113670016Y-69352311D01*
X113485073Y-69606864D01*
X113333498Y-69882577D01*
X113217671Y-70175122D01*
X113139426Y-70479869D01*
X113099992Y-70792025D01*
X113099992Y-71106663D01*
X99406037Y-71106663D01*
X99678204Y-70685414D01*
X99678662Y-70684718D01*
X100136661Y-70004557D01*
X100507955Y-69462508D01*
X100508408Y-69461859D01*
X100983968Y-68794915D01*
X101370302Y-68262285D01*
X101370717Y-68261724D01*
X101863498Y-67608399D01*
X102264523Y-67085750D01*
X102264957Y-67085195D01*
X102774614Y-66445876D01*
X103189979Y-65933728D01*
X103190576Y-65933006D01*
X103716699Y-65308147D01*
X104146177Y-64806840D01*
X104146659Y-64806288D01*
X104688931Y-64196207D01*
X105132245Y-63706120D01*
X105132763Y-63705558D01*
X105690665Y-63110785D01*
X106147556Y-62632266D01*
X106148033Y-62631776D01*
X106721214Y-62052629D01*
X107191355Y-61586078D01*
X107191822Y-61585623D01*
X107779880Y-61022461D01*
X108262720Y-60568469D01*
X108263406Y-60567835D01*
X108865899Y-60021036D01*
X109361193Y-59579867D01*
X109361812Y-59579326D01*
X109978337Y-59049214D01*
X110485929Y-58621055D01*
X110486309Y-58620740D01*
X111116578Y-58107535D01*
X111635788Y-57692998D01*
X111636277Y-57692614D01*
X112279735Y-57196742D01*
X112810195Y-56796145D01*
X112810832Y-56795671D01*
X113466837Y-56317589D01*
X114008359Y-55931105D01*
X114009018Y-55930643D01*
X114677186Y-55470594D01*
X115229384Y-55098534D01*
X115229901Y-55098192D01*
X115909916Y-54656369D01*
X116472191Y-54299165D01*
X116472804Y-54298783D01*
X117163882Y-53875665D01*
X117164004Y-53875592D01*
X117736168Y-53533388D01*
X117736726Y-53533061D01*
X118438648Y-53128756D01*
X119020108Y-52801937D01*
X119020732Y-52801592D01*
X119732919Y-52416413D01*
X120323312Y-52105203D01*
X120323878Y-52104910D01*
X121045673Y-51739183D01*
X121046033Y-51739004D01*
X121644780Y-51443727D01*
X121645357Y-51443447D01*
X122376430Y-51097318D01*
X122376621Y-51097229D01*
X122983541Y-50817994D01*
X122984107Y-50817739D01*
X123723844Y-50491478D01*
X123724155Y-50491343D01*
X124338505Y-50228510D01*
X124339147Y-50228241D01*
X125087278Y-49921953D01*
X125087423Y-49921895D01*
X125708824Y-49675637D01*
X125709550Y-49675356D01*
X126465474Y-49389279D01*
X127093690Y-49159709D01*
X127094217Y-49159520D01*
X127857246Y-48893903D01*
X127857478Y-48893824D01*
X128491776Y-48681224D01*
X128492315Y-48681048D01*
X129261949Y-48436048D01*
X129262246Y-48435955D01*
X129902218Y-48240471D01*
X129902703Y-48240327D01*
X130678544Y-48016061D01*
X130678797Y-48015990D01*
X131323908Y-47837793D01*
X131324554Y-47837620D01*
X132106052Y-47634244D01*
X132756113Y-47473403D01*
X132756472Y-47473316D01*
X133542991Y-47290989D01*
X133543181Y-47290946D01*
X134197244Y-47147700D01*
X134197920Y-47147557D01*
X134988612Y-46986457D01*
X134989138Y-46986354D01*
X135646904Y-46860770D01*
X135647435Y-46860673D01*
X136442264Y-46720800D01*
X136442374Y-46720782D01*
X137103641Y-46612911D01*
X137104234Y-46612819D01*
X137902131Y-46494353D01*
X137902676Y-46494276D01*
X138566439Y-46404287D01*
X138567033Y-46404210D01*
X139367816Y-46307168D01*
X139368397Y-46307102D01*
X140034343Y-46235032D01*
X140034912Y-46234974D01*
X140837943Y-46159430D01*
X140838595Y-46159373D01*
X141506152Y-46105282D01*
X141506949Y-46105223D01*
X142311634Y-46051230D01*
X142312225Y-46051195D01*
X142981194Y-46015102D01*
X142981643Y-46015080D01*
X143787671Y-45982661D01*
X143788137Y-45982646D01*
X144457939Y-45964590D01*
X144458511Y-45964578D01*
X145264751Y-45953775D01*
X145265589Y-45953769D01*
X145935395Y-45953769D01*
X145936232Y-45953775D01*
G37*
%TD.AperFunction*%
%TD*%
%TA.AperFunction,Conductor*%
%TO.N,+VSW*%
G36*
X143616049Y-116675431D02*
G01*
X143971688Y-116821780D01*
X143975508Y-116824327D01*
X143978055Y-116828148D01*
X144124404Y-117183786D01*
X144124529Y-117192372D01*
X144118760Y-117198731D01*
X143523392Y-117492385D01*
X143516311Y-117493436D01*
X143509943Y-117490165D01*
X143309670Y-117289892D01*
X143306399Y-117283524D01*
X143307450Y-117276443D01*
X143348165Y-117193896D01*
X143601104Y-116681074D01*
X143607463Y-116675306D01*
X143616049Y-116675431D01*
G37*
%TD.AperFunction*%
%TD*%
%TA.AperFunction,Conductor*%
%TO.N,+VSW*%
G36*
X140322392Y-125173302D02*
G01*
X140917760Y-125466956D01*
X140923529Y-125473315D01*
X140923404Y-125481901D01*
X140777055Y-125837539D01*
X140774508Y-125841360D01*
X140770687Y-125843907D01*
X140415049Y-125990256D01*
X140406463Y-125990381D01*
X140400104Y-125984612D01*
X140106450Y-125389244D01*
X140105399Y-125382163D01*
X140108668Y-125375797D01*
X140308945Y-125175520D01*
X140315311Y-125172251D01*
X140322392Y-125173302D01*
G37*
%TD.AperFunction*%
%TD*%
%TA.AperFunction,Conductor*%
%TO.N,+VSW*%
G36*
X163445643Y-97083721D02*
G01*
X163451625Y-97089882D01*
X163599615Y-97444842D01*
X163600516Y-97449344D01*
X163599615Y-97453846D01*
X163451625Y-97808805D01*
X163445643Y-97814966D01*
X163437066Y-97815382D01*
X163088991Y-97697254D01*
X162808431Y-97602038D01*
X162802682Y-97597775D01*
X162800492Y-97590960D01*
X162800492Y-97307728D01*
X162802682Y-97300913D01*
X162808431Y-97296649D01*
X163437067Y-97083305D01*
X163445643Y-97083721D01*
G37*
%TD.AperFunction*%
%TD*%
%TA.AperFunction,Conductor*%
%TO.N,+VSW*%
G36*
X160392552Y-97296649D02*
G01*
X160398302Y-97300913D01*
X160400492Y-97307728D01*
X160400492Y-97590960D01*
X160398302Y-97597775D01*
X160392552Y-97602038D01*
X160197005Y-97668402D01*
X159763917Y-97815382D01*
X159755340Y-97814966D01*
X159749358Y-97808805D01*
X159663153Y-97602039D01*
X159601367Y-97453842D01*
X159600467Y-97449343D01*
X159601366Y-97444847D01*
X159749358Y-97089881D01*
X159755340Y-97083721D01*
X159763916Y-97083305D01*
X160392552Y-97296649D01*
G37*
%TD.AperFunction*%
%TD*%
%TA.AperFunction,Conductor*%
%TO.N,+BATT*%
G36*
X170241049Y-116550431D02*
G01*
X170596688Y-116696780D01*
X170600508Y-116699327D01*
X170603055Y-116703148D01*
X170749404Y-117058786D01*
X170749529Y-117067372D01*
X170743760Y-117073731D01*
X170148392Y-117367385D01*
X170141311Y-117368436D01*
X170134943Y-117365165D01*
X169934670Y-117164892D01*
X169931399Y-117158524D01*
X169932450Y-117151443D01*
X169973165Y-117068896D01*
X170226104Y-116556074D01*
X170232463Y-116550306D01*
X170241049Y-116550431D01*
G37*
%TD.AperFunction*%
%TD*%
%TA.AperFunction,Conductor*%
%TO.N,+BATT*%
G36*
X141468662Y-123911957D02*
G01*
X141472993Y-123916244D01*
X141474580Y-123922128D01*
X141474580Y-124205230D01*
X141473612Y-124209890D01*
X141470868Y-124213777D01*
X141365251Y-124312468D01*
X141065584Y-124592478D01*
X141057408Y-124595627D01*
X141049337Y-124592217D01*
X140776945Y-124320785D01*
X140774393Y-124316970D01*
X140773504Y-124312468D01*
X140773760Y-124210310D01*
X140774463Y-123928896D01*
X140777859Y-123920684D01*
X140786042Y-123917227D01*
X141313683Y-123911926D01*
X141462762Y-123910429D01*
X141468662Y-123911957D01*
G37*
%TD.AperFunction*%
%TD*%
%TA.AperFunction,Conductor*%
%TO.N,+VDC*%
G36*
X168604989Y-102950219D02*
G01*
X168919931Y-103081524D01*
X168959953Y-103098210D01*
X168966114Y-103104192D01*
X168966530Y-103112769D01*
X168753187Y-103741404D01*
X168748923Y-103747154D01*
X168742108Y-103749344D01*
X168458876Y-103749344D01*
X168452061Y-103747154D01*
X168447797Y-103741404D01*
X168234453Y-103112769D01*
X168234869Y-103104192D01*
X168241029Y-103098210D01*
X168595994Y-102950219D01*
X168600492Y-102949319D01*
X168604989Y-102950219D01*
G37*
%TD.AperFunction*%
%TD*%
%TA.AperFunction,Conductor*%
%TO.N,+VDC*%
G36*
X168748923Y-112651534D02*
G01*
X168753187Y-112657284D01*
X168966530Y-113285918D01*
X168966114Y-113294495D01*
X168959953Y-113300477D01*
X168604994Y-113448467D01*
X168600492Y-113449368D01*
X168595990Y-113448467D01*
X168241030Y-113300477D01*
X168234869Y-113294495D01*
X168234453Y-113285919D01*
X168447797Y-112657283D01*
X168452061Y-112651534D01*
X168458876Y-112649344D01*
X168742108Y-112649344D01*
X168748923Y-112651534D01*
G37*
%TD.AperFunction*%
%TD*%
%TA.AperFunction,Conductor*%
%TO.N,Net-(Q2-G)*%
G36*
X164748923Y-109151534D02*
G01*
X164753187Y-109157284D01*
X164966530Y-109785918D01*
X164966114Y-109794495D01*
X164959953Y-109800477D01*
X164604994Y-109948467D01*
X164600492Y-109949368D01*
X164595990Y-109948467D01*
X164241030Y-109800477D01*
X164234869Y-109794495D01*
X164234453Y-109785919D01*
X164447797Y-109157283D01*
X164452061Y-109151534D01*
X164458876Y-109149344D01*
X164742108Y-109149344D01*
X164748923Y-109151534D01*
G37*
%TD.AperFunction*%
%TD*%
%TA.AperFunction,Conductor*%
%TO.N,Net-(Q2-G)*%
G36*
X164534989Y-99945219D02*
G01*
X164890875Y-100093594D01*
X164896794Y-100099074D01*
X164897760Y-100107083D01*
X164752621Y-100721410D01*
X164748494Y-100727895D01*
X164741234Y-100730420D01*
X164458006Y-100730420D01*
X164451684Y-100728565D01*
X164447366Y-100723587D01*
X164446370Y-100721410D01*
X164165975Y-100108424D01*
X164164981Y-100102320D01*
X164167236Y-100096562D01*
X164172110Y-100092759D01*
X164525994Y-99945219D01*
X164530492Y-99944319D01*
X164534989Y-99945219D01*
G37*
%TD.AperFunction*%
%TD*%
%TA.AperFunction,Conductor*%
%TO.N,Net-(Q2-G)*%
G36*
X166604989Y-113450219D02*
G01*
X166919931Y-113581524D01*
X166959953Y-113598210D01*
X166966114Y-113604192D01*
X166966530Y-113612769D01*
X166753187Y-114241404D01*
X166748923Y-114247154D01*
X166742108Y-114249344D01*
X166458876Y-114249344D01*
X166452061Y-114247154D01*
X166447797Y-114241404D01*
X166234453Y-113612769D01*
X166234869Y-113604192D01*
X166241029Y-113598210D01*
X166595994Y-113450219D01*
X166600492Y-113449319D01*
X166604989Y-113450219D01*
G37*
%TD.AperFunction*%
%TD*%
%TA.AperFunction,Conductor*%
%TO.N,Net-(Q2-G)*%
G36*
X157832552Y-116856649D02*
G01*
X157838302Y-116860913D01*
X157840492Y-116867728D01*
X157840492Y-117150960D01*
X157838302Y-117157775D01*
X157832552Y-117162038D01*
X157637005Y-117228402D01*
X157203917Y-117375382D01*
X157195340Y-117374966D01*
X157189358Y-117368805D01*
X157103153Y-117162039D01*
X157041367Y-117013841D01*
X157040467Y-117009344D01*
X157041367Y-117004846D01*
X157189358Y-116649881D01*
X157195340Y-116643721D01*
X157203916Y-116643305D01*
X157832552Y-116856649D01*
G37*
%TD.AperFunction*%
%TD*%
M02*
