%TF.GenerationSoftware,KiCad,Pcbnew,7.0.1-0*%
%TF.CreationDate,2023-05-25T18:05:17+09:00*%
%TF.ProjectId,Transformation,5472616e-7366-46f7-926d-6174696f6e2e,rev?*%
%TF.SameCoordinates,Original*%
%TF.FileFunction,Legend,Top*%
%TF.FilePolarity,Positive*%
%FSLAX46Y46*%
G04 Gerber Fmt 4.6, Leading zero omitted, Abs format (unit mm)*
G04 Created by KiCad (PCBNEW 7.0.1-0) date 2023-05-25 18:05:17*
%MOMM*%
%LPD*%
G01*
G04 APERTURE LIST*
%ADD10C,0.300000*%
%ADD11C,0.153000*%
%ADD12C,0.150000*%
%ADD13C,0.100000*%
%ADD14C,0.120000*%
%ADD15C,0.127000*%
G04 APERTURE END LIST*
D10*
G36*
X113833206Y-82896630D02*
G01*
X107911778Y-82896630D01*
X107911778Y-80982854D01*
X108930543Y-80982854D01*
X108958323Y-81066447D01*
X109026887Y-81121750D01*
X109114466Y-81131205D01*
X109279893Y-81048490D01*
X109304557Y-81043125D01*
X109333777Y-81013904D01*
X109364048Y-80985748D01*
X109364774Y-80982907D01*
X109365349Y-80982333D01*
X109365349Y-81898772D01*
X109065210Y-81898772D01*
X109002258Y-81917256D01*
X108944573Y-81983829D01*
X108932036Y-82071021D01*
X108968629Y-82151148D01*
X109042734Y-82198772D01*
X109504618Y-82198772D01*
X109537598Y-82203514D01*
X109547981Y-82198772D01*
X109965489Y-82198772D01*
X110028441Y-82180288D01*
X110086126Y-82113715D01*
X110092265Y-82071021D01*
X110289178Y-82071021D01*
X110296232Y-82086468D01*
X110297444Y-82103404D01*
X110314172Y-82125751D01*
X110325771Y-82151148D01*
X110340055Y-82160327D01*
X110350233Y-82173924D01*
X110376394Y-82183681D01*
X110399876Y-82198772D01*
X110416854Y-82198772D01*
X110432767Y-82204707D01*
X110460049Y-82198772D01*
X111394060Y-82198772D01*
X111457012Y-82180288D01*
X111514697Y-82113715D01*
X111527234Y-82026523D01*
X111490641Y-81946396D01*
X111416536Y-81898772D01*
X110806052Y-81898772D01*
X111401420Y-81303403D01*
X111429437Y-81280847D01*
X111439130Y-81251768D01*
X111453823Y-81224860D01*
X111452811Y-81210723D01*
X111508847Y-81042619D01*
X111522492Y-81021388D01*
X111522492Y-80980076D01*
X111523987Y-80938751D01*
X111522492Y-80936229D01*
X111522492Y-80842561D01*
X111526353Y-80806797D01*
X111512644Y-80779381D01*
X111504008Y-80749966D01*
X111493296Y-80740684D01*
X111443638Y-80641369D01*
X111438273Y-80616706D01*
X111409042Y-80587475D01*
X111380896Y-80557216D01*
X111378056Y-80556489D01*
X111375989Y-80554422D01*
X111644833Y-80554422D01*
X112150179Y-82070463D01*
X112149568Y-82087366D01*
X112163839Y-82111444D01*
X112165581Y-82116668D01*
X112174790Y-82129919D01*
X112194483Y-82163143D01*
X112199695Y-82165755D01*
X112203024Y-82170544D01*
X112238707Y-82185305D01*
X112273237Y-82202609D01*
X112279036Y-82201988D01*
X112284422Y-82204216D01*
X112322419Y-82197343D01*
X112360823Y-82193232D01*
X112365363Y-82189576D01*
X112371104Y-82188538D01*
X112399364Y-82162202D01*
X112429438Y-82137990D01*
X112431281Y-82132458D01*
X112435547Y-82128484D01*
X112445079Y-82091066D01*
X112950186Y-80575745D01*
X112952558Y-80510178D01*
X112907643Y-80434401D01*
X112828890Y-80394935D01*
X112741303Y-80404312D01*
X112672688Y-80459554D01*
X112301062Y-81574430D01*
X111936545Y-80480877D01*
X111899102Y-80427000D01*
X111817704Y-80393328D01*
X111731022Y-80409007D01*
X111666579Y-80469060D01*
X111644833Y-80554422D01*
X111375989Y-80554422D01*
X111348998Y-80527432D01*
X111336111Y-80505734D01*
X111299157Y-80487257D01*
X111262866Y-80467440D01*
X111259941Y-80467649D01*
X111161079Y-80418217D01*
X111130821Y-80398772D01*
X111100170Y-80398772D01*
X111069996Y-80393342D01*
X111056904Y-80398772D01*
X110737711Y-80398772D01*
X110701947Y-80394911D01*
X110674531Y-80408618D01*
X110645115Y-80417256D01*
X110635833Y-80427967D01*
X110536515Y-80477626D01*
X110511854Y-80482991D01*
X110482632Y-80512212D01*
X110452364Y-80540368D01*
X110451637Y-80543207D01*
X110394032Y-80600814D01*
X110362588Y-80658398D01*
X110368873Y-80746261D01*
X110421662Y-80816781D01*
X110504196Y-80847564D01*
X110590271Y-80828839D01*
X110675630Y-80743479D01*
X110765046Y-80698772D01*
X111051367Y-80698772D01*
X111140781Y-80743479D01*
X111177785Y-80780483D01*
X111222492Y-80869896D01*
X111222492Y-80953003D01*
X111169958Y-81110601D01*
X110364926Y-81915633D01*
X110359400Y-81917256D01*
X110334062Y-81946497D01*
X110322603Y-81957957D01*
X110319995Y-81962731D01*
X110301715Y-81983829D01*
X110299298Y-82000634D01*
X110291159Y-82015541D01*
X110293151Y-82043389D01*
X110289178Y-82071021D01*
X110092265Y-82071021D01*
X110098663Y-82026523D01*
X110062070Y-81946396D01*
X109987965Y-81898772D01*
X109665349Y-81898772D01*
X109665349Y-80571629D01*
X109671660Y-80551399D01*
X109665349Y-80528489D01*
X109665349Y-80527204D01*
X109659624Y-80507708D01*
X109648266Y-80466474D01*
X109647250Y-80465563D01*
X109646865Y-80464252D01*
X109614535Y-80436238D01*
X109582672Y-80407677D01*
X109581322Y-80407459D01*
X109580292Y-80406567D01*
X109537984Y-80400483D01*
X109495704Y-80393678D01*
X109494452Y-80394224D01*
X109493100Y-80394030D01*
X109454157Y-80411814D01*
X109414973Y-80428920D01*
X109414216Y-80430055D01*
X109412973Y-80430623D01*
X109389827Y-80466638D01*
X109255924Y-80667493D01*
X109140781Y-80782636D01*
X109000405Y-80852826D01*
X108952365Y-80897511D01*
X108930543Y-80982854D01*
X107911778Y-80982854D01*
X107911778Y-79318058D01*
X113833206Y-79318058D01*
X113833206Y-82896630D01*
G37*
D11*
X148188539Y-139546153D02*
X148521872Y-139546153D01*
X148664729Y-140069963D02*
X148188539Y-140069963D01*
X148188539Y-140069963D02*
X148188539Y-139069963D01*
X148188539Y-139069963D02*
X148664729Y-139069963D01*
X148998063Y-139069963D02*
X149664729Y-140069963D01*
X149664729Y-139069963D02*
X148998063Y-140069963D01*
X149902825Y-139069963D02*
X150474253Y-139069963D01*
X150188539Y-140069963D02*
X150188539Y-139069963D01*
X150807587Y-139546153D02*
X151140920Y-139546153D01*
X151283777Y-140069963D02*
X150807587Y-140069963D01*
X150807587Y-140069963D02*
X150807587Y-139069963D01*
X150807587Y-139069963D02*
X151283777Y-139069963D01*
X152283777Y-140069963D02*
X151950444Y-139593772D01*
X151712349Y-140069963D02*
X151712349Y-139069963D01*
X151712349Y-139069963D02*
X152093301Y-139069963D01*
X152093301Y-139069963D02*
X152188539Y-139117582D01*
X152188539Y-139117582D02*
X152236158Y-139165201D01*
X152236158Y-139165201D02*
X152283777Y-139260439D01*
X152283777Y-139260439D02*
X152283777Y-139403296D01*
X152283777Y-139403296D02*
X152236158Y-139498534D01*
X152236158Y-139498534D02*
X152188539Y-139546153D01*
X152188539Y-139546153D02*
X152093301Y-139593772D01*
X152093301Y-139593772D02*
X151712349Y-139593772D01*
X152712349Y-140069963D02*
X152712349Y-139069963D01*
X152712349Y-139069963D02*
X153283777Y-140069963D01*
X153283777Y-140069963D02*
X153283777Y-139069963D01*
X153712349Y-139784248D02*
X154188539Y-139784248D01*
X153617111Y-140069963D02*
X153950444Y-139069963D01*
X153950444Y-139069963D02*
X154283777Y-140069963D01*
X155093301Y-140069963D02*
X154617111Y-140069963D01*
X154617111Y-140069963D02*
X154617111Y-139069963D01*
X123542491Y-139673153D02*
X123685348Y-139720772D01*
X123685348Y-139720772D02*
X123732967Y-139768391D01*
X123732967Y-139768391D02*
X123780586Y-139863629D01*
X123780586Y-139863629D02*
X123780586Y-140006486D01*
X123780586Y-140006486D02*
X123732967Y-140101724D01*
X123732967Y-140101724D02*
X123685348Y-140149344D01*
X123685348Y-140149344D02*
X123590110Y-140196963D01*
X123590110Y-140196963D02*
X123209158Y-140196963D01*
X123209158Y-140196963D02*
X123209158Y-139196963D01*
X123209158Y-139196963D02*
X123542491Y-139196963D01*
X123542491Y-139196963D02*
X123637729Y-139244582D01*
X123637729Y-139244582D02*
X123685348Y-139292201D01*
X123685348Y-139292201D02*
X123732967Y-139387439D01*
X123732967Y-139387439D02*
X123732967Y-139482677D01*
X123732967Y-139482677D02*
X123685348Y-139577915D01*
X123685348Y-139577915D02*
X123637729Y-139625534D01*
X123637729Y-139625534D02*
X123542491Y-139673153D01*
X123542491Y-139673153D02*
X123209158Y-139673153D01*
X124161539Y-139911248D02*
X124637729Y-139911248D01*
X124066301Y-140196963D02*
X124399634Y-139196963D01*
X124399634Y-139196963D02*
X124732967Y-140196963D01*
X124923444Y-139196963D02*
X125494872Y-139196963D01*
X125209158Y-140196963D02*
X125209158Y-139196963D01*
X125685349Y-139196963D02*
X126256777Y-139196963D01*
X125971063Y-140196963D02*
X125971063Y-139196963D01*
X126590111Y-139673153D02*
X126923444Y-139673153D01*
X127066301Y-140196963D02*
X126590111Y-140196963D01*
X126590111Y-140196963D02*
X126590111Y-139196963D01*
X126590111Y-139196963D02*
X127066301Y-139196963D01*
X128066301Y-140196963D02*
X127732968Y-139720772D01*
X127494873Y-140196963D02*
X127494873Y-139196963D01*
X127494873Y-139196963D02*
X127875825Y-139196963D01*
X127875825Y-139196963D02*
X127971063Y-139244582D01*
X127971063Y-139244582D02*
X128018682Y-139292201D01*
X128018682Y-139292201D02*
X128066301Y-139387439D01*
X128066301Y-139387439D02*
X128066301Y-139530296D01*
X128066301Y-139530296D02*
X128018682Y-139625534D01*
X128018682Y-139625534D02*
X127971063Y-139673153D01*
X127971063Y-139673153D02*
X127875825Y-139720772D01*
X127875825Y-139720772D02*
X127494873Y-139720772D01*
X128685349Y-139720772D02*
X128685349Y-140196963D01*
X128352016Y-139196963D02*
X128685349Y-139720772D01*
X128685349Y-139720772D02*
X129018682Y-139196963D01*
D10*
G36*
X164654064Y-125913630D02*
G01*
X158946921Y-125913630D01*
X158946921Y-125088021D01*
X160038607Y-125088021D01*
X160052447Y-125118327D01*
X160061833Y-125150292D01*
X160070458Y-125157766D01*
X160075200Y-125168148D01*
X160103227Y-125186160D01*
X160128406Y-125207977D01*
X160139703Y-125209601D01*
X160149305Y-125215772D01*
X160182618Y-125215772D01*
X160215598Y-125220514D01*
X160225981Y-125215772D01*
X160929203Y-125215772D01*
X160992155Y-125197288D01*
X161049840Y-125130715D01*
X161059556Y-125063145D01*
X161251324Y-125063145D01*
X161274718Y-125148070D01*
X161340312Y-125206867D01*
X161427280Y-125220866D01*
X161508011Y-125185624D01*
X161907634Y-124586188D01*
X162294791Y-125166923D01*
X162345091Y-125209049D01*
X162432481Y-125220118D01*
X162511983Y-125182184D01*
X162558354Y-125107290D01*
X162556874Y-125019214D01*
X162087912Y-124315771D01*
X162544407Y-123631031D01*
X162557825Y-123588021D01*
X162610036Y-123588021D01*
X162646629Y-123668148D01*
X162720734Y-123715772D01*
X163043349Y-123715772D01*
X163043349Y-125087340D01*
X163061833Y-125150292D01*
X163128406Y-125207977D01*
X163215598Y-125220514D01*
X163295725Y-125183921D01*
X163343349Y-125109816D01*
X163343349Y-123715772D01*
X163643489Y-123715772D01*
X163706441Y-123697288D01*
X163764126Y-123630715D01*
X163776663Y-123543523D01*
X163740070Y-123463396D01*
X163665965Y-123415772D01*
X163204080Y-123415772D01*
X163171100Y-123411030D01*
X163160717Y-123415772D01*
X162743210Y-123415772D01*
X162680258Y-123434256D01*
X162622573Y-123500829D01*
X162610036Y-123588021D01*
X162557825Y-123588021D01*
X162563946Y-123568399D01*
X162540552Y-123483474D01*
X162474958Y-123424677D01*
X162387990Y-123410678D01*
X162307259Y-123445920D01*
X161907635Y-124045355D01*
X161520479Y-123464621D01*
X161470180Y-123422495D01*
X161382790Y-123411426D01*
X161303287Y-123449360D01*
X161256916Y-123524254D01*
X161258396Y-123612330D01*
X161727357Y-124315772D01*
X161270864Y-125000513D01*
X161251324Y-125063145D01*
X161059556Y-125063145D01*
X161062377Y-125043523D01*
X161025784Y-124963396D01*
X160951679Y-124915772D01*
X160343349Y-124915772D01*
X160343349Y-124430058D01*
X160714917Y-124430058D01*
X160777869Y-124411574D01*
X160835554Y-124345001D01*
X160848091Y-124257809D01*
X160811498Y-124177682D01*
X160737393Y-124130058D01*
X160343349Y-124130058D01*
X160343349Y-123715772D01*
X160929203Y-123715772D01*
X160992155Y-123697288D01*
X161049840Y-123630715D01*
X161062377Y-123543523D01*
X161025784Y-123463396D01*
X160951679Y-123415772D01*
X160204080Y-123415772D01*
X160171100Y-123411030D01*
X160140793Y-123424870D01*
X160108829Y-123434256D01*
X160101354Y-123442881D01*
X160090973Y-123447623D01*
X160072960Y-123475650D01*
X160051144Y-123500829D01*
X160049519Y-123512126D01*
X160043349Y-123521728D01*
X160043349Y-123555041D01*
X160038607Y-123588021D01*
X160043349Y-123598404D01*
X160043349Y-124269327D01*
X160038607Y-124302307D01*
X160043349Y-124312690D01*
X160043349Y-125055041D01*
X160038607Y-125088021D01*
X158946921Y-125088021D01*
X158946921Y-122335058D01*
X164654064Y-122335058D01*
X164654064Y-125913630D01*
G37*
G36*
X179856664Y-119687201D02*
G01*
X179558606Y-119687201D01*
X179707635Y-119240113D01*
X179856664Y-119687201D01*
G37*
G36*
X178555179Y-119682591D02*
G01*
X178584357Y-119711769D01*
X178629063Y-119801182D01*
X178629063Y-119944648D01*
X178584356Y-120034062D01*
X178547351Y-120071066D01*
X178457939Y-120115772D01*
X178071920Y-120115772D01*
X178071920Y-119630058D01*
X178397578Y-119630058D01*
X178555179Y-119682591D01*
G37*
G36*
X178475924Y-118960479D02*
G01*
X178512928Y-118997483D01*
X178557635Y-119086896D01*
X178557635Y-119158934D01*
X178512929Y-119248344D01*
X178475923Y-119285350D01*
X178389081Y-119328772D01*
X178383326Y-119328564D01*
X178380805Y-119330058D01*
X178071920Y-119330058D01*
X178071920Y-118915772D01*
X178386510Y-118915772D01*
X178475924Y-118960479D01*
G37*
G36*
X183525492Y-121113630D02*
G01*
X176675492Y-121113630D01*
X176675492Y-120288021D01*
X177767178Y-120288021D01*
X177781018Y-120318327D01*
X177790404Y-120350292D01*
X177799029Y-120357766D01*
X177803771Y-120368148D01*
X177831798Y-120386160D01*
X177856977Y-120407977D01*
X177868274Y-120409601D01*
X177877876Y-120415772D01*
X177911189Y-120415772D01*
X177944169Y-120420514D01*
X177954552Y-120415772D01*
X178485273Y-120415772D01*
X178521036Y-120419633D01*
X178548450Y-120405925D01*
X178577869Y-120397288D01*
X178587150Y-120386576D01*
X178686466Y-120336918D01*
X178711128Y-120331554D01*
X178738315Y-120304366D01*
X179056140Y-120304366D01*
X179101055Y-120380143D01*
X179179809Y-120419609D01*
X179267395Y-120410232D01*
X179336010Y-120354990D01*
X179458606Y-119987201D01*
X179956664Y-119987201D01*
X180072153Y-120333668D01*
X180109596Y-120387544D01*
X180190994Y-120421216D01*
X180277676Y-120405538D01*
X180342119Y-120345484D01*
X180363865Y-120260122D01*
X180218301Y-119823429D01*
X180219520Y-119814952D01*
X180204544Y-119782161D01*
X179873165Y-118788021D01*
X180338607Y-118788021D01*
X180375200Y-118868148D01*
X180449305Y-118915772D01*
X180771920Y-118915772D01*
X180771920Y-120287340D01*
X180790404Y-120350292D01*
X180856977Y-120407977D01*
X180944169Y-120420514D01*
X181024296Y-120383921D01*
X181071920Y-120309816D01*
X181071920Y-118915772D01*
X181372060Y-118915772D01*
X181435012Y-118897288D01*
X181492697Y-118830715D01*
X181494676Y-118816951D01*
X181518057Y-118868148D01*
X181592162Y-118915772D01*
X181914777Y-118915772D01*
X181914777Y-120287340D01*
X181933261Y-120350292D01*
X181999834Y-120407977D01*
X182087026Y-120420514D01*
X182167153Y-120383921D01*
X182214777Y-120309816D01*
X182214777Y-118915772D01*
X182514917Y-118915772D01*
X182577869Y-118897288D01*
X182635554Y-118830715D01*
X182648091Y-118743523D01*
X182611498Y-118663396D01*
X182537393Y-118615772D01*
X182075508Y-118615772D01*
X182042528Y-118611030D01*
X182032145Y-118615772D01*
X181614638Y-118615772D01*
X181551686Y-118634256D01*
X181494001Y-118700829D01*
X181492021Y-118714592D01*
X181468641Y-118663396D01*
X181394536Y-118615772D01*
X180932651Y-118615772D01*
X180899671Y-118611030D01*
X180889288Y-118615772D01*
X180471781Y-118615772D01*
X180408829Y-118634256D01*
X180351144Y-118700829D01*
X180338607Y-118788021D01*
X179873165Y-118788021D01*
X179858518Y-118744081D01*
X179859130Y-118727178D01*
X179844857Y-118703098D01*
X179843117Y-118697877D01*
X179833910Y-118684629D01*
X179814215Y-118651401D01*
X179809001Y-118648788D01*
X179805674Y-118644000D01*
X179769993Y-118629240D01*
X179735462Y-118611935D01*
X179729661Y-118612555D01*
X179724276Y-118610328D01*
X179686284Y-118617199D01*
X179647875Y-118621312D01*
X179643332Y-118624968D01*
X179637594Y-118626007D01*
X179609337Y-118652338D01*
X179579260Y-118676554D01*
X179577416Y-118682085D01*
X179573151Y-118686060D01*
X179563618Y-118723477D01*
X179217613Y-119761494D01*
X179208287Y-119772258D01*
X179203933Y-119802533D01*
X179058512Y-120238799D01*
X179056140Y-120304366D01*
X178738315Y-120304366D01*
X178740339Y-120302342D01*
X178770619Y-120274177D01*
X178771345Y-120271336D01*
X178800402Y-120242279D01*
X178822102Y-120229391D01*
X178840576Y-120192441D01*
X178860396Y-120156146D01*
X178860186Y-120153221D01*
X178909615Y-120054363D01*
X178929063Y-120024102D01*
X178929063Y-119993450D01*
X178934493Y-119963276D01*
X178929063Y-119950184D01*
X178929063Y-119773848D01*
X178932924Y-119738085D01*
X178919216Y-119710670D01*
X178910579Y-119681252D01*
X178899867Y-119671970D01*
X178850209Y-119572654D01*
X178844845Y-119547993D01*
X178815633Y-119518781D01*
X178787468Y-119488502D01*
X178784627Y-119487775D01*
X178747984Y-119451132D01*
X178744794Y-119447169D01*
X178750673Y-119443678D01*
X178769156Y-119406711D01*
X178788966Y-119370433D01*
X178788756Y-119367510D01*
X178838187Y-119268649D01*
X178857635Y-119238388D01*
X178857635Y-119207735D01*
X178863065Y-119177563D01*
X178857635Y-119164471D01*
X178857635Y-119059561D01*
X178861496Y-119023797D01*
X178847787Y-118996381D01*
X178839151Y-118966966D01*
X178828439Y-118957684D01*
X178778781Y-118858369D01*
X178773416Y-118833706D01*
X178744185Y-118804475D01*
X178716039Y-118774216D01*
X178713199Y-118773489D01*
X178684141Y-118744432D01*
X178671254Y-118722734D01*
X178634300Y-118704257D01*
X178598009Y-118684440D01*
X178595084Y-118684649D01*
X178496222Y-118635217D01*
X178465964Y-118615772D01*
X178435313Y-118615772D01*
X178405139Y-118610342D01*
X178392047Y-118615772D01*
X177932651Y-118615772D01*
X177899671Y-118611030D01*
X177869364Y-118624870D01*
X177837400Y-118634256D01*
X177829925Y-118642881D01*
X177819544Y-118647623D01*
X177801531Y-118675650D01*
X177779715Y-118700829D01*
X177778090Y-118712126D01*
X177771920Y-118721728D01*
X177771920Y-118755041D01*
X177767178Y-118788021D01*
X177771920Y-118798404D01*
X177771920Y-119469327D01*
X177767178Y-119502307D01*
X177771920Y-119512690D01*
X177771920Y-120255041D01*
X177767178Y-120288021D01*
X176675492Y-120288021D01*
X176675492Y-117535058D01*
X183525492Y-117535058D01*
X183525492Y-121113630D01*
G37*
D11*
X133861634Y-139673153D02*
X134004491Y-139720772D01*
X134004491Y-139720772D02*
X134052110Y-139768391D01*
X134052110Y-139768391D02*
X134099729Y-139863629D01*
X134099729Y-139863629D02*
X134099729Y-140006486D01*
X134099729Y-140006486D02*
X134052110Y-140101724D01*
X134052110Y-140101724D02*
X134004491Y-140149344D01*
X134004491Y-140149344D02*
X133909253Y-140196963D01*
X133909253Y-140196963D02*
X133528301Y-140196963D01*
X133528301Y-140196963D02*
X133528301Y-139196963D01*
X133528301Y-139196963D02*
X133861634Y-139196963D01*
X133861634Y-139196963D02*
X133956872Y-139244582D01*
X133956872Y-139244582D02*
X134004491Y-139292201D01*
X134004491Y-139292201D02*
X134052110Y-139387439D01*
X134052110Y-139387439D02*
X134052110Y-139482677D01*
X134052110Y-139482677D02*
X134004491Y-139577915D01*
X134004491Y-139577915D02*
X133956872Y-139625534D01*
X133956872Y-139625534D02*
X133861634Y-139673153D01*
X133861634Y-139673153D02*
X133528301Y-139673153D01*
X134480682Y-139911248D02*
X134956872Y-139911248D01*
X134385444Y-140196963D02*
X134718777Y-139196963D01*
X134718777Y-139196963D02*
X135052110Y-140196963D01*
X135242587Y-139196963D02*
X135814015Y-139196963D01*
X135528301Y-140196963D02*
X135528301Y-139196963D01*
X136004492Y-139196963D02*
X136575920Y-139196963D01*
X136290206Y-140196963D02*
X136290206Y-139196963D01*
X137528302Y-139196963D02*
X137861635Y-140196963D01*
X137861635Y-140196963D02*
X138194968Y-139196963D01*
X139099730Y-140196963D02*
X138766397Y-139720772D01*
X138528302Y-140196963D02*
X138528302Y-139196963D01*
X138528302Y-139196963D02*
X138909254Y-139196963D01*
X138909254Y-139196963D02*
X139004492Y-139244582D01*
X139004492Y-139244582D02*
X139052111Y-139292201D01*
X139052111Y-139292201D02*
X139099730Y-139387439D01*
X139099730Y-139387439D02*
X139099730Y-139530296D01*
X139099730Y-139530296D02*
X139052111Y-139625534D01*
X139052111Y-139625534D02*
X139004492Y-139673153D01*
X139004492Y-139673153D02*
X138909254Y-139720772D01*
X138909254Y-139720772D02*
X138528302Y-139720772D01*
X139528302Y-139673153D02*
X139861635Y-139673153D01*
X140004492Y-140196963D02*
X139528302Y-140196963D01*
X139528302Y-140196963D02*
X139528302Y-139196963D01*
X139528302Y-139196963D02*
X140004492Y-139196963D01*
X140766397Y-139673153D02*
X140433064Y-139673153D01*
X140433064Y-140196963D02*
X140433064Y-139196963D01*
X140433064Y-139196963D02*
X140909254Y-139196963D01*
X142052112Y-140196963D02*
X142052112Y-139196963D01*
X142052112Y-139196963D02*
X142433064Y-139196963D01*
X142433064Y-139196963D02*
X142528302Y-139244582D01*
X142528302Y-139244582D02*
X142575921Y-139292201D01*
X142575921Y-139292201D02*
X142623540Y-139387439D01*
X142623540Y-139387439D02*
X142623540Y-139530296D01*
X142623540Y-139530296D02*
X142575921Y-139625534D01*
X142575921Y-139625534D02*
X142528302Y-139673153D01*
X142528302Y-139673153D02*
X142433064Y-139720772D01*
X142433064Y-139720772D02*
X142052112Y-139720772D01*
X143242588Y-139196963D02*
X143433064Y-139196963D01*
X143433064Y-139196963D02*
X143528302Y-139244582D01*
X143528302Y-139244582D02*
X143623540Y-139339820D01*
X143623540Y-139339820D02*
X143671159Y-139530296D01*
X143671159Y-139530296D02*
X143671159Y-139863629D01*
X143671159Y-139863629D02*
X143623540Y-140054105D01*
X143623540Y-140054105D02*
X143528302Y-140149344D01*
X143528302Y-140149344D02*
X143433064Y-140196963D01*
X143433064Y-140196963D02*
X143242588Y-140196963D01*
X143242588Y-140196963D02*
X143147350Y-140149344D01*
X143147350Y-140149344D02*
X143052112Y-140054105D01*
X143052112Y-140054105D02*
X143004493Y-139863629D01*
X143004493Y-139863629D02*
X143004493Y-139530296D01*
X143004493Y-139530296D02*
X143052112Y-139339820D01*
X143052112Y-139339820D02*
X143147350Y-139244582D01*
X143147350Y-139244582D02*
X143242588Y-139196963D01*
X144290207Y-139196963D02*
X144480683Y-139196963D01*
X144480683Y-139196963D02*
X144575921Y-139244582D01*
X144575921Y-139244582D02*
X144671159Y-139339820D01*
X144671159Y-139339820D02*
X144718778Y-139530296D01*
X144718778Y-139530296D02*
X144718778Y-139863629D01*
X144718778Y-139863629D02*
X144671159Y-140054105D01*
X144671159Y-140054105D02*
X144575921Y-140149344D01*
X144575921Y-140149344D02*
X144480683Y-140196963D01*
X144480683Y-140196963D02*
X144290207Y-140196963D01*
X144290207Y-140196963D02*
X144194969Y-140149344D01*
X144194969Y-140149344D02*
X144099731Y-140054105D01*
X144099731Y-140054105D02*
X144052112Y-139863629D01*
X144052112Y-139863629D02*
X144052112Y-139530296D01*
X144052112Y-139530296D02*
X144099731Y-139339820D01*
X144099731Y-139339820D02*
X144194969Y-139244582D01*
X144194969Y-139244582D02*
X144290207Y-139196963D01*
X145623540Y-140196963D02*
X145147350Y-140196963D01*
X145147350Y-140196963D02*
X145147350Y-139196963D01*
D10*
G36*
X178633751Y-90868306D02*
G01*
X178734357Y-90968912D01*
X178787535Y-91075266D01*
X178850492Y-91327093D01*
X178850492Y-91504451D01*
X178787536Y-91756273D01*
X178734358Y-91862630D01*
X178633749Y-91963239D01*
X178476151Y-92015772D01*
X178293349Y-92015772D01*
X178293349Y-90815772D01*
X178476151Y-90815772D01*
X178633751Y-90868306D01*
G37*
G36*
X180175493Y-93013630D02*
G01*
X173825492Y-93013630D01*
X173825492Y-91516566D01*
X174844288Y-91516566D01*
X174850492Y-91541382D01*
X174850492Y-91544483D01*
X174855710Y-91562256D01*
X174919918Y-91819088D01*
X174918059Y-91836317D01*
X174930392Y-91860984D01*
X174931630Y-91865933D01*
X174940003Y-91880205D01*
X175000773Y-92001744D01*
X175006139Y-92026408D01*
X175035363Y-92055633D01*
X175063516Y-92085899D01*
X175066355Y-92086625D01*
X175174430Y-92194701D01*
X175196988Y-92222719D01*
X175226067Y-92232412D01*
X175252974Y-92247104D01*
X175267110Y-92246092D01*
X175435217Y-92302127D01*
X175456448Y-92315772D01*
X175497771Y-92315772D01*
X175539086Y-92317266D01*
X175541607Y-92315772D01*
X175624544Y-92315772D01*
X175648999Y-92322002D01*
X175688187Y-92308939D01*
X175727869Y-92297288D01*
X175729788Y-92295072D01*
X175897406Y-92239200D01*
X175932558Y-92231553D01*
X175954230Y-92209880D01*
X175979406Y-92192384D01*
X175984824Y-92179285D01*
X176015990Y-92148119D01*
X176031439Y-92141064D01*
X176046534Y-92117574D01*
X176050380Y-92113729D01*
X176058146Y-92099505D01*
X176079063Y-92066959D01*
X176079063Y-92061201D01*
X176081824Y-92056145D01*
X176079063Y-92017553D01*
X176079063Y-91533646D01*
X176083805Y-91500666D01*
X176069964Y-91470359D01*
X176060579Y-91438395D01*
X176051953Y-91430920D01*
X176047212Y-91420539D01*
X176019184Y-91402526D01*
X175994006Y-91380710D01*
X175982708Y-91379085D01*
X175973107Y-91372915D01*
X175939794Y-91372915D01*
X175906814Y-91368173D01*
X175896431Y-91372915D01*
X175621781Y-91372915D01*
X175558829Y-91391399D01*
X175501144Y-91457972D01*
X175488607Y-91545164D01*
X175525200Y-91625291D01*
X175599305Y-91672915D01*
X175779063Y-91672915D01*
X175779063Y-91960784D01*
X175776606Y-91963239D01*
X175619008Y-92015772D01*
X175524834Y-92015772D01*
X175367233Y-91963239D01*
X175266626Y-91862630D01*
X175213448Y-91756276D01*
X175150492Y-91504451D01*
X175150492Y-91327093D01*
X175213446Y-91075272D01*
X175266627Y-90968912D01*
X175367233Y-90868305D01*
X175524833Y-90815772D01*
X175679367Y-90815772D01*
X175809843Y-90881010D01*
X175874416Y-90892631D01*
X175955783Y-90858884D01*
X176005990Y-90786504D01*
X176008972Y-90701952D01*
X176419832Y-90701952D01*
X176421920Y-90705606D01*
X176421920Y-92187340D01*
X176440404Y-92250292D01*
X176506977Y-92307977D01*
X176594169Y-92320514D01*
X176674296Y-92283921D01*
X176721920Y-92209816D01*
X176721920Y-91230606D01*
X177290095Y-92224913D01*
X177297547Y-92250292D01*
X177327880Y-92276575D01*
X177356809Y-92304406D01*
X177360939Y-92305221D01*
X177364120Y-92307977D01*
X177403853Y-92313690D01*
X177443230Y-92321461D01*
X177447143Y-92319914D01*
X177451312Y-92320514D01*
X177487835Y-92303834D01*
X177525154Y-92289087D01*
X177527610Y-92285669D01*
X177531439Y-92283921D01*
X177553130Y-92250167D01*
X177576569Y-92217562D01*
X177576788Y-92213355D01*
X177579063Y-92209816D01*
X177579063Y-92188021D01*
X177988607Y-92188021D01*
X178002447Y-92218327D01*
X178011833Y-92250292D01*
X178020458Y-92257766D01*
X178025200Y-92268148D01*
X178053227Y-92286160D01*
X178078406Y-92307977D01*
X178089703Y-92309601D01*
X178099305Y-92315772D01*
X178132618Y-92315772D01*
X178165598Y-92320514D01*
X178175981Y-92315772D01*
X178481687Y-92315772D01*
X178506142Y-92322002D01*
X178545330Y-92308939D01*
X178585012Y-92297288D01*
X178586931Y-92295072D01*
X178754545Y-92239201D01*
X178789701Y-92231554D01*
X178811377Y-92209877D01*
X178836549Y-92192384D01*
X178841966Y-92179287D01*
X178950401Y-92070851D01*
X178972102Y-92057963D01*
X178990583Y-92021000D01*
X179010396Y-91984717D01*
X179010186Y-91981793D01*
X179051279Y-91899607D01*
X179063903Y-91887738D01*
X179070591Y-91860984D01*
X179072873Y-91856421D01*
X179075804Y-91840130D01*
X179140025Y-91583245D01*
X179150492Y-91566959D01*
X179150492Y-91541379D01*
X179151244Y-91538371D01*
X179150492Y-91519866D01*
X179150492Y-91333316D01*
X179156696Y-91314978D01*
X179150492Y-91290162D01*
X179150492Y-91287061D01*
X179145273Y-91269287D01*
X179081064Y-91012454D01*
X179082925Y-90995226D01*
X179070590Y-90970557D01*
X179069354Y-90965611D01*
X179060982Y-90951341D01*
X179000210Y-90829798D01*
X178994845Y-90805136D01*
X178965624Y-90775915D01*
X178937468Y-90745645D01*
X178934627Y-90744918D01*
X178826554Y-90636845D01*
X178803996Y-90608826D01*
X178774915Y-90599132D01*
X178748009Y-90584440D01*
X178733871Y-90585451D01*
X178565767Y-90529416D01*
X178544536Y-90515772D01*
X178503223Y-90515772D01*
X178461899Y-90514277D01*
X178459377Y-90515772D01*
X178154080Y-90515772D01*
X178121100Y-90511030D01*
X178090793Y-90524870D01*
X178058829Y-90534256D01*
X178051354Y-90542881D01*
X178040973Y-90547623D01*
X178022960Y-90575650D01*
X178001144Y-90600829D01*
X177999519Y-90612126D01*
X177993349Y-90621728D01*
X177993349Y-90655041D01*
X177988607Y-90688021D01*
X177993349Y-90698404D01*
X177993349Y-92155041D01*
X177988607Y-92188021D01*
X177579063Y-92188021D01*
X177579063Y-92169690D01*
X177581152Y-92129592D01*
X177579063Y-92125936D01*
X177579063Y-90644204D01*
X177560579Y-90581252D01*
X177494006Y-90523567D01*
X177406814Y-90511030D01*
X177326687Y-90547623D01*
X177279063Y-90621728D01*
X177279063Y-91600937D01*
X176710887Y-90606630D01*
X176703436Y-90581252D01*
X176673102Y-90554968D01*
X176644174Y-90527138D01*
X176640043Y-90526322D01*
X176636863Y-90523567D01*
X176597129Y-90517853D01*
X176557753Y-90510083D01*
X176553839Y-90511629D01*
X176549671Y-90511030D01*
X176513147Y-90527709D01*
X176475829Y-90542457D01*
X176473372Y-90545874D01*
X176469544Y-90547623D01*
X176447848Y-90581381D01*
X176424414Y-90613983D01*
X176424194Y-90618188D01*
X176421920Y-90621728D01*
X176421920Y-90661865D01*
X176419832Y-90701952D01*
X176008972Y-90701952D01*
X176009095Y-90698471D01*
X175964111Y-90622734D01*
X175789087Y-90535222D01*
X175758822Y-90515772D01*
X175728169Y-90515772D01*
X175697997Y-90510342D01*
X175684905Y-90515772D01*
X175519296Y-90515772D01*
X175494841Y-90509542D01*
X175455648Y-90522606D01*
X175415972Y-90534256D01*
X175414052Y-90536471D01*
X175246433Y-90592344D01*
X175211284Y-90599991D01*
X175189609Y-90621665D01*
X175164434Y-90639162D01*
X175159016Y-90652258D01*
X175050581Y-90760693D01*
X175028882Y-90773582D01*
X175010406Y-90810533D01*
X174990588Y-90846827D01*
X174990797Y-90849751D01*
X174949705Y-90931935D01*
X174937081Y-90943806D01*
X174930392Y-90970561D01*
X174928111Y-90975124D01*
X174925179Y-90991411D01*
X174860958Y-91248298D01*
X174850492Y-91264585D01*
X174850492Y-91290165D01*
X174849740Y-91293173D01*
X174850492Y-91311678D01*
X174850492Y-91498227D01*
X174844288Y-91516566D01*
X173825492Y-91516566D01*
X173825492Y-89435058D01*
X180175493Y-89435058D01*
X180175493Y-93013630D01*
G37*
G36*
X153725923Y-104460479D02*
G01*
X153822189Y-104556745D01*
X153879063Y-104784237D01*
X153879063Y-105247307D01*
X153822189Y-105474797D01*
X153725922Y-105571066D01*
X153636510Y-105615772D01*
X153421616Y-105615772D01*
X153332202Y-105571065D01*
X153235935Y-105474798D01*
X153179063Y-105247308D01*
X153179063Y-104784236D01*
X153235934Y-104556746D01*
X153332204Y-104460477D01*
X153421616Y-104415772D01*
X153636509Y-104415772D01*
X153725923Y-104460479D01*
G37*
G36*
X152154494Y-104460479D02*
G01*
X152250760Y-104556745D01*
X152307634Y-104784237D01*
X152307634Y-105247307D01*
X152250760Y-105474797D01*
X152154493Y-105571066D01*
X152065081Y-105615772D01*
X151850187Y-105615772D01*
X151760773Y-105571065D01*
X151664506Y-105474798D01*
X151607634Y-105247308D01*
X151607634Y-104784236D01*
X151664505Y-104556746D01*
X151760775Y-104460477D01*
X151850187Y-104415772D01*
X152065080Y-104415772D01*
X152154494Y-104460479D01*
G37*
G36*
X150654495Y-104460479D02*
G01*
X150691498Y-104497482D01*
X150736205Y-104586896D01*
X150736205Y-104730362D01*
X150691498Y-104819776D01*
X150654493Y-104856780D01*
X150565081Y-104901486D01*
X150179062Y-104901486D01*
X150179062Y-104415772D01*
X150565080Y-104415772D01*
X150654495Y-104460479D01*
G37*
G36*
X156418350Y-106613630D02*
G01*
X148782634Y-106613630D01*
X148782634Y-105073735D01*
X149874320Y-105073735D01*
X149879062Y-105084118D01*
X149879062Y-105787340D01*
X149897546Y-105850292D01*
X149964119Y-105907977D01*
X150051311Y-105920514D01*
X150131438Y-105883921D01*
X150179062Y-105809816D01*
X150179062Y-105259423D01*
X151301430Y-105259423D01*
X151307634Y-105284239D01*
X151307634Y-105287340D01*
X151312852Y-105305113D01*
X151382974Y-105585600D01*
X151391852Y-105626408D01*
X151409408Y-105643964D01*
X151421972Y-105665379D01*
X151439915Y-105674471D01*
X151552555Y-105787111D01*
X151565444Y-105808811D01*
X151602393Y-105827285D01*
X151638689Y-105847105D01*
X151641613Y-105846895D01*
X151740471Y-105896324D01*
X151770733Y-105915772D01*
X151801385Y-105915772D01*
X151831559Y-105921202D01*
X151844651Y-105915772D01*
X152092415Y-105915772D01*
X152128178Y-105919633D01*
X152155592Y-105905925D01*
X152185011Y-105897288D01*
X152194292Y-105886576D01*
X152293608Y-105836919D01*
X152318271Y-105831554D01*
X152347491Y-105802333D01*
X152377761Y-105774177D01*
X152378487Y-105771337D01*
X152490633Y-105659189D01*
X152521044Y-105630596D01*
X152527065Y-105606511D01*
X152538966Y-105584717D01*
X152537530Y-105564649D01*
X152597167Y-105326101D01*
X152607634Y-105309816D01*
X152607634Y-105284237D01*
X152608386Y-105281229D01*
X152607634Y-105262724D01*
X152607634Y-105259423D01*
X152872859Y-105259423D01*
X152879063Y-105284239D01*
X152879063Y-105287340D01*
X152884281Y-105305113D01*
X152954403Y-105585600D01*
X152963281Y-105626408D01*
X152980837Y-105643964D01*
X152993401Y-105665379D01*
X153011344Y-105674471D01*
X153123984Y-105787111D01*
X153136873Y-105808811D01*
X153173822Y-105827285D01*
X153210118Y-105847105D01*
X153213042Y-105846895D01*
X153311900Y-105896324D01*
X153342162Y-105915772D01*
X153372814Y-105915772D01*
X153402988Y-105921202D01*
X153416080Y-105915772D01*
X153663844Y-105915772D01*
X153699607Y-105919633D01*
X153727021Y-105905925D01*
X153756440Y-105897288D01*
X153765721Y-105886576D01*
X153865037Y-105836919D01*
X153889700Y-105831554D01*
X153918920Y-105802333D01*
X153934307Y-105788021D01*
X154517178Y-105788021D01*
X154531018Y-105818327D01*
X154540404Y-105850292D01*
X154549029Y-105857766D01*
X154553771Y-105868148D01*
X154581798Y-105886160D01*
X154606977Y-105907977D01*
X154618274Y-105909601D01*
X154627876Y-105915772D01*
X154661189Y-105915772D01*
X154694169Y-105920514D01*
X154704552Y-105915772D01*
X155407774Y-105915772D01*
X155470726Y-105897288D01*
X155528411Y-105830715D01*
X155540948Y-105743523D01*
X155504355Y-105663396D01*
X155430250Y-105615772D01*
X154821920Y-105615772D01*
X154821920Y-104244204D01*
X154803436Y-104181252D01*
X154736863Y-104123567D01*
X154649671Y-104111030D01*
X154569544Y-104147623D01*
X154521920Y-104221728D01*
X154521920Y-105755041D01*
X154517178Y-105788021D01*
X153934307Y-105788021D01*
X153949190Y-105774177D01*
X153949916Y-105771337D01*
X154062062Y-105659189D01*
X154092473Y-105630596D01*
X154098494Y-105606511D01*
X154110395Y-105584717D01*
X154108959Y-105564649D01*
X154168596Y-105326101D01*
X154179063Y-105309816D01*
X154179063Y-105284237D01*
X154179815Y-105281229D01*
X154179063Y-105262724D01*
X154179063Y-104790459D01*
X154185267Y-104772120D01*
X154179063Y-104747304D01*
X154179063Y-104744204D01*
X154173845Y-104726433D01*
X154103719Y-104445933D01*
X154094844Y-104405136D01*
X154077289Y-104387581D01*
X154064724Y-104366164D01*
X154046778Y-104357070D01*
X153934141Y-104244433D01*
X153921253Y-104222734D01*
X153884301Y-104204258D01*
X153848008Y-104184440D01*
X153845083Y-104184649D01*
X153746229Y-104135222D01*
X153715964Y-104115772D01*
X153685311Y-104115772D01*
X153655139Y-104110342D01*
X153642047Y-104115772D01*
X153394281Y-104115772D01*
X153358517Y-104111911D01*
X153331101Y-104125619D01*
X153301686Y-104134256D01*
X153292404Y-104144967D01*
X153193089Y-104194625D01*
X153168427Y-104199991D01*
X153139201Y-104229215D01*
X153108936Y-104257368D01*
X153108209Y-104260207D01*
X152996043Y-104372373D01*
X152965652Y-104400949D01*
X152959631Y-104425032D01*
X152947731Y-104446826D01*
X152949166Y-104466892D01*
X152889529Y-104705441D01*
X152879063Y-104721728D01*
X152879063Y-104747308D01*
X152878311Y-104750316D01*
X152879063Y-104768821D01*
X152879063Y-105241084D01*
X152872859Y-105259423D01*
X152607634Y-105259423D01*
X152607634Y-104790459D01*
X152613838Y-104772120D01*
X152607634Y-104747304D01*
X152607634Y-104744204D01*
X152602416Y-104726433D01*
X152532290Y-104445933D01*
X152523415Y-104405136D01*
X152505860Y-104387581D01*
X152493295Y-104366164D01*
X152475349Y-104357070D01*
X152362712Y-104244433D01*
X152349824Y-104222734D01*
X152312872Y-104204258D01*
X152276579Y-104184440D01*
X152273654Y-104184649D01*
X152174800Y-104135222D01*
X152144535Y-104115772D01*
X152113882Y-104115772D01*
X152083710Y-104110342D01*
X152070618Y-104115772D01*
X151822852Y-104115772D01*
X151787088Y-104111911D01*
X151759672Y-104125619D01*
X151730257Y-104134256D01*
X151720975Y-104144967D01*
X151621660Y-104194625D01*
X151596998Y-104199991D01*
X151567772Y-104229215D01*
X151537507Y-104257368D01*
X151536780Y-104260207D01*
X151424614Y-104372373D01*
X151394223Y-104400949D01*
X151388202Y-104425032D01*
X151376302Y-104446826D01*
X151377737Y-104466892D01*
X151318100Y-104705441D01*
X151307634Y-104721728D01*
X151307634Y-104747308D01*
X151306882Y-104750316D01*
X151307634Y-104768821D01*
X151307634Y-105241084D01*
X151301430Y-105259423D01*
X150179062Y-105259423D01*
X150179062Y-105201486D01*
X150592415Y-105201486D01*
X150628178Y-105205347D01*
X150655592Y-105191639D01*
X150685011Y-105183002D01*
X150694292Y-105172290D01*
X150793608Y-105122632D01*
X150818270Y-105117268D01*
X150847481Y-105088056D01*
X150877761Y-105059891D01*
X150878487Y-105057050D01*
X150907544Y-105027993D01*
X150929244Y-105015105D01*
X150947718Y-104978155D01*
X150967538Y-104941860D01*
X150967328Y-104938935D01*
X151016757Y-104840077D01*
X151036205Y-104809816D01*
X151036205Y-104779164D01*
X151041635Y-104748990D01*
X151036205Y-104735898D01*
X151036205Y-104559562D01*
X151040066Y-104523799D01*
X151026358Y-104496384D01*
X151017721Y-104466966D01*
X151007009Y-104457684D01*
X150957351Y-104358366D01*
X150951986Y-104333706D01*
X150922778Y-104304498D01*
X150894610Y-104274216D01*
X150891769Y-104273489D01*
X150862711Y-104244432D01*
X150849824Y-104222734D01*
X150812874Y-104204259D01*
X150776578Y-104184440D01*
X150773654Y-104184649D01*
X150674800Y-104135222D01*
X150644535Y-104115772D01*
X150613882Y-104115772D01*
X150583710Y-104110342D01*
X150570618Y-104115772D01*
X150039793Y-104115772D01*
X150006813Y-104111030D01*
X149976506Y-104124870D01*
X149944542Y-104134256D01*
X149937067Y-104142881D01*
X149926686Y-104147623D01*
X149908673Y-104175650D01*
X149886857Y-104200829D01*
X149885232Y-104212126D01*
X149879062Y-104221728D01*
X149879062Y-104255041D01*
X149874320Y-104288021D01*
X149879062Y-104298404D01*
X149879062Y-105040755D01*
X149874320Y-105073735D01*
X148782634Y-105073735D01*
X148782634Y-103035058D01*
X156418350Y-103035058D01*
X156418350Y-106613630D01*
G37*
D12*
%TO.C,U4*%
X166838587Y-99361963D02*
X166838587Y-100171486D01*
X166838587Y-100171486D02*
X166886206Y-100266724D01*
X166886206Y-100266724D02*
X166933825Y-100314344D01*
X166933825Y-100314344D02*
X167029063Y-100361963D01*
X167029063Y-100361963D02*
X167219539Y-100361963D01*
X167219539Y-100361963D02*
X167314777Y-100314344D01*
X167314777Y-100314344D02*
X167362396Y-100266724D01*
X167362396Y-100266724D02*
X167410015Y-100171486D01*
X167410015Y-100171486D02*
X167410015Y-99361963D01*
X168314777Y-99695296D02*
X168314777Y-100361963D01*
X168076682Y-99314344D02*
X167838587Y-100028629D01*
X167838587Y-100028629D02*
X168457634Y-100028629D01*
%TO.C,Q2*%
X167378349Y-117584582D02*
X167330730Y-117679820D01*
X167330730Y-117679820D02*
X167235492Y-117775058D01*
X167235492Y-117775058D02*
X167092634Y-117917915D01*
X167092634Y-117917915D02*
X167045015Y-118013153D01*
X167045015Y-118013153D02*
X167045015Y-118108391D01*
X167283111Y-118060772D02*
X167235492Y-118156010D01*
X167235492Y-118156010D02*
X167140253Y-118251248D01*
X167140253Y-118251248D02*
X166949777Y-118298867D01*
X166949777Y-118298867D02*
X166616444Y-118298867D01*
X166616444Y-118298867D02*
X166425968Y-118251248D01*
X166425968Y-118251248D02*
X166330730Y-118156010D01*
X166330730Y-118156010D02*
X166283111Y-118060772D01*
X166283111Y-118060772D02*
X166283111Y-117870296D01*
X166283111Y-117870296D02*
X166330730Y-117775058D01*
X166330730Y-117775058D02*
X166425968Y-117679820D01*
X166425968Y-117679820D02*
X166616444Y-117632201D01*
X166616444Y-117632201D02*
X166949777Y-117632201D01*
X166949777Y-117632201D02*
X167140253Y-117679820D01*
X167140253Y-117679820D02*
X167235492Y-117775058D01*
X167235492Y-117775058D02*
X167283111Y-117870296D01*
X167283111Y-117870296D02*
X167283111Y-118060772D01*
X166378349Y-117251248D02*
X166330730Y-117203629D01*
X166330730Y-117203629D02*
X166283111Y-117108391D01*
X166283111Y-117108391D02*
X166283111Y-116870296D01*
X166283111Y-116870296D02*
X166330730Y-116775058D01*
X166330730Y-116775058D02*
X166378349Y-116727439D01*
X166378349Y-116727439D02*
X166473587Y-116679820D01*
X166473587Y-116679820D02*
X166568825Y-116679820D01*
X166568825Y-116679820D02*
X166711682Y-116727439D01*
X166711682Y-116727439D02*
X167283111Y-117298867D01*
X167283111Y-117298867D02*
X167283111Y-116679820D01*
%TO.C,D10*%
X192886206Y-94911963D02*
X192886206Y-93911963D01*
X192886206Y-93911963D02*
X193124301Y-93911963D01*
X193124301Y-93911963D02*
X193267158Y-93959582D01*
X193267158Y-93959582D02*
X193362396Y-94054820D01*
X193362396Y-94054820D02*
X193410015Y-94150058D01*
X193410015Y-94150058D02*
X193457634Y-94340534D01*
X193457634Y-94340534D02*
X193457634Y-94483391D01*
X193457634Y-94483391D02*
X193410015Y-94673867D01*
X193410015Y-94673867D02*
X193362396Y-94769105D01*
X193362396Y-94769105D02*
X193267158Y-94864344D01*
X193267158Y-94864344D02*
X193124301Y-94911963D01*
X193124301Y-94911963D02*
X192886206Y-94911963D01*
X194410015Y-94911963D02*
X193838587Y-94911963D01*
X194124301Y-94911963D02*
X194124301Y-93911963D01*
X194124301Y-93911963D02*
X194029063Y-94054820D01*
X194029063Y-94054820D02*
X193933825Y-94150058D01*
X193933825Y-94150058D02*
X193838587Y-94197677D01*
X195029063Y-93911963D02*
X195124301Y-93911963D01*
X195124301Y-93911963D02*
X195219539Y-93959582D01*
X195219539Y-93959582D02*
X195267158Y-94007201D01*
X195267158Y-94007201D02*
X195314777Y-94102439D01*
X195314777Y-94102439D02*
X195362396Y-94292915D01*
X195362396Y-94292915D02*
X195362396Y-94531010D01*
X195362396Y-94531010D02*
X195314777Y-94721486D01*
X195314777Y-94721486D02*
X195267158Y-94816724D01*
X195267158Y-94816724D02*
X195219539Y-94864344D01*
X195219539Y-94864344D02*
X195124301Y-94911963D01*
X195124301Y-94911963D02*
X195029063Y-94911963D01*
X195029063Y-94911963D02*
X194933825Y-94864344D01*
X194933825Y-94864344D02*
X194886206Y-94816724D01*
X194886206Y-94816724D02*
X194838587Y-94721486D01*
X194838587Y-94721486D02*
X194790968Y-94531010D01*
X194790968Y-94531010D02*
X194790968Y-94292915D01*
X194790968Y-94292915D02*
X194838587Y-94102439D01*
X194838587Y-94102439D02*
X194886206Y-94007201D01*
X194886206Y-94007201D02*
X194933825Y-93959582D01*
X194933825Y-93959582D02*
X195029063Y-93911963D01*
%TO.C,Q1*%
X176045253Y-103287201D02*
X175950015Y-103239582D01*
X175950015Y-103239582D02*
X175854777Y-103144344D01*
X175854777Y-103144344D02*
X175711920Y-103001486D01*
X175711920Y-103001486D02*
X175616682Y-102953867D01*
X175616682Y-102953867D02*
X175521444Y-102953867D01*
X175569063Y-103191963D02*
X175473825Y-103144344D01*
X175473825Y-103144344D02*
X175378587Y-103049105D01*
X175378587Y-103049105D02*
X175330968Y-102858629D01*
X175330968Y-102858629D02*
X175330968Y-102525296D01*
X175330968Y-102525296D02*
X175378587Y-102334820D01*
X175378587Y-102334820D02*
X175473825Y-102239582D01*
X175473825Y-102239582D02*
X175569063Y-102191963D01*
X175569063Y-102191963D02*
X175759539Y-102191963D01*
X175759539Y-102191963D02*
X175854777Y-102239582D01*
X175854777Y-102239582D02*
X175950015Y-102334820D01*
X175950015Y-102334820D02*
X175997634Y-102525296D01*
X175997634Y-102525296D02*
X175997634Y-102858629D01*
X175997634Y-102858629D02*
X175950015Y-103049105D01*
X175950015Y-103049105D02*
X175854777Y-103144344D01*
X175854777Y-103144344D02*
X175759539Y-103191963D01*
X175759539Y-103191963D02*
X175569063Y-103191963D01*
X176950015Y-103191963D02*
X176378587Y-103191963D01*
X176664301Y-103191963D02*
X176664301Y-102191963D01*
X176664301Y-102191963D02*
X176569063Y-102334820D01*
X176569063Y-102334820D02*
X176473825Y-102430058D01*
X176473825Y-102430058D02*
X176378587Y-102477677D01*
%TO.C,C14*%
X112445634Y-113254724D02*
X112398015Y-113302344D01*
X112398015Y-113302344D02*
X112255158Y-113349963D01*
X112255158Y-113349963D02*
X112159920Y-113349963D01*
X112159920Y-113349963D02*
X112017063Y-113302344D01*
X112017063Y-113302344D02*
X111921825Y-113207105D01*
X111921825Y-113207105D02*
X111874206Y-113111867D01*
X111874206Y-113111867D02*
X111826587Y-112921391D01*
X111826587Y-112921391D02*
X111826587Y-112778534D01*
X111826587Y-112778534D02*
X111874206Y-112588058D01*
X111874206Y-112588058D02*
X111921825Y-112492820D01*
X111921825Y-112492820D02*
X112017063Y-112397582D01*
X112017063Y-112397582D02*
X112159920Y-112349963D01*
X112159920Y-112349963D02*
X112255158Y-112349963D01*
X112255158Y-112349963D02*
X112398015Y-112397582D01*
X112398015Y-112397582D02*
X112445634Y-112445201D01*
X113398015Y-113349963D02*
X112826587Y-113349963D01*
X113112301Y-113349963D02*
X113112301Y-112349963D01*
X113112301Y-112349963D02*
X113017063Y-112492820D01*
X113017063Y-112492820D02*
X112921825Y-112588058D01*
X112921825Y-112588058D02*
X112826587Y-112635677D01*
X114255158Y-112683296D02*
X114255158Y-113349963D01*
X114017063Y-112302344D02*
X113778968Y-113016629D01*
X113778968Y-113016629D02*
X114398015Y-113016629D01*
%TO.C,U3*%
X161338587Y-76236963D02*
X161338587Y-77046486D01*
X161338587Y-77046486D02*
X161386206Y-77141724D01*
X161386206Y-77141724D02*
X161433825Y-77189344D01*
X161433825Y-77189344D02*
X161529063Y-77236963D01*
X161529063Y-77236963D02*
X161719539Y-77236963D01*
X161719539Y-77236963D02*
X161814777Y-77189344D01*
X161814777Y-77189344D02*
X161862396Y-77141724D01*
X161862396Y-77141724D02*
X161910015Y-77046486D01*
X161910015Y-77046486D02*
X161910015Y-76236963D01*
X162290968Y-76236963D02*
X162910015Y-76236963D01*
X162910015Y-76236963D02*
X162576682Y-76617915D01*
X162576682Y-76617915D02*
X162719539Y-76617915D01*
X162719539Y-76617915D02*
X162814777Y-76665534D01*
X162814777Y-76665534D02*
X162862396Y-76713153D01*
X162862396Y-76713153D02*
X162910015Y-76808391D01*
X162910015Y-76808391D02*
X162910015Y-77046486D01*
X162910015Y-77046486D02*
X162862396Y-77141724D01*
X162862396Y-77141724D02*
X162814777Y-77189344D01*
X162814777Y-77189344D02*
X162719539Y-77236963D01*
X162719539Y-77236963D02*
X162433825Y-77236963D01*
X162433825Y-77236963D02*
X162338587Y-77189344D01*
X162338587Y-77189344D02*
X162290968Y-77141724D01*
%TO.C,C8*%
X124859825Y-115032724D02*
X124812206Y-115080344D01*
X124812206Y-115080344D02*
X124669349Y-115127963D01*
X124669349Y-115127963D02*
X124574111Y-115127963D01*
X124574111Y-115127963D02*
X124431254Y-115080344D01*
X124431254Y-115080344D02*
X124336016Y-114985105D01*
X124336016Y-114985105D02*
X124288397Y-114889867D01*
X124288397Y-114889867D02*
X124240778Y-114699391D01*
X124240778Y-114699391D02*
X124240778Y-114556534D01*
X124240778Y-114556534D02*
X124288397Y-114366058D01*
X124288397Y-114366058D02*
X124336016Y-114270820D01*
X124336016Y-114270820D02*
X124431254Y-114175582D01*
X124431254Y-114175582D02*
X124574111Y-114127963D01*
X124574111Y-114127963D02*
X124669349Y-114127963D01*
X124669349Y-114127963D02*
X124812206Y-114175582D01*
X124812206Y-114175582D02*
X124859825Y-114223201D01*
X125431254Y-114556534D02*
X125336016Y-114508915D01*
X125336016Y-114508915D02*
X125288397Y-114461296D01*
X125288397Y-114461296D02*
X125240778Y-114366058D01*
X125240778Y-114366058D02*
X125240778Y-114318439D01*
X125240778Y-114318439D02*
X125288397Y-114223201D01*
X125288397Y-114223201D02*
X125336016Y-114175582D01*
X125336016Y-114175582D02*
X125431254Y-114127963D01*
X125431254Y-114127963D02*
X125621730Y-114127963D01*
X125621730Y-114127963D02*
X125716968Y-114175582D01*
X125716968Y-114175582D02*
X125764587Y-114223201D01*
X125764587Y-114223201D02*
X125812206Y-114318439D01*
X125812206Y-114318439D02*
X125812206Y-114366058D01*
X125812206Y-114366058D02*
X125764587Y-114461296D01*
X125764587Y-114461296D02*
X125716968Y-114508915D01*
X125716968Y-114508915D02*
X125621730Y-114556534D01*
X125621730Y-114556534D02*
X125431254Y-114556534D01*
X125431254Y-114556534D02*
X125336016Y-114604153D01*
X125336016Y-114604153D02*
X125288397Y-114651772D01*
X125288397Y-114651772D02*
X125240778Y-114747010D01*
X125240778Y-114747010D02*
X125240778Y-114937486D01*
X125240778Y-114937486D02*
X125288397Y-115032724D01*
X125288397Y-115032724D02*
X125336016Y-115080344D01*
X125336016Y-115080344D02*
X125431254Y-115127963D01*
X125431254Y-115127963D02*
X125621730Y-115127963D01*
X125621730Y-115127963D02*
X125716968Y-115080344D01*
X125716968Y-115080344D02*
X125764587Y-115032724D01*
X125764587Y-115032724D02*
X125812206Y-114937486D01*
X125812206Y-114937486D02*
X125812206Y-114747010D01*
X125812206Y-114747010D02*
X125764587Y-114651772D01*
X125764587Y-114651772D02*
X125716968Y-114604153D01*
X125716968Y-114604153D02*
X125621730Y-114556534D01*
%TO.C,U1*%
X128338587Y-76236963D02*
X128338587Y-77046486D01*
X128338587Y-77046486D02*
X128386206Y-77141724D01*
X128386206Y-77141724D02*
X128433825Y-77189344D01*
X128433825Y-77189344D02*
X128529063Y-77236963D01*
X128529063Y-77236963D02*
X128719539Y-77236963D01*
X128719539Y-77236963D02*
X128814777Y-77189344D01*
X128814777Y-77189344D02*
X128862396Y-77141724D01*
X128862396Y-77141724D02*
X128910015Y-77046486D01*
X128910015Y-77046486D02*
X128910015Y-76236963D01*
X129910015Y-77236963D02*
X129338587Y-77236963D01*
X129624301Y-77236963D02*
X129624301Y-76236963D01*
X129624301Y-76236963D02*
X129529063Y-76379820D01*
X129529063Y-76379820D02*
X129433825Y-76475058D01*
X129433825Y-76475058D02*
X129338587Y-76522677D01*
%TO.C,TP3*%
X154638587Y-100511963D02*
X155210015Y-100511963D01*
X154924301Y-101511963D02*
X154924301Y-100511963D01*
X155543349Y-101511963D02*
X155543349Y-100511963D01*
X155543349Y-100511963D02*
X155924301Y-100511963D01*
X155924301Y-100511963D02*
X156019539Y-100559582D01*
X156019539Y-100559582D02*
X156067158Y-100607201D01*
X156067158Y-100607201D02*
X156114777Y-100702439D01*
X156114777Y-100702439D02*
X156114777Y-100845296D01*
X156114777Y-100845296D02*
X156067158Y-100940534D01*
X156067158Y-100940534D02*
X156019539Y-100988153D01*
X156019539Y-100988153D02*
X155924301Y-101035772D01*
X155924301Y-101035772D02*
X155543349Y-101035772D01*
X156448111Y-100511963D02*
X157067158Y-100511963D01*
X157067158Y-100511963D02*
X156733825Y-100892915D01*
X156733825Y-100892915D02*
X156876682Y-100892915D01*
X156876682Y-100892915D02*
X156971920Y-100940534D01*
X156971920Y-100940534D02*
X157019539Y-100988153D01*
X157019539Y-100988153D02*
X157067158Y-101083391D01*
X157067158Y-101083391D02*
X157067158Y-101321486D01*
X157067158Y-101321486D02*
X157019539Y-101416724D01*
X157019539Y-101416724D02*
X156971920Y-101464344D01*
X156971920Y-101464344D02*
X156876682Y-101511963D01*
X156876682Y-101511963D02*
X156590968Y-101511963D01*
X156590968Y-101511963D02*
X156495730Y-101464344D01*
X156495730Y-101464344D02*
X156448111Y-101416724D01*
%TO.C,TP4*%
X155438587Y-125211963D02*
X156010015Y-125211963D01*
X155724301Y-126211963D02*
X155724301Y-125211963D01*
X156343349Y-126211963D02*
X156343349Y-125211963D01*
X156343349Y-125211963D02*
X156724301Y-125211963D01*
X156724301Y-125211963D02*
X156819539Y-125259582D01*
X156819539Y-125259582D02*
X156867158Y-125307201D01*
X156867158Y-125307201D02*
X156914777Y-125402439D01*
X156914777Y-125402439D02*
X156914777Y-125545296D01*
X156914777Y-125545296D02*
X156867158Y-125640534D01*
X156867158Y-125640534D02*
X156819539Y-125688153D01*
X156819539Y-125688153D02*
X156724301Y-125735772D01*
X156724301Y-125735772D02*
X156343349Y-125735772D01*
X157771920Y-125545296D02*
X157771920Y-126211963D01*
X157533825Y-125164344D02*
X157295730Y-125878629D01*
X157295730Y-125878629D02*
X157914777Y-125878629D01*
%TO.C,TP5*%
X173588587Y-121161963D02*
X174160015Y-121161963D01*
X173874301Y-122161963D02*
X173874301Y-121161963D01*
X174493349Y-122161963D02*
X174493349Y-121161963D01*
X174493349Y-121161963D02*
X174874301Y-121161963D01*
X174874301Y-121161963D02*
X174969539Y-121209582D01*
X174969539Y-121209582D02*
X175017158Y-121257201D01*
X175017158Y-121257201D02*
X175064777Y-121352439D01*
X175064777Y-121352439D02*
X175064777Y-121495296D01*
X175064777Y-121495296D02*
X175017158Y-121590534D01*
X175017158Y-121590534D02*
X174969539Y-121638153D01*
X174969539Y-121638153D02*
X174874301Y-121685772D01*
X174874301Y-121685772D02*
X174493349Y-121685772D01*
X175969539Y-121161963D02*
X175493349Y-121161963D01*
X175493349Y-121161963D02*
X175445730Y-121638153D01*
X175445730Y-121638153D02*
X175493349Y-121590534D01*
X175493349Y-121590534D02*
X175588587Y-121542915D01*
X175588587Y-121542915D02*
X175826682Y-121542915D01*
X175826682Y-121542915D02*
X175921920Y-121590534D01*
X175921920Y-121590534D02*
X175969539Y-121638153D01*
X175969539Y-121638153D02*
X176017158Y-121733391D01*
X176017158Y-121733391D02*
X176017158Y-121971486D01*
X176017158Y-121971486D02*
X175969539Y-122066724D01*
X175969539Y-122066724D02*
X175921920Y-122114344D01*
X175921920Y-122114344D02*
X175826682Y-122161963D01*
X175826682Y-122161963D02*
X175588587Y-122161963D01*
X175588587Y-122161963D02*
X175493349Y-122114344D01*
X175493349Y-122114344D02*
X175445730Y-122066724D01*
%TO.C,Q3*%
X149465253Y-119787201D02*
X149370015Y-119739582D01*
X149370015Y-119739582D02*
X149274777Y-119644344D01*
X149274777Y-119644344D02*
X149131920Y-119501486D01*
X149131920Y-119501486D02*
X149036682Y-119453867D01*
X149036682Y-119453867D02*
X148941444Y-119453867D01*
X148989063Y-119691963D02*
X148893825Y-119644344D01*
X148893825Y-119644344D02*
X148798587Y-119549105D01*
X148798587Y-119549105D02*
X148750968Y-119358629D01*
X148750968Y-119358629D02*
X148750968Y-119025296D01*
X148750968Y-119025296D02*
X148798587Y-118834820D01*
X148798587Y-118834820D02*
X148893825Y-118739582D01*
X148893825Y-118739582D02*
X148989063Y-118691963D01*
X148989063Y-118691963D02*
X149179539Y-118691963D01*
X149179539Y-118691963D02*
X149274777Y-118739582D01*
X149274777Y-118739582D02*
X149370015Y-118834820D01*
X149370015Y-118834820D02*
X149417634Y-119025296D01*
X149417634Y-119025296D02*
X149417634Y-119358629D01*
X149417634Y-119358629D02*
X149370015Y-119549105D01*
X149370015Y-119549105D02*
X149274777Y-119644344D01*
X149274777Y-119644344D02*
X149179539Y-119691963D01*
X149179539Y-119691963D02*
X148989063Y-119691963D01*
X149750968Y-118691963D02*
X150370015Y-118691963D01*
X150370015Y-118691963D02*
X150036682Y-119072915D01*
X150036682Y-119072915D02*
X150179539Y-119072915D01*
X150179539Y-119072915D02*
X150274777Y-119120534D01*
X150274777Y-119120534D02*
X150322396Y-119168153D01*
X150322396Y-119168153D02*
X150370015Y-119263391D01*
X150370015Y-119263391D02*
X150370015Y-119501486D01*
X150370015Y-119501486D02*
X150322396Y-119596724D01*
X150322396Y-119596724D02*
X150274777Y-119644344D01*
X150274777Y-119644344D02*
X150179539Y-119691963D01*
X150179539Y-119691963D02*
X149893825Y-119691963D01*
X149893825Y-119691963D02*
X149798587Y-119644344D01*
X149798587Y-119644344D02*
X149750968Y-119596724D01*
%TO.C,R3*%
X189933825Y-94981963D02*
X189600492Y-94505772D01*
X189362397Y-94981963D02*
X189362397Y-93981963D01*
X189362397Y-93981963D02*
X189743349Y-93981963D01*
X189743349Y-93981963D02*
X189838587Y-94029582D01*
X189838587Y-94029582D02*
X189886206Y-94077201D01*
X189886206Y-94077201D02*
X189933825Y-94172439D01*
X189933825Y-94172439D02*
X189933825Y-94315296D01*
X189933825Y-94315296D02*
X189886206Y-94410534D01*
X189886206Y-94410534D02*
X189838587Y-94458153D01*
X189838587Y-94458153D02*
X189743349Y-94505772D01*
X189743349Y-94505772D02*
X189362397Y-94505772D01*
X190267159Y-93981963D02*
X190886206Y-93981963D01*
X190886206Y-93981963D02*
X190552873Y-94362915D01*
X190552873Y-94362915D02*
X190695730Y-94362915D01*
X190695730Y-94362915D02*
X190790968Y-94410534D01*
X190790968Y-94410534D02*
X190838587Y-94458153D01*
X190838587Y-94458153D02*
X190886206Y-94553391D01*
X190886206Y-94553391D02*
X190886206Y-94791486D01*
X190886206Y-94791486D02*
X190838587Y-94886724D01*
X190838587Y-94886724D02*
X190790968Y-94934344D01*
X190790968Y-94934344D02*
X190695730Y-94981963D01*
X190695730Y-94981963D02*
X190410016Y-94981963D01*
X190410016Y-94981963D02*
X190314778Y-94934344D01*
X190314778Y-94934344D02*
X190267159Y-94886724D01*
%TO.C,C15*%
X115747634Y-115032724D02*
X115700015Y-115080344D01*
X115700015Y-115080344D02*
X115557158Y-115127963D01*
X115557158Y-115127963D02*
X115461920Y-115127963D01*
X115461920Y-115127963D02*
X115319063Y-115080344D01*
X115319063Y-115080344D02*
X115223825Y-114985105D01*
X115223825Y-114985105D02*
X115176206Y-114889867D01*
X115176206Y-114889867D02*
X115128587Y-114699391D01*
X115128587Y-114699391D02*
X115128587Y-114556534D01*
X115128587Y-114556534D02*
X115176206Y-114366058D01*
X115176206Y-114366058D02*
X115223825Y-114270820D01*
X115223825Y-114270820D02*
X115319063Y-114175582D01*
X115319063Y-114175582D02*
X115461920Y-114127963D01*
X115461920Y-114127963D02*
X115557158Y-114127963D01*
X115557158Y-114127963D02*
X115700015Y-114175582D01*
X115700015Y-114175582D02*
X115747634Y-114223201D01*
X116700015Y-115127963D02*
X116128587Y-115127963D01*
X116414301Y-115127963D02*
X116414301Y-114127963D01*
X116414301Y-114127963D02*
X116319063Y-114270820D01*
X116319063Y-114270820D02*
X116223825Y-114366058D01*
X116223825Y-114366058D02*
X116128587Y-114413677D01*
X117604777Y-114127963D02*
X117128587Y-114127963D01*
X117128587Y-114127963D02*
X117080968Y-114604153D01*
X117080968Y-114604153D02*
X117128587Y-114556534D01*
X117128587Y-114556534D02*
X117223825Y-114508915D01*
X117223825Y-114508915D02*
X117461920Y-114508915D01*
X117461920Y-114508915D02*
X117557158Y-114556534D01*
X117557158Y-114556534D02*
X117604777Y-114604153D01*
X117604777Y-114604153D02*
X117652396Y-114699391D01*
X117652396Y-114699391D02*
X117652396Y-114937486D01*
X117652396Y-114937486D02*
X117604777Y-115032724D01*
X117604777Y-115032724D02*
X117557158Y-115080344D01*
X117557158Y-115080344D02*
X117461920Y-115127963D01*
X117461920Y-115127963D02*
X117223825Y-115127963D01*
X117223825Y-115127963D02*
X117128587Y-115080344D01*
X117128587Y-115080344D02*
X117080968Y-115032724D01*
D11*
%TO.C,J3*%
X149882206Y-124626462D02*
X149882206Y-125442891D01*
X149882206Y-125442891D02*
X149827777Y-125606176D01*
X149827777Y-125606176D02*
X149718920Y-125715034D01*
X149718920Y-125715034D02*
X149555634Y-125769462D01*
X149555634Y-125769462D02*
X149446777Y-125769462D01*
X150317634Y-124626462D02*
X151025206Y-124626462D01*
X151025206Y-124626462D02*
X150644206Y-125061891D01*
X150644206Y-125061891D02*
X150807491Y-125061891D01*
X150807491Y-125061891D02*
X150916349Y-125116319D01*
X150916349Y-125116319D02*
X150970777Y-125170748D01*
X150970777Y-125170748D02*
X151025206Y-125279605D01*
X151025206Y-125279605D02*
X151025206Y-125551748D01*
X151025206Y-125551748D02*
X150970777Y-125660605D01*
X150970777Y-125660605D02*
X150916349Y-125715034D01*
X150916349Y-125715034D02*
X150807491Y-125769462D01*
X150807491Y-125769462D02*
X150480920Y-125769462D01*
X150480920Y-125769462D02*
X150372063Y-125715034D01*
X150372063Y-125715034D02*
X150317634Y-125660605D01*
X149459701Y-131003592D02*
X149348425Y-130947954D01*
X149348425Y-130947954D02*
X149181511Y-130947954D01*
X149181511Y-130947954D02*
X149014596Y-131003592D01*
X149014596Y-131003592D02*
X148903320Y-131114868D01*
X148903320Y-131114868D02*
X148847682Y-131226144D01*
X148847682Y-131226144D02*
X148792044Y-131448696D01*
X148792044Y-131448696D02*
X148792044Y-131615611D01*
X148792044Y-131615611D02*
X148847682Y-131838163D01*
X148847682Y-131838163D02*
X148903320Y-131949439D01*
X148903320Y-131949439D02*
X149014596Y-132060716D01*
X149014596Y-132060716D02*
X149181511Y-132116354D01*
X149181511Y-132116354D02*
X149292787Y-132116354D01*
X149292787Y-132116354D02*
X149459701Y-132060716D01*
X149459701Y-132060716D02*
X149515339Y-132005077D01*
X149515339Y-132005077D02*
X149515339Y-131615611D01*
X149515339Y-131615611D02*
X149292787Y-131615611D01*
D12*
%TO.C,C7*%
X133495825Y-115032724D02*
X133448206Y-115080344D01*
X133448206Y-115080344D02*
X133305349Y-115127963D01*
X133305349Y-115127963D02*
X133210111Y-115127963D01*
X133210111Y-115127963D02*
X133067254Y-115080344D01*
X133067254Y-115080344D02*
X132972016Y-114985105D01*
X132972016Y-114985105D02*
X132924397Y-114889867D01*
X132924397Y-114889867D02*
X132876778Y-114699391D01*
X132876778Y-114699391D02*
X132876778Y-114556534D01*
X132876778Y-114556534D02*
X132924397Y-114366058D01*
X132924397Y-114366058D02*
X132972016Y-114270820D01*
X132972016Y-114270820D02*
X133067254Y-114175582D01*
X133067254Y-114175582D02*
X133210111Y-114127963D01*
X133210111Y-114127963D02*
X133305349Y-114127963D01*
X133305349Y-114127963D02*
X133448206Y-114175582D01*
X133448206Y-114175582D02*
X133495825Y-114223201D01*
X133829159Y-114127963D02*
X134495825Y-114127963D01*
X134495825Y-114127963D02*
X134067254Y-115127963D01*
%TO.C,D2*%
X124563111Y-83512438D02*
X123563111Y-83512438D01*
X123563111Y-83512438D02*
X123563111Y-83274343D01*
X123563111Y-83274343D02*
X123610730Y-83131486D01*
X123610730Y-83131486D02*
X123705968Y-83036248D01*
X123705968Y-83036248D02*
X123801206Y-82988629D01*
X123801206Y-82988629D02*
X123991682Y-82941010D01*
X123991682Y-82941010D02*
X124134539Y-82941010D01*
X124134539Y-82941010D02*
X124325015Y-82988629D01*
X124325015Y-82988629D02*
X124420253Y-83036248D01*
X124420253Y-83036248D02*
X124515492Y-83131486D01*
X124515492Y-83131486D02*
X124563111Y-83274343D01*
X124563111Y-83274343D02*
X124563111Y-83512438D01*
X123658349Y-82560057D02*
X123610730Y-82512438D01*
X123610730Y-82512438D02*
X123563111Y-82417200D01*
X123563111Y-82417200D02*
X123563111Y-82179105D01*
X123563111Y-82179105D02*
X123610730Y-82083867D01*
X123610730Y-82083867D02*
X123658349Y-82036248D01*
X123658349Y-82036248D02*
X123753587Y-81988629D01*
X123753587Y-81988629D02*
X123848825Y-81988629D01*
X123848825Y-81988629D02*
X123991682Y-82036248D01*
X123991682Y-82036248D02*
X124563111Y-82607676D01*
X124563111Y-82607676D02*
X124563111Y-81988629D01*
%TO.C,C6*%
X152571872Y-86257010D02*
X152619492Y-86304629D01*
X152619492Y-86304629D02*
X152667111Y-86447486D01*
X152667111Y-86447486D02*
X152667111Y-86542724D01*
X152667111Y-86542724D02*
X152619492Y-86685581D01*
X152619492Y-86685581D02*
X152524253Y-86780819D01*
X152524253Y-86780819D02*
X152429015Y-86828438D01*
X152429015Y-86828438D02*
X152238539Y-86876057D01*
X152238539Y-86876057D02*
X152095682Y-86876057D01*
X152095682Y-86876057D02*
X151905206Y-86828438D01*
X151905206Y-86828438D02*
X151809968Y-86780819D01*
X151809968Y-86780819D02*
X151714730Y-86685581D01*
X151714730Y-86685581D02*
X151667111Y-86542724D01*
X151667111Y-86542724D02*
X151667111Y-86447486D01*
X151667111Y-86447486D02*
X151714730Y-86304629D01*
X151714730Y-86304629D02*
X151762349Y-86257010D01*
X151667111Y-85399867D02*
X151667111Y-85590343D01*
X151667111Y-85590343D02*
X151714730Y-85685581D01*
X151714730Y-85685581D02*
X151762349Y-85733200D01*
X151762349Y-85733200D02*
X151905206Y-85828438D01*
X151905206Y-85828438D02*
X152095682Y-85876057D01*
X152095682Y-85876057D02*
X152476634Y-85876057D01*
X152476634Y-85876057D02*
X152571872Y-85828438D01*
X152571872Y-85828438D02*
X152619492Y-85780819D01*
X152619492Y-85780819D02*
X152667111Y-85685581D01*
X152667111Y-85685581D02*
X152667111Y-85495105D01*
X152667111Y-85495105D02*
X152619492Y-85399867D01*
X152619492Y-85399867D02*
X152571872Y-85352248D01*
X152571872Y-85352248D02*
X152476634Y-85304629D01*
X152476634Y-85304629D02*
X152238539Y-85304629D01*
X152238539Y-85304629D02*
X152143301Y-85352248D01*
X152143301Y-85352248D02*
X152095682Y-85399867D01*
X152095682Y-85399867D02*
X152048063Y-85495105D01*
X152048063Y-85495105D02*
X152048063Y-85685581D01*
X152048063Y-85685581D02*
X152095682Y-85780819D01*
X152095682Y-85780819D02*
X152143301Y-85828438D01*
X152143301Y-85828438D02*
X152238539Y-85876057D01*
%TO.C,D5*%
X141128111Y-83612438D02*
X140128111Y-83612438D01*
X140128111Y-83612438D02*
X140128111Y-83374343D01*
X140128111Y-83374343D02*
X140175730Y-83231486D01*
X140175730Y-83231486D02*
X140270968Y-83136248D01*
X140270968Y-83136248D02*
X140366206Y-83088629D01*
X140366206Y-83088629D02*
X140556682Y-83041010D01*
X140556682Y-83041010D02*
X140699539Y-83041010D01*
X140699539Y-83041010D02*
X140890015Y-83088629D01*
X140890015Y-83088629D02*
X140985253Y-83136248D01*
X140985253Y-83136248D02*
X141080492Y-83231486D01*
X141080492Y-83231486D02*
X141128111Y-83374343D01*
X141128111Y-83374343D02*
X141128111Y-83612438D01*
X140128111Y-82136248D02*
X140128111Y-82612438D01*
X140128111Y-82612438D02*
X140604301Y-82660057D01*
X140604301Y-82660057D02*
X140556682Y-82612438D01*
X140556682Y-82612438D02*
X140509063Y-82517200D01*
X140509063Y-82517200D02*
X140509063Y-82279105D01*
X140509063Y-82279105D02*
X140556682Y-82183867D01*
X140556682Y-82183867D02*
X140604301Y-82136248D01*
X140604301Y-82136248D02*
X140699539Y-82088629D01*
X140699539Y-82088629D02*
X140937634Y-82088629D01*
X140937634Y-82088629D02*
X141032872Y-82136248D01*
X141032872Y-82136248D02*
X141080492Y-82183867D01*
X141080492Y-82183867D02*
X141128111Y-82279105D01*
X141128111Y-82279105D02*
X141128111Y-82517200D01*
X141128111Y-82517200D02*
X141080492Y-82612438D01*
X141080492Y-82612438D02*
X141032872Y-82660057D01*
D11*
%TO.C,J4*%
X124355206Y-124626462D02*
X124355206Y-125442891D01*
X124355206Y-125442891D02*
X124300777Y-125606176D01*
X124300777Y-125606176D02*
X124191920Y-125715034D01*
X124191920Y-125715034D02*
X124028634Y-125769462D01*
X124028634Y-125769462D02*
X123919777Y-125769462D01*
X125389349Y-125007462D02*
X125389349Y-125769462D01*
X125117206Y-124572034D02*
X124845063Y-125388462D01*
X124845063Y-125388462D02*
X125552634Y-125388462D01*
X123932701Y-131003592D02*
X123821425Y-130947954D01*
X123821425Y-130947954D02*
X123654511Y-130947954D01*
X123654511Y-130947954D02*
X123487596Y-131003592D01*
X123487596Y-131003592D02*
X123376320Y-131114868D01*
X123376320Y-131114868D02*
X123320682Y-131226144D01*
X123320682Y-131226144D02*
X123265044Y-131448696D01*
X123265044Y-131448696D02*
X123265044Y-131615611D01*
X123265044Y-131615611D02*
X123320682Y-131838163D01*
X123320682Y-131838163D02*
X123376320Y-131949439D01*
X123376320Y-131949439D02*
X123487596Y-132060716D01*
X123487596Y-132060716D02*
X123654511Y-132116354D01*
X123654511Y-132116354D02*
X123765787Y-132116354D01*
X123765787Y-132116354D02*
X123932701Y-132060716D01*
X123932701Y-132060716D02*
X123988339Y-132005077D01*
X123988339Y-132005077D02*
X123988339Y-131615611D01*
X123988339Y-131615611D02*
X123765787Y-131615611D01*
D12*
%TO.C,R4*%
X178326825Y-98411963D02*
X177993492Y-97935772D01*
X177755397Y-98411963D02*
X177755397Y-97411963D01*
X177755397Y-97411963D02*
X178136349Y-97411963D01*
X178136349Y-97411963D02*
X178231587Y-97459582D01*
X178231587Y-97459582D02*
X178279206Y-97507201D01*
X178279206Y-97507201D02*
X178326825Y-97602439D01*
X178326825Y-97602439D02*
X178326825Y-97745296D01*
X178326825Y-97745296D02*
X178279206Y-97840534D01*
X178279206Y-97840534D02*
X178231587Y-97888153D01*
X178231587Y-97888153D02*
X178136349Y-97935772D01*
X178136349Y-97935772D02*
X177755397Y-97935772D01*
X179183968Y-97745296D02*
X179183968Y-98411963D01*
X178945873Y-97364344D02*
X178707778Y-98078629D01*
X178707778Y-98078629D02*
X179326825Y-98078629D01*
%TO.C,C1*%
X112921825Y-87346724D02*
X112874206Y-87394344D01*
X112874206Y-87394344D02*
X112731349Y-87441963D01*
X112731349Y-87441963D02*
X112636111Y-87441963D01*
X112636111Y-87441963D02*
X112493254Y-87394344D01*
X112493254Y-87394344D02*
X112398016Y-87299105D01*
X112398016Y-87299105D02*
X112350397Y-87203867D01*
X112350397Y-87203867D02*
X112302778Y-87013391D01*
X112302778Y-87013391D02*
X112302778Y-86870534D01*
X112302778Y-86870534D02*
X112350397Y-86680058D01*
X112350397Y-86680058D02*
X112398016Y-86584820D01*
X112398016Y-86584820D02*
X112493254Y-86489582D01*
X112493254Y-86489582D02*
X112636111Y-86441963D01*
X112636111Y-86441963D02*
X112731349Y-86441963D01*
X112731349Y-86441963D02*
X112874206Y-86489582D01*
X112874206Y-86489582D02*
X112921825Y-86537201D01*
X113874206Y-87441963D02*
X113302778Y-87441963D01*
X113588492Y-87441963D02*
X113588492Y-86441963D01*
X113588492Y-86441963D02*
X113493254Y-86584820D01*
X113493254Y-86584820D02*
X113398016Y-86680058D01*
X113398016Y-86680058D02*
X113302778Y-86727677D01*
D11*
%TO.C,J1*%
X137817206Y-124626462D02*
X137817206Y-125442891D01*
X137817206Y-125442891D02*
X137762777Y-125606176D01*
X137762777Y-125606176D02*
X137653920Y-125715034D01*
X137653920Y-125715034D02*
X137490634Y-125769462D01*
X137490634Y-125769462D02*
X137381777Y-125769462D01*
X138960206Y-125769462D02*
X138307063Y-125769462D01*
X138633634Y-125769462D02*
X138633634Y-124626462D01*
X138633634Y-124626462D02*
X138524777Y-124789748D01*
X138524777Y-124789748D02*
X138415920Y-124898605D01*
X138415920Y-124898605D02*
X138307063Y-124953034D01*
X137394701Y-131003592D02*
X137283425Y-130947954D01*
X137283425Y-130947954D02*
X137116511Y-130947954D01*
X137116511Y-130947954D02*
X136949596Y-131003592D01*
X136949596Y-131003592D02*
X136838320Y-131114868D01*
X136838320Y-131114868D02*
X136782682Y-131226144D01*
X136782682Y-131226144D02*
X136727044Y-131448696D01*
X136727044Y-131448696D02*
X136727044Y-131615611D01*
X136727044Y-131615611D02*
X136782682Y-131838163D01*
X136782682Y-131838163D02*
X136838320Y-131949439D01*
X136838320Y-131949439D02*
X136949596Y-132060716D01*
X136949596Y-132060716D02*
X137116511Y-132116354D01*
X137116511Y-132116354D02*
X137227787Y-132116354D01*
X137227787Y-132116354D02*
X137394701Y-132060716D01*
X137394701Y-132060716D02*
X137450339Y-132005077D01*
X137450339Y-132005077D02*
X137450339Y-131615611D01*
X137450339Y-131615611D02*
X137227787Y-131615611D01*
D12*
%TO.C,D4*%
X151063111Y-83512438D02*
X150063111Y-83512438D01*
X150063111Y-83512438D02*
X150063111Y-83274343D01*
X150063111Y-83274343D02*
X150110730Y-83131486D01*
X150110730Y-83131486D02*
X150205968Y-83036248D01*
X150205968Y-83036248D02*
X150301206Y-82988629D01*
X150301206Y-82988629D02*
X150491682Y-82941010D01*
X150491682Y-82941010D02*
X150634539Y-82941010D01*
X150634539Y-82941010D02*
X150825015Y-82988629D01*
X150825015Y-82988629D02*
X150920253Y-83036248D01*
X150920253Y-83036248D02*
X151015492Y-83131486D01*
X151015492Y-83131486D02*
X151063111Y-83274343D01*
X151063111Y-83274343D02*
X151063111Y-83512438D01*
X150396444Y-82083867D02*
X151063111Y-82083867D01*
X150015492Y-82321962D02*
X150729777Y-82560057D01*
X150729777Y-82560057D02*
X150729777Y-81941010D01*
%TO.C,D3*%
X157563111Y-83512438D02*
X156563111Y-83512438D01*
X156563111Y-83512438D02*
X156563111Y-83274343D01*
X156563111Y-83274343D02*
X156610730Y-83131486D01*
X156610730Y-83131486D02*
X156705968Y-83036248D01*
X156705968Y-83036248D02*
X156801206Y-82988629D01*
X156801206Y-82988629D02*
X156991682Y-82941010D01*
X156991682Y-82941010D02*
X157134539Y-82941010D01*
X157134539Y-82941010D02*
X157325015Y-82988629D01*
X157325015Y-82988629D02*
X157420253Y-83036248D01*
X157420253Y-83036248D02*
X157515492Y-83131486D01*
X157515492Y-83131486D02*
X157563111Y-83274343D01*
X157563111Y-83274343D02*
X157563111Y-83512438D01*
X156563111Y-82607676D02*
X156563111Y-81988629D01*
X156563111Y-81988629D02*
X156944063Y-82321962D01*
X156944063Y-82321962D02*
X156944063Y-82179105D01*
X156944063Y-82179105D02*
X156991682Y-82083867D01*
X156991682Y-82083867D02*
X157039301Y-82036248D01*
X157039301Y-82036248D02*
X157134539Y-81988629D01*
X157134539Y-81988629D02*
X157372634Y-81988629D01*
X157372634Y-81988629D02*
X157467872Y-82036248D01*
X157467872Y-82036248D02*
X157515492Y-82083867D01*
X157515492Y-82083867D02*
X157563111Y-82179105D01*
X157563111Y-82179105D02*
X157563111Y-82464819D01*
X157563111Y-82464819D02*
X157515492Y-82560057D01*
X157515492Y-82560057D02*
X157467872Y-82607676D01*
D13*
%TO.C,J2*%
X161767158Y-126611963D02*
X161767158Y-127326248D01*
X161767158Y-127326248D02*
X161719539Y-127469105D01*
X161719539Y-127469105D02*
X161624301Y-127564344D01*
X161624301Y-127564344D02*
X161481444Y-127611963D01*
X161481444Y-127611963D02*
X161386206Y-127611963D01*
X162195730Y-126707201D02*
X162243349Y-126659582D01*
X162243349Y-126659582D02*
X162338587Y-126611963D01*
X162338587Y-126611963D02*
X162576682Y-126611963D01*
X162576682Y-126611963D02*
X162671920Y-126659582D01*
X162671920Y-126659582D02*
X162719539Y-126707201D01*
X162719539Y-126707201D02*
X162767158Y-126802439D01*
X162767158Y-126802439D02*
X162767158Y-126897677D01*
X162767158Y-126897677D02*
X162719539Y-127040534D01*
X162719539Y-127040534D02*
X162148111Y-127611963D01*
X162148111Y-127611963D02*
X162767158Y-127611963D01*
D12*
%TO.C,D1*%
X134563111Y-83512438D02*
X133563111Y-83512438D01*
X133563111Y-83512438D02*
X133563111Y-83274343D01*
X133563111Y-83274343D02*
X133610730Y-83131486D01*
X133610730Y-83131486D02*
X133705968Y-83036248D01*
X133705968Y-83036248D02*
X133801206Y-82988629D01*
X133801206Y-82988629D02*
X133991682Y-82941010D01*
X133991682Y-82941010D02*
X134134539Y-82941010D01*
X134134539Y-82941010D02*
X134325015Y-82988629D01*
X134325015Y-82988629D02*
X134420253Y-83036248D01*
X134420253Y-83036248D02*
X134515492Y-83131486D01*
X134515492Y-83131486D02*
X134563111Y-83274343D01*
X134563111Y-83274343D02*
X134563111Y-83512438D01*
X134563111Y-81988629D02*
X134563111Y-82560057D01*
X134563111Y-82274343D02*
X133563111Y-82274343D01*
X133563111Y-82274343D02*
X133705968Y-82369581D01*
X133705968Y-82369581D02*
X133801206Y-82464819D01*
X133801206Y-82464819D02*
X133848825Y-82560057D01*
%TO.C,C11*%
X112445634Y-104618724D02*
X112398015Y-104666344D01*
X112398015Y-104666344D02*
X112255158Y-104713963D01*
X112255158Y-104713963D02*
X112159920Y-104713963D01*
X112159920Y-104713963D02*
X112017063Y-104666344D01*
X112017063Y-104666344D02*
X111921825Y-104571105D01*
X111921825Y-104571105D02*
X111874206Y-104475867D01*
X111874206Y-104475867D02*
X111826587Y-104285391D01*
X111826587Y-104285391D02*
X111826587Y-104142534D01*
X111826587Y-104142534D02*
X111874206Y-103952058D01*
X111874206Y-103952058D02*
X111921825Y-103856820D01*
X111921825Y-103856820D02*
X112017063Y-103761582D01*
X112017063Y-103761582D02*
X112159920Y-103713963D01*
X112159920Y-103713963D02*
X112255158Y-103713963D01*
X112255158Y-103713963D02*
X112398015Y-103761582D01*
X112398015Y-103761582D02*
X112445634Y-103809201D01*
X113398015Y-104713963D02*
X112826587Y-104713963D01*
X113112301Y-104713963D02*
X113112301Y-103713963D01*
X113112301Y-103713963D02*
X113017063Y-103856820D01*
X113017063Y-103856820D02*
X112921825Y-103952058D01*
X112921825Y-103952058D02*
X112826587Y-103999677D01*
X114350396Y-104713963D02*
X113778968Y-104713963D01*
X114064682Y-104713963D02*
X114064682Y-103713963D01*
X114064682Y-103713963D02*
X113969444Y-103856820D01*
X113969444Y-103856820D02*
X113874206Y-103952058D01*
X113874206Y-103952058D02*
X113778968Y-103999677D01*
%TO.C,C9*%
X169081872Y-86384010D02*
X169129492Y-86431629D01*
X169129492Y-86431629D02*
X169177111Y-86574486D01*
X169177111Y-86574486D02*
X169177111Y-86669724D01*
X169177111Y-86669724D02*
X169129492Y-86812581D01*
X169129492Y-86812581D02*
X169034253Y-86907819D01*
X169034253Y-86907819D02*
X168939015Y-86955438D01*
X168939015Y-86955438D02*
X168748539Y-87003057D01*
X168748539Y-87003057D02*
X168605682Y-87003057D01*
X168605682Y-87003057D02*
X168415206Y-86955438D01*
X168415206Y-86955438D02*
X168319968Y-86907819D01*
X168319968Y-86907819D02*
X168224730Y-86812581D01*
X168224730Y-86812581D02*
X168177111Y-86669724D01*
X168177111Y-86669724D02*
X168177111Y-86574486D01*
X168177111Y-86574486D02*
X168224730Y-86431629D01*
X168224730Y-86431629D02*
X168272349Y-86384010D01*
X169177111Y-85907819D02*
X169177111Y-85717343D01*
X169177111Y-85717343D02*
X169129492Y-85622105D01*
X169129492Y-85622105D02*
X169081872Y-85574486D01*
X169081872Y-85574486D02*
X168939015Y-85479248D01*
X168939015Y-85479248D02*
X168748539Y-85431629D01*
X168748539Y-85431629D02*
X168367587Y-85431629D01*
X168367587Y-85431629D02*
X168272349Y-85479248D01*
X168272349Y-85479248D02*
X168224730Y-85526867D01*
X168224730Y-85526867D02*
X168177111Y-85622105D01*
X168177111Y-85622105D02*
X168177111Y-85812581D01*
X168177111Y-85812581D02*
X168224730Y-85907819D01*
X168224730Y-85907819D02*
X168272349Y-85955438D01*
X168272349Y-85955438D02*
X168367587Y-86003057D01*
X168367587Y-86003057D02*
X168605682Y-86003057D01*
X168605682Y-86003057D02*
X168700920Y-85955438D01*
X168700920Y-85955438D02*
X168748539Y-85907819D01*
X168748539Y-85907819D02*
X168796158Y-85812581D01*
X168796158Y-85812581D02*
X168796158Y-85622105D01*
X168796158Y-85622105D02*
X168748539Y-85526867D01*
X168748539Y-85526867D02*
X168700920Y-85479248D01*
X168700920Y-85479248D02*
X168605682Y-85431629D01*
%TO.C,D6*%
X167563111Y-83512438D02*
X166563111Y-83512438D01*
X166563111Y-83512438D02*
X166563111Y-83274343D01*
X166563111Y-83274343D02*
X166610730Y-83131486D01*
X166610730Y-83131486D02*
X166705968Y-83036248D01*
X166705968Y-83036248D02*
X166801206Y-82988629D01*
X166801206Y-82988629D02*
X166991682Y-82941010D01*
X166991682Y-82941010D02*
X167134539Y-82941010D01*
X167134539Y-82941010D02*
X167325015Y-82988629D01*
X167325015Y-82988629D02*
X167420253Y-83036248D01*
X167420253Y-83036248D02*
X167515492Y-83131486D01*
X167515492Y-83131486D02*
X167563111Y-83274343D01*
X167563111Y-83274343D02*
X167563111Y-83512438D01*
X166563111Y-82083867D02*
X166563111Y-82274343D01*
X166563111Y-82274343D02*
X166610730Y-82369581D01*
X166610730Y-82369581D02*
X166658349Y-82417200D01*
X166658349Y-82417200D02*
X166801206Y-82512438D01*
X166801206Y-82512438D02*
X166991682Y-82560057D01*
X166991682Y-82560057D02*
X167372634Y-82560057D01*
X167372634Y-82560057D02*
X167467872Y-82512438D01*
X167467872Y-82512438D02*
X167515492Y-82464819D01*
X167515492Y-82464819D02*
X167563111Y-82369581D01*
X167563111Y-82369581D02*
X167563111Y-82179105D01*
X167563111Y-82179105D02*
X167515492Y-82083867D01*
X167515492Y-82083867D02*
X167467872Y-82036248D01*
X167467872Y-82036248D02*
X167372634Y-81988629D01*
X167372634Y-81988629D02*
X167134539Y-81988629D01*
X167134539Y-81988629D02*
X167039301Y-82036248D01*
X167039301Y-82036248D02*
X166991682Y-82083867D01*
X166991682Y-82083867D02*
X166944063Y-82179105D01*
X166944063Y-82179105D02*
X166944063Y-82369581D01*
X166944063Y-82369581D02*
X166991682Y-82464819D01*
X166991682Y-82464819D02*
X167039301Y-82512438D01*
X167039301Y-82512438D02*
X167134539Y-82560057D01*
%TO.C,TP2*%
X118128587Y-80599963D02*
X118700015Y-80599963D01*
X118414301Y-81599963D02*
X118414301Y-80599963D01*
X119033349Y-81599963D02*
X119033349Y-80599963D01*
X119033349Y-80599963D02*
X119414301Y-80599963D01*
X119414301Y-80599963D02*
X119509539Y-80647582D01*
X119509539Y-80647582D02*
X119557158Y-80695201D01*
X119557158Y-80695201D02*
X119604777Y-80790439D01*
X119604777Y-80790439D02*
X119604777Y-80933296D01*
X119604777Y-80933296D02*
X119557158Y-81028534D01*
X119557158Y-81028534D02*
X119509539Y-81076153D01*
X119509539Y-81076153D02*
X119414301Y-81123772D01*
X119414301Y-81123772D02*
X119033349Y-81123772D01*
X119985730Y-80695201D02*
X120033349Y-80647582D01*
X120033349Y-80647582D02*
X120128587Y-80599963D01*
X120128587Y-80599963D02*
X120366682Y-80599963D01*
X120366682Y-80599963D02*
X120461920Y-80647582D01*
X120461920Y-80647582D02*
X120509539Y-80695201D01*
X120509539Y-80695201D02*
X120557158Y-80790439D01*
X120557158Y-80790439D02*
X120557158Y-80885677D01*
X120557158Y-80885677D02*
X120509539Y-81028534D01*
X120509539Y-81028534D02*
X119938111Y-81599963D01*
X119938111Y-81599963D02*
X120557158Y-81599963D01*
%TO.C,C13*%
X125907634Y-108936724D02*
X125860015Y-108984344D01*
X125860015Y-108984344D02*
X125717158Y-109031963D01*
X125717158Y-109031963D02*
X125621920Y-109031963D01*
X125621920Y-109031963D02*
X125479063Y-108984344D01*
X125479063Y-108984344D02*
X125383825Y-108889105D01*
X125383825Y-108889105D02*
X125336206Y-108793867D01*
X125336206Y-108793867D02*
X125288587Y-108603391D01*
X125288587Y-108603391D02*
X125288587Y-108460534D01*
X125288587Y-108460534D02*
X125336206Y-108270058D01*
X125336206Y-108270058D02*
X125383825Y-108174820D01*
X125383825Y-108174820D02*
X125479063Y-108079582D01*
X125479063Y-108079582D02*
X125621920Y-108031963D01*
X125621920Y-108031963D02*
X125717158Y-108031963D01*
X125717158Y-108031963D02*
X125860015Y-108079582D01*
X125860015Y-108079582D02*
X125907634Y-108127201D01*
X126860015Y-109031963D02*
X126288587Y-109031963D01*
X126574301Y-109031963D02*
X126574301Y-108031963D01*
X126574301Y-108031963D02*
X126479063Y-108174820D01*
X126479063Y-108174820D02*
X126383825Y-108270058D01*
X126383825Y-108270058D02*
X126288587Y-108317677D01*
X127193349Y-108031963D02*
X127812396Y-108031963D01*
X127812396Y-108031963D02*
X127479063Y-108412915D01*
X127479063Y-108412915D02*
X127621920Y-108412915D01*
X127621920Y-108412915D02*
X127717158Y-108460534D01*
X127717158Y-108460534D02*
X127764777Y-108508153D01*
X127764777Y-108508153D02*
X127812396Y-108603391D01*
X127812396Y-108603391D02*
X127812396Y-108841486D01*
X127812396Y-108841486D02*
X127764777Y-108936724D01*
X127764777Y-108936724D02*
X127717158Y-108984344D01*
X127717158Y-108984344D02*
X127621920Y-109031963D01*
X127621920Y-109031963D02*
X127336206Y-109031963D01*
X127336206Y-109031963D02*
X127240968Y-108984344D01*
X127240968Y-108984344D02*
X127193349Y-108936724D01*
D13*
%TO.C,SW1*%
X190767159Y-104864344D02*
X190910016Y-104911963D01*
X190910016Y-104911963D02*
X191148111Y-104911963D01*
X191148111Y-104911963D02*
X191243349Y-104864344D01*
X191243349Y-104864344D02*
X191290968Y-104816724D01*
X191290968Y-104816724D02*
X191338587Y-104721486D01*
X191338587Y-104721486D02*
X191338587Y-104626248D01*
X191338587Y-104626248D02*
X191290968Y-104531010D01*
X191290968Y-104531010D02*
X191243349Y-104483391D01*
X191243349Y-104483391D02*
X191148111Y-104435772D01*
X191148111Y-104435772D02*
X190957635Y-104388153D01*
X190957635Y-104388153D02*
X190862397Y-104340534D01*
X190862397Y-104340534D02*
X190814778Y-104292915D01*
X190814778Y-104292915D02*
X190767159Y-104197677D01*
X190767159Y-104197677D02*
X190767159Y-104102439D01*
X190767159Y-104102439D02*
X190814778Y-104007201D01*
X190814778Y-104007201D02*
X190862397Y-103959582D01*
X190862397Y-103959582D02*
X190957635Y-103911963D01*
X190957635Y-103911963D02*
X191195730Y-103911963D01*
X191195730Y-103911963D02*
X191338587Y-103959582D01*
X191671921Y-103911963D02*
X191910016Y-104911963D01*
X191910016Y-104911963D02*
X192100492Y-104197677D01*
X192100492Y-104197677D02*
X192290968Y-104911963D01*
X192290968Y-104911963D02*
X192529064Y-103911963D01*
X193433825Y-104911963D02*
X192862397Y-104911963D01*
X193148111Y-104911963D02*
X193148111Y-103911963D01*
X193148111Y-103911963D02*
X193052873Y-104054820D01*
X193052873Y-104054820D02*
X192957635Y-104150058D01*
X192957635Y-104150058D02*
X192862397Y-104197677D01*
D12*
%TO.C,TP1*%
X178938587Y-87011963D02*
X179510015Y-87011963D01*
X179224301Y-88011963D02*
X179224301Y-87011963D01*
X179843349Y-88011963D02*
X179843349Y-87011963D01*
X179843349Y-87011963D02*
X180224301Y-87011963D01*
X180224301Y-87011963D02*
X180319539Y-87059582D01*
X180319539Y-87059582D02*
X180367158Y-87107201D01*
X180367158Y-87107201D02*
X180414777Y-87202439D01*
X180414777Y-87202439D02*
X180414777Y-87345296D01*
X180414777Y-87345296D02*
X180367158Y-87440534D01*
X180367158Y-87440534D02*
X180319539Y-87488153D01*
X180319539Y-87488153D02*
X180224301Y-87535772D01*
X180224301Y-87535772D02*
X179843349Y-87535772D01*
X181367158Y-88011963D02*
X180795730Y-88011963D01*
X181081444Y-88011963D02*
X181081444Y-87011963D01*
X181081444Y-87011963D02*
X180986206Y-87154820D01*
X180986206Y-87154820D02*
X180890968Y-87250058D01*
X180890968Y-87250058D02*
X180795730Y-87297677D01*
%TO.C,C3*%
X123037872Y-86263510D02*
X123085492Y-86311129D01*
X123085492Y-86311129D02*
X123133111Y-86453986D01*
X123133111Y-86453986D02*
X123133111Y-86549224D01*
X123133111Y-86549224D02*
X123085492Y-86692081D01*
X123085492Y-86692081D02*
X122990253Y-86787319D01*
X122990253Y-86787319D02*
X122895015Y-86834938D01*
X122895015Y-86834938D02*
X122704539Y-86882557D01*
X122704539Y-86882557D02*
X122561682Y-86882557D01*
X122561682Y-86882557D02*
X122371206Y-86834938D01*
X122371206Y-86834938D02*
X122275968Y-86787319D01*
X122275968Y-86787319D02*
X122180730Y-86692081D01*
X122180730Y-86692081D02*
X122133111Y-86549224D01*
X122133111Y-86549224D02*
X122133111Y-86453986D01*
X122133111Y-86453986D02*
X122180730Y-86311129D01*
X122180730Y-86311129D02*
X122228349Y-86263510D01*
X122133111Y-85930176D02*
X122133111Y-85311129D01*
X122133111Y-85311129D02*
X122514063Y-85644462D01*
X122514063Y-85644462D02*
X122514063Y-85501605D01*
X122514063Y-85501605D02*
X122561682Y-85406367D01*
X122561682Y-85406367D02*
X122609301Y-85358748D01*
X122609301Y-85358748D02*
X122704539Y-85311129D01*
X122704539Y-85311129D02*
X122942634Y-85311129D01*
X122942634Y-85311129D02*
X123037872Y-85358748D01*
X123037872Y-85358748D02*
X123085492Y-85406367D01*
X123085492Y-85406367D02*
X123133111Y-85501605D01*
X123133111Y-85501605D02*
X123133111Y-85787319D01*
X123133111Y-85787319D02*
X123085492Y-85882557D01*
X123085492Y-85882557D02*
X123037872Y-85930176D01*
%TO.C,C2*%
X136061872Y-86301010D02*
X136109492Y-86348629D01*
X136109492Y-86348629D02*
X136157111Y-86491486D01*
X136157111Y-86491486D02*
X136157111Y-86586724D01*
X136157111Y-86586724D02*
X136109492Y-86729581D01*
X136109492Y-86729581D02*
X136014253Y-86824819D01*
X136014253Y-86824819D02*
X135919015Y-86872438D01*
X135919015Y-86872438D02*
X135728539Y-86920057D01*
X135728539Y-86920057D02*
X135585682Y-86920057D01*
X135585682Y-86920057D02*
X135395206Y-86872438D01*
X135395206Y-86872438D02*
X135299968Y-86824819D01*
X135299968Y-86824819D02*
X135204730Y-86729581D01*
X135204730Y-86729581D02*
X135157111Y-86586724D01*
X135157111Y-86586724D02*
X135157111Y-86491486D01*
X135157111Y-86491486D02*
X135204730Y-86348629D01*
X135204730Y-86348629D02*
X135252349Y-86301010D01*
X135252349Y-85920057D02*
X135204730Y-85872438D01*
X135204730Y-85872438D02*
X135157111Y-85777200D01*
X135157111Y-85777200D02*
X135157111Y-85539105D01*
X135157111Y-85539105D02*
X135204730Y-85443867D01*
X135204730Y-85443867D02*
X135252349Y-85396248D01*
X135252349Y-85396248D02*
X135347587Y-85348629D01*
X135347587Y-85348629D02*
X135442825Y-85348629D01*
X135442825Y-85348629D02*
X135585682Y-85396248D01*
X135585682Y-85396248D02*
X136157111Y-85967676D01*
X136157111Y-85967676D02*
X136157111Y-85348629D01*
%TO.C,C5*%
X139537872Y-86376010D02*
X139585492Y-86423629D01*
X139585492Y-86423629D02*
X139633111Y-86566486D01*
X139633111Y-86566486D02*
X139633111Y-86661724D01*
X139633111Y-86661724D02*
X139585492Y-86804581D01*
X139585492Y-86804581D02*
X139490253Y-86899819D01*
X139490253Y-86899819D02*
X139395015Y-86947438D01*
X139395015Y-86947438D02*
X139204539Y-86995057D01*
X139204539Y-86995057D02*
X139061682Y-86995057D01*
X139061682Y-86995057D02*
X138871206Y-86947438D01*
X138871206Y-86947438D02*
X138775968Y-86899819D01*
X138775968Y-86899819D02*
X138680730Y-86804581D01*
X138680730Y-86804581D02*
X138633111Y-86661724D01*
X138633111Y-86661724D02*
X138633111Y-86566486D01*
X138633111Y-86566486D02*
X138680730Y-86423629D01*
X138680730Y-86423629D02*
X138728349Y-86376010D01*
X138633111Y-85471248D02*
X138633111Y-85947438D01*
X138633111Y-85947438D02*
X139109301Y-85995057D01*
X139109301Y-85995057D02*
X139061682Y-85947438D01*
X139061682Y-85947438D02*
X139014063Y-85852200D01*
X139014063Y-85852200D02*
X139014063Y-85614105D01*
X139014063Y-85614105D02*
X139061682Y-85518867D01*
X139061682Y-85518867D02*
X139109301Y-85471248D01*
X139109301Y-85471248D02*
X139204539Y-85423629D01*
X139204539Y-85423629D02*
X139442634Y-85423629D01*
X139442634Y-85423629D02*
X139537872Y-85471248D01*
X139537872Y-85471248D02*
X139585492Y-85518867D01*
X139585492Y-85518867D02*
X139633111Y-85614105D01*
X139633111Y-85614105D02*
X139633111Y-85852200D01*
X139633111Y-85852200D02*
X139585492Y-85947438D01*
X139585492Y-85947438D02*
X139537872Y-85995057D01*
%TO.C,D7*%
X128362397Y-92596963D02*
X128362397Y-91596963D01*
X128362397Y-91596963D02*
X128600492Y-91596963D01*
X128600492Y-91596963D02*
X128743349Y-91644582D01*
X128743349Y-91644582D02*
X128838587Y-91739820D01*
X128838587Y-91739820D02*
X128886206Y-91835058D01*
X128886206Y-91835058D02*
X128933825Y-92025534D01*
X128933825Y-92025534D02*
X128933825Y-92168391D01*
X128933825Y-92168391D02*
X128886206Y-92358867D01*
X128886206Y-92358867D02*
X128838587Y-92454105D01*
X128838587Y-92454105D02*
X128743349Y-92549344D01*
X128743349Y-92549344D02*
X128600492Y-92596963D01*
X128600492Y-92596963D02*
X128362397Y-92596963D01*
X129267159Y-91596963D02*
X129933825Y-91596963D01*
X129933825Y-91596963D02*
X129505254Y-92596963D01*
%TO.C,C4*%
X156037872Y-86348510D02*
X156085492Y-86396129D01*
X156085492Y-86396129D02*
X156133111Y-86538986D01*
X156133111Y-86538986D02*
X156133111Y-86634224D01*
X156133111Y-86634224D02*
X156085492Y-86777081D01*
X156085492Y-86777081D02*
X155990253Y-86872319D01*
X155990253Y-86872319D02*
X155895015Y-86919938D01*
X155895015Y-86919938D02*
X155704539Y-86967557D01*
X155704539Y-86967557D02*
X155561682Y-86967557D01*
X155561682Y-86967557D02*
X155371206Y-86919938D01*
X155371206Y-86919938D02*
X155275968Y-86872319D01*
X155275968Y-86872319D02*
X155180730Y-86777081D01*
X155180730Y-86777081D02*
X155133111Y-86634224D01*
X155133111Y-86634224D02*
X155133111Y-86538986D01*
X155133111Y-86538986D02*
X155180730Y-86396129D01*
X155180730Y-86396129D02*
X155228349Y-86348510D01*
X155466444Y-85491367D02*
X156133111Y-85491367D01*
X155085492Y-85729462D02*
X155799777Y-85967557D01*
X155799777Y-85967557D02*
X155799777Y-85348510D01*
%TO.C,U2*%
X144838587Y-76236963D02*
X144838587Y-77046486D01*
X144838587Y-77046486D02*
X144886206Y-77141724D01*
X144886206Y-77141724D02*
X144933825Y-77189344D01*
X144933825Y-77189344D02*
X145029063Y-77236963D01*
X145029063Y-77236963D02*
X145219539Y-77236963D01*
X145219539Y-77236963D02*
X145314777Y-77189344D01*
X145314777Y-77189344D02*
X145362396Y-77141724D01*
X145362396Y-77141724D02*
X145410015Y-77046486D01*
X145410015Y-77046486D02*
X145410015Y-76236963D01*
X145838587Y-76332201D02*
X145886206Y-76284582D01*
X145886206Y-76284582D02*
X145981444Y-76236963D01*
X145981444Y-76236963D02*
X146219539Y-76236963D01*
X146219539Y-76236963D02*
X146314777Y-76284582D01*
X146314777Y-76284582D02*
X146362396Y-76332201D01*
X146362396Y-76332201D02*
X146410015Y-76427439D01*
X146410015Y-76427439D02*
X146410015Y-76522677D01*
X146410015Y-76522677D02*
X146362396Y-76665534D01*
X146362396Y-76665534D02*
X145790968Y-77236963D01*
X145790968Y-77236963D02*
X146410015Y-77236963D01*
%TO.C,D8*%
X144862397Y-92671963D02*
X144862397Y-91671963D01*
X144862397Y-91671963D02*
X145100492Y-91671963D01*
X145100492Y-91671963D02*
X145243349Y-91719582D01*
X145243349Y-91719582D02*
X145338587Y-91814820D01*
X145338587Y-91814820D02*
X145386206Y-91910058D01*
X145386206Y-91910058D02*
X145433825Y-92100534D01*
X145433825Y-92100534D02*
X145433825Y-92243391D01*
X145433825Y-92243391D02*
X145386206Y-92433867D01*
X145386206Y-92433867D02*
X145338587Y-92529105D01*
X145338587Y-92529105D02*
X145243349Y-92624344D01*
X145243349Y-92624344D02*
X145100492Y-92671963D01*
X145100492Y-92671963D02*
X144862397Y-92671963D01*
X146005254Y-92100534D02*
X145910016Y-92052915D01*
X145910016Y-92052915D02*
X145862397Y-92005296D01*
X145862397Y-92005296D02*
X145814778Y-91910058D01*
X145814778Y-91910058D02*
X145814778Y-91862439D01*
X145814778Y-91862439D02*
X145862397Y-91767201D01*
X145862397Y-91767201D02*
X145910016Y-91719582D01*
X145910016Y-91719582D02*
X146005254Y-91671963D01*
X146005254Y-91671963D02*
X146195730Y-91671963D01*
X146195730Y-91671963D02*
X146290968Y-91719582D01*
X146290968Y-91719582D02*
X146338587Y-91767201D01*
X146338587Y-91767201D02*
X146386206Y-91862439D01*
X146386206Y-91862439D02*
X146386206Y-91910058D01*
X146386206Y-91910058D02*
X146338587Y-92005296D01*
X146338587Y-92005296D02*
X146290968Y-92052915D01*
X146290968Y-92052915D02*
X146195730Y-92100534D01*
X146195730Y-92100534D02*
X146005254Y-92100534D01*
X146005254Y-92100534D02*
X145910016Y-92148153D01*
X145910016Y-92148153D02*
X145862397Y-92195772D01*
X145862397Y-92195772D02*
X145814778Y-92291010D01*
X145814778Y-92291010D02*
X145814778Y-92481486D01*
X145814778Y-92481486D02*
X145862397Y-92576724D01*
X145862397Y-92576724D02*
X145910016Y-92624344D01*
X145910016Y-92624344D02*
X146005254Y-92671963D01*
X146005254Y-92671963D02*
X146195730Y-92671963D01*
X146195730Y-92671963D02*
X146290968Y-92624344D01*
X146290968Y-92624344D02*
X146338587Y-92576724D01*
X146338587Y-92576724D02*
X146386206Y-92481486D01*
X146386206Y-92481486D02*
X146386206Y-92291010D01*
X146386206Y-92291010D02*
X146338587Y-92195772D01*
X146338587Y-92195772D02*
X146290968Y-92148153D01*
X146290968Y-92148153D02*
X146195730Y-92100534D01*
%TO.C,C12*%
X134797634Y-108936724D02*
X134750015Y-108984344D01*
X134750015Y-108984344D02*
X134607158Y-109031963D01*
X134607158Y-109031963D02*
X134511920Y-109031963D01*
X134511920Y-109031963D02*
X134369063Y-108984344D01*
X134369063Y-108984344D02*
X134273825Y-108889105D01*
X134273825Y-108889105D02*
X134226206Y-108793867D01*
X134226206Y-108793867D02*
X134178587Y-108603391D01*
X134178587Y-108603391D02*
X134178587Y-108460534D01*
X134178587Y-108460534D02*
X134226206Y-108270058D01*
X134226206Y-108270058D02*
X134273825Y-108174820D01*
X134273825Y-108174820D02*
X134369063Y-108079582D01*
X134369063Y-108079582D02*
X134511920Y-108031963D01*
X134511920Y-108031963D02*
X134607158Y-108031963D01*
X134607158Y-108031963D02*
X134750015Y-108079582D01*
X134750015Y-108079582D02*
X134797634Y-108127201D01*
X135750015Y-109031963D02*
X135178587Y-109031963D01*
X135464301Y-109031963D02*
X135464301Y-108031963D01*
X135464301Y-108031963D02*
X135369063Y-108174820D01*
X135369063Y-108174820D02*
X135273825Y-108270058D01*
X135273825Y-108270058D02*
X135178587Y-108317677D01*
X136130968Y-108127201D02*
X136178587Y-108079582D01*
X136178587Y-108079582D02*
X136273825Y-108031963D01*
X136273825Y-108031963D02*
X136511920Y-108031963D01*
X136511920Y-108031963D02*
X136607158Y-108079582D01*
X136607158Y-108079582D02*
X136654777Y-108127201D01*
X136654777Y-108127201D02*
X136702396Y-108222439D01*
X136702396Y-108222439D02*
X136702396Y-108317677D01*
X136702396Y-108317677D02*
X136654777Y-108460534D01*
X136654777Y-108460534D02*
X136083349Y-109031963D01*
X136083349Y-109031963D02*
X136702396Y-109031963D01*
%TO.C,R1*%
X178326825Y-100776963D02*
X177993492Y-100300772D01*
X177755397Y-100776963D02*
X177755397Y-99776963D01*
X177755397Y-99776963D02*
X178136349Y-99776963D01*
X178136349Y-99776963D02*
X178231587Y-99824582D01*
X178231587Y-99824582D02*
X178279206Y-99872201D01*
X178279206Y-99872201D02*
X178326825Y-99967439D01*
X178326825Y-99967439D02*
X178326825Y-100110296D01*
X178326825Y-100110296D02*
X178279206Y-100205534D01*
X178279206Y-100205534D02*
X178231587Y-100253153D01*
X178231587Y-100253153D02*
X178136349Y-100300772D01*
X178136349Y-100300772D02*
X177755397Y-100300772D01*
X179279206Y-100776963D02*
X178707778Y-100776963D01*
X178993492Y-100776963D02*
X178993492Y-99776963D01*
X178993492Y-99776963D02*
X178898254Y-99919820D01*
X178898254Y-99919820D02*
X178803016Y-100015058D01*
X178803016Y-100015058D02*
X178707778Y-100062677D01*
%TO.C,D9*%
X161362397Y-92521963D02*
X161362397Y-91521963D01*
X161362397Y-91521963D02*
X161600492Y-91521963D01*
X161600492Y-91521963D02*
X161743349Y-91569582D01*
X161743349Y-91569582D02*
X161838587Y-91664820D01*
X161838587Y-91664820D02*
X161886206Y-91760058D01*
X161886206Y-91760058D02*
X161933825Y-91950534D01*
X161933825Y-91950534D02*
X161933825Y-92093391D01*
X161933825Y-92093391D02*
X161886206Y-92283867D01*
X161886206Y-92283867D02*
X161838587Y-92379105D01*
X161838587Y-92379105D02*
X161743349Y-92474344D01*
X161743349Y-92474344D02*
X161600492Y-92521963D01*
X161600492Y-92521963D02*
X161362397Y-92521963D01*
X162410016Y-92521963D02*
X162600492Y-92521963D01*
X162600492Y-92521963D02*
X162695730Y-92474344D01*
X162695730Y-92474344D02*
X162743349Y-92426724D01*
X162743349Y-92426724D02*
X162838587Y-92283867D01*
X162838587Y-92283867D02*
X162886206Y-92093391D01*
X162886206Y-92093391D02*
X162886206Y-91712439D01*
X162886206Y-91712439D02*
X162838587Y-91617201D01*
X162838587Y-91617201D02*
X162790968Y-91569582D01*
X162790968Y-91569582D02*
X162695730Y-91521963D01*
X162695730Y-91521963D02*
X162505254Y-91521963D01*
X162505254Y-91521963D02*
X162410016Y-91569582D01*
X162410016Y-91569582D02*
X162362397Y-91617201D01*
X162362397Y-91617201D02*
X162314778Y-91712439D01*
X162314778Y-91712439D02*
X162314778Y-91950534D01*
X162314778Y-91950534D02*
X162362397Y-92045772D01*
X162362397Y-92045772D02*
X162410016Y-92093391D01*
X162410016Y-92093391D02*
X162505254Y-92141010D01*
X162505254Y-92141010D02*
X162695730Y-92141010D01*
X162695730Y-92141010D02*
X162790968Y-92093391D01*
X162790968Y-92093391D02*
X162838587Y-92045772D01*
X162838587Y-92045772D02*
X162886206Y-91950534D01*
%TO.C,R2*%
X178326825Y-95997963D02*
X177993492Y-95521772D01*
X177755397Y-95997963D02*
X177755397Y-94997963D01*
X177755397Y-94997963D02*
X178136349Y-94997963D01*
X178136349Y-94997963D02*
X178231587Y-95045582D01*
X178231587Y-95045582D02*
X178279206Y-95093201D01*
X178279206Y-95093201D02*
X178326825Y-95188439D01*
X178326825Y-95188439D02*
X178326825Y-95331296D01*
X178326825Y-95331296D02*
X178279206Y-95426534D01*
X178279206Y-95426534D02*
X178231587Y-95474153D01*
X178231587Y-95474153D02*
X178136349Y-95521772D01*
X178136349Y-95521772D02*
X177755397Y-95521772D01*
X178707778Y-95093201D02*
X178755397Y-95045582D01*
X178755397Y-95045582D02*
X178850635Y-94997963D01*
X178850635Y-94997963D02*
X179088730Y-94997963D01*
X179088730Y-94997963D02*
X179183968Y-95045582D01*
X179183968Y-95045582D02*
X179231587Y-95093201D01*
X179231587Y-95093201D02*
X179279206Y-95188439D01*
X179279206Y-95188439D02*
X179279206Y-95283677D01*
X179279206Y-95283677D02*
X179231587Y-95426534D01*
X179231587Y-95426534D02*
X178660159Y-95997963D01*
X178660159Y-95997963D02*
X179279206Y-95997963D01*
%TO.C,C10*%
X112445634Y-95982724D02*
X112398015Y-96030344D01*
X112398015Y-96030344D02*
X112255158Y-96077963D01*
X112255158Y-96077963D02*
X112159920Y-96077963D01*
X112159920Y-96077963D02*
X112017063Y-96030344D01*
X112017063Y-96030344D02*
X111921825Y-95935105D01*
X111921825Y-95935105D02*
X111874206Y-95839867D01*
X111874206Y-95839867D02*
X111826587Y-95649391D01*
X111826587Y-95649391D02*
X111826587Y-95506534D01*
X111826587Y-95506534D02*
X111874206Y-95316058D01*
X111874206Y-95316058D02*
X111921825Y-95220820D01*
X111921825Y-95220820D02*
X112017063Y-95125582D01*
X112017063Y-95125582D02*
X112159920Y-95077963D01*
X112159920Y-95077963D02*
X112255158Y-95077963D01*
X112255158Y-95077963D02*
X112398015Y-95125582D01*
X112398015Y-95125582D02*
X112445634Y-95173201D01*
X113398015Y-96077963D02*
X112826587Y-96077963D01*
X113112301Y-96077963D02*
X113112301Y-95077963D01*
X113112301Y-95077963D02*
X113017063Y-95220820D01*
X113017063Y-95220820D02*
X112921825Y-95316058D01*
X112921825Y-95316058D02*
X112826587Y-95363677D01*
X114017063Y-95077963D02*
X114112301Y-95077963D01*
X114112301Y-95077963D02*
X114207539Y-95125582D01*
X114207539Y-95125582D02*
X114255158Y-95173201D01*
X114255158Y-95173201D02*
X114302777Y-95268439D01*
X114302777Y-95268439D02*
X114350396Y-95458915D01*
X114350396Y-95458915D02*
X114350396Y-95697010D01*
X114350396Y-95697010D02*
X114302777Y-95887486D01*
X114302777Y-95887486D02*
X114255158Y-95982724D01*
X114255158Y-95982724D02*
X114207539Y-96030344D01*
X114207539Y-96030344D02*
X114112301Y-96077963D01*
X114112301Y-96077963D02*
X114017063Y-96077963D01*
X114017063Y-96077963D02*
X113921825Y-96030344D01*
X113921825Y-96030344D02*
X113874206Y-95982724D01*
X113874206Y-95982724D02*
X113826587Y-95887486D01*
X113826587Y-95887486D02*
X113778968Y-95697010D01*
X113778968Y-95697010D02*
X113778968Y-95458915D01*
X113778968Y-95458915D02*
X113826587Y-95268439D01*
X113826587Y-95268439D02*
X113874206Y-95173201D01*
X113874206Y-95173201D02*
X113921825Y-95125582D01*
X113921825Y-95125582D02*
X114017063Y-95077963D01*
D14*
%TO.C,U4*%
X167600492Y-99059344D02*
X170475492Y-99059344D01*
X167600492Y-95839344D02*
X166100492Y-95839344D01*
X167600492Y-95839344D02*
X169100492Y-95839344D01*
X167600492Y-99059344D02*
X166100492Y-99059344D01*
%TO.C,Q2*%
X165770492Y-114179344D02*
X165500492Y-114179344D01*
X165500492Y-114179344D02*
X165500492Y-111349344D01*
X159140492Y-114179344D02*
X159140492Y-113079344D01*
X158870492Y-114179344D02*
X159140492Y-114179344D01*
X165770492Y-120599344D02*
X165770492Y-114179344D01*
X158870492Y-120599344D02*
X158870492Y-114179344D01*
%TO.C,D10*%
X195760492Y-96684344D02*
X195760492Y-95214344D01*
X195760492Y-95214344D02*
X193300492Y-95214344D01*
X193300492Y-96684344D02*
X195760492Y-96684344D01*
%TO.C,Q1*%
X172830492Y-103779344D02*
X172830492Y-104049344D01*
X172830492Y-104049344D02*
X170000492Y-104049344D01*
X172830492Y-110409344D02*
X171730492Y-110409344D01*
X172830492Y-110679344D02*
X172830492Y-110409344D01*
X179250492Y-103779344D02*
X172830492Y-103779344D01*
X179250492Y-110679344D02*
X172830492Y-110679344D01*
%TO.C,C14*%
X112445992Y-118290844D02*
X111658492Y-118290844D01*
X112052242Y-118684594D02*
X112052242Y-117897094D01*
X111418492Y-118788907D02*
X111418492Y-117503344D01*
X111418492Y-118788907D02*
X110354055Y-119853344D01*
X111418492Y-114097781D02*
X111418492Y-115383344D01*
X111418492Y-114097781D02*
X110354055Y-113033344D01*
X110354055Y-119853344D02*
X104598492Y-119853344D01*
X110354055Y-113033344D02*
X104598492Y-113033344D01*
X104598492Y-119853344D02*
X104598492Y-117503344D01*
X104598492Y-113033344D02*
X104598492Y-115383344D01*
%TO.C,U3*%
X158650492Y-85529344D02*
X158920492Y-85529344D01*
X158920492Y-85529344D02*
X158920492Y-88359344D01*
X165280492Y-85529344D02*
X165280492Y-86629344D01*
X165550492Y-85529344D02*
X165280492Y-85529344D01*
X158650492Y-79109344D02*
X158650492Y-85529344D01*
X165550492Y-79109344D02*
X165550492Y-85529344D01*
%TO.C,C8*%
X126873992Y-116069844D02*
X126873992Y-116857344D01*
X127267742Y-116463594D02*
X126480242Y-116463594D01*
X127372055Y-117097344D02*
X126086492Y-117097344D01*
X127372055Y-117097344D02*
X128436492Y-118161781D01*
X122680929Y-117097344D02*
X123966492Y-117097344D01*
X122680929Y-117097344D02*
X121616492Y-118161781D01*
X128436492Y-118161781D02*
X128436492Y-123917344D01*
X121616492Y-118161781D02*
X121616492Y-123917344D01*
X128436492Y-123917344D02*
X126086492Y-123917344D01*
X121616492Y-123917344D02*
X123966492Y-123917344D01*
%TO.C,U1*%
X125625492Y-85529344D02*
X125895492Y-85529344D01*
X125895492Y-85529344D02*
X125895492Y-88359344D01*
X132255492Y-85529344D02*
X132255492Y-86629344D01*
X132525492Y-85529344D02*
X132255492Y-85529344D01*
X125625492Y-79109344D02*
X125625492Y-85529344D01*
X132525492Y-79109344D02*
X132525492Y-85529344D01*
%TO.C,TP3*%
X153851492Y-101149344D02*
G75*
G03*
X153851492Y-101149344I-1251000J0D01*
G01*
%TO.C,TP4*%
X157951492Y-123449344D02*
G75*
G03*
X157951492Y-123449344I-1251000J0D01*
G01*
%TO.C,TP5*%
X176101492Y-119199344D02*
G75*
G03*
X176101492Y-119199344I-1251000J0D01*
G01*
%TO.C,Q3*%
X152870492Y-118179344D02*
X152870492Y-117909344D01*
X152870492Y-117909344D02*
X155700492Y-117909344D01*
X152870492Y-111549344D02*
X153970492Y-111549344D01*
X152870492Y-111279344D02*
X152870492Y-111549344D01*
X146450492Y-118179344D02*
X152870492Y-118179344D01*
X146450492Y-111279344D02*
X152870492Y-111279344D01*
%TO.C,R3*%
X189845768Y-95426844D02*
X190355216Y-95426844D01*
X189845768Y-96471844D02*
X190355216Y-96471844D01*
%TO.C,C15*%
X118237992Y-116069844D02*
X118237992Y-116857344D01*
X118631742Y-116463594D02*
X117844242Y-116463594D01*
X118736055Y-117097344D02*
X117450492Y-117097344D01*
X118736055Y-117097344D02*
X119800492Y-118161781D01*
X114044929Y-117097344D02*
X115330492Y-117097344D01*
X114044929Y-117097344D02*
X112980492Y-118161781D01*
X119800492Y-118161781D02*
X119800492Y-123917344D01*
X112980492Y-118161781D02*
X112980492Y-123917344D01*
X119800492Y-123917344D02*
X117450492Y-123917344D01*
X112980492Y-123917344D02*
X115330492Y-123917344D01*
D15*
%TO.C,J3*%
X148013492Y-125909344D02*
X148013492Y-128195344D01*
X148013492Y-128195344D02*
X148013492Y-133783344D01*
X148013492Y-128195344D02*
X148267492Y-128195344D01*
X148013492Y-133783344D02*
X148267492Y-133783344D01*
X148267492Y-125909344D02*
X148013492Y-125909344D01*
X148267492Y-128195344D02*
X148267492Y-125909344D01*
X148267492Y-133783344D02*
X148267492Y-136577344D01*
X148267492Y-136577344D02*
X148267492Y-138609344D01*
X148267492Y-136577344D02*
X149791492Y-136577344D01*
X148267492Y-138609344D02*
X148521492Y-138609344D01*
X148521492Y-138609344D02*
X149029492Y-138101344D01*
X148521492Y-138609344D02*
X149029492Y-138609344D01*
X149029492Y-136577344D02*
X148267492Y-136577344D01*
X149029492Y-138101344D02*
X149029492Y-136577344D01*
X149029492Y-138609344D02*
X154109492Y-138609344D01*
X149283492Y-125909344D02*
X148267492Y-125909344D01*
X149283492Y-125909344D02*
X149283492Y-129211344D01*
X149283492Y-129211344D02*
X153855492Y-129211344D01*
X150807492Y-130735344D02*
X152331492Y-130735344D01*
X150807492Y-135561344D02*
X150807492Y-130735344D01*
X152331492Y-130735344D02*
X152331492Y-135561344D01*
X153347492Y-136577344D02*
X154109492Y-136577344D01*
X153855492Y-125909344D02*
X154871492Y-125909344D01*
X153855492Y-129211344D02*
X153855492Y-125909344D01*
X154109492Y-136577344D02*
X154871492Y-136577344D01*
X154109492Y-138101344D02*
X154109492Y-136577344D01*
X154109492Y-138609344D02*
X154617492Y-138609344D01*
X154617492Y-138609344D02*
X154109492Y-138101344D01*
X154871492Y-125909344D02*
X155125492Y-125909344D01*
X154871492Y-128195344D02*
X154871492Y-125909344D01*
X154871492Y-133783344D02*
X155125492Y-133783344D01*
X154871492Y-136577344D02*
X154871492Y-133783344D01*
X154871492Y-138609344D02*
X154617492Y-138609344D01*
X154871492Y-138609344D02*
X154871492Y-136577344D01*
X155125492Y-128195344D02*
X154871492Y-128195344D01*
X155125492Y-128195344D02*
X155125492Y-125909344D01*
X155125492Y-133783344D02*
X155125492Y-128195344D01*
X149791492Y-136577344D02*
G75*
G03*
X150807492Y-135561344I-2J1016002D01*
G01*
X152331492Y-135561344D02*
G75*
G03*
X153347492Y-136577344I1016000J0D01*
G01*
D14*
%TO.C,C7*%
X135509992Y-116069844D02*
X135509992Y-116857344D01*
X135903742Y-116463594D02*
X135116242Y-116463594D01*
X136008055Y-117097344D02*
X134722492Y-117097344D01*
X136008055Y-117097344D02*
X137072492Y-118161781D01*
X131316929Y-117097344D02*
X132602492Y-117097344D01*
X131316929Y-117097344D02*
X130252492Y-118161781D01*
X137072492Y-118161781D02*
X137072492Y-123917344D01*
X130252492Y-118161781D02*
X130252492Y-123917344D01*
X137072492Y-123917344D02*
X134722492Y-123917344D01*
X130252492Y-123917344D02*
X132602492Y-123917344D01*
%TO.C,D2*%
X123100492Y-81484344D02*
X125100492Y-81484344D01*
X123100492Y-81484344D02*
X123100492Y-77624344D01*
X125100492Y-81484344D02*
X125100492Y-77624344D01*
%TO.C,C6*%
X150090492Y-86318111D02*
X150090492Y-86025577D01*
X151110492Y-86318111D02*
X151110492Y-86025577D01*
%TO.C,D5*%
X139600492Y-81484344D02*
X141600492Y-81484344D01*
X139600492Y-81484344D02*
X139600492Y-77624344D01*
X141600492Y-81484344D02*
X141600492Y-77624344D01*
D15*
%TO.C,J4*%
X122486492Y-125909344D02*
X122486492Y-128195344D01*
X122486492Y-128195344D02*
X122486492Y-133783344D01*
X122486492Y-128195344D02*
X122740492Y-128195344D01*
X122486492Y-133783344D02*
X122740492Y-133783344D01*
X122740492Y-125909344D02*
X122486492Y-125909344D01*
X122740492Y-128195344D02*
X122740492Y-125909344D01*
X122740492Y-133783344D02*
X122740492Y-136577344D01*
X122740492Y-136577344D02*
X122740492Y-138609344D01*
X122740492Y-136577344D02*
X124264492Y-136577344D01*
X122740492Y-138609344D02*
X122994492Y-138609344D01*
X122994492Y-138609344D02*
X123502492Y-138101344D01*
X122994492Y-138609344D02*
X123502492Y-138609344D01*
X123502492Y-136577344D02*
X122740492Y-136577344D01*
X123502492Y-138101344D02*
X123502492Y-136577344D01*
X123502492Y-138609344D02*
X128582492Y-138609344D01*
X123756492Y-125909344D02*
X122740492Y-125909344D01*
X123756492Y-125909344D02*
X123756492Y-129211344D01*
X123756492Y-129211344D02*
X128328492Y-129211344D01*
X125280492Y-130735344D02*
X126804492Y-130735344D01*
X125280492Y-135561344D02*
X125280492Y-130735344D01*
X126804492Y-130735344D02*
X126804492Y-135561344D01*
X127820492Y-136577344D02*
X128582492Y-136577344D01*
X128328492Y-125909344D02*
X129344492Y-125909344D01*
X128328492Y-129211344D02*
X128328492Y-125909344D01*
X128582492Y-136577344D02*
X129344492Y-136577344D01*
X128582492Y-138101344D02*
X128582492Y-136577344D01*
X128582492Y-138609344D02*
X129090492Y-138609344D01*
X129090492Y-138609344D02*
X128582492Y-138101344D01*
X129344492Y-125909344D02*
X129598492Y-125909344D01*
X129344492Y-128195344D02*
X129344492Y-125909344D01*
X129344492Y-133783344D02*
X129598492Y-133783344D01*
X129344492Y-136577344D02*
X129344492Y-133783344D01*
X129344492Y-138609344D02*
X129090492Y-138609344D01*
X129344492Y-138609344D02*
X129344492Y-136577344D01*
X129598492Y-128195344D02*
X129344492Y-128195344D01*
X129598492Y-128195344D02*
X129598492Y-125909344D01*
X129598492Y-133783344D02*
X129598492Y-128195344D01*
X124264492Y-136577344D02*
G75*
G03*
X125280492Y-135561344I-2J1016002D01*
G01*
X126804492Y-135561344D02*
G75*
G03*
X127820492Y-136577344I1016000J0D01*
G01*
D14*
%TO.C,R4*%
X175442716Y-98471844D02*
X174933268Y-98471844D01*
X175442716Y-97426844D02*
X174933268Y-97426844D01*
%TO.C,C1*%
X112445992Y-92382844D02*
X111658492Y-92382844D01*
X112052242Y-92776594D02*
X112052242Y-91989094D01*
X111418492Y-92880907D02*
X111418492Y-91595344D01*
X111418492Y-92880907D02*
X110354055Y-93945344D01*
X111418492Y-88189781D02*
X111418492Y-89475344D01*
X111418492Y-88189781D02*
X110354055Y-87125344D01*
X110354055Y-93945344D02*
X104598492Y-93945344D01*
X110354055Y-87125344D02*
X104598492Y-87125344D01*
X104598492Y-93945344D02*
X104598492Y-91595344D01*
X104598492Y-87125344D02*
X104598492Y-89475344D01*
D15*
%TO.C,J1*%
X135948492Y-125909344D02*
X135948492Y-128195344D01*
X135948492Y-128195344D02*
X135948492Y-133783344D01*
X135948492Y-128195344D02*
X136202492Y-128195344D01*
X135948492Y-133783344D02*
X136202492Y-133783344D01*
X136202492Y-125909344D02*
X135948492Y-125909344D01*
X136202492Y-128195344D02*
X136202492Y-125909344D01*
X136202492Y-133783344D02*
X136202492Y-136577344D01*
X136202492Y-136577344D02*
X136202492Y-138609344D01*
X136202492Y-136577344D02*
X137726492Y-136577344D01*
X136202492Y-138609344D02*
X136456492Y-138609344D01*
X136456492Y-138609344D02*
X136964492Y-138101344D01*
X136456492Y-138609344D02*
X136964492Y-138609344D01*
X136964492Y-136577344D02*
X136202492Y-136577344D01*
X136964492Y-138101344D02*
X136964492Y-136577344D01*
X136964492Y-138609344D02*
X142044492Y-138609344D01*
X137218492Y-125909344D02*
X136202492Y-125909344D01*
X137218492Y-125909344D02*
X137218492Y-129211344D01*
X137218492Y-129211344D02*
X141790492Y-129211344D01*
X138742492Y-130735344D02*
X140266492Y-130735344D01*
X138742492Y-135561344D02*
X138742492Y-130735344D01*
X140266492Y-130735344D02*
X140266492Y-135561344D01*
X141282492Y-136577344D02*
X142044492Y-136577344D01*
X141790492Y-125909344D02*
X142806492Y-125909344D01*
X141790492Y-129211344D02*
X141790492Y-125909344D01*
X142044492Y-136577344D02*
X142806492Y-136577344D01*
X142044492Y-138101344D02*
X142044492Y-136577344D01*
X142044492Y-138609344D02*
X142552492Y-138609344D01*
X142552492Y-138609344D02*
X142044492Y-138101344D01*
X142806492Y-125909344D02*
X143060492Y-125909344D01*
X142806492Y-128195344D02*
X142806492Y-125909344D01*
X142806492Y-133783344D02*
X143060492Y-133783344D01*
X142806492Y-136577344D02*
X142806492Y-133783344D01*
X142806492Y-138609344D02*
X142552492Y-138609344D01*
X142806492Y-138609344D02*
X142806492Y-136577344D01*
X143060492Y-128195344D02*
X142806492Y-128195344D01*
X143060492Y-128195344D02*
X143060492Y-125909344D01*
X143060492Y-133783344D02*
X143060492Y-128195344D01*
X137726492Y-136577344D02*
G75*
G03*
X138742492Y-135561344I-2J1016002D01*
G01*
X140266492Y-135561344D02*
G75*
G03*
X141282492Y-136577344I1016000J0D01*
G01*
D14*
%TO.C,D4*%
X151600492Y-77064344D02*
X149600492Y-77064344D01*
X151600492Y-77064344D02*
X151600492Y-80924344D01*
X149600492Y-77064344D02*
X149600492Y-80924344D01*
%TO.C,D3*%
X156100492Y-81484344D02*
X158100492Y-81484344D01*
X156100492Y-81484344D02*
X156100492Y-77624344D01*
X158100492Y-81484344D02*
X158100492Y-77624344D01*
D13*
%TO.C,J2*%
X157100492Y-128649344D02*
X157100492Y-138649344D01*
X157100492Y-128649344D02*
X158100492Y-128649344D01*
X157100492Y-132899344D02*
X167100492Y-132899344D01*
X157100492Y-138649344D02*
X157600492Y-138649344D01*
X157600492Y-132899344D02*
X157600492Y-135899344D01*
X157600492Y-135899344D02*
X158400492Y-135899344D01*
X158100492Y-128649344D02*
X158100492Y-132199344D01*
X158100492Y-137149344D02*
X158100492Y-138149344D01*
X158400492Y-135899344D02*
X158600492Y-135699344D01*
X158600492Y-135249344D02*
X157600492Y-135249344D01*
X158600492Y-135699344D02*
X158600492Y-132899344D01*
X158600492Y-136649344D02*
X159400492Y-136649344D01*
X159400492Y-136649344D02*
X159600492Y-136449344D01*
X159500492Y-136549344D02*
X160700492Y-136549344D01*
X159600492Y-133399344D02*
X159600492Y-136449344D01*
X159600492Y-133399344D02*
X160600492Y-133399344D01*
X160600492Y-133399344D02*
X160600492Y-136449344D01*
X160600492Y-136449344D02*
X160800492Y-136649344D01*
X160800492Y-136649344D02*
X163400492Y-136649344D01*
X163400492Y-136649344D02*
X163600492Y-136449344D01*
X163500492Y-136549344D02*
X164700492Y-136549344D01*
X163600492Y-133399344D02*
X163600492Y-136449344D01*
X164600492Y-133399344D02*
X163600492Y-133399344D01*
X164600492Y-133399344D02*
X164600492Y-136449344D01*
X164600492Y-136449344D02*
X164800492Y-136649344D01*
X164800492Y-136649344D02*
X165600492Y-136649344D01*
X165600492Y-135249344D02*
X166600492Y-135249344D01*
X165600492Y-135699344D02*
X165600492Y-132899344D01*
X165600492Y-135699344D02*
X165800492Y-135899344D01*
X166100492Y-128649344D02*
X166100492Y-132199344D01*
X166100492Y-132199344D02*
X158100492Y-132199344D01*
X166100492Y-137149344D02*
X166100492Y-138149344D01*
X166600492Y-132899344D02*
X166600492Y-135899344D01*
X166600492Y-135899344D02*
X165800492Y-135899344D01*
X167100492Y-128649344D02*
X166100492Y-128649344D01*
X167100492Y-128649344D02*
X167100492Y-138649344D01*
X167100492Y-138649344D02*
X166600492Y-138649344D01*
X158600492Y-136649344D02*
G75*
G03*
X158100492Y-137149344I1J-500001D01*
G01*
X157600492Y-138649344D02*
G75*
G03*
X158100492Y-138149344I-1J500001D01*
G01*
X166100492Y-137149344D02*
G75*
G03*
X165600492Y-136649344I-500000J0D01*
G01*
X166100492Y-138149344D02*
G75*
G03*
X166600492Y-138649344I500000J0D01*
G01*
X159100492Y-127649344D02*
X158850492Y-127399344D01*
X159350492Y-127399344D01*
X159100492Y-127649344D01*
G36*
X159100492Y-127649344D02*
G01*
X158850492Y-127399344D01*
X159350492Y-127399344D01*
X159100492Y-127649344D01*
G37*
D14*
%TO.C,D1*%
X135100492Y-77064344D02*
X133100492Y-77064344D01*
X135100492Y-77064344D02*
X135100492Y-80924344D01*
X133100492Y-77064344D02*
X133100492Y-80924344D01*
%TO.C,C11*%
X112445992Y-109654844D02*
X111658492Y-109654844D01*
X112052242Y-110048594D02*
X112052242Y-109261094D01*
X111418492Y-110152907D02*
X111418492Y-108867344D01*
X111418492Y-110152907D02*
X110354055Y-111217344D01*
X111418492Y-105461781D02*
X111418492Y-106747344D01*
X111418492Y-105461781D02*
X110354055Y-104397344D01*
X110354055Y-111217344D02*
X104598492Y-111217344D01*
X110354055Y-104397344D02*
X104598492Y-104397344D01*
X104598492Y-111217344D02*
X104598492Y-108867344D01*
X104598492Y-104397344D02*
X104598492Y-106747344D01*
%TO.C,C9*%
X166590492Y-86328111D02*
X166590492Y-86035577D01*
X167610492Y-86328111D02*
X167610492Y-86035577D01*
%TO.C,D6*%
X168100492Y-77064344D02*
X166100492Y-77064344D01*
X168100492Y-77064344D02*
X168100492Y-80924344D01*
X166100492Y-77064344D02*
X166100492Y-80924344D01*
%TO.C,TP2*%
X117641492Y-81137344D02*
G75*
G03*
X117641492Y-81137344I-1251000J0D01*
G01*
%TO.C,C13*%
X124702992Y-106910844D02*
X124702992Y-106123344D01*
X124309242Y-106517094D02*
X125096742Y-106517094D01*
X124204929Y-105883344D02*
X125490492Y-105883344D01*
X124204929Y-105883344D02*
X123140492Y-104818907D01*
X128896055Y-105883344D02*
X127610492Y-105883344D01*
X128896055Y-105883344D02*
X129960492Y-104818907D01*
X123140492Y-104818907D02*
X123140492Y-99063344D01*
X129960492Y-104818907D02*
X129960492Y-99063344D01*
X123140492Y-99063344D02*
X125490492Y-99063344D01*
X129960492Y-99063344D02*
X127610492Y-99063344D01*
D13*
%TO.C,SW1*%
X187520492Y-103489344D02*
X196610492Y-103489344D01*
X196610492Y-103489344D02*
X196610492Y-98409344D01*
X196610492Y-98409344D02*
X187520492Y-98409344D01*
X187520492Y-98409344D02*
X187520492Y-103489344D01*
D14*
%TO.C,TP1*%
X178251492Y-87549344D02*
G75*
G03*
X178251492Y-87549344I-1251000J0D01*
G01*
%TO.C,C3*%
X123590492Y-86243111D02*
X123590492Y-85950577D01*
X124610492Y-86243111D02*
X124610492Y-85950577D01*
%TO.C,C2*%
X133590492Y-86280611D02*
X133590492Y-85988077D01*
X134610492Y-86280611D02*
X134610492Y-85988077D01*
%TO.C,C5*%
X140090492Y-86355611D02*
X140090492Y-86063077D01*
X141110492Y-86355611D02*
X141110492Y-86063077D01*
%TO.C,D7*%
X126890492Y-89134344D02*
X126890492Y-91134344D01*
X126890492Y-89134344D02*
X130750492Y-89134344D01*
X126890492Y-91134344D02*
X130750492Y-91134344D01*
%TO.C,C4*%
X156590492Y-86328111D02*
X156590492Y-86035577D01*
X157610492Y-86328111D02*
X157610492Y-86035577D01*
%TO.C,U2*%
X142150492Y-85519344D02*
X142420492Y-85519344D01*
X142420492Y-85519344D02*
X142420492Y-88349344D01*
X148780492Y-85519344D02*
X148780492Y-86619344D01*
X149050492Y-85519344D02*
X148780492Y-85519344D01*
X142150492Y-79099344D02*
X142150492Y-85519344D01*
X149050492Y-79099344D02*
X149050492Y-85519344D01*
%TO.C,D8*%
X143490492Y-89209344D02*
X143490492Y-91209344D01*
X143490492Y-89209344D02*
X147350492Y-89209344D01*
X143490492Y-91209344D02*
X147350492Y-91209344D01*
%TO.C,C12*%
X133592992Y-106656844D02*
X133592992Y-105869344D01*
X133199242Y-106263094D02*
X133986742Y-106263094D01*
X133094929Y-105629344D02*
X134380492Y-105629344D01*
X133094929Y-105629344D02*
X132030492Y-104564907D01*
X137786055Y-105629344D02*
X136500492Y-105629344D01*
X137786055Y-105629344D02*
X138850492Y-104564907D01*
X132030492Y-104564907D02*
X132030492Y-98809344D01*
X138850492Y-104564907D02*
X138850492Y-98809344D01*
X132030492Y-98809344D02*
X134380492Y-98809344D01*
X138850492Y-98809344D02*
X136500492Y-98809344D01*
%TO.C,R1*%
X175415056Y-101049344D02*
X174960928Y-101049344D01*
X175415056Y-99579344D02*
X174960928Y-99579344D01*
%TO.C,D9*%
X159890492Y-89059344D02*
X159890492Y-91059344D01*
X159890492Y-89059344D02*
X163750492Y-89059344D01*
X159890492Y-91059344D02*
X163750492Y-91059344D01*
%TO.C,R2*%
X174960928Y-94753344D02*
X175415056Y-94753344D01*
X174960928Y-96223344D02*
X175415056Y-96223344D01*
%TO.C,C10*%
X112445992Y-101018844D02*
X111658492Y-101018844D01*
X112052242Y-101412594D02*
X112052242Y-100625094D01*
X111418492Y-101516907D02*
X111418492Y-100231344D01*
X111418492Y-101516907D02*
X110354055Y-102581344D01*
X111418492Y-96825781D02*
X111418492Y-98111344D01*
X111418492Y-96825781D02*
X110354055Y-95761344D01*
X110354055Y-102581344D02*
X104598492Y-102581344D01*
X110354055Y-95761344D02*
X104598492Y-95761344D01*
X104598492Y-102581344D02*
X104598492Y-100231344D01*
X104598492Y-95761344D02*
X104598492Y-98111344D01*
%TD*%
M02*
