%TF.GenerationSoftware,KiCad,Pcbnew,7.0.1-0*%
%TF.CreationDate,2023-05-25T18:05:17+09:00*%
%TF.ProjectId,Transformation,5472616e-7366-46f7-926d-6174696f6e2e,rev?*%
%TF.SameCoordinates,Original*%
%TF.FileFunction,Paste,Top*%
%TF.FilePolarity,Positive*%
%FSLAX46Y46*%
G04 Gerber Fmt 4.6, Leading zero omitted, Abs format (unit mm)*
G04 Created by KiCad (PCBNEW 7.0.1-0) date 2023-05-25 18:05:17*
%MOMM*%
%LPD*%
G01*
G04 APERTURE LIST*
G04 Aperture macros list*
%AMRoundRect*
0 Rectangle with rounded corners*
0 $1 Rounding radius*
0 $2 $3 $4 $5 $6 $7 $8 $9 X,Y pos of 4 corners*
0 Add a 4 corners polygon primitive as box body*
4,1,4,$2,$3,$4,$5,$6,$7,$8,$9,$2,$3,0*
0 Add four circle primitives for the rounded corners*
1,1,$1+$1,$2,$3*
1,1,$1+$1,$4,$5*
1,1,$1+$1,$6,$7*
1,1,$1+$1,$8,$9*
0 Add four rect primitives between the rounded corners*
20,1,$1+$1,$2,$3,$4,$5,0*
20,1,$1+$1,$4,$5,$6,$7,0*
20,1,$1+$1,$6,$7,$8,$9,0*
20,1,$1+$1,$8,$9,$2,$3,0*%
G04 Aperture macros list end*
%ADD10RoundRect,0.170000X0.170000X0.210000X-0.170000X0.210000X-0.170000X-0.210000X0.170000X-0.210000X0*%
%ADD11RoundRect,0.075000X0.650000X0.075000X-0.650000X0.075000X-0.650000X-0.075000X0.650000X-0.075000X0*%
%ADD12RoundRect,0.250000X-0.350000X0.850000X-0.350000X-0.850000X0.350000X-0.850000X0.350000X0.850000X0*%
%ADD13RoundRect,0.250000X-1.125000X1.275000X-1.125000X-1.275000X1.125000X-1.275000X1.125000X1.275000X0*%
%ADD14RoundRect,0.237500X0.287500X0.237500X-0.287500X0.237500X-0.287500X-0.237500X0.287500X-0.237500X0*%
%ADD15RoundRect,0.250000X-0.850000X-0.350000X0.850000X-0.350000X0.850000X0.350000X-0.850000X0.350000X0*%
%ADD16RoundRect,0.250000X-1.275000X-1.125000X1.275000X-1.125000X1.275000X1.125000X-1.275000X1.125000X0*%
%ADD17RoundRect,0.250000X1.500000X0.550000X-1.500000X0.550000X-1.500000X-0.550000X1.500000X-0.550000X0*%
%ADD18RoundRect,0.250000X0.350000X-0.850000X0.350000X0.850000X-0.350000X0.850000X-0.350000X-0.850000X0*%
%ADD19RoundRect,0.250000X1.125000X-1.275000X1.125000X1.275000X-1.125000X1.275000X-1.125000X-1.275000X0*%
%ADD20RoundRect,0.250000X-0.550000X1.500000X-0.550000X-1.500000X0.550000X-1.500000X0.550000X1.500000X0*%
%ADD21RoundRect,0.250000X0.850000X0.350000X-0.850000X0.350000X-0.850000X-0.350000X0.850000X-0.350000X0*%
%ADD22RoundRect,0.250000X1.275000X1.125000X-1.275000X1.125000X-1.275000X-1.125000X1.275000X-1.125000X0*%
%ADD23RoundRect,0.237500X-0.250000X-0.237500X0.250000X-0.237500X0.250000X0.237500X-0.250000X0.237500X0*%
%ADD24RoundRect,0.250000X0.300000X-0.300000X0.300000X0.300000X-0.300000X0.300000X-0.300000X-0.300000X0*%
%ADD25RoundRect,0.237500X0.237500X-0.300000X0.237500X0.300000X-0.237500X0.300000X-0.237500X-0.300000X0*%
%ADD26RoundRect,0.237500X0.250000X0.237500X-0.250000X0.237500X-0.250000X-0.237500X0.250000X-0.237500X0*%
%ADD27RoundRect,0.250000X-0.300000X0.300000X-0.300000X-0.300000X0.300000X-0.300000X0.300000X0.300000X0*%
%ADD28RoundRect,0.250000X0.550000X-1.500000X0.550000X1.500000X-0.550000X1.500000X-0.550000X-1.500000X0*%
%ADD29RoundRect,0.250000X-0.300000X-0.300000X0.300000X-0.300000X0.300000X0.300000X-0.300000X0.300000X0*%
%ADD30RoundRect,0.250000X0.350000X0.450000X-0.350000X0.450000X-0.350000X-0.450000X0.350000X-0.450000X0*%
%ADD31RoundRect,0.250000X-0.350000X-0.450000X0.350000X-0.450000X0.350000X0.450000X-0.350000X0.450000X0*%
G04 APERTURE END LIST*
D10*
%TO.C,U4*%
X168020492Y-97919344D03*
X167180492Y-96979344D03*
X168020492Y-96979344D03*
X167180492Y-97919344D03*
D11*
X169750492Y-98449344D03*
X169750492Y-97949344D03*
X169750492Y-97449344D03*
X169750492Y-96949344D03*
X169750492Y-96449344D03*
X165450492Y-96449344D03*
X165450492Y-96949344D03*
X165450492Y-97449344D03*
X165450492Y-97949344D03*
X165450492Y-98449344D03*
%TD*%
D12*
%TO.C,Q2*%
X164600492Y-112449344D03*
D13*
X163845492Y-117074344D03*
X160795492Y-117074344D03*
X163845492Y-120424344D03*
X160795492Y-120424344D03*
D12*
X160040492Y-112449344D03*
%TD*%
D14*
%TO.C,D10*%
X194975492Y-95949344D03*
X193225492Y-95949344D03*
%TD*%
D15*
%TO.C,Q1*%
X171100492Y-104949344D03*
D16*
X175725492Y-105704344D03*
X175725492Y-108754344D03*
X179075492Y-105704344D03*
X179075492Y-108754344D03*
D15*
X171100492Y-109509344D03*
%TD*%
D17*
%TO.C,C14*%
X110808492Y-116443344D03*
X105208492Y-116443344D03*
%TD*%
D18*
%TO.C,U3*%
X159820492Y-87259344D03*
D19*
X160575492Y-82634344D03*
X163625492Y-82634344D03*
X160575492Y-79284344D03*
X163625492Y-79284344D03*
D18*
X164380492Y-87259344D03*
%TD*%
D20*
%TO.C,C8*%
X125026492Y-117707344D03*
X125026492Y-123307344D03*
%TD*%
D18*
%TO.C,U1*%
X126795492Y-87259344D03*
D19*
X127550492Y-82634344D03*
X130600492Y-82634344D03*
X127550492Y-79284344D03*
X130600492Y-79284344D03*
D18*
X131355492Y-87259344D03*
%TD*%
D21*
%TO.C,Q3*%
X154600492Y-117009344D03*
D22*
X149975492Y-116254344D03*
X149975492Y-113204344D03*
X146625492Y-116254344D03*
X146625492Y-113204344D03*
D21*
X154600492Y-112449344D03*
%TD*%
D23*
%TO.C,R3*%
X189187992Y-95949344D03*
X191012992Y-95949344D03*
%TD*%
D20*
%TO.C,C15*%
X116390492Y-117707344D03*
X116390492Y-123307344D03*
%TD*%
%TO.C,C7*%
X133662492Y-117707344D03*
X133662492Y-123307344D03*
%TD*%
D24*
%TO.C,D2*%
X124100492Y-80674344D03*
X124100492Y-77874344D03*
%TD*%
D25*
%TO.C,C6*%
X150600492Y-87034344D03*
X150600492Y-85309344D03*
%TD*%
D24*
%TO.C,D5*%
X140600492Y-80674344D03*
X140600492Y-77874344D03*
%TD*%
D26*
%TO.C,R4*%
X176100492Y-97949344D03*
X174275492Y-97949344D03*
%TD*%
D17*
%TO.C,C1*%
X110808492Y-90535344D03*
X105208492Y-90535344D03*
%TD*%
D27*
%TO.C,D4*%
X150600492Y-77874344D03*
X150600492Y-80674344D03*
%TD*%
D24*
%TO.C,D3*%
X157100492Y-80674344D03*
X157100492Y-77874344D03*
%TD*%
D27*
%TO.C,D1*%
X134100492Y-77874344D03*
X134100492Y-80674344D03*
%TD*%
D17*
%TO.C,C11*%
X110808492Y-107807344D03*
X105208492Y-107807344D03*
%TD*%
D25*
%TO.C,C9*%
X167100492Y-87044344D03*
X167100492Y-85319344D03*
%TD*%
D27*
%TO.C,D6*%
X167100492Y-77874344D03*
X167100492Y-80674344D03*
%TD*%
D28*
%TO.C,C13*%
X126550492Y-105273344D03*
X126550492Y-99673344D03*
%TD*%
D25*
%TO.C,C3*%
X124100492Y-86959344D03*
X124100492Y-85234344D03*
%TD*%
%TO.C,C2*%
X134100492Y-86996844D03*
X134100492Y-85271844D03*
%TD*%
%TO.C,C5*%
X140600492Y-87071844D03*
X140600492Y-85346844D03*
%TD*%
D29*
%TO.C,D7*%
X127700492Y-90134344D03*
X130500492Y-90134344D03*
%TD*%
D25*
%TO.C,C4*%
X157100492Y-87044344D03*
X157100492Y-85319344D03*
%TD*%
D18*
%TO.C,U2*%
X143320492Y-87249344D03*
D19*
X144075492Y-82624344D03*
X147125492Y-82624344D03*
X144075492Y-79274344D03*
X147125492Y-79274344D03*
D18*
X147880492Y-87249344D03*
%TD*%
D29*
%TO.C,D8*%
X144300492Y-90209344D03*
X147100492Y-90209344D03*
%TD*%
D28*
%TO.C,C12*%
X135440492Y-105019344D03*
X135440492Y-99419344D03*
%TD*%
D30*
%TO.C,R1*%
X176187992Y-100314344D03*
X174187992Y-100314344D03*
%TD*%
D29*
%TO.C,D9*%
X160700492Y-90059344D03*
X163500492Y-90059344D03*
%TD*%
D31*
%TO.C,R2*%
X174187992Y-95488344D03*
X176187992Y-95488344D03*
%TD*%
D17*
%TO.C,C10*%
X110808492Y-99171344D03*
X105208492Y-99171344D03*
%TD*%
M02*
