%TF.GenerationSoftware,KiCad,Pcbnew,7.0.1-0*%
%TF.CreationDate,2023-05-23T13:59:42+09:00*%
%TF.ProjectId,AirData,41697244-6174-4612-9e6b-696361645f70,rev?*%
%TF.SameCoordinates,Original*%
%TF.FileFunction,Paste,Top*%
%TF.FilePolarity,Positive*%
%FSLAX46Y46*%
G04 Gerber Fmt 4.6, Leading zero omitted, Abs format (unit mm)*
G04 Created by KiCad (PCBNEW 7.0.1-0) date 2023-05-23 13:59:42*
%MOMM*%
%LPD*%
G01*
G04 APERTURE LIST*
G04 Aperture macros list*
%AMRoundRect*
0 Rectangle with rounded corners*
0 $1 Rounding radius*
0 $2 $3 $4 $5 $6 $7 $8 $9 X,Y pos of 4 corners*
0 Add a 4 corners polygon primitive as box body*
4,1,4,$2,$3,$4,$5,$6,$7,$8,$9,$2,$3,0*
0 Add four circle primitives for the rounded corners*
1,1,$1+$1,$2,$3*
1,1,$1+$1,$4,$5*
1,1,$1+$1,$6,$7*
1,1,$1+$1,$8,$9*
0 Add four rect primitives between the rounded corners*
20,1,$1+$1,$2,$3,$4,$5,0*
20,1,$1+$1,$4,$5,$6,$7,0*
20,1,$1+$1,$6,$7,$8,$9,0*
20,1,$1+$1,$8,$9,$2,$3,0*%
G04 Aperture macros list end*
%ADD10RoundRect,0.237500X0.300000X0.237500X-0.300000X0.237500X-0.300000X-0.237500X0.300000X-0.237500X0*%
%ADD11RoundRect,0.237500X0.237500X-0.300000X0.237500X0.300000X-0.237500X0.300000X-0.237500X-0.300000X0*%
%ADD12RoundRect,0.237500X-0.237500X0.250000X-0.237500X-0.250000X0.237500X-0.250000X0.237500X0.250000X0*%
%ADD13RoundRect,0.237500X-0.300000X-0.237500X0.300000X-0.237500X0.300000X0.237500X-0.300000X0.237500X0*%
%ADD14RoundRect,0.250000X-1.500000X-0.550000X1.500000X-0.550000X1.500000X0.550000X-1.500000X0.550000X0*%
%ADD15RoundRect,0.237500X0.287500X0.237500X-0.287500X0.237500X-0.287500X-0.237500X0.287500X-0.237500X0*%
%ADD16RoundRect,0.237500X0.237500X-0.287500X0.237500X0.287500X-0.237500X0.287500X-0.237500X-0.287500X0*%
%ADD17RoundRect,0.237500X-0.237500X0.287500X-0.237500X-0.287500X0.237500X-0.287500X0.237500X0.287500X0*%
%ADD18RoundRect,0.237500X0.250000X0.237500X-0.250000X0.237500X-0.250000X-0.237500X0.250000X-0.237500X0*%
%ADD19RoundRect,0.250000X0.300000X-0.300000X0.300000X0.300000X-0.300000X0.300000X-0.300000X-0.300000X0*%
%ADD20RoundRect,0.250000X0.850000X0.350000X-0.850000X0.350000X-0.850000X-0.350000X0.850000X-0.350000X0*%
%ADD21RoundRect,0.250000X1.275000X1.125000X-1.275000X1.125000X-1.275000X-1.125000X1.275000X-1.125000X0*%
%ADD22RoundRect,0.237500X-0.250000X-0.237500X0.250000X-0.237500X0.250000X0.237500X-0.250000X0.237500X0*%
G04 APERTURE END LIST*
D10*
%TO.C,C2*%
X171712500Y-116949432D03*
X169987500Y-116949432D03*
%TD*%
%TO.C,C6*%
X172112500Y-107199432D03*
X170387500Y-107199432D03*
%TD*%
%TO.C,C5*%
X182699800Y-115100200D03*
X180974800Y-115100200D03*
%TD*%
D11*
%TO.C,C4*%
X182917000Y-121890432D03*
X182917000Y-120165432D03*
%TD*%
%TO.C,C3*%
X182917000Y-126462700D03*
X182917000Y-124737700D03*
%TD*%
D12*
%TO.C,R4*%
X179454800Y-84425200D03*
X179454800Y-86250200D03*
%TD*%
D10*
%TO.C,C1*%
X192817300Y-91000200D03*
X191092300Y-91000200D03*
%TD*%
D13*
%TO.C,C7*%
X187092300Y-91000200D03*
X188817300Y-91000200D03*
%TD*%
D12*
%TO.C,R6*%
X163954800Y-67500200D03*
X163954800Y-69325200D03*
%TD*%
%TO.C,R7*%
X163867300Y-62575200D03*
X163867300Y-64400200D03*
%TD*%
D14*
%TO.C,C8*%
X170100000Y-98600200D03*
X175500000Y-98600200D03*
%TD*%
D15*
%TO.C,D1*%
X176242300Y-119500200D03*
X174492300Y-119500200D03*
%TD*%
D16*
%TO.C,D2*%
X172954800Y-90125200D03*
X172954800Y-88375200D03*
%TD*%
D12*
%TO.C,R5*%
X172954800Y-84587700D03*
X172954800Y-86412700D03*
%TD*%
D16*
%TO.C,D3*%
X179454800Y-90125200D03*
X179454800Y-88375200D03*
%TD*%
D17*
%TO.C,D5*%
X166954800Y-67625200D03*
X166954800Y-69375200D03*
%TD*%
%TO.C,D6*%
X166954800Y-62612700D03*
X166954800Y-64362700D03*
%TD*%
D18*
%TO.C,R2*%
X176279800Y-117500200D03*
X174454800Y-117500200D03*
%TD*%
D19*
%TO.C,D4*%
X175200000Y-113299432D03*
X175200000Y-110499432D03*
%TD*%
D20*
%TO.C,U3*%
X172300000Y-114179432D03*
D21*
X167675000Y-113424432D03*
X167675000Y-110374432D03*
X164325000Y-113424432D03*
X164325000Y-110374432D03*
D20*
X172300000Y-109619432D03*
%TD*%
D22*
%TO.C,R1*%
X192987500Y-129000000D03*
X194812500Y-129000000D03*
%TD*%
%TO.C,R3*%
X181049800Y-111790200D03*
X182874800Y-111790200D03*
%TD*%
M02*
