%TF.GenerationSoftware,KiCad,Pcbnew,7.0.1-0*%
%TF.CreationDate,2023-05-25T18:20:17+09:00*%
%TF.ProjectId,AirData,41697244-6174-4612-9e6b-696361645f70,rev?*%
%TF.SameCoordinates,Original*%
%TF.FileFunction,Soldermask,Top*%
%TF.FilePolarity,Negative*%
%FSLAX46Y46*%
G04 Gerber Fmt 4.6, Leading zero omitted, Abs format (unit mm)*
G04 Created by KiCad (PCBNEW 7.0.1-0) date 2023-05-25 18:20:17*
%MOMM*%
%LPD*%
G01*
G04 APERTURE LIST*
G04 Aperture macros list*
%AMRoundRect*
0 Rectangle with rounded corners*
0 $1 Rounding radius*
0 $2 $3 $4 $5 $6 $7 $8 $9 X,Y pos of 4 corners*
0 Add a 4 corners polygon primitive as box body*
4,1,4,$2,$3,$4,$5,$6,$7,$8,$9,$2,$3,0*
0 Add four circle primitives for the rounded corners*
1,1,$1+$1,$2,$3*
1,1,$1+$1,$4,$5*
1,1,$1+$1,$6,$7*
1,1,$1+$1,$8,$9*
0 Add four rect primitives between the rounded corners*
20,1,$1+$1,$2,$3,$4,$5,0*
20,1,$1+$1,$4,$5,$6,$7,0*
20,1,$1+$1,$6,$7,$8,$9,0*
20,1,$1+$1,$8,$9,$2,$3,0*%
G04 Aperture macros list end*
%ADD10C,4.500000*%
%ADD11RoundRect,0.237500X0.300000X0.237500X-0.300000X0.237500X-0.300000X-0.237500X0.300000X-0.237500X0*%
%ADD12RoundRect,0.237500X0.237500X-0.300000X0.237500X0.300000X-0.237500X0.300000X-0.237500X-0.300000X0*%
%ADD13RoundRect,0.250000X-0.450000X0.350000X-0.450000X-0.350000X0.450000X-0.350000X0.450000X0.350000X0*%
%ADD14RoundRect,0.250000X-0.350000X-0.560000X0.350000X-0.560000X0.350000X0.560000X-0.350000X0.560000X0*%
%ADD15O,1.200000X1.650000*%
%ADD16R,4.500000X2.000000*%
%ADD17C,2.250000*%
%ADD18R,1.508000X1.508000*%
%ADD19C,1.508000*%
%ADD20R,1.600000X1.600000*%
%ADD21O,1.600000X1.600000*%
%ADD22R,1.500000X1.500000*%
%ADD23C,1.500000*%
%ADD24RoundRect,0.250000X-1.500000X-0.550000X1.500000X-0.550000X1.500000X0.550000X-1.500000X0.550000X0*%
%ADD25RoundRect,0.237500X0.287500X0.237500X-0.287500X0.237500X-0.287500X-0.237500X0.287500X-0.237500X0*%
%ADD26RoundRect,0.237500X0.237500X-0.287500X0.237500X0.287500X-0.237500X0.287500X-0.237500X-0.287500X0*%
%ADD27RoundRect,0.237500X-0.300000X-0.237500X0.300000X-0.237500X0.300000X0.237500X-0.300000X0.237500X0*%
%ADD28RoundRect,0.237500X-0.237500X0.287500X-0.237500X-0.287500X0.237500X-0.287500X0.237500X0.287500X0*%
%ADD29RoundRect,0.237500X0.250000X0.237500X-0.250000X0.237500X-0.250000X-0.237500X0.250000X-0.237500X0*%
%ADD30RoundRect,0.250000X0.300000X-0.300000X0.300000X0.300000X-0.300000X0.300000X-0.300000X-0.300000X0*%
%ADD31RoundRect,0.250000X0.850000X0.350000X-0.850000X0.350000X-0.850000X-0.350000X0.850000X-0.350000X0*%
%ADD32RoundRect,0.249997X2.950003X2.650003X-2.950003X2.650003X-2.950003X-2.650003X2.950003X-2.650003X0*%
%ADD33RoundRect,0.237500X-0.250000X-0.237500X0.250000X-0.237500X0.250000X0.237500X-0.250000X0.237500X0*%
%ADD34RoundRect,0.250000X-0.350000X-0.450000X0.350000X-0.450000X0.350000X0.450000X-0.350000X0.450000X0*%
G04 APERTURE END LIST*
D10*
%TO.C,REF\u002A\u002A*%
X178500000Y-75000000D03*
%TD*%
D11*
%TO.C,C2*%
X171712500Y-116949432D03*
X169987500Y-116949432D03*
%TD*%
D12*
%TO.C,C3*%
X182917000Y-126462700D03*
X182917000Y-124737700D03*
%TD*%
D13*
%TO.C,R4*%
X179454800Y-84337700D03*
X179454800Y-86337700D03*
%TD*%
D11*
%TO.C,C1*%
X196098500Y-85695432D03*
X194373500Y-85695432D03*
%TD*%
%TO.C,C6*%
X172112500Y-107199432D03*
X170387500Y-107199432D03*
%TD*%
D14*
%TO.C,J1*%
X162000000Y-132000000D03*
D15*
X162000000Y-134000000D03*
X164000000Y-132000000D03*
X164000000Y-134000000D03*
X166000000Y-132000000D03*
X166000000Y-134000000D03*
X168000000Y-132000000D03*
X168000000Y-134000000D03*
%TD*%
D16*
%TO.C,Y1*%
X185906000Y-89759432D03*
X194406000Y-89759432D03*
%TD*%
D10*
%TO.C,REF\u002A\u002A*%
X118500000Y-135000000D03*
%TD*%
D17*
%TO.C,U4*%
X158512500Y-56475000D03*
X138012500Y-56475000D03*
X158512500Y-113475000D03*
X138012500Y-113475000D03*
D18*
X138102500Y-76359800D03*
D19*
X138102500Y-78899800D03*
X138102500Y-81439800D03*
X138102500Y-83979800D03*
X138102500Y-86519800D03*
X138102500Y-89059800D03*
X138102500Y-91599800D03*
X138102500Y-94139800D03*
X138102500Y-96679800D03*
X138102500Y-99219800D03*
X138102500Y-101759800D03*
X138102500Y-104299800D03*
X138102500Y-106839800D03*
X138102500Y-109379800D03*
X158422500Y-109379800D03*
X158422500Y-106839800D03*
X158422500Y-104299800D03*
X158422500Y-101759800D03*
X158422500Y-99219800D03*
X158422500Y-96679800D03*
X158422500Y-94139800D03*
X158422500Y-91599800D03*
X158422500Y-89059800D03*
X158422500Y-86519800D03*
X158422500Y-83979800D03*
X158422500Y-81439800D03*
X158422500Y-78899800D03*
X158422500Y-76359800D03*
%TD*%
D20*
%TO.C,SW1*%
X130950000Y-59874432D03*
D21*
X128410000Y-59874432D03*
X128410000Y-67494432D03*
X130950000Y-67494432D03*
%TD*%
D10*
%TO.C,REF\u002A\u002A*%
X178500000Y-135000000D03*
%TD*%
D13*
%TO.C,R6*%
X163954800Y-67412700D03*
X163954800Y-69412700D03*
%TD*%
D22*
%TO.C,U1*%
X193254800Y-119200200D03*
D23*
X190714800Y-119200200D03*
X188174800Y-119200200D03*
X185634800Y-119200200D03*
X185634800Y-126820200D03*
X188174800Y-126820200D03*
X190714800Y-126820200D03*
X193254800Y-126820200D03*
%TD*%
D13*
%TO.C,R7*%
X163867300Y-62487700D03*
X163867300Y-64487700D03*
%TD*%
D17*
%TO.C,TP1*%
X171900000Y-128875432D03*
%TD*%
D12*
%TO.C,C4*%
X182917000Y-121890432D03*
X182917000Y-120165432D03*
%TD*%
D11*
%TO.C,C5*%
X182699800Y-115100200D03*
X180974800Y-115100200D03*
%TD*%
D17*
%TO.C,TP2*%
X171900000Y-125827432D03*
%TD*%
D24*
%TO.C,C8*%
X170000000Y-98600200D03*
X175600000Y-98600200D03*
%TD*%
D25*
%TO.C,D1*%
X176242300Y-119500200D03*
X174492300Y-119500200D03*
%TD*%
D26*
%TO.C,D2*%
X172954800Y-90125200D03*
X172954800Y-88375200D03*
%TD*%
D10*
%TO.C,REF\u002A\u002A*%
X118500000Y-75000000D03*
%TD*%
D13*
%TO.C,R5*%
X172954800Y-84314432D03*
X172954800Y-86314432D03*
%TD*%
D27*
%TO.C,C7*%
X184213500Y-85695432D03*
X185938500Y-85695432D03*
%TD*%
D26*
%TO.C,D3*%
X179454800Y-90125200D03*
X179454800Y-88375200D03*
%TD*%
D28*
%TO.C,D5*%
X166954800Y-67625200D03*
X166954800Y-69375200D03*
%TD*%
%TO.C,D6*%
X166954800Y-62612700D03*
X166954800Y-64362700D03*
%TD*%
D29*
%TO.C,R2*%
X176279800Y-117500200D03*
X174454800Y-117500200D03*
%TD*%
D22*
%TO.C,U2*%
X193074800Y-115040200D03*
D23*
X193074800Y-112500200D03*
X193074800Y-109960200D03*
X193074800Y-107420200D03*
X193074800Y-104880200D03*
X193074800Y-102340200D03*
X193074800Y-99800200D03*
X193074800Y-97260200D03*
X193074800Y-94720200D03*
X185454800Y-94720200D03*
X185454800Y-97260200D03*
X185454800Y-99800200D03*
X185454800Y-102340200D03*
X185454800Y-104880200D03*
X185454800Y-107420200D03*
X185454800Y-109960200D03*
X185454800Y-112500200D03*
X185454800Y-115040200D03*
%TD*%
D30*
%TO.C,D4*%
X175200000Y-113299432D03*
X175200000Y-110499432D03*
%TD*%
D31*
%TO.C,U3*%
X172300000Y-114179432D03*
D32*
X166000000Y-111899432D03*
D31*
X172300000Y-109619432D03*
%TD*%
D33*
%TO.C,R1*%
X192987500Y-129000000D03*
X194812500Y-129000000D03*
%TD*%
D34*
%TO.C,R3*%
X180962300Y-111790200D03*
X182962300Y-111790200D03*
%TD*%
M02*
