%TF.GenerationSoftware,KiCad,Pcbnew,7.0.1-0*%
%TF.CreationDate,2023-05-22T14:04:25+09:00*%
%TF.ProjectId,AirData,41697244-6174-4612-9e6b-696361645f70,rev?*%
%TF.SameCoordinates,Original*%
%TF.FileFunction,Legend,Top*%
%TF.FilePolarity,Positive*%
%FSLAX46Y46*%
G04 Gerber Fmt 4.6, Leading zero omitted, Abs format (unit mm)*
G04 Created by KiCad (PCBNEW 7.0.1-0) date 2023-05-22 14:04:25*
%MOMM*%
%LPD*%
G01*
G04 APERTURE LIST*
%ADD10C,0.100000*%
%ADD11C,0.150000*%
%ADD12C,0.153000*%
%ADD13C,0.200000*%
%ADD14C,0.120000*%
%ADD15C,0.127000*%
G04 APERTURE END LIST*
D10*
X173454800Y-116500200D02*
X179454800Y-116500200D01*
X179454800Y-122250200D01*
X173454800Y-122250200D01*
X173454800Y-116500200D01*
X170954800Y-83500200D02*
X182704800Y-83500200D01*
X182704800Y-94500200D01*
X170954800Y-94500200D01*
X170954800Y-83500200D01*
X162204800Y-60000200D02*
X172204800Y-60000200D01*
X172204800Y-72250200D01*
X162204800Y-72250200D01*
X162204800Y-60000200D01*
D11*
X177240514Y-92502819D02*
X176907181Y-92026628D01*
X176669086Y-92502819D02*
X176669086Y-91502819D01*
X176669086Y-91502819D02*
X177050038Y-91502819D01*
X177050038Y-91502819D02*
X177145276Y-91550438D01*
X177145276Y-91550438D02*
X177192895Y-91598057D01*
X177192895Y-91598057D02*
X177240514Y-91693295D01*
X177240514Y-91693295D02*
X177240514Y-91836152D01*
X177240514Y-91836152D02*
X177192895Y-91931390D01*
X177192895Y-91931390D02*
X177145276Y-91979009D01*
X177145276Y-91979009D02*
X177050038Y-92026628D01*
X177050038Y-92026628D02*
X176669086Y-92026628D01*
X177669086Y-91979009D02*
X178002419Y-91979009D01*
X178145276Y-92502819D02*
X177669086Y-92502819D01*
X177669086Y-92502819D02*
X177669086Y-91502819D01*
X177669086Y-91502819D02*
X178145276Y-91502819D01*
X179145276Y-92407580D02*
X179097657Y-92455200D01*
X179097657Y-92455200D02*
X178954800Y-92502819D01*
X178954800Y-92502819D02*
X178859562Y-92502819D01*
X178859562Y-92502819D02*
X178716705Y-92455200D01*
X178716705Y-92455200D02*
X178621467Y-92359961D01*
X178621467Y-92359961D02*
X178573848Y-92264723D01*
X178573848Y-92264723D02*
X178526229Y-92074247D01*
X178526229Y-92074247D02*
X178526229Y-91931390D01*
X178526229Y-91931390D02*
X178573848Y-91740914D01*
X178573848Y-91740914D02*
X178621467Y-91645676D01*
X178621467Y-91645676D02*
X178716705Y-91550438D01*
X178716705Y-91550438D02*
X178859562Y-91502819D01*
X178859562Y-91502819D02*
X178954800Y-91502819D01*
X178954800Y-91502819D02*
X179097657Y-91550438D01*
X179097657Y-91550438D02*
X179145276Y-91598057D01*
X179573848Y-91979009D02*
X179907181Y-91979009D01*
X180050038Y-92502819D02*
X179573848Y-92502819D01*
X179573848Y-92502819D02*
X179573848Y-91502819D01*
X179573848Y-91502819D02*
X180050038Y-91502819D01*
X180478610Y-92502819D02*
X180478610Y-91502819D01*
X180811943Y-91502819D02*
X181145276Y-92502819D01*
X181145276Y-92502819D02*
X181478609Y-91502819D01*
X181811943Y-91979009D02*
X182145276Y-91979009D01*
X182288133Y-92502819D02*
X181811943Y-92502819D01*
X181811943Y-92502819D02*
X181811943Y-91502819D01*
X181811943Y-91502819D02*
X182288133Y-91502819D01*
D12*
X124638095Y-60821812D02*
X125209523Y-60821812D01*
X124923809Y-60821812D02*
X124923809Y-61821812D01*
X124923809Y-61821812D02*
X125019047Y-61678955D01*
X125019047Y-61678955D02*
X125114285Y-61583717D01*
X125114285Y-61583717D02*
X125209523Y-61536098D01*
X123447618Y-60821812D02*
X123447618Y-61821812D01*
X123447618Y-61821812D02*
X123209523Y-61821812D01*
X123209523Y-61821812D02*
X123066666Y-61774193D01*
X123066666Y-61774193D02*
X122971428Y-61678955D01*
X122971428Y-61678955D02*
X122923809Y-61583717D01*
X122923809Y-61583717D02*
X122876190Y-61393241D01*
X122876190Y-61393241D02*
X122876190Y-61250384D01*
X122876190Y-61250384D02*
X122923809Y-61059908D01*
X122923809Y-61059908D02*
X122971428Y-60964670D01*
X122971428Y-60964670D02*
X123066666Y-60869432D01*
X123066666Y-60869432D02*
X123209523Y-60821812D01*
X123209523Y-60821812D02*
X123447618Y-60821812D01*
X122447618Y-61345622D02*
X122114285Y-61345622D01*
X121971428Y-60821812D02*
X122447618Y-60821812D01*
X122447618Y-60821812D02*
X122447618Y-61821812D01*
X122447618Y-61821812D02*
X121971428Y-61821812D01*
X121209523Y-61345622D02*
X121066666Y-61298003D01*
X121066666Y-61298003D02*
X121019047Y-61250384D01*
X121019047Y-61250384D02*
X120971428Y-61155146D01*
X120971428Y-61155146D02*
X120971428Y-61012289D01*
X120971428Y-61012289D02*
X121019047Y-60917051D01*
X121019047Y-60917051D02*
X121066666Y-60869432D01*
X121066666Y-60869432D02*
X121161904Y-60821812D01*
X121161904Y-60821812D02*
X121542856Y-60821812D01*
X121542856Y-60821812D02*
X121542856Y-61821812D01*
X121542856Y-61821812D02*
X121209523Y-61821812D01*
X121209523Y-61821812D02*
X121114285Y-61774193D01*
X121114285Y-61774193D02*
X121066666Y-61726574D01*
X121066666Y-61726574D02*
X121019047Y-61631336D01*
X121019047Y-61631336D02*
X121019047Y-61536098D01*
X121019047Y-61536098D02*
X121066666Y-61440860D01*
X121066666Y-61440860D02*
X121114285Y-61393241D01*
X121114285Y-61393241D02*
X121209523Y-61345622D01*
X121209523Y-61345622D02*
X121542856Y-61345622D01*
X120542856Y-61821812D02*
X120542856Y-61012289D01*
X120542856Y-61012289D02*
X120495237Y-60917051D01*
X120495237Y-60917051D02*
X120447618Y-60869432D01*
X120447618Y-60869432D02*
X120352380Y-60821812D01*
X120352380Y-60821812D02*
X120161904Y-60821812D01*
X120161904Y-60821812D02*
X120066666Y-60869432D01*
X120066666Y-60869432D02*
X120019047Y-60917051D01*
X120019047Y-60917051D02*
X119971428Y-61012289D01*
X119971428Y-61012289D02*
X119971428Y-61821812D01*
X118971428Y-61774193D02*
X119066666Y-61821812D01*
X119066666Y-61821812D02*
X119209523Y-61821812D01*
X119209523Y-61821812D02*
X119352380Y-61774193D01*
X119352380Y-61774193D02*
X119447618Y-61678955D01*
X119447618Y-61678955D02*
X119495237Y-61583717D01*
X119495237Y-61583717D02*
X119542856Y-61393241D01*
X119542856Y-61393241D02*
X119542856Y-61250384D01*
X119542856Y-61250384D02*
X119495237Y-61059908D01*
X119495237Y-61059908D02*
X119447618Y-60964670D01*
X119447618Y-60964670D02*
X119352380Y-60869432D01*
X119352380Y-60869432D02*
X119209523Y-60821812D01*
X119209523Y-60821812D02*
X119114285Y-60821812D01*
X119114285Y-60821812D02*
X118971428Y-60869432D01*
X118971428Y-60869432D02*
X118923809Y-60917051D01*
X118923809Y-60917051D02*
X118923809Y-61250384D01*
X118923809Y-61250384D02*
X119114285Y-61250384D01*
D13*
X173323846Y-94032580D02*
X173276227Y-94080200D01*
X173276227Y-94080200D02*
X173133370Y-94127819D01*
X173133370Y-94127819D02*
X173038132Y-94127819D01*
X173038132Y-94127819D02*
X172895275Y-94080200D01*
X172895275Y-94080200D02*
X172800037Y-93984961D01*
X172800037Y-93984961D02*
X172752418Y-93889723D01*
X172752418Y-93889723D02*
X172704799Y-93699247D01*
X172704799Y-93699247D02*
X172704799Y-93556390D01*
X172704799Y-93556390D02*
X172752418Y-93365914D01*
X172752418Y-93365914D02*
X172800037Y-93270676D01*
X172800037Y-93270676D02*
X172895275Y-93175438D01*
X172895275Y-93175438D02*
X173038132Y-93127819D01*
X173038132Y-93127819D02*
X173133370Y-93127819D01*
X173133370Y-93127819D02*
X173276227Y-93175438D01*
X173276227Y-93175438D02*
X173323846Y-93223057D01*
X173704799Y-93842104D02*
X174180989Y-93842104D01*
X173609561Y-94127819D02*
X173942894Y-93127819D01*
X173942894Y-93127819D02*
X174276227Y-94127819D01*
X174609561Y-94127819D02*
X174609561Y-93127819D01*
X174609561Y-93127819D02*
X175180989Y-94127819D01*
X175180989Y-94127819D02*
X175180989Y-93127819D01*
X176371466Y-94080200D02*
X176514323Y-94127819D01*
X176514323Y-94127819D02*
X176752418Y-94127819D01*
X176752418Y-94127819D02*
X176847656Y-94080200D01*
X176847656Y-94080200D02*
X176895275Y-94032580D01*
X176895275Y-94032580D02*
X176942894Y-93937342D01*
X176942894Y-93937342D02*
X176942894Y-93842104D01*
X176942894Y-93842104D02*
X176895275Y-93746866D01*
X176895275Y-93746866D02*
X176847656Y-93699247D01*
X176847656Y-93699247D02*
X176752418Y-93651628D01*
X176752418Y-93651628D02*
X176561942Y-93604009D01*
X176561942Y-93604009D02*
X176466704Y-93556390D01*
X176466704Y-93556390D02*
X176419085Y-93508771D01*
X176419085Y-93508771D02*
X176371466Y-93413533D01*
X176371466Y-93413533D02*
X176371466Y-93318295D01*
X176371466Y-93318295D02*
X176419085Y-93223057D01*
X176419085Y-93223057D02*
X176466704Y-93175438D01*
X176466704Y-93175438D02*
X176561942Y-93127819D01*
X176561942Y-93127819D02*
X176800037Y-93127819D01*
X176800037Y-93127819D02*
X176942894Y-93175438D01*
X177228609Y-93461152D02*
X177609561Y-93461152D01*
X177371466Y-93127819D02*
X177371466Y-93984961D01*
X177371466Y-93984961D02*
X177419085Y-94080200D01*
X177419085Y-94080200D02*
X177514323Y-94127819D01*
X177514323Y-94127819D02*
X177609561Y-94127819D01*
X178371466Y-94127819D02*
X178371466Y-93604009D01*
X178371466Y-93604009D02*
X178323847Y-93508771D01*
X178323847Y-93508771D02*
X178228609Y-93461152D01*
X178228609Y-93461152D02*
X178038133Y-93461152D01*
X178038133Y-93461152D02*
X177942895Y-93508771D01*
X178371466Y-94080200D02*
X178276228Y-94127819D01*
X178276228Y-94127819D02*
X178038133Y-94127819D01*
X178038133Y-94127819D02*
X177942895Y-94080200D01*
X177942895Y-94080200D02*
X177895276Y-93984961D01*
X177895276Y-93984961D02*
X177895276Y-93889723D01*
X177895276Y-93889723D02*
X177942895Y-93794485D01*
X177942895Y-93794485D02*
X178038133Y-93746866D01*
X178038133Y-93746866D02*
X178276228Y-93746866D01*
X178276228Y-93746866D02*
X178371466Y-93699247D01*
X178704800Y-93461152D02*
X179085752Y-93461152D01*
X178847657Y-93127819D02*
X178847657Y-93984961D01*
X178847657Y-93984961D02*
X178895276Y-94080200D01*
X178895276Y-94080200D02*
X178990514Y-94127819D01*
X178990514Y-94127819D02*
X179085752Y-94127819D01*
X179847657Y-93461152D02*
X179847657Y-94127819D01*
X179419086Y-93461152D02*
X179419086Y-93984961D01*
X179419086Y-93984961D02*
X179466705Y-94080200D01*
X179466705Y-94080200D02*
X179561943Y-94127819D01*
X179561943Y-94127819D02*
X179704800Y-94127819D01*
X179704800Y-94127819D02*
X179800038Y-94080200D01*
X179800038Y-94080200D02*
X179847657Y-94032580D01*
X180276229Y-94080200D02*
X180371467Y-94127819D01*
X180371467Y-94127819D02*
X180561943Y-94127819D01*
X180561943Y-94127819D02*
X180657181Y-94080200D01*
X180657181Y-94080200D02*
X180704800Y-93984961D01*
X180704800Y-93984961D02*
X180704800Y-93937342D01*
X180704800Y-93937342D02*
X180657181Y-93842104D01*
X180657181Y-93842104D02*
X180561943Y-93794485D01*
X180561943Y-93794485D02*
X180419086Y-93794485D01*
X180419086Y-93794485D02*
X180323848Y-93746866D01*
X180323848Y-93746866D02*
X180276229Y-93651628D01*
X180276229Y-93651628D02*
X180276229Y-93604009D01*
X180276229Y-93604009D02*
X180323848Y-93508771D01*
X180323848Y-93508771D02*
X180419086Y-93461152D01*
X180419086Y-93461152D02*
X180561943Y-93461152D01*
X180561943Y-93461152D02*
X180657181Y-93508771D01*
D12*
G36*
X175560528Y-129099836D02*
G01*
X175296615Y-129099836D01*
X175428571Y-128703966D01*
X175560528Y-129099836D01*
G37*
G36*
X179269143Y-130063039D02*
G01*
X173627643Y-130063039D01*
X173627643Y-129030241D01*
X174110812Y-129030241D01*
X174113976Y-129042897D01*
X174113976Y-129044479D01*
X174116637Y-129053544D01*
X174160574Y-129229289D01*
X174159626Y-129238075D01*
X174165915Y-129250653D01*
X174166547Y-129253180D01*
X174170820Y-129260464D01*
X174212999Y-129344821D01*
X174215736Y-129357403D01*
X174230655Y-129372323D01*
X174244999Y-129387743D01*
X174246445Y-129388112D01*
X174323944Y-129465612D01*
X174335450Y-129479903D01*
X174350280Y-129484846D01*
X174364004Y-129492340D01*
X174371213Y-129491824D01*
X174490518Y-129531592D01*
X174501346Y-129538551D01*
X174522416Y-129538551D01*
X174543491Y-129539313D01*
X174544777Y-129538551D01*
X174609454Y-129538551D01*
X174621928Y-129541729D01*
X174641925Y-129535062D01*
X174662152Y-129529124D01*
X174663130Y-129527994D01*
X174782185Y-129488309D01*
X174800115Y-129484409D01*
X174802790Y-129481734D01*
X175017976Y-129481734D01*
X175040882Y-129520380D01*
X175081047Y-129540507D01*
X175125716Y-129535726D01*
X175160709Y-129507553D01*
X175245615Y-129252836D01*
X175611528Y-129252836D01*
X175692808Y-129496677D01*
X175711904Y-129524154D01*
X175753417Y-129541328D01*
X175797625Y-129533331D01*
X175830491Y-129502704D01*
X175841582Y-129459169D01*
X175744962Y-129169310D01*
X175745584Y-129164989D01*
X175737949Y-129148271D01*
X175515359Y-128480502D01*
X176017673Y-128480502D01*
X176018738Y-128482366D01*
X176018738Y-129473051D01*
X176028165Y-129505156D01*
X176062117Y-129534576D01*
X176106585Y-129540969D01*
X176147450Y-129522307D01*
X176171738Y-129484514D01*
X176171738Y-128750116D01*
X176595792Y-129492212D01*
X176599593Y-129505156D01*
X176615065Y-129518562D01*
X176629816Y-129532754D01*
X176631922Y-129533169D01*
X176633545Y-129534576D01*
X176653805Y-129537488D01*
X176673891Y-129541453D01*
X176675888Y-129540663D01*
X176678013Y-129540969D01*
X176696640Y-129532462D01*
X176715672Y-129524941D01*
X176716924Y-129523199D01*
X176718878Y-129522307D01*
X176729946Y-129505083D01*
X176741894Y-129488464D01*
X176742005Y-129486319D01*
X176743166Y-129484514D01*
X176743166Y-129464045D01*
X176744231Y-129443600D01*
X176743166Y-129441736D01*
X176743166Y-128949588D01*
X177825844Y-128949588D01*
X177828262Y-128954883D01*
X177828262Y-129473051D01*
X177837689Y-129505156D01*
X177871641Y-129534576D01*
X177916109Y-129540969D01*
X177956974Y-129522307D01*
X177981262Y-129484514D01*
X177981262Y-129014741D01*
X178399690Y-129014741D01*
X178399690Y-129473051D01*
X178409117Y-129505156D01*
X178443069Y-129534576D01*
X178487537Y-129540969D01*
X178528402Y-129522307D01*
X178552690Y-129484514D01*
X178552690Y-128943713D01*
X178555108Y-128926894D01*
X178552690Y-128921599D01*
X178552690Y-128451051D01*
X178543263Y-128418946D01*
X178509311Y-128389526D01*
X178464843Y-128383133D01*
X178423978Y-128401795D01*
X178399690Y-128439588D01*
X178399690Y-128861741D01*
X177981262Y-128861741D01*
X177981262Y-128451051D01*
X177971835Y-128418946D01*
X177937883Y-128389526D01*
X177893415Y-128383133D01*
X177852550Y-128401795D01*
X177828262Y-128439588D01*
X177828262Y-128932769D01*
X177825844Y-128949588D01*
X176743166Y-128949588D01*
X176743166Y-128451051D01*
X176733739Y-128418946D01*
X176699787Y-128389526D01*
X176655319Y-128383133D01*
X176614454Y-128401795D01*
X176590166Y-128439588D01*
X176590166Y-129173986D01*
X176166111Y-128431889D01*
X176162311Y-128418946D01*
X176146838Y-128405539D01*
X176132088Y-128391348D01*
X176129981Y-128390932D01*
X176128359Y-128389526D01*
X176108098Y-128386613D01*
X176088013Y-128382649D01*
X176086015Y-128383438D01*
X176083891Y-128383133D01*
X176065263Y-128391639D01*
X176046232Y-128399161D01*
X176044980Y-128400902D01*
X176043026Y-128401795D01*
X176031953Y-128419023D01*
X176020010Y-128435639D01*
X176019898Y-128437782D01*
X176018738Y-128439588D01*
X176018738Y-128460057D01*
X176017673Y-128480502D01*
X175515359Y-128480502D01*
X175505521Y-128450987D01*
X175505833Y-128442369D01*
X175498556Y-128430091D01*
X175497667Y-128427424D01*
X175492966Y-128420661D01*
X175482927Y-128403722D01*
X175480267Y-128402389D01*
X175478571Y-128399948D01*
X175460366Y-128392416D01*
X175442762Y-128383595D01*
X175439807Y-128383911D01*
X175437058Y-128382774D01*
X175417669Y-128386281D01*
X175398093Y-128388377D01*
X175395777Y-128390241D01*
X175392850Y-128390771D01*
X175378436Y-128404202D01*
X175363100Y-128416550D01*
X175362159Y-128419370D01*
X175359984Y-128421398D01*
X175355120Y-128440489D01*
X175122708Y-129137724D01*
X175117951Y-129143215D01*
X175115730Y-129158657D01*
X175019185Y-129448295D01*
X175017976Y-129481734D01*
X174802790Y-129481734D01*
X174811170Y-129473352D01*
X174824007Y-129464432D01*
X174826770Y-129457753D01*
X174871395Y-129413127D01*
X174887431Y-129383759D01*
X174884226Y-129338948D01*
X174857302Y-129302985D01*
X174815210Y-129287285D01*
X174771312Y-129296835D01*
X174720580Y-129347567D01*
X174606632Y-129385551D01*
X174536223Y-129385551D01*
X174422275Y-129347568D01*
X174348585Y-129273876D01*
X174310274Y-129197255D01*
X174266976Y-129024061D01*
X174266976Y-128900040D01*
X174310274Y-128726845D01*
X174348586Y-128650223D01*
X174422275Y-128576533D01*
X174536223Y-128538551D01*
X174606632Y-128538551D01*
X174720580Y-128576533D01*
X174763207Y-128619161D01*
X174792575Y-128635196D01*
X174837386Y-128631992D01*
X174873350Y-128605069D01*
X174889050Y-128562977D01*
X174879500Y-128519079D01*
X174818909Y-128458488D01*
X174807405Y-128444199D01*
X174792575Y-128439255D01*
X174778852Y-128431762D01*
X174771641Y-128432277D01*
X174652337Y-128392509D01*
X174641510Y-128385551D01*
X174620440Y-128385551D01*
X174599364Y-128384789D01*
X174598078Y-128385551D01*
X174533401Y-128385551D01*
X174520927Y-128382373D01*
X174500921Y-128389041D01*
X174480704Y-128394978D01*
X174479725Y-128396106D01*
X174360666Y-128435793D01*
X174342742Y-128439693D01*
X174331688Y-128450746D01*
X174318849Y-128459670D01*
X174316085Y-128466349D01*
X174238403Y-128544031D01*
X174227336Y-128550605D01*
X174217913Y-128569449D01*
X174207806Y-128587960D01*
X174207912Y-128589451D01*
X174175765Y-128653746D01*
X174169327Y-128659800D01*
X174165915Y-128673446D01*
X174164752Y-128675773D01*
X174163257Y-128684078D01*
X174119313Y-128859853D01*
X174113976Y-128868159D01*
X174113976Y-128881204D01*
X174113592Y-128882740D01*
X174113976Y-128892187D01*
X174113976Y-129020889D01*
X174110812Y-129030241D01*
X173627643Y-129030241D01*
X173627643Y-127935825D01*
X179269143Y-127935825D01*
X179269143Y-130063039D01*
G37*
G36*
X165292952Y-82663039D02*
G01*
X161127643Y-82663039D01*
X161127643Y-81961123D01*
X161563330Y-81961123D01*
X161572879Y-82005021D01*
X161629598Y-82061741D01*
X161636173Y-82072810D01*
X161655027Y-82082237D01*
X161673527Y-82092339D01*
X161675017Y-82092232D01*
X161747815Y-82128631D01*
X161763251Y-82138551D01*
X161778885Y-82138551D01*
X161794272Y-82141320D01*
X161800948Y-82138551D01*
X162067310Y-82138551D01*
X162085548Y-82140520D01*
X162099528Y-82133529D01*
X162114533Y-82129124D01*
X162119267Y-82123660D01*
X162192296Y-82087145D01*
X162204877Y-82084409D01*
X162219788Y-82069497D01*
X162235216Y-82055147D01*
X162235586Y-82053698D01*
X162261595Y-82027688D01*
X162272663Y-82021115D01*
X162278848Y-82008744D01*
X162563330Y-82008744D01*
X162566941Y-82025345D01*
X162568154Y-82042296D01*
X162571643Y-82046956D01*
X162572880Y-82052642D01*
X162584894Y-82064656D01*
X162595078Y-82078259D01*
X162600530Y-82080292D01*
X162622575Y-82102338D01*
X162623403Y-82105156D01*
X162634163Y-82114480D01*
X162642696Y-82125878D01*
X162650809Y-82128904D01*
X162657355Y-82134576D01*
X162665928Y-82135808D01*
X162673528Y-82139958D01*
X162679332Y-82139543D01*
X162684788Y-82141578D01*
X162693251Y-82139736D01*
X162701823Y-82140969D01*
X162709700Y-82137371D01*
X162718339Y-82136754D01*
X162722999Y-82133265D01*
X162728686Y-82132028D01*
X162734808Y-82125905D01*
X162742688Y-82122307D01*
X162747370Y-82115020D01*
X162754303Y-82109831D01*
X162756337Y-82104377D01*
X162788323Y-82072390D01*
X162801921Y-82062212D01*
X162807858Y-82046294D01*
X162816002Y-82031380D01*
X162815587Y-82025576D01*
X162817622Y-82020121D01*
X162814009Y-82003514D01*
X162812798Y-81986569D01*
X162809310Y-81981909D01*
X162808073Y-81976223D01*
X162796058Y-81964208D01*
X162793749Y-81961123D01*
X162991901Y-81961123D01*
X163001450Y-82005021D01*
X163058169Y-82061741D01*
X163064744Y-82072810D01*
X163083598Y-82082237D01*
X163102098Y-82092339D01*
X163103588Y-82092232D01*
X163176386Y-82128631D01*
X163191822Y-82138551D01*
X163207456Y-82138551D01*
X163222843Y-82141320D01*
X163229519Y-82138551D01*
X163495881Y-82138551D01*
X163514119Y-82140520D01*
X163528099Y-82133529D01*
X163543104Y-82129124D01*
X163547838Y-82123660D01*
X163620867Y-82087145D01*
X163633448Y-82084409D01*
X163648359Y-82069497D01*
X163663787Y-82055147D01*
X163664157Y-82053698D01*
X163690166Y-82027688D01*
X163701234Y-82021115D01*
X163710658Y-82002266D01*
X163720764Y-81983759D01*
X163720657Y-81982268D01*
X163757055Y-81909472D01*
X163766975Y-81894037D01*
X163766975Y-81878403D01*
X163769744Y-81863016D01*
X163766975Y-81856340D01*
X163766975Y-81637596D01*
X163768944Y-81619358D01*
X163761953Y-81605376D01*
X163757548Y-81590374D01*
X163752085Y-81585640D01*
X163715569Y-81512608D01*
X163712833Y-81500031D01*
X163697937Y-81485135D01*
X163683571Y-81469691D01*
X163682122Y-81469320D01*
X163656113Y-81443311D01*
X163649540Y-81432244D01*
X163630695Y-81422821D01*
X163612185Y-81412714D01*
X163610693Y-81412820D01*
X163537897Y-81376422D01*
X163524553Y-81367847D01*
X163733387Y-81129180D01*
X163733580Y-81129124D01*
X163748187Y-81112265D01*
X163755291Y-81104148D01*
X163755369Y-81103977D01*
X163763000Y-81095172D01*
X163764604Y-81084011D01*
X163769337Y-81073779D01*
X163768108Y-81064932D01*
X163896512Y-81064932D01*
X164232572Y-82073113D01*
X164232261Y-82081734D01*
X164239539Y-82094013D01*
X164240427Y-82096677D01*
X164245122Y-82103432D01*
X164255167Y-82120380D01*
X164257826Y-82121712D01*
X164259523Y-82124154D01*
X164277727Y-82131685D01*
X164295332Y-82140507D01*
X164298286Y-82140190D01*
X164301036Y-82141328D01*
X164320416Y-82137822D01*
X164340001Y-82135726D01*
X164342318Y-82133860D01*
X164345244Y-82133331D01*
X164359649Y-82119907D01*
X164374994Y-82107553D01*
X164375934Y-82104731D01*
X164378110Y-82102704D01*
X164382972Y-82083617D01*
X164718909Y-81075807D01*
X164720118Y-81042369D01*
X164697212Y-81003722D01*
X164657047Y-80983595D01*
X164612378Y-80988377D01*
X164577385Y-81016550D01*
X164309523Y-81820135D01*
X164045286Y-81027424D01*
X164026190Y-80999948D01*
X163984677Y-80982774D01*
X163940469Y-80990771D01*
X163907603Y-81021398D01*
X163896512Y-81064932D01*
X163768108Y-81064932D01*
X163767734Y-81062238D01*
X163769393Y-81050704D01*
X163764709Y-81040448D01*
X163763159Y-81029281D01*
X163755571Y-81020439D01*
X163750731Y-81009839D01*
X163741244Y-81003742D01*
X163733903Y-80995187D01*
X163722740Y-80991850D01*
X163712938Y-80985551D01*
X163701663Y-80985551D01*
X163690860Y-80982322D01*
X163679663Y-80985551D01*
X163060428Y-80985551D01*
X163028323Y-80994978D01*
X162998903Y-81028930D01*
X162992510Y-81073398D01*
X163011172Y-81114263D01*
X163048965Y-81138551D01*
X163521887Y-81138551D01*
X163314229Y-81375873D01*
X163314037Y-81375930D01*
X163299429Y-81392788D01*
X163292326Y-81400906D01*
X163292247Y-81401076D01*
X163284617Y-81409882D01*
X163283012Y-81421042D01*
X163278280Y-81431275D01*
X163279882Y-81442815D01*
X163278224Y-81454350D01*
X163282907Y-81464605D01*
X163284458Y-81475773D01*
X163292045Y-81484614D01*
X163296886Y-81495215D01*
X163306372Y-81501311D01*
X163313714Y-81509867D01*
X163324876Y-81513203D01*
X163334679Y-81519503D01*
X163345954Y-81519503D01*
X163356757Y-81522732D01*
X163367954Y-81519503D01*
X163481940Y-81519503D01*
X163549921Y-81553493D01*
X163579985Y-81583558D01*
X163613975Y-81651537D01*
X163613975Y-81853515D01*
X163579984Y-81921496D01*
X163549921Y-81951560D01*
X163481940Y-81985551D01*
X163232344Y-81985551D01*
X163164362Y-81951560D01*
X163117744Y-81904941D01*
X163088377Y-81888905D01*
X163043566Y-81892109D01*
X163007602Y-81919031D01*
X162991901Y-81961123D01*
X162793749Y-81961123D01*
X162785875Y-81950605D01*
X162780421Y-81948570D01*
X162758376Y-81926526D01*
X162757549Y-81923707D01*
X162746787Y-81914381D01*
X162738255Y-81902985D01*
X162730143Y-81899959D01*
X162723597Y-81894287D01*
X162715024Y-81893054D01*
X162707425Y-81888905D01*
X162701619Y-81889320D01*
X162696163Y-81887285D01*
X162687699Y-81889126D01*
X162679129Y-81887894D01*
X162671251Y-81891491D01*
X162662614Y-81892109D01*
X162657954Y-81895597D01*
X162652265Y-81896835D01*
X162646141Y-81902958D01*
X162638264Y-81906556D01*
X162633581Y-81913842D01*
X162626650Y-81919031D01*
X162624615Y-81924485D01*
X162592633Y-81956468D01*
X162579030Y-81966652D01*
X162573091Y-81982572D01*
X162564949Y-81997485D01*
X162565364Y-82003290D01*
X162563330Y-82008744D01*
X162278848Y-82008744D01*
X162282087Y-82002266D01*
X162292193Y-81983759D01*
X162292086Y-81982268D01*
X162328484Y-81909472D01*
X162338404Y-81894037D01*
X162338404Y-81878403D01*
X162341173Y-81863016D01*
X162338404Y-81856340D01*
X162338404Y-81637596D01*
X162340373Y-81619358D01*
X162333382Y-81605376D01*
X162328977Y-81590374D01*
X162323514Y-81585640D01*
X162286998Y-81512608D01*
X162284262Y-81500031D01*
X162269366Y-81485135D01*
X162255000Y-81469691D01*
X162253551Y-81469320D01*
X162227542Y-81443311D01*
X162220969Y-81432244D01*
X162202124Y-81422821D01*
X162183614Y-81412714D01*
X162182122Y-81412820D01*
X162109326Y-81376422D01*
X162095982Y-81367847D01*
X162304816Y-81129180D01*
X162305009Y-81129124D01*
X162319616Y-81112265D01*
X162326720Y-81104148D01*
X162326798Y-81103977D01*
X162334429Y-81095172D01*
X162336033Y-81084011D01*
X162340766Y-81073779D01*
X162339163Y-81062238D01*
X162340822Y-81050704D01*
X162336138Y-81040448D01*
X162334588Y-81029281D01*
X162327000Y-81020439D01*
X162322160Y-81009839D01*
X162312673Y-81003742D01*
X162305332Y-80995187D01*
X162294169Y-80991850D01*
X162284367Y-80985551D01*
X162273092Y-80985551D01*
X162262289Y-80982322D01*
X162251092Y-80985551D01*
X161631857Y-80985551D01*
X161599752Y-80994978D01*
X161570332Y-81028930D01*
X161563939Y-81073398D01*
X161582601Y-81114263D01*
X161620394Y-81138551D01*
X162093316Y-81138551D01*
X161885658Y-81375873D01*
X161885466Y-81375930D01*
X161870858Y-81392788D01*
X161863755Y-81400906D01*
X161863676Y-81401076D01*
X161856046Y-81409882D01*
X161854441Y-81421042D01*
X161849709Y-81431275D01*
X161851311Y-81442815D01*
X161849653Y-81454350D01*
X161854336Y-81464605D01*
X161855887Y-81475773D01*
X161863474Y-81484614D01*
X161868315Y-81495215D01*
X161877801Y-81501311D01*
X161885143Y-81509867D01*
X161896305Y-81513203D01*
X161906108Y-81519503D01*
X161917383Y-81519503D01*
X161928186Y-81522732D01*
X161939383Y-81519503D01*
X162053369Y-81519503D01*
X162121350Y-81553493D01*
X162151414Y-81583558D01*
X162185404Y-81651537D01*
X162185404Y-81853515D01*
X162151413Y-81921496D01*
X162121350Y-81951560D01*
X162053369Y-81985551D01*
X161803773Y-81985551D01*
X161735791Y-81951560D01*
X161689173Y-81904941D01*
X161659806Y-81888905D01*
X161614995Y-81892109D01*
X161579031Y-81919031D01*
X161563330Y-81961123D01*
X161127643Y-81961123D01*
X161127643Y-80535825D01*
X165292952Y-80535825D01*
X165292952Y-82663039D01*
G37*
D13*
X171582419Y-70131153D02*
X171582419Y-70607343D01*
X171582419Y-70607343D02*
X170582419Y-70607343D01*
X170582419Y-69607343D02*
X170582419Y-69416867D01*
X170582419Y-69416867D02*
X170630038Y-69321629D01*
X170630038Y-69321629D02*
X170725276Y-69226391D01*
X170725276Y-69226391D02*
X170915752Y-69178772D01*
X170915752Y-69178772D02*
X171249085Y-69178772D01*
X171249085Y-69178772D02*
X171439561Y-69226391D01*
X171439561Y-69226391D02*
X171534800Y-69321629D01*
X171534800Y-69321629D02*
X171582419Y-69416867D01*
X171582419Y-69416867D02*
X171582419Y-69607343D01*
X171582419Y-69607343D02*
X171534800Y-69702581D01*
X171534800Y-69702581D02*
X171439561Y-69797819D01*
X171439561Y-69797819D02*
X171249085Y-69845438D01*
X171249085Y-69845438D02*
X170915752Y-69845438D01*
X170915752Y-69845438D02*
X170725276Y-69797819D01*
X170725276Y-69797819D02*
X170630038Y-69702581D01*
X170630038Y-69702581D02*
X170582419Y-69607343D01*
X171582419Y-68178772D02*
X171106228Y-68512105D01*
X171582419Y-68750200D02*
X170582419Y-68750200D01*
X170582419Y-68750200D02*
X170582419Y-68369248D01*
X170582419Y-68369248D02*
X170630038Y-68274010D01*
X170630038Y-68274010D02*
X170677657Y-68226391D01*
X170677657Y-68226391D02*
X170772895Y-68178772D01*
X170772895Y-68178772D02*
X170915752Y-68178772D01*
X170915752Y-68178772D02*
X171010990Y-68226391D01*
X171010990Y-68226391D02*
X171058609Y-68274010D01*
X171058609Y-68274010D02*
X171106228Y-68369248D01*
X171106228Y-68369248D02*
X171106228Y-68750200D01*
X171296704Y-67797819D02*
X171296704Y-67321629D01*
X171582419Y-67893057D02*
X170582419Y-67559724D01*
X170582419Y-67559724D02*
X171582419Y-67226391D01*
X171534800Y-66178771D02*
X171582419Y-66035914D01*
X171582419Y-66035914D02*
X171582419Y-65797819D01*
X171582419Y-65797819D02*
X171534800Y-65702581D01*
X171534800Y-65702581D02*
X171487180Y-65654962D01*
X171487180Y-65654962D02*
X171391942Y-65607343D01*
X171391942Y-65607343D02*
X171296704Y-65607343D01*
X171296704Y-65607343D02*
X171201466Y-65654962D01*
X171201466Y-65654962D02*
X171153847Y-65702581D01*
X171153847Y-65702581D02*
X171106228Y-65797819D01*
X171106228Y-65797819D02*
X171058609Y-65988295D01*
X171058609Y-65988295D02*
X171010990Y-66083533D01*
X171010990Y-66083533D02*
X170963371Y-66131152D01*
X170963371Y-66131152D02*
X170868133Y-66178771D01*
X170868133Y-66178771D02*
X170772895Y-66178771D01*
X170772895Y-66178771D02*
X170677657Y-66131152D01*
X170677657Y-66131152D02*
X170630038Y-66083533D01*
X170630038Y-66083533D02*
X170582419Y-65988295D01*
X170582419Y-65988295D02*
X170582419Y-65750200D01*
X170582419Y-65750200D02*
X170630038Y-65607343D01*
X170915752Y-65321628D02*
X170915752Y-64940676D01*
X170582419Y-65178771D02*
X171439561Y-65178771D01*
X171439561Y-65178771D02*
X171534800Y-65131152D01*
X171534800Y-65131152D02*
X171582419Y-65035914D01*
X171582419Y-65035914D02*
X171582419Y-64940676D01*
X171582419Y-64178771D02*
X171058609Y-64178771D01*
X171058609Y-64178771D02*
X170963371Y-64226390D01*
X170963371Y-64226390D02*
X170915752Y-64321628D01*
X170915752Y-64321628D02*
X170915752Y-64512104D01*
X170915752Y-64512104D02*
X170963371Y-64607342D01*
X171534800Y-64178771D02*
X171582419Y-64274009D01*
X171582419Y-64274009D02*
X171582419Y-64512104D01*
X171582419Y-64512104D02*
X171534800Y-64607342D01*
X171534800Y-64607342D02*
X171439561Y-64654961D01*
X171439561Y-64654961D02*
X171344323Y-64654961D01*
X171344323Y-64654961D02*
X171249085Y-64607342D01*
X171249085Y-64607342D02*
X171201466Y-64512104D01*
X171201466Y-64512104D02*
X171201466Y-64274009D01*
X171201466Y-64274009D02*
X171153847Y-64178771D01*
X170915752Y-63845437D02*
X170915752Y-63464485D01*
X170582419Y-63702580D02*
X171439561Y-63702580D01*
X171439561Y-63702580D02*
X171534800Y-63654961D01*
X171534800Y-63654961D02*
X171582419Y-63559723D01*
X171582419Y-63559723D02*
X171582419Y-63464485D01*
X170915752Y-62702580D02*
X171582419Y-62702580D01*
X170915752Y-63131151D02*
X171439561Y-63131151D01*
X171439561Y-63131151D02*
X171534800Y-63083532D01*
X171534800Y-63083532D02*
X171582419Y-62988294D01*
X171582419Y-62988294D02*
X171582419Y-62845437D01*
X171582419Y-62845437D02*
X171534800Y-62750199D01*
X171534800Y-62750199D02*
X171487180Y-62702580D01*
X171534800Y-62274008D02*
X171582419Y-62178770D01*
X171582419Y-62178770D02*
X171582419Y-61988294D01*
X171582419Y-61988294D02*
X171534800Y-61893056D01*
X171534800Y-61893056D02*
X171439561Y-61845437D01*
X171439561Y-61845437D02*
X171391942Y-61845437D01*
X171391942Y-61845437D02*
X171296704Y-61893056D01*
X171296704Y-61893056D02*
X171249085Y-61988294D01*
X171249085Y-61988294D02*
X171249085Y-62131151D01*
X171249085Y-62131151D02*
X171201466Y-62226389D01*
X171201466Y-62226389D02*
X171106228Y-62274008D01*
X171106228Y-62274008D02*
X171058609Y-62274008D01*
X171058609Y-62274008D02*
X170963371Y-62226389D01*
X170963371Y-62226389D02*
X170915752Y-62131151D01*
X170915752Y-62131151D02*
X170915752Y-61988294D01*
X170915752Y-61988294D02*
X170963371Y-61893056D01*
D12*
G36*
X163311827Y-103972542D02*
G01*
X163383303Y-104044018D01*
X163423499Y-104204801D01*
X163423499Y-104519299D01*
X163383303Y-104680082D01*
X163311826Y-104751560D01*
X163243845Y-104785551D01*
X163089487Y-104785551D01*
X163021505Y-104751560D01*
X162950028Y-104680082D01*
X162909833Y-104519299D01*
X162909833Y-104204802D01*
X162950029Y-104044017D01*
X163021506Y-103972541D01*
X163089486Y-103938551D01*
X163243845Y-103938551D01*
X163311827Y-103972542D01*
G37*
G36*
X165673904Y-105463039D02*
G01*
X161127643Y-105463039D01*
X161127643Y-103874046D01*
X161659273Y-103874046D01*
X161661595Y-103879022D01*
X161661595Y-104873051D01*
X161671022Y-104905156D01*
X161704974Y-104934576D01*
X161749442Y-104940969D01*
X161790307Y-104922307D01*
X161814595Y-104884514D01*
X161814595Y-104206879D01*
X162001830Y-104608098D01*
X162010745Y-104628051D01*
X162020874Y-104634679D01*
X162028876Y-104643761D01*
X162039282Y-104646724D01*
X162048337Y-104652649D01*
X162060440Y-104652748D01*
X162072084Y-104656064D01*
X162082441Y-104652929D01*
X162093260Y-104653019D01*
X162103497Y-104646558D01*
X162115084Y-104643052D01*
X162122102Y-104634816D01*
X162131252Y-104629042D01*
X162136370Y-104618074D01*
X162144223Y-104608860D01*
X162145674Y-104598135D01*
X162328261Y-104206880D01*
X162328261Y-104873051D01*
X162337688Y-104905156D01*
X162371640Y-104934576D01*
X162416108Y-104940969D01*
X162456973Y-104922307D01*
X162481261Y-104884514D01*
X162481261Y-104525479D01*
X162753669Y-104525479D01*
X162756833Y-104538135D01*
X162756833Y-104539717D01*
X162759494Y-104548782D01*
X162806444Y-104736578D01*
X162810974Y-104757403D01*
X162819929Y-104766358D01*
X162826336Y-104777278D01*
X162835484Y-104781914D01*
X162915314Y-104861744D01*
X162921887Y-104872810D01*
X162940724Y-104882228D01*
X162959242Y-104892340D01*
X162960733Y-104892233D01*
X163033529Y-104928631D01*
X163048965Y-104938551D01*
X163064599Y-104938551D01*
X163079986Y-104941320D01*
X163086662Y-104938551D01*
X163257786Y-104938551D01*
X163276024Y-104940520D01*
X163290004Y-104933529D01*
X163305009Y-104929124D01*
X163309743Y-104923660D01*
X163382772Y-104887145D01*
X163395352Y-104884409D01*
X163410254Y-104869506D01*
X163425692Y-104855147D01*
X163426062Y-104853698D01*
X163505630Y-104774129D01*
X163521148Y-104759539D01*
X163524219Y-104747254D01*
X163530288Y-104736140D01*
X163529556Y-104725906D01*
X163571161Y-104559484D01*
X163576499Y-104551180D01*
X163576499Y-104538136D01*
X163576883Y-104536600D01*
X163576499Y-104527153D01*
X163576499Y-104207974D01*
X163579663Y-104198622D01*
X163576499Y-104185966D01*
X163576499Y-104184384D01*
X163573837Y-104175319D01*
X163545278Y-104061085D01*
X163801683Y-104061085D01*
X163804452Y-104067761D01*
X163804452Y-104143647D01*
X163802483Y-104161885D01*
X163809473Y-104175865D01*
X163813879Y-104190870D01*
X163819342Y-104195604D01*
X163855857Y-104268633D01*
X163858594Y-104281213D01*
X163873500Y-104296119D01*
X163887856Y-104311553D01*
X163889303Y-104311923D01*
X163915314Y-104337933D01*
X163921887Y-104349000D01*
X163940732Y-104358422D01*
X163959242Y-104368529D01*
X163960731Y-104368422D01*
X164025028Y-104400570D01*
X164031082Y-104407009D01*
X164044728Y-104410420D01*
X164047055Y-104411584D01*
X164055359Y-104413078D01*
X164235204Y-104458039D01*
X164311826Y-104496350D01*
X164341890Y-104526415D01*
X164375880Y-104594394D01*
X164375880Y-104653515D01*
X164341889Y-104721496D01*
X164311826Y-104751560D01*
X164243845Y-104785551D01*
X164036223Y-104785551D01*
X163894708Y-104738379D01*
X163861269Y-104737170D01*
X163822623Y-104760076D01*
X163802496Y-104800241D01*
X163807277Y-104844910D01*
X163835450Y-104879903D01*
X163990518Y-104931592D01*
X164001346Y-104938551D01*
X164022416Y-104938551D01*
X164043491Y-104939313D01*
X164044777Y-104938551D01*
X164257786Y-104938551D01*
X164276024Y-104940520D01*
X164290004Y-104933529D01*
X164305009Y-104929124D01*
X164309743Y-104923660D01*
X164382772Y-104887145D01*
X164395353Y-104884409D01*
X164406710Y-104873051D01*
X164804452Y-104873051D01*
X164813879Y-104905156D01*
X164847831Y-104934576D01*
X164892299Y-104940969D01*
X164933164Y-104922307D01*
X164957452Y-104884514D01*
X164957452Y-103851051D01*
X164948025Y-103818946D01*
X164914073Y-103789526D01*
X164869605Y-103783133D01*
X164828740Y-103801795D01*
X164804452Y-103839588D01*
X164804452Y-104873051D01*
X164406710Y-104873051D01*
X164410264Y-104869497D01*
X164425692Y-104855147D01*
X164426062Y-104853698D01*
X164452071Y-104827688D01*
X164463139Y-104821115D01*
X164472563Y-104802266D01*
X164482669Y-104783759D01*
X164482562Y-104782268D01*
X164518960Y-104709472D01*
X164528880Y-104694037D01*
X164528880Y-104678403D01*
X164531649Y-104663016D01*
X164528880Y-104656340D01*
X164528880Y-104580453D01*
X164530849Y-104562215D01*
X164523858Y-104548233D01*
X164519453Y-104533231D01*
X164513990Y-104528497D01*
X164477474Y-104455465D01*
X164474738Y-104442888D01*
X164459842Y-104427992D01*
X164445476Y-104412548D01*
X164444027Y-104412177D01*
X164418018Y-104386168D01*
X164411445Y-104375101D01*
X164392600Y-104365678D01*
X164374090Y-104355571D01*
X164372598Y-104355677D01*
X164308303Y-104323530D01*
X164302250Y-104317092D01*
X164288604Y-104313680D01*
X164286277Y-104312517D01*
X164277971Y-104311022D01*
X164098128Y-104266061D01*
X164021505Y-104227750D01*
X163991443Y-104197688D01*
X163957452Y-104129706D01*
X163957452Y-104070586D01*
X163991442Y-104002604D01*
X164021507Y-103972540D01*
X164089486Y-103938551D01*
X164297108Y-103938551D01*
X164438624Y-103985723D01*
X164472062Y-103986932D01*
X164510709Y-103964026D01*
X164530836Y-103923861D01*
X164526054Y-103879192D01*
X164497881Y-103844199D01*
X164342813Y-103792509D01*
X164331986Y-103785551D01*
X164310916Y-103785551D01*
X164289840Y-103784789D01*
X164288554Y-103785551D01*
X164075545Y-103785551D01*
X164057307Y-103783582D01*
X164043325Y-103790572D01*
X164028323Y-103794978D01*
X164023589Y-103800440D01*
X163950557Y-103836956D01*
X163937980Y-103839693D01*
X163923084Y-103854588D01*
X163907640Y-103868955D01*
X163907269Y-103870403D01*
X163881260Y-103896412D01*
X163870193Y-103902986D01*
X163860770Y-103921830D01*
X163850663Y-103940341D01*
X163850769Y-103941832D01*
X163814371Y-104014628D01*
X163804452Y-104030064D01*
X163804452Y-104045698D01*
X163801683Y-104061085D01*
X163545278Y-104061085D01*
X163526882Y-103987499D01*
X163522357Y-103966698D01*
X163513405Y-103957746D01*
X163506996Y-103946822D01*
X163497842Y-103942183D01*
X163418018Y-103862359D01*
X163411445Y-103851292D01*
X163392600Y-103841869D01*
X163374090Y-103831762D01*
X163372598Y-103831868D01*
X163299802Y-103795470D01*
X163284367Y-103785551D01*
X163268733Y-103785551D01*
X163253346Y-103782782D01*
X163246670Y-103785551D01*
X163075545Y-103785551D01*
X163057307Y-103783582D01*
X163043325Y-103790572D01*
X163028323Y-103794978D01*
X163023589Y-103800440D01*
X162950557Y-103836956D01*
X162937980Y-103839693D01*
X162923084Y-103854588D01*
X162907640Y-103868955D01*
X162907269Y-103870403D01*
X162827703Y-103949969D01*
X162812184Y-103964562D01*
X162809113Y-103976845D01*
X162803044Y-103987960D01*
X162803775Y-103998194D01*
X162762170Y-104164615D01*
X162756833Y-104172921D01*
X162756833Y-104185966D01*
X162756449Y-104187502D01*
X162756833Y-104196949D01*
X162756833Y-104516127D01*
X162753669Y-104525479D01*
X162481261Y-104525479D01*
X162481261Y-103867841D01*
X162483770Y-103851354D01*
X162476709Y-103835549D01*
X162471834Y-103818946D01*
X162467685Y-103815351D01*
X162465445Y-103810336D01*
X162450959Y-103800857D01*
X162437882Y-103789526D01*
X162432447Y-103788744D01*
X162427852Y-103785738D01*
X162410542Y-103785595D01*
X162393414Y-103783133D01*
X162388420Y-103785413D01*
X162382929Y-103785368D01*
X162368289Y-103794606D01*
X162352549Y-103801795D01*
X162349581Y-103806413D01*
X162344937Y-103809344D01*
X162337616Y-103825029D01*
X162328261Y-103839588D01*
X162328261Y-103845078D01*
X162071427Y-104395435D01*
X161809866Y-103834947D01*
X161805168Y-103818946D01*
X161792087Y-103807611D01*
X161780647Y-103794626D01*
X161775366Y-103793122D01*
X161771216Y-103789526D01*
X161754083Y-103787062D01*
X161737439Y-103782324D01*
X161732182Y-103783914D01*
X161726748Y-103783133D01*
X161711004Y-103790322D01*
X161694439Y-103795335D01*
X161690877Y-103799514D01*
X161685883Y-103801795D01*
X161676525Y-103816355D01*
X161665300Y-103829528D01*
X161664563Y-103834969D01*
X161661595Y-103839588D01*
X161661595Y-103856895D01*
X161659273Y-103874046D01*
X161127643Y-103874046D01*
X161127643Y-103335825D01*
X165673904Y-103335825D01*
X165673904Y-105463039D01*
G37*
D11*
X169582419Y-71214485D02*
X169106228Y-71547818D01*
X169582419Y-71785913D02*
X168582419Y-71785913D01*
X168582419Y-71785913D02*
X168582419Y-71404961D01*
X168582419Y-71404961D02*
X168630038Y-71309723D01*
X168630038Y-71309723D02*
X168677657Y-71262104D01*
X168677657Y-71262104D02*
X168772895Y-71214485D01*
X168772895Y-71214485D02*
X168915752Y-71214485D01*
X168915752Y-71214485D02*
X169010990Y-71262104D01*
X169010990Y-71262104D02*
X169058609Y-71309723D01*
X169058609Y-71309723D02*
X169106228Y-71404961D01*
X169106228Y-71404961D02*
X169106228Y-71785913D01*
X169058609Y-70785913D02*
X169058609Y-70452580D01*
X169582419Y-70309723D02*
X169582419Y-70785913D01*
X169582419Y-70785913D02*
X168582419Y-70785913D01*
X168582419Y-70785913D02*
X168582419Y-70309723D01*
X169487180Y-69309723D02*
X169534800Y-69357342D01*
X169534800Y-69357342D02*
X169582419Y-69500199D01*
X169582419Y-69500199D02*
X169582419Y-69595437D01*
X169582419Y-69595437D02*
X169534800Y-69738294D01*
X169534800Y-69738294D02*
X169439561Y-69833532D01*
X169439561Y-69833532D02*
X169344323Y-69881151D01*
X169344323Y-69881151D02*
X169153847Y-69928770D01*
X169153847Y-69928770D02*
X169010990Y-69928770D01*
X169010990Y-69928770D02*
X168820514Y-69881151D01*
X168820514Y-69881151D02*
X168725276Y-69833532D01*
X168725276Y-69833532D02*
X168630038Y-69738294D01*
X168630038Y-69738294D02*
X168582419Y-69595437D01*
X168582419Y-69595437D02*
X168582419Y-69500199D01*
X168582419Y-69500199D02*
X168630038Y-69357342D01*
X168630038Y-69357342D02*
X168677657Y-69309723D01*
X169058609Y-68881151D02*
X169058609Y-68547818D01*
X169582419Y-68404961D02*
X169582419Y-68881151D01*
X169582419Y-68881151D02*
X168582419Y-68881151D01*
X168582419Y-68881151D02*
X168582419Y-68404961D01*
X169582419Y-67976389D02*
X168582419Y-67976389D01*
X168582419Y-67643056D02*
X169582419Y-67309723D01*
X169582419Y-67309723D02*
X168582419Y-66976390D01*
X169058609Y-66643056D02*
X169058609Y-66309723D01*
X169582419Y-66166866D02*
X169582419Y-66643056D01*
X169582419Y-66643056D02*
X168582419Y-66643056D01*
X168582419Y-66643056D02*
X168582419Y-66166866D01*
D12*
G36*
X175560528Y-125799836D02*
G01*
X175296615Y-125799836D01*
X175428571Y-125403966D01*
X175560528Y-125799836D01*
G37*
G36*
X179031048Y-126763039D02*
G01*
X173627643Y-126763039D01*
X173627643Y-125730241D01*
X174110812Y-125730241D01*
X174113976Y-125742897D01*
X174113976Y-125744479D01*
X174116637Y-125753544D01*
X174160574Y-125929289D01*
X174159626Y-125938075D01*
X174165915Y-125950653D01*
X174166547Y-125953180D01*
X174170820Y-125960464D01*
X174212999Y-126044821D01*
X174215736Y-126057403D01*
X174230655Y-126072323D01*
X174244999Y-126087743D01*
X174246445Y-126088112D01*
X174323944Y-126165612D01*
X174335450Y-126179903D01*
X174350280Y-126184846D01*
X174364004Y-126192340D01*
X174371213Y-126191824D01*
X174490518Y-126231592D01*
X174501346Y-126238551D01*
X174522416Y-126238551D01*
X174543491Y-126239313D01*
X174544777Y-126238551D01*
X174609454Y-126238551D01*
X174621928Y-126241729D01*
X174641925Y-126235062D01*
X174662152Y-126229124D01*
X174663130Y-126227994D01*
X174782185Y-126188309D01*
X174800115Y-126184409D01*
X174802790Y-126181734D01*
X175017976Y-126181734D01*
X175040882Y-126220380D01*
X175081047Y-126240507D01*
X175125716Y-126235726D01*
X175160709Y-126207553D01*
X175245615Y-125952836D01*
X175611528Y-125952836D01*
X175692808Y-126196677D01*
X175711904Y-126224154D01*
X175753417Y-126241328D01*
X175797625Y-126233331D01*
X175830491Y-126202704D01*
X175841582Y-126159169D01*
X175744962Y-125869310D01*
X175745584Y-125864989D01*
X175737949Y-125848271D01*
X175515359Y-125180502D01*
X176017673Y-125180502D01*
X176018738Y-125182366D01*
X176018738Y-126173051D01*
X176028165Y-126205156D01*
X176062117Y-126234576D01*
X176106585Y-126240969D01*
X176147450Y-126222307D01*
X176171738Y-126184514D01*
X176171738Y-125450116D01*
X176595792Y-126192212D01*
X176599593Y-126205156D01*
X176615065Y-126218562D01*
X176629816Y-126232754D01*
X176631922Y-126233169D01*
X176633545Y-126234576D01*
X176653805Y-126237488D01*
X176673891Y-126241453D01*
X176675888Y-126240663D01*
X176678013Y-126240969D01*
X176696640Y-126232462D01*
X176715672Y-126224941D01*
X176716924Y-126223199D01*
X176718878Y-126222307D01*
X176729946Y-126205083D01*
X176741894Y-126188464D01*
X176742005Y-126186319D01*
X176743166Y-126184514D01*
X176743166Y-126173398D01*
X177825844Y-126173398D01*
X177832902Y-126188853D01*
X177837689Y-126205156D01*
X177842087Y-126208967D01*
X177844506Y-126214263D01*
X177858800Y-126223449D01*
X177871641Y-126234576D01*
X177877402Y-126235404D01*
X177882299Y-126238551D01*
X177899290Y-126238551D01*
X177916109Y-126240969D01*
X177921404Y-126238551D01*
X178391952Y-126238551D01*
X178424057Y-126229124D01*
X178453477Y-126195172D01*
X178459870Y-126150704D01*
X178441208Y-126109839D01*
X178403415Y-126085551D01*
X177981262Y-126085551D01*
X177981262Y-125151051D01*
X177971835Y-125118946D01*
X177937883Y-125089526D01*
X177893415Y-125083133D01*
X177852550Y-125101795D01*
X177828262Y-125139588D01*
X177828262Y-126156579D01*
X177825844Y-126173398D01*
X176743166Y-126173398D01*
X176743166Y-126164045D01*
X176744231Y-126143600D01*
X176743166Y-126141736D01*
X176743166Y-125151051D01*
X176733739Y-125118946D01*
X176699787Y-125089526D01*
X176655319Y-125083133D01*
X176614454Y-125101795D01*
X176590166Y-125139588D01*
X176590166Y-125873986D01*
X176166111Y-125131889D01*
X176162311Y-125118946D01*
X176146838Y-125105539D01*
X176132088Y-125091348D01*
X176129981Y-125090932D01*
X176128359Y-125089526D01*
X176108098Y-125086613D01*
X176088013Y-125082649D01*
X176086015Y-125083438D01*
X176083891Y-125083133D01*
X176065263Y-125091639D01*
X176046232Y-125099161D01*
X176044980Y-125100902D01*
X176043026Y-125101795D01*
X176031953Y-125119023D01*
X176020010Y-125135639D01*
X176019898Y-125137782D01*
X176018738Y-125139588D01*
X176018738Y-125160057D01*
X176017673Y-125180502D01*
X175515359Y-125180502D01*
X175505521Y-125150987D01*
X175505833Y-125142369D01*
X175498556Y-125130091D01*
X175497667Y-125127424D01*
X175492966Y-125120661D01*
X175482927Y-125103722D01*
X175480267Y-125102389D01*
X175478571Y-125099948D01*
X175460366Y-125092416D01*
X175442762Y-125083595D01*
X175439807Y-125083911D01*
X175437058Y-125082774D01*
X175417669Y-125086281D01*
X175398093Y-125088377D01*
X175395777Y-125090241D01*
X175392850Y-125090771D01*
X175378436Y-125104202D01*
X175363100Y-125116550D01*
X175362159Y-125119370D01*
X175359984Y-125121398D01*
X175355120Y-125140489D01*
X175122708Y-125837724D01*
X175117951Y-125843215D01*
X175115730Y-125858657D01*
X175019185Y-126148295D01*
X175017976Y-126181734D01*
X174802790Y-126181734D01*
X174811170Y-126173352D01*
X174824007Y-126164432D01*
X174826770Y-126157753D01*
X174871395Y-126113127D01*
X174887431Y-126083759D01*
X174884226Y-126038948D01*
X174857302Y-126002985D01*
X174815210Y-125987285D01*
X174771312Y-125996835D01*
X174720580Y-126047567D01*
X174606632Y-126085551D01*
X174536223Y-126085551D01*
X174422275Y-126047568D01*
X174348585Y-125973876D01*
X174310274Y-125897255D01*
X174266976Y-125724061D01*
X174266976Y-125600040D01*
X174310274Y-125426845D01*
X174348586Y-125350223D01*
X174422275Y-125276533D01*
X174536223Y-125238551D01*
X174606632Y-125238551D01*
X174720580Y-125276533D01*
X174763207Y-125319161D01*
X174792575Y-125335196D01*
X174837386Y-125331992D01*
X174873350Y-125305069D01*
X174889050Y-125262977D01*
X174879500Y-125219079D01*
X174818909Y-125158488D01*
X174807405Y-125144199D01*
X174792575Y-125139255D01*
X174778852Y-125131762D01*
X174771641Y-125132277D01*
X174652337Y-125092509D01*
X174641510Y-125085551D01*
X174620440Y-125085551D01*
X174599364Y-125084789D01*
X174598078Y-125085551D01*
X174533401Y-125085551D01*
X174520927Y-125082373D01*
X174500921Y-125089041D01*
X174480704Y-125094978D01*
X174479725Y-125096106D01*
X174360666Y-125135793D01*
X174342742Y-125139693D01*
X174331688Y-125150746D01*
X174318849Y-125159670D01*
X174316085Y-125166349D01*
X174238403Y-125244031D01*
X174227336Y-125250605D01*
X174217913Y-125269449D01*
X174207806Y-125287960D01*
X174207912Y-125289451D01*
X174175765Y-125353746D01*
X174169327Y-125359800D01*
X174165915Y-125373446D01*
X174164752Y-125375773D01*
X174163257Y-125384078D01*
X174119313Y-125559853D01*
X174113976Y-125568159D01*
X174113976Y-125581204D01*
X174113592Y-125582740D01*
X174113976Y-125592187D01*
X174113976Y-125720889D01*
X174110812Y-125730241D01*
X173627643Y-125730241D01*
X173627643Y-124635825D01*
X179031048Y-124635825D01*
X179031048Y-126763039D01*
G37*
G36*
X164311826Y-106472541D02*
G01*
X164341890Y-106502606D01*
X164375880Y-106570585D01*
X164375880Y-106677325D01*
X164341889Y-106745307D01*
X164311827Y-106775369D01*
X164243845Y-106809360D01*
X163957452Y-106809360D01*
X163957452Y-106438551D01*
X164243845Y-106438551D01*
X164311826Y-106472541D01*
G37*
G36*
X165197714Y-107963039D02*
G01*
X161127643Y-107963039D01*
X161127643Y-106374046D01*
X161659273Y-106374046D01*
X161661595Y-106379022D01*
X161661595Y-107373051D01*
X161671022Y-107405156D01*
X161704974Y-107434576D01*
X161749442Y-107440969D01*
X161790307Y-107422307D01*
X161814595Y-107384514D01*
X161814595Y-106706879D01*
X162001830Y-107108098D01*
X162010745Y-107128051D01*
X162020874Y-107134679D01*
X162028876Y-107143761D01*
X162039282Y-107146724D01*
X162048337Y-107152649D01*
X162060440Y-107152748D01*
X162072084Y-107156064D01*
X162082441Y-107152929D01*
X162093260Y-107153019D01*
X162103497Y-107146558D01*
X162115084Y-107143052D01*
X162122102Y-107134816D01*
X162131252Y-107129042D01*
X162136370Y-107118074D01*
X162144223Y-107108860D01*
X162145674Y-107098135D01*
X162328261Y-106706880D01*
X162328261Y-107373051D01*
X162337688Y-107405156D01*
X162371640Y-107434576D01*
X162416108Y-107440969D01*
X162456973Y-107422307D01*
X162481261Y-107384514D01*
X162481261Y-106930241D01*
X162753669Y-106930241D01*
X162756833Y-106942897D01*
X162756833Y-106944479D01*
X162759494Y-106953544D01*
X162803431Y-107129289D01*
X162802483Y-107138075D01*
X162808772Y-107150653D01*
X162809404Y-107153180D01*
X162813677Y-107160464D01*
X162855856Y-107244821D01*
X162858593Y-107257403D01*
X162873512Y-107272323D01*
X162887856Y-107287743D01*
X162889302Y-107288112D01*
X162966801Y-107365612D01*
X162978307Y-107379903D01*
X162993137Y-107384846D01*
X163006861Y-107392340D01*
X163014070Y-107391824D01*
X163133375Y-107431592D01*
X163144203Y-107438551D01*
X163165273Y-107438551D01*
X163186348Y-107439313D01*
X163187634Y-107438551D01*
X163252311Y-107438551D01*
X163264785Y-107441729D01*
X163284782Y-107435062D01*
X163305009Y-107429124D01*
X163305987Y-107427994D01*
X163425042Y-107388309D01*
X163442972Y-107384409D01*
X163454027Y-107373352D01*
X163466864Y-107364432D01*
X163469627Y-107357753D01*
X163514252Y-107313127D01*
X163530288Y-107283759D01*
X163527083Y-107238948D01*
X163500159Y-107202985D01*
X163458067Y-107187285D01*
X163414169Y-107196835D01*
X163363437Y-107247567D01*
X163249489Y-107285551D01*
X163179080Y-107285551D01*
X163065132Y-107247568D01*
X162991442Y-107173876D01*
X162953131Y-107097255D01*
X162909833Y-106924061D01*
X162909833Y-106897207D01*
X163802034Y-106897207D01*
X163804452Y-106902502D01*
X163804452Y-107373051D01*
X163813879Y-107405156D01*
X163847831Y-107434576D01*
X163892299Y-107440969D01*
X163933164Y-107422307D01*
X163957452Y-107384514D01*
X163957452Y-106962360D01*
X164257786Y-106962360D01*
X164276024Y-106964329D01*
X164290004Y-106957338D01*
X164305009Y-106952933D01*
X164309743Y-106947469D01*
X164382772Y-106910954D01*
X164395352Y-106908218D01*
X164410258Y-106893311D01*
X164425692Y-106878956D01*
X164426062Y-106877508D01*
X164452072Y-106851497D01*
X164463139Y-106844925D01*
X164472561Y-106826079D01*
X164482668Y-106807570D01*
X164482561Y-106806080D01*
X164518960Y-106733282D01*
X164528880Y-106717847D01*
X164528880Y-106702213D01*
X164531649Y-106686826D01*
X164528880Y-106680150D01*
X164528880Y-106556644D01*
X164530849Y-106538406D01*
X164523858Y-106524424D01*
X164519453Y-106509422D01*
X164513990Y-106504688D01*
X164477474Y-106431656D01*
X164474738Y-106419079D01*
X164459842Y-106404183D01*
X164445476Y-106388739D01*
X164444027Y-106388368D01*
X164418018Y-106362359D01*
X164411445Y-106351292D01*
X164392600Y-106341869D01*
X164374090Y-106331762D01*
X164372598Y-106331868D01*
X164299802Y-106295470D01*
X164284367Y-106285551D01*
X164268733Y-106285551D01*
X164253346Y-106282782D01*
X164246670Y-106285551D01*
X163886424Y-106285551D01*
X163869605Y-106283133D01*
X163854149Y-106290191D01*
X163837847Y-106294978D01*
X163834035Y-106299376D01*
X163828740Y-106301795D01*
X163819553Y-106316089D01*
X163808427Y-106328930D01*
X163807598Y-106334691D01*
X163804452Y-106339588D01*
X163804452Y-106356579D01*
X163802034Y-106373398D01*
X163804452Y-106378693D01*
X163804452Y-106880388D01*
X163802034Y-106897207D01*
X162909833Y-106897207D01*
X162909833Y-106800040D01*
X162953131Y-106626845D01*
X162991443Y-106550223D01*
X163065132Y-106476533D01*
X163179080Y-106438551D01*
X163249489Y-106438551D01*
X163363437Y-106476533D01*
X163406064Y-106519161D01*
X163435432Y-106535196D01*
X163480243Y-106531992D01*
X163516207Y-106505069D01*
X163531907Y-106462977D01*
X163522357Y-106419079D01*
X163461766Y-106358488D01*
X163450262Y-106344199D01*
X163435432Y-106339255D01*
X163421709Y-106331762D01*
X163414498Y-106332277D01*
X163295194Y-106292509D01*
X163284367Y-106285551D01*
X163263297Y-106285551D01*
X163242221Y-106284789D01*
X163240935Y-106285551D01*
X163176258Y-106285551D01*
X163163784Y-106282373D01*
X163143778Y-106289041D01*
X163123561Y-106294978D01*
X163122582Y-106296106D01*
X163003523Y-106335793D01*
X162985599Y-106339693D01*
X162974545Y-106350746D01*
X162961706Y-106359670D01*
X162958942Y-106366349D01*
X162881260Y-106444031D01*
X162870193Y-106450605D01*
X162860770Y-106469449D01*
X162850663Y-106487960D01*
X162850769Y-106489451D01*
X162818622Y-106553746D01*
X162812184Y-106559800D01*
X162808772Y-106573446D01*
X162807609Y-106575773D01*
X162806114Y-106584078D01*
X162762170Y-106759853D01*
X162756833Y-106768159D01*
X162756833Y-106781204D01*
X162756449Y-106782740D01*
X162756833Y-106792187D01*
X162756833Y-106920889D01*
X162753669Y-106930241D01*
X162481261Y-106930241D01*
X162481261Y-106367841D01*
X162483770Y-106351354D01*
X162476709Y-106335549D01*
X162471834Y-106318946D01*
X162467685Y-106315351D01*
X162465445Y-106310336D01*
X162450959Y-106300857D01*
X162437882Y-106289526D01*
X162432447Y-106288744D01*
X162427852Y-106285738D01*
X162410542Y-106285595D01*
X162393414Y-106283133D01*
X162388420Y-106285413D01*
X162382929Y-106285368D01*
X162368289Y-106294606D01*
X162352549Y-106301795D01*
X162349581Y-106306413D01*
X162344937Y-106309344D01*
X162337616Y-106325029D01*
X162328261Y-106339588D01*
X162328261Y-106345078D01*
X162071427Y-106895435D01*
X161809866Y-106334947D01*
X161805168Y-106318946D01*
X161792087Y-106307611D01*
X161780647Y-106294626D01*
X161775366Y-106293122D01*
X161771216Y-106289526D01*
X161754083Y-106287062D01*
X161737439Y-106282324D01*
X161732182Y-106283914D01*
X161726748Y-106283133D01*
X161711004Y-106290322D01*
X161694439Y-106295335D01*
X161690877Y-106299514D01*
X161685883Y-106301795D01*
X161676525Y-106316355D01*
X161665300Y-106329528D01*
X161664563Y-106334969D01*
X161661595Y-106339588D01*
X161661595Y-106356895D01*
X161659273Y-106374046D01*
X161127643Y-106374046D01*
X161127643Y-105835825D01*
X165197714Y-105835825D01*
X165197714Y-107963039D01*
G37*
G36*
X166150095Y-80063039D02*
G01*
X161127643Y-80063039D01*
X161127643Y-79361123D01*
X161610949Y-79361123D01*
X161620498Y-79405021D01*
X161677217Y-79461741D01*
X161683792Y-79472810D01*
X161702646Y-79482237D01*
X161721146Y-79492339D01*
X161722636Y-79492232D01*
X161795434Y-79528631D01*
X161810870Y-79538551D01*
X161826504Y-79538551D01*
X161841891Y-79541320D01*
X161848567Y-79538551D01*
X162067310Y-79538551D01*
X162085548Y-79540520D01*
X162099528Y-79533529D01*
X162114533Y-79529124D01*
X162119267Y-79523660D01*
X162192296Y-79487145D01*
X162204877Y-79484409D01*
X162219788Y-79469497D01*
X162235216Y-79455147D01*
X162235586Y-79453698D01*
X162261595Y-79427688D01*
X162272663Y-79421115D01*
X162282087Y-79402266D01*
X162292193Y-79383759D01*
X162292086Y-79382268D01*
X162328484Y-79309472D01*
X162338404Y-79294037D01*
X162338404Y-79278403D01*
X162341173Y-79263016D01*
X162338404Y-79256340D01*
X162338404Y-79037596D01*
X162340373Y-79019358D01*
X162333382Y-79005376D01*
X162328977Y-78990374D01*
X162323514Y-78985640D01*
X162286998Y-78912608D01*
X162284262Y-78900031D01*
X162269366Y-78885135D01*
X162255000Y-78869691D01*
X162253551Y-78869320D01*
X162227542Y-78843311D01*
X162220969Y-78832244D01*
X162202124Y-78822821D01*
X162183614Y-78812714D01*
X162182122Y-78812820D01*
X162109326Y-78776422D01*
X162093891Y-78766503D01*
X162078257Y-78766503D01*
X162062870Y-78763734D01*
X162056194Y-78766503D01*
X161837450Y-78766503D01*
X161819212Y-78764534D01*
X161805230Y-78771524D01*
X161790228Y-78775930D01*
X161785494Y-78781392D01*
X161782913Y-78782683D01*
X161807327Y-78538551D01*
X162225285Y-78538551D01*
X162257390Y-78529124D01*
X162286810Y-78495172D01*
X162291157Y-78464932D01*
X162467941Y-78464932D01*
X162804001Y-79473113D01*
X162803690Y-79481734D01*
X162810968Y-79494013D01*
X162811856Y-79496677D01*
X162816551Y-79503432D01*
X162826596Y-79520380D01*
X162829255Y-79521712D01*
X162830952Y-79524154D01*
X162849156Y-79531685D01*
X162866761Y-79540507D01*
X162869715Y-79540190D01*
X162872465Y-79541328D01*
X162891845Y-79537822D01*
X162911430Y-79535726D01*
X162913747Y-79533860D01*
X162916673Y-79533331D01*
X162931078Y-79519907D01*
X162946423Y-79507553D01*
X162947363Y-79504731D01*
X162949539Y-79502704D01*
X162954401Y-79483617D01*
X162957923Y-79473051D01*
X164233024Y-79473051D01*
X164242451Y-79505156D01*
X164276403Y-79534576D01*
X164320871Y-79540969D01*
X164361736Y-79522307D01*
X164386024Y-79484514D01*
X164386024Y-78480502D01*
X164708149Y-78480502D01*
X164709214Y-78482366D01*
X164709214Y-79473051D01*
X164718641Y-79505156D01*
X164752593Y-79534576D01*
X164797061Y-79540969D01*
X164837926Y-79522307D01*
X164862214Y-79484514D01*
X164862214Y-78750116D01*
X165286268Y-79492212D01*
X165290069Y-79505156D01*
X165305541Y-79518562D01*
X165320292Y-79532754D01*
X165322398Y-79533169D01*
X165324021Y-79534576D01*
X165344281Y-79537488D01*
X165364367Y-79541453D01*
X165366364Y-79540663D01*
X165368489Y-79540969D01*
X165387116Y-79532462D01*
X165406148Y-79524941D01*
X165407400Y-79523199D01*
X165409354Y-79522307D01*
X165420422Y-79505083D01*
X165432370Y-79488464D01*
X165432481Y-79486319D01*
X165433642Y-79484514D01*
X165433642Y-79464045D01*
X165434707Y-79443600D01*
X165433642Y-79441736D01*
X165433642Y-78451051D01*
X165424215Y-78418946D01*
X165390263Y-78389526D01*
X165345795Y-78383133D01*
X165304930Y-78401795D01*
X165280642Y-78439588D01*
X165280642Y-79173986D01*
X164856587Y-78431889D01*
X164852787Y-78418946D01*
X164837314Y-78405539D01*
X164822564Y-78391348D01*
X164820457Y-78390932D01*
X164818835Y-78389526D01*
X164798574Y-78386613D01*
X164778489Y-78382649D01*
X164776491Y-78383438D01*
X164774367Y-78383133D01*
X164755739Y-78391639D01*
X164736708Y-78399161D01*
X164735456Y-78400902D01*
X164733502Y-78401795D01*
X164722429Y-78419023D01*
X164710486Y-78435639D01*
X164710374Y-78437782D01*
X164709214Y-78439588D01*
X164709214Y-78460057D01*
X164708149Y-78480502D01*
X164386024Y-78480502D01*
X164386024Y-78451051D01*
X164376597Y-78418946D01*
X164342645Y-78389526D01*
X164298177Y-78383133D01*
X164257312Y-78401795D01*
X164233024Y-78439588D01*
X164233024Y-79473051D01*
X162957923Y-79473051D01*
X163290338Y-78475807D01*
X163291547Y-78442369D01*
X163268641Y-78403722D01*
X163228476Y-78383595D01*
X163183807Y-78388377D01*
X163148814Y-78416550D01*
X162880952Y-79220135D01*
X162616715Y-78427424D01*
X162597619Y-78399948D01*
X162556106Y-78382774D01*
X162511898Y-78390771D01*
X162479032Y-78421398D01*
X162467941Y-78464932D01*
X162291157Y-78464932D01*
X162293203Y-78450704D01*
X162274541Y-78409839D01*
X162236748Y-78385551D01*
X161747414Y-78385551D01*
X161734657Y-78382396D01*
X161714967Y-78389112D01*
X161694990Y-78394978D01*
X161693823Y-78396324D01*
X161692138Y-78396899D01*
X161679199Y-78413201D01*
X161665570Y-78428930D01*
X161665316Y-78430692D01*
X161664210Y-78432087D01*
X161662139Y-78452791D01*
X161659177Y-78473398D01*
X161659916Y-78475018D01*
X161615899Y-78915192D01*
X161612568Y-78921293D01*
X161613702Y-78937157D01*
X161613261Y-78941574D01*
X161614483Y-78948071D01*
X161615773Y-78966104D01*
X161618581Y-78969855D01*
X161619447Y-78974458D01*
X161631861Y-78987594D01*
X161642696Y-79002068D01*
X161647085Y-79003705D01*
X161650303Y-79007110D01*
X161667846Y-79011448D01*
X161684788Y-79017768D01*
X161689367Y-79016771D01*
X161693914Y-79017896D01*
X161711020Y-79012061D01*
X161728686Y-79008218D01*
X161731998Y-79004905D01*
X161736433Y-79003393D01*
X161747672Y-78989231D01*
X161783412Y-78953492D01*
X161851391Y-78919503D01*
X162053369Y-78919503D01*
X162121350Y-78953493D01*
X162151414Y-78983558D01*
X162185404Y-79051537D01*
X162185404Y-79253515D01*
X162151413Y-79321496D01*
X162121350Y-79351560D01*
X162053369Y-79385551D01*
X161851392Y-79385551D01*
X161783410Y-79351560D01*
X161736792Y-79304941D01*
X161707425Y-79288905D01*
X161662614Y-79292109D01*
X161626650Y-79319031D01*
X161610949Y-79361123D01*
X161127643Y-79361123D01*
X161127643Y-77935825D01*
X166150095Y-77935825D01*
X166150095Y-80063039D01*
G37*
D13*
X125152381Y-63445622D02*
X125009524Y-63398003D01*
X125009524Y-63398003D02*
X124961905Y-63350384D01*
X124961905Y-63350384D02*
X124914286Y-63255146D01*
X124914286Y-63255146D02*
X124914286Y-63112289D01*
X124914286Y-63112289D02*
X124961905Y-63017051D01*
X124961905Y-63017051D02*
X125009524Y-62969432D01*
X125009524Y-62969432D02*
X125104762Y-62921812D01*
X125104762Y-62921812D02*
X125485714Y-62921812D01*
X125485714Y-62921812D02*
X125485714Y-63921812D01*
X125485714Y-63921812D02*
X125152381Y-63921812D01*
X125152381Y-63921812D02*
X125057143Y-63874193D01*
X125057143Y-63874193D02*
X125009524Y-63826574D01*
X125009524Y-63826574D02*
X124961905Y-63731336D01*
X124961905Y-63731336D02*
X124961905Y-63636098D01*
X124961905Y-63636098D02*
X125009524Y-63540860D01*
X125009524Y-63540860D02*
X125057143Y-63493241D01*
X125057143Y-63493241D02*
X125152381Y-63445622D01*
X125152381Y-63445622D02*
X125485714Y-63445622D01*
X124342857Y-62921812D02*
X124438095Y-62969432D01*
X124438095Y-62969432D02*
X124485714Y-63017051D01*
X124485714Y-63017051D02*
X124533333Y-63112289D01*
X124533333Y-63112289D02*
X124533333Y-63398003D01*
X124533333Y-63398003D02*
X124485714Y-63493241D01*
X124485714Y-63493241D02*
X124438095Y-63540860D01*
X124438095Y-63540860D02*
X124342857Y-63588479D01*
X124342857Y-63588479D02*
X124200000Y-63588479D01*
X124200000Y-63588479D02*
X124104762Y-63540860D01*
X124104762Y-63540860D02*
X124057143Y-63493241D01*
X124057143Y-63493241D02*
X124009524Y-63398003D01*
X124009524Y-63398003D02*
X124009524Y-63112289D01*
X124009524Y-63112289D02*
X124057143Y-63017051D01*
X124057143Y-63017051D02*
X124104762Y-62969432D01*
X124104762Y-62969432D02*
X124200000Y-62921812D01*
X124200000Y-62921812D02*
X124342857Y-62921812D01*
X123438095Y-62921812D02*
X123533333Y-62969432D01*
X123533333Y-62969432D02*
X123580952Y-63017051D01*
X123580952Y-63017051D02*
X123628571Y-63112289D01*
X123628571Y-63112289D02*
X123628571Y-63398003D01*
X123628571Y-63398003D02*
X123580952Y-63493241D01*
X123580952Y-63493241D02*
X123533333Y-63540860D01*
X123533333Y-63540860D02*
X123438095Y-63588479D01*
X123438095Y-63588479D02*
X123295238Y-63588479D01*
X123295238Y-63588479D02*
X123200000Y-63540860D01*
X123200000Y-63540860D02*
X123152381Y-63493241D01*
X123152381Y-63493241D02*
X123104762Y-63398003D01*
X123104762Y-63398003D02*
X123104762Y-63112289D01*
X123104762Y-63112289D02*
X123152381Y-63017051D01*
X123152381Y-63017051D02*
X123200000Y-62969432D01*
X123200000Y-62969432D02*
X123295238Y-62921812D01*
X123295238Y-62921812D02*
X123438095Y-62921812D01*
X122819047Y-63588479D02*
X122438095Y-63588479D01*
X122676190Y-63921812D02*
X122676190Y-63064670D01*
X122676190Y-63064670D02*
X122628571Y-62969432D01*
X122628571Y-62969432D02*
X122533333Y-62921812D01*
X122533333Y-62921812D02*
X122438095Y-62921812D01*
X121390475Y-62969432D02*
X121247618Y-62921812D01*
X121247618Y-62921812D02*
X121009523Y-62921812D01*
X121009523Y-62921812D02*
X120914285Y-62969432D01*
X120914285Y-62969432D02*
X120866666Y-63017051D01*
X120866666Y-63017051D02*
X120819047Y-63112289D01*
X120819047Y-63112289D02*
X120819047Y-63207527D01*
X120819047Y-63207527D02*
X120866666Y-63302765D01*
X120866666Y-63302765D02*
X120914285Y-63350384D01*
X120914285Y-63350384D02*
X121009523Y-63398003D01*
X121009523Y-63398003D02*
X121199999Y-63445622D01*
X121199999Y-63445622D02*
X121295237Y-63493241D01*
X121295237Y-63493241D02*
X121342856Y-63540860D01*
X121342856Y-63540860D02*
X121390475Y-63636098D01*
X121390475Y-63636098D02*
X121390475Y-63731336D01*
X121390475Y-63731336D02*
X121342856Y-63826574D01*
X121342856Y-63826574D02*
X121295237Y-63874193D01*
X121295237Y-63874193D02*
X121199999Y-63921812D01*
X121199999Y-63921812D02*
X120961904Y-63921812D01*
X120961904Y-63921812D02*
X120819047Y-63874193D01*
X120009523Y-62969432D02*
X120104761Y-62921812D01*
X120104761Y-62921812D02*
X120295237Y-62921812D01*
X120295237Y-62921812D02*
X120390475Y-62969432D01*
X120390475Y-62969432D02*
X120438094Y-63064670D01*
X120438094Y-63064670D02*
X120438094Y-63445622D01*
X120438094Y-63445622D02*
X120390475Y-63540860D01*
X120390475Y-63540860D02*
X120295237Y-63588479D01*
X120295237Y-63588479D02*
X120104761Y-63588479D01*
X120104761Y-63588479D02*
X120009523Y-63540860D01*
X120009523Y-63540860D02*
X119961904Y-63445622D01*
X119961904Y-63445622D02*
X119961904Y-63350384D01*
X119961904Y-63350384D02*
X120438094Y-63255146D01*
X119390475Y-62921812D02*
X119485713Y-62969432D01*
X119485713Y-62969432D02*
X119533332Y-63064670D01*
X119533332Y-63064670D02*
X119533332Y-63921812D01*
X118628570Y-62969432D02*
X118723808Y-62921812D01*
X118723808Y-62921812D02*
X118914284Y-62921812D01*
X118914284Y-62921812D02*
X119009522Y-62969432D01*
X119009522Y-62969432D02*
X119057141Y-63064670D01*
X119057141Y-63064670D02*
X119057141Y-63445622D01*
X119057141Y-63445622D02*
X119009522Y-63540860D01*
X119009522Y-63540860D02*
X118914284Y-63588479D01*
X118914284Y-63588479D02*
X118723808Y-63588479D01*
X118723808Y-63588479D02*
X118628570Y-63540860D01*
X118628570Y-63540860D02*
X118580951Y-63445622D01*
X118580951Y-63445622D02*
X118580951Y-63350384D01*
X118580951Y-63350384D02*
X119057141Y-63255146D01*
X117723808Y-62969432D02*
X117819046Y-62921812D01*
X117819046Y-62921812D02*
X118009522Y-62921812D01*
X118009522Y-62921812D02*
X118104760Y-62969432D01*
X118104760Y-62969432D02*
X118152379Y-63017051D01*
X118152379Y-63017051D02*
X118199998Y-63112289D01*
X118199998Y-63112289D02*
X118199998Y-63398003D01*
X118199998Y-63398003D02*
X118152379Y-63493241D01*
X118152379Y-63493241D02*
X118104760Y-63540860D01*
X118104760Y-63540860D02*
X118009522Y-63588479D01*
X118009522Y-63588479D02*
X117819046Y-63588479D01*
X117819046Y-63588479D02*
X117723808Y-63540860D01*
X117438093Y-63588479D02*
X117057141Y-63588479D01*
X117295236Y-63921812D02*
X117295236Y-63064670D01*
X117295236Y-63064670D02*
X117247617Y-62969432D01*
X117247617Y-62969432D02*
X117152379Y-62921812D01*
X117152379Y-62921812D02*
X117057141Y-62921812D01*
X116723807Y-62921812D02*
X116723807Y-63588479D01*
X116723807Y-63921812D02*
X116771426Y-63874193D01*
X116771426Y-63874193D02*
X116723807Y-63826574D01*
X116723807Y-63826574D02*
X116676188Y-63874193D01*
X116676188Y-63874193D02*
X116723807Y-63921812D01*
X116723807Y-63921812D02*
X116723807Y-63826574D01*
X116104760Y-62921812D02*
X116199998Y-62969432D01*
X116199998Y-62969432D02*
X116247617Y-63017051D01*
X116247617Y-63017051D02*
X116295236Y-63112289D01*
X116295236Y-63112289D02*
X116295236Y-63398003D01*
X116295236Y-63398003D02*
X116247617Y-63493241D01*
X116247617Y-63493241D02*
X116199998Y-63540860D01*
X116199998Y-63540860D02*
X116104760Y-63588479D01*
X116104760Y-63588479D02*
X115961903Y-63588479D01*
X115961903Y-63588479D02*
X115866665Y-63540860D01*
X115866665Y-63540860D02*
X115819046Y-63493241D01*
X115819046Y-63493241D02*
X115771427Y-63398003D01*
X115771427Y-63398003D02*
X115771427Y-63112289D01*
X115771427Y-63112289D02*
X115819046Y-63017051D01*
X115819046Y-63017051D02*
X115866665Y-62969432D01*
X115866665Y-62969432D02*
X115961903Y-62921812D01*
X115961903Y-62921812D02*
X116104760Y-62921812D01*
X115342855Y-63588479D02*
X115342855Y-62921812D01*
X115342855Y-63493241D02*
X115295236Y-63540860D01*
X115295236Y-63540860D02*
X115199998Y-63588479D01*
X115199998Y-63588479D02*
X115057141Y-63588479D01*
X115057141Y-63588479D02*
X114961903Y-63540860D01*
X114961903Y-63540860D02*
X114914284Y-63445622D01*
X114914284Y-63445622D02*
X114914284Y-62921812D01*
D11*
X171338095Y-92330200D02*
X171480952Y-92377819D01*
X171480952Y-92377819D02*
X171719047Y-92377819D01*
X171719047Y-92377819D02*
X171814285Y-92330200D01*
X171814285Y-92330200D02*
X171861904Y-92282580D01*
X171861904Y-92282580D02*
X171909523Y-92187342D01*
X171909523Y-92187342D02*
X171909523Y-92092104D01*
X171909523Y-92092104D02*
X171861904Y-91996866D01*
X171861904Y-91996866D02*
X171814285Y-91949247D01*
X171814285Y-91949247D02*
X171719047Y-91901628D01*
X171719047Y-91901628D02*
X171528571Y-91854009D01*
X171528571Y-91854009D02*
X171433333Y-91806390D01*
X171433333Y-91806390D02*
X171385714Y-91758771D01*
X171385714Y-91758771D02*
X171338095Y-91663533D01*
X171338095Y-91663533D02*
X171338095Y-91568295D01*
X171338095Y-91568295D02*
X171385714Y-91473057D01*
X171385714Y-91473057D02*
X171433333Y-91425438D01*
X171433333Y-91425438D02*
X171528571Y-91377819D01*
X171528571Y-91377819D02*
X171766666Y-91377819D01*
X171766666Y-91377819D02*
X171909523Y-91425438D01*
X172338095Y-91854009D02*
X172671428Y-91854009D01*
X172814285Y-92377819D02*
X172338095Y-92377819D01*
X172338095Y-92377819D02*
X172338095Y-91377819D01*
X172338095Y-91377819D02*
X172814285Y-91377819D01*
X173242857Y-92377819D02*
X173242857Y-91377819D01*
X173242857Y-91377819D02*
X173814285Y-92377819D01*
X173814285Y-92377819D02*
X173814285Y-91377819D01*
X174290476Y-92377819D02*
X174290476Y-91377819D01*
X174290476Y-91377819D02*
X174528571Y-91377819D01*
X174528571Y-91377819D02*
X174671428Y-91425438D01*
X174671428Y-91425438D02*
X174766666Y-91520676D01*
X174766666Y-91520676D02*
X174814285Y-91615914D01*
X174814285Y-91615914D02*
X174861904Y-91806390D01*
X174861904Y-91806390D02*
X174861904Y-91949247D01*
X174861904Y-91949247D02*
X174814285Y-92139723D01*
X174814285Y-92139723D02*
X174766666Y-92234961D01*
X174766666Y-92234961D02*
X174671428Y-92330200D01*
X174671428Y-92330200D02*
X174528571Y-92377819D01*
X174528571Y-92377819D02*
X174290476Y-92377819D01*
X174145276Y-121877819D02*
X174145276Y-120877819D01*
X174145276Y-120877819D02*
X174526228Y-120877819D01*
X174526228Y-120877819D02*
X174621466Y-120925438D01*
X174621466Y-120925438D02*
X174669085Y-120973057D01*
X174669085Y-120973057D02*
X174716704Y-121068295D01*
X174716704Y-121068295D02*
X174716704Y-121211152D01*
X174716704Y-121211152D02*
X174669085Y-121306390D01*
X174669085Y-121306390D02*
X174621466Y-121354009D01*
X174621466Y-121354009D02*
X174526228Y-121401628D01*
X174526228Y-121401628D02*
X174145276Y-121401628D01*
X175335752Y-120877819D02*
X175526228Y-120877819D01*
X175526228Y-120877819D02*
X175621466Y-120925438D01*
X175621466Y-120925438D02*
X175716704Y-121020676D01*
X175716704Y-121020676D02*
X175764323Y-121211152D01*
X175764323Y-121211152D02*
X175764323Y-121544485D01*
X175764323Y-121544485D02*
X175716704Y-121734961D01*
X175716704Y-121734961D02*
X175621466Y-121830200D01*
X175621466Y-121830200D02*
X175526228Y-121877819D01*
X175526228Y-121877819D02*
X175335752Y-121877819D01*
X175335752Y-121877819D02*
X175240514Y-121830200D01*
X175240514Y-121830200D02*
X175145276Y-121734961D01*
X175145276Y-121734961D02*
X175097657Y-121544485D01*
X175097657Y-121544485D02*
X175097657Y-121211152D01*
X175097657Y-121211152D02*
X175145276Y-121020676D01*
X175145276Y-121020676D02*
X175240514Y-120925438D01*
X175240514Y-120925438D02*
X175335752Y-120877819D01*
X176097657Y-120877819D02*
X176335752Y-121877819D01*
X176335752Y-121877819D02*
X176526228Y-121163533D01*
X176526228Y-121163533D02*
X176716704Y-121877819D01*
X176716704Y-121877819D02*
X176954800Y-120877819D01*
X177335752Y-121354009D02*
X177669085Y-121354009D01*
X177811942Y-121877819D02*
X177335752Y-121877819D01*
X177335752Y-121877819D02*
X177335752Y-120877819D01*
X177335752Y-120877819D02*
X177811942Y-120877819D01*
X178811942Y-121877819D02*
X178478609Y-121401628D01*
X178240514Y-121877819D02*
X178240514Y-120877819D01*
X178240514Y-120877819D02*
X178621466Y-120877819D01*
X178621466Y-120877819D02*
X178716704Y-120925438D01*
X178716704Y-120925438D02*
X178764323Y-120973057D01*
X178764323Y-120973057D02*
X178811942Y-121068295D01*
X178811942Y-121068295D02*
X178811942Y-121211152D01*
X178811942Y-121211152D02*
X178764323Y-121306390D01*
X178764323Y-121306390D02*
X178716704Y-121354009D01*
X178716704Y-121354009D02*
X178621466Y-121401628D01*
X178621466Y-121401628D02*
X178240514Y-121401628D01*
D12*
G36*
X165816762Y-102863039D02*
G01*
X161127643Y-102863039D01*
X161127643Y-101461085D01*
X161611207Y-101461085D01*
X161613976Y-101467761D01*
X161613976Y-101543647D01*
X161612007Y-101561885D01*
X161618997Y-101575865D01*
X161623403Y-101590870D01*
X161628866Y-101595604D01*
X161665381Y-101668633D01*
X161668118Y-101681213D01*
X161683024Y-101696119D01*
X161697380Y-101711553D01*
X161698827Y-101711923D01*
X161724838Y-101737933D01*
X161731411Y-101749000D01*
X161750256Y-101758422D01*
X161768766Y-101768529D01*
X161770255Y-101768422D01*
X161834552Y-101800570D01*
X161840606Y-101807009D01*
X161854252Y-101810420D01*
X161856579Y-101811584D01*
X161864883Y-101813078D01*
X162044728Y-101858039D01*
X162121350Y-101896350D01*
X162151414Y-101926415D01*
X162185404Y-101994394D01*
X162185404Y-102053515D01*
X162151413Y-102121496D01*
X162121350Y-102151560D01*
X162053369Y-102185551D01*
X161845747Y-102185551D01*
X161704232Y-102138379D01*
X161670793Y-102137170D01*
X161632147Y-102160076D01*
X161612020Y-102200241D01*
X161616801Y-102244910D01*
X161644974Y-102279903D01*
X161800042Y-102331592D01*
X161810870Y-102338551D01*
X161831940Y-102338551D01*
X161853015Y-102339313D01*
X161854301Y-102338551D01*
X162067310Y-102338551D01*
X162085548Y-102340520D01*
X162099528Y-102333529D01*
X162114533Y-102329124D01*
X162119267Y-102323660D01*
X162192296Y-102287145D01*
X162204877Y-102284409D01*
X162219788Y-102269497D01*
X162235216Y-102255147D01*
X162235586Y-102253698D01*
X162261595Y-102227688D01*
X162272663Y-102221115D01*
X162282087Y-102202266D01*
X162292193Y-102183759D01*
X162292086Y-102182268D01*
X162328484Y-102109472D01*
X162338404Y-102094037D01*
X162338404Y-102078403D01*
X162341173Y-102063016D01*
X162338404Y-102056340D01*
X162338404Y-101980453D01*
X162340373Y-101962215D01*
X162333382Y-101948233D01*
X162328977Y-101933231D01*
X162323514Y-101928497D01*
X162286998Y-101855465D01*
X162284262Y-101842888D01*
X162271615Y-101830241D01*
X162563193Y-101830241D01*
X162566357Y-101842897D01*
X162566357Y-101844479D01*
X162569018Y-101853544D01*
X162612955Y-102029289D01*
X162612007Y-102038075D01*
X162618296Y-102050653D01*
X162618928Y-102053180D01*
X162623201Y-102060464D01*
X162665380Y-102144821D01*
X162668117Y-102157403D01*
X162683036Y-102172323D01*
X162697380Y-102187743D01*
X162698826Y-102188112D01*
X162776325Y-102265612D01*
X162787831Y-102279903D01*
X162802661Y-102284846D01*
X162816385Y-102292340D01*
X162823594Y-102291824D01*
X162942899Y-102331592D01*
X162953727Y-102338551D01*
X162974797Y-102338551D01*
X162995872Y-102339313D01*
X162997158Y-102338551D01*
X163061835Y-102338551D01*
X163074309Y-102341729D01*
X163094306Y-102335062D01*
X163114533Y-102329124D01*
X163115511Y-102327994D01*
X163234566Y-102288309D01*
X163252496Y-102284409D01*
X163263505Y-102273398D01*
X163611558Y-102273398D01*
X163618616Y-102288853D01*
X163623403Y-102305156D01*
X163627801Y-102308967D01*
X163630220Y-102314263D01*
X163644514Y-102323449D01*
X163657355Y-102334576D01*
X163663116Y-102335404D01*
X163668013Y-102338551D01*
X163685004Y-102338551D01*
X163701823Y-102340969D01*
X163707118Y-102338551D01*
X164177666Y-102338551D01*
X164209771Y-102329124D01*
X164239191Y-102295172D01*
X164245584Y-102250704D01*
X164226922Y-102209839D01*
X164189129Y-102185551D01*
X163766976Y-102185551D01*
X163766976Y-101816531D01*
X164422092Y-101816531D01*
X164423500Y-101836217D01*
X164423500Y-102273051D01*
X164432927Y-102305156D01*
X164466879Y-102334576D01*
X164511347Y-102340969D01*
X164552212Y-102322307D01*
X164576500Y-102284514D01*
X164576500Y-101865166D01*
X164634579Y-101807086D01*
X165016828Y-102316751D01*
X165043633Y-102336779D01*
X165088446Y-102339944D01*
X165127856Y-102318377D01*
X165149351Y-102278929D01*
X165146106Y-102234122D01*
X164743865Y-101697800D01*
X165133300Y-101308367D01*
X165149335Y-101278999D01*
X165146131Y-101234188D01*
X165119208Y-101198224D01*
X165077116Y-101182524D01*
X165033218Y-101192074D01*
X164596516Y-101628775D01*
X164586429Y-101634296D01*
X164580960Y-101644331D01*
X164576500Y-101648792D01*
X164576500Y-101251051D01*
X164567073Y-101218946D01*
X164533121Y-101189526D01*
X164488653Y-101183133D01*
X164447788Y-101201795D01*
X164423500Y-101239588D01*
X164423500Y-101813953D01*
X164422092Y-101816531D01*
X163766976Y-101816531D01*
X163766976Y-101251051D01*
X163757549Y-101218946D01*
X163723597Y-101189526D01*
X163679129Y-101183133D01*
X163638264Y-101201795D01*
X163613976Y-101239588D01*
X163613976Y-102256579D01*
X163611558Y-102273398D01*
X163263505Y-102273398D01*
X163263551Y-102273352D01*
X163276388Y-102264432D01*
X163279151Y-102257753D01*
X163323776Y-102213127D01*
X163339812Y-102183759D01*
X163336607Y-102138948D01*
X163309683Y-102102985D01*
X163267591Y-102087285D01*
X163223693Y-102096835D01*
X163172961Y-102147567D01*
X163059013Y-102185551D01*
X162988604Y-102185551D01*
X162874656Y-102147568D01*
X162800966Y-102073876D01*
X162762655Y-101997255D01*
X162719357Y-101824061D01*
X162719357Y-101700040D01*
X162762655Y-101526845D01*
X162800967Y-101450223D01*
X162874656Y-101376533D01*
X162988604Y-101338551D01*
X163059013Y-101338551D01*
X163172961Y-101376533D01*
X163215588Y-101419161D01*
X163244956Y-101435196D01*
X163289767Y-101431992D01*
X163325731Y-101405069D01*
X163341431Y-101362977D01*
X163331881Y-101319079D01*
X163271290Y-101258488D01*
X163259786Y-101244199D01*
X163244956Y-101239255D01*
X163231233Y-101231762D01*
X163224022Y-101232277D01*
X163104718Y-101192509D01*
X163093891Y-101185551D01*
X163072821Y-101185551D01*
X163051745Y-101184789D01*
X163050459Y-101185551D01*
X162985782Y-101185551D01*
X162973308Y-101182373D01*
X162953302Y-101189041D01*
X162933085Y-101194978D01*
X162932106Y-101196106D01*
X162813047Y-101235793D01*
X162795123Y-101239693D01*
X162784069Y-101250746D01*
X162771230Y-101259670D01*
X162768466Y-101266349D01*
X162690784Y-101344031D01*
X162679717Y-101350605D01*
X162670294Y-101369449D01*
X162660187Y-101387960D01*
X162660293Y-101389451D01*
X162628146Y-101453746D01*
X162621708Y-101459800D01*
X162618296Y-101473446D01*
X162617133Y-101475773D01*
X162615638Y-101484078D01*
X162571694Y-101659853D01*
X162566357Y-101668159D01*
X162566357Y-101681204D01*
X162565973Y-101682740D01*
X162566357Y-101692187D01*
X162566357Y-101820889D01*
X162563193Y-101830241D01*
X162271615Y-101830241D01*
X162269366Y-101827992D01*
X162255000Y-101812548D01*
X162253551Y-101812177D01*
X162227542Y-101786168D01*
X162220969Y-101775101D01*
X162202124Y-101765678D01*
X162183614Y-101755571D01*
X162182122Y-101755677D01*
X162117827Y-101723530D01*
X162111774Y-101717092D01*
X162098128Y-101713680D01*
X162095801Y-101712517D01*
X162087495Y-101711022D01*
X161907652Y-101666061D01*
X161831029Y-101627750D01*
X161800967Y-101597688D01*
X161766976Y-101529706D01*
X161766976Y-101470586D01*
X161800966Y-101402604D01*
X161831031Y-101372540D01*
X161899010Y-101338551D01*
X162106632Y-101338551D01*
X162248148Y-101385723D01*
X162281586Y-101386932D01*
X162320233Y-101364026D01*
X162340360Y-101323861D01*
X162335578Y-101279192D01*
X162307405Y-101244199D01*
X162152337Y-101192509D01*
X162141510Y-101185551D01*
X162120440Y-101185551D01*
X162099364Y-101184789D01*
X162098078Y-101185551D01*
X161885069Y-101185551D01*
X161866831Y-101183582D01*
X161852849Y-101190572D01*
X161837847Y-101194978D01*
X161833113Y-101200440D01*
X161760081Y-101236956D01*
X161747504Y-101239693D01*
X161732608Y-101254588D01*
X161717164Y-101268955D01*
X161716793Y-101270403D01*
X161690784Y-101296412D01*
X161679717Y-101302986D01*
X161670294Y-101321830D01*
X161660187Y-101340341D01*
X161660293Y-101341832D01*
X161623895Y-101414628D01*
X161613976Y-101430064D01*
X161613976Y-101445698D01*
X161611207Y-101461085D01*
X161127643Y-101461085D01*
X161127643Y-100735825D01*
X165816762Y-100735825D01*
X165816762Y-102863039D01*
G37*
G36*
X163311827Y-98872542D02*
G01*
X163383303Y-98944018D01*
X163423499Y-99104801D01*
X163423499Y-99419299D01*
X163383303Y-99580082D01*
X163311826Y-99651560D01*
X163243845Y-99685551D01*
X163089487Y-99685551D01*
X163021505Y-99651560D01*
X162950028Y-99580082D01*
X162909833Y-99419299D01*
X162909833Y-99104802D01*
X162950029Y-98944017D01*
X163021506Y-98872541D01*
X163089486Y-98838551D01*
X163243845Y-98838551D01*
X163311827Y-98872542D01*
G37*
G36*
X165673904Y-100363039D02*
G01*
X161127643Y-100363039D01*
X161127643Y-98774046D01*
X161659273Y-98774046D01*
X161661595Y-98779022D01*
X161661595Y-99773051D01*
X161671022Y-99805156D01*
X161704974Y-99834576D01*
X161749442Y-99840969D01*
X161790307Y-99822307D01*
X161814595Y-99784514D01*
X161814595Y-99106879D01*
X162001830Y-99508098D01*
X162010745Y-99528051D01*
X162020874Y-99534679D01*
X162028876Y-99543761D01*
X162039282Y-99546724D01*
X162048337Y-99552649D01*
X162060440Y-99552748D01*
X162072084Y-99556064D01*
X162082441Y-99552929D01*
X162093260Y-99553019D01*
X162103497Y-99546558D01*
X162115084Y-99543052D01*
X162122102Y-99534816D01*
X162131252Y-99529042D01*
X162136370Y-99518074D01*
X162144223Y-99508860D01*
X162145674Y-99498135D01*
X162328261Y-99106880D01*
X162328261Y-99773051D01*
X162337688Y-99805156D01*
X162371640Y-99834576D01*
X162416108Y-99840969D01*
X162456973Y-99822307D01*
X162481261Y-99784514D01*
X162481261Y-99425479D01*
X162753669Y-99425479D01*
X162756833Y-99438135D01*
X162756833Y-99439717D01*
X162759494Y-99448782D01*
X162806444Y-99636578D01*
X162810974Y-99657403D01*
X162819929Y-99666358D01*
X162826336Y-99677278D01*
X162835484Y-99681914D01*
X162915314Y-99761744D01*
X162921887Y-99772810D01*
X162940724Y-99782228D01*
X162959242Y-99792340D01*
X162960733Y-99792233D01*
X163033529Y-99828631D01*
X163048965Y-99838551D01*
X163064599Y-99838551D01*
X163079986Y-99841320D01*
X163086662Y-99838551D01*
X163257786Y-99838551D01*
X163276024Y-99840520D01*
X163290004Y-99833529D01*
X163305009Y-99829124D01*
X163309743Y-99823660D01*
X163382772Y-99787145D01*
X163395352Y-99784409D01*
X163410254Y-99769506D01*
X163425692Y-99755147D01*
X163426062Y-99753698D01*
X163505630Y-99674129D01*
X163521148Y-99659539D01*
X163524219Y-99647254D01*
X163530288Y-99636140D01*
X163529556Y-99625906D01*
X163571161Y-99459484D01*
X163576499Y-99451180D01*
X163576499Y-99438136D01*
X163576883Y-99436600D01*
X163576499Y-99427153D01*
X163576499Y-99107974D01*
X163579663Y-99098622D01*
X163576499Y-99085966D01*
X163576499Y-99084384D01*
X163573837Y-99075319D01*
X163545278Y-98961085D01*
X163801683Y-98961085D01*
X163804452Y-98967761D01*
X163804452Y-99043647D01*
X163802483Y-99061885D01*
X163809473Y-99075865D01*
X163813879Y-99090870D01*
X163819342Y-99095604D01*
X163855857Y-99168633D01*
X163858594Y-99181213D01*
X163873500Y-99196119D01*
X163887856Y-99211553D01*
X163889303Y-99211923D01*
X163915314Y-99237933D01*
X163921887Y-99249000D01*
X163940732Y-99258422D01*
X163959242Y-99268529D01*
X163960731Y-99268422D01*
X164025028Y-99300570D01*
X164031082Y-99307009D01*
X164044728Y-99310420D01*
X164047055Y-99311584D01*
X164055359Y-99313078D01*
X164235204Y-99358039D01*
X164311826Y-99396350D01*
X164341890Y-99426415D01*
X164375880Y-99494394D01*
X164375880Y-99553515D01*
X164341889Y-99621496D01*
X164311826Y-99651560D01*
X164243845Y-99685551D01*
X164036223Y-99685551D01*
X163894708Y-99638379D01*
X163861269Y-99637170D01*
X163822623Y-99660076D01*
X163802496Y-99700241D01*
X163807277Y-99744910D01*
X163835450Y-99779903D01*
X163990518Y-99831592D01*
X164001346Y-99838551D01*
X164022416Y-99838551D01*
X164043491Y-99839313D01*
X164044777Y-99838551D01*
X164257786Y-99838551D01*
X164276024Y-99840520D01*
X164290004Y-99833529D01*
X164305009Y-99829124D01*
X164309743Y-99823660D01*
X164382772Y-99787145D01*
X164395353Y-99784409D01*
X164406710Y-99773051D01*
X164804452Y-99773051D01*
X164813879Y-99805156D01*
X164847831Y-99834576D01*
X164892299Y-99840969D01*
X164933164Y-99822307D01*
X164957452Y-99784514D01*
X164957452Y-98751051D01*
X164948025Y-98718946D01*
X164914073Y-98689526D01*
X164869605Y-98683133D01*
X164828740Y-98701795D01*
X164804452Y-98739588D01*
X164804452Y-99773051D01*
X164406710Y-99773051D01*
X164410264Y-99769497D01*
X164425692Y-99755147D01*
X164426062Y-99753698D01*
X164452071Y-99727688D01*
X164463139Y-99721115D01*
X164472563Y-99702266D01*
X164482669Y-99683759D01*
X164482562Y-99682268D01*
X164518960Y-99609472D01*
X164528880Y-99594037D01*
X164528880Y-99578403D01*
X164531649Y-99563016D01*
X164528880Y-99556340D01*
X164528880Y-99480453D01*
X164530849Y-99462215D01*
X164523858Y-99448233D01*
X164519453Y-99433231D01*
X164513990Y-99428497D01*
X164477474Y-99355465D01*
X164474738Y-99342888D01*
X164459842Y-99327992D01*
X164445476Y-99312548D01*
X164444027Y-99312177D01*
X164418018Y-99286168D01*
X164411445Y-99275101D01*
X164392600Y-99265678D01*
X164374090Y-99255571D01*
X164372598Y-99255677D01*
X164308303Y-99223530D01*
X164302250Y-99217092D01*
X164288604Y-99213680D01*
X164286277Y-99212517D01*
X164277971Y-99211022D01*
X164098128Y-99166061D01*
X164021505Y-99127750D01*
X163991443Y-99097688D01*
X163957452Y-99029706D01*
X163957452Y-98970586D01*
X163991442Y-98902604D01*
X164021507Y-98872540D01*
X164089486Y-98838551D01*
X164297108Y-98838551D01*
X164438624Y-98885723D01*
X164472062Y-98886932D01*
X164510709Y-98864026D01*
X164530836Y-98823861D01*
X164526054Y-98779192D01*
X164497881Y-98744199D01*
X164342813Y-98692509D01*
X164331986Y-98685551D01*
X164310916Y-98685551D01*
X164289840Y-98684789D01*
X164288554Y-98685551D01*
X164075545Y-98685551D01*
X164057307Y-98683582D01*
X164043325Y-98690572D01*
X164028323Y-98694978D01*
X164023589Y-98700440D01*
X163950557Y-98736956D01*
X163937980Y-98739693D01*
X163923084Y-98754588D01*
X163907640Y-98768955D01*
X163907269Y-98770403D01*
X163881260Y-98796412D01*
X163870193Y-98802986D01*
X163860770Y-98821830D01*
X163850663Y-98840341D01*
X163850769Y-98841832D01*
X163814371Y-98914628D01*
X163804452Y-98930064D01*
X163804452Y-98945698D01*
X163801683Y-98961085D01*
X163545278Y-98961085D01*
X163526882Y-98887499D01*
X163522357Y-98866698D01*
X163513405Y-98857746D01*
X163506996Y-98846822D01*
X163497842Y-98842183D01*
X163418018Y-98762359D01*
X163411445Y-98751292D01*
X163392600Y-98741869D01*
X163374090Y-98731762D01*
X163372598Y-98731868D01*
X163299802Y-98695470D01*
X163284367Y-98685551D01*
X163268733Y-98685551D01*
X163253346Y-98682782D01*
X163246670Y-98685551D01*
X163075545Y-98685551D01*
X163057307Y-98683582D01*
X163043325Y-98690572D01*
X163028323Y-98694978D01*
X163023589Y-98700440D01*
X162950557Y-98736956D01*
X162937980Y-98739693D01*
X162923084Y-98754588D01*
X162907640Y-98768955D01*
X162907269Y-98770403D01*
X162827703Y-98849969D01*
X162812184Y-98864562D01*
X162809113Y-98876845D01*
X162803044Y-98887960D01*
X162803775Y-98898194D01*
X162762170Y-99064615D01*
X162756833Y-99072921D01*
X162756833Y-99085966D01*
X162756449Y-99087502D01*
X162756833Y-99096949D01*
X162756833Y-99416127D01*
X162753669Y-99425479D01*
X162481261Y-99425479D01*
X162481261Y-98767841D01*
X162483770Y-98751354D01*
X162476709Y-98735549D01*
X162471834Y-98718946D01*
X162467685Y-98715351D01*
X162465445Y-98710336D01*
X162450959Y-98700857D01*
X162437882Y-98689526D01*
X162432447Y-98688744D01*
X162427852Y-98685738D01*
X162410542Y-98685595D01*
X162393414Y-98683133D01*
X162388420Y-98685413D01*
X162382929Y-98685368D01*
X162368289Y-98694606D01*
X162352549Y-98701795D01*
X162349581Y-98706413D01*
X162344937Y-98709344D01*
X162337616Y-98725029D01*
X162328261Y-98739588D01*
X162328261Y-98745078D01*
X162071427Y-99295435D01*
X161809866Y-98734947D01*
X161805168Y-98718946D01*
X161792087Y-98707611D01*
X161780647Y-98694626D01*
X161775366Y-98693122D01*
X161771216Y-98689526D01*
X161754083Y-98687062D01*
X161737439Y-98682324D01*
X161732182Y-98683914D01*
X161726748Y-98683133D01*
X161711004Y-98690322D01*
X161694439Y-98695335D01*
X161690877Y-98699514D01*
X161685883Y-98701795D01*
X161676525Y-98716355D01*
X161665300Y-98729528D01*
X161664563Y-98734969D01*
X161661595Y-98739588D01*
X161661595Y-98756895D01*
X161659273Y-98774046D01*
X161127643Y-98774046D01*
X161127643Y-98235825D01*
X165673904Y-98235825D01*
X165673904Y-100363039D01*
G37*
D11*
X169284800Y-65012104D02*
X169332419Y-64869247D01*
X169332419Y-64869247D02*
X169332419Y-64631152D01*
X169332419Y-64631152D02*
X169284800Y-64535914D01*
X169284800Y-64535914D02*
X169237180Y-64488295D01*
X169237180Y-64488295D02*
X169141942Y-64440676D01*
X169141942Y-64440676D02*
X169046704Y-64440676D01*
X169046704Y-64440676D02*
X168951466Y-64488295D01*
X168951466Y-64488295D02*
X168903847Y-64535914D01*
X168903847Y-64535914D02*
X168856228Y-64631152D01*
X168856228Y-64631152D02*
X168808609Y-64821628D01*
X168808609Y-64821628D02*
X168760990Y-64916866D01*
X168760990Y-64916866D02*
X168713371Y-64964485D01*
X168713371Y-64964485D02*
X168618133Y-65012104D01*
X168618133Y-65012104D02*
X168522895Y-65012104D01*
X168522895Y-65012104D02*
X168427657Y-64964485D01*
X168427657Y-64964485D02*
X168380038Y-64916866D01*
X168380038Y-64916866D02*
X168332419Y-64821628D01*
X168332419Y-64821628D02*
X168332419Y-64583533D01*
X168332419Y-64583533D02*
X168380038Y-64440676D01*
X168808609Y-64012104D02*
X168808609Y-63678771D01*
X169332419Y-63535914D02*
X169332419Y-64012104D01*
X169332419Y-64012104D02*
X168332419Y-64012104D01*
X168332419Y-64012104D02*
X168332419Y-63535914D01*
X169332419Y-63107342D02*
X168332419Y-63107342D01*
X168332419Y-63107342D02*
X169332419Y-62535914D01*
X169332419Y-62535914D02*
X168332419Y-62535914D01*
X169332419Y-62059723D02*
X168332419Y-62059723D01*
X168332419Y-62059723D02*
X168332419Y-61821628D01*
X168332419Y-61821628D02*
X168380038Y-61678771D01*
X168380038Y-61678771D02*
X168475276Y-61583533D01*
X168475276Y-61583533D02*
X168570514Y-61535914D01*
X168570514Y-61535914D02*
X168760990Y-61488295D01*
X168760990Y-61488295D02*
X168903847Y-61488295D01*
X168903847Y-61488295D02*
X169094323Y-61535914D01*
X169094323Y-61535914D02*
X169189561Y-61583533D01*
X169189561Y-61583533D02*
X169284800Y-61678771D01*
X169284800Y-61678771D02*
X169332419Y-61821628D01*
X169332419Y-61821628D02*
X169332419Y-62059723D01*
D12*
X185138095Y-129357380D02*
X185090476Y-129405000D01*
X185090476Y-129405000D02*
X184947619Y-129452619D01*
X184947619Y-129452619D02*
X184852381Y-129452619D01*
X184852381Y-129452619D02*
X184709524Y-129405000D01*
X184709524Y-129405000D02*
X184614286Y-129309761D01*
X184614286Y-129309761D02*
X184566667Y-129214523D01*
X184566667Y-129214523D02*
X184519048Y-129024047D01*
X184519048Y-129024047D02*
X184519048Y-128881190D01*
X184519048Y-128881190D02*
X184566667Y-128690714D01*
X184566667Y-128690714D02*
X184614286Y-128595476D01*
X184614286Y-128595476D02*
X184709524Y-128500238D01*
X184709524Y-128500238D02*
X184852381Y-128452619D01*
X184852381Y-128452619D02*
X184947619Y-128452619D01*
X184947619Y-128452619D02*
X185090476Y-128500238D01*
X185090476Y-128500238D02*
X185138095Y-128547857D01*
X185519048Y-129166904D02*
X185995238Y-129166904D01*
X185423810Y-129452619D02*
X185757143Y-128452619D01*
X185757143Y-128452619D02*
X186090476Y-129452619D01*
X186423810Y-129452619D02*
X186423810Y-128452619D01*
X186423810Y-128452619D02*
X186995238Y-129452619D01*
X186995238Y-129452619D02*
X186995238Y-128452619D01*
X187471429Y-129071666D02*
X188233334Y-129071666D01*
X189042857Y-128928809D02*
X189185714Y-128976428D01*
X189185714Y-128976428D02*
X189233333Y-129024047D01*
X189233333Y-129024047D02*
X189280952Y-129119285D01*
X189280952Y-129119285D02*
X189280952Y-129262142D01*
X189280952Y-129262142D02*
X189233333Y-129357380D01*
X189233333Y-129357380D02*
X189185714Y-129405000D01*
X189185714Y-129405000D02*
X189090476Y-129452619D01*
X189090476Y-129452619D02*
X188709524Y-129452619D01*
X188709524Y-129452619D02*
X188709524Y-128452619D01*
X188709524Y-128452619D02*
X189042857Y-128452619D01*
X189042857Y-128452619D02*
X189138095Y-128500238D01*
X189138095Y-128500238D02*
X189185714Y-128547857D01*
X189185714Y-128547857D02*
X189233333Y-128643095D01*
X189233333Y-128643095D02*
X189233333Y-128738333D01*
X189233333Y-128738333D02*
X189185714Y-128833571D01*
X189185714Y-128833571D02*
X189138095Y-128881190D01*
X189138095Y-128881190D02*
X189042857Y-128928809D01*
X189042857Y-128928809D02*
X188709524Y-128928809D01*
X189709524Y-128452619D02*
X189709524Y-129262142D01*
X189709524Y-129262142D02*
X189757143Y-129357380D01*
X189757143Y-129357380D02*
X189804762Y-129405000D01*
X189804762Y-129405000D02*
X189900000Y-129452619D01*
X189900000Y-129452619D02*
X190090476Y-129452619D01*
X190090476Y-129452619D02*
X190185714Y-129405000D01*
X190185714Y-129405000D02*
X190233333Y-129357380D01*
X190233333Y-129357380D02*
X190280952Y-129262142D01*
X190280952Y-129262142D02*
X190280952Y-128452619D01*
X190709524Y-129405000D02*
X190852381Y-129452619D01*
X190852381Y-129452619D02*
X191090476Y-129452619D01*
X191090476Y-129452619D02*
X191185714Y-129405000D01*
X191185714Y-129405000D02*
X191233333Y-129357380D01*
X191233333Y-129357380D02*
X191280952Y-129262142D01*
X191280952Y-129262142D02*
X191280952Y-129166904D01*
X191280952Y-129166904D02*
X191233333Y-129071666D01*
X191233333Y-129071666D02*
X191185714Y-129024047D01*
X191185714Y-129024047D02*
X191090476Y-128976428D01*
X191090476Y-128976428D02*
X190900000Y-128928809D01*
X190900000Y-128928809D02*
X190804762Y-128881190D01*
X190804762Y-128881190D02*
X190757143Y-128833571D01*
X190757143Y-128833571D02*
X190709524Y-128738333D01*
X190709524Y-128738333D02*
X190709524Y-128643095D01*
X190709524Y-128643095D02*
X190757143Y-128547857D01*
X190757143Y-128547857D02*
X190804762Y-128500238D01*
X190804762Y-128500238D02*
X190900000Y-128452619D01*
X190900000Y-128452619D02*
X191138095Y-128452619D01*
X191138095Y-128452619D02*
X191280952Y-128500238D01*
X180233333Y-130072619D02*
X180804761Y-130072619D01*
X180519047Y-131072619D02*
X180519047Y-130072619D01*
X181519047Y-131025000D02*
X181423809Y-131072619D01*
X181423809Y-131072619D02*
X181233333Y-131072619D01*
X181233333Y-131072619D02*
X181138095Y-131025000D01*
X181138095Y-131025000D02*
X181090476Y-130929761D01*
X181090476Y-130929761D02*
X181090476Y-130548809D01*
X181090476Y-130548809D02*
X181138095Y-130453571D01*
X181138095Y-130453571D02*
X181233333Y-130405952D01*
X181233333Y-130405952D02*
X181423809Y-130405952D01*
X181423809Y-130405952D02*
X181519047Y-130453571D01*
X181519047Y-130453571D02*
X181566666Y-130548809D01*
X181566666Y-130548809D02*
X181566666Y-130644047D01*
X181566666Y-130644047D02*
X181090476Y-130739285D01*
X181995238Y-131072619D02*
X181995238Y-130405952D01*
X181995238Y-130596428D02*
X182042857Y-130501190D01*
X182042857Y-130501190D02*
X182090476Y-130453571D01*
X182090476Y-130453571D02*
X182185714Y-130405952D01*
X182185714Y-130405952D02*
X182280952Y-130405952D01*
X182614286Y-131072619D02*
X182614286Y-130405952D01*
X182614286Y-130501190D02*
X182661905Y-130453571D01*
X182661905Y-130453571D02*
X182757143Y-130405952D01*
X182757143Y-130405952D02*
X182900000Y-130405952D01*
X182900000Y-130405952D02*
X182995238Y-130453571D01*
X182995238Y-130453571D02*
X183042857Y-130548809D01*
X183042857Y-130548809D02*
X183042857Y-131072619D01*
X183042857Y-130548809D02*
X183090476Y-130453571D01*
X183090476Y-130453571D02*
X183185714Y-130405952D01*
X183185714Y-130405952D02*
X183328571Y-130405952D01*
X183328571Y-130405952D02*
X183423810Y-130453571D01*
X183423810Y-130453571D02*
X183471429Y-130548809D01*
X183471429Y-130548809D02*
X183471429Y-131072619D01*
X183947619Y-131072619D02*
X183947619Y-130405952D01*
X183947619Y-130072619D02*
X183900000Y-130120238D01*
X183900000Y-130120238D02*
X183947619Y-130167857D01*
X183947619Y-130167857D02*
X183995238Y-130120238D01*
X183995238Y-130120238D02*
X183947619Y-130072619D01*
X183947619Y-130072619D02*
X183947619Y-130167857D01*
X184423809Y-130405952D02*
X184423809Y-131072619D01*
X184423809Y-130501190D02*
X184471428Y-130453571D01*
X184471428Y-130453571D02*
X184566666Y-130405952D01*
X184566666Y-130405952D02*
X184709523Y-130405952D01*
X184709523Y-130405952D02*
X184804761Y-130453571D01*
X184804761Y-130453571D02*
X184852380Y-130548809D01*
X184852380Y-130548809D02*
X184852380Y-131072619D01*
X185757142Y-131072619D02*
X185757142Y-130548809D01*
X185757142Y-130548809D02*
X185709523Y-130453571D01*
X185709523Y-130453571D02*
X185614285Y-130405952D01*
X185614285Y-130405952D02*
X185423809Y-130405952D01*
X185423809Y-130405952D02*
X185328571Y-130453571D01*
X185757142Y-131025000D02*
X185661904Y-131072619D01*
X185661904Y-131072619D02*
X185423809Y-131072619D01*
X185423809Y-131072619D02*
X185328571Y-131025000D01*
X185328571Y-131025000D02*
X185280952Y-130929761D01*
X185280952Y-130929761D02*
X185280952Y-130834523D01*
X185280952Y-130834523D02*
X185328571Y-130739285D01*
X185328571Y-130739285D02*
X185423809Y-130691666D01*
X185423809Y-130691666D02*
X185661904Y-130691666D01*
X185661904Y-130691666D02*
X185757142Y-130644047D01*
X186090476Y-130405952D02*
X186471428Y-130405952D01*
X186233333Y-130072619D02*
X186233333Y-130929761D01*
X186233333Y-130929761D02*
X186280952Y-131025000D01*
X186280952Y-131025000D02*
X186376190Y-131072619D01*
X186376190Y-131072619D02*
X186471428Y-131072619D01*
X186804762Y-131072619D02*
X186804762Y-130405952D01*
X186804762Y-130072619D02*
X186757143Y-130120238D01*
X186757143Y-130120238D02*
X186804762Y-130167857D01*
X186804762Y-130167857D02*
X186852381Y-130120238D01*
X186852381Y-130120238D02*
X186804762Y-130072619D01*
X186804762Y-130072619D02*
X186804762Y-130167857D01*
X187423809Y-131072619D02*
X187328571Y-131025000D01*
X187328571Y-131025000D02*
X187280952Y-130977380D01*
X187280952Y-130977380D02*
X187233333Y-130882142D01*
X187233333Y-130882142D02*
X187233333Y-130596428D01*
X187233333Y-130596428D02*
X187280952Y-130501190D01*
X187280952Y-130501190D02*
X187328571Y-130453571D01*
X187328571Y-130453571D02*
X187423809Y-130405952D01*
X187423809Y-130405952D02*
X187566666Y-130405952D01*
X187566666Y-130405952D02*
X187661904Y-130453571D01*
X187661904Y-130453571D02*
X187709523Y-130501190D01*
X187709523Y-130501190D02*
X187757142Y-130596428D01*
X187757142Y-130596428D02*
X187757142Y-130882142D01*
X187757142Y-130882142D02*
X187709523Y-130977380D01*
X187709523Y-130977380D02*
X187661904Y-131025000D01*
X187661904Y-131025000D02*
X187566666Y-131072619D01*
X187566666Y-131072619D02*
X187423809Y-131072619D01*
X188185714Y-130405952D02*
X188185714Y-131072619D01*
X188185714Y-130501190D02*
X188233333Y-130453571D01*
X188233333Y-130453571D02*
X188328571Y-130405952D01*
X188328571Y-130405952D02*
X188471428Y-130405952D01*
X188471428Y-130405952D02*
X188566666Y-130453571D01*
X188566666Y-130453571D02*
X188614285Y-130548809D01*
X188614285Y-130548809D02*
X188614285Y-131072619D01*
X190423809Y-131072619D02*
X190090476Y-130596428D01*
X189852381Y-131072619D02*
X189852381Y-130072619D01*
X189852381Y-130072619D02*
X190233333Y-130072619D01*
X190233333Y-130072619D02*
X190328571Y-130120238D01*
X190328571Y-130120238D02*
X190376190Y-130167857D01*
X190376190Y-130167857D02*
X190423809Y-130263095D01*
X190423809Y-130263095D02*
X190423809Y-130405952D01*
X190423809Y-130405952D02*
X190376190Y-130501190D01*
X190376190Y-130501190D02*
X190328571Y-130548809D01*
X190328571Y-130548809D02*
X190233333Y-130596428D01*
X190233333Y-130596428D02*
X189852381Y-130596428D01*
X191233333Y-131025000D02*
X191138095Y-131072619D01*
X191138095Y-131072619D02*
X190947619Y-131072619D01*
X190947619Y-131072619D02*
X190852381Y-131025000D01*
X190852381Y-131025000D02*
X190804762Y-130929761D01*
X190804762Y-130929761D02*
X190804762Y-130548809D01*
X190804762Y-130548809D02*
X190852381Y-130453571D01*
X190852381Y-130453571D02*
X190947619Y-130405952D01*
X190947619Y-130405952D02*
X191138095Y-130405952D01*
X191138095Y-130405952D02*
X191233333Y-130453571D01*
X191233333Y-130453571D02*
X191280952Y-130548809D01*
X191280952Y-130548809D02*
X191280952Y-130644047D01*
X191280952Y-130644047D02*
X190804762Y-130739285D01*
X191661905Y-131025000D02*
X191757143Y-131072619D01*
X191757143Y-131072619D02*
X191947619Y-131072619D01*
X191947619Y-131072619D02*
X192042857Y-131025000D01*
X192042857Y-131025000D02*
X192090476Y-130929761D01*
X192090476Y-130929761D02*
X192090476Y-130882142D01*
X192090476Y-130882142D02*
X192042857Y-130786904D01*
X192042857Y-130786904D02*
X191947619Y-130739285D01*
X191947619Y-130739285D02*
X191804762Y-130739285D01*
X191804762Y-130739285D02*
X191709524Y-130691666D01*
X191709524Y-130691666D02*
X191661905Y-130596428D01*
X191661905Y-130596428D02*
X191661905Y-130548809D01*
X191661905Y-130548809D02*
X191709524Y-130453571D01*
X191709524Y-130453571D02*
X191804762Y-130405952D01*
X191804762Y-130405952D02*
X191947619Y-130405952D01*
X191947619Y-130405952D02*
X192042857Y-130453571D01*
X192519048Y-131072619D02*
X192519048Y-130405952D01*
X192519048Y-130072619D02*
X192471429Y-130120238D01*
X192471429Y-130120238D02*
X192519048Y-130167857D01*
X192519048Y-130167857D02*
X192566667Y-130120238D01*
X192566667Y-130120238D02*
X192519048Y-130072619D01*
X192519048Y-130072619D02*
X192519048Y-130167857D01*
X192947619Y-131025000D02*
X193042857Y-131072619D01*
X193042857Y-131072619D02*
X193233333Y-131072619D01*
X193233333Y-131072619D02*
X193328571Y-131025000D01*
X193328571Y-131025000D02*
X193376190Y-130929761D01*
X193376190Y-130929761D02*
X193376190Y-130882142D01*
X193376190Y-130882142D02*
X193328571Y-130786904D01*
X193328571Y-130786904D02*
X193233333Y-130739285D01*
X193233333Y-130739285D02*
X193090476Y-130739285D01*
X193090476Y-130739285D02*
X192995238Y-130691666D01*
X192995238Y-130691666D02*
X192947619Y-130596428D01*
X192947619Y-130596428D02*
X192947619Y-130548809D01*
X192947619Y-130548809D02*
X192995238Y-130453571D01*
X192995238Y-130453571D02*
X193090476Y-130405952D01*
X193090476Y-130405952D02*
X193233333Y-130405952D01*
X193233333Y-130405952D02*
X193328571Y-130453571D01*
X193661905Y-130405952D02*
X194042857Y-130405952D01*
X193804762Y-130072619D02*
X193804762Y-130929761D01*
X193804762Y-130929761D02*
X193852381Y-131025000D01*
X193852381Y-131025000D02*
X193947619Y-131072619D01*
X193947619Y-131072619D02*
X194042857Y-131072619D01*
X194519048Y-131072619D02*
X194423810Y-131025000D01*
X194423810Y-131025000D02*
X194376191Y-130977380D01*
X194376191Y-130977380D02*
X194328572Y-130882142D01*
X194328572Y-130882142D02*
X194328572Y-130596428D01*
X194328572Y-130596428D02*
X194376191Y-130501190D01*
X194376191Y-130501190D02*
X194423810Y-130453571D01*
X194423810Y-130453571D02*
X194519048Y-130405952D01*
X194519048Y-130405952D02*
X194661905Y-130405952D01*
X194661905Y-130405952D02*
X194757143Y-130453571D01*
X194757143Y-130453571D02*
X194804762Y-130501190D01*
X194804762Y-130501190D02*
X194852381Y-130596428D01*
X194852381Y-130596428D02*
X194852381Y-130882142D01*
X194852381Y-130882142D02*
X194804762Y-130977380D01*
X194804762Y-130977380D02*
X194757143Y-131025000D01*
X194757143Y-131025000D02*
X194661905Y-131072619D01*
X194661905Y-131072619D02*
X194519048Y-131072619D01*
X195280953Y-131072619D02*
X195280953Y-130405952D01*
X195280953Y-130596428D02*
X195328572Y-130501190D01*
X195328572Y-130501190D02*
X195376191Y-130453571D01*
X195376191Y-130453571D02*
X195471429Y-130405952D01*
X195471429Y-130405952D02*
X195566667Y-130405952D01*
D11*
%TO.C,C2*%
X170683333Y-119066812D02*
X170635714Y-119114432D01*
X170635714Y-119114432D02*
X170492857Y-119162051D01*
X170492857Y-119162051D02*
X170397619Y-119162051D01*
X170397619Y-119162051D02*
X170254762Y-119114432D01*
X170254762Y-119114432D02*
X170159524Y-119019193D01*
X170159524Y-119019193D02*
X170111905Y-118923955D01*
X170111905Y-118923955D02*
X170064286Y-118733479D01*
X170064286Y-118733479D02*
X170064286Y-118590622D01*
X170064286Y-118590622D02*
X170111905Y-118400146D01*
X170111905Y-118400146D02*
X170159524Y-118304908D01*
X170159524Y-118304908D02*
X170254762Y-118209670D01*
X170254762Y-118209670D02*
X170397619Y-118162051D01*
X170397619Y-118162051D02*
X170492857Y-118162051D01*
X170492857Y-118162051D02*
X170635714Y-118209670D01*
X170635714Y-118209670D02*
X170683333Y-118257289D01*
X171064286Y-118257289D02*
X171111905Y-118209670D01*
X171111905Y-118209670D02*
X171207143Y-118162051D01*
X171207143Y-118162051D02*
X171445238Y-118162051D01*
X171445238Y-118162051D02*
X171540476Y-118209670D01*
X171540476Y-118209670D02*
X171588095Y-118257289D01*
X171588095Y-118257289D02*
X171635714Y-118352527D01*
X171635714Y-118352527D02*
X171635714Y-118447765D01*
X171635714Y-118447765D02*
X171588095Y-118590622D01*
X171588095Y-118590622D02*
X171016667Y-119162051D01*
X171016667Y-119162051D02*
X171635714Y-119162051D01*
%TO.C,C3*%
X182038133Y-128617580D02*
X181990514Y-128665200D01*
X181990514Y-128665200D02*
X181847657Y-128712819D01*
X181847657Y-128712819D02*
X181752419Y-128712819D01*
X181752419Y-128712819D02*
X181609562Y-128665200D01*
X181609562Y-128665200D02*
X181514324Y-128569961D01*
X181514324Y-128569961D02*
X181466705Y-128474723D01*
X181466705Y-128474723D02*
X181419086Y-128284247D01*
X181419086Y-128284247D02*
X181419086Y-128141390D01*
X181419086Y-128141390D02*
X181466705Y-127950914D01*
X181466705Y-127950914D02*
X181514324Y-127855676D01*
X181514324Y-127855676D02*
X181609562Y-127760438D01*
X181609562Y-127760438D02*
X181752419Y-127712819D01*
X181752419Y-127712819D02*
X181847657Y-127712819D01*
X181847657Y-127712819D02*
X181990514Y-127760438D01*
X181990514Y-127760438D02*
X182038133Y-127808057D01*
X182371467Y-127712819D02*
X182990514Y-127712819D01*
X182990514Y-127712819D02*
X182657181Y-128093771D01*
X182657181Y-128093771D02*
X182800038Y-128093771D01*
X182800038Y-128093771D02*
X182895276Y-128141390D01*
X182895276Y-128141390D02*
X182942895Y-128189009D01*
X182942895Y-128189009D02*
X182990514Y-128284247D01*
X182990514Y-128284247D02*
X182990514Y-128522342D01*
X182990514Y-128522342D02*
X182942895Y-128617580D01*
X182942895Y-128617580D02*
X182895276Y-128665200D01*
X182895276Y-128665200D02*
X182800038Y-128712819D01*
X182800038Y-128712819D02*
X182514324Y-128712819D01*
X182514324Y-128712819D02*
X182419086Y-128665200D01*
X182419086Y-128665200D02*
X182371467Y-128617580D01*
%TO.C,R4*%
X181038133Y-85837819D02*
X180704800Y-85361628D01*
X180466705Y-85837819D02*
X180466705Y-84837819D01*
X180466705Y-84837819D02*
X180847657Y-84837819D01*
X180847657Y-84837819D02*
X180942895Y-84885438D01*
X180942895Y-84885438D02*
X180990514Y-84933057D01*
X180990514Y-84933057D02*
X181038133Y-85028295D01*
X181038133Y-85028295D02*
X181038133Y-85171152D01*
X181038133Y-85171152D02*
X180990514Y-85266390D01*
X180990514Y-85266390D02*
X180942895Y-85314009D01*
X180942895Y-85314009D02*
X180847657Y-85361628D01*
X180847657Y-85361628D02*
X180466705Y-85361628D01*
X181895276Y-85171152D02*
X181895276Y-85837819D01*
X181657181Y-84790200D02*
X181419086Y-85504485D01*
X181419086Y-85504485D02*
X182038133Y-85504485D01*
%TO.C,C1*%
X191788133Y-89867580D02*
X191740514Y-89915200D01*
X191740514Y-89915200D02*
X191597657Y-89962819D01*
X191597657Y-89962819D02*
X191502419Y-89962819D01*
X191502419Y-89962819D02*
X191359562Y-89915200D01*
X191359562Y-89915200D02*
X191264324Y-89819961D01*
X191264324Y-89819961D02*
X191216705Y-89724723D01*
X191216705Y-89724723D02*
X191169086Y-89534247D01*
X191169086Y-89534247D02*
X191169086Y-89391390D01*
X191169086Y-89391390D02*
X191216705Y-89200914D01*
X191216705Y-89200914D02*
X191264324Y-89105676D01*
X191264324Y-89105676D02*
X191359562Y-89010438D01*
X191359562Y-89010438D02*
X191502419Y-88962819D01*
X191502419Y-88962819D02*
X191597657Y-88962819D01*
X191597657Y-88962819D02*
X191740514Y-89010438D01*
X191740514Y-89010438D02*
X191788133Y-89058057D01*
X192740514Y-89962819D02*
X192169086Y-89962819D01*
X192454800Y-89962819D02*
X192454800Y-88962819D01*
X192454800Y-88962819D02*
X192359562Y-89105676D01*
X192359562Y-89105676D02*
X192264324Y-89200914D01*
X192264324Y-89200914D02*
X192169086Y-89248533D01*
%TO.C,C6*%
X174320833Y-107566812D02*
X174273214Y-107614432D01*
X174273214Y-107614432D02*
X174130357Y-107662051D01*
X174130357Y-107662051D02*
X174035119Y-107662051D01*
X174035119Y-107662051D02*
X173892262Y-107614432D01*
X173892262Y-107614432D02*
X173797024Y-107519193D01*
X173797024Y-107519193D02*
X173749405Y-107423955D01*
X173749405Y-107423955D02*
X173701786Y-107233479D01*
X173701786Y-107233479D02*
X173701786Y-107090622D01*
X173701786Y-107090622D02*
X173749405Y-106900146D01*
X173749405Y-106900146D02*
X173797024Y-106804908D01*
X173797024Y-106804908D02*
X173892262Y-106709670D01*
X173892262Y-106709670D02*
X174035119Y-106662051D01*
X174035119Y-106662051D02*
X174130357Y-106662051D01*
X174130357Y-106662051D02*
X174273214Y-106709670D01*
X174273214Y-106709670D02*
X174320833Y-106757289D01*
X175177976Y-106662051D02*
X174987500Y-106662051D01*
X174987500Y-106662051D02*
X174892262Y-106709670D01*
X174892262Y-106709670D02*
X174844643Y-106757289D01*
X174844643Y-106757289D02*
X174749405Y-106900146D01*
X174749405Y-106900146D02*
X174701786Y-107090622D01*
X174701786Y-107090622D02*
X174701786Y-107471574D01*
X174701786Y-107471574D02*
X174749405Y-107566812D01*
X174749405Y-107566812D02*
X174797024Y-107614432D01*
X174797024Y-107614432D02*
X174892262Y-107662051D01*
X174892262Y-107662051D02*
X175082738Y-107662051D01*
X175082738Y-107662051D02*
X175177976Y-107614432D01*
X175177976Y-107614432D02*
X175225595Y-107566812D01*
X175225595Y-107566812D02*
X175273214Y-107471574D01*
X175273214Y-107471574D02*
X175273214Y-107233479D01*
X175273214Y-107233479D02*
X175225595Y-107138241D01*
X175225595Y-107138241D02*
X175177976Y-107090622D01*
X175177976Y-107090622D02*
X175082738Y-107043003D01*
X175082738Y-107043003D02*
X174892262Y-107043003D01*
X174892262Y-107043003D02*
X174797024Y-107090622D01*
X174797024Y-107090622D02*
X174749405Y-107138241D01*
X174749405Y-107138241D02*
X174701786Y-107233479D01*
%TO.C,C7*%
X187788133Y-89867580D02*
X187740514Y-89915200D01*
X187740514Y-89915200D02*
X187597657Y-89962819D01*
X187597657Y-89962819D02*
X187502419Y-89962819D01*
X187502419Y-89962819D02*
X187359562Y-89915200D01*
X187359562Y-89915200D02*
X187264324Y-89819961D01*
X187264324Y-89819961D02*
X187216705Y-89724723D01*
X187216705Y-89724723D02*
X187169086Y-89534247D01*
X187169086Y-89534247D02*
X187169086Y-89391390D01*
X187169086Y-89391390D02*
X187216705Y-89200914D01*
X187216705Y-89200914D02*
X187264324Y-89105676D01*
X187264324Y-89105676D02*
X187359562Y-89010438D01*
X187359562Y-89010438D02*
X187502419Y-88962819D01*
X187502419Y-88962819D02*
X187597657Y-88962819D01*
X187597657Y-88962819D02*
X187740514Y-89010438D01*
X187740514Y-89010438D02*
X187788133Y-89058057D01*
X188121467Y-88962819D02*
X188788133Y-88962819D01*
X188788133Y-88962819D02*
X188359562Y-89962819D01*
D10*
%TO.C,J1*%
X164643966Y-129352619D02*
X164643966Y-130066904D01*
X164643966Y-130066904D02*
X164596347Y-130209761D01*
X164596347Y-130209761D02*
X164501109Y-130305000D01*
X164501109Y-130305000D02*
X164358252Y-130352619D01*
X164358252Y-130352619D02*
X164263014Y-130352619D01*
X165643966Y-130352619D02*
X165072538Y-130352619D01*
X165358252Y-130352619D02*
X165358252Y-129352619D01*
X165358252Y-129352619D02*
X165263014Y-129495476D01*
X165263014Y-129495476D02*
X165167776Y-129590714D01*
X165167776Y-129590714D02*
X165072538Y-129638333D01*
D11*
%TO.C,U4*%
X161760119Y-59061904D02*
X162569642Y-59061904D01*
X162569642Y-59061904D02*
X162664880Y-59014285D01*
X162664880Y-59014285D02*
X162712500Y-58966666D01*
X162712500Y-58966666D02*
X162760119Y-58871428D01*
X162760119Y-58871428D02*
X162760119Y-58680952D01*
X162760119Y-58680952D02*
X162712500Y-58585714D01*
X162712500Y-58585714D02*
X162664880Y-58538095D01*
X162664880Y-58538095D02*
X162569642Y-58490476D01*
X162569642Y-58490476D02*
X161760119Y-58490476D01*
X162093452Y-57585714D02*
X162760119Y-57585714D01*
X161712500Y-57823809D02*
X162426785Y-58061904D01*
X162426785Y-58061904D02*
X162426785Y-57442857D01*
%TO.C,SW1*%
X134475000Y-65017764D02*
X134522619Y-64874907D01*
X134522619Y-64874907D02*
X134522619Y-64636812D01*
X134522619Y-64636812D02*
X134475000Y-64541574D01*
X134475000Y-64541574D02*
X134427380Y-64493955D01*
X134427380Y-64493955D02*
X134332142Y-64446336D01*
X134332142Y-64446336D02*
X134236904Y-64446336D01*
X134236904Y-64446336D02*
X134141666Y-64493955D01*
X134141666Y-64493955D02*
X134094047Y-64541574D01*
X134094047Y-64541574D02*
X134046428Y-64636812D01*
X134046428Y-64636812D02*
X133998809Y-64827288D01*
X133998809Y-64827288D02*
X133951190Y-64922526D01*
X133951190Y-64922526D02*
X133903571Y-64970145D01*
X133903571Y-64970145D02*
X133808333Y-65017764D01*
X133808333Y-65017764D02*
X133713095Y-65017764D01*
X133713095Y-65017764D02*
X133617857Y-64970145D01*
X133617857Y-64970145D02*
X133570238Y-64922526D01*
X133570238Y-64922526D02*
X133522619Y-64827288D01*
X133522619Y-64827288D02*
X133522619Y-64589193D01*
X133522619Y-64589193D02*
X133570238Y-64446336D01*
X133522619Y-64113002D02*
X134522619Y-63874907D01*
X134522619Y-63874907D02*
X133808333Y-63684431D01*
X133808333Y-63684431D02*
X134522619Y-63493955D01*
X134522619Y-63493955D02*
X133522619Y-63255860D01*
X134522619Y-62351098D02*
X134522619Y-62922526D01*
X134522619Y-62636812D02*
X133522619Y-62636812D01*
X133522619Y-62636812D02*
X133665476Y-62732050D01*
X133665476Y-62732050D02*
X133760714Y-62827288D01*
X133760714Y-62827288D02*
X133808333Y-62922526D01*
%TO.C,R6*%
X163788133Y-66462819D02*
X163454800Y-65986628D01*
X163216705Y-66462819D02*
X163216705Y-65462819D01*
X163216705Y-65462819D02*
X163597657Y-65462819D01*
X163597657Y-65462819D02*
X163692895Y-65510438D01*
X163692895Y-65510438D02*
X163740514Y-65558057D01*
X163740514Y-65558057D02*
X163788133Y-65653295D01*
X163788133Y-65653295D02*
X163788133Y-65796152D01*
X163788133Y-65796152D02*
X163740514Y-65891390D01*
X163740514Y-65891390D02*
X163692895Y-65939009D01*
X163692895Y-65939009D02*
X163597657Y-65986628D01*
X163597657Y-65986628D02*
X163216705Y-65986628D01*
X164645276Y-65462819D02*
X164454800Y-65462819D01*
X164454800Y-65462819D02*
X164359562Y-65510438D01*
X164359562Y-65510438D02*
X164311943Y-65558057D01*
X164311943Y-65558057D02*
X164216705Y-65700914D01*
X164216705Y-65700914D02*
X164169086Y-65891390D01*
X164169086Y-65891390D02*
X164169086Y-66272342D01*
X164169086Y-66272342D02*
X164216705Y-66367580D01*
X164216705Y-66367580D02*
X164264324Y-66415200D01*
X164264324Y-66415200D02*
X164359562Y-66462819D01*
X164359562Y-66462819D02*
X164550038Y-66462819D01*
X164550038Y-66462819D02*
X164645276Y-66415200D01*
X164645276Y-66415200D02*
X164692895Y-66367580D01*
X164692895Y-66367580D02*
X164740514Y-66272342D01*
X164740514Y-66272342D02*
X164740514Y-66034247D01*
X164740514Y-66034247D02*
X164692895Y-65939009D01*
X164692895Y-65939009D02*
X164645276Y-65891390D01*
X164645276Y-65891390D02*
X164550038Y-65843771D01*
X164550038Y-65843771D02*
X164359562Y-65843771D01*
X164359562Y-65843771D02*
X164264324Y-65891390D01*
X164264324Y-65891390D02*
X164216705Y-65939009D01*
X164216705Y-65939009D02*
X164169086Y-66034247D01*
%TO.C,U1*%
X195317419Y-123762104D02*
X196126942Y-123762104D01*
X196126942Y-123762104D02*
X196222180Y-123714485D01*
X196222180Y-123714485D02*
X196269800Y-123666866D01*
X196269800Y-123666866D02*
X196317419Y-123571628D01*
X196317419Y-123571628D02*
X196317419Y-123381152D01*
X196317419Y-123381152D02*
X196269800Y-123285914D01*
X196269800Y-123285914D02*
X196222180Y-123238295D01*
X196222180Y-123238295D02*
X196126942Y-123190676D01*
X196126942Y-123190676D02*
X195317419Y-123190676D01*
X196317419Y-122190676D02*
X196317419Y-122762104D01*
X196317419Y-122476390D02*
X195317419Y-122476390D01*
X195317419Y-122476390D02*
X195460276Y-122571628D01*
X195460276Y-122571628D02*
X195555514Y-122666866D01*
X195555514Y-122666866D02*
X195603133Y-122762104D01*
%TO.C,R7*%
X163788133Y-61462819D02*
X163454800Y-60986628D01*
X163216705Y-61462819D02*
X163216705Y-60462819D01*
X163216705Y-60462819D02*
X163597657Y-60462819D01*
X163597657Y-60462819D02*
X163692895Y-60510438D01*
X163692895Y-60510438D02*
X163740514Y-60558057D01*
X163740514Y-60558057D02*
X163788133Y-60653295D01*
X163788133Y-60653295D02*
X163788133Y-60796152D01*
X163788133Y-60796152D02*
X163740514Y-60891390D01*
X163740514Y-60891390D02*
X163692895Y-60939009D01*
X163692895Y-60939009D02*
X163597657Y-60986628D01*
X163597657Y-60986628D02*
X163216705Y-60986628D01*
X164121467Y-60462819D02*
X164788133Y-60462819D01*
X164788133Y-60462819D02*
X164359562Y-61462819D01*
%TO.C,TP1*%
X170638095Y-130662051D02*
X171209523Y-130662051D01*
X170923809Y-131662051D02*
X170923809Y-130662051D01*
X171542857Y-131662051D02*
X171542857Y-130662051D01*
X171542857Y-130662051D02*
X171923809Y-130662051D01*
X171923809Y-130662051D02*
X172019047Y-130709670D01*
X172019047Y-130709670D02*
X172066666Y-130757289D01*
X172066666Y-130757289D02*
X172114285Y-130852527D01*
X172114285Y-130852527D02*
X172114285Y-130995384D01*
X172114285Y-130995384D02*
X172066666Y-131090622D01*
X172066666Y-131090622D02*
X172019047Y-131138241D01*
X172019047Y-131138241D02*
X171923809Y-131185860D01*
X171923809Y-131185860D02*
X171542857Y-131185860D01*
X173066666Y-131662051D02*
X172495238Y-131662051D01*
X172780952Y-131662051D02*
X172780952Y-130662051D01*
X172780952Y-130662051D02*
X172685714Y-130804908D01*
X172685714Y-130804908D02*
X172590476Y-130900146D01*
X172590476Y-130900146D02*
X172495238Y-130947765D01*
%TO.C,C4*%
X182288133Y-118867580D02*
X182240514Y-118915200D01*
X182240514Y-118915200D02*
X182097657Y-118962819D01*
X182097657Y-118962819D02*
X182002419Y-118962819D01*
X182002419Y-118962819D02*
X181859562Y-118915200D01*
X181859562Y-118915200D02*
X181764324Y-118819961D01*
X181764324Y-118819961D02*
X181716705Y-118724723D01*
X181716705Y-118724723D02*
X181669086Y-118534247D01*
X181669086Y-118534247D02*
X181669086Y-118391390D01*
X181669086Y-118391390D02*
X181716705Y-118200914D01*
X181716705Y-118200914D02*
X181764324Y-118105676D01*
X181764324Y-118105676D02*
X181859562Y-118010438D01*
X181859562Y-118010438D02*
X182002419Y-117962819D01*
X182002419Y-117962819D02*
X182097657Y-117962819D01*
X182097657Y-117962819D02*
X182240514Y-118010438D01*
X182240514Y-118010438D02*
X182288133Y-118058057D01*
X183145276Y-118296152D02*
X183145276Y-118962819D01*
X182907181Y-117915200D02*
X182669086Y-118629485D01*
X182669086Y-118629485D02*
X183288133Y-118629485D01*
%TO.C,C5*%
X181708133Y-113657580D02*
X181660514Y-113705200D01*
X181660514Y-113705200D02*
X181517657Y-113752819D01*
X181517657Y-113752819D02*
X181422419Y-113752819D01*
X181422419Y-113752819D02*
X181279562Y-113705200D01*
X181279562Y-113705200D02*
X181184324Y-113609961D01*
X181184324Y-113609961D02*
X181136705Y-113514723D01*
X181136705Y-113514723D02*
X181089086Y-113324247D01*
X181089086Y-113324247D02*
X181089086Y-113181390D01*
X181089086Y-113181390D02*
X181136705Y-112990914D01*
X181136705Y-112990914D02*
X181184324Y-112895676D01*
X181184324Y-112895676D02*
X181279562Y-112800438D01*
X181279562Y-112800438D02*
X181422419Y-112752819D01*
X181422419Y-112752819D02*
X181517657Y-112752819D01*
X181517657Y-112752819D02*
X181660514Y-112800438D01*
X181660514Y-112800438D02*
X181708133Y-112848057D01*
X182612895Y-112752819D02*
X182136705Y-112752819D01*
X182136705Y-112752819D02*
X182089086Y-113229009D01*
X182089086Y-113229009D02*
X182136705Y-113181390D01*
X182136705Y-113181390D02*
X182231943Y-113133771D01*
X182231943Y-113133771D02*
X182470038Y-113133771D01*
X182470038Y-113133771D02*
X182565276Y-113181390D01*
X182565276Y-113181390D02*
X182612895Y-113229009D01*
X182612895Y-113229009D02*
X182660514Y-113324247D01*
X182660514Y-113324247D02*
X182660514Y-113562342D01*
X182660514Y-113562342D02*
X182612895Y-113657580D01*
X182612895Y-113657580D02*
X182565276Y-113705200D01*
X182565276Y-113705200D02*
X182470038Y-113752819D01*
X182470038Y-113752819D02*
X182231943Y-113752819D01*
X182231943Y-113752819D02*
X182136705Y-113705200D01*
X182136705Y-113705200D02*
X182089086Y-113657580D01*
%TO.C,TP2*%
X167738095Y-125162051D02*
X168309523Y-125162051D01*
X168023809Y-126162051D02*
X168023809Y-125162051D01*
X168642857Y-126162051D02*
X168642857Y-125162051D01*
X168642857Y-125162051D02*
X169023809Y-125162051D01*
X169023809Y-125162051D02*
X169119047Y-125209670D01*
X169119047Y-125209670D02*
X169166666Y-125257289D01*
X169166666Y-125257289D02*
X169214285Y-125352527D01*
X169214285Y-125352527D02*
X169214285Y-125495384D01*
X169214285Y-125495384D02*
X169166666Y-125590622D01*
X169166666Y-125590622D02*
X169119047Y-125638241D01*
X169119047Y-125638241D02*
X169023809Y-125685860D01*
X169023809Y-125685860D02*
X168642857Y-125685860D01*
X169595238Y-125257289D02*
X169642857Y-125209670D01*
X169642857Y-125209670D02*
X169738095Y-125162051D01*
X169738095Y-125162051D02*
X169976190Y-125162051D01*
X169976190Y-125162051D02*
X170071428Y-125209670D01*
X170071428Y-125209670D02*
X170119047Y-125257289D01*
X170119047Y-125257289D02*
X170166666Y-125352527D01*
X170166666Y-125352527D02*
X170166666Y-125447765D01*
X170166666Y-125447765D02*
X170119047Y-125590622D01*
X170119047Y-125590622D02*
X169547619Y-126162051D01*
X169547619Y-126162051D02*
X170166666Y-126162051D01*
%TO.C,C8*%
X178833333Y-98966812D02*
X178785714Y-99014432D01*
X178785714Y-99014432D02*
X178642857Y-99062051D01*
X178642857Y-99062051D02*
X178547619Y-99062051D01*
X178547619Y-99062051D02*
X178404762Y-99014432D01*
X178404762Y-99014432D02*
X178309524Y-98919193D01*
X178309524Y-98919193D02*
X178261905Y-98823955D01*
X178261905Y-98823955D02*
X178214286Y-98633479D01*
X178214286Y-98633479D02*
X178214286Y-98490622D01*
X178214286Y-98490622D02*
X178261905Y-98300146D01*
X178261905Y-98300146D02*
X178309524Y-98204908D01*
X178309524Y-98204908D02*
X178404762Y-98109670D01*
X178404762Y-98109670D02*
X178547619Y-98062051D01*
X178547619Y-98062051D02*
X178642857Y-98062051D01*
X178642857Y-98062051D02*
X178785714Y-98109670D01*
X178785714Y-98109670D02*
X178833333Y-98157289D01*
X179404762Y-98490622D02*
X179309524Y-98443003D01*
X179309524Y-98443003D02*
X179261905Y-98395384D01*
X179261905Y-98395384D02*
X179214286Y-98300146D01*
X179214286Y-98300146D02*
X179214286Y-98252527D01*
X179214286Y-98252527D02*
X179261905Y-98157289D01*
X179261905Y-98157289D02*
X179309524Y-98109670D01*
X179309524Y-98109670D02*
X179404762Y-98062051D01*
X179404762Y-98062051D02*
X179595238Y-98062051D01*
X179595238Y-98062051D02*
X179690476Y-98109670D01*
X179690476Y-98109670D02*
X179738095Y-98157289D01*
X179738095Y-98157289D02*
X179785714Y-98252527D01*
X179785714Y-98252527D02*
X179785714Y-98300146D01*
X179785714Y-98300146D02*
X179738095Y-98395384D01*
X179738095Y-98395384D02*
X179690476Y-98443003D01*
X179690476Y-98443003D02*
X179595238Y-98490622D01*
X179595238Y-98490622D02*
X179404762Y-98490622D01*
X179404762Y-98490622D02*
X179309524Y-98538241D01*
X179309524Y-98538241D02*
X179261905Y-98585860D01*
X179261905Y-98585860D02*
X179214286Y-98681098D01*
X179214286Y-98681098D02*
X179214286Y-98871574D01*
X179214286Y-98871574D02*
X179261905Y-98966812D01*
X179261905Y-98966812D02*
X179309524Y-99014432D01*
X179309524Y-99014432D02*
X179404762Y-99062051D01*
X179404762Y-99062051D02*
X179595238Y-99062051D01*
X179595238Y-99062051D02*
X179690476Y-99014432D01*
X179690476Y-99014432D02*
X179738095Y-98966812D01*
X179738095Y-98966812D02*
X179785714Y-98871574D01*
X179785714Y-98871574D02*
X179785714Y-98681098D01*
X179785714Y-98681098D02*
X179738095Y-98585860D01*
X179738095Y-98585860D02*
X179690476Y-98538241D01*
X179690476Y-98538241D02*
X179595238Y-98490622D01*
%TO.C,D1*%
X177629205Y-120087819D02*
X177629205Y-119087819D01*
X177629205Y-119087819D02*
X177867300Y-119087819D01*
X177867300Y-119087819D02*
X178010157Y-119135438D01*
X178010157Y-119135438D02*
X178105395Y-119230676D01*
X178105395Y-119230676D02*
X178153014Y-119325914D01*
X178153014Y-119325914D02*
X178200633Y-119516390D01*
X178200633Y-119516390D02*
X178200633Y-119659247D01*
X178200633Y-119659247D02*
X178153014Y-119849723D01*
X178153014Y-119849723D02*
X178105395Y-119944961D01*
X178105395Y-119944961D02*
X178010157Y-120040200D01*
X178010157Y-120040200D02*
X177867300Y-120087819D01*
X177867300Y-120087819D02*
X177629205Y-120087819D01*
X179153014Y-120087819D02*
X178581586Y-120087819D01*
X178867300Y-120087819D02*
X178867300Y-119087819D01*
X178867300Y-119087819D02*
X178772062Y-119230676D01*
X178772062Y-119230676D02*
X178676824Y-119325914D01*
X178676824Y-119325914D02*
X178581586Y-119373533D01*
%TO.C,D2*%
X174161905Y-89712819D02*
X174161905Y-88712819D01*
X174161905Y-88712819D02*
X174400000Y-88712819D01*
X174400000Y-88712819D02*
X174542857Y-88760438D01*
X174542857Y-88760438D02*
X174638095Y-88855676D01*
X174638095Y-88855676D02*
X174685714Y-88950914D01*
X174685714Y-88950914D02*
X174733333Y-89141390D01*
X174733333Y-89141390D02*
X174733333Y-89284247D01*
X174733333Y-89284247D02*
X174685714Y-89474723D01*
X174685714Y-89474723D02*
X174638095Y-89569961D01*
X174638095Y-89569961D02*
X174542857Y-89665200D01*
X174542857Y-89665200D02*
X174400000Y-89712819D01*
X174400000Y-89712819D02*
X174161905Y-89712819D01*
X175114286Y-88808057D02*
X175161905Y-88760438D01*
X175161905Y-88760438D02*
X175257143Y-88712819D01*
X175257143Y-88712819D02*
X175495238Y-88712819D01*
X175495238Y-88712819D02*
X175590476Y-88760438D01*
X175590476Y-88760438D02*
X175638095Y-88808057D01*
X175638095Y-88808057D02*
X175685714Y-88903295D01*
X175685714Y-88903295D02*
X175685714Y-88998533D01*
X175685714Y-88998533D02*
X175638095Y-89141390D01*
X175638095Y-89141390D02*
X175066667Y-89712819D01*
X175066667Y-89712819D02*
X175685714Y-89712819D01*
%TO.C,R5*%
X175038133Y-85962819D02*
X174704800Y-85486628D01*
X174466705Y-85962819D02*
X174466705Y-84962819D01*
X174466705Y-84962819D02*
X174847657Y-84962819D01*
X174847657Y-84962819D02*
X174942895Y-85010438D01*
X174942895Y-85010438D02*
X174990514Y-85058057D01*
X174990514Y-85058057D02*
X175038133Y-85153295D01*
X175038133Y-85153295D02*
X175038133Y-85296152D01*
X175038133Y-85296152D02*
X174990514Y-85391390D01*
X174990514Y-85391390D02*
X174942895Y-85439009D01*
X174942895Y-85439009D02*
X174847657Y-85486628D01*
X174847657Y-85486628D02*
X174466705Y-85486628D01*
X175942895Y-84962819D02*
X175466705Y-84962819D01*
X175466705Y-84962819D02*
X175419086Y-85439009D01*
X175419086Y-85439009D02*
X175466705Y-85391390D01*
X175466705Y-85391390D02*
X175561943Y-85343771D01*
X175561943Y-85343771D02*
X175800038Y-85343771D01*
X175800038Y-85343771D02*
X175895276Y-85391390D01*
X175895276Y-85391390D02*
X175942895Y-85439009D01*
X175942895Y-85439009D02*
X175990514Y-85534247D01*
X175990514Y-85534247D02*
X175990514Y-85772342D01*
X175990514Y-85772342D02*
X175942895Y-85867580D01*
X175942895Y-85867580D02*
X175895276Y-85915200D01*
X175895276Y-85915200D02*
X175800038Y-85962819D01*
X175800038Y-85962819D02*
X175561943Y-85962819D01*
X175561943Y-85962819D02*
X175466705Y-85915200D01*
X175466705Y-85915200D02*
X175419086Y-85867580D01*
%TO.C,Y1*%
X188978609Y-82486628D02*
X188978609Y-82962819D01*
X188645276Y-81962819D02*
X188978609Y-82486628D01*
X188978609Y-82486628D02*
X189311942Y-81962819D01*
X190169085Y-82962819D02*
X189597657Y-82962819D01*
X189883371Y-82962819D02*
X189883371Y-81962819D01*
X189883371Y-81962819D02*
X189788133Y-82105676D01*
X189788133Y-82105676D02*
X189692895Y-82200914D01*
X189692895Y-82200914D02*
X189597657Y-82248533D01*
%TO.C,D3*%
X180561905Y-89712819D02*
X180561905Y-88712819D01*
X180561905Y-88712819D02*
X180800000Y-88712819D01*
X180800000Y-88712819D02*
X180942857Y-88760438D01*
X180942857Y-88760438D02*
X181038095Y-88855676D01*
X181038095Y-88855676D02*
X181085714Y-88950914D01*
X181085714Y-88950914D02*
X181133333Y-89141390D01*
X181133333Y-89141390D02*
X181133333Y-89284247D01*
X181133333Y-89284247D02*
X181085714Y-89474723D01*
X181085714Y-89474723D02*
X181038095Y-89569961D01*
X181038095Y-89569961D02*
X180942857Y-89665200D01*
X180942857Y-89665200D02*
X180800000Y-89712819D01*
X180800000Y-89712819D02*
X180561905Y-89712819D01*
X181466667Y-88712819D02*
X182085714Y-88712819D01*
X182085714Y-88712819D02*
X181752381Y-89093771D01*
X181752381Y-89093771D02*
X181895238Y-89093771D01*
X181895238Y-89093771D02*
X181990476Y-89141390D01*
X181990476Y-89141390D02*
X182038095Y-89189009D01*
X182038095Y-89189009D02*
X182085714Y-89284247D01*
X182085714Y-89284247D02*
X182085714Y-89522342D01*
X182085714Y-89522342D02*
X182038095Y-89617580D01*
X182038095Y-89617580D02*
X181990476Y-89665200D01*
X181990476Y-89665200D02*
X181895238Y-89712819D01*
X181895238Y-89712819D02*
X181609524Y-89712819D01*
X181609524Y-89712819D02*
X181514286Y-89665200D01*
X181514286Y-89665200D02*
X181466667Y-89617580D01*
%TO.C,D5*%
X166216705Y-66462819D02*
X166216705Y-65462819D01*
X166216705Y-65462819D02*
X166454800Y-65462819D01*
X166454800Y-65462819D02*
X166597657Y-65510438D01*
X166597657Y-65510438D02*
X166692895Y-65605676D01*
X166692895Y-65605676D02*
X166740514Y-65700914D01*
X166740514Y-65700914D02*
X166788133Y-65891390D01*
X166788133Y-65891390D02*
X166788133Y-66034247D01*
X166788133Y-66034247D02*
X166740514Y-66224723D01*
X166740514Y-66224723D02*
X166692895Y-66319961D01*
X166692895Y-66319961D02*
X166597657Y-66415200D01*
X166597657Y-66415200D02*
X166454800Y-66462819D01*
X166454800Y-66462819D02*
X166216705Y-66462819D01*
X167692895Y-65462819D02*
X167216705Y-65462819D01*
X167216705Y-65462819D02*
X167169086Y-65939009D01*
X167169086Y-65939009D02*
X167216705Y-65891390D01*
X167216705Y-65891390D02*
X167311943Y-65843771D01*
X167311943Y-65843771D02*
X167550038Y-65843771D01*
X167550038Y-65843771D02*
X167645276Y-65891390D01*
X167645276Y-65891390D02*
X167692895Y-65939009D01*
X167692895Y-65939009D02*
X167740514Y-66034247D01*
X167740514Y-66034247D02*
X167740514Y-66272342D01*
X167740514Y-66272342D02*
X167692895Y-66367580D01*
X167692895Y-66367580D02*
X167645276Y-66415200D01*
X167645276Y-66415200D02*
X167550038Y-66462819D01*
X167550038Y-66462819D02*
X167311943Y-66462819D01*
X167311943Y-66462819D02*
X167216705Y-66415200D01*
X167216705Y-66415200D02*
X167169086Y-66367580D01*
%TO.C,D6*%
X166216705Y-61462819D02*
X166216705Y-60462819D01*
X166216705Y-60462819D02*
X166454800Y-60462819D01*
X166454800Y-60462819D02*
X166597657Y-60510438D01*
X166597657Y-60510438D02*
X166692895Y-60605676D01*
X166692895Y-60605676D02*
X166740514Y-60700914D01*
X166740514Y-60700914D02*
X166788133Y-60891390D01*
X166788133Y-60891390D02*
X166788133Y-61034247D01*
X166788133Y-61034247D02*
X166740514Y-61224723D01*
X166740514Y-61224723D02*
X166692895Y-61319961D01*
X166692895Y-61319961D02*
X166597657Y-61415200D01*
X166597657Y-61415200D02*
X166454800Y-61462819D01*
X166454800Y-61462819D02*
X166216705Y-61462819D01*
X167645276Y-60462819D02*
X167454800Y-60462819D01*
X167454800Y-60462819D02*
X167359562Y-60510438D01*
X167359562Y-60510438D02*
X167311943Y-60558057D01*
X167311943Y-60558057D02*
X167216705Y-60700914D01*
X167216705Y-60700914D02*
X167169086Y-60891390D01*
X167169086Y-60891390D02*
X167169086Y-61272342D01*
X167169086Y-61272342D02*
X167216705Y-61367580D01*
X167216705Y-61367580D02*
X167264324Y-61415200D01*
X167264324Y-61415200D02*
X167359562Y-61462819D01*
X167359562Y-61462819D02*
X167550038Y-61462819D01*
X167550038Y-61462819D02*
X167645276Y-61415200D01*
X167645276Y-61415200D02*
X167692895Y-61367580D01*
X167692895Y-61367580D02*
X167740514Y-61272342D01*
X167740514Y-61272342D02*
X167740514Y-61034247D01*
X167740514Y-61034247D02*
X167692895Y-60939009D01*
X167692895Y-60939009D02*
X167645276Y-60891390D01*
X167645276Y-60891390D02*
X167550038Y-60843771D01*
X167550038Y-60843771D02*
X167359562Y-60843771D01*
X167359562Y-60843771D02*
X167264324Y-60891390D01*
X167264324Y-60891390D02*
X167216705Y-60939009D01*
X167216705Y-60939009D02*
X167169086Y-61034247D01*
%TO.C,R2*%
X178200633Y-117962819D02*
X177867300Y-117486628D01*
X177629205Y-117962819D02*
X177629205Y-116962819D01*
X177629205Y-116962819D02*
X178010157Y-116962819D01*
X178010157Y-116962819D02*
X178105395Y-117010438D01*
X178105395Y-117010438D02*
X178153014Y-117058057D01*
X178153014Y-117058057D02*
X178200633Y-117153295D01*
X178200633Y-117153295D02*
X178200633Y-117296152D01*
X178200633Y-117296152D02*
X178153014Y-117391390D01*
X178153014Y-117391390D02*
X178105395Y-117439009D01*
X178105395Y-117439009D02*
X178010157Y-117486628D01*
X178010157Y-117486628D02*
X177629205Y-117486628D01*
X178581586Y-117058057D02*
X178629205Y-117010438D01*
X178629205Y-117010438D02*
X178724443Y-116962819D01*
X178724443Y-116962819D02*
X178962538Y-116962819D01*
X178962538Y-116962819D02*
X179057776Y-117010438D01*
X179057776Y-117010438D02*
X179105395Y-117058057D01*
X179105395Y-117058057D02*
X179153014Y-117153295D01*
X179153014Y-117153295D02*
X179153014Y-117248533D01*
X179153014Y-117248533D02*
X179105395Y-117391390D01*
X179105395Y-117391390D02*
X178533967Y-117962819D01*
X178533967Y-117962819D02*
X179153014Y-117962819D01*
%TO.C,U2*%
X194417419Y-104262104D02*
X195226942Y-104262104D01*
X195226942Y-104262104D02*
X195322180Y-104214485D01*
X195322180Y-104214485D02*
X195369800Y-104166866D01*
X195369800Y-104166866D02*
X195417419Y-104071628D01*
X195417419Y-104071628D02*
X195417419Y-103881152D01*
X195417419Y-103881152D02*
X195369800Y-103785914D01*
X195369800Y-103785914D02*
X195322180Y-103738295D01*
X195322180Y-103738295D02*
X195226942Y-103690676D01*
X195226942Y-103690676D02*
X194417419Y-103690676D01*
X194512657Y-103262104D02*
X194465038Y-103214485D01*
X194465038Y-103214485D02*
X194417419Y-103119247D01*
X194417419Y-103119247D02*
X194417419Y-102881152D01*
X194417419Y-102881152D02*
X194465038Y-102785914D01*
X194465038Y-102785914D02*
X194512657Y-102738295D01*
X194512657Y-102738295D02*
X194607895Y-102690676D01*
X194607895Y-102690676D02*
X194703133Y-102690676D01*
X194703133Y-102690676D02*
X194845990Y-102738295D01*
X194845990Y-102738295D02*
X195417419Y-103309723D01*
X195417419Y-103309723D02*
X195417419Y-102690676D01*
%TO.C,D4*%
X176607105Y-112362051D02*
X176607105Y-111362051D01*
X176607105Y-111362051D02*
X176845200Y-111362051D01*
X176845200Y-111362051D02*
X176988057Y-111409670D01*
X176988057Y-111409670D02*
X177083295Y-111504908D01*
X177083295Y-111504908D02*
X177130914Y-111600146D01*
X177130914Y-111600146D02*
X177178533Y-111790622D01*
X177178533Y-111790622D02*
X177178533Y-111933479D01*
X177178533Y-111933479D02*
X177130914Y-112123955D01*
X177130914Y-112123955D02*
X177083295Y-112219193D01*
X177083295Y-112219193D02*
X176988057Y-112314432D01*
X176988057Y-112314432D02*
X176845200Y-112362051D01*
X176845200Y-112362051D02*
X176607105Y-112362051D01*
X178035676Y-111695384D02*
X178035676Y-112362051D01*
X177797581Y-111314432D02*
X177559486Y-112028717D01*
X177559486Y-112028717D02*
X178178533Y-112028717D01*
%TO.C,U3*%
X166498095Y-115862051D02*
X166498095Y-116671574D01*
X166498095Y-116671574D02*
X166545714Y-116766812D01*
X166545714Y-116766812D02*
X166593333Y-116814432D01*
X166593333Y-116814432D02*
X166688571Y-116862051D01*
X166688571Y-116862051D02*
X166879047Y-116862051D01*
X166879047Y-116862051D02*
X166974285Y-116814432D01*
X166974285Y-116814432D02*
X167021904Y-116766812D01*
X167021904Y-116766812D02*
X167069523Y-116671574D01*
X167069523Y-116671574D02*
X167069523Y-115862051D01*
X167450476Y-115862051D02*
X168069523Y-115862051D01*
X168069523Y-115862051D02*
X167736190Y-116243003D01*
X167736190Y-116243003D02*
X167879047Y-116243003D01*
X167879047Y-116243003D02*
X167974285Y-116290622D01*
X167974285Y-116290622D02*
X168021904Y-116338241D01*
X168021904Y-116338241D02*
X168069523Y-116433479D01*
X168069523Y-116433479D02*
X168069523Y-116671574D01*
X168069523Y-116671574D02*
X168021904Y-116766812D01*
X168021904Y-116766812D02*
X167974285Y-116814432D01*
X167974285Y-116814432D02*
X167879047Y-116862051D01*
X167879047Y-116862051D02*
X167593333Y-116862051D01*
X167593333Y-116862051D02*
X167498095Y-116814432D01*
X167498095Y-116814432D02*
X167450476Y-116766812D01*
%TO.C,R1*%
X195933333Y-127862619D02*
X195600000Y-127386428D01*
X195361905Y-127862619D02*
X195361905Y-126862619D01*
X195361905Y-126862619D02*
X195742857Y-126862619D01*
X195742857Y-126862619D02*
X195838095Y-126910238D01*
X195838095Y-126910238D02*
X195885714Y-126957857D01*
X195885714Y-126957857D02*
X195933333Y-127053095D01*
X195933333Y-127053095D02*
X195933333Y-127195952D01*
X195933333Y-127195952D02*
X195885714Y-127291190D01*
X195885714Y-127291190D02*
X195838095Y-127338809D01*
X195838095Y-127338809D02*
X195742857Y-127386428D01*
X195742857Y-127386428D02*
X195361905Y-127386428D01*
X196885714Y-127862619D02*
X196314286Y-127862619D01*
X196600000Y-127862619D02*
X196600000Y-126862619D01*
X196600000Y-126862619D02*
X196504762Y-127005476D01*
X196504762Y-127005476D02*
X196409524Y-127100714D01*
X196409524Y-127100714D02*
X196314286Y-127148333D01*
%TO.C,R3*%
X181795633Y-110822819D02*
X181462300Y-110346628D01*
X181224205Y-110822819D02*
X181224205Y-109822819D01*
X181224205Y-109822819D02*
X181605157Y-109822819D01*
X181605157Y-109822819D02*
X181700395Y-109870438D01*
X181700395Y-109870438D02*
X181748014Y-109918057D01*
X181748014Y-109918057D02*
X181795633Y-110013295D01*
X181795633Y-110013295D02*
X181795633Y-110156152D01*
X181795633Y-110156152D02*
X181748014Y-110251390D01*
X181748014Y-110251390D02*
X181700395Y-110299009D01*
X181700395Y-110299009D02*
X181605157Y-110346628D01*
X181605157Y-110346628D02*
X181224205Y-110346628D01*
X182128967Y-109822819D02*
X182748014Y-109822819D01*
X182748014Y-109822819D02*
X182414681Y-110203771D01*
X182414681Y-110203771D02*
X182557538Y-110203771D01*
X182557538Y-110203771D02*
X182652776Y-110251390D01*
X182652776Y-110251390D02*
X182700395Y-110299009D01*
X182700395Y-110299009D02*
X182748014Y-110394247D01*
X182748014Y-110394247D02*
X182748014Y-110632342D01*
X182748014Y-110632342D02*
X182700395Y-110727580D01*
X182700395Y-110727580D02*
X182652776Y-110775200D01*
X182652776Y-110775200D02*
X182557538Y-110822819D01*
X182557538Y-110822819D02*
X182271824Y-110822819D01*
X182271824Y-110822819D02*
X182176586Y-110775200D01*
X182176586Y-110775200D02*
X182128967Y-110727580D01*
D14*
%TO.C,C2*%
X171111252Y-117684432D02*
X170588748Y-117684432D01*
X171111252Y-116214432D02*
X170588748Y-116214432D01*
%TO.C,C3*%
X181519800Y-125861452D02*
X181519800Y-125338948D01*
X182989800Y-125861452D02*
X182989800Y-125338948D01*
%TO.C,R4*%
X179977300Y-85082976D02*
X179977300Y-85592424D01*
X178932300Y-85082976D02*
X178932300Y-85592424D01*
%TO.C,C1*%
X192101067Y-91510200D02*
X191808533Y-91510200D01*
X192101067Y-90490200D02*
X191808533Y-90490200D01*
%TO.C,C6*%
X171511252Y-107934432D02*
X170988748Y-107934432D01*
X171511252Y-106464432D02*
X170988748Y-106464432D01*
%TO.C,C7*%
X187808533Y-90490200D02*
X188101067Y-90490200D01*
X187808533Y-91510200D02*
X188101067Y-91510200D01*
D10*
%TO.C,J1*%
X159977300Y-131390000D02*
X159977300Y-141390000D01*
X159977300Y-131390000D02*
X160977300Y-131390000D01*
X159977300Y-135640000D02*
X169977300Y-135640000D01*
X159977300Y-141390000D02*
X160477300Y-141390000D01*
X160477300Y-135640000D02*
X160477300Y-138640000D01*
X160477300Y-138640000D02*
X161277300Y-138640000D01*
X160977300Y-131390000D02*
X160977300Y-134940000D01*
X160977300Y-139890000D02*
X160977300Y-140890000D01*
X161277300Y-138640000D02*
X161477300Y-138440000D01*
X161477300Y-137990000D02*
X160477300Y-137990000D01*
X161477300Y-138440000D02*
X161477300Y-135640000D01*
X161477300Y-139390000D02*
X162277300Y-139390000D01*
X162277300Y-139390000D02*
X162477300Y-139190000D01*
X162377300Y-139290000D02*
X163577300Y-139290000D01*
X162477300Y-136140000D02*
X162477300Y-139190000D01*
X162477300Y-136140000D02*
X163477300Y-136140000D01*
X163477300Y-136140000D02*
X163477300Y-139190000D01*
X163477300Y-139190000D02*
X163677300Y-139390000D01*
X163677300Y-139390000D02*
X166277300Y-139390000D01*
X166277300Y-139390000D02*
X166477300Y-139190000D01*
X166377300Y-139290000D02*
X167577300Y-139290000D01*
X166477300Y-136140000D02*
X166477300Y-139190000D01*
X167477300Y-136140000D02*
X166477300Y-136140000D01*
X167477300Y-136140000D02*
X167477300Y-139190000D01*
X167477300Y-139190000D02*
X167677300Y-139390000D01*
X167677300Y-139390000D02*
X168477300Y-139390000D01*
X168477300Y-137990000D02*
X169477300Y-137990000D01*
X168477300Y-138440000D02*
X168477300Y-135640000D01*
X168477300Y-138440000D02*
X168677300Y-138640000D01*
X168977300Y-131390000D02*
X168977300Y-134940000D01*
X168977300Y-134940000D02*
X160977300Y-134940000D01*
X168977300Y-139890000D02*
X168977300Y-140890000D01*
X169477300Y-135640000D02*
X169477300Y-138640000D01*
X169477300Y-138640000D02*
X168677300Y-138640000D01*
X169977300Y-131390000D02*
X168977300Y-131390000D01*
X169977300Y-131390000D02*
X169977300Y-141390000D01*
X169977300Y-141390000D02*
X169477300Y-141390000D01*
X161477300Y-139390000D02*
G75*
G03*
X160977300Y-139890000I1J-500001D01*
G01*
X160477300Y-141390000D02*
G75*
G03*
X160977300Y-140890000I-1J500001D01*
G01*
X168977300Y-139890000D02*
G75*
G03*
X168477300Y-139390000I-500000J0D01*
G01*
X168977300Y-140890000D02*
G75*
G03*
X169477300Y-141390000I500000J0D01*
G01*
X161977300Y-130390000D02*
X161727300Y-130140000D01*
X162227300Y-130140000D01*
X161977300Y-130390000D01*
G36*
X161977300Y-130390000D02*
G01*
X161727300Y-130140000D01*
X162227300Y-130140000D01*
X161977300Y-130390000D01*
G37*
D15*
%TO.C,U4*%
X160762500Y-54225000D02*
X160762500Y-115725000D01*
X152312500Y-54225000D02*
X160762500Y-54225000D01*
X144212500Y-54225000D02*
X152312500Y-54225000D01*
X135762500Y-54225000D02*
X144212500Y-54225000D01*
X160762500Y-115725000D02*
X153462500Y-115725000D01*
X153462500Y-115725000D02*
X142462500Y-115725000D01*
X142462500Y-115725000D02*
X135762500Y-115725000D01*
X135762500Y-115725000D02*
X135762500Y-54225000D01*
D14*
%TO.C,SW1*%
X131760000Y-56364432D02*
X130140000Y-56364432D01*
X131760000Y-56364432D02*
X131760000Y-58224432D01*
X130140000Y-56364432D02*
X130140000Y-58224432D01*
X129220000Y-56364432D02*
X127600000Y-56364432D01*
X129220000Y-56364432D02*
X129220000Y-58224432D01*
X127600000Y-56364432D02*
X127600000Y-58224432D01*
X133300000Y-57984432D02*
X131917000Y-57984432D01*
X133300000Y-57984432D02*
X133300000Y-59367432D01*
X133060000Y-58224432D02*
X126300000Y-58224432D01*
X133060000Y-58224432D02*
X133060000Y-69144432D01*
X131760000Y-58224432D02*
X130140000Y-58224432D01*
X129220000Y-58224432D02*
X127600000Y-58224432D01*
X126300000Y-58224432D02*
X126300000Y-69144432D01*
X133060000Y-69144432D02*
X126300000Y-69144432D01*
%TO.C,R6*%
X164477300Y-68157976D02*
X164477300Y-68667424D01*
X163432300Y-68157976D02*
X163432300Y-68667424D01*
%TO.C,U1*%
X194584800Y-120360200D02*
X184304800Y-120360200D01*
X184304800Y-120360200D02*
X184304800Y-125660200D01*
X194584800Y-122010200D02*
X194584800Y-120360200D01*
X194584800Y-125660200D02*
X194584800Y-124010200D01*
X184304800Y-125660200D02*
X194584800Y-125660200D01*
X194584800Y-122010200D02*
G75*
G03*
X194584800Y-124010200I0J-1000000D01*
G01*
%TO.C,R7*%
X164389800Y-63232976D02*
X164389800Y-63742424D01*
X163344800Y-63232976D02*
X163344800Y-63742424D01*
%TO.C,TP1*%
X173151000Y-128999432D02*
G75*
G03*
X173151000Y-128999432I-1251000J0D01*
G01*
%TO.C,C4*%
X181519800Y-121261452D02*
X181519800Y-120738948D01*
X182989800Y-121261452D02*
X182989800Y-120738948D01*
%TO.C,C5*%
X182098552Y-115835200D02*
X181576048Y-115835200D01*
X182098552Y-114365200D02*
X181576048Y-114365200D01*
%TO.C,TP2*%
X173151000Y-125699432D02*
G75*
G03*
X173151000Y-125699432I-1251000J0D01*
G01*
%TO.C,C8*%
X168362500Y-96752700D02*
X169150000Y-96752700D01*
X168756250Y-96358950D02*
X168756250Y-97146450D01*
X169390000Y-96254637D02*
X169390000Y-97540200D01*
X169390000Y-96254637D02*
X170454437Y-95190200D01*
X169390000Y-100945763D02*
X169390000Y-99660200D01*
X169390000Y-100945763D02*
X170454437Y-102010200D01*
X170454437Y-95190200D02*
X176210000Y-95190200D01*
X170454437Y-102010200D02*
X176210000Y-102010200D01*
X176210000Y-95190200D02*
X176210000Y-97540200D01*
X176210000Y-102010200D02*
X176210000Y-99660200D01*
%TO.C,D1*%
X177027300Y-120235200D02*
X177027300Y-118765200D01*
X177027300Y-118765200D02*
X174567300Y-118765200D01*
X174567300Y-120235200D02*
X177027300Y-120235200D01*
%TO.C,D2*%
X172219800Y-90910200D02*
X173689800Y-90910200D01*
X173689800Y-90910200D02*
X173689800Y-88450200D01*
X172219800Y-88450200D02*
X172219800Y-90910200D01*
%TO.C,R5*%
X173477300Y-85245476D02*
X173477300Y-85754924D01*
X172432300Y-85245476D02*
X172432300Y-85754924D01*
%TO.C,Y1*%
X186319800Y-83475200D02*
X192569800Y-83475200D01*
X186319800Y-88525200D02*
X192569800Y-88525200D01*
X186319800Y-83475200D02*
G75*
G03*
X186319800Y-88525200I0J-2525000D01*
G01*
X192569800Y-88525200D02*
G75*
G03*
X192569800Y-83475200I0J2525000D01*
G01*
%TO.C,D3*%
X178719800Y-90910200D02*
X180189800Y-90910200D01*
X180189800Y-90910200D02*
X180189800Y-88450200D01*
X178719800Y-88450200D02*
X178719800Y-90910200D01*
%TO.C,D5*%
X167689800Y-66840200D02*
X166219800Y-66840200D01*
X166219800Y-66840200D02*
X166219800Y-69300200D01*
X167689800Y-69300200D02*
X167689800Y-66840200D01*
%TO.C,D6*%
X167689800Y-61827700D02*
X166219800Y-61827700D01*
X166219800Y-61827700D02*
X166219800Y-64287700D01*
X167689800Y-64287700D02*
X167689800Y-61827700D01*
%TO.C,R2*%
X175622024Y-118022700D02*
X175112576Y-118022700D01*
X175622024Y-116977700D02*
X175112576Y-116977700D01*
%TO.C,U2*%
X191914800Y-116370200D02*
X191914800Y-93390200D01*
X191914800Y-93390200D02*
X186614800Y-93390200D01*
X190264800Y-116370200D02*
X191914800Y-116370200D01*
X186614800Y-116370200D02*
X188264800Y-116370200D01*
X186614800Y-93390200D02*
X186614800Y-116370200D01*
X190264800Y-116370200D02*
G75*
G03*
X188264800Y-116370200I-1000000J0D01*
G01*
%TO.C,D4*%
X174200000Y-114109432D02*
X176200000Y-114109432D01*
X174200000Y-114109432D02*
X174200000Y-110249432D01*
X176200000Y-114109432D02*
X176200000Y-110249432D01*
%TO.C,U3*%
X170570000Y-115349432D02*
X170570000Y-115079432D01*
X170570000Y-115079432D02*
X173400000Y-115079432D01*
X170570000Y-108719432D02*
X171670000Y-108719432D01*
X170570000Y-108449432D02*
X170570000Y-108719432D01*
X164150000Y-115349432D02*
X170570000Y-115349432D01*
X164150000Y-108449432D02*
X170570000Y-108449432D01*
%TO.C,R1*%
X193645276Y-128477500D02*
X194154724Y-128477500D01*
X193645276Y-129522500D02*
X194154724Y-129522500D01*
%TO.C,R3*%
X181707576Y-111267700D02*
X182217024Y-111267700D01*
X181707576Y-112312700D02*
X182217024Y-112312700D01*
%TD*%
M02*
