%TF.GenerationSoftware,KiCad,Pcbnew,7.0.1-0*%
%TF.CreationDate,2023-05-22T14:04:25+09:00*%
%TF.ProjectId,AirData,41697244-6174-4612-9e6b-696361645f70,rev?*%
%TF.SameCoordinates,Original*%
%TF.FileFunction,Copper,L2,Bot*%
%TF.FilePolarity,Positive*%
%FSLAX46Y46*%
G04 Gerber Fmt 4.6, Leading zero omitted, Abs format (unit mm)*
G04 Created by KiCad (PCBNEW 7.0.1-0) date 2023-05-22 14:04:25*
%MOMM*%
%LPD*%
G01*
G04 APERTURE LIST*
G04 Aperture macros list*
%AMRoundRect*
0 Rectangle with rounded corners*
0 $1 Rounding radius*
0 $2 $3 $4 $5 $6 $7 $8 $9 X,Y pos of 4 corners*
0 Add a 4 corners polygon primitive as box body*
4,1,4,$2,$3,$4,$5,$6,$7,$8,$9,$2,$3,0*
0 Add four circle primitives for the rounded corners*
1,1,$1+$1,$2,$3*
1,1,$1+$1,$4,$5*
1,1,$1+$1,$6,$7*
1,1,$1+$1,$8,$9*
0 Add four rect primitives between the rounded corners*
20,1,$1+$1,$2,$3,$4,$5,0*
20,1,$1+$1,$4,$5,$6,$7,0*
20,1,$1+$1,$6,$7,$8,$9,0*
20,1,$1+$1,$8,$9,$2,$3,0*%
G04 Aperture macros list end*
%TA.AperFunction,ComponentPad*%
%ADD10RoundRect,0.250000X-0.350000X-0.560000X0.350000X-0.560000X0.350000X0.560000X-0.350000X0.560000X0*%
%TD*%
%TA.AperFunction,ComponentPad*%
%ADD11O,1.200000X1.650000*%
%TD*%
%TA.AperFunction,ComponentPad*%
%ADD12R,1.508000X1.508000*%
%TD*%
%TA.AperFunction,ComponentPad*%
%ADD13C,1.508000*%
%TD*%
%TA.AperFunction,ComponentPad*%
%ADD14R,1.600000X1.600000*%
%TD*%
%TA.AperFunction,ComponentPad*%
%ADD15O,1.600000X1.600000*%
%TD*%
%TA.AperFunction,ComponentPad*%
%ADD16R,1.500000X1.500000*%
%TD*%
%TA.AperFunction,ComponentPad*%
%ADD17C,1.500000*%
%TD*%
%TA.AperFunction,ComponentPad*%
%ADD18C,2.250000*%
%TD*%
%TA.AperFunction,ViaPad*%
%ADD19C,0.510000*%
%TD*%
%TA.AperFunction,Conductor*%
%ADD20C,0.500000*%
%TD*%
%TA.AperFunction,Conductor*%
%ADD21C,0.200000*%
%TD*%
%TA.AperFunction,Conductor*%
%ADD22C,0.300000*%
%TD*%
G04 APERTURE END LIST*
D10*
%TO.P,J1,1,Pin_1*%
%TO.N,+12V*%
X161977300Y-131690000D03*
D11*
%TO.P,J1,2,Pin_2*%
X161977300Y-133690000D03*
%TO.P,J1,3,Pin_3*%
%TO.N,CAN_L*%
X163977300Y-131690000D03*
%TO.P,J1,4,Pin_4*%
X163977300Y-133690000D03*
%TO.P,J1,5,Pin_5*%
%TO.N,GND*%
X165977300Y-131690000D03*
%TO.P,J1,6,Pin_6*%
X165977300Y-133690000D03*
%TO.P,J1,7,Pin_7*%
%TO.N,CAN_H*%
X167977300Y-131690000D03*
%TO.P,J1,8,Pin_8*%
X167977300Y-133690000D03*
%TD*%
D12*
%TO.P,U4,1,PA03_VREFA/AREF*%
%TO.N,unconnected-(U4-PA03_VREFA{slash}AREF-Pad1)*%
X138102500Y-76359800D03*
D13*
%TO.P,U4,2,PA02_AIN0/DAC0/A0*%
%TO.N,unconnected-(U4-PA02_AIN0{slash}DAC0{slash}A0-Pad2)*%
X138102500Y-78899800D03*
%TO.P,U4,3,PB02_AIN10/A1*%
%TO.N,unconnected-(U4-PB02_AIN10{slash}A1-Pad3)*%
X138102500Y-81439800D03*
%TO.P,U4,4,PB03_AIN11/A2*%
%TO.N,unconnected-(U4-PB03_AIN11{slash}A2-Pad4)*%
X138102500Y-83979800D03*
%TO.P,U4,5,PA04_AIN4/A3*%
%TO.N,unconnected-(U4-PA04_AIN4{slash}A3-Pad5)*%
X138102500Y-86519800D03*
%TO.P,U4,6,PA05_AIN5/A4*%
%TO.N,unconnected-(U4-PA05_AIN5{slash}A4-Pad6)*%
X138102500Y-89059800D03*
%TO.P,U4,7,PA06_AIN6/A5*%
%TO.N,unconnected-(U4-PA06_AIN6{slash}A5-Pad7)*%
X138102500Y-91599800D03*
%TO.P,U4,8,PA07_AIN7/A6*%
%TO.N,unconnected-(U4-PA07_AIN7{slash}A6-Pad8)*%
X138102500Y-94139800D03*
%TO.P,U4,9,PA22_TC4-W0/0*%
%TO.N,DEBUG_MODE*%
X138102500Y-96679800D03*
%TO.P,U4,10,PA23_TC4-W1/1*%
%TO.N,CAN_RECEIVE_STATUS*%
X138102500Y-99219800D03*
%TO.P,U4,11,PA10_TCC0-W2/~2*%
%TO.N,CAN_SEND_STATUS*%
X138102500Y-101759800D03*
%TO.P,U4,12,PA11_TCC0-W3/~3*%
%TO.N,LORA_RECEIVE_STATUS*%
X138102500Y-104299800D03*
%TO.P,U4,13,PB10_TCC0-W4/~4*%
%TO.N,LORA_SEND_STATUS*%
X138102500Y-106839800D03*
%TO.P,U4,14,PB11_TCC0-W5/~5*%
%TO.N,unconnected-(U4-PB11_TCC0-W5{slash}~5-Pad14)*%
X138102500Y-109379800D03*
%TO.P,U4,15,PA20_TCC0-W6*%
%TO.N,unconnected-(U4-PA20_TCC0-W6-Pad15)*%
X158422500Y-109379800D03*
%TO.P,U4,16,PA21_TCC0-W7*%
%TO.N,SPI_CS_MCP*%
X158422500Y-106839800D03*
%TO.P,U4,17,PA16_S1_MOSI*%
%TO.N,SPI_MOSI*%
X158422500Y-104299800D03*
%TO.P,U4,18,PA17_S1_SCK*%
%TO.N,SPI_SCLK*%
X158422500Y-101759800D03*
%TO.P,U4,19,PA19_S1_MISO*%
%TO.N,SPI_MISO*%
X158422500Y-99219800D03*
%TO.P,U4,20,PA08_S0_I2C_SDA*%
%TO.N,unconnected-(U4-PA08_S0_I2C_SDA-Pad20)*%
X158422500Y-96679800D03*
%TO.P,U4,21,PA09_S0_I2C_SCL*%
%TO.N,unconnected-(U4-PA09_S0_I2C_SCL-Pad21)*%
X158422500Y-94139800D03*
%TO.P,U4,22,PB23_S5_RX*%
%TO.N,unconnected-(U4-PB23_S5_RX-Pad22)*%
X158422500Y-91599800D03*
%TO.P,U4,23,PB22_S5_TX*%
%TO.N,unconnected-(U4-PB22_S5_TX-Pad23)*%
X158422500Y-89059800D03*
%TO.P,U4,24,RESET*%
%TO.N,unconnected-(U4-RESET-Pad24)*%
X158422500Y-86519800D03*
%TO.P,U4,25,GND*%
%TO.N,unconnected-(U4-GND-Pad25)*%
X158422500Y-83979800D03*
%TO.P,U4,26,+3V3*%
%TO.N,+3.3V*%
X158422500Y-81439800D03*
%TO.P,U4,27,VIN*%
%TO.N,+5V*%
X158422500Y-78899800D03*
%TO.P,U4,28,+5V*%
%TO.N,unconnected-(U4-+5V-Pad28)*%
X158422500Y-76359800D03*
%TD*%
D14*
%TO.P,SW1,1*%
%TO.N,DEBUG_MODE*%
X130950000Y-59874432D03*
D15*
%TO.P,SW1,2*%
%TO.N,unconnected-(SW1-Pad2)*%
X128410000Y-59874432D03*
%TO.P,SW1,3*%
%TO.N,unconnected-(SW1-Pad3)*%
X128410000Y-67494432D03*
%TO.P,SW1,4*%
%TO.N,GND*%
X130950000Y-67494432D03*
%TD*%
D16*
%TO.P,U1,1,TXD*%
%TO.N,CAN_TX*%
X193254800Y-119200200D03*
D17*
%TO.P,U1,2,VSS*%
%TO.N,GND*%
X190714800Y-119200200D03*
%TO.P,U1,3,VDD*%
%TO.N,+5V*%
X188174800Y-119200200D03*
%TO.P,U1,4,RXD*%
%TO.N,CAN_RX*%
X185634800Y-119200200D03*
%TO.P,U1,5,Vio*%
%TO.N,+3.3V*%
X185634800Y-126820200D03*
%TO.P,U1,6,CANL*%
%TO.N,CAN_L*%
X188174800Y-126820200D03*
%TO.P,U1,7,CANH*%
%TO.N,CAN_H*%
X190714800Y-126820200D03*
%TO.P,U1,8,STBY*%
%TO.N,GND*%
X193254800Y-126820200D03*
%TD*%
D18*
%TO.P,TP1,1,1*%
%TO.N,CAN_H*%
X171900000Y-128999432D03*
%TD*%
%TO.P,TP2,1,1*%
%TO.N,CAN_L*%
X171900000Y-125699432D03*
%TD*%
D17*
%TO.P,Y1,1,1*%
%TO.N,OSC2*%
X187004800Y-86000200D03*
%TO.P,Y1,2,2*%
%TO.N,OSC1*%
X191884800Y-86000200D03*
%TD*%
D16*
%TO.P,U2,1,TXCAN*%
%TO.N,CAN_TX*%
X193074800Y-115040200D03*
D17*
%TO.P,U2,2,RXCAN*%
%TO.N,CAN_RX*%
X193074800Y-112500200D03*
%TO.P,U2,3,CLKOUT/SOF*%
%TO.N,unconnected-(U2-CLKOUT{slash}SOF-Pad3)*%
X193074800Y-109960200D03*
%TO.P,U2,4,~TX0RTS*%
%TO.N,unconnected-(U2-~TX0RTS-Pad4)*%
X193074800Y-107420200D03*
%TO.P,U2,5,~TX1RTS*%
%TO.N,unconnected-(U2-~TX1RTS-Pad5)*%
X193074800Y-104880200D03*
%TO.P,U2,6,~TX2RTS*%
%TO.N,unconnected-(U2-~TX2RTS-Pad6)*%
X193074800Y-102340200D03*
%TO.P,U2,7,OSC2*%
%TO.N,OSC2*%
X193074800Y-99800200D03*
%TO.P,U2,8,OSC1*%
%TO.N,OSC1*%
X193074800Y-97260200D03*
%TO.P,U2,9,VSS*%
%TO.N,GND*%
X193074800Y-94720200D03*
%TO.P,U2,10,~RX1BF*%
%TO.N,unconnected-(U2-~RX1BF-Pad10)*%
X185454800Y-94720200D03*
%TO.P,U2,11,~RX0BF*%
%TO.N,unconnected-(U2-~RX0BF-Pad11)*%
X185454800Y-97260200D03*
%TO.P,U2,12,~INT*%
%TO.N,unconnected-(U2-~INT-Pad12)*%
X185454800Y-99800200D03*
%TO.P,U2,13,SCK*%
%TO.N,SPI_SCLK*%
X185454800Y-102340200D03*
%TO.P,U2,14,SI*%
%TO.N,SPI_MOSI*%
X185454800Y-104880200D03*
%TO.P,U2,15,SO*%
%TO.N,SPI_MISO*%
X185454800Y-107420200D03*
%TO.P,U2,16,~CS*%
%TO.N,SPI_CS_MCP*%
X185454800Y-109960200D03*
%TO.P,U2,17,~RESET*%
%TO.N,Net-(U2-~RESET)*%
X185454800Y-112500200D03*
%TO.P,U2,18,VDD*%
%TO.N,+3.3V*%
X185454800Y-115040200D03*
%TD*%
D19*
%TO.N,GND*%
X163100000Y-117600000D03*
X147300000Y-56800000D03*
X166400000Y-126400000D03*
X172500000Y-96999432D03*
X156500000Y-77000000D03*
X162900000Y-85600000D03*
X200900000Y-119000000D03*
X160300000Y-105800000D03*
X190900000Y-100800000D03*
X161300000Y-143800000D03*
X140500000Y-65400000D03*
X185100000Y-125000000D03*
X160300000Y-77200000D03*
X100100000Y-82600000D03*
X183700000Y-108600000D03*
X169100000Y-79400000D03*
X121300000Y-105400000D03*
X192300000Y-122600000D03*
X181100000Y-105800000D03*
X180300000Y-122800000D03*
X184300000Y-111000000D03*
X191100000Y-111200000D03*
X184700000Y-90000000D03*
X143100000Y-102000000D03*
X167500000Y-120600000D03*
X104300000Y-135400000D03*
X152300000Y-88800000D03*
X179800000Y-129499432D03*
X191900000Y-125800000D03*
X121500000Y-122400000D03*
X184100000Y-113600000D03*
X111900000Y-66600000D03*
X184700000Y-132000000D03*
X163900000Y-74200000D03*
X185500000Y-66600000D03*
X150500000Y-102800000D03*
X108300000Y-86800000D03*
X160300000Y-80600000D03*
X136500000Y-138200000D03*
X183700000Y-101200000D03*
X163000000Y-97799432D03*
X134100000Y-96600000D03*
X181500000Y-96400000D03*
X196300000Y-116600000D03*
X187500000Y-94400000D03*
X164500000Y-124000000D03*
X110100000Y-123000000D03*
X135300000Y-77800000D03*
X177900000Y-127399432D03*
X148700000Y-51200000D03*
X145900000Y-131400000D03*
X127300000Y-72600000D03*
X97300000Y-121000000D03*
X162550000Y-103099432D03*
X181100000Y-82400000D03*
X128300000Y-113600000D03*
X172000000Y-111999432D03*
X139300000Y-103000000D03*
X177500000Y-124000000D03*
X187500000Y-105600000D03*
X145700000Y-83600000D03*
X162700000Y-138600000D03*
X160300000Y-98600000D03*
X136300000Y-122400000D03*
X165500000Y-59200000D03*
X163050000Y-105649432D03*
X111300000Y-96600000D03*
X106500000Y-105200000D03*
X160500000Y-101400000D03*
X150500000Y-72800000D03*
X168300000Y-75600000D03*
X173300000Y-67800000D03*
X143100000Y-99600000D03*
X169500000Y-124000000D03*
X130100000Y-72200000D03*
X177500000Y-120400000D03*
X195100000Y-132400000D03*
X139300000Y-105600000D03*
X143300000Y-90800000D03*
X178900000Y-104000000D03*
X167100000Y-81800000D03*
X159900000Y-109000000D03*
X186300000Y-121000000D03*
X143900000Y-112400000D03*
X160300000Y-85200000D03*
X95900000Y-103800000D03*
X142700000Y-80400000D03*
X154100000Y-112400000D03*
X169300000Y-102099432D03*
X192100000Y-82600000D03*
X128300000Y-55099432D03*
X160300000Y-66400000D03*
X145300000Y-100200000D03*
X196100000Y-100200000D03*
X133900000Y-106400000D03*
X152100000Y-76200000D03*
X185300000Y-117200000D03*
X112100000Y-114400000D03*
X174700000Y-82000000D03*
X173100000Y-120400000D03*
X167900000Y-116800000D03*
X141500000Y-98600000D03*
X170100000Y-55600000D03*
X137900000Y-73200000D03*
X121300000Y-86400000D03*
X172700000Y-83000000D03*
X194500000Y-90000000D03*
X189900000Y-92800000D03*
X159900000Y-118400000D03*
X158700000Y-70800000D03*
X139700000Y-108000000D03*
X168300000Y-90000000D03*
X169700000Y-65600000D03*
X191300000Y-96800000D03*
X161700000Y-72200000D03*
X185500000Y-143800000D03*
X133300000Y-88800000D03*
X127100000Y-96400000D03*
X197500000Y-82600000D03*
X180700000Y-119400000D03*
X177350000Y-113299432D03*
X111700000Y-143200000D03*
X201900000Y-105200000D03*
X176800000Y-101999432D03*
X140900000Y-96400000D03*
X182100000Y-103400000D03*
X133100000Y-78600000D03*
X186700000Y-127800000D03*
X167700000Y-128200000D03*
X131900000Y-143400000D03*
X159900000Y-63400000D03*
X180300000Y-127000000D03*
X154700000Y-122400000D03*
X142900000Y-86400000D03*
X154000000Y-63500000D03*
X140700000Y-88400000D03*
%TO.N,+5V*%
X177377300Y-117922700D03*
X180277300Y-120822700D03*
X180777300Y-121322700D03*
X178200000Y-118700000D03*
%TO.N,+3.3V*%
X164200000Y-121500000D03*
X165200000Y-122500000D03*
X172454800Y-122750200D03*
X170700000Y-122750200D03*
%TO.N,SPI_CS_MCP*%
X172430000Y-121790497D03*
%TO.N,SPI_MISO*%
X176700000Y-103000200D03*
%TO.N,CAN_RECEIVE_STATUS*%
X145477300Y-85500000D03*
%TO.N,CAN_SEND_STATUS*%
X145489599Y-87000000D03*
%TO.N,LORA_RECEIVE_STATUS*%
X144977300Y-98500000D03*
%TD*%
D20*
%TO.N,+5V*%
X177377300Y-117922700D02*
X180777300Y-121322700D01*
%TO.N,+3.3V*%
X172454800Y-122750200D02*
X165450200Y-122750200D01*
X165200000Y-122500000D02*
X164200000Y-121500000D01*
X165450200Y-122750200D02*
X165200000Y-122500000D01*
D21*
%TO.N,SPI_CS_MCP*%
X160930000Y-117290000D02*
X160930000Y-108040000D01*
X160930000Y-108040000D02*
X159769800Y-106879800D01*
X165430497Y-121790497D02*
X160930000Y-117290000D01*
X159769800Y-106879800D02*
X158352500Y-106879800D01*
X172430000Y-121790497D02*
X165430497Y-121790497D01*
%TO.N,SPI_MOSI*%
X158400000Y-104300000D02*
X177827300Y-104300000D01*
X178407500Y-104880200D02*
X185454800Y-104880200D01*
X177827300Y-104300000D02*
X178407500Y-104880200D01*
%TO.N,SPI_SCLK*%
X161727500Y-103750200D02*
X177777300Y-103750200D01*
X179187300Y-102340200D02*
X185454800Y-102340200D01*
X159737100Y-101759800D02*
X161727500Y-103750200D01*
X177777300Y-103750200D02*
X179187300Y-102340200D01*
X158399800Y-101759800D02*
X159737100Y-101759800D01*
%TO.N,SPI_MISO*%
X163454800Y-103000200D02*
X159674400Y-99219800D01*
X159674400Y-99219800D02*
X158399800Y-99219800D01*
X176700000Y-103000200D02*
X163454800Y-103000200D01*
D22*
%TO.N,CAN_RECEIVE_STATUS*%
X141977300Y-97000000D02*
X139757500Y-99219800D01*
X141977300Y-89000000D02*
X141977300Y-97000000D01*
X145477300Y-85500000D02*
X141977300Y-89000000D01*
X139757500Y-99219800D02*
X138079800Y-99219800D01*
%TO.N,CAN_SEND_STATUS*%
X139717500Y-101759800D02*
X138079800Y-101759800D01*
X142477300Y-90012299D02*
X142477300Y-99000000D01*
X142477300Y-99000000D02*
X139717500Y-101759800D01*
X145489599Y-87000000D02*
X142477300Y-90012299D01*
%TO.N,LORA_RECEIVE_STATUS*%
X144977300Y-99000000D02*
X139677500Y-104299800D01*
X144977300Y-98500000D02*
X144977300Y-99000000D01*
X139677500Y-104299800D02*
X138079800Y-104299800D01*
%TD*%
%TA.AperFunction,Conductor*%
%TO.N,GND*%
G36*
X149237930Y-50304921D02*
G01*
X150709866Y-50344600D01*
X150711517Y-50344667D01*
X152181902Y-50423999D01*
X152183480Y-50424105D01*
X153651289Y-50543039D01*
X153652821Y-50543185D01*
X155116823Y-50701621D01*
X155118471Y-50701822D01*
X156577633Y-50899648D01*
X156579181Y-50899878D01*
X158032561Y-51136965D01*
X158034164Y-51137249D01*
X159480528Y-51413395D01*
X159482157Y-51413728D01*
X160920595Y-51728759D01*
X160922186Y-51729131D01*
X162351579Y-52082800D01*
X162353117Y-52083202D01*
X163772548Y-52475286D01*
X163774060Y-52475726D01*
X165182377Y-52905907D01*
X165183960Y-52906414D01*
X166580132Y-53374376D01*
X166581652Y-53374908D01*
X167964724Y-53880329D01*
X167966227Y-53880900D01*
X169335191Y-54423414D01*
X169336713Y-54424041D01*
X170690502Y-55003222D01*
X170692033Y-55003901D01*
X172029779Y-55619378D01*
X172031205Y-55620058D01*
X172842024Y-56019921D01*
X173351855Y-56271349D01*
X173353355Y-56272114D01*
X174176571Y-56706050D01*
X174601574Y-56930079D01*
X174655930Y-56958731D01*
X174657405Y-56959534D01*
X175941046Y-57681027D01*
X175942456Y-57681844D01*
X177206215Y-58437682D01*
X177207565Y-58438514D01*
X178450509Y-59228139D01*
X178451880Y-59229036D01*
X179409748Y-59874431D01*
X179673036Y-60051830D01*
X179674418Y-60052789D01*
X180872971Y-60908198D01*
X180874261Y-60909145D01*
X182049379Y-61796580D01*
X182050660Y-61797575D01*
X183201366Y-62716299D01*
X183202668Y-62717367D01*
X184328216Y-63666780D01*
X184329488Y-63667883D01*
X185429025Y-64647264D01*
X185430268Y-64648402D01*
X186502989Y-65657034D01*
X186504200Y-65658204D01*
X187549390Y-66695414D01*
X187550550Y-66696596D01*
X188567412Y-67761596D01*
X188568548Y-67762819D01*
X188999293Y-68239011D01*
X189556334Y-68854826D01*
X189557447Y-68856090D01*
X190515457Y-69974330D01*
X190516535Y-69975624D01*
X191444033Y-71119237D01*
X191445076Y-71120559D01*
X192341421Y-72288748D01*
X192342429Y-72290099D01*
X193207007Y-73482074D01*
X193207977Y-73483450D01*
X194040080Y-74698229D01*
X194041013Y-74699631D01*
X194840095Y-75936418D01*
X194840990Y-75937845D01*
X195606459Y-77195725D01*
X195607315Y-77197176D01*
X196338592Y-78475195D01*
X196339409Y-78476668D01*
X197035996Y-79773957D01*
X197036773Y-79775452D01*
X197698148Y-81091039D01*
X197698883Y-81092552D01*
X198213584Y-82189052D01*
X198324561Y-82425472D01*
X198325256Y-82427006D01*
X198914781Y-83776287D01*
X198915435Y-83777839D01*
X199468412Y-85142579D01*
X199469023Y-85144149D01*
X199984997Y-86523223D01*
X199985566Y-86524808D01*
X200464201Y-87917321D01*
X200464727Y-87918921D01*
X200905661Y-89323813D01*
X200906144Y-89325427D01*
X201309063Y-90741704D01*
X201309502Y-90743330D01*
X201674109Y-92169943D01*
X201674504Y-92171580D01*
X202000541Y-93607534D01*
X202000891Y-93609182D01*
X202288098Y-95053307D01*
X202288405Y-95054963D01*
X202536609Y-96506410D01*
X202536870Y-96508074D01*
X202745861Y-97965600D01*
X202746078Y-97967270D01*
X202915724Y-99429971D01*
X202915895Y-99431647D01*
X203046056Y-100898306D01*
X203046183Y-100899986D01*
X203136779Y-102369688D01*
X203136860Y-102371370D01*
X203187818Y-103842982D01*
X203187853Y-103844666D01*
X203199137Y-105317077D01*
X203199127Y-105318761D01*
X203170730Y-106790941D01*
X203170675Y-106792625D01*
X203102615Y-108263508D01*
X203102515Y-108265189D01*
X202994843Y-109733742D01*
X202994697Y-109735420D01*
X202847492Y-111200505D01*
X202847301Y-111202179D01*
X202660669Y-112662777D01*
X202660433Y-112664445D01*
X202434509Y-114119479D01*
X202434228Y-114121139D01*
X202169182Y-115569531D01*
X202168857Y-115571184D01*
X201864866Y-117011959D01*
X201864496Y-117013602D01*
X201521800Y-118445626D01*
X201521386Y-118447259D01*
X201140220Y-119869545D01*
X201139762Y-119871166D01*
X200720404Y-121282675D01*
X200719902Y-121284283D01*
X200262679Y-122683921D01*
X200262135Y-122685515D01*
X199767331Y-124072415D01*
X199766743Y-124073993D01*
X199234787Y-125446945D01*
X199234158Y-125448508D01*
X198665349Y-126806740D01*
X198664677Y-126808284D01*
X198059508Y-128150622D01*
X198058795Y-128152148D01*
X197417682Y-129477672D01*
X197416929Y-129479179D01*
X196740291Y-130787021D01*
X196739497Y-130788506D01*
X196027877Y-132077611D01*
X196027043Y-132079074D01*
X195280961Y-133348506D01*
X195280088Y-133349947D01*
X194500039Y-134598861D01*
X194499127Y-134600277D01*
X193685751Y-135827650D01*
X193684802Y-135829042D01*
X192838611Y-137034102D01*
X192837625Y-137035467D01*
X191959268Y-138217287D01*
X191958245Y-138218625D01*
X191048365Y-139376340D01*
X191047306Y-139377650D01*
X190106596Y-140510382D01*
X190105503Y-140511664D01*
X189134544Y-141618711D01*
X189133416Y-141619962D01*
X188133015Y-142700401D01*
X188131854Y-142701621D01*
X187102720Y-143754691D01*
X187101527Y-143755880D01*
X186146461Y-144681872D01*
X186102955Y-144699500D01*
X110897045Y-144699500D01*
X110853539Y-144681872D01*
X109898472Y-143755880D01*
X109897279Y-143754691D01*
X108868145Y-142701621D01*
X108866984Y-142700401D01*
X107866583Y-141619962D01*
X107865455Y-141618711D01*
X106894496Y-140511664D01*
X106893403Y-140510382D01*
X105952693Y-139377650D01*
X105951634Y-139376340D01*
X105041754Y-138218625D01*
X105040731Y-138217287D01*
X104162374Y-137035467D01*
X104161388Y-137034102D01*
X103315197Y-135829042D01*
X103314248Y-135827650D01*
X103228775Y-135698673D01*
X102713610Y-134921296D01*
X116045717Y-134921296D01*
X116055802Y-135235789D01*
X116106021Y-135546410D01*
X116151211Y-135698670D01*
X116195549Y-135848059D01*
X116322916Y-136135786D01*
X116406058Y-136272936D01*
X116486030Y-136404858D01*
X116682214Y-136650865D01*
X116682215Y-136650866D01*
X116908246Y-136869765D01*
X117160415Y-137057963D01*
X117434578Y-137212370D01*
X117591962Y-137276087D01*
X117726238Y-137330449D01*
X118030601Y-137410263D01*
X118342673Y-137450500D01*
X118578573Y-137450500D01*
X118578580Y-137450500D01*
X118814008Y-137435385D01*
X119122860Y-137375236D01*
X119421485Y-137276086D01*
X119704979Y-137139562D01*
X119968687Y-136967907D01*
X120208280Y-136763939D01*
X120419822Y-136531007D01*
X120599842Y-136272936D01*
X120745381Y-135993964D01*
X120854052Y-135698670D01*
X120924069Y-135391905D01*
X120954283Y-135078704D01*
X120944198Y-134764211D01*
X120893979Y-134453590D01*
X120804451Y-134151941D01*
X120721758Y-133965136D01*
X160956800Y-133965136D01*
X160971565Y-134115051D01*
X161029919Y-134307419D01*
X161039684Y-134325688D01*
X161124679Y-134484703D01*
X161252206Y-134640094D01*
X161407597Y-134767621D01*
X161584882Y-134862381D01*
X161777247Y-134920734D01*
X161977300Y-134940438D01*
X162177353Y-134920734D01*
X162369718Y-134862381D01*
X162547003Y-134767621D01*
X162702394Y-134640094D01*
X162829921Y-134484703D01*
X162924681Y-134307418D01*
X162979555Y-134126520D01*
X163001887Y-134094647D01*
X163038750Y-134082167D01*
X163075852Y-134093921D01*
X163098804Y-134125349D01*
X163107445Y-134151941D01*
X163150120Y-134283282D01*
X163244768Y-134447218D01*
X163303468Y-134512410D01*
X163371429Y-134587888D01*
X163524570Y-134699151D01*
X163697497Y-134776144D01*
X163820934Y-134802381D01*
X163882653Y-134815500D01*
X163882654Y-134815500D01*
X164071946Y-134815500D01*
X164071947Y-134815500D01*
X164118235Y-134805661D01*
X164257103Y-134776144D01*
X164430030Y-134699151D01*
X164583171Y-134587888D01*
X164709833Y-134447216D01*
X164804479Y-134283284D01*
X164812679Y-134258045D01*
X164835745Y-134226535D01*
X164873012Y-134214865D01*
X164909931Y-134227594D01*
X164932088Y-134259751D01*
X164951449Y-134325688D01*
X165047710Y-134512410D01*
X165177570Y-134677539D01*
X165336333Y-134815108D01*
X165518264Y-134920146D01*
X165716785Y-134988855D01*
X165727300Y-134990367D01*
X165727300Y-130393741D01*
X165615888Y-130420770D01*
X165424800Y-130508036D01*
X165253674Y-130629895D01*
X165108707Y-130781931D01*
X164995133Y-130958656D01*
X164929268Y-131123178D01*
X164905409Y-131152285D01*
X164869162Y-131162414D01*
X164833670Y-131149893D01*
X164811804Y-131119261D01*
X164804480Y-131096719D01*
X164804479Y-131096717D01*
X164804479Y-131096716D01*
X164709833Y-130932784D01*
X164709832Y-130932783D01*
X164709831Y-130932781D01*
X164637811Y-130852796D01*
X164583171Y-130792112D01*
X164430030Y-130680849D01*
X164257103Y-130603856D01*
X164257101Y-130603855D01*
X164257100Y-130603855D01*
X164071947Y-130564500D01*
X164071946Y-130564500D01*
X163882654Y-130564500D01*
X163882653Y-130564500D01*
X163697499Y-130603855D01*
X163524571Y-130680848D01*
X163524569Y-130680849D01*
X163524570Y-130680849D01*
X163371429Y-130792112D01*
X163371426Y-130792114D01*
X163371426Y-130792115D01*
X163244768Y-130932781D01*
X163150120Y-131096717D01*
X163119740Y-131190218D01*
X163092955Y-131224194D01*
X163050522Y-131232634D01*
X163012774Y-131211494D01*
X162997799Y-131170904D01*
X162997799Y-131075811D01*
X162997799Y-131075806D01*
X162991661Y-131008251D01*
X162943220Y-130852797D01*
X162858983Y-130713453D01*
X162743847Y-130598317D01*
X162604503Y-130514080D01*
X162534133Y-130492152D01*
X162449047Y-130465638D01*
X162381499Y-130459500D01*
X161573110Y-130459500D01*
X161543548Y-130462186D01*
X161505551Y-130465639D01*
X161420464Y-130492152D01*
X161350096Y-130514080D01*
X161210752Y-130598317D01*
X161095617Y-130713452D01*
X161011380Y-130852797D01*
X160962938Y-131008252D01*
X160956800Y-131075800D01*
X160956800Y-132304189D01*
X160958754Y-132325688D01*
X160962939Y-132371749D01*
X160986456Y-132447218D01*
X161011380Y-132527203D01*
X161095617Y-132666547D01*
X161174633Y-132745563D01*
X161192864Y-132786690D01*
X161178753Y-132829406D01*
X161124678Y-132895298D01*
X161029919Y-133072580D01*
X160971565Y-133264948D01*
X160956800Y-133414864D01*
X160956800Y-133965136D01*
X120721758Y-133965136D01*
X120677084Y-133864216D01*
X120677083Y-133864213D01*
X120513971Y-133595144D01*
X120513970Y-133595142D01*
X120317786Y-133349135D01*
X120264811Y-133297832D01*
X120091753Y-133130234D01*
X119839584Y-132942036D01*
X119565421Y-132787629D01*
X119273766Y-132669552D01*
X118969397Y-132589736D01*
X118657327Y-132549500D01*
X118421420Y-132549500D01*
X118185992Y-132564615D01*
X118185988Y-132564615D01*
X118185984Y-132564616D01*
X117877143Y-132624763D01*
X117578519Y-132723912D01*
X117295014Y-132860441D01*
X117031312Y-133032093D01*
X116791721Y-133236059D01*
X116580178Y-133468992D01*
X116400157Y-133727065D01*
X116254618Y-134006036D01*
X116152589Y-134283284D01*
X116145948Y-134301330D01*
X116144558Y-134307419D01*
X116075930Y-134608097D01*
X116051400Y-134862381D01*
X116045717Y-134921296D01*
X102713610Y-134921296D01*
X102500867Y-134600270D01*
X102499960Y-134598861D01*
X102493106Y-134587888D01*
X102102308Y-133962192D01*
X101719911Y-133349947D01*
X101719038Y-133348506D01*
X101293673Y-132624763D01*
X100972945Y-132079055D01*
X100972122Y-132077611D01*
X100908405Y-131962188D01*
X100260500Y-130788503D01*
X100259708Y-130787021D01*
X100054111Y-130389633D01*
X166227300Y-130389633D01*
X166227300Y-134986258D01*
X166338711Y-134959229D01*
X166421774Y-134921296D01*
X176045717Y-134921296D01*
X176055802Y-135235789D01*
X176106021Y-135546410D01*
X176151211Y-135698670D01*
X176195549Y-135848059D01*
X176322916Y-136135786D01*
X176406058Y-136272936D01*
X176486030Y-136404858D01*
X176682214Y-136650865D01*
X176682215Y-136650866D01*
X176908246Y-136869765D01*
X177160415Y-137057963D01*
X177434578Y-137212370D01*
X177591962Y-137276087D01*
X177726238Y-137330449D01*
X178030601Y-137410263D01*
X178342673Y-137450500D01*
X178578573Y-137450500D01*
X178578580Y-137450500D01*
X178814008Y-137435385D01*
X179122860Y-137375236D01*
X179421485Y-137276086D01*
X179704979Y-137139562D01*
X179968687Y-136967907D01*
X180208280Y-136763939D01*
X180419822Y-136531007D01*
X180599842Y-136272936D01*
X180745381Y-135993964D01*
X180854052Y-135698670D01*
X180924069Y-135391905D01*
X180954283Y-135078704D01*
X180944198Y-134764211D01*
X180893979Y-134453590D01*
X180804451Y-134151941D01*
X180677084Y-133864216D01*
X180677083Y-133864213D01*
X180513971Y-133595144D01*
X180513970Y-133595142D01*
X180317786Y-133349135D01*
X180264811Y-133297832D01*
X180091753Y-133130234D01*
X179839584Y-132942036D01*
X179565421Y-132787629D01*
X179273766Y-132669552D01*
X178969397Y-132589736D01*
X178657327Y-132549500D01*
X178421420Y-132549500D01*
X178185992Y-132564615D01*
X178185988Y-132564615D01*
X178185984Y-132564616D01*
X177877143Y-132624763D01*
X177578519Y-132723912D01*
X177295014Y-132860441D01*
X177031312Y-133032093D01*
X176791721Y-133236059D01*
X176580178Y-133468992D01*
X176400157Y-133727065D01*
X176254618Y-134006036D01*
X176152589Y-134283284D01*
X176145948Y-134301330D01*
X176144558Y-134307419D01*
X176075930Y-134608097D01*
X176051400Y-134862381D01*
X176045717Y-134921296D01*
X166421774Y-134921296D01*
X166529799Y-134871963D01*
X166700925Y-134750104D01*
X166845892Y-134598068D01*
X166959466Y-134421343D01*
X167025331Y-134256821D01*
X167049189Y-134227714D01*
X167085436Y-134217585D01*
X167120928Y-134230106D01*
X167142794Y-134260736D01*
X167150121Y-134283284D01*
X167174603Y-134325688D01*
X167244768Y-134447218D01*
X167303468Y-134512410D01*
X167371429Y-134587888D01*
X167524570Y-134699151D01*
X167697497Y-134776144D01*
X167820934Y-134802381D01*
X167882653Y-134815500D01*
X167882654Y-134815500D01*
X168071946Y-134815500D01*
X168071947Y-134815500D01*
X168118235Y-134805661D01*
X168257103Y-134776144D01*
X168430030Y-134699151D01*
X168583171Y-134587888D01*
X168709833Y-134447216D01*
X168804479Y-134283284D01*
X168862974Y-134103256D01*
X168877800Y-133962192D01*
X168877800Y-133417808D01*
X168862974Y-133276744D01*
X168804479Y-133096716D01*
X168709833Y-132932784D01*
X168709832Y-132932783D01*
X168709831Y-132932781D01*
X168583171Y-132792112D01*
X168512219Y-132740562D01*
X168489515Y-132709312D01*
X168489515Y-132670685D01*
X168512217Y-132639438D01*
X168583171Y-132587888D01*
X168709833Y-132447216D01*
X168804479Y-132283284D01*
X168862974Y-132103256D01*
X168877800Y-131962192D01*
X168877800Y-131417808D01*
X168862974Y-131276744D01*
X168804479Y-131096716D01*
X168709833Y-130932784D01*
X168709832Y-130932783D01*
X168709831Y-130932781D01*
X168637811Y-130852796D01*
X168583171Y-130792112D01*
X168430030Y-130680849D01*
X168257103Y-130603856D01*
X168257101Y-130603855D01*
X168257100Y-130603855D01*
X168071947Y-130564500D01*
X168071946Y-130564500D01*
X167882654Y-130564500D01*
X167882653Y-130564500D01*
X167697499Y-130603855D01*
X167524571Y-130680848D01*
X167524569Y-130680849D01*
X167524570Y-130680849D01*
X167371429Y-130792112D01*
X167371426Y-130792114D01*
X167371426Y-130792115D01*
X167244768Y-130932781D01*
X167150121Y-131096716D01*
X167141920Y-131121955D01*
X167118853Y-131153465D01*
X167081586Y-131165134D01*
X167044667Y-131152405D01*
X167022511Y-131120248D01*
X167003150Y-131054310D01*
X166906889Y-130867589D01*
X166777029Y-130702460D01*
X166618266Y-130564891D01*
X166436335Y-130459853D01*
X166237814Y-130391144D01*
X166227300Y-130389633D01*
X100054111Y-130389633D01*
X99583070Y-129479179D01*
X99582317Y-129477672D01*
X99351008Y-128999432D01*
X170469615Y-128999432D01*
X170489124Y-129234866D01*
X170547117Y-129463877D01*
X170600388Y-129585323D01*
X170642014Y-129680221D01*
X170771224Y-129877992D01*
X170771225Y-129877993D01*
X170931227Y-130051800D01*
X171117654Y-130196902D01*
X171325421Y-130309340D01*
X171548861Y-130386048D01*
X171781880Y-130424932D01*
X172018118Y-130424932D01*
X172018120Y-130424932D01*
X172251139Y-130386048D01*
X172474579Y-130309340D01*
X172682346Y-130196902D01*
X172868773Y-130051800D01*
X173028775Y-129877993D01*
X173157986Y-129680220D01*
X173252883Y-129463877D01*
X173310876Y-129234866D01*
X173330385Y-128999432D01*
X173310876Y-128763998D01*
X173252883Y-128534987D01*
X173157986Y-128318644D01*
X173028775Y-128120871D01*
X172868773Y-127947064D01*
X172682346Y-127801962D01*
X172474579Y-127689524D01*
X172251139Y-127612816D01*
X172018120Y-127573932D01*
X171781880Y-127573932D01*
X171548861Y-127612815D01*
X171548861Y-127612816D01*
X171325418Y-127689525D01*
X171117652Y-127801963D01*
X170931229Y-127947062D01*
X170771224Y-128120871D01*
X170642014Y-128318642D01*
X170558763Y-128508435D01*
X170547117Y-128534987D01*
X170489124Y-128763998D01*
X170469615Y-128999432D01*
X99351008Y-128999432D01*
X99021732Y-128318642D01*
X98941188Y-128152114D01*
X98940507Y-128150656D01*
X98335320Y-126808280D01*
X98334650Y-126806740D01*
X98238854Y-126577993D01*
X97870925Y-125699432D01*
X170469615Y-125699432D01*
X170489124Y-125934866D01*
X170547117Y-126163877D01*
X170577766Y-126233750D01*
X170642014Y-126380221D01*
X170771224Y-126577992D01*
X170771225Y-126577993D01*
X170931227Y-126751800D01*
X171117654Y-126896902D01*
X171325421Y-127009340D01*
X171548861Y-127086048D01*
X171781880Y-127124932D01*
X172018118Y-127124932D01*
X172018120Y-127124932D01*
X172251139Y-127086048D01*
X172474579Y-127009340D01*
X172682346Y-126896902D01*
X172780894Y-126820199D01*
X184579217Y-126820199D01*
X184599499Y-127026132D01*
X184599500Y-127026134D01*
X184659568Y-127224154D01*
X184673039Y-127249356D01*
X184757117Y-127406653D01*
X184888389Y-127566610D01*
X185038162Y-127689524D01*
X185048350Y-127697885D01*
X185230846Y-127795432D01*
X185428866Y-127855500D01*
X185634800Y-127875783D01*
X185840734Y-127855500D01*
X186038754Y-127795432D01*
X186221250Y-127697885D01*
X186381210Y-127566610D01*
X186512485Y-127406650D01*
X186610032Y-127224154D01*
X186670100Y-127026134D01*
X186690383Y-126820200D01*
X186690383Y-126820199D01*
X187119217Y-126820199D01*
X187139499Y-127026132D01*
X187139500Y-127026134D01*
X187199568Y-127224154D01*
X187213039Y-127249356D01*
X187297117Y-127406653D01*
X187428389Y-127566610D01*
X187578162Y-127689524D01*
X187588350Y-127697885D01*
X187770846Y-127795432D01*
X187968866Y-127855500D01*
X188174800Y-127875783D01*
X188380734Y-127855500D01*
X188578754Y-127795432D01*
X188761250Y-127697885D01*
X188921210Y-127566610D01*
X189052485Y-127406650D01*
X189150032Y-127224154D01*
X189210100Y-127026134D01*
X189230383Y-126820200D01*
X189230383Y-126820199D01*
X189659217Y-126820199D01*
X189679499Y-127026132D01*
X189679500Y-127026134D01*
X189739568Y-127224154D01*
X189753039Y-127249356D01*
X189837117Y-127406653D01*
X189968389Y-127566610D01*
X190118162Y-127689524D01*
X190128350Y-127697885D01*
X190310846Y-127795432D01*
X190508866Y-127855500D01*
X190714800Y-127875783D01*
X190841287Y-127863325D01*
X192565226Y-127863325D01*
X192627410Y-127906866D01*
X192825643Y-127999303D01*
X193036910Y-128055912D01*
X193254800Y-128074975D01*
X193472689Y-128055912D01*
X193683956Y-127999303D01*
X193882185Y-127906867D01*
X193944371Y-127863324D01*
X193254800Y-127173753D01*
X192565226Y-127863325D01*
X190841287Y-127863325D01*
X190920734Y-127855500D01*
X191118754Y-127795432D01*
X191301250Y-127697885D01*
X191461210Y-127566610D01*
X191592485Y-127406650D01*
X191690032Y-127224154D01*
X191750100Y-127026134D01*
X191770383Y-126820200D01*
X191770383Y-126820199D01*
X192000024Y-126820199D01*
X192019087Y-127038089D01*
X192075696Y-127249356D01*
X192168134Y-127447589D01*
X192211673Y-127509772D01*
X192901247Y-126820200D01*
X193608353Y-126820200D01*
X194297924Y-127509771D01*
X194341467Y-127447585D01*
X194433903Y-127249356D01*
X194490512Y-127038089D01*
X194509575Y-126820199D01*
X194490512Y-126602310D01*
X194433903Y-126391043D01*
X194341467Y-126192814D01*
X194297923Y-126130628D01*
X193608353Y-126820200D01*
X192901247Y-126820200D01*
X192211674Y-126130627D01*
X192168133Y-126192811D01*
X192075696Y-126391043D01*
X192019087Y-126602310D01*
X192000024Y-126820199D01*
X191770383Y-126820199D01*
X191750100Y-126614266D01*
X191690032Y-126416246D01*
X191592485Y-126233750D01*
X191558890Y-126192814D01*
X191461210Y-126073789D01*
X191301253Y-125942517D01*
X191301251Y-125942516D01*
X191301250Y-125942515D01*
X191118754Y-125844968D01*
X191032529Y-125818812D01*
X190920732Y-125784899D01*
X190841281Y-125777074D01*
X192565227Y-125777074D01*
X193254799Y-126466646D01*
X193944372Y-125777073D01*
X193882189Y-125733534D01*
X193683956Y-125641096D01*
X193472689Y-125584487D01*
X193254800Y-125565424D01*
X193036910Y-125584487D01*
X192825643Y-125641096D01*
X192627411Y-125733533D01*
X192565227Y-125777074D01*
X190841281Y-125777074D01*
X190714800Y-125764617D01*
X190508867Y-125784899D01*
X190310846Y-125844968D01*
X190128346Y-125942517D01*
X189968389Y-126073789D01*
X189837117Y-126233746D01*
X189739568Y-126416246D01*
X189679499Y-126614267D01*
X189659217Y-126820199D01*
X189230383Y-126820199D01*
X189210100Y-126614266D01*
X189150032Y-126416246D01*
X189052485Y-126233750D01*
X189018890Y-126192814D01*
X188921210Y-126073789D01*
X188761253Y-125942517D01*
X188761251Y-125942516D01*
X188761250Y-125942515D01*
X188578754Y-125844968D01*
X188492529Y-125818812D01*
X188380732Y-125784899D01*
X188174800Y-125764617D01*
X187968867Y-125784899D01*
X187770846Y-125844968D01*
X187588346Y-125942517D01*
X187428389Y-126073789D01*
X187297117Y-126233746D01*
X187199568Y-126416246D01*
X187139499Y-126614267D01*
X187119217Y-126820199D01*
X186690383Y-126820199D01*
X186670100Y-126614266D01*
X186610032Y-126416246D01*
X186512485Y-126233750D01*
X186478890Y-126192814D01*
X186381210Y-126073789D01*
X186221253Y-125942517D01*
X186221251Y-125942516D01*
X186221250Y-125942515D01*
X186038754Y-125844968D01*
X185952529Y-125818812D01*
X185840732Y-125784899D01*
X185634800Y-125764617D01*
X185428867Y-125784899D01*
X185230846Y-125844968D01*
X185048346Y-125942517D01*
X184888389Y-126073789D01*
X184757117Y-126233746D01*
X184659568Y-126416246D01*
X184599499Y-126614267D01*
X184579217Y-126820199D01*
X172780894Y-126820199D01*
X172868773Y-126751800D01*
X173028775Y-126577993D01*
X173157986Y-126380220D01*
X173252883Y-126163877D01*
X173310876Y-125934866D01*
X173330385Y-125699432D01*
X173310876Y-125463998D01*
X173252883Y-125234987D01*
X173157986Y-125018644D01*
X173028775Y-124820871D01*
X172868773Y-124647064D01*
X172682346Y-124501962D01*
X172474579Y-124389524D01*
X172251139Y-124312816D01*
X172018120Y-124273932D01*
X171781880Y-124273932D01*
X171548860Y-124312816D01*
X171548861Y-124312816D01*
X171325418Y-124389525D01*
X171117652Y-124501963D01*
X170931229Y-124647062D01*
X170771224Y-124820871D01*
X170642014Y-125018642D01*
X170558763Y-125208436D01*
X170547117Y-125234987D01*
X170489124Y-125463998D01*
X170469615Y-125699432D01*
X97870925Y-125699432D01*
X97765820Y-125448457D01*
X97765234Y-125447000D01*
X97233236Y-124073940D01*
X97232686Y-124072464D01*
X96830354Y-122944757D01*
X96737864Y-122685515D01*
X96737320Y-122683921D01*
X96280097Y-121284283D01*
X96279595Y-121282675D01*
X96192037Y-120987965D01*
X95860224Y-119871121D01*
X95859791Y-119869590D01*
X95478598Y-118447203D01*
X95478213Y-118445682D01*
X95135499Y-117013588D01*
X95135133Y-117011959D01*
X94941828Y-116095782D01*
X94831133Y-115571139D01*
X94830826Y-115569577D01*
X94565765Y-114121107D01*
X94565497Y-114119521D01*
X94465422Y-113474999D01*
X136681936Y-113474999D01*
X136702150Y-113706051D01*
X136762179Y-113930077D01*
X136860199Y-114140281D01*
X136993229Y-114330269D01*
X137157230Y-114494270D01*
X137290260Y-114587418D01*
X137347219Y-114627301D01*
X137557421Y-114725320D01*
X137632097Y-114745329D01*
X137781448Y-114785349D01*
X137954627Y-114800500D01*
X137954629Y-114800500D01*
X138070371Y-114800500D01*
X138070373Y-114800500D01*
X138243551Y-114785349D01*
X138318226Y-114765339D01*
X138467579Y-114725320D01*
X138677781Y-114627301D01*
X138867769Y-114494270D01*
X139031770Y-114330269D01*
X139164801Y-114140282D01*
X139262820Y-113930079D01*
X139322849Y-113706050D01*
X139335996Y-113555783D01*
X139343063Y-113475000D01*
X157181936Y-113475000D01*
X157202150Y-113706051D01*
X157262179Y-113930077D01*
X157360199Y-114140281D01*
X157493229Y-114330269D01*
X157657230Y-114494270D01*
X157790260Y-114587418D01*
X157847219Y-114627301D01*
X158057421Y-114725320D01*
X158132097Y-114745329D01*
X158281448Y-114785349D01*
X158454627Y-114800500D01*
X158454629Y-114800500D01*
X158570371Y-114800500D01*
X158570373Y-114800500D01*
X158743551Y-114785349D01*
X158818226Y-114765339D01*
X158967579Y-114725320D01*
X159177781Y-114627301D01*
X159367769Y-114494270D01*
X159531770Y-114330269D01*
X159664801Y-114140282D01*
X159762820Y-113930079D01*
X159822849Y-113706050D01*
X159835996Y-113555783D01*
X159843063Y-113475000D01*
X159822849Y-113243948D01*
X159762820Y-113019922D01*
X159762820Y-113019921D01*
X159664801Y-112809719D01*
X159592269Y-112706132D01*
X159531770Y-112619730D01*
X159367769Y-112455729D01*
X159177781Y-112322699D01*
X158967577Y-112224679D01*
X158743551Y-112164650D01*
X158570373Y-112149500D01*
X158570371Y-112149500D01*
X158454629Y-112149500D01*
X158454627Y-112149500D01*
X158281448Y-112164650D01*
X158057422Y-112224679D01*
X157847218Y-112322699D01*
X157657230Y-112455729D01*
X157493229Y-112619730D01*
X157360199Y-112809717D01*
X157262179Y-113019922D01*
X157202150Y-113243948D01*
X157181936Y-113475000D01*
X139343063Y-113475000D01*
X139322849Y-113243948D01*
X139262820Y-113019922D01*
X139262820Y-113019921D01*
X139164801Y-112809719D01*
X139092269Y-112706132D01*
X139031770Y-112619730D01*
X138867769Y-112455729D01*
X138677781Y-112322699D01*
X138467577Y-112224679D01*
X138243551Y-112164650D01*
X138070373Y-112149500D01*
X138070371Y-112149500D01*
X137954629Y-112149500D01*
X137954627Y-112149500D01*
X137781448Y-112164650D01*
X137557422Y-112224679D01*
X137347218Y-112322699D01*
X137157230Y-112455729D01*
X136993229Y-112619730D01*
X136860199Y-112809717D01*
X136762179Y-113019922D01*
X136702150Y-113243948D01*
X136681936Y-113474999D01*
X94465422Y-113474999D01*
X94339556Y-112664375D01*
X94339338Y-112662836D01*
X94152692Y-111202128D01*
X94152512Y-111200556D01*
X94005296Y-109735353D01*
X94005161Y-109733809D01*
X93979206Y-109379800D01*
X137042898Y-109379800D01*
X137063257Y-109586516D01*
X137123555Y-109785293D01*
X137221473Y-109968484D01*
X137353247Y-110129052D01*
X137513815Y-110260826D01*
X137513817Y-110260827D01*
X137697008Y-110358745D01*
X137895782Y-110419042D01*
X138102500Y-110439402D01*
X138309218Y-110419042D01*
X138507992Y-110358745D01*
X138691183Y-110260827D01*
X138851752Y-110129052D01*
X138983527Y-109968483D01*
X139081445Y-109785292D01*
X139141742Y-109586518D01*
X139162102Y-109379800D01*
X157362898Y-109379800D01*
X157383257Y-109586516D01*
X157443555Y-109785293D01*
X157541473Y-109968484D01*
X157673247Y-110129052D01*
X157833815Y-110260826D01*
X157833817Y-110260827D01*
X158017008Y-110358745D01*
X158215782Y-110419042D01*
X158422500Y-110439402D01*
X158629218Y-110419042D01*
X158827992Y-110358745D01*
X159011183Y-110260827D01*
X159171752Y-110129052D01*
X159303527Y-109968483D01*
X159401445Y-109785292D01*
X159461742Y-109586518D01*
X159482102Y-109379800D01*
X159461742Y-109173082D01*
X159401445Y-108974308D01*
X159303527Y-108791117D01*
X159303526Y-108791115D01*
X159171752Y-108630547D01*
X159011184Y-108498773D01*
X158827993Y-108400855D01*
X158629216Y-108340557D01*
X158422500Y-108320198D01*
X158215783Y-108340557D01*
X158017006Y-108400855D01*
X157833815Y-108498773D01*
X157673247Y-108630547D01*
X157541473Y-108791115D01*
X157443555Y-108974306D01*
X157383257Y-109173083D01*
X157362898Y-109379800D01*
X139162102Y-109379800D01*
X139141742Y-109173082D01*
X139081445Y-108974308D01*
X138983527Y-108791117D01*
X138983526Y-108791115D01*
X138851752Y-108630547D01*
X138691184Y-108498773D01*
X138507993Y-108400855D01*
X138309216Y-108340557D01*
X138102500Y-108320198D01*
X137895783Y-108340557D01*
X137697006Y-108400855D01*
X137513815Y-108498773D01*
X137353247Y-108630547D01*
X137221473Y-108791115D01*
X137123555Y-108974306D01*
X137063257Y-109173083D01*
X137042898Y-109379800D01*
X93979206Y-109379800D01*
X93897483Y-108265174D01*
X93897384Y-108263508D01*
X93893871Y-108187587D01*
X93831507Y-106839800D01*
X137042898Y-106839800D01*
X137063257Y-107046516D01*
X137123555Y-107245293D01*
X137221473Y-107428484D01*
X137353247Y-107589052D01*
X137513815Y-107720826D01*
X137665040Y-107801658D01*
X137697008Y-107818745D01*
X137895782Y-107879042D01*
X138102500Y-107899402D01*
X138309218Y-107879042D01*
X138507992Y-107818745D01*
X138691183Y-107720827D01*
X138851752Y-107589052D01*
X138983527Y-107428483D01*
X139081445Y-107245292D01*
X139141742Y-107046518D01*
X139162102Y-106839800D01*
X157362898Y-106839800D01*
X157383257Y-107046516D01*
X157443555Y-107245293D01*
X157541473Y-107428484D01*
X157673247Y-107589052D01*
X157833815Y-107720826D01*
X157985040Y-107801658D01*
X158017008Y-107818745D01*
X158215782Y-107879042D01*
X158422500Y-107899402D01*
X158629218Y-107879042D01*
X158827992Y-107818745D01*
X158832043Y-107816579D01*
X158843090Y-107812105D01*
X158844051Y-107811685D01*
X158844061Y-107811683D01*
X159704189Y-107436657D01*
X159740795Y-107432540D01*
X159773362Y-107449755D01*
X160511194Y-108187587D01*
X160529500Y-108231781D01*
X160529500Y-117226567D01*
X160529500Y-117353433D01*
X160532416Y-117362407D01*
X160537841Y-117379105D01*
X160540129Y-117388638D01*
X160544353Y-117415303D01*
X160556609Y-117439357D01*
X160560362Y-117448417D01*
X160568704Y-117474090D01*
X160584573Y-117495932D01*
X160589690Y-117504281D01*
X160601950Y-117528342D01*
X160601951Y-117528343D01*
X160621371Y-117547763D01*
X160621375Y-117547768D01*
X163972877Y-120899270D01*
X163990648Y-120935306D01*
X163982810Y-120974713D01*
X163952602Y-121001206D01*
X163919853Y-121014771D01*
X163803812Y-121103812D01*
X163714772Y-121219852D01*
X163658798Y-121354987D01*
X163639707Y-121499999D01*
X163658798Y-121645011D01*
X163658798Y-121645013D01*
X163658799Y-121645014D01*
X163658993Y-121645483D01*
X163681089Y-121698828D01*
X163682445Y-121702974D01*
X163684881Y-121707987D01*
X163714770Y-121780146D01*
X163753943Y-121831195D01*
X163756853Y-121835605D01*
X163760633Y-121839915D01*
X163803813Y-121896187D01*
X163860089Y-121939370D01*
X163866235Y-121944760D01*
X164755242Y-122833767D01*
X164760632Y-122839913D01*
X164803813Y-122896187D01*
X164860086Y-122939367D01*
X164866232Y-122944757D01*
X165053518Y-123132042D01*
X165055001Y-123133576D01*
X165099520Y-123181244D01*
X165137321Y-123204230D01*
X165142598Y-123207822D01*
X165177858Y-123234561D01*
X165199447Y-123243074D01*
X165208990Y-123247814D01*
X165228818Y-123259872D01*
X165271440Y-123271814D01*
X165277462Y-123273839D01*
X165318636Y-123290076D01*
X165338698Y-123292138D01*
X165341718Y-123292449D01*
X165352187Y-123294438D01*
X165374535Y-123300700D01*
X165418774Y-123300700D01*
X165425166Y-123301028D01*
X165469171Y-123305552D01*
X165469171Y-123305551D01*
X165469172Y-123305552D01*
X165492041Y-123301608D01*
X165502660Y-123300700D01*
X170621523Y-123300700D01*
X170629680Y-123301234D01*
X170700000Y-123310493D01*
X170770319Y-123301234D01*
X170778477Y-123300700D01*
X172376323Y-123300700D01*
X172384480Y-123301234D01*
X172454800Y-123310493D01*
X172599814Y-123291401D01*
X172734947Y-123235428D01*
X172850987Y-123146387D01*
X172940028Y-123030347D01*
X172996001Y-122895214D01*
X173015093Y-122750200D01*
X172996001Y-122605186D01*
X172940028Y-122470054D01*
X172850987Y-122354013D01*
X172794170Y-122310416D01*
X172772613Y-122279627D01*
X172772613Y-122242038D01*
X172794171Y-122211250D01*
X172826187Y-122186684D01*
X172915228Y-122070644D01*
X172971201Y-121935511D01*
X172990293Y-121790497D01*
X172971201Y-121645483D01*
X172915228Y-121510351D01*
X172826187Y-121394310D01*
X172826185Y-121394309D01*
X172826185Y-121394308D01*
X172710148Y-121305269D01*
X172575012Y-121249295D01*
X172430000Y-121230204D01*
X172284986Y-121249295D01*
X172260409Y-121259475D01*
X172250402Y-121262664D01*
X172226733Y-121268066D01*
X171865369Y-121386871D01*
X171845849Y-121389997D01*
X165622278Y-121389997D01*
X165578084Y-121371691D01*
X162129092Y-117922699D01*
X176817007Y-117922699D01*
X176836098Y-118067711D01*
X176858389Y-118121528D01*
X176859745Y-118125674D01*
X176862181Y-118130687D01*
X176892070Y-118202846D01*
X176931243Y-118253895D01*
X176934153Y-118258305D01*
X176937933Y-118262615D01*
X176981113Y-118318887D01*
X177037389Y-118362070D01*
X177043535Y-118367460D01*
X179832536Y-121156460D01*
X179837926Y-121162606D01*
X179881113Y-121218887D01*
X179937392Y-121262072D01*
X179943538Y-121267462D01*
X180332539Y-121656463D01*
X180337929Y-121662609D01*
X180381113Y-121718887D01*
X180497151Y-121807927D01*
X180497152Y-121807927D01*
X180497153Y-121807928D01*
X180632286Y-121863901D01*
X180777300Y-121882993D01*
X180922314Y-121863901D01*
X181057447Y-121807928D01*
X181173487Y-121718887D01*
X181262528Y-121602847D01*
X181318501Y-121467714D01*
X181337593Y-121322700D01*
X181318501Y-121177686D01*
X181296230Y-121123919D01*
X181294868Y-121119749D01*
X181292402Y-121114679D01*
X181262528Y-121042554D01*
X181223347Y-120991492D01*
X181220445Y-120987095D01*
X181216666Y-120982786D01*
X181210471Y-120974713D01*
X181173487Y-120926513D01*
X181148530Y-120907363D01*
X181117209Y-120883329D01*
X181111063Y-120877939D01*
X180722058Y-120488934D01*
X180716667Y-120482787D01*
X180673486Y-120426512D01*
X180617206Y-120383326D01*
X180611060Y-120377936D01*
X179433325Y-119200200D01*
X184579217Y-119200200D01*
X184599499Y-119406132D01*
X184599500Y-119406134D01*
X184659568Y-119604154D01*
X184673039Y-119629356D01*
X184757117Y-119786653D01*
X184888389Y-119946610D01*
X184978049Y-120020191D01*
X185048350Y-120077885D01*
X185230846Y-120175432D01*
X185428866Y-120235500D01*
X185634800Y-120255783D01*
X185840734Y-120235500D01*
X186038754Y-120175432D01*
X186221250Y-120077885D01*
X186381210Y-119946610D01*
X186512485Y-119786650D01*
X186610032Y-119604154D01*
X186670100Y-119406134D01*
X186690383Y-119200200D01*
X187119217Y-119200200D01*
X187139499Y-119406132D01*
X187139500Y-119406134D01*
X187199568Y-119604154D01*
X187213039Y-119629356D01*
X187297117Y-119786653D01*
X187428389Y-119946610D01*
X187518049Y-120020191D01*
X187588350Y-120077885D01*
X187770846Y-120175432D01*
X187968866Y-120235500D01*
X188174800Y-120255783D01*
X188301287Y-120243325D01*
X190025226Y-120243325D01*
X190087410Y-120286866D01*
X190285643Y-120379303D01*
X190496910Y-120435912D01*
X190714800Y-120454975D01*
X190932689Y-120435912D01*
X191143956Y-120379303D01*
X191342185Y-120286867D01*
X191404371Y-120243324D01*
X191156108Y-119995061D01*
X192204300Y-119995061D01*
X192207215Y-120020190D01*
X192252594Y-120122966D01*
X192332033Y-120202405D01*
X192332034Y-120202405D01*
X192332035Y-120202406D01*
X192434809Y-120247785D01*
X192459935Y-120250700D01*
X194049664Y-120250699D01*
X194074791Y-120247785D01*
X194177565Y-120202406D01*
X194257006Y-120122965D01*
X194302385Y-120020191D01*
X194305300Y-119995065D01*
X194305299Y-118405336D01*
X194302385Y-118380209D01*
X194257006Y-118277435D01*
X194257005Y-118277434D01*
X194257005Y-118277433D01*
X194177566Y-118197994D01*
X194102614Y-118164900D01*
X194074791Y-118152615D01*
X194049665Y-118149700D01*
X194049661Y-118149700D01*
X192459938Y-118149700D01*
X192434809Y-118152615D01*
X192332033Y-118197994D01*
X192252594Y-118277433D01*
X192207215Y-118380209D01*
X192204300Y-118405338D01*
X192204300Y-119995061D01*
X191156108Y-119995061D01*
X190714800Y-119553753D01*
X190025226Y-120243325D01*
X188301287Y-120243325D01*
X188380734Y-120235500D01*
X188578754Y-120175432D01*
X188761250Y-120077885D01*
X188921210Y-119946610D01*
X189052485Y-119786650D01*
X189150032Y-119604154D01*
X189210100Y-119406134D01*
X189230383Y-119200200D01*
X189460024Y-119200200D01*
X189479087Y-119418089D01*
X189535696Y-119629356D01*
X189628134Y-119827589D01*
X189671673Y-119889772D01*
X190361247Y-119200200D01*
X191068353Y-119200200D01*
X191757924Y-119889771D01*
X191801467Y-119827585D01*
X191893903Y-119629356D01*
X191950512Y-119418089D01*
X191969575Y-119200200D01*
X191950512Y-118982310D01*
X191893903Y-118771043D01*
X191801467Y-118572814D01*
X191757923Y-118510628D01*
X191068353Y-119200200D01*
X190361247Y-119200200D01*
X189671674Y-118510627D01*
X189628133Y-118572811D01*
X189535696Y-118771043D01*
X189479087Y-118982310D01*
X189460024Y-119200200D01*
X189230383Y-119200200D01*
X189210100Y-118994266D01*
X189150032Y-118796246D01*
X189052485Y-118613750D01*
X189018890Y-118572814D01*
X188921210Y-118453789D01*
X188761253Y-118322517D01*
X188761251Y-118322516D01*
X188761250Y-118322515D01*
X188578754Y-118224968D01*
X188485642Y-118196723D01*
X188380732Y-118164899D01*
X188301281Y-118157074D01*
X190025227Y-118157074D01*
X190714799Y-118846646D01*
X191404372Y-118157073D01*
X191342189Y-118113534D01*
X191143956Y-118021096D01*
X190932689Y-117964487D01*
X190714800Y-117945424D01*
X190496910Y-117964487D01*
X190285643Y-118021096D01*
X190087411Y-118113533D01*
X190025227Y-118157074D01*
X188301281Y-118157074D01*
X188174800Y-118144617D01*
X187968867Y-118164899D01*
X187770846Y-118224968D01*
X187588346Y-118322517D01*
X187428389Y-118453789D01*
X187297117Y-118613746D01*
X187199568Y-118796246D01*
X187139499Y-118994267D01*
X187119217Y-119200200D01*
X186690383Y-119200200D01*
X186670100Y-118994266D01*
X186610032Y-118796246D01*
X186512485Y-118613750D01*
X186478890Y-118572814D01*
X186381210Y-118453789D01*
X186221253Y-118322517D01*
X186221251Y-118322516D01*
X186221250Y-118322515D01*
X186038754Y-118224968D01*
X185945642Y-118196723D01*
X185840732Y-118164899D01*
X185634800Y-118144617D01*
X185428867Y-118164899D01*
X185230846Y-118224968D01*
X185048346Y-118322517D01*
X184888389Y-118453789D01*
X184757117Y-118613746D01*
X184659568Y-118796246D01*
X184599499Y-118994267D01*
X184579217Y-119200200D01*
X179433325Y-119200200D01*
X178716822Y-118483697D01*
X178703273Y-118463420D01*
X178685228Y-118419854D01*
X178596187Y-118303813D01*
X178561811Y-118277435D01*
X178480146Y-118214770D01*
X178436576Y-118196723D01*
X178416300Y-118183175D01*
X177822055Y-117588930D01*
X177816664Y-117582783D01*
X177773487Y-117526513D01*
X177773486Y-117526512D01*
X177657448Y-117437472D01*
X177522312Y-117381498D01*
X177377300Y-117362407D01*
X177232287Y-117381498D01*
X177097152Y-117437472D01*
X176981112Y-117526512D01*
X176892072Y-117642552D01*
X176836098Y-117777687D01*
X176817007Y-117922699D01*
X162129092Y-117922699D01*
X161348806Y-117142413D01*
X161330500Y-117098219D01*
X161330500Y-115040199D01*
X184399217Y-115040199D01*
X184419499Y-115246132D01*
X184419500Y-115246134D01*
X184479568Y-115444154D01*
X184546584Y-115569531D01*
X184577117Y-115626653D01*
X184708389Y-115786610D01*
X184798049Y-115860191D01*
X184868350Y-115917885D01*
X185050846Y-116015432D01*
X185248866Y-116075500D01*
X185454800Y-116095783D01*
X185660734Y-116075500D01*
X185858754Y-116015432D01*
X186041250Y-115917885D01*
X186142172Y-115835061D01*
X192024300Y-115835061D01*
X192027215Y-115860190D01*
X192072594Y-115962966D01*
X192152033Y-116042405D01*
X192152034Y-116042405D01*
X192152035Y-116042406D01*
X192254809Y-116087785D01*
X192279935Y-116090700D01*
X193869664Y-116090699D01*
X193894791Y-116087785D01*
X193997565Y-116042406D01*
X194077006Y-115962965D01*
X194122385Y-115860191D01*
X194125300Y-115835065D01*
X194125299Y-114245336D01*
X194122385Y-114220209D01*
X194077006Y-114117435D01*
X194077005Y-114117434D01*
X194077005Y-114117433D01*
X193997566Y-114037994D01*
X193922614Y-114004900D01*
X193894791Y-113992615D01*
X193869665Y-113989700D01*
X193869661Y-113989700D01*
X192279938Y-113989700D01*
X192254809Y-113992615D01*
X192152033Y-114037994D01*
X192072594Y-114117433D01*
X192027215Y-114220209D01*
X192024300Y-114245338D01*
X192024300Y-115835061D01*
X186142172Y-115835061D01*
X186201210Y-115786610D01*
X186332485Y-115626650D01*
X186430032Y-115444154D01*
X186490100Y-115246134D01*
X186510383Y-115040200D01*
X186490100Y-114834266D01*
X186430032Y-114636246D01*
X186332485Y-114453750D01*
X186332482Y-114453746D01*
X186201210Y-114293789D01*
X186041253Y-114162517D01*
X186041251Y-114162516D01*
X186041250Y-114162515D01*
X185858754Y-114064968D01*
X185769832Y-114037994D01*
X185660732Y-114004899D01*
X185454800Y-113984617D01*
X185248867Y-114004899D01*
X185050846Y-114064968D01*
X184868346Y-114162517D01*
X184708389Y-114293789D01*
X184577117Y-114453746D01*
X184479568Y-114636246D01*
X184419499Y-114834267D01*
X184399217Y-115040199D01*
X161330500Y-115040199D01*
X161330500Y-112500200D01*
X184399217Y-112500200D01*
X184419499Y-112706132D01*
X184419500Y-112706134D01*
X184479568Y-112904154D01*
X184541448Y-113019922D01*
X184577117Y-113086653D01*
X184708389Y-113246610D01*
X184868346Y-113377882D01*
X184868350Y-113377885D01*
X185050846Y-113475432D01*
X185248866Y-113535500D01*
X185454800Y-113555783D01*
X185660734Y-113535500D01*
X185858754Y-113475432D01*
X186041250Y-113377885D01*
X186201210Y-113246610D01*
X186332485Y-113086650D01*
X186430032Y-112904154D01*
X186490100Y-112706134D01*
X186510383Y-112500200D01*
X192019217Y-112500200D01*
X192039499Y-112706132D01*
X192039500Y-112706134D01*
X192099568Y-112904154D01*
X192161448Y-113019922D01*
X192197117Y-113086653D01*
X192328389Y-113246610D01*
X192488346Y-113377882D01*
X192488350Y-113377885D01*
X192670846Y-113475432D01*
X192868866Y-113535500D01*
X193074800Y-113555783D01*
X193280734Y-113535500D01*
X193478754Y-113475432D01*
X193661250Y-113377885D01*
X193821210Y-113246610D01*
X193952485Y-113086650D01*
X194050032Y-112904154D01*
X194110100Y-112706134D01*
X194130383Y-112500200D01*
X194110100Y-112294266D01*
X194050032Y-112096246D01*
X193952485Y-111913750D01*
X193952482Y-111913746D01*
X193821210Y-111753789D01*
X193661253Y-111622517D01*
X193661251Y-111622516D01*
X193661250Y-111622515D01*
X193478754Y-111524968D01*
X193392529Y-111498812D01*
X193280732Y-111464899D01*
X193074800Y-111444617D01*
X192868867Y-111464899D01*
X192670846Y-111524968D01*
X192488346Y-111622517D01*
X192328389Y-111753789D01*
X192197117Y-111913746D01*
X192099568Y-112096246D01*
X192039499Y-112294267D01*
X192019217Y-112500200D01*
X186510383Y-112500200D01*
X186490100Y-112294266D01*
X186430032Y-112096246D01*
X186332485Y-111913750D01*
X186332482Y-111913746D01*
X186201210Y-111753789D01*
X186041253Y-111622517D01*
X186041251Y-111622516D01*
X186041250Y-111622515D01*
X185858754Y-111524968D01*
X185772529Y-111498812D01*
X185660732Y-111464899D01*
X185454800Y-111444617D01*
X185248867Y-111464899D01*
X185050846Y-111524968D01*
X184868346Y-111622517D01*
X184708389Y-111753789D01*
X184577117Y-111913746D01*
X184479568Y-112096246D01*
X184419499Y-112294267D01*
X184399217Y-112500200D01*
X161330500Y-112500200D01*
X161330500Y-109960200D01*
X184399217Y-109960200D01*
X184419499Y-110166132D01*
X184419500Y-110166134D01*
X184479568Y-110364154D01*
X184577115Y-110546650D01*
X184577117Y-110546653D01*
X184708389Y-110706610D01*
X184868346Y-110837882D01*
X184868350Y-110837885D01*
X185050846Y-110935432D01*
X185248866Y-110995500D01*
X185454800Y-111015783D01*
X185660734Y-110995500D01*
X185858754Y-110935432D01*
X186041250Y-110837885D01*
X186201210Y-110706610D01*
X186332485Y-110546650D01*
X186430032Y-110364154D01*
X186490100Y-110166134D01*
X186510383Y-109960200D01*
X192019217Y-109960200D01*
X192039499Y-110166132D01*
X192039500Y-110166134D01*
X192099568Y-110364154D01*
X192197115Y-110546650D01*
X192197117Y-110546653D01*
X192328389Y-110706610D01*
X192488346Y-110837882D01*
X192488350Y-110837885D01*
X192670846Y-110935432D01*
X192868866Y-110995500D01*
X193074800Y-111015783D01*
X193280734Y-110995500D01*
X193478754Y-110935432D01*
X193661250Y-110837885D01*
X193821210Y-110706610D01*
X193952485Y-110546650D01*
X194050032Y-110364154D01*
X194110100Y-110166134D01*
X194130383Y-109960200D01*
X194110100Y-109754266D01*
X194050032Y-109556246D01*
X193952485Y-109373750D01*
X193952482Y-109373746D01*
X193821210Y-109213789D01*
X193661253Y-109082517D01*
X193661251Y-109082516D01*
X193661250Y-109082515D01*
X193478754Y-108984968D01*
X193392529Y-108958812D01*
X193280732Y-108924899D01*
X193074800Y-108904617D01*
X192868867Y-108924899D01*
X192670846Y-108984968D01*
X192488346Y-109082517D01*
X192328389Y-109213789D01*
X192197117Y-109373746D01*
X192099568Y-109556246D01*
X192039499Y-109754267D01*
X192019217Y-109960200D01*
X186510383Y-109960200D01*
X186490100Y-109754266D01*
X186430032Y-109556246D01*
X186332485Y-109373750D01*
X186332482Y-109373746D01*
X186201210Y-109213789D01*
X186041253Y-109082517D01*
X186041251Y-109082516D01*
X186041250Y-109082515D01*
X185858754Y-108984968D01*
X185772529Y-108958812D01*
X185660732Y-108924899D01*
X185454800Y-108904617D01*
X185248867Y-108924899D01*
X185050846Y-108984968D01*
X184868346Y-109082517D01*
X184708389Y-109213789D01*
X184577117Y-109373746D01*
X184479568Y-109556246D01*
X184419499Y-109754267D01*
X184399217Y-109960200D01*
X161330500Y-109960200D01*
X161330500Y-107976566D01*
X161322159Y-107950895D01*
X161319870Y-107941360D01*
X161315646Y-107914699D01*
X161315646Y-107914696D01*
X161303386Y-107890636D01*
X161299642Y-107881597D01*
X161291297Y-107855911D01*
X161275423Y-107834063D01*
X161270303Y-107825706D01*
X161266740Y-107818715D01*
X161258050Y-107801658D01*
X161239862Y-107783470D01*
X161239860Y-107783467D01*
X160876593Y-107420200D01*
X184399217Y-107420200D01*
X184419499Y-107626132D01*
X184419500Y-107626134D01*
X184479568Y-107824154D01*
X184577115Y-108006650D01*
X184577117Y-108006653D01*
X184708389Y-108166610D01*
X184868346Y-108297882D01*
X184868350Y-108297885D01*
X185050846Y-108395432D01*
X185248866Y-108455500D01*
X185454800Y-108475783D01*
X185660734Y-108455500D01*
X185858754Y-108395432D01*
X186041250Y-108297885D01*
X186201210Y-108166610D01*
X186332485Y-108006650D01*
X186430032Y-107824154D01*
X186490100Y-107626134D01*
X186510383Y-107420200D01*
X192019217Y-107420200D01*
X192039499Y-107626132D01*
X192039500Y-107626134D01*
X192099568Y-107824154D01*
X192197115Y-108006650D01*
X192197117Y-108006653D01*
X192328389Y-108166610D01*
X192488346Y-108297882D01*
X192488350Y-108297885D01*
X192670846Y-108395432D01*
X192868866Y-108455500D01*
X193074800Y-108475783D01*
X193280734Y-108455500D01*
X193478754Y-108395432D01*
X193661250Y-108297885D01*
X193821210Y-108166610D01*
X193952485Y-108006650D01*
X194050032Y-107824154D01*
X194110100Y-107626134D01*
X194130383Y-107420200D01*
X194110100Y-107214266D01*
X194050032Y-107016246D01*
X193952485Y-106833750D01*
X193918735Y-106792625D01*
X193821210Y-106673789D01*
X193661253Y-106542517D01*
X193661251Y-106542516D01*
X193661250Y-106542515D01*
X193478754Y-106444968D01*
X193392529Y-106418812D01*
X193280732Y-106384899D01*
X193074800Y-106364617D01*
X192868867Y-106384899D01*
X192670846Y-106444968D01*
X192488346Y-106542517D01*
X192328389Y-106673789D01*
X192197117Y-106833746D01*
X192099568Y-107016246D01*
X192039499Y-107214267D01*
X192019217Y-107420200D01*
X186510383Y-107420200D01*
X186490100Y-107214266D01*
X186430032Y-107016246D01*
X186332485Y-106833750D01*
X186298735Y-106792625D01*
X186201210Y-106673789D01*
X186041253Y-106542517D01*
X186041251Y-106542516D01*
X186041250Y-106542515D01*
X185858754Y-106444968D01*
X185772529Y-106418812D01*
X185660732Y-106384899D01*
X185454800Y-106364617D01*
X185248867Y-106384899D01*
X185050846Y-106444968D01*
X184868346Y-106542517D01*
X184708389Y-106673789D01*
X184577117Y-106833746D01*
X184479568Y-107016246D01*
X184419499Y-107214267D01*
X184399217Y-107420200D01*
X160876593Y-107420200D01*
X160176789Y-106720396D01*
X160173684Y-106717056D01*
X160167254Y-106709611D01*
X160167252Y-106709609D01*
X160160308Y-106703657D01*
X160156801Y-106700408D01*
X160027572Y-106571179D01*
X160027563Y-106571171D01*
X160008143Y-106551751D01*
X160008142Y-106551750D01*
X159984081Y-106539490D01*
X159975735Y-106534374D01*
X159953890Y-106518504D01*
X159940647Y-106514201D01*
X159928217Y-106510162D01*
X159919157Y-106506409D01*
X159895103Y-106494153D01*
X159868438Y-106489929D01*
X159858907Y-106487641D01*
X159833233Y-106479300D01*
X159833231Y-106479300D01*
X159823819Y-106476242D01*
X159824509Y-106474116D01*
X159809433Y-106469791D01*
X159075018Y-106010497D01*
X159068517Y-106005825D01*
X159011183Y-105958773D01*
X158968170Y-105935782D01*
X158827993Y-105860855D01*
X158629216Y-105800557D01*
X158422500Y-105780198D01*
X158215783Y-105800557D01*
X158017006Y-105860855D01*
X157833815Y-105958773D01*
X157673247Y-106090547D01*
X157541473Y-106251115D01*
X157443555Y-106434306D01*
X157383257Y-106633083D01*
X157362898Y-106839800D01*
X139162102Y-106839800D01*
X139141742Y-106633082D01*
X139081445Y-106434308D01*
X138983527Y-106251117D01*
X138983526Y-106251115D01*
X138851752Y-106090547D01*
X138691184Y-105958773D01*
X138507993Y-105860855D01*
X138309216Y-105800557D01*
X138102500Y-105780198D01*
X137895783Y-105800557D01*
X137697006Y-105860855D01*
X137513815Y-105958773D01*
X137353247Y-106090547D01*
X137221473Y-106251115D01*
X137123555Y-106434306D01*
X137063257Y-106633083D01*
X137042898Y-106839800D01*
X93831507Y-106839800D01*
X93829322Y-106792581D01*
X93829270Y-106790986D01*
X93800871Y-105318732D01*
X93800862Y-105317077D01*
X93801093Y-105287049D01*
X93808658Y-104299800D01*
X137042898Y-104299800D01*
X137063257Y-104506516D01*
X137123555Y-104705293D01*
X137221473Y-104888484D01*
X137353247Y-105049052D01*
X137513815Y-105180826D01*
X137681135Y-105270261D01*
X137697008Y-105278745D01*
X137895782Y-105339042D01*
X138102500Y-105359402D01*
X138309218Y-105339042D01*
X138507992Y-105278745D01*
X138514387Y-105275326D01*
X138526090Y-105270522D01*
X138526974Y-105270261D01*
X139664414Y-104760418D01*
X139685340Y-104757158D01*
X139685277Y-104756822D01*
X139694535Y-104755070D01*
X139751861Y-104744222D01*
X139754111Y-104743840D01*
X139789144Y-104738560D01*
X139811782Y-104735149D01*
X139811782Y-104735148D01*
X139811787Y-104735148D01*
X139812105Y-104734994D01*
X139827619Y-104729890D01*
X139827972Y-104729823D01*
X139848816Y-104718806D01*
X139879559Y-104702557D01*
X139881586Y-104701533D01*
X139934142Y-104676225D01*
X139934409Y-104675976D01*
X139947717Y-104666536D01*
X139947801Y-104666491D01*
X139948038Y-104666366D01*
X139989288Y-104625114D01*
X139990943Y-104623520D01*
X140033694Y-104583855D01*
X140033876Y-104583539D01*
X140043807Y-104570595D01*
X140314602Y-104299800D01*
X157362898Y-104299800D01*
X157383257Y-104506516D01*
X157443555Y-104705293D01*
X157541473Y-104888484D01*
X157673247Y-105049052D01*
X157833815Y-105180826D01*
X158001135Y-105270261D01*
X158017008Y-105278745D01*
X158215782Y-105339042D01*
X158422500Y-105359402D01*
X158629218Y-105339042D01*
X158827992Y-105278745D01*
X158842707Y-105270878D01*
X158852561Y-105266655D01*
X158856437Y-105265376D01*
X159998395Y-104706854D01*
X160025855Y-104700500D01*
X177635519Y-104700500D01*
X177679713Y-104718806D01*
X178150966Y-105190059D01*
X178150970Y-105190062D01*
X178169156Y-105208249D01*
X178193211Y-105220506D01*
X178201571Y-105225630D01*
X178223409Y-105241495D01*
X178223410Y-105241495D01*
X178223411Y-105241496D01*
X178249079Y-105249836D01*
X178258140Y-105253589D01*
X178281272Y-105265375D01*
X178282196Y-105265846D01*
X178308865Y-105270069D01*
X178318385Y-105272355D01*
X178344067Y-105280700D01*
X178375981Y-105280700D01*
X178470933Y-105280700D01*
X183859445Y-105280700D01*
X183886891Y-105287048D01*
X185022457Y-105842115D01*
X185025593Y-105843149D01*
X185026412Y-105843420D01*
X185036292Y-105847653D01*
X185050843Y-105855431D01*
X185050845Y-105855431D01*
X185050846Y-105855432D01*
X185248866Y-105915500D01*
X185454800Y-105935783D01*
X185660734Y-105915500D01*
X185858754Y-105855432D01*
X186041250Y-105757885D01*
X186201210Y-105626610D01*
X186332485Y-105466650D01*
X186430032Y-105284154D01*
X186490100Y-105086134D01*
X186510383Y-104880200D01*
X192019217Y-104880200D01*
X192039499Y-105086132D01*
X192039500Y-105086134D01*
X192099568Y-105284154D01*
X192197115Y-105466650D01*
X192197117Y-105466653D01*
X192328389Y-105626610D01*
X192488346Y-105757882D01*
X192488350Y-105757885D01*
X192670846Y-105855432D01*
X192868866Y-105915500D01*
X193074800Y-105935783D01*
X193280734Y-105915500D01*
X193478754Y-105855432D01*
X193661250Y-105757885D01*
X193821210Y-105626610D01*
X193952485Y-105466650D01*
X194050032Y-105284154D01*
X194110100Y-105086134D01*
X194130383Y-104880200D01*
X194110100Y-104674266D01*
X194050032Y-104476246D01*
X193952485Y-104293750D01*
X193952482Y-104293746D01*
X193821210Y-104133789D01*
X193661253Y-104002517D01*
X193661251Y-104002516D01*
X193661250Y-104002515D01*
X193478754Y-103904968D01*
X193392529Y-103878812D01*
X193280732Y-103844899D01*
X193074800Y-103824617D01*
X192868867Y-103844899D01*
X192670846Y-103904968D01*
X192488346Y-104002517D01*
X192328389Y-104133789D01*
X192197117Y-104293746D01*
X192099568Y-104476246D01*
X192039499Y-104674267D01*
X192019217Y-104880200D01*
X186510383Y-104880200D01*
X186490100Y-104674266D01*
X186430032Y-104476246D01*
X186332485Y-104293750D01*
X186332482Y-104293746D01*
X186201210Y-104133789D01*
X186041253Y-104002517D01*
X186041251Y-104002516D01*
X186041250Y-104002515D01*
X185858754Y-103904968D01*
X185772529Y-103878812D01*
X185660732Y-103844899D01*
X185454800Y-103824617D01*
X185248867Y-103844899D01*
X185050842Y-103904969D01*
X185036293Y-103912745D01*
X185026423Y-103916974D01*
X185022461Y-103918281D01*
X183886890Y-104473351D01*
X183859443Y-104479700D01*
X178599281Y-104479700D01*
X178555087Y-104461394D01*
X178137986Y-104044293D01*
X178121810Y-104016275D01*
X178121810Y-103983923D01*
X178137986Y-103955905D01*
X179334886Y-102759006D01*
X179379080Y-102740700D01*
X183859445Y-102740700D01*
X183886891Y-102747048D01*
X185022457Y-103302115D01*
X185025593Y-103303149D01*
X185026412Y-103303420D01*
X185036292Y-103307653D01*
X185050843Y-103315431D01*
X185050845Y-103315431D01*
X185050846Y-103315432D01*
X185248866Y-103375500D01*
X185454800Y-103395783D01*
X185660734Y-103375500D01*
X185858754Y-103315432D01*
X186041250Y-103217885D01*
X186201210Y-103086610D01*
X186332485Y-102926650D01*
X186430032Y-102744154D01*
X186490100Y-102546134D01*
X186510383Y-102340200D01*
X186510383Y-102340199D01*
X192019217Y-102340199D01*
X192039499Y-102546132D01*
X192055749Y-102599700D01*
X192099568Y-102744154D01*
X192197115Y-102926650D01*
X192197117Y-102926653D01*
X192328389Y-103086610D01*
X192488346Y-103217882D01*
X192488350Y-103217885D01*
X192670846Y-103315432D01*
X192868866Y-103375500D01*
X193074800Y-103395783D01*
X193280734Y-103375500D01*
X193478754Y-103315432D01*
X193661250Y-103217885D01*
X193821210Y-103086610D01*
X193952485Y-102926650D01*
X194050032Y-102744154D01*
X194110100Y-102546134D01*
X194130383Y-102340200D01*
X194110100Y-102134266D01*
X194050032Y-101936246D01*
X193952485Y-101753750D01*
X193952482Y-101753746D01*
X193821210Y-101593789D01*
X193661253Y-101462517D01*
X193661251Y-101462516D01*
X193661250Y-101462515D01*
X193478754Y-101364968D01*
X193392529Y-101338812D01*
X193280732Y-101304899D01*
X193074800Y-101284617D01*
X192868867Y-101304899D01*
X192670846Y-101364968D01*
X192488346Y-101462517D01*
X192328389Y-101593789D01*
X192197117Y-101753746D01*
X192099568Y-101936246D01*
X192039499Y-102134267D01*
X192019217Y-102340199D01*
X186510383Y-102340199D01*
X186490100Y-102134266D01*
X186430032Y-101936246D01*
X186332485Y-101753750D01*
X186332482Y-101753746D01*
X186201210Y-101593789D01*
X186041253Y-101462517D01*
X186041251Y-101462516D01*
X186041250Y-101462515D01*
X185858754Y-101364968D01*
X185772529Y-101338812D01*
X185660732Y-101304899D01*
X185454800Y-101284617D01*
X185248867Y-101304899D01*
X185050842Y-101364969D01*
X185036293Y-101372745D01*
X185026423Y-101376974D01*
X185022461Y-101378281D01*
X183886890Y-101933351D01*
X183859443Y-101939700D01*
X179123865Y-101939700D01*
X179098186Y-101948042D01*
X179088655Y-101950330D01*
X179061996Y-101954553D01*
X179037944Y-101966808D01*
X179028885Y-101970560D01*
X179003211Y-101978902D01*
X178981373Y-101994769D01*
X178973013Y-101999892D01*
X178948958Y-102012149D01*
X178896861Y-102064243D01*
X178896860Y-102064247D01*
X178379414Y-102581694D01*
X178359138Y-102595242D01*
X178335220Y-102600000D01*
X177112173Y-102600000D01*
X177074125Y-102587084D01*
X176980148Y-102514972D01*
X176845012Y-102458998D01*
X176700000Y-102439907D01*
X176554986Y-102458998D01*
X176530409Y-102469178D01*
X176520402Y-102472367D01*
X176496733Y-102477769D01*
X176135369Y-102596574D01*
X176115849Y-102599700D01*
X163646581Y-102599700D01*
X163602387Y-102581394D01*
X160821193Y-99800200D01*
X184399217Y-99800200D01*
X184419499Y-100006132D01*
X184419500Y-100006134D01*
X184479568Y-100204154D01*
X184577115Y-100386650D01*
X184577117Y-100386653D01*
X184708389Y-100546610D01*
X184868346Y-100677882D01*
X184868350Y-100677885D01*
X185050846Y-100775432D01*
X185248866Y-100835500D01*
X185454800Y-100855783D01*
X185660734Y-100835500D01*
X185858754Y-100775432D01*
X186041250Y-100677885D01*
X186201210Y-100546610D01*
X186332485Y-100386650D01*
X186430032Y-100204154D01*
X186490100Y-100006134D01*
X186510383Y-99800200D01*
X192019217Y-99800200D01*
X192039499Y-100006132D01*
X192039500Y-100006134D01*
X192099568Y-100204154D01*
X192197115Y-100386650D01*
X192197117Y-100386653D01*
X192328389Y-100546610D01*
X192488346Y-100677882D01*
X192488350Y-100677885D01*
X192670846Y-100775432D01*
X192868866Y-100835500D01*
X193074800Y-100855783D01*
X193280734Y-100835500D01*
X193478754Y-100775432D01*
X193661250Y-100677885D01*
X193821210Y-100546610D01*
X193952485Y-100386650D01*
X194050032Y-100204154D01*
X194110100Y-100006134D01*
X194130383Y-99800200D01*
X194110100Y-99594266D01*
X194050032Y-99396246D01*
X193952485Y-99213750D01*
X193952482Y-99213746D01*
X193821210Y-99053789D01*
X193661253Y-98922517D01*
X193661251Y-98922516D01*
X193661250Y-98922515D01*
X193478754Y-98824968D01*
X193355267Y-98787509D01*
X193280732Y-98764899D01*
X193074800Y-98744617D01*
X192868867Y-98764899D01*
X192670846Y-98824968D01*
X192488346Y-98922517D01*
X192328389Y-99053789D01*
X192197117Y-99213746D01*
X192099568Y-99396246D01*
X192039499Y-99594267D01*
X192019217Y-99800200D01*
X186510383Y-99800200D01*
X186490100Y-99594266D01*
X186430032Y-99396246D01*
X186332485Y-99213750D01*
X186332482Y-99213746D01*
X186201210Y-99053789D01*
X186041253Y-98922517D01*
X186041251Y-98922516D01*
X186041250Y-98922515D01*
X185858754Y-98824968D01*
X185735267Y-98787509D01*
X185660732Y-98764899D01*
X185454800Y-98744617D01*
X185248867Y-98764899D01*
X185050846Y-98824968D01*
X184868346Y-98922517D01*
X184708389Y-99053789D01*
X184577117Y-99213746D01*
X184479568Y-99396246D01*
X184419499Y-99594267D01*
X184399217Y-99800200D01*
X160821193Y-99800200D01*
X160157219Y-99136226D01*
X160153191Y-99131792D01*
X160149996Y-99127917D01*
X160140150Y-99119039D01*
X160137810Y-99116817D01*
X159932172Y-98911179D01*
X159932163Y-98911171D01*
X159912743Y-98891751D01*
X159912742Y-98891750D01*
X159888681Y-98879490D01*
X159880335Y-98874374D01*
X159858490Y-98858504D01*
X159845247Y-98854201D01*
X159832817Y-98850162D01*
X159823757Y-98846409D01*
X159799703Y-98834153D01*
X159773038Y-98829929D01*
X159763507Y-98827641D01*
X159737833Y-98819300D01*
X159737831Y-98819300D01*
X159728005Y-98819300D01*
X159693429Y-98808865D01*
X159122467Y-98429690D01*
X159117405Y-98425947D01*
X159011183Y-98338773D01*
X158968170Y-98315782D01*
X158827993Y-98240855D01*
X158629216Y-98180557D01*
X158445083Y-98162422D01*
X158422500Y-98160198D01*
X158422499Y-98160198D01*
X158215783Y-98180557D01*
X158017006Y-98240855D01*
X157833815Y-98338773D01*
X157673247Y-98470547D01*
X157541473Y-98631115D01*
X157443555Y-98814306D01*
X157383257Y-99013083D01*
X157362898Y-99219800D01*
X157383257Y-99426516D01*
X157443555Y-99625293D01*
X157541473Y-99808484D01*
X157673247Y-99969052D01*
X157833815Y-100100826D01*
X158001135Y-100190261D01*
X158017008Y-100198745D01*
X158215782Y-100259042D01*
X158422500Y-100279402D01*
X158629218Y-100259042D01*
X158827992Y-100198745D01*
X158828206Y-100198630D01*
X158835957Y-100195420D01*
X158835927Y-100195346D01*
X158838759Y-100194172D01*
X158838768Y-100194170D01*
X159679521Y-99845878D01*
X159715632Y-99842322D01*
X159747634Y-99859427D01*
X163131213Y-103243006D01*
X163149519Y-103287200D01*
X163131213Y-103331394D01*
X163087019Y-103349700D01*
X161919281Y-103349700D01*
X161875087Y-103331394D01*
X160172320Y-101628627D01*
X160169386Y-101625484D01*
X160162347Y-101617403D01*
X160156000Y-101612014D01*
X160152259Y-101608566D01*
X159994872Y-101451179D01*
X159994863Y-101451171D01*
X159975443Y-101431751D01*
X159975442Y-101431750D01*
X159951381Y-101419490D01*
X159943035Y-101414374D01*
X159921190Y-101398504D01*
X159907947Y-101394201D01*
X159895517Y-101390162D01*
X159886457Y-101386409D01*
X159862403Y-101374153D01*
X159835738Y-101369929D01*
X159826207Y-101367641D01*
X159800533Y-101359300D01*
X159800531Y-101359300D01*
X159788665Y-101359300D01*
X159755798Y-101349960D01*
X159682917Y-101304900D01*
X159068166Y-100924817D01*
X159061385Y-100919972D01*
X159011183Y-100878773D01*
X158968170Y-100855782D01*
X158827993Y-100780855D01*
X158629216Y-100720557D01*
X158422500Y-100700198D01*
X158215783Y-100720557D01*
X158017006Y-100780855D01*
X157833815Y-100878773D01*
X157673247Y-101010547D01*
X157541473Y-101171115D01*
X157443555Y-101354306D01*
X157383257Y-101553083D01*
X157362898Y-101759800D01*
X157383257Y-101966516D01*
X157443555Y-102165293D01*
X157541473Y-102348484D01*
X157673247Y-102509052D01*
X157833815Y-102640826D01*
X158001135Y-102730261D01*
X158017008Y-102738745D01*
X158215782Y-102799042D01*
X158422500Y-102819402D01*
X158629218Y-102799042D01*
X158827992Y-102738745D01*
X158834319Y-102735362D01*
X158846039Y-102730553D01*
X158846900Y-102730299D01*
X159701529Y-102347517D01*
X159738399Y-102343092D01*
X159771271Y-102360364D01*
X161203713Y-103792806D01*
X161222019Y-103837000D01*
X161203713Y-103881194D01*
X161159519Y-103899500D01*
X160025899Y-103899500D01*
X159998424Y-103893137D01*
X158856514Y-103334265D01*
X158852623Y-103332979D01*
X158842776Y-103328757D01*
X158841827Y-103328250D01*
X158827992Y-103320855D01*
X158777980Y-103305684D01*
X158629216Y-103260557D01*
X158422500Y-103240198D01*
X158215783Y-103260557D01*
X158017006Y-103320855D01*
X157833815Y-103418773D01*
X157673247Y-103550547D01*
X157541473Y-103711115D01*
X157443555Y-103894306D01*
X157383257Y-104093083D01*
X157362898Y-104299800D01*
X140314602Y-104299800D01*
X145275486Y-99338915D01*
X145280685Y-99334268D01*
X145311270Y-99309879D01*
X145344138Y-99261669D01*
X145345461Y-99259804D01*
X145380093Y-99212882D01*
X145380210Y-99212545D01*
X145387565Y-99197975D01*
X145387772Y-99197673D01*
X145404978Y-99141888D01*
X145405683Y-99139745D01*
X145424946Y-99084699D01*
X145424959Y-99084339D01*
X145427693Y-99068248D01*
X145427800Y-99067901D01*
X145427800Y-99009584D01*
X145427844Y-99007249D01*
X145428809Y-98981435D01*
X145430850Y-98967763D01*
X145505589Y-98685681D01*
X145505744Y-98683736D01*
X145510301Y-98664808D01*
X145518501Y-98645014D01*
X145537593Y-98500000D01*
X145518501Y-98354986D01*
X145462528Y-98219854D01*
X145373487Y-98103813D01*
X145373485Y-98103812D01*
X145373485Y-98103811D01*
X145257448Y-98014772D01*
X145122312Y-97958798D01*
X144977300Y-97939707D01*
X144832287Y-97958798D01*
X144697152Y-98014772D01*
X144581112Y-98103812D01*
X144492072Y-98219852D01*
X144436098Y-98354987D01*
X144417007Y-98499999D01*
X144436099Y-98645014D01*
X144447964Y-98673662D01*
X144450181Y-98679942D01*
X144462742Y-98722649D01*
X144491778Y-98794596D01*
X144495063Y-98830458D01*
X144478014Y-98862180D01*
X139582044Y-103758151D01*
X139549163Y-103775425D01*
X139512286Y-103770990D01*
X138526968Y-103329335D01*
X138526076Y-103329071D01*
X138514383Y-103324271D01*
X138507992Y-103320855D01*
X138309216Y-103260557D01*
X138102500Y-103240198D01*
X137895783Y-103260557D01*
X137697006Y-103320855D01*
X137513815Y-103418773D01*
X137353247Y-103550547D01*
X137221473Y-103711115D01*
X137123555Y-103894306D01*
X137063257Y-104093083D01*
X137042898Y-104299800D01*
X93808658Y-104299800D01*
X93812146Y-103844637D01*
X93812181Y-103842982D01*
X93863142Y-102371299D01*
X93863216Y-102369759D01*
X93900815Y-101759800D01*
X137042898Y-101759800D01*
X137063257Y-101966516D01*
X137123555Y-102165293D01*
X137221473Y-102348484D01*
X137353247Y-102509052D01*
X137513815Y-102640826D01*
X137681135Y-102730261D01*
X137697008Y-102738745D01*
X137895782Y-102799042D01*
X138102500Y-102819402D01*
X138309218Y-102799042D01*
X138507992Y-102738745D01*
X138514387Y-102735326D01*
X138526090Y-102730522D01*
X138526974Y-102730261D01*
X139672452Y-102216816D01*
X139705010Y-102211743D01*
X139734535Y-102215070D01*
X139791861Y-102204222D01*
X139794111Y-102203840D01*
X139829144Y-102198560D01*
X139851782Y-102195149D01*
X139851782Y-102195148D01*
X139851787Y-102195148D01*
X139852105Y-102194994D01*
X139867619Y-102189890D01*
X139867972Y-102189823D01*
X139867971Y-102189823D01*
X139919559Y-102162557D01*
X139921586Y-102161533D01*
X139974142Y-102136225D01*
X139974409Y-102135976D01*
X139987717Y-102126536D01*
X139987801Y-102126491D01*
X139988038Y-102126366D01*
X140029287Y-102085115D01*
X140030942Y-102083521D01*
X140073694Y-102043855D01*
X140073876Y-102043539D01*
X140083807Y-102030595D01*
X142775486Y-99338915D01*
X142780685Y-99334268D01*
X142811270Y-99309879D01*
X142844138Y-99261669D01*
X142845461Y-99259804D01*
X142880093Y-99212882D01*
X142880210Y-99212545D01*
X142887565Y-99197975D01*
X142887772Y-99197673D01*
X142904978Y-99141888D01*
X142905683Y-99139745D01*
X142924946Y-99084699D01*
X142924959Y-99084338D01*
X142927694Y-99068244D01*
X142927800Y-99067901D01*
X142927800Y-99009603D01*
X142927844Y-99007265D01*
X142930025Y-98948992D01*
X142930024Y-98948991D01*
X142930025Y-98948990D01*
X142929929Y-98948634D01*
X142927800Y-98932458D01*
X142927800Y-96679800D01*
X157362898Y-96679800D01*
X157383257Y-96886516D01*
X157443555Y-97085293D01*
X157541473Y-97268484D01*
X157673247Y-97429052D01*
X157833815Y-97560826D01*
X157833817Y-97560827D01*
X158017008Y-97658745D01*
X158215782Y-97719042D01*
X158422500Y-97739402D01*
X158629218Y-97719042D01*
X158827992Y-97658745D01*
X159011183Y-97560827D01*
X159171752Y-97429052D01*
X159303527Y-97268483D01*
X159307955Y-97260199D01*
X184399217Y-97260199D01*
X184419499Y-97466132D01*
X184419500Y-97466134D01*
X184479568Y-97664154D01*
X184577115Y-97846650D01*
X184577117Y-97846653D01*
X184708389Y-98006610D01*
X184868346Y-98137882D01*
X184868350Y-98137885D01*
X185050846Y-98235432D01*
X185248866Y-98295500D01*
X185454800Y-98315783D01*
X185660734Y-98295500D01*
X185858754Y-98235432D01*
X186041250Y-98137885D01*
X186201210Y-98006610D01*
X186332485Y-97846650D01*
X186430032Y-97664154D01*
X186490100Y-97466134D01*
X186510383Y-97260200D01*
X186510383Y-97260199D01*
X192019217Y-97260199D01*
X192039499Y-97466132D01*
X192039500Y-97466134D01*
X192099568Y-97664154D01*
X192197115Y-97846650D01*
X192197117Y-97846653D01*
X192328389Y-98006610D01*
X192488346Y-98137882D01*
X192488350Y-98137885D01*
X192670846Y-98235432D01*
X192868866Y-98295500D01*
X193074800Y-98315783D01*
X193280734Y-98295500D01*
X193478754Y-98235432D01*
X193661250Y-98137885D01*
X193821210Y-98006610D01*
X193952485Y-97846650D01*
X194050032Y-97664154D01*
X194110100Y-97466134D01*
X194130383Y-97260200D01*
X194110100Y-97054266D01*
X194050032Y-96856246D01*
X193952485Y-96673750D01*
X193952482Y-96673746D01*
X193821210Y-96513789D01*
X193661253Y-96382517D01*
X193661251Y-96382516D01*
X193661250Y-96382515D01*
X193478754Y-96284968D01*
X193392529Y-96258812D01*
X193280732Y-96224899D01*
X193074800Y-96204617D01*
X192868867Y-96224899D01*
X192670846Y-96284968D01*
X192488346Y-96382517D01*
X192328389Y-96513789D01*
X192197117Y-96673746D01*
X192099568Y-96856246D01*
X192039499Y-97054267D01*
X192019217Y-97260199D01*
X186510383Y-97260199D01*
X186490100Y-97054266D01*
X186430032Y-96856246D01*
X186332485Y-96673750D01*
X186332482Y-96673746D01*
X186201210Y-96513789D01*
X186041253Y-96382517D01*
X186041251Y-96382516D01*
X186041250Y-96382515D01*
X185858754Y-96284968D01*
X185772529Y-96258812D01*
X185660732Y-96224899D01*
X185454800Y-96204617D01*
X185248867Y-96224899D01*
X185050846Y-96284968D01*
X184868346Y-96382517D01*
X184708389Y-96513789D01*
X184577117Y-96673746D01*
X184479568Y-96856246D01*
X184419499Y-97054267D01*
X184399217Y-97260199D01*
X159307955Y-97260199D01*
X159401445Y-97085292D01*
X159461742Y-96886518D01*
X159482102Y-96679800D01*
X159461742Y-96473082D01*
X159401445Y-96274308D01*
X159303527Y-96091117D01*
X159303526Y-96091115D01*
X159171752Y-95930547D01*
X159011184Y-95798773D01*
X158827993Y-95700855D01*
X158629216Y-95640557D01*
X158422500Y-95620198D01*
X158215783Y-95640557D01*
X158017006Y-95700855D01*
X157833815Y-95798773D01*
X157673247Y-95930547D01*
X157541473Y-96091115D01*
X157443555Y-96274306D01*
X157383257Y-96473083D01*
X157362898Y-96679800D01*
X142927800Y-96679800D01*
X142927800Y-94139800D01*
X157362898Y-94139800D01*
X157383257Y-94346516D01*
X157443555Y-94545293D01*
X157541473Y-94728484D01*
X157673247Y-94889052D01*
X157833815Y-95020826D01*
X157894582Y-95053307D01*
X158017008Y-95118745D01*
X158215782Y-95179042D01*
X158422500Y-95199402D01*
X158629218Y-95179042D01*
X158827992Y-95118745D01*
X159011183Y-95020827D01*
X159171752Y-94889052D01*
X159303527Y-94728483D01*
X159307955Y-94720199D01*
X184399217Y-94720199D01*
X184419499Y-94926132D01*
X184419500Y-94926134D01*
X184479568Y-95124154D01*
X184577115Y-95306650D01*
X184577117Y-95306653D01*
X184708389Y-95466610D01*
X184868346Y-95597882D01*
X184868350Y-95597885D01*
X185050846Y-95695432D01*
X185248866Y-95755500D01*
X185454800Y-95775783D01*
X185581287Y-95763325D01*
X192385226Y-95763325D01*
X192447410Y-95806866D01*
X192645643Y-95899303D01*
X192856910Y-95955912D01*
X193074800Y-95974975D01*
X193292689Y-95955912D01*
X193503956Y-95899303D01*
X193702185Y-95806867D01*
X193764371Y-95763324D01*
X193074800Y-95073753D01*
X192385226Y-95763325D01*
X185581287Y-95763325D01*
X185660734Y-95755500D01*
X185858754Y-95695432D01*
X186041250Y-95597885D01*
X186201210Y-95466610D01*
X186332485Y-95306650D01*
X186430032Y-95124154D01*
X186490100Y-94926134D01*
X186510383Y-94720200D01*
X191820024Y-94720200D01*
X191839087Y-94938089D01*
X191895696Y-95149356D01*
X191988134Y-95347589D01*
X192031673Y-95409772D01*
X192721247Y-94720200D01*
X193428353Y-94720200D01*
X194117924Y-95409771D01*
X194161467Y-95347585D01*
X194253903Y-95149356D01*
X194310512Y-94938089D01*
X194329575Y-94720200D01*
X194310512Y-94502310D01*
X194253903Y-94291043D01*
X194161467Y-94092814D01*
X194117923Y-94030628D01*
X193428353Y-94720200D01*
X192721247Y-94720200D01*
X192031674Y-94030627D01*
X191988133Y-94092811D01*
X191895696Y-94291043D01*
X191839087Y-94502310D01*
X191820024Y-94720200D01*
X186510383Y-94720200D01*
X186490100Y-94514266D01*
X186430032Y-94316246D01*
X186332485Y-94133750D01*
X186298890Y-94092814D01*
X186201210Y-93973789D01*
X186041253Y-93842517D01*
X186041251Y-93842516D01*
X186041250Y-93842515D01*
X185858754Y-93744968D01*
X185772529Y-93718812D01*
X185660732Y-93684899D01*
X185581284Y-93677074D01*
X192385227Y-93677074D01*
X193074799Y-94366646D01*
X193764372Y-93677073D01*
X193702189Y-93633534D01*
X193503956Y-93541096D01*
X193292689Y-93484487D01*
X193074799Y-93465424D01*
X192856910Y-93484487D01*
X192645643Y-93541096D01*
X192447411Y-93633533D01*
X192385227Y-93677074D01*
X185581284Y-93677074D01*
X185477297Y-93666832D01*
X185454800Y-93664617D01*
X185454799Y-93664617D01*
X185248867Y-93684899D01*
X185050846Y-93744968D01*
X184868346Y-93842517D01*
X184708389Y-93973789D01*
X184577117Y-94133746D01*
X184479568Y-94316246D01*
X184419499Y-94514267D01*
X184399217Y-94720199D01*
X159307955Y-94720199D01*
X159401445Y-94545292D01*
X159461742Y-94346518D01*
X159482102Y-94139800D01*
X159461742Y-93933082D01*
X159401445Y-93734308D01*
X159347579Y-93633533D01*
X159303526Y-93551115D01*
X159171752Y-93390547D01*
X159011184Y-93258773D01*
X158827993Y-93160855D01*
X158629216Y-93100557D01*
X158422500Y-93080198D01*
X158215783Y-93100557D01*
X158017006Y-93160855D01*
X157833815Y-93258773D01*
X157673247Y-93390547D01*
X157541473Y-93551115D01*
X157443555Y-93734306D01*
X157383257Y-93933083D01*
X157362898Y-94139800D01*
X142927800Y-94139800D01*
X142927800Y-91599799D01*
X157362898Y-91599799D01*
X157383257Y-91806516D01*
X157443555Y-92005293D01*
X157541473Y-92188484D01*
X157673247Y-92349052D01*
X157833815Y-92480826D01*
X157833817Y-92480827D01*
X158017008Y-92578745D01*
X158215782Y-92639042D01*
X158422500Y-92659402D01*
X158629218Y-92639042D01*
X158827992Y-92578745D01*
X159011183Y-92480827D01*
X159171752Y-92349052D01*
X159303527Y-92188483D01*
X159401445Y-92005292D01*
X159461742Y-91806518D01*
X159482102Y-91599800D01*
X159461742Y-91393082D01*
X159401445Y-91194308D01*
X159303527Y-91011117D01*
X159303526Y-91011115D01*
X159171752Y-90850547D01*
X159011184Y-90718773D01*
X158827993Y-90620855D01*
X158629216Y-90560557D01*
X158422500Y-90540198D01*
X158215783Y-90560557D01*
X158017006Y-90620855D01*
X157833815Y-90718773D01*
X157673247Y-90850547D01*
X157541473Y-91011115D01*
X157443555Y-91194306D01*
X157383257Y-91393083D01*
X157362898Y-91599799D01*
X142927800Y-91599799D01*
X142927800Y-90224791D01*
X142946106Y-90180597D01*
X143317651Y-89809052D01*
X144066903Y-89059799D01*
X157362898Y-89059799D01*
X157383257Y-89266516D01*
X157443555Y-89465293D01*
X157541473Y-89648484D01*
X157673247Y-89809052D01*
X157833815Y-89940826D01*
X157833817Y-89940827D01*
X158017008Y-90038745D01*
X158215782Y-90099042D01*
X158422500Y-90119402D01*
X158629218Y-90099042D01*
X158827992Y-90038745D01*
X159011183Y-89940827D01*
X159171752Y-89809052D01*
X159303527Y-89648483D01*
X159401445Y-89465292D01*
X159461742Y-89266518D01*
X159482102Y-89059800D01*
X159461742Y-88853082D01*
X159401445Y-88654308D01*
X159303527Y-88471117D01*
X159303526Y-88471115D01*
X159171752Y-88310547D01*
X159011184Y-88178773D01*
X158827993Y-88080855D01*
X158629216Y-88020557D01*
X158422500Y-88000198D01*
X158215783Y-88020557D01*
X158017006Y-88080855D01*
X157833815Y-88178773D01*
X157673247Y-88310547D01*
X157541473Y-88471115D01*
X157443555Y-88654306D01*
X157383257Y-88853083D01*
X157362898Y-89059799D01*
X144066903Y-89059799D01*
X145403775Y-87722925D01*
X145413669Y-87714874D01*
X145746735Y-87496292D01*
X145746736Y-87496290D01*
X145748136Y-87495372D01*
X145758512Y-87489881D01*
X145769746Y-87485228D01*
X145885786Y-87396187D01*
X145974827Y-87280147D01*
X146030800Y-87145014D01*
X146049892Y-87000000D01*
X146030800Y-86854986D01*
X145974827Y-86719854D01*
X145885786Y-86603813D01*
X145885784Y-86603812D01*
X145885784Y-86603811D01*
X145776298Y-86519799D01*
X157362898Y-86519799D01*
X157383257Y-86726516D01*
X157443555Y-86925293D01*
X157541473Y-87108484D01*
X157673247Y-87269052D01*
X157833815Y-87400826D01*
X158010697Y-87495372D01*
X158017008Y-87498745D01*
X158215782Y-87559042D01*
X158422500Y-87579402D01*
X158629218Y-87559042D01*
X158827992Y-87498745D01*
X159011183Y-87400827D01*
X159171752Y-87269052D01*
X159303527Y-87108483D01*
X159401445Y-86925292D01*
X159461742Y-86726518D01*
X159482102Y-86519800D01*
X159461742Y-86313082D01*
X159401445Y-86114308D01*
X159340453Y-86000200D01*
X185949217Y-86000200D01*
X185969499Y-86206132D01*
X185972943Y-86217484D01*
X186029568Y-86404154D01*
X186127115Y-86586650D01*
X186127117Y-86586653D01*
X186258389Y-86746610D01*
X186418346Y-86877882D01*
X186418350Y-86877885D01*
X186600846Y-86975432D01*
X186798866Y-87035500D01*
X187004800Y-87055783D01*
X187210734Y-87035500D01*
X187408754Y-86975432D01*
X187591250Y-86877885D01*
X187751210Y-86746610D01*
X187882485Y-86586650D01*
X187980032Y-86404154D01*
X188040100Y-86206134D01*
X188060383Y-86000200D01*
X190829217Y-86000200D01*
X190849499Y-86206132D01*
X190852943Y-86217484D01*
X190909568Y-86404154D01*
X191007115Y-86586650D01*
X191007117Y-86586653D01*
X191138389Y-86746610D01*
X191298346Y-86877882D01*
X191298350Y-86877885D01*
X191480846Y-86975432D01*
X191678866Y-87035500D01*
X191884800Y-87055783D01*
X192090734Y-87035500D01*
X192288754Y-86975432D01*
X192471250Y-86877885D01*
X192631210Y-86746610D01*
X192762485Y-86586650D01*
X192860032Y-86404154D01*
X192920100Y-86206134D01*
X192940383Y-86000200D01*
X192920100Y-85794266D01*
X192860032Y-85596246D01*
X192762485Y-85413750D01*
X192714259Y-85354986D01*
X192631210Y-85253789D01*
X192471253Y-85122517D01*
X192471251Y-85122516D01*
X192471250Y-85122515D01*
X192288754Y-85024968D01*
X192202529Y-84998812D01*
X192090732Y-84964899D01*
X191884800Y-84944617D01*
X191678867Y-84964899D01*
X191480846Y-85024968D01*
X191298346Y-85122517D01*
X191138389Y-85253789D01*
X191007117Y-85413746D01*
X190909568Y-85596246D01*
X190849499Y-85794267D01*
X190829217Y-86000200D01*
X188060383Y-86000200D01*
X188040100Y-85794266D01*
X187980032Y-85596246D01*
X187882485Y-85413750D01*
X187834259Y-85354986D01*
X187751210Y-85253789D01*
X187591253Y-85122517D01*
X187591251Y-85122516D01*
X187591250Y-85122515D01*
X187408754Y-85024968D01*
X187322529Y-84998812D01*
X187210732Y-84964899D01*
X187004800Y-84944617D01*
X186798867Y-84964899D01*
X186600846Y-85024968D01*
X186418346Y-85122517D01*
X186258389Y-85253789D01*
X186127117Y-85413746D01*
X186029568Y-85596246D01*
X185969499Y-85794267D01*
X185949217Y-86000200D01*
X159340453Y-86000200D01*
X159303527Y-85931117D01*
X159303526Y-85931115D01*
X159171752Y-85770547D01*
X159011184Y-85638773D01*
X158827993Y-85540855D01*
X158629216Y-85480557D01*
X158422500Y-85460198D01*
X158215783Y-85480557D01*
X158017006Y-85540855D01*
X157833815Y-85638773D01*
X157673247Y-85770547D01*
X157541473Y-85931115D01*
X157443555Y-86114306D01*
X157383257Y-86313083D01*
X157362898Y-86519799D01*
X145776298Y-86519799D01*
X145769747Y-86514772D01*
X145634611Y-86458798D01*
X145489599Y-86439707D01*
X145344584Y-86458799D01*
X145312263Y-86472186D01*
X145270203Y-86474251D01*
X145236380Y-86449165D01*
X145226148Y-86408317D01*
X145244152Y-86370250D01*
X145391479Y-86222923D01*
X145401373Y-86214872D01*
X145734436Y-85996292D01*
X145734437Y-85996290D01*
X145735837Y-85995372D01*
X145746213Y-85989881D01*
X145757447Y-85985228D01*
X145873487Y-85896187D01*
X145962528Y-85780147D01*
X146018501Y-85645014D01*
X146037593Y-85500000D01*
X146018501Y-85354986D01*
X145962528Y-85219854D01*
X145873487Y-85103813D01*
X145873485Y-85103812D01*
X145873485Y-85103811D01*
X145757448Y-85014772D01*
X145622312Y-84958798D01*
X145477300Y-84939707D01*
X145332287Y-84958798D01*
X145197152Y-85014772D01*
X145081112Y-85103812D01*
X144992072Y-85219853D01*
X144987418Y-85231087D01*
X144981929Y-85241457D01*
X144762425Y-85575926D01*
X144754367Y-85585828D01*
X141679123Y-88661072D01*
X141673899Y-88665741D01*
X141643329Y-88690121D01*
X141610485Y-88738293D01*
X141609134Y-88740198D01*
X141574505Y-88787119D01*
X141574385Y-88787464D01*
X141567040Y-88802015D01*
X141566828Y-88802325D01*
X141549640Y-88858048D01*
X141548910Y-88860267D01*
X141529653Y-88915300D01*
X141529640Y-88915672D01*
X141526909Y-88931744D01*
X141526800Y-88932097D01*
X141526800Y-88990413D01*
X141526756Y-88992751D01*
X141524575Y-89051008D01*
X141524669Y-89051358D01*
X141526800Y-89067538D01*
X141526800Y-96787509D01*
X141522042Y-96811427D01*
X141508494Y-96831703D01*
X139637283Y-98702912D01*
X139604402Y-98720186D01*
X139567525Y-98715751D01*
X138526968Y-98249335D01*
X138526076Y-98249071D01*
X138514383Y-98244271D01*
X138507992Y-98240855D01*
X138309216Y-98180557D01*
X138125083Y-98162422D01*
X138102500Y-98160198D01*
X138102499Y-98160198D01*
X137895783Y-98180557D01*
X137697006Y-98240855D01*
X137513815Y-98338773D01*
X137353247Y-98470547D01*
X137221473Y-98631115D01*
X137123555Y-98814306D01*
X137063257Y-99013083D01*
X137042898Y-99219800D01*
X137063257Y-99426516D01*
X137123555Y-99625293D01*
X137221473Y-99808484D01*
X137353247Y-99969052D01*
X137513815Y-100100826D01*
X137681135Y-100190261D01*
X137697008Y-100198745D01*
X137895782Y-100259042D01*
X138102500Y-100279402D01*
X138309218Y-100259042D01*
X138507992Y-100198745D01*
X138514387Y-100195326D01*
X138526090Y-100190522D01*
X138526974Y-100190261D01*
X139674794Y-99675766D01*
X139700358Y-99670300D01*
X139728689Y-99670300D01*
X139735687Y-99670693D01*
X139774535Y-99675070D01*
X139831861Y-99664222D01*
X139834111Y-99663840D01*
X139869144Y-99658560D01*
X139891782Y-99655149D01*
X139891782Y-99655148D01*
X139891787Y-99655148D01*
X139892105Y-99654994D01*
X139907619Y-99649890D01*
X139907972Y-99649823D01*
X139907971Y-99649823D01*
X139959559Y-99622557D01*
X139961586Y-99621533D01*
X140014142Y-99596225D01*
X140014409Y-99595976D01*
X140027717Y-99586536D01*
X140027801Y-99586491D01*
X140028038Y-99586366D01*
X140069287Y-99545115D01*
X140070942Y-99543521D01*
X140113694Y-99503855D01*
X140113876Y-99503539D01*
X140123807Y-99490595D01*
X141920106Y-97694297D01*
X141964300Y-97675991D01*
X142008494Y-97694297D01*
X142026800Y-97738491D01*
X142026800Y-98787509D01*
X142022042Y-98811427D01*
X142008494Y-98831703D01*
X139609663Y-101230532D01*
X139576782Y-101247806D01*
X139539905Y-101243371D01*
X138526968Y-100789335D01*
X138526076Y-100789071D01*
X138514383Y-100784271D01*
X138507992Y-100780855D01*
X138309216Y-100720557D01*
X138102500Y-100700198D01*
X137895783Y-100720557D01*
X137697006Y-100780855D01*
X137513815Y-100878773D01*
X137353247Y-101010547D01*
X137221473Y-101171115D01*
X137123555Y-101354306D01*
X137063257Y-101553083D01*
X137042898Y-101759800D01*
X93900815Y-101759800D01*
X93953820Y-100899931D01*
X93953938Y-100898364D01*
X94084110Y-99431582D01*
X94084268Y-99430033D01*
X94253930Y-97967197D01*
X94254128Y-97965676D01*
X94438506Y-96679800D01*
X137042898Y-96679800D01*
X137063257Y-96886516D01*
X137123555Y-97085293D01*
X137221473Y-97268484D01*
X137353247Y-97429052D01*
X137513815Y-97560826D01*
X137513817Y-97560827D01*
X137697008Y-97658745D01*
X137895782Y-97719042D01*
X138102500Y-97739402D01*
X138309218Y-97719042D01*
X138507992Y-97658745D01*
X138691183Y-97560827D01*
X138851752Y-97429052D01*
X138983527Y-97268483D01*
X139081445Y-97085292D01*
X139141742Y-96886518D01*
X139162102Y-96679800D01*
X139141742Y-96473082D01*
X139081445Y-96274308D01*
X138983527Y-96091117D01*
X138983526Y-96091115D01*
X138851752Y-95930547D01*
X138691184Y-95798773D01*
X138507993Y-95700855D01*
X138309216Y-95640557D01*
X138102500Y-95620198D01*
X137895783Y-95640557D01*
X137697006Y-95700855D01*
X137513815Y-95798773D01*
X137353247Y-95930547D01*
X137221473Y-96091115D01*
X137123555Y-96274306D01*
X137063257Y-96473083D01*
X137042898Y-96679800D01*
X94438506Y-96679800D01*
X94463138Y-96508012D01*
X94463380Y-96506470D01*
X94711607Y-95054891D01*
X94711886Y-95053384D01*
X94893579Y-94139800D01*
X137042898Y-94139800D01*
X137063257Y-94346516D01*
X137123555Y-94545293D01*
X137221473Y-94728484D01*
X137353247Y-94889052D01*
X137513815Y-95020826D01*
X137574582Y-95053307D01*
X137697008Y-95118745D01*
X137895782Y-95179042D01*
X138102500Y-95199402D01*
X138309218Y-95179042D01*
X138507992Y-95118745D01*
X138691183Y-95020827D01*
X138851752Y-94889052D01*
X138983527Y-94728483D01*
X139081445Y-94545292D01*
X139141742Y-94346518D01*
X139162102Y-94139800D01*
X139141742Y-93933082D01*
X139081445Y-93734308D01*
X139027579Y-93633533D01*
X138983526Y-93551115D01*
X138851752Y-93390547D01*
X138691184Y-93258773D01*
X138507993Y-93160855D01*
X138309216Y-93100557D01*
X138102500Y-93080198D01*
X137895783Y-93100557D01*
X137697006Y-93160855D01*
X137513815Y-93258773D01*
X137353247Y-93390547D01*
X137221473Y-93551115D01*
X137123555Y-93734306D01*
X137063257Y-93933083D01*
X137042898Y-94139800D01*
X94893579Y-94139800D01*
X94999113Y-93609155D01*
X94999458Y-93607534D01*
X95014543Y-93541096D01*
X95325512Y-92171506D01*
X95325872Y-92170017D01*
X95471605Y-91599799D01*
X137042898Y-91599799D01*
X137063257Y-91806516D01*
X137123555Y-92005293D01*
X137221473Y-92188484D01*
X137353247Y-92349052D01*
X137513815Y-92480826D01*
X137513817Y-92480827D01*
X137697008Y-92578745D01*
X137895782Y-92639042D01*
X138102500Y-92659402D01*
X138309218Y-92639042D01*
X138507992Y-92578745D01*
X138691183Y-92480827D01*
X138851752Y-92349052D01*
X138983527Y-92188483D01*
X139081445Y-92005292D01*
X139141742Y-91806518D01*
X139162102Y-91599800D01*
X139141742Y-91393082D01*
X139081445Y-91194308D01*
X138983527Y-91011117D01*
X138983526Y-91011115D01*
X138851752Y-90850547D01*
X138691184Y-90718773D01*
X138507993Y-90620855D01*
X138309216Y-90560557D01*
X138102500Y-90540198D01*
X137895783Y-90560557D01*
X137697006Y-90620855D01*
X137513815Y-90718773D01*
X137353247Y-90850547D01*
X137221473Y-91011115D01*
X137123555Y-91194306D01*
X137063257Y-91393083D01*
X137042898Y-91599799D01*
X95471605Y-91599799D01*
X95690510Y-90743280D01*
X95690922Y-90741753D01*
X96093871Y-89325370D01*
X96094320Y-89323871D01*
X96177201Y-89059799D01*
X137042898Y-89059799D01*
X137063257Y-89266516D01*
X137123555Y-89465293D01*
X137221473Y-89648484D01*
X137353247Y-89809052D01*
X137513815Y-89940826D01*
X137513817Y-89940827D01*
X137697008Y-90038745D01*
X137895782Y-90099042D01*
X138102500Y-90119402D01*
X138309218Y-90099042D01*
X138507992Y-90038745D01*
X138691183Y-89940827D01*
X138851752Y-89809052D01*
X138983527Y-89648483D01*
X139081445Y-89465292D01*
X139141742Y-89266518D01*
X139162102Y-89059800D01*
X139141742Y-88853082D01*
X139081445Y-88654308D01*
X138983527Y-88471117D01*
X138983526Y-88471115D01*
X138851752Y-88310547D01*
X138691184Y-88178773D01*
X138507993Y-88080855D01*
X138309216Y-88020557D01*
X138102500Y-88000198D01*
X137895783Y-88020557D01*
X137697006Y-88080855D01*
X137513815Y-88178773D01*
X137353247Y-88310547D01*
X137221473Y-88471115D01*
X137123555Y-88654306D01*
X137063257Y-88853083D01*
X137042898Y-89059799D01*
X96177201Y-89059799D01*
X96535278Y-87918901D01*
X96535798Y-87917321D01*
X96658946Y-87559042D01*
X97014451Y-86524755D01*
X97014982Y-86523277D01*
X97016283Y-86519799D01*
X137042898Y-86519799D01*
X137063257Y-86726516D01*
X137123555Y-86925293D01*
X137221473Y-87108484D01*
X137353247Y-87269052D01*
X137513815Y-87400826D01*
X137690697Y-87495372D01*
X137697008Y-87498745D01*
X137895782Y-87559042D01*
X138102500Y-87579402D01*
X138309218Y-87559042D01*
X138507992Y-87498745D01*
X138691183Y-87400827D01*
X138851752Y-87269052D01*
X138983527Y-87108483D01*
X139081445Y-86925292D01*
X139141742Y-86726518D01*
X139162102Y-86519800D01*
X139141742Y-86313082D01*
X139081445Y-86114308D01*
X138983527Y-85931117D01*
X138983526Y-85931115D01*
X138851752Y-85770547D01*
X138691184Y-85638773D01*
X138507993Y-85540855D01*
X138309216Y-85480557D01*
X138102500Y-85460198D01*
X137895783Y-85480557D01*
X137697006Y-85540855D01*
X137513815Y-85638773D01*
X137353247Y-85770547D01*
X137221473Y-85931115D01*
X137123555Y-86114306D01*
X137063257Y-86313083D01*
X137042898Y-86519799D01*
X97016283Y-86519799D01*
X97531000Y-85144086D01*
X97531564Y-85142637D01*
X98002732Y-83979799D01*
X137042898Y-83979799D01*
X137063257Y-84186516D01*
X137123555Y-84385293D01*
X137221473Y-84568484D01*
X137353247Y-84729052D01*
X137513815Y-84860826D01*
X137661390Y-84939707D01*
X137697008Y-84958745D01*
X137895782Y-85019042D01*
X138102500Y-85039402D01*
X138309218Y-85019042D01*
X138507992Y-84958745D01*
X138691183Y-84860827D01*
X138851752Y-84729052D01*
X138983527Y-84568483D01*
X139081445Y-84385292D01*
X139141742Y-84186518D01*
X139162102Y-83979800D01*
X139162102Y-83979799D01*
X157362898Y-83979799D01*
X157383257Y-84186516D01*
X157443555Y-84385293D01*
X157541473Y-84568484D01*
X157673247Y-84729052D01*
X157833815Y-84860826D01*
X157981390Y-84939707D01*
X158017008Y-84958745D01*
X158215782Y-85019042D01*
X158422500Y-85039402D01*
X158629218Y-85019042D01*
X158827992Y-84958745D01*
X159011183Y-84860827D01*
X159171752Y-84729052D01*
X159303527Y-84568483D01*
X159401445Y-84385292D01*
X159461742Y-84186518D01*
X159482102Y-83979800D01*
X159461742Y-83773082D01*
X159401445Y-83574308D01*
X159303527Y-83391117D01*
X159303526Y-83391115D01*
X159171752Y-83230547D01*
X159011184Y-83098773D01*
X158827993Y-83000855D01*
X158629216Y-82940557D01*
X158422500Y-82920198D01*
X158215783Y-82940557D01*
X158017006Y-83000855D01*
X157833815Y-83098773D01*
X157673247Y-83230547D01*
X157541473Y-83391115D01*
X157443555Y-83574306D01*
X157383257Y-83773083D01*
X157362898Y-83979799D01*
X139162102Y-83979799D01*
X139141742Y-83773082D01*
X139081445Y-83574308D01*
X138983527Y-83391117D01*
X138983526Y-83391115D01*
X138851752Y-83230547D01*
X138691184Y-83098773D01*
X138507993Y-83000855D01*
X138309216Y-82940557D01*
X138102500Y-82920198D01*
X137895783Y-82940557D01*
X137697006Y-83000855D01*
X137513815Y-83098773D01*
X137353247Y-83230547D01*
X137221473Y-83391115D01*
X137123555Y-83574306D01*
X137063257Y-83773083D01*
X137042898Y-83979799D01*
X98002732Y-83979799D01*
X98084576Y-83777810D01*
X98085218Y-83776287D01*
X98086618Y-83773083D01*
X98674774Y-82426935D01*
X98675405Y-82425542D01*
X99138117Y-81439799D01*
X137042898Y-81439799D01*
X137063257Y-81646516D01*
X137123555Y-81845293D01*
X137221473Y-82028484D01*
X137353247Y-82189052D01*
X137513815Y-82320826D01*
X137513817Y-82320827D01*
X137697008Y-82418745D01*
X137895782Y-82479042D01*
X138102500Y-82499402D01*
X138309218Y-82479042D01*
X138507992Y-82418745D01*
X138691183Y-82320827D01*
X138851752Y-82189052D01*
X138983527Y-82028483D01*
X139081445Y-81845292D01*
X139141742Y-81646518D01*
X139162102Y-81439800D01*
X139162102Y-81439799D01*
X157362898Y-81439799D01*
X157383257Y-81646516D01*
X157443555Y-81845293D01*
X157541473Y-82028484D01*
X157673247Y-82189052D01*
X157833815Y-82320826D01*
X157833817Y-82320827D01*
X158017008Y-82418745D01*
X158215782Y-82479042D01*
X158422500Y-82499402D01*
X158629218Y-82479042D01*
X158827992Y-82418745D01*
X159011183Y-82320827D01*
X159171752Y-82189052D01*
X159303527Y-82028483D01*
X159401445Y-81845292D01*
X159461742Y-81646518D01*
X159482102Y-81439800D01*
X159461742Y-81233082D01*
X159401445Y-81034308D01*
X159303527Y-80851117D01*
X159303526Y-80851115D01*
X159171752Y-80690547D01*
X159011184Y-80558773D01*
X158827993Y-80460855D01*
X158629216Y-80400557D01*
X158422500Y-80380198D01*
X158215783Y-80400557D01*
X158017006Y-80460855D01*
X157833815Y-80558773D01*
X157673247Y-80690547D01*
X157541473Y-80851115D01*
X157443555Y-81034306D01*
X157383257Y-81233083D01*
X157362898Y-81439799D01*
X139162102Y-81439799D01*
X139141742Y-81233082D01*
X139081445Y-81034308D01*
X138983527Y-80851117D01*
X138983526Y-80851115D01*
X138851752Y-80690547D01*
X138691184Y-80558773D01*
X138507993Y-80460855D01*
X138309216Y-80400557D01*
X138102500Y-80380198D01*
X137895783Y-80400557D01*
X137697006Y-80460855D01*
X137513815Y-80558773D01*
X137353247Y-80690547D01*
X137221473Y-80851115D01*
X137123555Y-81034306D01*
X137063257Y-81233083D01*
X137042898Y-81439799D01*
X99138117Y-81439799D01*
X99301145Y-81092491D01*
X99301821Y-81091099D01*
X99963255Y-79775395D01*
X99963974Y-79774012D01*
X100433387Y-78899799D01*
X137042898Y-78899799D01*
X137063257Y-79106516D01*
X137123555Y-79305293D01*
X137221473Y-79488484D01*
X137353247Y-79649052D01*
X137513815Y-79780826D01*
X137513817Y-79780827D01*
X137697008Y-79878745D01*
X137895782Y-79939042D01*
X138102500Y-79959402D01*
X138309218Y-79939042D01*
X138507992Y-79878745D01*
X138691183Y-79780827D01*
X138851752Y-79649052D01*
X138983527Y-79488483D01*
X139081445Y-79305292D01*
X139141742Y-79106518D01*
X139162102Y-78899800D01*
X139162102Y-78899799D01*
X157362898Y-78899799D01*
X157383257Y-79106516D01*
X157443555Y-79305293D01*
X157541473Y-79488484D01*
X157673247Y-79649052D01*
X157833815Y-79780826D01*
X157833817Y-79780827D01*
X158017008Y-79878745D01*
X158215782Y-79939042D01*
X158422500Y-79959402D01*
X158629218Y-79939042D01*
X158827992Y-79878745D01*
X159011183Y-79780827D01*
X159171752Y-79649052D01*
X159303527Y-79488483D01*
X159401445Y-79305292D01*
X159461742Y-79106518D01*
X159482102Y-78899800D01*
X159461742Y-78693082D01*
X159401445Y-78494308D01*
X159303527Y-78311117D01*
X159303526Y-78311115D01*
X159171752Y-78150547D01*
X159011184Y-78018773D01*
X158827993Y-77920855D01*
X158629216Y-77860557D01*
X158422500Y-77840198D01*
X158215783Y-77860557D01*
X158017006Y-77920855D01*
X157833815Y-78018773D01*
X157673247Y-78150547D01*
X157541473Y-78311115D01*
X157443555Y-78494306D01*
X157383257Y-78693083D01*
X157362898Y-78899799D01*
X139162102Y-78899799D01*
X139141742Y-78693082D01*
X139081445Y-78494308D01*
X138983527Y-78311117D01*
X138983526Y-78311115D01*
X138851752Y-78150547D01*
X138691184Y-78018773D01*
X138507993Y-77920855D01*
X138309216Y-77860557D01*
X138102500Y-77840198D01*
X137895783Y-77860557D01*
X137697006Y-77920855D01*
X137513815Y-78018773D01*
X137353247Y-78150547D01*
X137221473Y-78311115D01*
X137123555Y-78494306D01*
X137063257Y-78693083D01*
X137042898Y-78899799D01*
X100433387Y-78899799D01*
X100660602Y-78476644D01*
X100661407Y-78475195D01*
X100847169Y-78150548D01*
X101392698Y-77197151D01*
X101393540Y-77195725D01*
X102159044Y-75937787D01*
X102159868Y-75936475D01*
X102815769Y-74921296D01*
X116045717Y-74921296D01*
X116055802Y-75235789D01*
X116106021Y-75546410D01*
X116172713Y-75771117D01*
X116195549Y-75848059D01*
X116322916Y-76135786D01*
X116486028Y-76404855D01*
X116486030Y-76404858D01*
X116614948Y-76566516D01*
X116682215Y-76650866D01*
X116908246Y-76869765D01*
X117160415Y-77057963D01*
X117434578Y-77212370D01*
X117726233Y-77330447D01*
X117726238Y-77330449D01*
X118030601Y-77410263D01*
X118342673Y-77450500D01*
X118578573Y-77450500D01*
X118578580Y-77450500D01*
X118814008Y-77435385D01*
X119122860Y-77375236D01*
X119421485Y-77276086D01*
X119665320Y-77158661D01*
X137048000Y-77158661D01*
X137050474Y-77179995D01*
X137050915Y-77183791D01*
X137056825Y-77197176D01*
X137096294Y-77286566D01*
X137175733Y-77366005D01*
X137175734Y-77366005D01*
X137175735Y-77366006D01*
X137278509Y-77411385D01*
X137303635Y-77414300D01*
X138901364Y-77414299D01*
X138926491Y-77411385D01*
X139029265Y-77366006D01*
X139108706Y-77286565D01*
X139154085Y-77183791D01*
X139157000Y-77158665D01*
X139156999Y-76359799D01*
X157362898Y-76359799D01*
X157383257Y-76566516D01*
X157443555Y-76765293D01*
X157541473Y-76948484D01*
X157673247Y-77109052D01*
X157833815Y-77240826D01*
X158001483Y-77330447D01*
X158017008Y-77338745D01*
X158215782Y-77399042D01*
X158422500Y-77419402D01*
X158629218Y-77399042D01*
X158827992Y-77338745D01*
X159011183Y-77240827D01*
X159171752Y-77109052D01*
X159303527Y-76948483D01*
X159401445Y-76765292D01*
X159461742Y-76566518D01*
X159482102Y-76359800D01*
X159461742Y-76153082D01*
X159401445Y-75954308D01*
X159303527Y-75771117D01*
X159303526Y-75771115D01*
X159171752Y-75610547D01*
X159011184Y-75478773D01*
X158827993Y-75380855D01*
X158629216Y-75320557D01*
X158422500Y-75300198D01*
X158215783Y-75320557D01*
X158017006Y-75380855D01*
X157833815Y-75478773D01*
X157673247Y-75610547D01*
X157541473Y-75771115D01*
X157443555Y-75954306D01*
X157383257Y-76153083D01*
X157362898Y-76359799D01*
X139156999Y-76359799D01*
X139156999Y-75560936D01*
X139154085Y-75535809D01*
X139108706Y-75433035D01*
X139108705Y-75433034D01*
X139108705Y-75433033D01*
X139029266Y-75353594D01*
X138954443Y-75320557D01*
X138926491Y-75308215D01*
X138901365Y-75305300D01*
X138901361Y-75305300D01*
X137303638Y-75305300D01*
X137278509Y-75308215D01*
X137175733Y-75353594D01*
X137096294Y-75433033D01*
X137050915Y-75535808D01*
X137050915Y-75535809D01*
X137049686Y-75546408D01*
X137048000Y-75560938D01*
X137048000Y-77158661D01*
X119665320Y-77158661D01*
X119704979Y-77139562D01*
X119968687Y-76967907D01*
X120208280Y-76763939D01*
X120419822Y-76531007D01*
X120599842Y-76272936D01*
X120745381Y-75993964D01*
X120854052Y-75698670D01*
X120924069Y-75391905D01*
X120954283Y-75078704D01*
X120949235Y-74921296D01*
X176045717Y-74921296D01*
X176055802Y-75235789D01*
X176106021Y-75546410D01*
X176172713Y-75771117D01*
X176195549Y-75848059D01*
X176322916Y-76135786D01*
X176486028Y-76404855D01*
X176486030Y-76404858D01*
X176614948Y-76566516D01*
X176682215Y-76650866D01*
X176908246Y-76869765D01*
X177160415Y-77057963D01*
X177434578Y-77212370D01*
X177726233Y-77330447D01*
X177726238Y-77330449D01*
X178030601Y-77410263D01*
X178342673Y-77450500D01*
X178578573Y-77450500D01*
X178578580Y-77450500D01*
X178814008Y-77435385D01*
X179122860Y-77375236D01*
X179421485Y-77276086D01*
X179704979Y-77139562D01*
X179968687Y-76967907D01*
X180208280Y-76763939D01*
X180419822Y-76531007D01*
X180599842Y-76272936D01*
X180745381Y-75993964D01*
X180854052Y-75698670D01*
X180924069Y-75391905D01*
X180954283Y-75078704D01*
X180944198Y-74764211D01*
X180893979Y-74453590D01*
X180804451Y-74151941D01*
X180677084Y-73864216D01*
X180677083Y-73864213D01*
X180513971Y-73595144D01*
X180513970Y-73595142D01*
X180317786Y-73349135D01*
X180091754Y-73130235D01*
X179960252Y-73032093D01*
X179839584Y-72942036D01*
X179565421Y-72787629D01*
X179273766Y-72669552D01*
X178969397Y-72589736D01*
X178657327Y-72549500D01*
X178421420Y-72549500D01*
X178185992Y-72564615D01*
X178185988Y-72564615D01*
X178185984Y-72564616D01*
X177877143Y-72624763D01*
X177578519Y-72723912D01*
X177295014Y-72860441D01*
X177031312Y-73032093D01*
X176791721Y-73236059D01*
X176580178Y-73468992D01*
X176400157Y-73727065D01*
X176254618Y-74006036D01*
X176145949Y-74301326D01*
X176075930Y-74608097D01*
X176045717Y-74921293D01*
X176045717Y-74921296D01*
X120949235Y-74921296D01*
X120944198Y-74764211D01*
X120893979Y-74453590D01*
X120804451Y-74151941D01*
X120677084Y-73864216D01*
X120677083Y-73864213D01*
X120513971Y-73595144D01*
X120513970Y-73595142D01*
X120317786Y-73349135D01*
X120091754Y-73130235D01*
X119960252Y-73032093D01*
X119839584Y-72942036D01*
X119565421Y-72787629D01*
X119273766Y-72669552D01*
X118969397Y-72589736D01*
X118657327Y-72549500D01*
X118421420Y-72549500D01*
X118185992Y-72564615D01*
X118185988Y-72564615D01*
X118185984Y-72564616D01*
X117877143Y-72624763D01*
X117578519Y-72723912D01*
X117295014Y-72860441D01*
X117031312Y-73032093D01*
X116791721Y-73236059D01*
X116580178Y-73468992D01*
X116400157Y-73727065D01*
X116254618Y-74006036D01*
X116145949Y-74301326D01*
X116075930Y-74608097D01*
X116045717Y-74921293D01*
X116045717Y-74921296D01*
X102815769Y-74921296D01*
X102959013Y-74699589D01*
X102959891Y-74698270D01*
X103792043Y-73483419D01*
X103792992Y-73482074D01*
X104296695Y-72787630D01*
X104657583Y-72290080D01*
X104658538Y-72288801D01*
X105554930Y-71120549D01*
X105555966Y-71119237D01*
X106483464Y-69975624D01*
X106484542Y-69974330D01*
X107442583Y-68856054D01*
X107443633Y-68854862D01*
X108431487Y-67762779D01*
X108432539Y-67761647D01*
X108687677Y-67494431D01*
X127304784Y-67494431D01*
X127323602Y-67697513D01*
X127379417Y-67893681D01*
X127470326Y-68076252D01*
X127470327Y-68076253D01*
X127593236Y-68239011D01*
X127743959Y-68376413D01*
X127917363Y-68483780D01*
X128107544Y-68557456D01*
X128308024Y-68594932D01*
X128511975Y-68594932D01*
X128511976Y-68594932D01*
X128712456Y-68557456D01*
X128902637Y-68483780D01*
X129076041Y-68376413D01*
X129226764Y-68239011D01*
X129349673Y-68076253D01*
X129440582Y-67893682D01*
X129483048Y-67744433D01*
X129671127Y-67744433D01*
X129723732Y-67940755D01*
X129819866Y-68146915D01*
X129950337Y-68333248D01*
X130111183Y-68494094D01*
X130297516Y-68624565D01*
X130503676Y-68720699D01*
X130699998Y-68773304D01*
X130700000Y-68773304D01*
X130700000Y-67744432D01*
X131200000Y-67744432D01*
X131200000Y-68773304D01*
X131200001Y-68773304D01*
X131396323Y-68720699D01*
X131602483Y-68624565D01*
X131788816Y-68494094D01*
X131949662Y-68333248D01*
X132080133Y-68146915D01*
X132176267Y-67940755D01*
X132228872Y-67744433D01*
X132228872Y-67744432D01*
X131200000Y-67744432D01*
X130700000Y-67744432D01*
X129671128Y-67744432D01*
X129671127Y-67744433D01*
X129483048Y-67744433D01*
X129496397Y-67697515D01*
X129515215Y-67494432D01*
X129496397Y-67291349D01*
X129483047Y-67244430D01*
X129671127Y-67244430D01*
X129671128Y-67244432D01*
X130700000Y-67244432D01*
X131200000Y-67244432D01*
X132228872Y-67244432D01*
X132228872Y-67244430D01*
X132176267Y-67048108D01*
X132080133Y-66841948D01*
X131949662Y-66655615D01*
X131788816Y-66494769D01*
X131602483Y-66364298D01*
X131396323Y-66268164D01*
X131200001Y-66215559D01*
X131200000Y-66215560D01*
X131200000Y-67244432D01*
X130700000Y-67244432D01*
X130700000Y-66215560D01*
X130699998Y-66215559D01*
X130503676Y-66268164D01*
X130297516Y-66364298D01*
X130111183Y-66494769D01*
X129950337Y-66655615D01*
X129819866Y-66841948D01*
X129723732Y-67048108D01*
X129671127Y-67244430D01*
X129483047Y-67244430D01*
X129440582Y-67095182D01*
X129349673Y-66912611D01*
X129226764Y-66749853D01*
X129076041Y-66612451D01*
X128902637Y-66505084D01*
X128902634Y-66505083D01*
X128902633Y-66505082D01*
X128712458Y-66431408D01*
X128578802Y-66406423D01*
X128511976Y-66393932D01*
X128308024Y-66393932D01*
X128257903Y-66403301D01*
X128107541Y-66431408D01*
X127917366Y-66505082D01*
X127743957Y-66612452D01*
X127593236Y-66749852D01*
X127470326Y-66912611D01*
X127379417Y-67095182D01*
X127323602Y-67291350D01*
X127304784Y-67494431D01*
X108687677Y-67494431D01*
X109449484Y-66696559D01*
X109450587Y-66695435D01*
X110495799Y-65658204D01*
X110496989Y-65657053D01*
X111569762Y-64648373D01*
X111570943Y-64647291D01*
X112670527Y-63667868D01*
X112671783Y-63666780D01*
X113797378Y-62717328D01*
X113798583Y-62716339D01*
X114949375Y-61797546D01*
X114950584Y-61796607D01*
X116125773Y-60909119D01*
X116126992Y-60908223D01*
X117325615Y-60052764D01*
X117326926Y-60051855D01*
X117590251Y-59874431D01*
X127304784Y-59874431D01*
X127323602Y-60077513D01*
X127379417Y-60273681D01*
X127470326Y-60456252D01*
X127470327Y-60456253D01*
X127593236Y-60619011D01*
X127743959Y-60756413D01*
X127917363Y-60863780D01*
X127917366Y-60863781D01*
X128079616Y-60926637D01*
X128107544Y-60937456D01*
X128308024Y-60974932D01*
X128511975Y-60974932D01*
X128511976Y-60974932D01*
X128712456Y-60937456D01*
X128902637Y-60863780D01*
X129076041Y-60756413D01*
X129116760Y-60719293D01*
X129849500Y-60719293D01*
X129851974Y-60740627D01*
X129852415Y-60744423D01*
X129857709Y-60756413D01*
X129897794Y-60847198D01*
X129977233Y-60926637D01*
X129977234Y-60926637D01*
X129977235Y-60926638D01*
X130080009Y-60972017D01*
X130105135Y-60974932D01*
X131794864Y-60974931D01*
X131819991Y-60972017D01*
X131922765Y-60926638D01*
X132002206Y-60847197D01*
X132047585Y-60744423D01*
X132050500Y-60719297D01*
X132050499Y-59029568D01*
X132047585Y-59004441D01*
X132002206Y-58901667D01*
X132002205Y-58901666D01*
X132002205Y-58901665D01*
X131922766Y-58822226D01*
X131871378Y-58799536D01*
X131819991Y-58776847D01*
X131794865Y-58773932D01*
X131794861Y-58773932D01*
X130105138Y-58773932D01*
X130080009Y-58776847D01*
X129977233Y-58822226D01*
X129897794Y-58901665D01*
X129852415Y-59004441D01*
X129849500Y-59029570D01*
X129849500Y-60719293D01*
X129116760Y-60719293D01*
X129226764Y-60619011D01*
X129349673Y-60456253D01*
X129440582Y-60273682D01*
X129496397Y-60077515D01*
X129515215Y-59874432D01*
X129496397Y-59671349D01*
X129440582Y-59475182D01*
X129349673Y-59292611D01*
X129226764Y-59129853D01*
X129076041Y-58992451D01*
X128902637Y-58885084D01*
X128902634Y-58885083D01*
X128902633Y-58885082D01*
X128712458Y-58811408D01*
X128578802Y-58786423D01*
X128511976Y-58773932D01*
X128308024Y-58773932D01*
X128257904Y-58783300D01*
X128107541Y-58811408D01*
X127917366Y-58885082D01*
X127743957Y-58992452D01*
X127593236Y-59129852D01*
X127470326Y-59292611D01*
X127379417Y-59475182D01*
X127323602Y-59671350D01*
X127304784Y-59874431D01*
X117590251Y-59874431D01*
X118548154Y-59229013D01*
X118549456Y-59228160D01*
X119792467Y-58438493D01*
X119793750Y-58437702D01*
X121057575Y-57681825D01*
X121058920Y-57681045D01*
X122342625Y-56959516D01*
X122344033Y-56958750D01*
X123261752Y-56474999D01*
X136681936Y-56474999D01*
X136702150Y-56706051D01*
X136762179Y-56930077D01*
X136860199Y-57140281D01*
X136993229Y-57330269D01*
X137157230Y-57494270D01*
X137290260Y-57587418D01*
X137347219Y-57627301D01*
X137557421Y-57725320D01*
X137632097Y-57745329D01*
X137781448Y-57785349D01*
X137954627Y-57800500D01*
X137954629Y-57800500D01*
X138070371Y-57800500D01*
X138070373Y-57800500D01*
X138243551Y-57785349D01*
X138318226Y-57765339D01*
X138467579Y-57725320D01*
X138677781Y-57627301D01*
X138867769Y-57494270D01*
X139031770Y-57330269D01*
X139164801Y-57140282D01*
X139262820Y-56930079D01*
X139322849Y-56706050D01*
X139343063Y-56475000D01*
X139343063Y-56474999D01*
X157181936Y-56474999D01*
X157202150Y-56706051D01*
X157262179Y-56930077D01*
X157360199Y-57140281D01*
X157493229Y-57330269D01*
X157657230Y-57494270D01*
X157790260Y-57587418D01*
X157847219Y-57627301D01*
X158057421Y-57725320D01*
X158132097Y-57745329D01*
X158281448Y-57785349D01*
X158454627Y-57800500D01*
X158454629Y-57800500D01*
X158570371Y-57800500D01*
X158570373Y-57800500D01*
X158743551Y-57785349D01*
X158818226Y-57765339D01*
X158967579Y-57725320D01*
X159177781Y-57627301D01*
X159367769Y-57494270D01*
X159531770Y-57330269D01*
X159664801Y-57140282D01*
X159762820Y-56930079D01*
X159822849Y-56706050D01*
X159843063Y-56475000D01*
X159822849Y-56243950D01*
X159822849Y-56243948D01*
X159762820Y-56019922D01*
X159762820Y-56019921D01*
X159664801Y-55809719D01*
X159624918Y-55752761D01*
X159531770Y-55619730D01*
X159367769Y-55455729D01*
X159177781Y-55322699D01*
X158967577Y-55224679D01*
X158743551Y-55164650D01*
X158570373Y-55149500D01*
X158570371Y-55149500D01*
X158454629Y-55149500D01*
X158454627Y-55149500D01*
X158281448Y-55164650D01*
X158057422Y-55224679D01*
X157847218Y-55322699D01*
X157657230Y-55455729D01*
X157493229Y-55619730D01*
X157360199Y-55809717D01*
X157262179Y-56019922D01*
X157202150Y-56243948D01*
X157181936Y-56474999D01*
X139343063Y-56474999D01*
X139322849Y-56243950D01*
X139322849Y-56243948D01*
X139262820Y-56019922D01*
X139262820Y-56019921D01*
X139164801Y-55809719D01*
X139124918Y-55752761D01*
X139031770Y-55619730D01*
X138867769Y-55455729D01*
X138677781Y-55322699D01*
X138467577Y-55224679D01*
X138243551Y-55164650D01*
X138070373Y-55149500D01*
X138070371Y-55149500D01*
X137954629Y-55149500D01*
X137954627Y-55149500D01*
X137781448Y-55164650D01*
X137557422Y-55224679D01*
X137347218Y-55322699D01*
X137157230Y-55455729D01*
X136993229Y-55619730D01*
X136860199Y-55809717D01*
X136762179Y-56019922D01*
X136702150Y-56243948D01*
X136681936Y-56474999D01*
X123261752Y-56474999D01*
X123646654Y-56272108D01*
X123648144Y-56271349D01*
X123703702Y-56243950D01*
X124968823Y-55620044D01*
X124970191Y-55619392D01*
X126307993Y-55003889D01*
X126309460Y-55003238D01*
X127663312Y-54424030D01*
X127664782Y-54423424D01*
X129033796Y-53880891D01*
X129035249Y-53880338D01*
X130418370Y-53374900D01*
X130419844Y-53374384D01*
X131816061Y-52906407D01*
X131817600Y-52905913D01*
X133225958Y-52475720D01*
X133227431Y-52475292D01*
X134646900Y-52083197D01*
X134648401Y-52082805D01*
X136077830Y-51729127D01*
X136079388Y-51728763D01*
X137517857Y-51413725D01*
X137519456Y-51413398D01*
X138965848Y-51137246D01*
X138967426Y-51136967D01*
X140420829Y-50899876D01*
X140422355Y-50899649D01*
X141881537Y-50701821D01*
X141883167Y-50701622D01*
X143347185Y-50543184D01*
X143348703Y-50543040D01*
X144816524Y-50424105D01*
X144818092Y-50423999D01*
X146288485Y-50344667D01*
X146290130Y-50344600D01*
X147762069Y-50304921D01*
X147763754Y-50304898D01*
X149236246Y-50304898D01*
X149237930Y-50304921D01*
G37*
%TD.AperFunction*%
%TD*%
%TA.AperFunction,Conductor*%
%TO.N,LORA_RECEIVE_STATUS*%
G36*
X138402017Y-103608114D02*
G01*
X139603586Y-104146701D01*
X139608620Y-104151018D01*
X139610500Y-104157378D01*
X139610500Y-104442222D01*
X139608620Y-104448582D01*
X139603586Y-104452899D01*
X138402017Y-104991485D01*
X138395931Y-104992436D01*
X138390205Y-104990164D01*
X138386427Y-104985299D01*
X138163341Y-104448582D01*
X138103365Y-104304288D01*
X138102470Y-104299799D01*
X138103364Y-104295313D01*
X138386427Y-103614299D01*
X138390205Y-103609435D01*
X138395931Y-103607163D01*
X138402017Y-103608114D01*
G37*
%TD.AperFunction*%
%TD*%
%TA.AperFunction,Conductor*%
%TO.N,SPI_SCLK*%
G36*
X158722727Y-101070419D02*
G01*
X159931992Y-101818070D01*
X159936540Y-101823291D01*
X159937340Y-101830169D01*
X159934112Y-101836295D01*
X159804667Y-101965740D01*
X159801177Y-101968145D01*
X158722023Y-102451487D01*
X158715935Y-102452436D01*
X158710209Y-102450161D01*
X158706433Y-102445292D01*
X158507511Y-101965740D01*
X158423653Y-101763578D01*
X158422761Y-101759093D01*
X158423656Y-101754610D01*
X158705770Y-101075878D01*
X158709968Y-101070715D01*
X158716303Y-101068674D01*
X158722727Y-101070419D01*
G37*
%TD.AperFunction*%
%TD*%
%TA.AperFunction,Conductor*%
%TO.N,SPI_MOSI*%
G36*
X158722215Y-103608663D02*
G01*
X159923903Y-104196791D01*
X159928686Y-104201107D01*
X159930460Y-104207300D01*
X159930460Y-104392698D01*
X159928686Y-104398893D01*
X159923900Y-104403208D01*
X158722214Y-104990941D01*
X158716034Y-104992085D01*
X158710153Y-104989865D01*
X158706270Y-104984922D01*
X158423366Y-104304290D01*
X158422470Y-104299799D01*
X158423364Y-104295313D01*
X158706269Y-103614678D01*
X158710152Y-103609738D01*
X158716034Y-103607518D01*
X158722215Y-103608663D01*
G37*
%TD.AperFunction*%
%TD*%
%TA.AperFunction,Conductor*%
%TO.N,CAN_RECEIVE_STATUS*%
G36*
X138402017Y-98528114D02*
G01*
X139603586Y-99066701D01*
X139608620Y-99071018D01*
X139610500Y-99077378D01*
X139610500Y-99362222D01*
X139608620Y-99368582D01*
X139603586Y-99372899D01*
X138402017Y-99911485D01*
X138395931Y-99912436D01*
X138390205Y-99910164D01*
X138386427Y-99905299D01*
X138163341Y-99368582D01*
X138103365Y-99224287D01*
X138102470Y-99219800D01*
X138103365Y-99215312D01*
X138386427Y-98534299D01*
X138390205Y-98529435D01*
X138395931Y-98527163D01*
X138402017Y-98528114D01*
G37*
%TD.AperFunction*%
%TD*%
%TA.AperFunction,Conductor*%
%TO.N,SPI_CS_MCP*%
G36*
X172330658Y-121558757D02*
G01*
X172336590Y-121564884D01*
X172429110Y-121785981D01*
X172430017Y-121790497D01*
X172429110Y-121795013D01*
X172336590Y-122016109D01*
X172330658Y-122022236D01*
X172322143Y-122022708D01*
X171928046Y-121893142D01*
X171922223Y-121888888D01*
X171920000Y-121882027D01*
X171920000Y-121698967D01*
X171922223Y-121692106D01*
X171928046Y-121687852D01*
X172078069Y-121638528D01*
X172322144Y-121558285D01*
X172330658Y-121558757D01*
G37*
%TD.AperFunction*%
%TD*%
%TA.AperFunction,Conductor*%
%TO.N,LORA_RECEIVE_STATUS*%
G36*
X144982508Y-98501176D02*
G01*
X145203486Y-98593649D01*
X145209464Y-98599271D01*
X145210278Y-98607438D01*
X145081500Y-99093484D01*
X145076919Y-99100059D01*
X145069181Y-99102143D01*
X145061917Y-99098760D01*
X144865848Y-98902691D01*
X144863272Y-98898798D01*
X144746043Y-98608318D01*
X144746101Y-98599421D01*
X144752397Y-98593138D01*
X144973504Y-98501165D01*
X144978005Y-98500270D01*
X144982508Y-98501176D01*
G37*
%TD.AperFunction*%
%TD*%
%TA.AperFunction,Conductor*%
%TO.N,SPI_SCLK*%
G36*
X185168676Y-101653828D02*
G01*
X185172558Y-101658770D01*
X185453933Y-102335708D01*
X185454829Y-102340199D01*
X185453933Y-102344690D01*
X185172558Y-103021629D01*
X185168676Y-103026571D01*
X185162796Y-103028791D01*
X185156616Y-103027649D01*
X184496312Y-102704892D01*
X183961360Y-102443406D01*
X183956575Y-102439093D01*
X183954800Y-102432897D01*
X183954800Y-102247503D01*
X183956575Y-102241307D01*
X183961360Y-102236993D01*
X185156617Y-101652749D01*
X185162796Y-101651608D01*
X185168676Y-101653828D01*
G37*
%TD.AperFunction*%
%TD*%
%TA.AperFunction,Conductor*%
%TO.N,CAN_RECEIVE_STATUS*%
G36*
X145250635Y-85406074D02*
G01*
X145473477Y-85497435D01*
X145477311Y-85499988D01*
X145479864Y-85503823D01*
X145571224Y-85726662D01*
X145571574Y-85734563D01*
X145566817Y-85740882D01*
X145230701Y-85961466D01*
X145223087Y-85963323D01*
X145216009Y-85959957D01*
X145017342Y-85761290D01*
X145013976Y-85754212D01*
X145015832Y-85746600D01*
X145236418Y-85410481D01*
X145242736Y-85405725D01*
X145250635Y-85406074D01*
G37*
%TD.AperFunction*%
%TD*%
%TA.AperFunction,Conductor*%
%TO.N,CAN_SEND_STATUS*%
G36*
X138402017Y-101068114D02*
G01*
X139603586Y-101606701D01*
X139608620Y-101611018D01*
X139610500Y-101617378D01*
X139610500Y-101902222D01*
X139608620Y-101908582D01*
X139603586Y-101912899D01*
X138402017Y-102451485D01*
X138395931Y-102452436D01*
X138390205Y-102450164D01*
X138386427Y-102445299D01*
X138163341Y-101908582D01*
X138103365Y-101764288D01*
X138102470Y-101759799D01*
X138103364Y-101755313D01*
X138386427Y-101074299D01*
X138390205Y-101069435D01*
X138395931Y-101067163D01*
X138402017Y-101068114D01*
G37*
%TD.AperFunction*%
%TD*%
%TA.AperFunction,Conductor*%
%TO.N,SPI_CS_MCP*%
G36*
X158722750Y-106150516D02*
G01*
X159936051Y-106909299D01*
X159940563Y-106914523D01*
X159941344Y-106921384D01*
X159938119Y-106927490D01*
X159808660Y-107056949D01*
X159805063Y-107059401D01*
X158721961Y-107531644D01*
X158715903Y-107532537D01*
X158710223Y-107530247D01*
X158706479Y-107525404D01*
X158423653Y-106843578D01*
X158422761Y-106839093D01*
X158423656Y-106834610D01*
X158705743Y-106155945D01*
X158709957Y-106150769D01*
X158716316Y-106148739D01*
X158722750Y-106150516D01*
G37*
%TD.AperFunction*%
%TD*%
%TA.AperFunction,Conductor*%
%TO.N,SPI_MOSI*%
G36*
X185168676Y-104193828D02*
G01*
X185172558Y-104198770D01*
X185453933Y-104875708D01*
X185454829Y-104880199D01*
X185453933Y-104884690D01*
X185172558Y-105561629D01*
X185168676Y-105566571D01*
X185162796Y-105568791D01*
X185156616Y-105567649D01*
X184496312Y-105244892D01*
X183961360Y-104983406D01*
X183956575Y-104979093D01*
X183954800Y-104972897D01*
X183954800Y-104787503D01*
X183956575Y-104781307D01*
X183961360Y-104776993D01*
X185156617Y-104192749D01*
X185162796Y-104191608D01*
X185168676Y-104193828D01*
G37*
%TD.AperFunction*%
%TD*%
%TA.AperFunction,Conductor*%
%TO.N,SPI_MISO*%
G36*
X176600658Y-102768460D02*
G01*
X176606590Y-102774587D01*
X176699110Y-102995683D01*
X176700017Y-103000199D01*
X176699110Y-103004715D01*
X176606590Y-103225812D01*
X176600658Y-103231939D01*
X176592143Y-103232411D01*
X176198046Y-103102845D01*
X176192223Y-103098591D01*
X176190000Y-103091730D01*
X176190000Y-102908670D01*
X176192223Y-102901809D01*
X176198046Y-102897555D01*
X176348069Y-102848231D01*
X176592144Y-102767988D01*
X176600658Y-102768460D01*
G37*
%TD.AperFunction*%
%TD*%
%TA.AperFunction,Conductor*%
%TO.N,CAN_SEND_STATUS*%
G36*
X145262934Y-86906074D02*
G01*
X145485776Y-86997435D01*
X145489610Y-86999988D01*
X145492163Y-87003823D01*
X145583523Y-87226662D01*
X145583873Y-87234563D01*
X145579116Y-87240882D01*
X145243000Y-87461466D01*
X145235386Y-87463323D01*
X145228308Y-87459957D01*
X145029641Y-87261290D01*
X145026275Y-87254212D01*
X145028131Y-87246600D01*
X145248717Y-86910481D01*
X145255035Y-86905725D01*
X145262934Y-86906074D01*
G37*
%TD.AperFunction*%
%TD*%
%TA.AperFunction,Conductor*%
%TO.N,SPI_MISO*%
G36*
X158722870Y-98531049D02*
G01*
X159914289Y-99322269D01*
X159918617Y-99327518D01*
X159919293Y-99334288D01*
X159916089Y-99340289D01*
X159786424Y-99469954D01*
X159782629Y-99472490D01*
X158721847Y-99911929D01*
X158712895Y-99911931D01*
X158706562Y-99905603D01*
X158526534Y-99471600D01*
X158423653Y-99223578D01*
X158422761Y-99219093D01*
X158423656Y-99214610D01*
X158705594Y-98536302D01*
X158709896Y-98531069D01*
X158716380Y-98529096D01*
X158722870Y-98531049D01*
G37*
%TD.AperFunction*%
%TD*%
M02*
