%TF.GenerationSoftware,KiCad,Pcbnew,7.0.1-0*%
%TF.CreationDate,2023-05-24T18:25:06+09:00*%
%TF.ProjectId,AirData,41697244-6174-4612-9e6b-696361645f70,rev?*%
%TF.SameCoordinates,Original*%
%TF.FileFunction,Soldermask,Bot*%
%TF.FilePolarity,Negative*%
%FSLAX46Y46*%
G04 Gerber Fmt 4.6, Leading zero omitted, Abs format (unit mm)*
G04 Created by KiCad (PCBNEW 7.0.1-0) date 2023-05-24 18:25:06*
%MOMM*%
%LPD*%
G01*
G04 APERTURE LIST*
G04 Aperture macros list*
%AMRoundRect*
0 Rectangle with rounded corners*
0 $1 Rounding radius*
0 $2 $3 $4 $5 $6 $7 $8 $9 X,Y pos of 4 corners*
0 Add a 4 corners polygon primitive as box body*
4,1,4,$2,$3,$4,$5,$6,$7,$8,$9,$2,$3,0*
0 Add four circle primitives for the rounded corners*
1,1,$1+$1,$2,$3*
1,1,$1+$1,$4,$5*
1,1,$1+$1,$6,$7*
1,1,$1+$1,$8,$9*
0 Add four rect primitives between the rounded corners*
20,1,$1+$1,$2,$3,$4,$5,0*
20,1,$1+$1,$4,$5,$6,$7,0*
20,1,$1+$1,$6,$7,$8,$9,0*
20,1,$1+$1,$8,$9,$2,$3,0*%
G04 Aperture macros list end*
%ADD10C,4.500000*%
%ADD11RoundRect,0.250000X-0.350000X-0.560000X0.350000X-0.560000X0.350000X0.560000X-0.350000X0.560000X0*%
%ADD12O,1.200000X1.650000*%
%ADD13C,2.250000*%
%ADD14R,1.508000X1.508000*%
%ADD15C,1.508000*%
%ADD16R,1.600000X1.600000*%
%ADD17O,1.600000X1.600000*%
%ADD18R,1.500000X1.500000*%
%ADD19C,1.500000*%
G04 APERTURE END LIST*
D10*
%TO.C,REF\u002A\u002A*%
X178500000Y-75000000D03*
%TD*%
D11*
%TO.C,J1*%
X161977300Y-131690000D03*
D12*
X161977300Y-133690000D03*
X163977300Y-131690000D03*
X163977300Y-133690000D03*
X165977300Y-131690000D03*
X165977300Y-133690000D03*
X167977300Y-131690000D03*
X167977300Y-133690000D03*
%TD*%
D10*
%TO.C,REF\u002A\u002A*%
X118500000Y-135000000D03*
%TD*%
D13*
%TO.C,U4*%
X158512500Y-56475000D03*
X138012500Y-56475000D03*
X158512500Y-113475000D03*
X138012500Y-113475000D03*
D14*
X138102500Y-76359800D03*
D15*
X138102500Y-78899800D03*
X138102500Y-81439800D03*
X138102500Y-83979800D03*
X138102500Y-86519800D03*
X138102500Y-89059800D03*
X138102500Y-91599800D03*
X138102500Y-94139800D03*
X138102500Y-96679800D03*
X138102500Y-99219800D03*
X138102500Y-101759800D03*
X138102500Y-104299800D03*
X138102500Y-106839800D03*
X138102500Y-109379800D03*
X158422500Y-109379800D03*
X158422500Y-106839800D03*
X158422500Y-104299800D03*
X158422500Y-101759800D03*
X158422500Y-99219800D03*
X158422500Y-96679800D03*
X158422500Y-94139800D03*
X158422500Y-91599800D03*
X158422500Y-89059800D03*
X158422500Y-86519800D03*
X158422500Y-83979800D03*
X158422500Y-81439800D03*
X158422500Y-78899800D03*
X158422500Y-76359800D03*
%TD*%
D16*
%TO.C,SW1*%
X130950000Y-59874432D03*
D17*
X128410000Y-59874432D03*
X128410000Y-67494432D03*
X130950000Y-67494432D03*
%TD*%
D10*
%TO.C,REF\u002A\u002A*%
X178500000Y-135000000D03*
%TD*%
D18*
%TO.C,U1*%
X193254800Y-119200200D03*
D19*
X190714800Y-119200200D03*
X188174800Y-119200200D03*
X185634800Y-119200200D03*
X185634800Y-126820200D03*
X188174800Y-126820200D03*
X190714800Y-126820200D03*
X193254800Y-126820200D03*
%TD*%
D13*
%TO.C,TP1*%
X171900000Y-128999432D03*
%TD*%
%TO.C,TP2*%
X171900000Y-125699432D03*
%TD*%
D10*
%TO.C,REF\u002A\u002A*%
X118500000Y-75000000D03*
%TD*%
D19*
%TO.C,Y1*%
X187004800Y-86000200D03*
X191884800Y-86000200D03*
%TD*%
D18*
%TO.C,U2*%
X193074800Y-115040200D03*
D19*
X193074800Y-112500200D03*
X193074800Y-109960200D03*
X193074800Y-107420200D03*
X193074800Y-104880200D03*
X193074800Y-102340200D03*
X193074800Y-99800200D03*
X193074800Y-97260200D03*
X193074800Y-94720200D03*
X185454800Y-94720200D03*
X185454800Y-97260200D03*
X185454800Y-99800200D03*
X185454800Y-102340200D03*
X185454800Y-104880200D03*
X185454800Y-107420200D03*
X185454800Y-109960200D03*
X185454800Y-112500200D03*
X185454800Y-115040200D03*
%TD*%
M02*
