%TF.GenerationSoftware,KiCad,Pcbnew,7.0.1-0*%
%TF.CreationDate,2023-05-25T18:21:20+09:00*%
%TF.ProjectId,SystemData,53797374-656d-4446-9174-612e6b696361,rev?*%
%TF.SameCoordinates,Original*%
%TF.FileFunction,Legend,Top*%
%TF.FilePolarity,Positive*%
%FSLAX46Y46*%
G04 Gerber Fmt 4.6, Leading zero omitted, Abs format (unit mm)*
G04 Created by KiCad (PCBNEW 7.0.1-0) date 2023-05-25 18:21:20*
%MOMM*%
%LPD*%
G01*
G04 APERTURE LIST*
%ADD10C,0.100000*%
%ADD11C,0.153000*%
%ADD12C,0.150000*%
%ADD13C,0.200000*%
%ADD14C,0.120000*%
%ADD15C,0.127000*%
G04 APERTURE END LIST*
D10*
X127500000Y-120375000D02*
X137000000Y-120375000D01*
X137000000Y-129000000D01*
X127500000Y-129000000D01*
X127500000Y-120375000D01*
X162227500Y-60000200D02*
X172227500Y-60000200D01*
X172227500Y-72250200D01*
X162227500Y-72250200D01*
X162227500Y-60000200D01*
X173477500Y-116500200D02*
X179477500Y-116500200D01*
X179477500Y-122250200D01*
X173477500Y-122250200D01*
X173477500Y-116500200D01*
X170977500Y-83500200D02*
X182727500Y-83500200D01*
X182727500Y-94500200D01*
X170977500Y-94500200D01*
X170977500Y-83500200D01*
D11*
G36*
X166150095Y-79963039D02*
G01*
X161127643Y-79963039D01*
X161127643Y-79261123D01*
X161610949Y-79261123D01*
X161620498Y-79305021D01*
X161677217Y-79361741D01*
X161683792Y-79372810D01*
X161702646Y-79382237D01*
X161721146Y-79392339D01*
X161722636Y-79392232D01*
X161795434Y-79428631D01*
X161810870Y-79438551D01*
X161826504Y-79438551D01*
X161841891Y-79441320D01*
X161848567Y-79438551D01*
X162067310Y-79438551D01*
X162085548Y-79440520D01*
X162099528Y-79433529D01*
X162114533Y-79429124D01*
X162119267Y-79423660D01*
X162192296Y-79387145D01*
X162204877Y-79384409D01*
X162219788Y-79369497D01*
X162235216Y-79355147D01*
X162235586Y-79353698D01*
X162261595Y-79327688D01*
X162272663Y-79321115D01*
X162282087Y-79302266D01*
X162292193Y-79283759D01*
X162292086Y-79282268D01*
X162328484Y-79209472D01*
X162338404Y-79194037D01*
X162338404Y-79178403D01*
X162341173Y-79163016D01*
X162338404Y-79156340D01*
X162338404Y-78937596D01*
X162340373Y-78919358D01*
X162333382Y-78905376D01*
X162328977Y-78890374D01*
X162323514Y-78885640D01*
X162286998Y-78812608D01*
X162284262Y-78800031D01*
X162269366Y-78785135D01*
X162255000Y-78769691D01*
X162253551Y-78769320D01*
X162227542Y-78743311D01*
X162220969Y-78732244D01*
X162202124Y-78722821D01*
X162183614Y-78712714D01*
X162182122Y-78712820D01*
X162109326Y-78676422D01*
X162093891Y-78666503D01*
X162078257Y-78666503D01*
X162062870Y-78663734D01*
X162056194Y-78666503D01*
X161837450Y-78666503D01*
X161819212Y-78664534D01*
X161805230Y-78671524D01*
X161790228Y-78675930D01*
X161785494Y-78681392D01*
X161782913Y-78682683D01*
X161807327Y-78438551D01*
X162225285Y-78438551D01*
X162257390Y-78429124D01*
X162286810Y-78395172D01*
X162291157Y-78364932D01*
X162467941Y-78364932D01*
X162804001Y-79373113D01*
X162803690Y-79381734D01*
X162810968Y-79394013D01*
X162811856Y-79396677D01*
X162816551Y-79403432D01*
X162826596Y-79420380D01*
X162829255Y-79421712D01*
X162830952Y-79424154D01*
X162849156Y-79431685D01*
X162866761Y-79440507D01*
X162869715Y-79440190D01*
X162872465Y-79441328D01*
X162891845Y-79437822D01*
X162911430Y-79435726D01*
X162913747Y-79433860D01*
X162916673Y-79433331D01*
X162931078Y-79419907D01*
X162946423Y-79407553D01*
X162947363Y-79404731D01*
X162949539Y-79402704D01*
X162954401Y-79383617D01*
X162957923Y-79373051D01*
X164233024Y-79373051D01*
X164242451Y-79405156D01*
X164276403Y-79434576D01*
X164320871Y-79440969D01*
X164361736Y-79422307D01*
X164386024Y-79384514D01*
X164386024Y-78380502D01*
X164708149Y-78380502D01*
X164709214Y-78382366D01*
X164709214Y-79373051D01*
X164718641Y-79405156D01*
X164752593Y-79434576D01*
X164797061Y-79440969D01*
X164837926Y-79422307D01*
X164862214Y-79384514D01*
X164862214Y-78650116D01*
X165286268Y-79392212D01*
X165290069Y-79405156D01*
X165305541Y-79418562D01*
X165320292Y-79432754D01*
X165322398Y-79433169D01*
X165324021Y-79434576D01*
X165344281Y-79437488D01*
X165364367Y-79441453D01*
X165366364Y-79440663D01*
X165368489Y-79440969D01*
X165387116Y-79432462D01*
X165406148Y-79424941D01*
X165407400Y-79423199D01*
X165409354Y-79422307D01*
X165420422Y-79405083D01*
X165432370Y-79388464D01*
X165432481Y-79386319D01*
X165433642Y-79384514D01*
X165433642Y-79364045D01*
X165434707Y-79343600D01*
X165433642Y-79341736D01*
X165433642Y-78351051D01*
X165424215Y-78318946D01*
X165390263Y-78289526D01*
X165345795Y-78283133D01*
X165304930Y-78301795D01*
X165280642Y-78339588D01*
X165280642Y-79073986D01*
X164856587Y-78331889D01*
X164852787Y-78318946D01*
X164837314Y-78305539D01*
X164822564Y-78291348D01*
X164820457Y-78290932D01*
X164818835Y-78289526D01*
X164798574Y-78286613D01*
X164778489Y-78282649D01*
X164776491Y-78283438D01*
X164774367Y-78283133D01*
X164755739Y-78291639D01*
X164736708Y-78299161D01*
X164735456Y-78300902D01*
X164733502Y-78301795D01*
X164722429Y-78319023D01*
X164710486Y-78335639D01*
X164710374Y-78337782D01*
X164709214Y-78339588D01*
X164709214Y-78360057D01*
X164708149Y-78380502D01*
X164386024Y-78380502D01*
X164386024Y-78351051D01*
X164376597Y-78318946D01*
X164342645Y-78289526D01*
X164298177Y-78283133D01*
X164257312Y-78301795D01*
X164233024Y-78339588D01*
X164233024Y-79373051D01*
X162957923Y-79373051D01*
X163290338Y-78375807D01*
X163291547Y-78342369D01*
X163268641Y-78303722D01*
X163228476Y-78283595D01*
X163183807Y-78288377D01*
X163148814Y-78316550D01*
X162880952Y-79120135D01*
X162616715Y-78327424D01*
X162597619Y-78299948D01*
X162556106Y-78282774D01*
X162511898Y-78290771D01*
X162479032Y-78321398D01*
X162467941Y-78364932D01*
X162291157Y-78364932D01*
X162293203Y-78350704D01*
X162274541Y-78309839D01*
X162236748Y-78285551D01*
X161747414Y-78285551D01*
X161734657Y-78282396D01*
X161714967Y-78289112D01*
X161694990Y-78294978D01*
X161693823Y-78296324D01*
X161692138Y-78296899D01*
X161679199Y-78313201D01*
X161665570Y-78328930D01*
X161665316Y-78330692D01*
X161664210Y-78332087D01*
X161662139Y-78352791D01*
X161659177Y-78373398D01*
X161659916Y-78375018D01*
X161615899Y-78815192D01*
X161612568Y-78821293D01*
X161613702Y-78837157D01*
X161613261Y-78841574D01*
X161614483Y-78848071D01*
X161615773Y-78866104D01*
X161618581Y-78869855D01*
X161619447Y-78874458D01*
X161631861Y-78887594D01*
X161642696Y-78902068D01*
X161647085Y-78903705D01*
X161650303Y-78907110D01*
X161667846Y-78911448D01*
X161684788Y-78917768D01*
X161689367Y-78916771D01*
X161693914Y-78917896D01*
X161711020Y-78912061D01*
X161728686Y-78908218D01*
X161731998Y-78904905D01*
X161736433Y-78903393D01*
X161747672Y-78889231D01*
X161783412Y-78853492D01*
X161851391Y-78819503D01*
X162053369Y-78819503D01*
X162121350Y-78853493D01*
X162151414Y-78883558D01*
X162185404Y-78951537D01*
X162185404Y-79153515D01*
X162151413Y-79221496D01*
X162121350Y-79251560D01*
X162053369Y-79285551D01*
X161851392Y-79285551D01*
X161783410Y-79251560D01*
X161736792Y-79204941D01*
X161707425Y-79188905D01*
X161662614Y-79192109D01*
X161626650Y-79219031D01*
X161610949Y-79261123D01*
X161127643Y-79261123D01*
X161127643Y-77835825D01*
X166150095Y-77835825D01*
X166150095Y-79963039D01*
G37*
X184938095Y-129357380D02*
X184890476Y-129405000D01*
X184890476Y-129405000D02*
X184747619Y-129452619D01*
X184747619Y-129452619D02*
X184652381Y-129452619D01*
X184652381Y-129452619D02*
X184509524Y-129405000D01*
X184509524Y-129405000D02*
X184414286Y-129309761D01*
X184414286Y-129309761D02*
X184366667Y-129214523D01*
X184366667Y-129214523D02*
X184319048Y-129024047D01*
X184319048Y-129024047D02*
X184319048Y-128881190D01*
X184319048Y-128881190D02*
X184366667Y-128690714D01*
X184366667Y-128690714D02*
X184414286Y-128595476D01*
X184414286Y-128595476D02*
X184509524Y-128500238D01*
X184509524Y-128500238D02*
X184652381Y-128452619D01*
X184652381Y-128452619D02*
X184747619Y-128452619D01*
X184747619Y-128452619D02*
X184890476Y-128500238D01*
X184890476Y-128500238D02*
X184938095Y-128547857D01*
X185319048Y-129166904D02*
X185795238Y-129166904D01*
X185223810Y-129452619D02*
X185557143Y-128452619D01*
X185557143Y-128452619D02*
X185890476Y-129452619D01*
X186223810Y-129452619D02*
X186223810Y-128452619D01*
X186223810Y-128452619D02*
X186795238Y-129452619D01*
X186795238Y-129452619D02*
X186795238Y-128452619D01*
X187271429Y-129071666D02*
X188033334Y-129071666D01*
X188842857Y-128928809D02*
X188985714Y-128976428D01*
X188985714Y-128976428D02*
X189033333Y-129024047D01*
X189033333Y-129024047D02*
X189080952Y-129119285D01*
X189080952Y-129119285D02*
X189080952Y-129262142D01*
X189080952Y-129262142D02*
X189033333Y-129357380D01*
X189033333Y-129357380D02*
X188985714Y-129405000D01*
X188985714Y-129405000D02*
X188890476Y-129452619D01*
X188890476Y-129452619D02*
X188509524Y-129452619D01*
X188509524Y-129452619D02*
X188509524Y-128452619D01*
X188509524Y-128452619D02*
X188842857Y-128452619D01*
X188842857Y-128452619D02*
X188938095Y-128500238D01*
X188938095Y-128500238D02*
X188985714Y-128547857D01*
X188985714Y-128547857D02*
X189033333Y-128643095D01*
X189033333Y-128643095D02*
X189033333Y-128738333D01*
X189033333Y-128738333D02*
X188985714Y-128833571D01*
X188985714Y-128833571D02*
X188938095Y-128881190D01*
X188938095Y-128881190D02*
X188842857Y-128928809D01*
X188842857Y-128928809D02*
X188509524Y-128928809D01*
X189509524Y-128452619D02*
X189509524Y-129262142D01*
X189509524Y-129262142D02*
X189557143Y-129357380D01*
X189557143Y-129357380D02*
X189604762Y-129405000D01*
X189604762Y-129405000D02*
X189700000Y-129452619D01*
X189700000Y-129452619D02*
X189890476Y-129452619D01*
X189890476Y-129452619D02*
X189985714Y-129405000D01*
X189985714Y-129405000D02*
X190033333Y-129357380D01*
X190033333Y-129357380D02*
X190080952Y-129262142D01*
X190080952Y-129262142D02*
X190080952Y-128452619D01*
X190509524Y-129405000D02*
X190652381Y-129452619D01*
X190652381Y-129452619D02*
X190890476Y-129452619D01*
X190890476Y-129452619D02*
X190985714Y-129405000D01*
X190985714Y-129405000D02*
X191033333Y-129357380D01*
X191033333Y-129357380D02*
X191080952Y-129262142D01*
X191080952Y-129262142D02*
X191080952Y-129166904D01*
X191080952Y-129166904D02*
X191033333Y-129071666D01*
X191033333Y-129071666D02*
X190985714Y-129024047D01*
X190985714Y-129024047D02*
X190890476Y-128976428D01*
X190890476Y-128976428D02*
X190700000Y-128928809D01*
X190700000Y-128928809D02*
X190604762Y-128881190D01*
X190604762Y-128881190D02*
X190557143Y-128833571D01*
X190557143Y-128833571D02*
X190509524Y-128738333D01*
X190509524Y-128738333D02*
X190509524Y-128643095D01*
X190509524Y-128643095D02*
X190557143Y-128547857D01*
X190557143Y-128547857D02*
X190604762Y-128500238D01*
X190604762Y-128500238D02*
X190700000Y-128452619D01*
X190700000Y-128452619D02*
X190938095Y-128452619D01*
X190938095Y-128452619D02*
X191080952Y-128500238D01*
X180033333Y-130072619D02*
X180604761Y-130072619D01*
X180319047Y-131072619D02*
X180319047Y-130072619D01*
X181319047Y-131025000D02*
X181223809Y-131072619D01*
X181223809Y-131072619D02*
X181033333Y-131072619D01*
X181033333Y-131072619D02*
X180938095Y-131025000D01*
X180938095Y-131025000D02*
X180890476Y-130929761D01*
X180890476Y-130929761D02*
X180890476Y-130548809D01*
X180890476Y-130548809D02*
X180938095Y-130453571D01*
X180938095Y-130453571D02*
X181033333Y-130405952D01*
X181033333Y-130405952D02*
X181223809Y-130405952D01*
X181223809Y-130405952D02*
X181319047Y-130453571D01*
X181319047Y-130453571D02*
X181366666Y-130548809D01*
X181366666Y-130548809D02*
X181366666Y-130644047D01*
X181366666Y-130644047D02*
X180890476Y-130739285D01*
X181795238Y-131072619D02*
X181795238Y-130405952D01*
X181795238Y-130596428D02*
X181842857Y-130501190D01*
X181842857Y-130501190D02*
X181890476Y-130453571D01*
X181890476Y-130453571D02*
X181985714Y-130405952D01*
X181985714Y-130405952D02*
X182080952Y-130405952D01*
X182414286Y-131072619D02*
X182414286Y-130405952D01*
X182414286Y-130501190D02*
X182461905Y-130453571D01*
X182461905Y-130453571D02*
X182557143Y-130405952D01*
X182557143Y-130405952D02*
X182700000Y-130405952D01*
X182700000Y-130405952D02*
X182795238Y-130453571D01*
X182795238Y-130453571D02*
X182842857Y-130548809D01*
X182842857Y-130548809D02*
X182842857Y-131072619D01*
X182842857Y-130548809D02*
X182890476Y-130453571D01*
X182890476Y-130453571D02*
X182985714Y-130405952D01*
X182985714Y-130405952D02*
X183128571Y-130405952D01*
X183128571Y-130405952D02*
X183223810Y-130453571D01*
X183223810Y-130453571D02*
X183271429Y-130548809D01*
X183271429Y-130548809D02*
X183271429Y-131072619D01*
X183747619Y-131072619D02*
X183747619Y-130405952D01*
X183747619Y-130072619D02*
X183700000Y-130120238D01*
X183700000Y-130120238D02*
X183747619Y-130167857D01*
X183747619Y-130167857D02*
X183795238Y-130120238D01*
X183795238Y-130120238D02*
X183747619Y-130072619D01*
X183747619Y-130072619D02*
X183747619Y-130167857D01*
X184223809Y-130405952D02*
X184223809Y-131072619D01*
X184223809Y-130501190D02*
X184271428Y-130453571D01*
X184271428Y-130453571D02*
X184366666Y-130405952D01*
X184366666Y-130405952D02*
X184509523Y-130405952D01*
X184509523Y-130405952D02*
X184604761Y-130453571D01*
X184604761Y-130453571D02*
X184652380Y-130548809D01*
X184652380Y-130548809D02*
X184652380Y-131072619D01*
X185557142Y-131072619D02*
X185557142Y-130548809D01*
X185557142Y-130548809D02*
X185509523Y-130453571D01*
X185509523Y-130453571D02*
X185414285Y-130405952D01*
X185414285Y-130405952D02*
X185223809Y-130405952D01*
X185223809Y-130405952D02*
X185128571Y-130453571D01*
X185557142Y-131025000D02*
X185461904Y-131072619D01*
X185461904Y-131072619D02*
X185223809Y-131072619D01*
X185223809Y-131072619D02*
X185128571Y-131025000D01*
X185128571Y-131025000D02*
X185080952Y-130929761D01*
X185080952Y-130929761D02*
X185080952Y-130834523D01*
X185080952Y-130834523D02*
X185128571Y-130739285D01*
X185128571Y-130739285D02*
X185223809Y-130691666D01*
X185223809Y-130691666D02*
X185461904Y-130691666D01*
X185461904Y-130691666D02*
X185557142Y-130644047D01*
X185890476Y-130405952D02*
X186271428Y-130405952D01*
X186033333Y-130072619D02*
X186033333Y-130929761D01*
X186033333Y-130929761D02*
X186080952Y-131025000D01*
X186080952Y-131025000D02*
X186176190Y-131072619D01*
X186176190Y-131072619D02*
X186271428Y-131072619D01*
X186604762Y-131072619D02*
X186604762Y-130405952D01*
X186604762Y-130072619D02*
X186557143Y-130120238D01*
X186557143Y-130120238D02*
X186604762Y-130167857D01*
X186604762Y-130167857D02*
X186652381Y-130120238D01*
X186652381Y-130120238D02*
X186604762Y-130072619D01*
X186604762Y-130072619D02*
X186604762Y-130167857D01*
X187223809Y-131072619D02*
X187128571Y-131025000D01*
X187128571Y-131025000D02*
X187080952Y-130977380D01*
X187080952Y-130977380D02*
X187033333Y-130882142D01*
X187033333Y-130882142D02*
X187033333Y-130596428D01*
X187033333Y-130596428D02*
X187080952Y-130501190D01*
X187080952Y-130501190D02*
X187128571Y-130453571D01*
X187128571Y-130453571D02*
X187223809Y-130405952D01*
X187223809Y-130405952D02*
X187366666Y-130405952D01*
X187366666Y-130405952D02*
X187461904Y-130453571D01*
X187461904Y-130453571D02*
X187509523Y-130501190D01*
X187509523Y-130501190D02*
X187557142Y-130596428D01*
X187557142Y-130596428D02*
X187557142Y-130882142D01*
X187557142Y-130882142D02*
X187509523Y-130977380D01*
X187509523Y-130977380D02*
X187461904Y-131025000D01*
X187461904Y-131025000D02*
X187366666Y-131072619D01*
X187366666Y-131072619D02*
X187223809Y-131072619D01*
X187985714Y-130405952D02*
X187985714Y-131072619D01*
X187985714Y-130501190D02*
X188033333Y-130453571D01*
X188033333Y-130453571D02*
X188128571Y-130405952D01*
X188128571Y-130405952D02*
X188271428Y-130405952D01*
X188271428Y-130405952D02*
X188366666Y-130453571D01*
X188366666Y-130453571D02*
X188414285Y-130548809D01*
X188414285Y-130548809D02*
X188414285Y-131072619D01*
X190223809Y-131072619D02*
X189890476Y-130596428D01*
X189652381Y-131072619D02*
X189652381Y-130072619D01*
X189652381Y-130072619D02*
X190033333Y-130072619D01*
X190033333Y-130072619D02*
X190128571Y-130120238D01*
X190128571Y-130120238D02*
X190176190Y-130167857D01*
X190176190Y-130167857D02*
X190223809Y-130263095D01*
X190223809Y-130263095D02*
X190223809Y-130405952D01*
X190223809Y-130405952D02*
X190176190Y-130501190D01*
X190176190Y-130501190D02*
X190128571Y-130548809D01*
X190128571Y-130548809D02*
X190033333Y-130596428D01*
X190033333Y-130596428D02*
X189652381Y-130596428D01*
X191033333Y-131025000D02*
X190938095Y-131072619D01*
X190938095Y-131072619D02*
X190747619Y-131072619D01*
X190747619Y-131072619D02*
X190652381Y-131025000D01*
X190652381Y-131025000D02*
X190604762Y-130929761D01*
X190604762Y-130929761D02*
X190604762Y-130548809D01*
X190604762Y-130548809D02*
X190652381Y-130453571D01*
X190652381Y-130453571D02*
X190747619Y-130405952D01*
X190747619Y-130405952D02*
X190938095Y-130405952D01*
X190938095Y-130405952D02*
X191033333Y-130453571D01*
X191033333Y-130453571D02*
X191080952Y-130548809D01*
X191080952Y-130548809D02*
X191080952Y-130644047D01*
X191080952Y-130644047D02*
X190604762Y-130739285D01*
X191461905Y-131025000D02*
X191557143Y-131072619D01*
X191557143Y-131072619D02*
X191747619Y-131072619D01*
X191747619Y-131072619D02*
X191842857Y-131025000D01*
X191842857Y-131025000D02*
X191890476Y-130929761D01*
X191890476Y-130929761D02*
X191890476Y-130882142D01*
X191890476Y-130882142D02*
X191842857Y-130786904D01*
X191842857Y-130786904D02*
X191747619Y-130739285D01*
X191747619Y-130739285D02*
X191604762Y-130739285D01*
X191604762Y-130739285D02*
X191509524Y-130691666D01*
X191509524Y-130691666D02*
X191461905Y-130596428D01*
X191461905Y-130596428D02*
X191461905Y-130548809D01*
X191461905Y-130548809D02*
X191509524Y-130453571D01*
X191509524Y-130453571D02*
X191604762Y-130405952D01*
X191604762Y-130405952D02*
X191747619Y-130405952D01*
X191747619Y-130405952D02*
X191842857Y-130453571D01*
X192319048Y-131072619D02*
X192319048Y-130405952D01*
X192319048Y-130072619D02*
X192271429Y-130120238D01*
X192271429Y-130120238D02*
X192319048Y-130167857D01*
X192319048Y-130167857D02*
X192366667Y-130120238D01*
X192366667Y-130120238D02*
X192319048Y-130072619D01*
X192319048Y-130072619D02*
X192319048Y-130167857D01*
X192747619Y-131025000D02*
X192842857Y-131072619D01*
X192842857Y-131072619D02*
X193033333Y-131072619D01*
X193033333Y-131072619D02*
X193128571Y-131025000D01*
X193128571Y-131025000D02*
X193176190Y-130929761D01*
X193176190Y-130929761D02*
X193176190Y-130882142D01*
X193176190Y-130882142D02*
X193128571Y-130786904D01*
X193128571Y-130786904D02*
X193033333Y-130739285D01*
X193033333Y-130739285D02*
X192890476Y-130739285D01*
X192890476Y-130739285D02*
X192795238Y-130691666D01*
X192795238Y-130691666D02*
X192747619Y-130596428D01*
X192747619Y-130596428D02*
X192747619Y-130548809D01*
X192747619Y-130548809D02*
X192795238Y-130453571D01*
X192795238Y-130453571D02*
X192890476Y-130405952D01*
X192890476Y-130405952D02*
X193033333Y-130405952D01*
X193033333Y-130405952D02*
X193128571Y-130453571D01*
X193461905Y-130405952D02*
X193842857Y-130405952D01*
X193604762Y-130072619D02*
X193604762Y-130929761D01*
X193604762Y-130929761D02*
X193652381Y-131025000D01*
X193652381Y-131025000D02*
X193747619Y-131072619D01*
X193747619Y-131072619D02*
X193842857Y-131072619D01*
X194319048Y-131072619D02*
X194223810Y-131025000D01*
X194223810Y-131025000D02*
X194176191Y-130977380D01*
X194176191Y-130977380D02*
X194128572Y-130882142D01*
X194128572Y-130882142D02*
X194128572Y-130596428D01*
X194128572Y-130596428D02*
X194176191Y-130501190D01*
X194176191Y-130501190D02*
X194223810Y-130453571D01*
X194223810Y-130453571D02*
X194319048Y-130405952D01*
X194319048Y-130405952D02*
X194461905Y-130405952D01*
X194461905Y-130405952D02*
X194557143Y-130453571D01*
X194557143Y-130453571D02*
X194604762Y-130501190D01*
X194604762Y-130501190D02*
X194652381Y-130596428D01*
X194652381Y-130596428D02*
X194652381Y-130882142D01*
X194652381Y-130882142D02*
X194604762Y-130977380D01*
X194604762Y-130977380D02*
X194557143Y-131025000D01*
X194557143Y-131025000D02*
X194461905Y-131072619D01*
X194461905Y-131072619D02*
X194319048Y-131072619D01*
X195080953Y-131072619D02*
X195080953Y-130405952D01*
X195080953Y-130596428D02*
X195128572Y-130501190D01*
X195128572Y-130501190D02*
X195176191Y-130453571D01*
X195176191Y-130453571D02*
X195271429Y-130405952D01*
X195271429Y-130405952D02*
X195366667Y-130405952D01*
D12*
X132785714Y-123305238D02*
X132690476Y-123257619D01*
X132690476Y-123257619D02*
X132547619Y-123257619D01*
X132547619Y-123257619D02*
X132404762Y-123305238D01*
X132404762Y-123305238D02*
X132309524Y-123400476D01*
X132309524Y-123400476D02*
X132261905Y-123495714D01*
X132261905Y-123495714D02*
X132214286Y-123686190D01*
X132214286Y-123686190D02*
X132214286Y-123829047D01*
X132214286Y-123829047D02*
X132261905Y-124019523D01*
X132261905Y-124019523D02*
X132309524Y-124114761D01*
X132309524Y-124114761D02*
X132404762Y-124210000D01*
X132404762Y-124210000D02*
X132547619Y-124257619D01*
X132547619Y-124257619D02*
X132642857Y-124257619D01*
X132642857Y-124257619D02*
X132785714Y-124210000D01*
X132785714Y-124210000D02*
X132833333Y-124162380D01*
X132833333Y-124162380D02*
X132833333Y-123829047D01*
X132833333Y-123829047D02*
X132642857Y-123829047D01*
X133261905Y-124257619D02*
X133261905Y-123257619D01*
X133261905Y-123257619D02*
X133833333Y-124257619D01*
X133833333Y-124257619D02*
X133833333Y-123257619D01*
X134261905Y-124210000D02*
X134404762Y-124257619D01*
X134404762Y-124257619D02*
X134642857Y-124257619D01*
X134642857Y-124257619D02*
X134738095Y-124210000D01*
X134738095Y-124210000D02*
X134785714Y-124162380D01*
X134785714Y-124162380D02*
X134833333Y-124067142D01*
X134833333Y-124067142D02*
X134833333Y-123971904D01*
X134833333Y-123971904D02*
X134785714Y-123876666D01*
X134785714Y-123876666D02*
X134738095Y-123829047D01*
X134738095Y-123829047D02*
X134642857Y-123781428D01*
X134642857Y-123781428D02*
X134452381Y-123733809D01*
X134452381Y-123733809D02*
X134357143Y-123686190D01*
X134357143Y-123686190D02*
X134309524Y-123638571D01*
X134309524Y-123638571D02*
X134261905Y-123543333D01*
X134261905Y-123543333D02*
X134261905Y-123448095D01*
X134261905Y-123448095D02*
X134309524Y-123352857D01*
X134309524Y-123352857D02*
X134357143Y-123305238D01*
X134357143Y-123305238D02*
X134452381Y-123257619D01*
X134452381Y-123257619D02*
X134690476Y-123257619D01*
X134690476Y-123257619D02*
X134833333Y-123305238D01*
X135214286Y-124210000D02*
X135357143Y-124257619D01*
X135357143Y-124257619D02*
X135595238Y-124257619D01*
X135595238Y-124257619D02*
X135690476Y-124210000D01*
X135690476Y-124210000D02*
X135738095Y-124162380D01*
X135738095Y-124162380D02*
X135785714Y-124067142D01*
X135785714Y-124067142D02*
X135785714Y-123971904D01*
X135785714Y-123971904D02*
X135738095Y-123876666D01*
X135738095Y-123876666D02*
X135690476Y-123829047D01*
X135690476Y-123829047D02*
X135595238Y-123781428D01*
X135595238Y-123781428D02*
X135404762Y-123733809D01*
X135404762Y-123733809D02*
X135309524Y-123686190D01*
X135309524Y-123686190D02*
X135261905Y-123638571D01*
X135261905Y-123638571D02*
X135214286Y-123543333D01*
X135214286Y-123543333D02*
X135214286Y-123448095D01*
X135214286Y-123448095D02*
X135261905Y-123352857D01*
X135261905Y-123352857D02*
X135309524Y-123305238D01*
X135309524Y-123305238D02*
X135404762Y-123257619D01*
X135404762Y-123257619D02*
X135642857Y-123257619D01*
X135642857Y-123257619D02*
X135785714Y-123305238D01*
X131833333Y-125830000D02*
X131976190Y-125877619D01*
X131976190Y-125877619D02*
X132214285Y-125877619D01*
X132214285Y-125877619D02*
X132309523Y-125830000D01*
X132309523Y-125830000D02*
X132357142Y-125782380D01*
X132357142Y-125782380D02*
X132404761Y-125687142D01*
X132404761Y-125687142D02*
X132404761Y-125591904D01*
X132404761Y-125591904D02*
X132357142Y-125496666D01*
X132357142Y-125496666D02*
X132309523Y-125449047D01*
X132309523Y-125449047D02*
X132214285Y-125401428D01*
X132214285Y-125401428D02*
X132023809Y-125353809D01*
X132023809Y-125353809D02*
X131928571Y-125306190D01*
X131928571Y-125306190D02*
X131880952Y-125258571D01*
X131880952Y-125258571D02*
X131833333Y-125163333D01*
X131833333Y-125163333D02*
X131833333Y-125068095D01*
X131833333Y-125068095D02*
X131880952Y-124972857D01*
X131880952Y-124972857D02*
X131928571Y-124925238D01*
X131928571Y-124925238D02*
X132023809Y-124877619D01*
X132023809Y-124877619D02*
X132261904Y-124877619D01*
X132261904Y-124877619D02*
X132404761Y-124925238D01*
X132690476Y-125210952D02*
X133071428Y-125210952D01*
X132833333Y-124877619D02*
X132833333Y-125734761D01*
X132833333Y-125734761D02*
X132880952Y-125830000D01*
X132880952Y-125830000D02*
X132976190Y-125877619D01*
X132976190Y-125877619D02*
X133071428Y-125877619D01*
X133833333Y-125877619D02*
X133833333Y-125353809D01*
X133833333Y-125353809D02*
X133785714Y-125258571D01*
X133785714Y-125258571D02*
X133690476Y-125210952D01*
X133690476Y-125210952D02*
X133500000Y-125210952D01*
X133500000Y-125210952D02*
X133404762Y-125258571D01*
X133833333Y-125830000D02*
X133738095Y-125877619D01*
X133738095Y-125877619D02*
X133500000Y-125877619D01*
X133500000Y-125877619D02*
X133404762Y-125830000D01*
X133404762Y-125830000D02*
X133357143Y-125734761D01*
X133357143Y-125734761D02*
X133357143Y-125639523D01*
X133357143Y-125639523D02*
X133404762Y-125544285D01*
X133404762Y-125544285D02*
X133500000Y-125496666D01*
X133500000Y-125496666D02*
X133738095Y-125496666D01*
X133738095Y-125496666D02*
X133833333Y-125449047D01*
X134166667Y-125210952D02*
X134547619Y-125210952D01*
X134309524Y-124877619D02*
X134309524Y-125734761D01*
X134309524Y-125734761D02*
X134357143Y-125830000D01*
X134357143Y-125830000D02*
X134452381Y-125877619D01*
X134452381Y-125877619D02*
X134547619Y-125877619D01*
X135309524Y-125210952D02*
X135309524Y-125877619D01*
X134880953Y-125210952D02*
X134880953Y-125734761D01*
X134880953Y-125734761D02*
X134928572Y-125830000D01*
X134928572Y-125830000D02*
X135023810Y-125877619D01*
X135023810Y-125877619D02*
X135166667Y-125877619D01*
X135166667Y-125877619D02*
X135261905Y-125830000D01*
X135261905Y-125830000D02*
X135309524Y-125782380D01*
X135738096Y-125830000D02*
X135833334Y-125877619D01*
X135833334Y-125877619D02*
X136023810Y-125877619D01*
X136023810Y-125877619D02*
X136119048Y-125830000D01*
X136119048Y-125830000D02*
X136166667Y-125734761D01*
X136166667Y-125734761D02*
X136166667Y-125687142D01*
X136166667Y-125687142D02*
X136119048Y-125591904D01*
X136119048Y-125591904D02*
X136023810Y-125544285D01*
X136023810Y-125544285D02*
X135880953Y-125544285D01*
X135880953Y-125544285D02*
X135785715Y-125496666D01*
X135785715Y-125496666D02*
X135738096Y-125401428D01*
X135738096Y-125401428D02*
X135738096Y-125353809D01*
X135738096Y-125353809D02*
X135785715Y-125258571D01*
X135785715Y-125258571D02*
X135880953Y-125210952D01*
X135880953Y-125210952D02*
X136023810Y-125210952D01*
X136023810Y-125210952D02*
X136119048Y-125258571D01*
X171538095Y-92330200D02*
X171680952Y-92377819D01*
X171680952Y-92377819D02*
X171919047Y-92377819D01*
X171919047Y-92377819D02*
X172014285Y-92330200D01*
X172014285Y-92330200D02*
X172061904Y-92282580D01*
X172061904Y-92282580D02*
X172109523Y-92187342D01*
X172109523Y-92187342D02*
X172109523Y-92092104D01*
X172109523Y-92092104D02*
X172061904Y-91996866D01*
X172061904Y-91996866D02*
X172014285Y-91949247D01*
X172014285Y-91949247D02*
X171919047Y-91901628D01*
X171919047Y-91901628D02*
X171728571Y-91854009D01*
X171728571Y-91854009D02*
X171633333Y-91806390D01*
X171633333Y-91806390D02*
X171585714Y-91758771D01*
X171585714Y-91758771D02*
X171538095Y-91663533D01*
X171538095Y-91663533D02*
X171538095Y-91568295D01*
X171538095Y-91568295D02*
X171585714Y-91473057D01*
X171585714Y-91473057D02*
X171633333Y-91425438D01*
X171633333Y-91425438D02*
X171728571Y-91377819D01*
X171728571Y-91377819D02*
X171966666Y-91377819D01*
X171966666Y-91377819D02*
X172109523Y-91425438D01*
X172538095Y-91854009D02*
X172871428Y-91854009D01*
X173014285Y-92377819D02*
X172538095Y-92377819D01*
X172538095Y-92377819D02*
X172538095Y-91377819D01*
X172538095Y-91377819D02*
X173014285Y-91377819D01*
X173442857Y-92377819D02*
X173442857Y-91377819D01*
X173442857Y-91377819D02*
X174014285Y-92377819D01*
X174014285Y-92377819D02*
X174014285Y-91377819D01*
X174490476Y-92377819D02*
X174490476Y-91377819D01*
X174490476Y-91377819D02*
X174728571Y-91377819D01*
X174728571Y-91377819D02*
X174871428Y-91425438D01*
X174871428Y-91425438D02*
X174966666Y-91520676D01*
X174966666Y-91520676D02*
X175014285Y-91615914D01*
X175014285Y-91615914D02*
X175061904Y-91806390D01*
X175061904Y-91806390D02*
X175061904Y-91949247D01*
X175061904Y-91949247D02*
X175014285Y-92139723D01*
X175014285Y-92139723D02*
X174966666Y-92234961D01*
X174966666Y-92234961D02*
X174871428Y-92330200D01*
X174871428Y-92330200D02*
X174728571Y-92377819D01*
X174728571Y-92377819D02*
X174490476Y-92377819D01*
D11*
G36*
X175760528Y-125799836D02*
G01*
X175496615Y-125799836D01*
X175628571Y-125403966D01*
X175760528Y-125799836D01*
G37*
G36*
X179231048Y-126763039D02*
G01*
X173827643Y-126763039D01*
X173827643Y-125730241D01*
X174310812Y-125730241D01*
X174313976Y-125742897D01*
X174313976Y-125744479D01*
X174316637Y-125753544D01*
X174360574Y-125929289D01*
X174359626Y-125938075D01*
X174365915Y-125950653D01*
X174366547Y-125953180D01*
X174370820Y-125960464D01*
X174412999Y-126044821D01*
X174415736Y-126057403D01*
X174430655Y-126072323D01*
X174444999Y-126087743D01*
X174446445Y-126088112D01*
X174523944Y-126165612D01*
X174535450Y-126179903D01*
X174550280Y-126184846D01*
X174564004Y-126192340D01*
X174571213Y-126191824D01*
X174690518Y-126231592D01*
X174701346Y-126238551D01*
X174722416Y-126238551D01*
X174743491Y-126239313D01*
X174744777Y-126238551D01*
X174809454Y-126238551D01*
X174821928Y-126241729D01*
X174841925Y-126235062D01*
X174862152Y-126229124D01*
X174863130Y-126227994D01*
X174982185Y-126188309D01*
X175000115Y-126184409D01*
X175002790Y-126181734D01*
X175217976Y-126181734D01*
X175240882Y-126220380D01*
X175281047Y-126240507D01*
X175325716Y-126235726D01*
X175360709Y-126207553D01*
X175445615Y-125952836D01*
X175811528Y-125952836D01*
X175892808Y-126196677D01*
X175911904Y-126224154D01*
X175953417Y-126241328D01*
X175997625Y-126233331D01*
X176030491Y-126202704D01*
X176041582Y-126159169D01*
X175944962Y-125869310D01*
X175945584Y-125864989D01*
X175937949Y-125848271D01*
X175715359Y-125180502D01*
X176217673Y-125180502D01*
X176218738Y-125182366D01*
X176218738Y-126173051D01*
X176228165Y-126205156D01*
X176262117Y-126234576D01*
X176306585Y-126240969D01*
X176347450Y-126222307D01*
X176371738Y-126184514D01*
X176371738Y-125450116D01*
X176795792Y-126192212D01*
X176799593Y-126205156D01*
X176815065Y-126218562D01*
X176829816Y-126232754D01*
X176831922Y-126233169D01*
X176833545Y-126234576D01*
X176853805Y-126237488D01*
X176873891Y-126241453D01*
X176875888Y-126240663D01*
X176878013Y-126240969D01*
X176896640Y-126232462D01*
X176915672Y-126224941D01*
X176916924Y-126223199D01*
X176918878Y-126222307D01*
X176929946Y-126205083D01*
X176941894Y-126188464D01*
X176942005Y-126186319D01*
X176943166Y-126184514D01*
X176943166Y-126173398D01*
X178025844Y-126173398D01*
X178032902Y-126188853D01*
X178037689Y-126205156D01*
X178042087Y-126208967D01*
X178044506Y-126214263D01*
X178058800Y-126223449D01*
X178071641Y-126234576D01*
X178077402Y-126235404D01*
X178082299Y-126238551D01*
X178099290Y-126238551D01*
X178116109Y-126240969D01*
X178121404Y-126238551D01*
X178591952Y-126238551D01*
X178624057Y-126229124D01*
X178653477Y-126195172D01*
X178659870Y-126150704D01*
X178641208Y-126109839D01*
X178603415Y-126085551D01*
X178181262Y-126085551D01*
X178181262Y-125151051D01*
X178171835Y-125118946D01*
X178137883Y-125089526D01*
X178093415Y-125083133D01*
X178052550Y-125101795D01*
X178028262Y-125139588D01*
X178028262Y-126156579D01*
X178025844Y-126173398D01*
X176943166Y-126173398D01*
X176943166Y-126164045D01*
X176944231Y-126143600D01*
X176943166Y-126141736D01*
X176943166Y-125151051D01*
X176933739Y-125118946D01*
X176899787Y-125089526D01*
X176855319Y-125083133D01*
X176814454Y-125101795D01*
X176790166Y-125139588D01*
X176790166Y-125873986D01*
X176366111Y-125131889D01*
X176362311Y-125118946D01*
X176346838Y-125105539D01*
X176332088Y-125091348D01*
X176329981Y-125090932D01*
X176328359Y-125089526D01*
X176308098Y-125086613D01*
X176288013Y-125082649D01*
X176286015Y-125083438D01*
X176283891Y-125083133D01*
X176265263Y-125091639D01*
X176246232Y-125099161D01*
X176244980Y-125100902D01*
X176243026Y-125101795D01*
X176231953Y-125119023D01*
X176220010Y-125135639D01*
X176219898Y-125137782D01*
X176218738Y-125139588D01*
X176218738Y-125160057D01*
X176217673Y-125180502D01*
X175715359Y-125180502D01*
X175705521Y-125150987D01*
X175705833Y-125142369D01*
X175698556Y-125130091D01*
X175697667Y-125127424D01*
X175692966Y-125120661D01*
X175682927Y-125103722D01*
X175680267Y-125102389D01*
X175678571Y-125099948D01*
X175660366Y-125092416D01*
X175642762Y-125083595D01*
X175639807Y-125083911D01*
X175637058Y-125082774D01*
X175617669Y-125086281D01*
X175598093Y-125088377D01*
X175595777Y-125090241D01*
X175592850Y-125090771D01*
X175578436Y-125104202D01*
X175563100Y-125116550D01*
X175562159Y-125119370D01*
X175559984Y-125121398D01*
X175555120Y-125140489D01*
X175322708Y-125837724D01*
X175317951Y-125843215D01*
X175315730Y-125858657D01*
X175219185Y-126148295D01*
X175217976Y-126181734D01*
X175002790Y-126181734D01*
X175011170Y-126173352D01*
X175024007Y-126164432D01*
X175026770Y-126157753D01*
X175071395Y-126113127D01*
X175087431Y-126083759D01*
X175084226Y-126038948D01*
X175057302Y-126002985D01*
X175015210Y-125987285D01*
X174971312Y-125996835D01*
X174920580Y-126047567D01*
X174806632Y-126085551D01*
X174736223Y-126085551D01*
X174622275Y-126047568D01*
X174548585Y-125973876D01*
X174510274Y-125897255D01*
X174466976Y-125724061D01*
X174466976Y-125600040D01*
X174510274Y-125426845D01*
X174548586Y-125350223D01*
X174622275Y-125276533D01*
X174736223Y-125238551D01*
X174806632Y-125238551D01*
X174920580Y-125276533D01*
X174963207Y-125319161D01*
X174992575Y-125335196D01*
X175037386Y-125331992D01*
X175073350Y-125305069D01*
X175089050Y-125262977D01*
X175079500Y-125219079D01*
X175018909Y-125158488D01*
X175007405Y-125144199D01*
X174992575Y-125139255D01*
X174978852Y-125131762D01*
X174971641Y-125132277D01*
X174852337Y-125092509D01*
X174841510Y-125085551D01*
X174820440Y-125085551D01*
X174799364Y-125084789D01*
X174798078Y-125085551D01*
X174733401Y-125085551D01*
X174720927Y-125082373D01*
X174700921Y-125089041D01*
X174680704Y-125094978D01*
X174679725Y-125096106D01*
X174560666Y-125135793D01*
X174542742Y-125139693D01*
X174531688Y-125150746D01*
X174518849Y-125159670D01*
X174516085Y-125166349D01*
X174438403Y-125244031D01*
X174427336Y-125250605D01*
X174417913Y-125269449D01*
X174407806Y-125287960D01*
X174407912Y-125289451D01*
X174375765Y-125353746D01*
X174369327Y-125359800D01*
X174365915Y-125373446D01*
X174364752Y-125375773D01*
X174363257Y-125384078D01*
X174319313Y-125559853D01*
X174313976Y-125568159D01*
X174313976Y-125581204D01*
X174313592Y-125582740D01*
X174313976Y-125592187D01*
X174313976Y-125720889D01*
X174310812Y-125730241D01*
X173827643Y-125730241D01*
X173827643Y-124635825D01*
X179231048Y-124635825D01*
X179231048Y-126763039D01*
G37*
G36*
X163311827Y-98972542D02*
G01*
X163383303Y-99044018D01*
X163423499Y-99204801D01*
X163423499Y-99519299D01*
X163383303Y-99680082D01*
X163311826Y-99751560D01*
X163243845Y-99785551D01*
X163089487Y-99785551D01*
X163021505Y-99751560D01*
X162950028Y-99680082D01*
X162909833Y-99519299D01*
X162909833Y-99204802D01*
X162950029Y-99044017D01*
X163021506Y-98972541D01*
X163089486Y-98938551D01*
X163243845Y-98938551D01*
X163311827Y-98972542D01*
G37*
G36*
X165673904Y-100463039D02*
G01*
X161127643Y-100463039D01*
X161127643Y-98874046D01*
X161659273Y-98874046D01*
X161661595Y-98879022D01*
X161661595Y-99873051D01*
X161671022Y-99905156D01*
X161704974Y-99934576D01*
X161749442Y-99940969D01*
X161790307Y-99922307D01*
X161814595Y-99884514D01*
X161814595Y-99206879D01*
X162001830Y-99608098D01*
X162010745Y-99628051D01*
X162020874Y-99634679D01*
X162028876Y-99643761D01*
X162039282Y-99646724D01*
X162048337Y-99652649D01*
X162060440Y-99652748D01*
X162072084Y-99656064D01*
X162082441Y-99652929D01*
X162093260Y-99653019D01*
X162103497Y-99646558D01*
X162115084Y-99643052D01*
X162122102Y-99634816D01*
X162131252Y-99629042D01*
X162136370Y-99618074D01*
X162144223Y-99608860D01*
X162145674Y-99598135D01*
X162328261Y-99206880D01*
X162328261Y-99873051D01*
X162337688Y-99905156D01*
X162371640Y-99934576D01*
X162416108Y-99940969D01*
X162456973Y-99922307D01*
X162481261Y-99884514D01*
X162481261Y-99525479D01*
X162753669Y-99525479D01*
X162756833Y-99538135D01*
X162756833Y-99539717D01*
X162759494Y-99548782D01*
X162806444Y-99736578D01*
X162810974Y-99757403D01*
X162819929Y-99766358D01*
X162826336Y-99777278D01*
X162835484Y-99781914D01*
X162915314Y-99861744D01*
X162921887Y-99872810D01*
X162940724Y-99882228D01*
X162959242Y-99892340D01*
X162960733Y-99892233D01*
X163033529Y-99928631D01*
X163048965Y-99938551D01*
X163064599Y-99938551D01*
X163079986Y-99941320D01*
X163086662Y-99938551D01*
X163257786Y-99938551D01*
X163276024Y-99940520D01*
X163290004Y-99933529D01*
X163305009Y-99929124D01*
X163309743Y-99923660D01*
X163382772Y-99887145D01*
X163395352Y-99884409D01*
X163410254Y-99869506D01*
X163425692Y-99855147D01*
X163426062Y-99853698D01*
X163505630Y-99774129D01*
X163521148Y-99759539D01*
X163524219Y-99747254D01*
X163530288Y-99736140D01*
X163529556Y-99725906D01*
X163571161Y-99559484D01*
X163576499Y-99551180D01*
X163576499Y-99538136D01*
X163576883Y-99536600D01*
X163576499Y-99527153D01*
X163576499Y-99207974D01*
X163579663Y-99198622D01*
X163576499Y-99185966D01*
X163576499Y-99184384D01*
X163573837Y-99175319D01*
X163545278Y-99061085D01*
X163801683Y-99061085D01*
X163804452Y-99067761D01*
X163804452Y-99143647D01*
X163802483Y-99161885D01*
X163809473Y-99175865D01*
X163813879Y-99190870D01*
X163819342Y-99195604D01*
X163855857Y-99268633D01*
X163858594Y-99281213D01*
X163873500Y-99296119D01*
X163887856Y-99311553D01*
X163889303Y-99311923D01*
X163915314Y-99337933D01*
X163921887Y-99349000D01*
X163940732Y-99358422D01*
X163959242Y-99368529D01*
X163960731Y-99368422D01*
X164025028Y-99400570D01*
X164031082Y-99407009D01*
X164044728Y-99410420D01*
X164047055Y-99411584D01*
X164055359Y-99413078D01*
X164235204Y-99458039D01*
X164311826Y-99496350D01*
X164341890Y-99526415D01*
X164375880Y-99594394D01*
X164375880Y-99653515D01*
X164341889Y-99721496D01*
X164311826Y-99751560D01*
X164243845Y-99785551D01*
X164036223Y-99785551D01*
X163894708Y-99738379D01*
X163861269Y-99737170D01*
X163822623Y-99760076D01*
X163802496Y-99800241D01*
X163807277Y-99844910D01*
X163835450Y-99879903D01*
X163990518Y-99931592D01*
X164001346Y-99938551D01*
X164022416Y-99938551D01*
X164043491Y-99939313D01*
X164044777Y-99938551D01*
X164257786Y-99938551D01*
X164276024Y-99940520D01*
X164290004Y-99933529D01*
X164305009Y-99929124D01*
X164309743Y-99923660D01*
X164382772Y-99887145D01*
X164395353Y-99884409D01*
X164406710Y-99873051D01*
X164804452Y-99873051D01*
X164813879Y-99905156D01*
X164847831Y-99934576D01*
X164892299Y-99940969D01*
X164933164Y-99922307D01*
X164957452Y-99884514D01*
X164957452Y-98851051D01*
X164948025Y-98818946D01*
X164914073Y-98789526D01*
X164869605Y-98783133D01*
X164828740Y-98801795D01*
X164804452Y-98839588D01*
X164804452Y-99873051D01*
X164406710Y-99873051D01*
X164410264Y-99869497D01*
X164425692Y-99855147D01*
X164426062Y-99853698D01*
X164452071Y-99827688D01*
X164463139Y-99821115D01*
X164472563Y-99802266D01*
X164482669Y-99783759D01*
X164482562Y-99782268D01*
X164518960Y-99709472D01*
X164528880Y-99694037D01*
X164528880Y-99678403D01*
X164531649Y-99663016D01*
X164528880Y-99656340D01*
X164528880Y-99580453D01*
X164530849Y-99562215D01*
X164523858Y-99548233D01*
X164519453Y-99533231D01*
X164513990Y-99528497D01*
X164477474Y-99455465D01*
X164474738Y-99442888D01*
X164459842Y-99427992D01*
X164445476Y-99412548D01*
X164444027Y-99412177D01*
X164418018Y-99386168D01*
X164411445Y-99375101D01*
X164392600Y-99365678D01*
X164374090Y-99355571D01*
X164372598Y-99355677D01*
X164308303Y-99323530D01*
X164302250Y-99317092D01*
X164288604Y-99313680D01*
X164286277Y-99312517D01*
X164277971Y-99311022D01*
X164098128Y-99266061D01*
X164021505Y-99227750D01*
X163991443Y-99197688D01*
X163957452Y-99129706D01*
X163957452Y-99070586D01*
X163991442Y-99002604D01*
X164021507Y-98972540D01*
X164089486Y-98938551D01*
X164297108Y-98938551D01*
X164438624Y-98985723D01*
X164472062Y-98986932D01*
X164510709Y-98964026D01*
X164530836Y-98923861D01*
X164526054Y-98879192D01*
X164497881Y-98844199D01*
X164342813Y-98792509D01*
X164331986Y-98785551D01*
X164310916Y-98785551D01*
X164289840Y-98784789D01*
X164288554Y-98785551D01*
X164075545Y-98785551D01*
X164057307Y-98783582D01*
X164043325Y-98790572D01*
X164028323Y-98794978D01*
X164023589Y-98800440D01*
X163950557Y-98836956D01*
X163937980Y-98839693D01*
X163923084Y-98854588D01*
X163907640Y-98868955D01*
X163907269Y-98870403D01*
X163881260Y-98896412D01*
X163870193Y-98902986D01*
X163860770Y-98921830D01*
X163850663Y-98940341D01*
X163850769Y-98941832D01*
X163814371Y-99014628D01*
X163804452Y-99030064D01*
X163804452Y-99045698D01*
X163801683Y-99061085D01*
X163545278Y-99061085D01*
X163526882Y-98987499D01*
X163522357Y-98966698D01*
X163513405Y-98957746D01*
X163506996Y-98946822D01*
X163497842Y-98942183D01*
X163418018Y-98862359D01*
X163411445Y-98851292D01*
X163392600Y-98841869D01*
X163374090Y-98831762D01*
X163372598Y-98831868D01*
X163299802Y-98795470D01*
X163284367Y-98785551D01*
X163268733Y-98785551D01*
X163253346Y-98782782D01*
X163246670Y-98785551D01*
X163075545Y-98785551D01*
X163057307Y-98783582D01*
X163043325Y-98790572D01*
X163028323Y-98794978D01*
X163023589Y-98800440D01*
X162950557Y-98836956D01*
X162937980Y-98839693D01*
X162923084Y-98854588D01*
X162907640Y-98868955D01*
X162907269Y-98870403D01*
X162827703Y-98949969D01*
X162812184Y-98964562D01*
X162809113Y-98976845D01*
X162803044Y-98987960D01*
X162803775Y-98998194D01*
X162762170Y-99164615D01*
X162756833Y-99172921D01*
X162756833Y-99185966D01*
X162756449Y-99187502D01*
X162756833Y-99196949D01*
X162756833Y-99516127D01*
X162753669Y-99525479D01*
X162481261Y-99525479D01*
X162481261Y-98867841D01*
X162483770Y-98851354D01*
X162476709Y-98835549D01*
X162471834Y-98818946D01*
X162467685Y-98815351D01*
X162465445Y-98810336D01*
X162450959Y-98800857D01*
X162437882Y-98789526D01*
X162432447Y-98788744D01*
X162427852Y-98785738D01*
X162410542Y-98785595D01*
X162393414Y-98783133D01*
X162388420Y-98785413D01*
X162382929Y-98785368D01*
X162368289Y-98794606D01*
X162352549Y-98801795D01*
X162349581Y-98806413D01*
X162344937Y-98809344D01*
X162337616Y-98825029D01*
X162328261Y-98839588D01*
X162328261Y-98845078D01*
X162071427Y-99395435D01*
X161809866Y-98834947D01*
X161805168Y-98818946D01*
X161792087Y-98807611D01*
X161780647Y-98794626D01*
X161775366Y-98793122D01*
X161771216Y-98789526D01*
X161754083Y-98787062D01*
X161737439Y-98782324D01*
X161732182Y-98783914D01*
X161726748Y-98783133D01*
X161711004Y-98790322D01*
X161694439Y-98795335D01*
X161690877Y-98799514D01*
X161685883Y-98801795D01*
X161676525Y-98816355D01*
X161665300Y-98829528D01*
X161664563Y-98834969D01*
X161661595Y-98839588D01*
X161661595Y-98856895D01*
X161659273Y-98874046D01*
X161127643Y-98874046D01*
X161127643Y-98335825D01*
X165673904Y-98335825D01*
X165673904Y-100463039D01*
G37*
G36*
X165816762Y-102863039D02*
G01*
X161127643Y-102863039D01*
X161127643Y-101461085D01*
X161611207Y-101461085D01*
X161613976Y-101467761D01*
X161613976Y-101543647D01*
X161612007Y-101561885D01*
X161618997Y-101575865D01*
X161623403Y-101590870D01*
X161628866Y-101595604D01*
X161665381Y-101668633D01*
X161668118Y-101681213D01*
X161683024Y-101696119D01*
X161697380Y-101711553D01*
X161698827Y-101711923D01*
X161724838Y-101737933D01*
X161731411Y-101749000D01*
X161750256Y-101758422D01*
X161768766Y-101768529D01*
X161770255Y-101768422D01*
X161834552Y-101800570D01*
X161840606Y-101807009D01*
X161854252Y-101810420D01*
X161856579Y-101811584D01*
X161864883Y-101813078D01*
X162044728Y-101858039D01*
X162121350Y-101896350D01*
X162151414Y-101926415D01*
X162185404Y-101994394D01*
X162185404Y-102053515D01*
X162151413Y-102121496D01*
X162121350Y-102151560D01*
X162053369Y-102185551D01*
X161845747Y-102185551D01*
X161704232Y-102138379D01*
X161670793Y-102137170D01*
X161632147Y-102160076D01*
X161612020Y-102200241D01*
X161616801Y-102244910D01*
X161644974Y-102279903D01*
X161800042Y-102331592D01*
X161810870Y-102338551D01*
X161831940Y-102338551D01*
X161853015Y-102339313D01*
X161854301Y-102338551D01*
X162067310Y-102338551D01*
X162085548Y-102340520D01*
X162099528Y-102333529D01*
X162114533Y-102329124D01*
X162119267Y-102323660D01*
X162192296Y-102287145D01*
X162204877Y-102284409D01*
X162219788Y-102269497D01*
X162235216Y-102255147D01*
X162235586Y-102253698D01*
X162261595Y-102227688D01*
X162272663Y-102221115D01*
X162282087Y-102202266D01*
X162292193Y-102183759D01*
X162292086Y-102182268D01*
X162328484Y-102109472D01*
X162338404Y-102094037D01*
X162338404Y-102078403D01*
X162341173Y-102063016D01*
X162338404Y-102056340D01*
X162338404Y-101980453D01*
X162340373Y-101962215D01*
X162333382Y-101948233D01*
X162328977Y-101933231D01*
X162323514Y-101928497D01*
X162286998Y-101855465D01*
X162284262Y-101842888D01*
X162271615Y-101830241D01*
X162563193Y-101830241D01*
X162566357Y-101842897D01*
X162566357Y-101844479D01*
X162569018Y-101853544D01*
X162612955Y-102029289D01*
X162612007Y-102038075D01*
X162618296Y-102050653D01*
X162618928Y-102053180D01*
X162623201Y-102060464D01*
X162665380Y-102144821D01*
X162668117Y-102157403D01*
X162683036Y-102172323D01*
X162697380Y-102187743D01*
X162698826Y-102188112D01*
X162776325Y-102265612D01*
X162787831Y-102279903D01*
X162802661Y-102284846D01*
X162816385Y-102292340D01*
X162823594Y-102291824D01*
X162942899Y-102331592D01*
X162953727Y-102338551D01*
X162974797Y-102338551D01*
X162995872Y-102339313D01*
X162997158Y-102338551D01*
X163061835Y-102338551D01*
X163074309Y-102341729D01*
X163094306Y-102335062D01*
X163114533Y-102329124D01*
X163115511Y-102327994D01*
X163234566Y-102288309D01*
X163252496Y-102284409D01*
X163263505Y-102273398D01*
X163611558Y-102273398D01*
X163618616Y-102288853D01*
X163623403Y-102305156D01*
X163627801Y-102308967D01*
X163630220Y-102314263D01*
X163644514Y-102323449D01*
X163657355Y-102334576D01*
X163663116Y-102335404D01*
X163668013Y-102338551D01*
X163685004Y-102338551D01*
X163701823Y-102340969D01*
X163707118Y-102338551D01*
X164177666Y-102338551D01*
X164209771Y-102329124D01*
X164239191Y-102295172D01*
X164245584Y-102250704D01*
X164226922Y-102209839D01*
X164189129Y-102185551D01*
X163766976Y-102185551D01*
X163766976Y-101816531D01*
X164422092Y-101816531D01*
X164423500Y-101836217D01*
X164423500Y-102273051D01*
X164432927Y-102305156D01*
X164466879Y-102334576D01*
X164511347Y-102340969D01*
X164552212Y-102322307D01*
X164576500Y-102284514D01*
X164576500Y-101865166D01*
X164634579Y-101807086D01*
X165016828Y-102316751D01*
X165043633Y-102336779D01*
X165088446Y-102339944D01*
X165127856Y-102318377D01*
X165149351Y-102278929D01*
X165146106Y-102234122D01*
X164743865Y-101697800D01*
X165133300Y-101308367D01*
X165149335Y-101278999D01*
X165146131Y-101234188D01*
X165119208Y-101198224D01*
X165077116Y-101182524D01*
X165033218Y-101192074D01*
X164596516Y-101628775D01*
X164586429Y-101634296D01*
X164580960Y-101644331D01*
X164576500Y-101648792D01*
X164576500Y-101251051D01*
X164567073Y-101218946D01*
X164533121Y-101189526D01*
X164488653Y-101183133D01*
X164447788Y-101201795D01*
X164423500Y-101239588D01*
X164423500Y-101813953D01*
X164422092Y-101816531D01*
X163766976Y-101816531D01*
X163766976Y-101251051D01*
X163757549Y-101218946D01*
X163723597Y-101189526D01*
X163679129Y-101183133D01*
X163638264Y-101201795D01*
X163613976Y-101239588D01*
X163613976Y-102256579D01*
X163611558Y-102273398D01*
X163263505Y-102273398D01*
X163263551Y-102273352D01*
X163276388Y-102264432D01*
X163279151Y-102257753D01*
X163323776Y-102213127D01*
X163339812Y-102183759D01*
X163336607Y-102138948D01*
X163309683Y-102102985D01*
X163267591Y-102087285D01*
X163223693Y-102096835D01*
X163172961Y-102147567D01*
X163059013Y-102185551D01*
X162988604Y-102185551D01*
X162874656Y-102147568D01*
X162800966Y-102073876D01*
X162762655Y-101997255D01*
X162719357Y-101824061D01*
X162719357Y-101700040D01*
X162762655Y-101526845D01*
X162800967Y-101450223D01*
X162874656Y-101376533D01*
X162988604Y-101338551D01*
X163059013Y-101338551D01*
X163172961Y-101376533D01*
X163215588Y-101419161D01*
X163244956Y-101435196D01*
X163289767Y-101431992D01*
X163325731Y-101405069D01*
X163341431Y-101362977D01*
X163331881Y-101319079D01*
X163271290Y-101258488D01*
X163259786Y-101244199D01*
X163244956Y-101239255D01*
X163231233Y-101231762D01*
X163224022Y-101232277D01*
X163104718Y-101192509D01*
X163093891Y-101185551D01*
X163072821Y-101185551D01*
X163051745Y-101184789D01*
X163050459Y-101185551D01*
X162985782Y-101185551D01*
X162973308Y-101182373D01*
X162953302Y-101189041D01*
X162933085Y-101194978D01*
X162932106Y-101196106D01*
X162813047Y-101235793D01*
X162795123Y-101239693D01*
X162784069Y-101250746D01*
X162771230Y-101259670D01*
X162768466Y-101266349D01*
X162690784Y-101344031D01*
X162679717Y-101350605D01*
X162670294Y-101369449D01*
X162660187Y-101387960D01*
X162660293Y-101389451D01*
X162628146Y-101453746D01*
X162621708Y-101459800D01*
X162618296Y-101473446D01*
X162617133Y-101475773D01*
X162615638Y-101484078D01*
X162571694Y-101659853D01*
X162566357Y-101668159D01*
X162566357Y-101681204D01*
X162565973Y-101682740D01*
X162566357Y-101692187D01*
X162566357Y-101820889D01*
X162563193Y-101830241D01*
X162271615Y-101830241D01*
X162269366Y-101827992D01*
X162255000Y-101812548D01*
X162253551Y-101812177D01*
X162227542Y-101786168D01*
X162220969Y-101775101D01*
X162202124Y-101765678D01*
X162183614Y-101755571D01*
X162182122Y-101755677D01*
X162117827Y-101723530D01*
X162111774Y-101717092D01*
X162098128Y-101713680D01*
X162095801Y-101712517D01*
X162087495Y-101711022D01*
X161907652Y-101666061D01*
X161831029Y-101627750D01*
X161800967Y-101597688D01*
X161766976Y-101529706D01*
X161766976Y-101470586D01*
X161800966Y-101402604D01*
X161831031Y-101372540D01*
X161899010Y-101338551D01*
X162106632Y-101338551D01*
X162248148Y-101385723D01*
X162281586Y-101386932D01*
X162320233Y-101364026D01*
X162340360Y-101323861D01*
X162335578Y-101279192D01*
X162307405Y-101244199D01*
X162152337Y-101192509D01*
X162141510Y-101185551D01*
X162120440Y-101185551D01*
X162099364Y-101184789D01*
X162098078Y-101185551D01*
X161885069Y-101185551D01*
X161866831Y-101183582D01*
X161852849Y-101190572D01*
X161837847Y-101194978D01*
X161833113Y-101200440D01*
X161760081Y-101236956D01*
X161747504Y-101239693D01*
X161732608Y-101254588D01*
X161717164Y-101268955D01*
X161716793Y-101270403D01*
X161690784Y-101296412D01*
X161679717Y-101302986D01*
X161670294Y-101321830D01*
X161660187Y-101340341D01*
X161660293Y-101341832D01*
X161623895Y-101414628D01*
X161613976Y-101430064D01*
X161613976Y-101445698D01*
X161611207Y-101461085D01*
X161127643Y-101461085D01*
X161127643Y-100735825D01*
X165816762Y-100735825D01*
X165816762Y-102863039D01*
G37*
D12*
X177263214Y-92502819D02*
X176929881Y-92026628D01*
X176691786Y-92502819D02*
X176691786Y-91502819D01*
X176691786Y-91502819D02*
X177072738Y-91502819D01*
X177072738Y-91502819D02*
X177167976Y-91550438D01*
X177167976Y-91550438D02*
X177215595Y-91598057D01*
X177215595Y-91598057D02*
X177263214Y-91693295D01*
X177263214Y-91693295D02*
X177263214Y-91836152D01*
X177263214Y-91836152D02*
X177215595Y-91931390D01*
X177215595Y-91931390D02*
X177167976Y-91979009D01*
X177167976Y-91979009D02*
X177072738Y-92026628D01*
X177072738Y-92026628D02*
X176691786Y-92026628D01*
X177691786Y-91979009D02*
X178025119Y-91979009D01*
X178167976Y-92502819D02*
X177691786Y-92502819D01*
X177691786Y-92502819D02*
X177691786Y-91502819D01*
X177691786Y-91502819D02*
X178167976Y-91502819D01*
X179167976Y-92407580D02*
X179120357Y-92455200D01*
X179120357Y-92455200D02*
X178977500Y-92502819D01*
X178977500Y-92502819D02*
X178882262Y-92502819D01*
X178882262Y-92502819D02*
X178739405Y-92455200D01*
X178739405Y-92455200D02*
X178644167Y-92359961D01*
X178644167Y-92359961D02*
X178596548Y-92264723D01*
X178596548Y-92264723D02*
X178548929Y-92074247D01*
X178548929Y-92074247D02*
X178548929Y-91931390D01*
X178548929Y-91931390D02*
X178596548Y-91740914D01*
X178596548Y-91740914D02*
X178644167Y-91645676D01*
X178644167Y-91645676D02*
X178739405Y-91550438D01*
X178739405Y-91550438D02*
X178882262Y-91502819D01*
X178882262Y-91502819D02*
X178977500Y-91502819D01*
X178977500Y-91502819D02*
X179120357Y-91550438D01*
X179120357Y-91550438D02*
X179167976Y-91598057D01*
X179596548Y-91979009D02*
X179929881Y-91979009D01*
X180072738Y-92502819D02*
X179596548Y-92502819D01*
X179596548Y-92502819D02*
X179596548Y-91502819D01*
X179596548Y-91502819D02*
X180072738Y-91502819D01*
X180501310Y-92502819D02*
X180501310Y-91502819D01*
X180834643Y-91502819D02*
X181167976Y-92502819D01*
X181167976Y-92502819D02*
X181501309Y-91502819D01*
X181834643Y-91979009D02*
X182167976Y-91979009D01*
X182310833Y-92502819D02*
X181834643Y-92502819D01*
X181834643Y-92502819D02*
X181834643Y-91502819D01*
X181834643Y-91502819D02*
X182310833Y-91502819D01*
D13*
X124952381Y-63345622D02*
X124809524Y-63298003D01*
X124809524Y-63298003D02*
X124761905Y-63250384D01*
X124761905Y-63250384D02*
X124714286Y-63155146D01*
X124714286Y-63155146D02*
X124714286Y-63012289D01*
X124714286Y-63012289D02*
X124761905Y-62917051D01*
X124761905Y-62917051D02*
X124809524Y-62869432D01*
X124809524Y-62869432D02*
X124904762Y-62821812D01*
X124904762Y-62821812D02*
X125285714Y-62821812D01*
X125285714Y-62821812D02*
X125285714Y-63821812D01*
X125285714Y-63821812D02*
X124952381Y-63821812D01*
X124952381Y-63821812D02*
X124857143Y-63774193D01*
X124857143Y-63774193D02*
X124809524Y-63726574D01*
X124809524Y-63726574D02*
X124761905Y-63631336D01*
X124761905Y-63631336D02*
X124761905Y-63536098D01*
X124761905Y-63536098D02*
X124809524Y-63440860D01*
X124809524Y-63440860D02*
X124857143Y-63393241D01*
X124857143Y-63393241D02*
X124952381Y-63345622D01*
X124952381Y-63345622D02*
X125285714Y-63345622D01*
X124142857Y-62821812D02*
X124238095Y-62869432D01*
X124238095Y-62869432D02*
X124285714Y-62917051D01*
X124285714Y-62917051D02*
X124333333Y-63012289D01*
X124333333Y-63012289D02*
X124333333Y-63298003D01*
X124333333Y-63298003D02*
X124285714Y-63393241D01*
X124285714Y-63393241D02*
X124238095Y-63440860D01*
X124238095Y-63440860D02*
X124142857Y-63488479D01*
X124142857Y-63488479D02*
X124000000Y-63488479D01*
X124000000Y-63488479D02*
X123904762Y-63440860D01*
X123904762Y-63440860D02*
X123857143Y-63393241D01*
X123857143Y-63393241D02*
X123809524Y-63298003D01*
X123809524Y-63298003D02*
X123809524Y-63012289D01*
X123809524Y-63012289D02*
X123857143Y-62917051D01*
X123857143Y-62917051D02*
X123904762Y-62869432D01*
X123904762Y-62869432D02*
X124000000Y-62821812D01*
X124000000Y-62821812D02*
X124142857Y-62821812D01*
X123238095Y-62821812D02*
X123333333Y-62869432D01*
X123333333Y-62869432D02*
X123380952Y-62917051D01*
X123380952Y-62917051D02*
X123428571Y-63012289D01*
X123428571Y-63012289D02*
X123428571Y-63298003D01*
X123428571Y-63298003D02*
X123380952Y-63393241D01*
X123380952Y-63393241D02*
X123333333Y-63440860D01*
X123333333Y-63440860D02*
X123238095Y-63488479D01*
X123238095Y-63488479D02*
X123095238Y-63488479D01*
X123095238Y-63488479D02*
X123000000Y-63440860D01*
X123000000Y-63440860D02*
X122952381Y-63393241D01*
X122952381Y-63393241D02*
X122904762Y-63298003D01*
X122904762Y-63298003D02*
X122904762Y-63012289D01*
X122904762Y-63012289D02*
X122952381Y-62917051D01*
X122952381Y-62917051D02*
X123000000Y-62869432D01*
X123000000Y-62869432D02*
X123095238Y-62821812D01*
X123095238Y-62821812D02*
X123238095Y-62821812D01*
X122619047Y-63488479D02*
X122238095Y-63488479D01*
X122476190Y-63821812D02*
X122476190Y-62964670D01*
X122476190Y-62964670D02*
X122428571Y-62869432D01*
X122428571Y-62869432D02*
X122333333Y-62821812D01*
X122333333Y-62821812D02*
X122238095Y-62821812D01*
X121190475Y-62869432D02*
X121047618Y-62821812D01*
X121047618Y-62821812D02*
X120809523Y-62821812D01*
X120809523Y-62821812D02*
X120714285Y-62869432D01*
X120714285Y-62869432D02*
X120666666Y-62917051D01*
X120666666Y-62917051D02*
X120619047Y-63012289D01*
X120619047Y-63012289D02*
X120619047Y-63107527D01*
X120619047Y-63107527D02*
X120666666Y-63202765D01*
X120666666Y-63202765D02*
X120714285Y-63250384D01*
X120714285Y-63250384D02*
X120809523Y-63298003D01*
X120809523Y-63298003D02*
X120999999Y-63345622D01*
X120999999Y-63345622D02*
X121095237Y-63393241D01*
X121095237Y-63393241D02*
X121142856Y-63440860D01*
X121142856Y-63440860D02*
X121190475Y-63536098D01*
X121190475Y-63536098D02*
X121190475Y-63631336D01*
X121190475Y-63631336D02*
X121142856Y-63726574D01*
X121142856Y-63726574D02*
X121095237Y-63774193D01*
X121095237Y-63774193D02*
X120999999Y-63821812D01*
X120999999Y-63821812D02*
X120761904Y-63821812D01*
X120761904Y-63821812D02*
X120619047Y-63774193D01*
X119809523Y-62869432D02*
X119904761Y-62821812D01*
X119904761Y-62821812D02*
X120095237Y-62821812D01*
X120095237Y-62821812D02*
X120190475Y-62869432D01*
X120190475Y-62869432D02*
X120238094Y-62964670D01*
X120238094Y-62964670D02*
X120238094Y-63345622D01*
X120238094Y-63345622D02*
X120190475Y-63440860D01*
X120190475Y-63440860D02*
X120095237Y-63488479D01*
X120095237Y-63488479D02*
X119904761Y-63488479D01*
X119904761Y-63488479D02*
X119809523Y-63440860D01*
X119809523Y-63440860D02*
X119761904Y-63345622D01*
X119761904Y-63345622D02*
X119761904Y-63250384D01*
X119761904Y-63250384D02*
X120238094Y-63155146D01*
X119190475Y-62821812D02*
X119285713Y-62869432D01*
X119285713Y-62869432D02*
X119333332Y-62964670D01*
X119333332Y-62964670D02*
X119333332Y-63821812D01*
X118428570Y-62869432D02*
X118523808Y-62821812D01*
X118523808Y-62821812D02*
X118714284Y-62821812D01*
X118714284Y-62821812D02*
X118809522Y-62869432D01*
X118809522Y-62869432D02*
X118857141Y-62964670D01*
X118857141Y-62964670D02*
X118857141Y-63345622D01*
X118857141Y-63345622D02*
X118809522Y-63440860D01*
X118809522Y-63440860D02*
X118714284Y-63488479D01*
X118714284Y-63488479D02*
X118523808Y-63488479D01*
X118523808Y-63488479D02*
X118428570Y-63440860D01*
X118428570Y-63440860D02*
X118380951Y-63345622D01*
X118380951Y-63345622D02*
X118380951Y-63250384D01*
X118380951Y-63250384D02*
X118857141Y-63155146D01*
X117523808Y-62869432D02*
X117619046Y-62821812D01*
X117619046Y-62821812D02*
X117809522Y-62821812D01*
X117809522Y-62821812D02*
X117904760Y-62869432D01*
X117904760Y-62869432D02*
X117952379Y-62917051D01*
X117952379Y-62917051D02*
X117999998Y-63012289D01*
X117999998Y-63012289D02*
X117999998Y-63298003D01*
X117999998Y-63298003D02*
X117952379Y-63393241D01*
X117952379Y-63393241D02*
X117904760Y-63440860D01*
X117904760Y-63440860D02*
X117809522Y-63488479D01*
X117809522Y-63488479D02*
X117619046Y-63488479D01*
X117619046Y-63488479D02*
X117523808Y-63440860D01*
X117238093Y-63488479D02*
X116857141Y-63488479D01*
X117095236Y-63821812D02*
X117095236Y-62964670D01*
X117095236Y-62964670D02*
X117047617Y-62869432D01*
X117047617Y-62869432D02*
X116952379Y-62821812D01*
X116952379Y-62821812D02*
X116857141Y-62821812D01*
X116523807Y-62821812D02*
X116523807Y-63488479D01*
X116523807Y-63821812D02*
X116571426Y-63774193D01*
X116571426Y-63774193D02*
X116523807Y-63726574D01*
X116523807Y-63726574D02*
X116476188Y-63774193D01*
X116476188Y-63774193D02*
X116523807Y-63821812D01*
X116523807Y-63821812D02*
X116523807Y-63726574D01*
X115904760Y-62821812D02*
X115999998Y-62869432D01*
X115999998Y-62869432D02*
X116047617Y-62917051D01*
X116047617Y-62917051D02*
X116095236Y-63012289D01*
X116095236Y-63012289D02*
X116095236Y-63298003D01*
X116095236Y-63298003D02*
X116047617Y-63393241D01*
X116047617Y-63393241D02*
X115999998Y-63440860D01*
X115999998Y-63440860D02*
X115904760Y-63488479D01*
X115904760Y-63488479D02*
X115761903Y-63488479D01*
X115761903Y-63488479D02*
X115666665Y-63440860D01*
X115666665Y-63440860D02*
X115619046Y-63393241D01*
X115619046Y-63393241D02*
X115571427Y-63298003D01*
X115571427Y-63298003D02*
X115571427Y-63012289D01*
X115571427Y-63012289D02*
X115619046Y-62917051D01*
X115619046Y-62917051D02*
X115666665Y-62869432D01*
X115666665Y-62869432D02*
X115761903Y-62821812D01*
X115761903Y-62821812D02*
X115904760Y-62821812D01*
X115142855Y-63488479D02*
X115142855Y-62821812D01*
X115142855Y-63393241D02*
X115095236Y-63440860D01*
X115095236Y-63440860D02*
X114999998Y-63488479D01*
X114999998Y-63488479D02*
X114857141Y-63488479D01*
X114857141Y-63488479D02*
X114761903Y-63440860D01*
X114761903Y-63440860D02*
X114714284Y-63345622D01*
X114714284Y-63345622D02*
X114714284Y-62821812D01*
D12*
X174167976Y-121877819D02*
X174167976Y-120877819D01*
X174167976Y-120877819D02*
X174548928Y-120877819D01*
X174548928Y-120877819D02*
X174644166Y-120925438D01*
X174644166Y-120925438D02*
X174691785Y-120973057D01*
X174691785Y-120973057D02*
X174739404Y-121068295D01*
X174739404Y-121068295D02*
X174739404Y-121211152D01*
X174739404Y-121211152D02*
X174691785Y-121306390D01*
X174691785Y-121306390D02*
X174644166Y-121354009D01*
X174644166Y-121354009D02*
X174548928Y-121401628D01*
X174548928Y-121401628D02*
X174167976Y-121401628D01*
X175358452Y-120877819D02*
X175548928Y-120877819D01*
X175548928Y-120877819D02*
X175644166Y-120925438D01*
X175644166Y-120925438D02*
X175739404Y-121020676D01*
X175739404Y-121020676D02*
X175787023Y-121211152D01*
X175787023Y-121211152D02*
X175787023Y-121544485D01*
X175787023Y-121544485D02*
X175739404Y-121734961D01*
X175739404Y-121734961D02*
X175644166Y-121830200D01*
X175644166Y-121830200D02*
X175548928Y-121877819D01*
X175548928Y-121877819D02*
X175358452Y-121877819D01*
X175358452Y-121877819D02*
X175263214Y-121830200D01*
X175263214Y-121830200D02*
X175167976Y-121734961D01*
X175167976Y-121734961D02*
X175120357Y-121544485D01*
X175120357Y-121544485D02*
X175120357Y-121211152D01*
X175120357Y-121211152D02*
X175167976Y-121020676D01*
X175167976Y-121020676D02*
X175263214Y-120925438D01*
X175263214Y-120925438D02*
X175358452Y-120877819D01*
X176120357Y-120877819D02*
X176358452Y-121877819D01*
X176358452Y-121877819D02*
X176548928Y-121163533D01*
X176548928Y-121163533D02*
X176739404Y-121877819D01*
X176739404Y-121877819D02*
X176977500Y-120877819D01*
X177358452Y-121354009D02*
X177691785Y-121354009D01*
X177834642Y-121877819D02*
X177358452Y-121877819D01*
X177358452Y-121877819D02*
X177358452Y-120877819D01*
X177358452Y-120877819D02*
X177834642Y-120877819D01*
X178834642Y-121877819D02*
X178501309Y-121401628D01*
X178263214Y-121877819D02*
X178263214Y-120877819D01*
X178263214Y-120877819D02*
X178644166Y-120877819D01*
X178644166Y-120877819D02*
X178739404Y-120925438D01*
X178739404Y-120925438D02*
X178787023Y-120973057D01*
X178787023Y-120973057D02*
X178834642Y-121068295D01*
X178834642Y-121068295D02*
X178834642Y-121211152D01*
X178834642Y-121211152D02*
X178787023Y-121306390D01*
X178787023Y-121306390D02*
X178739404Y-121354009D01*
X178739404Y-121354009D02*
X178644166Y-121401628D01*
X178644166Y-121401628D02*
X178263214Y-121401628D01*
D11*
G36*
X175760528Y-128999836D02*
G01*
X175496615Y-128999836D01*
X175628571Y-128603966D01*
X175760528Y-128999836D01*
G37*
G36*
X179469143Y-129963039D02*
G01*
X173827643Y-129963039D01*
X173827643Y-128930241D01*
X174310812Y-128930241D01*
X174313976Y-128942897D01*
X174313976Y-128944479D01*
X174316637Y-128953544D01*
X174360574Y-129129289D01*
X174359626Y-129138075D01*
X174365915Y-129150653D01*
X174366547Y-129153180D01*
X174370820Y-129160464D01*
X174412999Y-129244821D01*
X174415736Y-129257403D01*
X174430655Y-129272323D01*
X174444999Y-129287743D01*
X174446445Y-129288112D01*
X174523944Y-129365612D01*
X174535450Y-129379903D01*
X174550280Y-129384846D01*
X174564004Y-129392340D01*
X174571213Y-129391824D01*
X174690518Y-129431592D01*
X174701346Y-129438551D01*
X174722416Y-129438551D01*
X174743491Y-129439313D01*
X174744777Y-129438551D01*
X174809454Y-129438551D01*
X174821928Y-129441729D01*
X174841925Y-129435062D01*
X174862152Y-129429124D01*
X174863130Y-129427994D01*
X174982185Y-129388309D01*
X175000115Y-129384409D01*
X175002790Y-129381734D01*
X175217976Y-129381734D01*
X175240882Y-129420380D01*
X175281047Y-129440507D01*
X175325716Y-129435726D01*
X175360709Y-129407553D01*
X175445615Y-129152836D01*
X175811528Y-129152836D01*
X175892808Y-129396677D01*
X175911904Y-129424154D01*
X175953417Y-129441328D01*
X175997625Y-129433331D01*
X176030491Y-129402704D01*
X176041582Y-129359169D01*
X175944962Y-129069310D01*
X175945584Y-129064989D01*
X175937949Y-129048271D01*
X175715359Y-128380502D01*
X176217673Y-128380502D01*
X176218738Y-128382366D01*
X176218738Y-129373051D01*
X176228165Y-129405156D01*
X176262117Y-129434576D01*
X176306585Y-129440969D01*
X176347450Y-129422307D01*
X176371738Y-129384514D01*
X176371738Y-128650116D01*
X176795792Y-129392212D01*
X176799593Y-129405156D01*
X176815065Y-129418562D01*
X176829816Y-129432754D01*
X176831922Y-129433169D01*
X176833545Y-129434576D01*
X176853805Y-129437488D01*
X176873891Y-129441453D01*
X176875888Y-129440663D01*
X176878013Y-129440969D01*
X176896640Y-129432462D01*
X176915672Y-129424941D01*
X176916924Y-129423199D01*
X176918878Y-129422307D01*
X176929946Y-129405083D01*
X176941894Y-129388464D01*
X176942005Y-129386319D01*
X176943166Y-129384514D01*
X176943166Y-129364045D01*
X176944231Y-129343600D01*
X176943166Y-129341736D01*
X176943166Y-128849588D01*
X178025844Y-128849588D01*
X178028262Y-128854883D01*
X178028262Y-129373051D01*
X178037689Y-129405156D01*
X178071641Y-129434576D01*
X178116109Y-129440969D01*
X178156974Y-129422307D01*
X178181262Y-129384514D01*
X178181262Y-128914741D01*
X178599690Y-128914741D01*
X178599690Y-129373051D01*
X178609117Y-129405156D01*
X178643069Y-129434576D01*
X178687537Y-129440969D01*
X178728402Y-129422307D01*
X178752690Y-129384514D01*
X178752690Y-128843713D01*
X178755108Y-128826894D01*
X178752690Y-128821599D01*
X178752690Y-128351051D01*
X178743263Y-128318946D01*
X178709311Y-128289526D01*
X178664843Y-128283133D01*
X178623978Y-128301795D01*
X178599690Y-128339588D01*
X178599690Y-128761741D01*
X178181262Y-128761741D01*
X178181262Y-128351051D01*
X178171835Y-128318946D01*
X178137883Y-128289526D01*
X178093415Y-128283133D01*
X178052550Y-128301795D01*
X178028262Y-128339588D01*
X178028262Y-128832769D01*
X178025844Y-128849588D01*
X176943166Y-128849588D01*
X176943166Y-128351051D01*
X176933739Y-128318946D01*
X176899787Y-128289526D01*
X176855319Y-128283133D01*
X176814454Y-128301795D01*
X176790166Y-128339588D01*
X176790166Y-129073986D01*
X176366111Y-128331889D01*
X176362311Y-128318946D01*
X176346838Y-128305539D01*
X176332088Y-128291348D01*
X176329981Y-128290932D01*
X176328359Y-128289526D01*
X176308098Y-128286613D01*
X176288013Y-128282649D01*
X176286015Y-128283438D01*
X176283891Y-128283133D01*
X176265263Y-128291639D01*
X176246232Y-128299161D01*
X176244980Y-128300902D01*
X176243026Y-128301795D01*
X176231953Y-128319023D01*
X176220010Y-128335639D01*
X176219898Y-128337782D01*
X176218738Y-128339588D01*
X176218738Y-128360057D01*
X176217673Y-128380502D01*
X175715359Y-128380502D01*
X175705521Y-128350987D01*
X175705833Y-128342369D01*
X175698556Y-128330091D01*
X175697667Y-128327424D01*
X175692966Y-128320661D01*
X175682927Y-128303722D01*
X175680267Y-128302389D01*
X175678571Y-128299948D01*
X175660366Y-128292416D01*
X175642762Y-128283595D01*
X175639807Y-128283911D01*
X175637058Y-128282774D01*
X175617669Y-128286281D01*
X175598093Y-128288377D01*
X175595777Y-128290241D01*
X175592850Y-128290771D01*
X175578436Y-128304202D01*
X175563100Y-128316550D01*
X175562159Y-128319370D01*
X175559984Y-128321398D01*
X175555120Y-128340489D01*
X175322708Y-129037724D01*
X175317951Y-129043215D01*
X175315730Y-129058657D01*
X175219185Y-129348295D01*
X175217976Y-129381734D01*
X175002790Y-129381734D01*
X175011170Y-129373352D01*
X175024007Y-129364432D01*
X175026770Y-129357753D01*
X175071395Y-129313127D01*
X175087431Y-129283759D01*
X175084226Y-129238948D01*
X175057302Y-129202985D01*
X175015210Y-129187285D01*
X174971312Y-129196835D01*
X174920580Y-129247567D01*
X174806632Y-129285551D01*
X174736223Y-129285551D01*
X174622275Y-129247568D01*
X174548585Y-129173876D01*
X174510274Y-129097255D01*
X174466976Y-128924061D01*
X174466976Y-128800040D01*
X174510274Y-128626845D01*
X174548586Y-128550223D01*
X174622275Y-128476533D01*
X174736223Y-128438551D01*
X174806632Y-128438551D01*
X174920580Y-128476533D01*
X174963207Y-128519161D01*
X174992575Y-128535196D01*
X175037386Y-128531992D01*
X175073350Y-128505069D01*
X175089050Y-128462977D01*
X175079500Y-128419079D01*
X175018909Y-128358488D01*
X175007405Y-128344199D01*
X174992575Y-128339255D01*
X174978852Y-128331762D01*
X174971641Y-128332277D01*
X174852337Y-128292509D01*
X174841510Y-128285551D01*
X174820440Y-128285551D01*
X174799364Y-128284789D01*
X174798078Y-128285551D01*
X174733401Y-128285551D01*
X174720927Y-128282373D01*
X174700921Y-128289041D01*
X174680704Y-128294978D01*
X174679725Y-128296106D01*
X174560666Y-128335793D01*
X174542742Y-128339693D01*
X174531688Y-128350746D01*
X174518849Y-128359670D01*
X174516085Y-128366349D01*
X174438403Y-128444031D01*
X174427336Y-128450605D01*
X174417913Y-128469449D01*
X174407806Y-128487960D01*
X174407912Y-128489451D01*
X174375765Y-128553746D01*
X174369327Y-128559800D01*
X174365915Y-128573446D01*
X174364752Y-128575773D01*
X174363257Y-128584078D01*
X174319313Y-128759853D01*
X174313976Y-128768159D01*
X174313976Y-128781204D01*
X174313592Y-128782740D01*
X174313976Y-128792187D01*
X174313976Y-128920889D01*
X174310812Y-128930241D01*
X173827643Y-128930241D01*
X173827643Y-127835825D01*
X179469143Y-127835825D01*
X179469143Y-129963039D01*
G37*
D12*
X169307500Y-65012104D02*
X169355119Y-64869247D01*
X169355119Y-64869247D02*
X169355119Y-64631152D01*
X169355119Y-64631152D02*
X169307500Y-64535914D01*
X169307500Y-64535914D02*
X169259880Y-64488295D01*
X169259880Y-64488295D02*
X169164642Y-64440676D01*
X169164642Y-64440676D02*
X169069404Y-64440676D01*
X169069404Y-64440676D02*
X168974166Y-64488295D01*
X168974166Y-64488295D02*
X168926547Y-64535914D01*
X168926547Y-64535914D02*
X168878928Y-64631152D01*
X168878928Y-64631152D02*
X168831309Y-64821628D01*
X168831309Y-64821628D02*
X168783690Y-64916866D01*
X168783690Y-64916866D02*
X168736071Y-64964485D01*
X168736071Y-64964485D02*
X168640833Y-65012104D01*
X168640833Y-65012104D02*
X168545595Y-65012104D01*
X168545595Y-65012104D02*
X168450357Y-64964485D01*
X168450357Y-64964485D02*
X168402738Y-64916866D01*
X168402738Y-64916866D02*
X168355119Y-64821628D01*
X168355119Y-64821628D02*
X168355119Y-64583533D01*
X168355119Y-64583533D02*
X168402738Y-64440676D01*
X168831309Y-64012104D02*
X168831309Y-63678771D01*
X169355119Y-63535914D02*
X169355119Y-64012104D01*
X169355119Y-64012104D02*
X168355119Y-64012104D01*
X168355119Y-64012104D02*
X168355119Y-63535914D01*
X169355119Y-63107342D02*
X168355119Y-63107342D01*
X168355119Y-63107342D02*
X169355119Y-62535914D01*
X169355119Y-62535914D02*
X168355119Y-62535914D01*
X169355119Y-62059723D02*
X168355119Y-62059723D01*
X168355119Y-62059723D02*
X168355119Y-61821628D01*
X168355119Y-61821628D02*
X168402738Y-61678771D01*
X168402738Y-61678771D02*
X168497976Y-61583533D01*
X168497976Y-61583533D02*
X168593214Y-61535914D01*
X168593214Y-61535914D02*
X168783690Y-61488295D01*
X168783690Y-61488295D02*
X168926547Y-61488295D01*
X168926547Y-61488295D02*
X169117023Y-61535914D01*
X169117023Y-61535914D02*
X169212261Y-61583533D01*
X169212261Y-61583533D02*
X169307500Y-61678771D01*
X169307500Y-61678771D02*
X169355119Y-61821628D01*
X169355119Y-61821628D02*
X169355119Y-62059723D01*
D11*
X124738095Y-60821812D02*
X125309523Y-60821812D01*
X125023809Y-60821812D02*
X125023809Y-61821812D01*
X125023809Y-61821812D02*
X125119047Y-61678955D01*
X125119047Y-61678955D02*
X125214285Y-61583717D01*
X125214285Y-61583717D02*
X125309523Y-61536098D01*
X123547618Y-60821812D02*
X123547618Y-61821812D01*
X123547618Y-61821812D02*
X123309523Y-61821812D01*
X123309523Y-61821812D02*
X123166666Y-61774193D01*
X123166666Y-61774193D02*
X123071428Y-61678955D01*
X123071428Y-61678955D02*
X123023809Y-61583717D01*
X123023809Y-61583717D02*
X122976190Y-61393241D01*
X122976190Y-61393241D02*
X122976190Y-61250384D01*
X122976190Y-61250384D02*
X123023809Y-61059908D01*
X123023809Y-61059908D02*
X123071428Y-60964670D01*
X123071428Y-60964670D02*
X123166666Y-60869432D01*
X123166666Y-60869432D02*
X123309523Y-60821812D01*
X123309523Y-60821812D02*
X123547618Y-60821812D01*
X122547618Y-61345622D02*
X122214285Y-61345622D01*
X122071428Y-60821812D02*
X122547618Y-60821812D01*
X122547618Y-60821812D02*
X122547618Y-61821812D01*
X122547618Y-61821812D02*
X122071428Y-61821812D01*
X121309523Y-61345622D02*
X121166666Y-61298003D01*
X121166666Y-61298003D02*
X121119047Y-61250384D01*
X121119047Y-61250384D02*
X121071428Y-61155146D01*
X121071428Y-61155146D02*
X121071428Y-61012289D01*
X121071428Y-61012289D02*
X121119047Y-60917051D01*
X121119047Y-60917051D02*
X121166666Y-60869432D01*
X121166666Y-60869432D02*
X121261904Y-60821812D01*
X121261904Y-60821812D02*
X121642856Y-60821812D01*
X121642856Y-60821812D02*
X121642856Y-61821812D01*
X121642856Y-61821812D02*
X121309523Y-61821812D01*
X121309523Y-61821812D02*
X121214285Y-61774193D01*
X121214285Y-61774193D02*
X121166666Y-61726574D01*
X121166666Y-61726574D02*
X121119047Y-61631336D01*
X121119047Y-61631336D02*
X121119047Y-61536098D01*
X121119047Y-61536098D02*
X121166666Y-61440860D01*
X121166666Y-61440860D02*
X121214285Y-61393241D01*
X121214285Y-61393241D02*
X121309523Y-61345622D01*
X121309523Y-61345622D02*
X121642856Y-61345622D01*
X120642856Y-61821812D02*
X120642856Y-61012289D01*
X120642856Y-61012289D02*
X120595237Y-60917051D01*
X120595237Y-60917051D02*
X120547618Y-60869432D01*
X120547618Y-60869432D02*
X120452380Y-60821812D01*
X120452380Y-60821812D02*
X120261904Y-60821812D01*
X120261904Y-60821812D02*
X120166666Y-60869432D01*
X120166666Y-60869432D02*
X120119047Y-60917051D01*
X120119047Y-60917051D02*
X120071428Y-61012289D01*
X120071428Y-61012289D02*
X120071428Y-61821812D01*
X119071428Y-61774193D02*
X119166666Y-61821812D01*
X119166666Y-61821812D02*
X119309523Y-61821812D01*
X119309523Y-61821812D02*
X119452380Y-61774193D01*
X119452380Y-61774193D02*
X119547618Y-61678955D01*
X119547618Y-61678955D02*
X119595237Y-61583717D01*
X119595237Y-61583717D02*
X119642856Y-61393241D01*
X119642856Y-61393241D02*
X119642856Y-61250384D01*
X119642856Y-61250384D02*
X119595237Y-61059908D01*
X119595237Y-61059908D02*
X119547618Y-60964670D01*
X119547618Y-60964670D02*
X119452380Y-60869432D01*
X119452380Y-60869432D02*
X119309523Y-60821812D01*
X119309523Y-60821812D02*
X119214285Y-60821812D01*
X119214285Y-60821812D02*
X119071428Y-60869432D01*
X119071428Y-60869432D02*
X119023809Y-60917051D01*
X119023809Y-60917051D02*
X119023809Y-61250384D01*
X119023809Y-61250384D02*
X119214285Y-61250384D01*
D13*
X171605119Y-70131153D02*
X171605119Y-70607343D01*
X171605119Y-70607343D02*
X170605119Y-70607343D01*
X170605119Y-69607343D02*
X170605119Y-69416867D01*
X170605119Y-69416867D02*
X170652738Y-69321629D01*
X170652738Y-69321629D02*
X170747976Y-69226391D01*
X170747976Y-69226391D02*
X170938452Y-69178772D01*
X170938452Y-69178772D02*
X171271785Y-69178772D01*
X171271785Y-69178772D02*
X171462261Y-69226391D01*
X171462261Y-69226391D02*
X171557500Y-69321629D01*
X171557500Y-69321629D02*
X171605119Y-69416867D01*
X171605119Y-69416867D02*
X171605119Y-69607343D01*
X171605119Y-69607343D02*
X171557500Y-69702581D01*
X171557500Y-69702581D02*
X171462261Y-69797819D01*
X171462261Y-69797819D02*
X171271785Y-69845438D01*
X171271785Y-69845438D02*
X170938452Y-69845438D01*
X170938452Y-69845438D02*
X170747976Y-69797819D01*
X170747976Y-69797819D02*
X170652738Y-69702581D01*
X170652738Y-69702581D02*
X170605119Y-69607343D01*
X171605119Y-68178772D02*
X171128928Y-68512105D01*
X171605119Y-68750200D02*
X170605119Y-68750200D01*
X170605119Y-68750200D02*
X170605119Y-68369248D01*
X170605119Y-68369248D02*
X170652738Y-68274010D01*
X170652738Y-68274010D02*
X170700357Y-68226391D01*
X170700357Y-68226391D02*
X170795595Y-68178772D01*
X170795595Y-68178772D02*
X170938452Y-68178772D01*
X170938452Y-68178772D02*
X171033690Y-68226391D01*
X171033690Y-68226391D02*
X171081309Y-68274010D01*
X171081309Y-68274010D02*
X171128928Y-68369248D01*
X171128928Y-68369248D02*
X171128928Y-68750200D01*
X171319404Y-67797819D02*
X171319404Y-67321629D01*
X171605119Y-67893057D02*
X170605119Y-67559724D01*
X170605119Y-67559724D02*
X171605119Y-67226391D01*
X171557500Y-66178771D02*
X171605119Y-66035914D01*
X171605119Y-66035914D02*
X171605119Y-65797819D01*
X171605119Y-65797819D02*
X171557500Y-65702581D01*
X171557500Y-65702581D02*
X171509880Y-65654962D01*
X171509880Y-65654962D02*
X171414642Y-65607343D01*
X171414642Y-65607343D02*
X171319404Y-65607343D01*
X171319404Y-65607343D02*
X171224166Y-65654962D01*
X171224166Y-65654962D02*
X171176547Y-65702581D01*
X171176547Y-65702581D02*
X171128928Y-65797819D01*
X171128928Y-65797819D02*
X171081309Y-65988295D01*
X171081309Y-65988295D02*
X171033690Y-66083533D01*
X171033690Y-66083533D02*
X170986071Y-66131152D01*
X170986071Y-66131152D02*
X170890833Y-66178771D01*
X170890833Y-66178771D02*
X170795595Y-66178771D01*
X170795595Y-66178771D02*
X170700357Y-66131152D01*
X170700357Y-66131152D02*
X170652738Y-66083533D01*
X170652738Y-66083533D02*
X170605119Y-65988295D01*
X170605119Y-65988295D02*
X170605119Y-65750200D01*
X170605119Y-65750200D02*
X170652738Y-65607343D01*
X170938452Y-65321628D02*
X170938452Y-64940676D01*
X170605119Y-65178771D02*
X171462261Y-65178771D01*
X171462261Y-65178771D02*
X171557500Y-65131152D01*
X171557500Y-65131152D02*
X171605119Y-65035914D01*
X171605119Y-65035914D02*
X171605119Y-64940676D01*
X171605119Y-64178771D02*
X171081309Y-64178771D01*
X171081309Y-64178771D02*
X170986071Y-64226390D01*
X170986071Y-64226390D02*
X170938452Y-64321628D01*
X170938452Y-64321628D02*
X170938452Y-64512104D01*
X170938452Y-64512104D02*
X170986071Y-64607342D01*
X171557500Y-64178771D02*
X171605119Y-64274009D01*
X171605119Y-64274009D02*
X171605119Y-64512104D01*
X171605119Y-64512104D02*
X171557500Y-64607342D01*
X171557500Y-64607342D02*
X171462261Y-64654961D01*
X171462261Y-64654961D02*
X171367023Y-64654961D01*
X171367023Y-64654961D02*
X171271785Y-64607342D01*
X171271785Y-64607342D02*
X171224166Y-64512104D01*
X171224166Y-64512104D02*
X171224166Y-64274009D01*
X171224166Y-64274009D02*
X171176547Y-64178771D01*
X170938452Y-63845437D02*
X170938452Y-63464485D01*
X170605119Y-63702580D02*
X171462261Y-63702580D01*
X171462261Y-63702580D02*
X171557500Y-63654961D01*
X171557500Y-63654961D02*
X171605119Y-63559723D01*
X171605119Y-63559723D02*
X171605119Y-63464485D01*
X170938452Y-62702580D02*
X171605119Y-62702580D01*
X170938452Y-63131151D02*
X171462261Y-63131151D01*
X171462261Y-63131151D02*
X171557500Y-63083532D01*
X171557500Y-63083532D02*
X171605119Y-62988294D01*
X171605119Y-62988294D02*
X171605119Y-62845437D01*
X171605119Y-62845437D02*
X171557500Y-62750199D01*
X171557500Y-62750199D02*
X171509880Y-62702580D01*
X171557500Y-62274008D02*
X171605119Y-62178770D01*
X171605119Y-62178770D02*
X171605119Y-61988294D01*
X171605119Y-61988294D02*
X171557500Y-61893056D01*
X171557500Y-61893056D02*
X171462261Y-61845437D01*
X171462261Y-61845437D02*
X171414642Y-61845437D01*
X171414642Y-61845437D02*
X171319404Y-61893056D01*
X171319404Y-61893056D02*
X171271785Y-61988294D01*
X171271785Y-61988294D02*
X171271785Y-62131151D01*
X171271785Y-62131151D02*
X171224166Y-62226389D01*
X171224166Y-62226389D02*
X171128928Y-62274008D01*
X171128928Y-62274008D02*
X171081309Y-62274008D01*
X171081309Y-62274008D02*
X170986071Y-62226389D01*
X170986071Y-62226389D02*
X170938452Y-62131151D01*
X170938452Y-62131151D02*
X170938452Y-61988294D01*
X170938452Y-61988294D02*
X170986071Y-61893056D01*
D11*
G36*
X163311827Y-103772542D02*
G01*
X163383303Y-103844018D01*
X163423499Y-104004801D01*
X163423499Y-104319299D01*
X163383303Y-104480082D01*
X163311826Y-104551560D01*
X163243845Y-104585551D01*
X163089487Y-104585551D01*
X163021505Y-104551560D01*
X162950028Y-104480082D01*
X162909833Y-104319299D01*
X162909833Y-104004802D01*
X162950029Y-103844017D01*
X163021506Y-103772541D01*
X163089486Y-103738551D01*
X163243845Y-103738551D01*
X163311827Y-103772542D01*
G37*
G36*
X165673904Y-105263039D02*
G01*
X161127643Y-105263039D01*
X161127643Y-103674046D01*
X161659273Y-103674046D01*
X161661595Y-103679022D01*
X161661595Y-104673051D01*
X161671022Y-104705156D01*
X161704974Y-104734576D01*
X161749442Y-104740969D01*
X161790307Y-104722307D01*
X161814595Y-104684514D01*
X161814595Y-104006879D01*
X162001830Y-104408098D01*
X162010745Y-104428051D01*
X162020874Y-104434679D01*
X162028876Y-104443761D01*
X162039282Y-104446724D01*
X162048337Y-104452649D01*
X162060440Y-104452748D01*
X162072084Y-104456064D01*
X162082441Y-104452929D01*
X162093260Y-104453019D01*
X162103497Y-104446558D01*
X162115084Y-104443052D01*
X162122102Y-104434816D01*
X162131252Y-104429042D01*
X162136370Y-104418074D01*
X162144223Y-104408860D01*
X162145674Y-104398135D01*
X162328261Y-104006880D01*
X162328261Y-104673051D01*
X162337688Y-104705156D01*
X162371640Y-104734576D01*
X162416108Y-104740969D01*
X162456973Y-104722307D01*
X162481261Y-104684514D01*
X162481261Y-104325479D01*
X162753669Y-104325479D01*
X162756833Y-104338135D01*
X162756833Y-104339717D01*
X162759494Y-104348782D01*
X162806444Y-104536578D01*
X162810974Y-104557403D01*
X162819929Y-104566358D01*
X162826336Y-104577278D01*
X162835484Y-104581914D01*
X162915314Y-104661744D01*
X162921887Y-104672810D01*
X162940724Y-104682228D01*
X162959242Y-104692340D01*
X162960733Y-104692233D01*
X163033529Y-104728631D01*
X163048965Y-104738551D01*
X163064599Y-104738551D01*
X163079986Y-104741320D01*
X163086662Y-104738551D01*
X163257786Y-104738551D01*
X163276024Y-104740520D01*
X163290004Y-104733529D01*
X163305009Y-104729124D01*
X163309743Y-104723660D01*
X163382772Y-104687145D01*
X163395352Y-104684409D01*
X163410254Y-104669506D01*
X163425692Y-104655147D01*
X163426062Y-104653698D01*
X163505630Y-104574129D01*
X163521148Y-104559539D01*
X163524219Y-104547254D01*
X163530288Y-104536140D01*
X163529556Y-104525906D01*
X163571161Y-104359484D01*
X163576499Y-104351180D01*
X163576499Y-104338136D01*
X163576883Y-104336600D01*
X163576499Y-104327153D01*
X163576499Y-104007974D01*
X163579663Y-103998622D01*
X163576499Y-103985966D01*
X163576499Y-103984384D01*
X163573837Y-103975319D01*
X163545278Y-103861085D01*
X163801683Y-103861085D01*
X163804452Y-103867761D01*
X163804452Y-103943647D01*
X163802483Y-103961885D01*
X163809473Y-103975865D01*
X163813879Y-103990870D01*
X163819342Y-103995604D01*
X163855857Y-104068633D01*
X163858594Y-104081213D01*
X163873500Y-104096119D01*
X163887856Y-104111553D01*
X163889303Y-104111923D01*
X163915314Y-104137933D01*
X163921887Y-104149000D01*
X163940732Y-104158422D01*
X163959242Y-104168529D01*
X163960731Y-104168422D01*
X164025028Y-104200570D01*
X164031082Y-104207009D01*
X164044728Y-104210420D01*
X164047055Y-104211584D01*
X164055359Y-104213078D01*
X164235204Y-104258039D01*
X164311826Y-104296350D01*
X164341890Y-104326415D01*
X164375880Y-104394394D01*
X164375880Y-104453515D01*
X164341889Y-104521496D01*
X164311826Y-104551560D01*
X164243845Y-104585551D01*
X164036223Y-104585551D01*
X163894708Y-104538379D01*
X163861269Y-104537170D01*
X163822623Y-104560076D01*
X163802496Y-104600241D01*
X163807277Y-104644910D01*
X163835450Y-104679903D01*
X163990518Y-104731592D01*
X164001346Y-104738551D01*
X164022416Y-104738551D01*
X164043491Y-104739313D01*
X164044777Y-104738551D01*
X164257786Y-104738551D01*
X164276024Y-104740520D01*
X164290004Y-104733529D01*
X164305009Y-104729124D01*
X164309743Y-104723660D01*
X164382772Y-104687145D01*
X164395353Y-104684409D01*
X164406710Y-104673051D01*
X164804452Y-104673051D01*
X164813879Y-104705156D01*
X164847831Y-104734576D01*
X164892299Y-104740969D01*
X164933164Y-104722307D01*
X164957452Y-104684514D01*
X164957452Y-103651051D01*
X164948025Y-103618946D01*
X164914073Y-103589526D01*
X164869605Y-103583133D01*
X164828740Y-103601795D01*
X164804452Y-103639588D01*
X164804452Y-104673051D01*
X164406710Y-104673051D01*
X164410264Y-104669497D01*
X164425692Y-104655147D01*
X164426062Y-104653698D01*
X164452071Y-104627688D01*
X164463139Y-104621115D01*
X164472563Y-104602266D01*
X164482669Y-104583759D01*
X164482562Y-104582268D01*
X164518960Y-104509472D01*
X164528880Y-104494037D01*
X164528880Y-104478403D01*
X164531649Y-104463016D01*
X164528880Y-104456340D01*
X164528880Y-104380453D01*
X164530849Y-104362215D01*
X164523858Y-104348233D01*
X164519453Y-104333231D01*
X164513990Y-104328497D01*
X164477474Y-104255465D01*
X164474738Y-104242888D01*
X164459842Y-104227992D01*
X164445476Y-104212548D01*
X164444027Y-104212177D01*
X164418018Y-104186168D01*
X164411445Y-104175101D01*
X164392600Y-104165678D01*
X164374090Y-104155571D01*
X164372598Y-104155677D01*
X164308303Y-104123530D01*
X164302250Y-104117092D01*
X164288604Y-104113680D01*
X164286277Y-104112517D01*
X164277971Y-104111022D01*
X164098128Y-104066061D01*
X164021505Y-104027750D01*
X163991443Y-103997688D01*
X163957452Y-103929706D01*
X163957452Y-103870586D01*
X163991442Y-103802604D01*
X164021507Y-103772540D01*
X164089486Y-103738551D01*
X164297108Y-103738551D01*
X164438624Y-103785723D01*
X164472062Y-103786932D01*
X164510709Y-103764026D01*
X164530836Y-103723861D01*
X164526054Y-103679192D01*
X164497881Y-103644199D01*
X164342813Y-103592509D01*
X164331986Y-103585551D01*
X164310916Y-103585551D01*
X164289840Y-103584789D01*
X164288554Y-103585551D01*
X164075545Y-103585551D01*
X164057307Y-103583582D01*
X164043325Y-103590572D01*
X164028323Y-103594978D01*
X164023589Y-103600440D01*
X163950557Y-103636956D01*
X163937980Y-103639693D01*
X163923084Y-103654588D01*
X163907640Y-103668955D01*
X163907269Y-103670403D01*
X163881260Y-103696412D01*
X163870193Y-103702986D01*
X163860770Y-103721830D01*
X163850663Y-103740341D01*
X163850769Y-103741832D01*
X163814371Y-103814628D01*
X163804452Y-103830064D01*
X163804452Y-103845698D01*
X163801683Y-103861085D01*
X163545278Y-103861085D01*
X163526882Y-103787499D01*
X163522357Y-103766698D01*
X163513405Y-103757746D01*
X163506996Y-103746822D01*
X163497842Y-103742183D01*
X163418018Y-103662359D01*
X163411445Y-103651292D01*
X163392600Y-103641869D01*
X163374090Y-103631762D01*
X163372598Y-103631868D01*
X163299802Y-103595470D01*
X163284367Y-103585551D01*
X163268733Y-103585551D01*
X163253346Y-103582782D01*
X163246670Y-103585551D01*
X163075545Y-103585551D01*
X163057307Y-103583582D01*
X163043325Y-103590572D01*
X163028323Y-103594978D01*
X163023589Y-103600440D01*
X162950557Y-103636956D01*
X162937980Y-103639693D01*
X162923084Y-103654588D01*
X162907640Y-103668955D01*
X162907269Y-103670403D01*
X162827703Y-103749969D01*
X162812184Y-103764562D01*
X162809113Y-103776845D01*
X162803044Y-103787960D01*
X162803775Y-103798194D01*
X162762170Y-103964615D01*
X162756833Y-103972921D01*
X162756833Y-103985966D01*
X162756449Y-103987502D01*
X162756833Y-103996949D01*
X162756833Y-104316127D01*
X162753669Y-104325479D01*
X162481261Y-104325479D01*
X162481261Y-103667841D01*
X162483770Y-103651354D01*
X162476709Y-103635549D01*
X162471834Y-103618946D01*
X162467685Y-103615351D01*
X162465445Y-103610336D01*
X162450959Y-103600857D01*
X162437882Y-103589526D01*
X162432447Y-103588744D01*
X162427852Y-103585738D01*
X162410542Y-103585595D01*
X162393414Y-103583133D01*
X162388420Y-103585413D01*
X162382929Y-103585368D01*
X162368289Y-103594606D01*
X162352549Y-103601795D01*
X162349581Y-103606413D01*
X162344937Y-103609344D01*
X162337616Y-103625029D01*
X162328261Y-103639588D01*
X162328261Y-103645078D01*
X162071427Y-104195435D01*
X161809866Y-103634947D01*
X161805168Y-103618946D01*
X161792087Y-103607611D01*
X161780647Y-103594626D01*
X161775366Y-103593122D01*
X161771216Y-103589526D01*
X161754083Y-103587062D01*
X161737439Y-103582324D01*
X161732182Y-103583914D01*
X161726748Y-103583133D01*
X161711004Y-103590322D01*
X161694439Y-103595335D01*
X161690877Y-103599514D01*
X161685883Y-103601795D01*
X161676525Y-103616355D01*
X161665300Y-103629528D01*
X161664563Y-103634969D01*
X161661595Y-103639588D01*
X161661595Y-103656895D01*
X161659273Y-103674046D01*
X161127643Y-103674046D01*
X161127643Y-103135825D01*
X165673904Y-103135825D01*
X165673904Y-105263039D01*
G37*
G36*
X165292952Y-82663039D02*
G01*
X161127643Y-82663039D01*
X161127643Y-81961123D01*
X161563330Y-81961123D01*
X161572879Y-82005021D01*
X161629598Y-82061741D01*
X161636173Y-82072810D01*
X161655027Y-82082237D01*
X161673527Y-82092339D01*
X161675017Y-82092232D01*
X161747815Y-82128631D01*
X161763251Y-82138551D01*
X161778885Y-82138551D01*
X161794272Y-82141320D01*
X161800948Y-82138551D01*
X162067310Y-82138551D01*
X162085548Y-82140520D01*
X162099528Y-82133529D01*
X162114533Y-82129124D01*
X162119267Y-82123660D01*
X162192296Y-82087145D01*
X162204877Y-82084409D01*
X162219788Y-82069497D01*
X162235216Y-82055147D01*
X162235586Y-82053698D01*
X162261595Y-82027688D01*
X162272663Y-82021115D01*
X162278848Y-82008744D01*
X162563330Y-82008744D01*
X162566941Y-82025345D01*
X162568154Y-82042296D01*
X162571643Y-82046956D01*
X162572880Y-82052642D01*
X162584894Y-82064656D01*
X162595078Y-82078259D01*
X162600530Y-82080292D01*
X162622575Y-82102338D01*
X162623403Y-82105156D01*
X162634163Y-82114480D01*
X162642696Y-82125878D01*
X162650809Y-82128904D01*
X162657355Y-82134576D01*
X162665928Y-82135808D01*
X162673528Y-82139958D01*
X162679332Y-82139543D01*
X162684788Y-82141578D01*
X162693251Y-82139736D01*
X162701823Y-82140969D01*
X162709700Y-82137371D01*
X162718339Y-82136754D01*
X162722999Y-82133265D01*
X162728686Y-82132028D01*
X162734808Y-82125905D01*
X162742688Y-82122307D01*
X162747370Y-82115020D01*
X162754303Y-82109831D01*
X162756337Y-82104377D01*
X162788323Y-82072390D01*
X162801921Y-82062212D01*
X162807858Y-82046294D01*
X162816002Y-82031380D01*
X162815587Y-82025576D01*
X162817622Y-82020121D01*
X162814009Y-82003514D01*
X162812798Y-81986569D01*
X162809310Y-81981909D01*
X162808073Y-81976223D01*
X162796058Y-81964208D01*
X162793749Y-81961123D01*
X162991901Y-81961123D01*
X163001450Y-82005021D01*
X163058169Y-82061741D01*
X163064744Y-82072810D01*
X163083598Y-82082237D01*
X163102098Y-82092339D01*
X163103588Y-82092232D01*
X163176386Y-82128631D01*
X163191822Y-82138551D01*
X163207456Y-82138551D01*
X163222843Y-82141320D01*
X163229519Y-82138551D01*
X163495881Y-82138551D01*
X163514119Y-82140520D01*
X163528099Y-82133529D01*
X163543104Y-82129124D01*
X163547838Y-82123660D01*
X163620867Y-82087145D01*
X163633448Y-82084409D01*
X163648359Y-82069497D01*
X163663787Y-82055147D01*
X163664157Y-82053698D01*
X163690166Y-82027688D01*
X163701234Y-82021115D01*
X163710658Y-82002266D01*
X163720764Y-81983759D01*
X163720657Y-81982268D01*
X163757055Y-81909472D01*
X163766975Y-81894037D01*
X163766975Y-81878403D01*
X163769744Y-81863016D01*
X163766975Y-81856340D01*
X163766975Y-81637596D01*
X163768944Y-81619358D01*
X163761953Y-81605376D01*
X163757548Y-81590374D01*
X163752085Y-81585640D01*
X163715569Y-81512608D01*
X163712833Y-81500031D01*
X163697937Y-81485135D01*
X163683571Y-81469691D01*
X163682122Y-81469320D01*
X163656113Y-81443311D01*
X163649540Y-81432244D01*
X163630695Y-81422821D01*
X163612185Y-81412714D01*
X163610693Y-81412820D01*
X163537897Y-81376422D01*
X163524553Y-81367847D01*
X163733387Y-81129180D01*
X163733580Y-81129124D01*
X163748187Y-81112265D01*
X163755291Y-81104148D01*
X163755369Y-81103977D01*
X163763000Y-81095172D01*
X163764604Y-81084011D01*
X163769337Y-81073779D01*
X163768108Y-81064932D01*
X163896512Y-81064932D01*
X164232572Y-82073113D01*
X164232261Y-82081734D01*
X164239539Y-82094013D01*
X164240427Y-82096677D01*
X164245122Y-82103432D01*
X164255167Y-82120380D01*
X164257826Y-82121712D01*
X164259523Y-82124154D01*
X164277727Y-82131685D01*
X164295332Y-82140507D01*
X164298286Y-82140190D01*
X164301036Y-82141328D01*
X164320416Y-82137822D01*
X164340001Y-82135726D01*
X164342318Y-82133860D01*
X164345244Y-82133331D01*
X164359649Y-82119907D01*
X164374994Y-82107553D01*
X164375934Y-82104731D01*
X164378110Y-82102704D01*
X164382972Y-82083617D01*
X164718909Y-81075807D01*
X164720118Y-81042369D01*
X164697212Y-81003722D01*
X164657047Y-80983595D01*
X164612378Y-80988377D01*
X164577385Y-81016550D01*
X164309523Y-81820135D01*
X164045286Y-81027424D01*
X164026190Y-80999948D01*
X163984677Y-80982774D01*
X163940469Y-80990771D01*
X163907603Y-81021398D01*
X163896512Y-81064932D01*
X163768108Y-81064932D01*
X163767734Y-81062238D01*
X163769393Y-81050704D01*
X163764709Y-81040448D01*
X163763159Y-81029281D01*
X163755571Y-81020439D01*
X163750731Y-81009839D01*
X163741244Y-81003742D01*
X163733903Y-80995187D01*
X163722740Y-80991850D01*
X163712938Y-80985551D01*
X163701663Y-80985551D01*
X163690860Y-80982322D01*
X163679663Y-80985551D01*
X163060428Y-80985551D01*
X163028323Y-80994978D01*
X162998903Y-81028930D01*
X162992510Y-81073398D01*
X163011172Y-81114263D01*
X163048965Y-81138551D01*
X163521887Y-81138551D01*
X163314229Y-81375873D01*
X163314037Y-81375930D01*
X163299429Y-81392788D01*
X163292326Y-81400906D01*
X163292247Y-81401076D01*
X163284617Y-81409882D01*
X163283012Y-81421042D01*
X163278280Y-81431275D01*
X163279882Y-81442815D01*
X163278224Y-81454350D01*
X163282907Y-81464605D01*
X163284458Y-81475773D01*
X163292045Y-81484614D01*
X163296886Y-81495215D01*
X163306372Y-81501311D01*
X163313714Y-81509867D01*
X163324876Y-81513203D01*
X163334679Y-81519503D01*
X163345954Y-81519503D01*
X163356757Y-81522732D01*
X163367954Y-81519503D01*
X163481940Y-81519503D01*
X163549921Y-81553493D01*
X163579985Y-81583558D01*
X163613975Y-81651537D01*
X163613975Y-81853515D01*
X163579984Y-81921496D01*
X163549921Y-81951560D01*
X163481940Y-81985551D01*
X163232344Y-81985551D01*
X163164362Y-81951560D01*
X163117744Y-81904941D01*
X163088377Y-81888905D01*
X163043566Y-81892109D01*
X163007602Y-81919031D01*
X162991901Y-81961123D01*
X162793749Y-81961123D01*
X162785875Y-81950605D01*
X162780421Y-81948570D01*
X162758376Y-81926526D01*
X162757549Y-81923707D01*
X162746787Y-81914381D01*
X162738255Y-81902985D01*
X162730143Y-81899959D01*
X162723597Y-81894287D01*
X162715024Y-81893054D01*
X162707425Y-81888905D01*
X162701619Y-81889320D01*
X162696163Y-81887285D01*
X162687699Y-81889126D01*
X162679129Y-81887894D01*
X162671251Y-81891491D01*
X162662614Y-81892109D01*
X162657954Y-81895597D01*
X162652265Y-81896835D01*
X162646141Y-81902958D01*
X162638264Y-81906556D01*
X162633581Y-81913842D01*
X162626650Y-81919031D01*
X162624615Y-81924485D01*
X162592633Y-81956468D01*
X162579030Y-81966652D01*
X162573091Y-81982572D01*
X162564949Y-81997485D01*
X162565364Y-82003290D01*
X162563330Y-82008744D01*
X162278848Y-82008744D01*
X162282087Y-82002266D01*
X162292193Y-81983759D01*
X162292086Y-81982268D01*
X162328484Y-81909472D01*
X162338404Y-81894037D01*
X162338404Y-81878403D01*
X162341173Y-81863016D01*
X162338404Y-81856340D01*
X162338404Y-81637596D01*
X162340373Y-81619358D01*
X162333382Y-81605376D01*
X162328977Y-81590374D01*
X162323514Y-81585640D01*
X162286998Y-81512608D01*
X162284262Y-81500031D01*
X162269366Y-81485135D01*
X162255000Y-81469691D01*
X162253551Y-81469320D01*
X162227542Y-81443311D01*
X162220969Y-81432244D01*
X162202124Y-81422821D01*
X162183614Y-81412714D01*
X162182122Y-81412820D01*
X162109326Y-81376422D01*
X162095982Y-81367847D01*
X162304816Y-81129180D01*
X162305009Y-81129124D01*
X162319616Y-81112265D01*
X162326720Y-81104148D01*
X162326798Y-81103977D01*
X162334429Y-81095172D01*
X162336033Y-81084011D01*
X162340766Y-81073779D01*
X162339163Y-81062238D01*
X162340822Y-81050704D01*
X162336138Y-81040448D01*
X162334588Y-81029281D01*
X162327000Y-81020439D01*
X162322160Y-81009839D01*
X162312673Y-81003742D01*
X162305332Y-80995187D01*
X162294169Y-80991850D01*
X162284367Y-80985551D01*
X162273092Y-80985551D01*
X162262289Y-80982322D01*
X162251092Y-80985551D01*
X161631857Y-80985551D01*
X161599752Y-80994978D01*
X161570332Y-81028930D01*
X161563939Y-81073398D01*
X161582601Y-81114263D01*
X161620394Y-81138551D01*
X162093316Y-81138551D01*
X161885658Y-81375873D01*
X161885466Y-81375930D01*
X161870858Y-81392788D01*
X161863755Y-81400906D01*
X161863676Y-81401076D01*
X161856046Y-81409882D01*
X161854441Y-81421042D01*
X161849709Y-81431275D01*
X161851311Y-81442815D01*
X161849653Y-81454350D01*
X161854336Y-81464605D01*
X161855887Y-81475773D01*
X161863474Y-81484614D01*
X161868315Y-81495215D01*
X161877801Y-81501311D01*
X161885143Y-81509867D01*
X161896305Y-81513203D01*
X161906108Y-81519503D01*
X161917383Y-81519503D01*
X161928186Y-81522732D01*
X161939383Y-81519503D01*
X162053369Y-81519503D01*
X162121350Y-81553493D01*
X162151414Y-81583558D01*
X162185404Y-81651537D01*
X162185404Y-81853515D01*
X162151413Y-81921496D01*
X162121350Y-81951560D01*
X162053369Y-81985551D01*
X161803773Y-81985551D01*
X161735791Y-81951560D01*
X161689173Y-81904941D01*
X161659806Y-81888905D01*
X161614995Y-81892109D01*
X161579031Y-81919031D01*
X161563330Y-81961123D01*
X161127643Y-81961123D01*
X161127643Y-80535825D01*
X165292952Y-80535825D01*
X165292952Y-82663039D01*
G37*
D12*
X169605119Y-71214485D02*
X169128928Y-71547818D01*
X169605119Y-71785913D02*
X168605119Y-71785913D01*
X168605119Y-71785913D02*
X168605119Y-71404961D01*
X168605119Y-71404961D02*
X168652738Y-71309723D01*
X168652738Y-71309723D02*
X168700357Y-71262104D01*
X168700357Y-71262104D02*
X168795595Y-71214485D01*
X168795595Y-71214485D02*
X168938452Y-71214485D01*
X168938452Y-71214485D02*
X169033690Y-71262104D01*
X169033690Y-71262104D02*
X169081309Y-71309723D01*
X169081309Y-71309723D02*
X169128928Y-71404961D01*
X169128928Y-71404961D02*
X169128928Y-71785913D01*
X169081309Y-70785913D02*
X169081309Y-70452580D01*
X169605119Y-70309723D02*
X169605119Y-70785913D01*
X169605119Y-70785913D02*
X168605119Y-70785913D01*
X168605119Y-70785913D02*
X168605119Y-70309723D01*
X169509880Y-69309723D02*
X169557500Y-69357342D01*
X169557500Y-69357342D02*
X169605119Y-69500199D01*
X169605119Y-69500199D02*
X169605119Y-69595437D01*
X169605119Y-69595437D02*
X169557500Y-69738294D01*
X169557500Y-69738294D02*
X169462261Y-69833532D01*
X169462261Y-69833532D02*
X169367023Y-69881151D01*
X169367023Y-69881151D02*
X169176547Y-69928770D01*
X169176547Y-69928770D02*
X169033690Y-69928770D01*
X169033690Y-69928770D02*
X168843214Y-69881151D01*
X168843214Y-69881151D02*
X168747976Y-69833532D01*
X168747976Y-69833532D02*
X168652738Y-69738294D01*
X168652738Y-69738294D02*
X168605119Y-69595437D01*
X168605119Y-69595437D02*
X168605119Y-69500199D01*
X168605119Y-69500199D02*
X168652738Y-69357342D01*
X168652738Y-69357342D02*
X168700357Y-69309723D01*
X169081309Y-68881151D02*
X169081309Y-68547818D01*
X169605119Y-68404961D02*
X169605119Y-68881151D01*
X169605119Y-68881151D02*
X168605119Y-68881151D01*
X168605119Y-68881151D02*
X168605119Y-68404961D01*
X169605119Y-67976389D02*
X168605119Y-67976389D01*
X168605119Y-67643056D02*
X169605119Y-67309723D01*
X169605119Y-67309723D02*
X168605119Y-66976390D01*
X169081309Y-66643056D02*
X169081309Y-66309723D01*
X169605119Y-66166866D02*
X169605119Y-66643056D01*
X169605119Y-66643056D02*
X168605119Y-66643056D01*
X168605119Y-66643056D02*
X168605119Y-66166866D01*
D13*
X173346546Y-94032580D02*
X173298927Y-94080200D01*
X173298927Y-94080200D02*
X173156070Y-94127819D01*
X173156070Y-94127819D02*
X173060832Y-94127819D01*
X173060832Y-94127819D02*
X172917975Y-94080200D01*
X172917975Y-94080200D02*
X172822737Y-93984961D01*
X172822737Y-93984961D02*
X172775118Y-93889723D01*
X172775118Y-93889723D02*
X172727499Y-93699247D01*
X172727499Y-93699247D02*
X172727499Y-93556390D01*
X172727499Y-93556390D02*
X172775118Y-93365914D01*
X172775118Y-93365914D02*
X172822737Y-93270676D01*
X172822737Y-93270676D02*
X172917975Y-93175438D01*
X172917975Y-93175438D02*
X173060832Y-93127819D01*
X173060832Y-93127819D02*
X173156070Y-93127819D01*
X173156070Y-93127819D02*
X173298927Y-93175438D01*
X173298927Y-93175438D02*
X173346546Y-93223057D01*
X173727499Y-93842104D02*
X174203689Y-93842104D01*
X173632261Y-94127819D02*
X173965594Y-93127819D01*
X173965594Y-93127819D02*
X174298927Y-94127819D01*
X174632261Y-94127819D02*
X174632261Y-93127819D01*
X174632261Y-93127819D02*
X175203689Y-94127819D01*
X175203689Y-94127819D02*
X175203689Y-93127819D01*
X176394166Y-94080200D02*
X176537023Y-94127819D01*
X176537023Y-94127819D02*
X176775118Y-94127819D01*
X176775118Y-94127819D02*
X176870356Y-94080200D01*
X176870356Y-94080200D02*
X176917975Y-94032580D01*
X176917975Y-94032580D02*
X176965594Y-93937342D01*
X176965594Y-93937342D02*
X176965594Y-93842104D01*
X176965594Y-93842104D02*
X176917975Y-93746866D01*
X176917975Y-93746866D02*
X176870356Y-93699247D01*
X176870356Y-93699247D02*
X176775118Y-93651628D01*
X176775118Y-93651628D02*
X176584642Y-93604009D01*
X176584642Y-93604009D02*
X176489404Y-93556390D01*
X176489404Y-93556390D02*
X176441785Y-93508771D01*
X176441785Y-93508771D02*
X176394166Y-93413533D01*
X176394166Y-93413533D02*
X176394166Y-93318295D01*
X176394166Y-93318295D02*
X176441785Y-93223057D01*
X176441785Y-93223057D02*
X176489404Y-93175438D01*
X176489404Y-93175438D02*
X176584642Y-93127819D01*
X176584642Y-93127819D02*
X176822737Y-93127819D01*
X176822737Y-93127819D02*
X176965594Y-93175438D01*
X177251309Y-93461152D02*
X177632261Y-93461152D01*
X177394166Y-93127819D02*
X177394166Y-93984961D01*
X177394166Y-93984961D02*
X177441785Y-94080200D01*
X177441785Y-94080200D02*
X177537023Y-94127819D01*
X177537023Y-94127819D02*
X177632261Y-94127819D01*
X178394166Y-94127819D02*
X178394166Y-93604009D01*
X178394166Y-93604009D02*
X178346547Y-93508771D01*
X178346547Y-93508771D02*
X178251309Y-93461152D01*
X178251309Y-93461152D02*
X178060833Y-93461152D01*
X178060833Y-93461152D02*
X177965595Y-93508771D01*
X178394166Y-94080200D02*
X178298928Y-94127819D01*
X178298928Y-94127819D02*
X178060833Y-94127819D01*
X178060833Y-94127819D02*
X177965595Y-94080200D01*
X177965595Y-94080200D02*
X177917976Y-93984961D01*
X177917976Y-93984961D02*
X177917976Y-93889723D01*
X177917976Y-93889723D02*
X177965595Y-93794485D01*
X177965595Y-93794485D02*
X178060833Y-93746866D01*
X178060833Y-93746866D02*
X178298928Y-93746866D01*
X178298928Y-93746866D02*
X178394166Y-93699247D01*
X178727500Y-93461152D02*
X179108452Y-93461152D01*
X178870357Y-93127819D02*
X178870357Y-93984961D01*
X178870357Y-93984961D02*
X178917976Y-94080200D01*
X178917976Y-94080200D02*
X179013214Y-94127819D01*
X179013214Y-94127819D02*
X179108452Y-94127819D01*
X179870357Y-93461152D02*
X179870357Y-94127819D01*
X179441786Y-93461152D02*
X179441786Y-93984961D01*
X179441786Y-93984961D02*
X179489405Y-94080200D01*
X179489405Y-94080200D02*
X179584643Y-94127819D01*
X179584643Y-94127819D02*
X179727500Y-94127819D01*
X179727500Y-94127819D02*
X179822738Y-94080200D01*
X179822738Y-94080200D02*
X179870357Y-94032580D01*
X180298929Y-94080200D02*
X180394167Y-94127819D01*
X180394167Y-94127819D02*
X180584643Y-94127819D01*
X180584643Y-94127819D02*
X180679881Y-94080200D01*
X180679881Y-94080200D02*
X180727500Y-93984961D01*
X180727500Y-93984961D02*
X180727500Y-93937342D01*
X180727500Y-93937342D02*
X180679881Y-93842104D01*
X180679881Y-93842104D02*
X180584643Y-93794485D01*
X180584643Y-93794485D02*
X180441786Y-93794485D01*
X180441786Y-93794485D02*
X180346548Y-93746866D01*
X180346548Y-93746866D02*
X180298929Y-93651628D01*
X180298929Y-93651628D02*
X180298929Y-93604009D01*
X180298929Y-93604009D02*
X180346548Y-93508771D01*
X180346548Y-93508771D02*
X180441786Y-93461152D01*
X180441786Y-93461152D02*
X180584643Y-93461152D01*
X180584643Y-93461152D02*
X180679881Y-93508771D01*
D11*
G36*
X164311826Y-106272541D02*
G01*
X164341890Y-106302606D01*
X164375880Y-106370585D01*
X164375880Y-106477325D01*
X164341889Y-106545307D01*
X164311827Y-106575369D01*
X164243845Y-106609360D01*
X163957452Y-106609360D01*
X163957452Y-106238551D01*
X164243845Y-106238551D01*
X164311826Y-106272541D01*
G37*
G36*
X165197714Y-107763039D02*
G01*
X161127643Y-107763039D01*
X161127643Y-106174046D01*
X161659273Y-106174046D01*
X161661595Y-106179022D01*
X161661595Y-107173051D01*
X161671022Y-107205156D01*
X161704974Y-107234576D01*
X161749442Y-107240969D01*
X161790307Y-107222307D01*
X161814595Y-107184514D01*
X161814595Y-106506879D01*
X162001830Y-106908098D01*
X162010745Y-106928051D01*
X162020874Y-106934679D01*
X162028876Y-106943761D01*
X162039282Y-106946724D01*
X162048337Y-106952649D01*
X162060440Y-106952748D01*
X162072084Y-106956064D01*
X162082441Y-106952929D01*
X162093260Y-106953019D01*
X162103497Y-106946558D01*
X162115084Y-106943052D01*
X162122102Y-106934816D01*
X162131252Y-106929042D01*
X162136370Y-106918074D01*
X162144223Y-106908860D01*
X162145674Y-106898135D01*
X162328261Y-106506880D01*
X162328261Y-107173051D01*
X162337688Y-107205156D01*
X162371640Y-107234576D01*
X162416108Y-107240969D01*
X162456973Y-107222307D01*
X162481261Y-107184514D01*
X162481261Y-106730241D01*
X162753669Y-106730241D01*
X162756833Y-106742897D01*
X162756833Y-106744479D01*
X162759494Y-106753544D01*
X162803431Y-106929289D01*
X162802483Y-106938075D01*
X162808772Y-106950653D01*
X162809404Y-106953180D01*
X162813677Y-106960464D01*
X162855856Y-107044821D01*
X162858593Y-107057403D01*
X162873512Y-107072323D01*
X162887856Y-107087743D01*
X162889302Y-107088112D01*
X162966801Y-107165612D01*
X162978307Y-107179903D01*
X162993137Y-107184846D01*
X163006861Y-107192340D01*
X163014070Y-107191824D01*
X163133375Y-107231592D01*
X163144203Y-107238551D01*
X163165273Y-107238551D01*
X163186348Y-107239313D01*
X163187634Y-107238551D01*
X163252311Y-107238551D01*
X163264785Y-107241729D01*
X163284782Y-107235062D01*
X163305009Y-107229124D01*
X163305987Y-107227994D01*
X163425042Y-107188309D01*
X163442972Y-107184409D01*
X163454027Y-107173352D01*
X163466864Y-107164432D01*
X163469627Y-107157753D01*
X163514252Y-107113127D01*
X163530288Y-107083759D01*
X163527083Y-107038948D01*
X163500159Y-107002985D01*
X163458067Y-106987285D01*
X163414169Y-106996835D01*
X163363437Y-107047567D01*
X163249489Y-107085551D01*
X163179080Y-107085551D01*
X163065132Y-107047568D01*
X162991442Y-106973876D01*
X162953131Y-106897255D01*
X162909833Y-106724061D01*
X162909833Y-106697207D01*
X163802034Y-106697207D01*
X163804452Y-106702502D01*
X163804452Y-107173051D01*
X163813879Y-107205156D01*
X163847831Y-107234576D01*
X163892299Y-107240969D01*
X163933164Y-107222307D01*
X163957452Y-107184514D01*
X163957452Y-106762360D01*
X164257786Y-106762360D01*
X164276024Y-106764329D01*
X164290004Y-106757338D01*
X164305009Y-106752933D01*
X164309743Y-106747469D01*
X164382772Y-106710954D01*
X164395352Y-106708218D01*
X164410258Y-106693311D01*
X164425692Y-106678956D01*
X164426062Y-106677508D01*
X164452072Y-106651497D01*
X164463139Y-106644925D01*
X164472561Y-106626079D01*
X164482668Y-106607570D01*
X164482561Y-106606080D01*
X164518960Y-106533282D01*
X164528880Y-106517847D01*
X164528880Y-106502213D01*
X164531649Y-106486826D01*
X164528880Y-106480150D01*
X164528880Y-106356644D01*
X164530849Y-106338406D01*
X164523858Y-106324424D01*
X164519453Y-106309422D01*
X164513990Y-106304688D01*
X164477474Y-106231656D01*
X164474738Y-106219079D01*
X164459842Y-106204183D01*
X164445476Y-106188739D01*
X164444027Y-106188368D01*
X164418018Y-106162359D01*
X164411445Y-106151292D01*
X164392600Y-106141869D01*
X164374090Y-106131762D01*
X164372598Y-106131868D01*
X164299802Y-106095470D01*
X164284367Y-106085551D01*
X164268733Y-106085551D01*
X164253346Y-106082782D01*
X164246670Y-106085551D01*
X163886424Y-106085551D01*
X163869605Y-106083133D01*
X163854149Y-106090191D01*
X163837847Y-106094978D01*
X163834035Y-106099376D01*
X163828740Y-106101795D01*
X163819553Y-106116089D01*
X163808427Y-106128930D01*
X163807598Y-106134691D01*
X163804452Y-106139588D01*
X163804452Y-106156579D01*
X163802034Y-106173398D01*
X163804452Y-106178693D01*
X163804452Y-106680388D01*
X163802034Y-106697207D01*
X162909833Y-106697207D01*
X162909833Y-106600040D01*
X162953131Y-106426845D01*
X162991443Y-106350223D01*
X163065132Y-106276533D01*
X163179080Y-106238551D01*
X163249489Y-106238551D01*
X163363437Y-106276533D01*
X163406064Y-106319161D01*
X163435432Y-106335196D01*
X163480243Y-106331992D01*
X163516207Y-106305069D01*
X163531907Y-106262977D01*
X163522357Y-106219079D01*
X163461766Y-106158488D01*
X163450262Y-106144199D01*
X163435432Y-106139255D01*
X163421709Y-106131762D01*
X163414498Y-106132277D01*
X163295194Y-106092509D01*
X163284367Y-106085551D01*
X163263297Y-106085551D01*
X163242221Y-106084789D01*
X163240935Y-106085551D01*
X163176258Y-106085551D01*
X163163784Y-106082373D01*
X163143778Y-106089041D01*
X163123561Y-106094978D01*
X163122582Y-106096106D01*
X163003523Y-106135793D01*
X162985599Y-106139693D01*
X162974545Y-106150746D01*
X162961706Y-106159670D01*
X162958942Y-106166349D01*
X162881260Y-106244031D01*
X162870193Y-106250605D01*
X162860770Y-106269449D01*
X162850663Y-106287960D01*
X162850769Y-106289451D01*
X162818622Y-106353746D01*
X162812184Y-106359800D01*
X162808772Y-106373446D01*
X162807609Y-106375773D01*
X162806114Y-106384078D01*
X162762170Y-106559853D01*
X162756833Y-106568159D01*
X162756833Y-106581204D01*
X162756449Y-106582740D01*
X162756833Y-106592187D01*
X162756833Y-106720889D01*
X162753669Y-106730241D01*
X162481261Y-106730241D01*
X162481261Y-106167841D01*
X162483770Y-106151354D01*
X162476709Y-106135549D01*
X162471834Y-106118946D01*
X162467685Y-106115351D01*
X162465445Y-106110336D01*
X162450959Y-106100857D01*
X162437882Y-106089526D01*
X162432447Y-106088744D01*
X162427852Y-106085738D01*
X162410542Y-106085595D01*
X162393414Y-106083133D01*
X162388420Y-106085413D01*
X162382929Y-106085368D01*
X162368289Y-106094606D01*
X162352549Y-106101795D01*
X162349581Y-106106413D01*
X162344937Y-106109344D01*
X162337616Y-106125029D01*
X162328261Y-106139588D01*
X162328261Y-106145078D01*
X162071427Y-106695435D01*
X161809866Y-106134947D01*
X161805168Y-106118946D01*
X161792087Y-106107611D01*
X161780647Y-106094626D01*
X161775366Y-106093122D01*
X161771216Y-106089526D01*
X161754083Y-106087062D01*
X161737439Y-106082324D01*
X161732182Y-106083914D01*
X161726748Y-106083133D01*
X161711004Y-106090322D01*
X161694439Y-106095335D01*
X161690877Y-106099514D01*
X161685883Y-106101795D01*
X161676525Y-106116355D01*
X161665300Y-106129528D01*
X161664563Y-106134969D01*
X161661595Y-106139588D01*
X161661595Y-106156895D01*
X161659273Y-106174046D01*
X161127643Y-106174046D01*
X161127643Y-105635825D01*
X165197714Y-105635825D01*
X165197714Y-107763039D01*
G37*
D12*
%TO.C,TP2*%
X167910095Y-125036051D02*
X168481523Y-125036051D01*
X168195809Y-126036051D02*
X168195809Y-125036051D01*
X168814857Y-126036051D02*
X168814857Y-125036051D01*
X168814857Y-125036051D02*
X169195809Y-125036051D01*
X169195809Y-125036051D02*
X169291047Y-125083670D01*
X169291047Y-125083670D02*
X169338666Y-125131289D01*
X169338666Y-125131289D02*
X169386285Y-125226527D01*
X169386285Y-125226527D02*
X169386285Y-125369384D01*
X169386285Y-125369384D02*
X169338666Y-125464622D01*
X169338666Y-125464622D02*
X169291047Y-125512241D01*
X169291047Y-125512241D02*
X169195809Y-125559860D01*
X169195809Y-125559860D02*
X168814857Y-125559860D01*
X169767238Y-125131289D02*
X169814857Y-125083670D01*
X169814857Y-125083670D02*
X169910095Y-125036051D01*
X169910095Y-125036051D02*
X170148190Y-125036051D01*
X170148190Y-125036051D02*
X170243428Y-125083670D01*
X170243428Y-125083670D02*
X170291047Y-125131289D01*
X170291047Y-125131289D02*
X170338666Y-125226527D01*
X170338666Y-125226527D02*
X170338666Y-125321765D01*
X170338666Y-125321765D02*
X170291047Y-125464622D01*
X170291047Y-125464622D02*
X169719619Y-126036051D01*
X169719619Y-126036051D02*
X170338666Y-126036051D01*
%TO.C,U3*%
X164629095Y-115511051D02*
X164629095Y-116320574D01*
X164629095Y-116320574D02*
X164676714Y-116415812D01*
X164676714Y-116415812D02*
X164724333Y-116463432D01*
X164724333Y-116463432D02*
X164819571Y-116511051D01*
X164819571Y-116511051D02*
X165010047Y-116511051D01*
X165010047Y-116511051D02*
X165105285Y-116463432D01*
X165105285Y-116463432D02*
X165152904Y-116415812D01*
X165152904Y-116415812D02*
X165200523Y-116320574D01*
X165200523Y-116320574D02*
X165200523Y-115511051D01*
X165581476Y-115511051D02*
X166200523Y-115511051D01*
X166200523Y-115511051D02*
X165867190Y-115892003D01*
X165867190Y-115892003D02*
X166010047Y-115892003D01*
X166010047Y-115892003D02*
X166105285Y-115939622D01*
X166105285Y-115939622D02*
X166152904Y-115987241D01*
X166152904Y-115987241D02*
X166200523Y-116082479D01*
X166200523Y-116082479D02*
X166200523Y-116320574D01*
X166200523Y-116320574D02*
X166152904Y-116415812D01*
X166152904Y-116415812D02*
X166105285Y-116463432D01*
X166105285Y-116463432D02*
X166010047Y-116511051D01*
X166010047Y-116511051D02*
X165724333Y-116511051D01*
X165724333Y-116511051D02*
X165629095Y-116463432D01*
X165629095Y-116463432D02*
X165581476Y-116415812D01*
%TO.C,C2*%
X181693333Y-116897580D02*
X181645714Y-116945200D01*
X181645714Y-116945200D02*
X181502857Y-116992819D01*
X181502857Y-116992819D02*
X181407619Y-116992819D01*
X181407619Y-116992819D02*
X181264762Y-116945200D01*
X181264762Y-116945200D02*
X181169524Y-116849961D01*
X181169524Y-116849961D02*
X181121905Y-116754723D01*
X181121905Y-116754723D02*
X181074286Y-116564247D01*
X181074286Y-116564247D02*
X181074286Y-116421390D01*
X181074286Y-116421390D02*
X181121905Y-116230914D01*
X181121905Y-116230914D02*
X181169524Y-116135676D01*
X181169524Y-116135676D02*
X181264762Y-116040438D01*
X181264762Y-116040438D02*
X181407619Y-115992819D01*
X181407619Y-115992819D02*
X181502857Y-115992819D01*
X181502857Y-115992819D02*
X181645714Y-116040438D01*
X181645714Y-116040438D02*
X181693333Y-116088057D01*
X182074286Y-116088057D02*
X182121905Y-116040438D01*
X182121905Y-116040438D02*
X182217143Y-115992819D01*
X182217143Y-115992819D02*
X182455238Y-115992819D01*
X182455238Y-115992819D02*
X182550476Y-116040438D01*
X182550476Y-116040438D02*
X182598095Y-116088057D01*
X182598095Y-116088057D02*
X182645714Y-116183295D01*
X182645714Y-116183295D02*
X182645714Y-116278533D01*
X182645714Y-116278533D02*
X182598095Y-116421390D01*
X182598095Y-116421390D02*
X182026667Y-116992819D01*
X182026667Y-116992819D02*
X182645714Y-116992819D01*
%TO.C,D6*%
X166239405Y-61462819D02*
X166239405Y-60462819D01*
X166239405Y-60462819D02*
X166477500Y-60462819D01*
X166477500Y-60462819D02*
X166620357Y-60510438D01*
X166620357Y-60510438D02*
X166715595Y-60605676D01*
X166715595Y-60605676D02*
X166763214Y-60700914D01*
X166763214Y-60700914D02*
X166810833Y-60891390D01*
X166810833Y-60891390D02*
X166810833Y-61034247D01*
X166810833Y-61034247D02*
X166763214Y-61224723D01*
X166763214Y-61224723D02*
X166715595Y-61319961D01*
X166715595Y-61319961D02*
X166620357Y-61415200D01*
X166620357Y-61415200D02*
X166477500Y-61462819D01*
X166477500Y-61462819D02*
X166239405Y-61462819D01*
X167667976Y-60462819D02*
X167477500Y-60462819D01*
X167477500Y-60462819D02*
X167382262Y-60510438D01*
X167382262Y-60510438D02*
X167334643Y-60558057D01*
X167334643Y-60558057D02*
X167239405Y-60700914D01*
X167239405Y-60700914D02*
X167191786Y-60891390D01*
X167191786Y-60891390D02*
X167191786Y-61272342D01*
X167191786Y-61272342D02*
X167239405Y-61367580D01*
X167239405Y-61367580D02*
X167287024Y-61415200D01*
X167287024Y-61415200D02*
X167382262Y-61462819D01*
X167382262Y-61462819D02*
X167572738Y-61462819D01*
X167572738Y-61462819D02*
X167667976Y-61415200D01*
X167667976Y-61415200D02*
X167715595Y-61367580D01*
X167715595Y-61367580D02*
X167763214Y-61272342D01*
X167763214Y-61272342D02*
X167763214Y-61034247D01*
X167763214Y-61034247D02*
X167715595Y-60939009D01*
X167715595Y-60939009D02*
X167667976Y-60891390D01*
X167667976Y-60891390D02*
X167572738Y-60843771D01*
X167572738Y-60843771D02*
X167382262Y-60843771D01*
X167382262Y-60843771D02*
X167287024Y-60891390D01*
X167287024Y-60891390D02*
X167239405Y-60939009D01*
X167239405Y-60939009D02*
X167191786Y-61034247D01*
%TO.C,R8*%
X130333333Y-122962619D02*
X130000000Y-122486428D01*
X129761905Y-122962619D02*
X129761905Y-121962619D01*
X129761905Y-121962619D02*
X130142857Y-121962619D01*
X130142857Y-121962619D02*
X130238095Y-122010238D01*
X130238095Y-122010238D02*
X130285714Y-122057857D01*
X130285714Y-122057857D02*
X130333333Y-122153095D01*
X130333333Y-122153095D02*
X130333333Y-122295952D01*
X130333333Y-122295952D02*
X130285714Y-122391190D01*
X130285714Y-122391190D02*
X130238095Y-122438809D01*
X130238095Y-122438809D02*
X130142857Y-122486428D01*
X130142857Y-122486428D02*
X129761905Y-122486428D01*
X130904762Y-122391190D02*
X130809524Y-122343571D01*
X130809524Y-122343571D02*
X130761905Y-122295952D01*
X130761905Y-122295952D02*
X130714286Y-122200714D01*
X130714286Y-122200714D02*
X130714286Y-122153095D01*
X130714286Y-122153095D02*
X130761905Y-122057857D01*
X130761905Y-122057857D02*
X130809524Y-122010238D01*
X130809524Y-122010238D02*
X130904762Y-121962619D01*
X130904762Y-121962619D02*
X131095238Y-121962619D01*
X131095238Y-121962619D02*
X131190476Y-122010238D01*
X131190476Y-122010238D02*
X131238095Y-122057857D01*
X131238095Y-122057857D02*
X131285714Y-122153095D01*
X131285714Y-122153095D02*
X131285714Y-122200714D01*
X131285714Y-122200714D02*
X131238095Y-122295952D01*
X131238095Y-122295952D02*
X131190476Y-122343571D01*
X131190476Y-122343571D02*
X131095238Y-122391190D01*
X131095238Y-122391190D02*
X130904762Y-122391190D01*
X130904762Y-122391190D02*
X130809524Y-122438809D01*
X130809524Y-122438809D02*
X130761905Y-122486428D01*
X130761905Y-122486428D02*
X130714286Y-122581666D01*
X130714286Y-122581666D02*
X130714286Y-122772142D01*
X130714286Y-122772142D02*
X130761905Y-122867380D01*
X130761905Y-122867380D02*
X130809524Y-122915000D01*
X130809524Y-122915000D02*
X130904762Y-122962619D01*
X130904762Y-122962619D02*
X131095238Y-122962619D01*
X131095238Y-122962619D02*
X131190476Y-122915000D01*
X131190476Y-122915000D02*
X131238095Y-122867380D01*
X131238095Y-122867380D02*
X131285714Y-122772142D01*
X131285714Y-122772142D02*
X131285714Y-122581666D01*
X131285714Y-122581666D02*
X131238095Y-122486428D01*
X131238095Y-122486428D02*
X131190476Y-122438809D01*
X131190476Y-122438809D02*
X131095238Y-122391190D01*
%TO.C,C7*%
X170812333Y-105747812D02*
X170764714Y-105795432D01*
X170764714Y-105795432D02*
X170621857Y-105843051D01*
X170621857Y-105843051D02*
X170526619Y-105843051D01*
X170526619Y-105843051D02*
X170383762Y-105795432D01*
X170383762Y-105795432D02*
X170288524Y-105700193D01*
X170288524Y-105700193D02*
X170240905Y-105604955D01*
X170240905Y-105604955D02*
X170193286Y-105414479D01*
X170193286Y-105414479D02*
X170193286Y-105271622D01*
X170193286Y-105271622D02*
X170240905Y-105081146D01*
X170240905Y-105081146D02*
X170288524Y-104985908D01*
X170288524Y-104985908D02*
X170383762Y-104890670D01*
X170383762Y-104890670D02*
X170526619Y-104843051D01*
X170526619Y-104843051D02*
X170621857Y-104843051D01*
X170621857Y-104843051D02*
X170764714Y-104890670D01*
X170764714Y-104890670D02*
X170812333Y-104938289D01*
X171145667Y-104843051D02*
X171812333Y-104843051D01*
X171812333Y-104843051D02*
X171383762Y-105843051D01*
%TO.C,C5*%
X181981380Y-121194598D02*
X182029000Y-121242217D01*
X182029000Y-121242217D02*
X182076619Y-121385074D01*
X182076619Y-121385074D02*
X182076619Y-121480312D01*
X182076619Y-121480312D02*
X182029000Y-121623169D01*
X182029000Y-121623169D02*
X181933761Y-121718407D01*
X181933761Y-121718407D02*
X181838523Y-121766026D01*
X181838523Y-121766026D02*
X181648047Y-121813645D01*
X181648047Y-121813645D02*
X181505190Y-121813645D01*
X181505190Y-121813645D02*
X181314714Y-121766026D01*
X181314714Y-121766026D02*
X181219476Y-121718407D01*
X181219476Y-121718407D02*
X181124238Y-121623169D01*
X181124238Y-121623169D02*
X181076619Y-121480312D01*
X181076619Y-121480312D02*
X181076619Y-121385074D01*
X181076619Y-121385074D02*
X181124238Y-121242217D01*
X181124238Y-121242217D02*
X181171857Y-121194598D01*
X181076619Y-120289836D02*
X181076619Y-120766026D01*
X181076619Y-120766026D02*
X181552809Y-120813645D01*
X181552809Y-120813645D02*
X181505190Y-120766026D01*
X181505190Y-120766026D02*
X181457571Y-120670788D01*
X181457571Y-120670788D02*
X181457571Y-120432693D01*
X181457571Y-120432693D02*
X181505190Y-120337455D01*
X181505190Y-120337455D02*
X181552809Y-120289836D01*
X181552809Y-120289836D02*
X181648047Y-120242217D01*
X181648047Y-120242217D02*
X181886142Y-120242217D01*
X181886142Y-120242217D02*
X181981380Y-120289836D01*
X181981380Y-120289836D02*
X182029000Y-120337455D01*
X182029000Y-120337455D02*
X182076619Y-120432693D01*
X182076619Y-120432693D02*
X182076619Y-120670788D01*
X182076619Y-120670788D02*
X182029000Y-120766026D01*
X182029000Y-120766026D02*
X181981380Y-120813645D01*
%TO.C,C8*%
X184875333Y-84562812D02*
X184827714Y-84610432D01*
X184827714Y-84610432D02*
X184684857Y-84658051D01*
X184684857Y-84658051D02*
X184589619Y-84658051D01*
X184589619Y-84658051D02*
X184446762Y-84610432D01*
X184446762Y-84610432D02*
X184351524Y-84515193D01*
X184351524Y-84515193D02*
X184303905Y-84419955D01*
X184303905Y-84419955D02*
X184256286Y-84229479D01*
X184256286Y-84229479D02*
X184256286Y-84086622D01*
X184256286Y-84086622D02*
X184303905Y-83896146D01*
X184303905Y-83896146D02*
X184351524Y-83800908D01*
X184351524Y-83800908D02*
X184446762Y-83705670D01*
X184446762Y-83705670D02*
X184589619Y-83658051D01*
X184589619Y-83658051D02*
X184684857Y-83658051D01*
X184684857Y-83658051D02*
X184827714Y-83705670D01*
X184827714Y-83705670D02*
X184875333Y-83753289D01*
X185446762Y-84086622D02*
X185351524Y-84039003D01*
X185351524Y-84039003D02*
X185303905Y-83991384D01*
X185303905Y-83991384D02*
X185256286Y-83896146D01*
X185256286Y-83896146D02*
X185256286Y-83848527D01*
X185256286Y-83848527D02*
X185303905Y-83753289D01*
X185303905Y-83753289D02*
X185351524Y-83705670D01*
X185351524Y-83705670D02*
X185446762Y-83658051D01*
X185446762Y-83658051D02*
X185637238Y-83658051D01*
X185637238Y-83658051D02*
X185732476Y-83705670D01*
X185732476Y-83705670D02*
X185780095Y-83753289D01*
X185780095Y-83753289D02*
X185827714Y-83848527D01*
X185827714Y-83848527D02*
X185827714Y-83896146D01*
X185827714Y-83896146D02*
X185780095Y-83991384D01*
X185780095Y-83991384D02*
X185732476Y-84039003D01*
X185732476Y-84039003D02*
X185637238Y-84086622D01*
X185637238Y-84086622D02*
X185446762Y-84086622D01*
X185446762Y-84086622D02*
X185351524Y-84134241D01*
X185351524Y-84134241D02*
X185303905Y-84181860D01*
X185303905Y-84181860D02*
X185256286Y-84277098D01*
X185256286Y-84277098D02*
X185256286Y-84467574D01*
X185256286Y-84467574D02*
X185303905Y-84562812D01*
X185303905Y-84562812D02*
X185351524Y-84610432D01*
X185351524Y-84610432D02*
X185446762Y-84658051D01*
X185446762Y-84658051D02*
X185637238Y-84658051D01*
X185637238Y-84658051D02*
X185732476Y-84610432D01*
X185732476Y-84610432D02*
X185780095Y-84562812D01*
X185780095Y-84562812D02*
X185827714Y-84467574D01*
X185827714Y-84467574D02*
X185827714Y-84277098D01*
X185827714Y-84277098D02*
X185780095Y-84181860D01*
X185780095Y-84181860D02*
X185732476Y-84134241D01*
X185732476Y-84134241D02*
X185637238Y-84086622D01*
%TO.C,D7*%
X129761905Y-127462619D02*
X129761905Y-126462619D01*
X129761905Y-126462619D02*
X130000000Y-126462619D01*
X130000000Y-126462619D02*
X130142857Y-126510238D01*
X130142857Y-126510238D02*
X130238095Y-126605476D01*
X130238095Y-126605476D02*
X130285714Y-126700714D01*
X130285714Y-126700714D02*
X130333333Y-126891190D01*
X130333333Y-126891190D02*
X130333333Y-127034047D01*
X130333333Y-127034047D02*
X130285714Y-127224523D01*
X130285714Y-127224523D02*
X130238095Y-127319761D01*
X130238095Y-127319761D02*
X130142857Y-127415000D01*
X130142857Y-127415000D02*
X130000000Y-127462619D01*
X130000000Y-127462619D02*
X129761905Y-127462619D01*
X130666667Y-126462619D02*
X131333333Y-126462619D01*
X131333333Y-126462619D02*
X130904762Y-127462619D01*
%TO.C,U1*%
X195340119Y-123762104D02*
X196149642Y-123762104D01*
X196149642Y-123762104D02*
X196244880Y-123714485D01*
X196244880Y-123714485D02*
X196292500Y-123666866D01*
X196292500Y-123666866D02*
X196340119Y-123571628D01*
X196340119Y-123571628D02*
X196340119Y-123381152D01*
X196340119Y-123381152D02*
X196292500Y-123285914D01*
X196292500Y-123285914D02*
X196244880Y-123238295D01*
X196244880Y-123238295D02*
X196149642Y-123190676D01*
X196149642Y-123190676D02*
X195340119Y-123190676D01*
X196340119Y-122190676D02*
X196340119Y-122762104D01*
X196340119Y-122476390D02*
X195340119Y-122476390D01*
X195340119Y-122476390D02*
X195482976Y-122571628D01*
X195482976Y-122571628D02*
X195578214Y-122666866D01*
X195578214Y-122666866D02*
X195625833Y-122762104D01*
%TO.C,D2*%
X175862619Y-108937526D02*
X174862619Y-108937526D01*
X174862619Y-108937526D02*
X174862619Y-108699431D01*
X174862619Y-108699431D02*
X174910238Y-108556574D01*
X174910238Y-108556574D02*
X175005476Y-108461336D01*
X175005476Y-108461336D02*
X175100714Y-108413717D01*
X175100714Y-108413717D02*
X175291190Y-108366098D01*
X175291190Y-108366098D02*
X175434047Y-108366098D01*
X175434047Y-108366098D02*
X175624523Y-108413717D01*
X175624523Y-108413717D02*
X175719761Y-108461336D01*
X175719761Y-108461336D02*
X175815000Y-108556574D01*
X175815000Y-108556574D02*
X175862619Y-108699431D01*
X175862619Y-108699431D02*
X175862619Y-108937526D01*
X174957857Y-107985145D02*
X174910238Y-107937526D01*
X174910238Y-107937526D02*
X174862619Y-107842288D01*
X174862619Y-107842288D02*
X174862619Y-107604193D01*
X174862619Y-107604193D02*
X174910238Y-107508955D01*
X174910238Y-107508955D02*
X174957857Y-107461336D01*
X174957857Y-107461336D02*
X175053095Y-107413717D01*
X175053095Y-107413717D02*
X175148333Y-107413717D01*
X175148333Y-107413717D02*
X175291190Y-107461336D01*
X175291190Y-107461336D02*
X175862619Y-108032764D01*
X175862619Y-108032764D02*
X175862619Y-107413717D01*
%TO.C,U5*%
X112738095Y-81802619D02*
X112738095Y-82612142D01*
X112738095Y-82612142D02*
X112785714Y-82707380D01*
X112785714Y-82707380D02*
X112833333Y-82755000D01*
X112833333Y-82755000D02*
X112928571Y-82802619D01*
X112928571Y-82802619D02*
X113119047Y-82802619D01*
X113119047Y-82802619D02*
X113214285Y-82755000D01*
X113214285Y-82755000D02*
X113261904Y-82707380D01*
X113261904Y-82707380D02*
X113309523Y-82612142D01*
X113309523Y-82612142D02*
X113309523Y-81802619D01*
X114261904Y-81802619D02*
X113785714Y-81802619D01*
X113785714Y-81802619D02*
X113738095Y-82278809D01*
X113738095Y-82278809D02*
X113785714Y-82231190D01*
X113785714Y-82231190D02*
X113880952Y-82183571D01*
X113880952Y-82183571D02*
X114119047Y-82183571D01*
X114119047Y-82183571D02*
X114214285Y-82231190D01*
X114214285Y-82231190D02*
X114261904Y-82278809D01*
X114261904Y-82278809D02*
X114309523Y-82374047D01*
X114309523Y-82374047D02*
X114309523Y-82612142D01*
X114309523Y-82612142D02*
X114261904Y-82707380D01*
X114261904Y-82707380D02*
X114214285Y-82755000D01*
X114214285Y-82755000D02*
X114119047Y-82802619D01*
X114119047Y-82802619D02*
X113880952Y-82802619D01*
X113880952Y-82802619D02*
X113785714Y-82755000D01*
X113785714Y-82755000D02*
X113738095Y-82707380D01*
%TO.C,R6*%
X163827333Y-66473051D02*
X163494000Y-65996860D01*
X163255905Y-66473051D02*
X163255905Y-65473051D01*
X163255905Y-65473051D02*
X163636857Y-65473051D01*
X163636857Y-65473051D02*
X163732095Y-65520670D01*
X163732095Y-65520670D02*
X163779714Y-65568289D01*
X163779714Y-65568289D02*
X163827333Y-65663527D01*
X163827333Y-65663527D02*
X163827333Y-65806384D01*
X163827333Y-65806384D02*
X163779714Y-65901622D01*
X163779714Y-65901622D02*
X163732095Y-65949241D01*
X163732095Y-65949241D02*
X163636857Y-65996860D01*
X163636857Y-65996860D02*
X163255905Y-65996860D01*
X164684476Y-65473051D02*
X164494000Y-65473051D01*
X164494000Y-65473051D02*
X164398762Y-65520670D01*
X164398762Y-65520670D02*
X164351143Y-65568289D01*
X164351143Y-65568289D02*
X164255905Y-65711146D01*
X164255905Y-65711146D02*
X164208286Y-65901622D01*
X164208286Y-65901622D02*
X164208286Y-66282574D01*
X164208286Y-66282574D02*
X164255905Y-66377812D01*
X164255905Y-66377812D02*
X164303524Y-66425432D01*
X164303524Y-66425432D02*
X164398762Y-66473051D01*
X164398762Y-66473051D02*
X164589238Y-66473051D01*
X164589238Y-66473051D02*
X164684476Y-66425432D01*
X164684476Y-66425432D02*
X164732095Y-66377812D01*
X164732095Y-66377812D02*
X164779714Y-66282574D01*
X164779714Y-66282574D02*
X164779714Y-66044479D01*
X164779714Y-66044479D02*
X164732095Y-65949241D01*
X164732095Y-65949241D02*
X164684476Y-65901622D01*
X164684476Y-65901622D02*
X164589238Y-65854003D01*
X164589238Y-65854003D02*
X164398762Y-65854003D01*
X164398762Y-65854003D02*
X164303524Y-65901622D01*
X164303524Y-65901622D02*
X164255905Y-65949241D01*
X164255905Y-65949241D02*
X164208286Y-66044479D01*
%TO.C,R4*%
X174749333Y-85962819D02*
X174416000Y-85486628D01*
X174177905Y-85962819D02*
X174177905Y-84962819D01*
X174177905Y-84962819D02*
X174558857Y-84962819D01*
X174558857Y-84962819D02*
X174654095Y-85010438D01*
X174654095Y-85010438D02*
X174701714Y-85058057D01*
X174701714Y-85058057D02*
X174749333Y-85153295D01*
X174749333Y-85153295D02*
X174749333Y-85296152D01*
X174749333Y-85296152D02*
X174701714Y-85391390D01*
X174701714Y-85391390D02*
X174654095Y-85439009D01*
X174654095Y-85439009D02*
X174558857Y-85486628D01*
X174558857Y-85486628D02*
X174177905Y-85486628D01*
X175606476Y-85296152D02*
X175606476Y-85962819D01*
X175368381Y-84915200D02*
X175130286Y-85629485D01*
X175130286Y-85629485D02*
X175749333Y-85629485D01*
%TO.C,U4*%
X161760119Y-59061904D02*
X162569642Y-59061904D01*
X162569642Y-59061904D02*
X162664880Y-59014285D01*
X162664880Y-59014285D02*
X162712500Y-58966666D01*
X162712500Y-58966666D02*
X162760119Y-58871428D01*
X162760119Y-58871428D02*
X162760119Y-58680952D01*
X162760119Y-58680952D02*
X162712500Y-58585714D01*
X162712500Y-58585714D02*
X162664880Y-58538095D01*
X162664880Y-58538095D02*
X162569642Y-58490476D01*
X162569642Y-58490476D02*
X161760119Y-58490476D01*
X162093452Y-57585714D02*
X162760119Y-57585714D01*
X161712500Y-57823809D02*
X162426785Y-58061904D01*
X162426785Y-58061904D02*
X162426785Y-57442857D01*
%TO.C,C6*%
X172433333Y-103334812D02*
X172385714Y-103382432D01*
X172385714Y-103382432D02*
X172242857Y-103430051D01*
X172242857Y-103430051D02*
X172147619Y-103430051D01*
X172147619Y-103430051D02*
X172004762Y-103382432D01*
X172004762Y-103382432D02*
X171909524Y-103287193D01*
X171909524Y-103287193D02*
X171861905Y-103191955D01*
X171861905Y-103191955D02*
X171814286Y-103001479D01*
X171814286Y-103001479D02*
X171814286Y-102858622D01*
X171814286Y-102858622D02*
X171861905Y-102668146D01*
X171861905Y-102668146D02*
X171909524Y-102572908D01*
X171909524Y-102572908D02*
X172004762Y-102477670D01*
X172004762Y-102477670D02*
X172147619Y-102430051D01*
X172147619Y-102430051D02*
X172242857Y-102430051D01*
X172242857Y-102430051D02*
X172385714Y-102477670D01*
X172385714Y-102477670D02*
X172433333Y-102525289D01*
X173290476Y-102430051D02*
X173100000Y-102430051D01*
X173100000Y-102430051D02*
X173004762Y-102477670D01*
X173004762Y-102477670D02*
X172957143Y-102525289D01*
X172957143Y-102525289D02*
X172861905Y-102668146D01*
X172861905Y-102668146D02*
X172814286Y-102858622D01*
X172814286Y-102858622D02*
X172814286Y-103239574D01*
X172814286Y-103239574D02*
X172861905Y-103334812D01*
X172861905Y-103334812D02*
X172909524Y-103382432D01*
X172909524Y-103382432D02*
X173004762Y-103430051D01*
X173004762Y-103430051D02*
X173195238Y-103430051D01*
X173195238Y-103430051D02*
X173290476Y-103382432D01*
X173290476Y-103382432D02*
X173338095Y-103334812D01*
X173338095Y-103334812D02*
X173385714Y-103239574D01*
X173385714Y-103239574D02*
X173385714Y-103001479D01*
X173385714Y-103001479D02*
X173338095Y-102906241D01*
X173338095Y-102906241D02*
X173290476Y-102858622D01*
X173290476Y-102858622D02*
X173195238Y-102811003D01*
X173195238Y-102811003D02*
X173004762Y-102811003D01*
X173004762Y-102811003D02*
X172909524Y-102858622D01*
X172909524Y-102858622D02*
X172861905Y-102906241D01*
X172861905Y-102906241D02*
X172814286Y-103001479D01*
%TO.C,D3*%
X174161905Y-89712819D02*
X174161905Y-88712819D01*
X174161905Y-88712819D02*
X174400000Y-88712819D01*
X174400000Y-88712819D02*
X174542857Y-88760438D01*
X174542857Y-88760438D02*
X174638095Y-88855676D01*
X174638095Y-88855676D02*
X174685714Y-88950914D01*
X174685714Y-88950914D02*
X174733333Y-89141390D01*
X174733333Y-89141390D02*
X174733333Y-89284247D01*
X174733333Y-89284247D02*
X174685714Y-89474723D01*
X174685714Y-89474723D02*
X174638095Y-89569961D01*
X174638095Y-89569961D02*
X174542857Y-89665200D01*
X174542857Y-89665200D02*
X174400000Y-89712819D01*
X174400000Y-89712819D02*
X174161905Y-89712819D01*
X175066667Y-88712819D02*
X175685714Y-88712819D01*
X175685714Y-88712819D02*
X175352381Y-89093771D01*
X175352381Y-89093771D02*
X175495238Y-89093771D01*
X175495238Y-89093771D02*
X175590476Y-89141390D01*
X175590476Y-89141390D02*
X175638095Y-89189009D01*
X175638095Y-89189009D02*
X175685714Y-89284247D01*
X175685714Y-89284247D02*
X175685714Y-89522342D01*
X175685714Y-89522342D02*
X175638095Y-89617580D01*
X175638095Y-89617580D02*
X175590476Y-89665200D01*
X175590476Y-89665200D02*
X175495238Y-89712819D01*
X175495238Y-89712819D02*
X175209524Y-89712819D01*
X175209524Y-89712819D02*
X175114286Y-89665200D01*
X175114286Y-89665200D02*
X175066667Y-89617580D01*
%TO.C,R1*%
X195733333Y-127862619D02*
X195400000Y-127386428D01*
X195161905Y-127862619D02*
X195161905Y-126862619D01*
X195161905Y-126862619D02*
X195542857Y-126862619D01*
X195542857Y-126862619D02*
X195638095Y-126910238D01*
X195638095Y-126910238D02*
X195685714Y-126957857D01*
X195685714Y-126957857D02*
X195733333Y-127053095D01*
X195733333Y-127053095D02*
X195733333Y-127195952D01*
X195733333Y-127195952D02*
X195685714Y-127291190D01*
X195685714Y-127291190D02*
X195638095Y-127338809D01*
X195638095Y-127338809D02*
X195542857Y-127386428D01*
X195542857Y-127386428D02*
X195161905Y-127386428D01*
X196685714Y-127862619D02*
X196114286Y-127862619D01*
X196400000Y-127862619D02*
X196400000Y-126862619D01*
X196400000Y-126862619D02*
X196304762Y-127005476D01*
X196304762Y-127005476D02*
X196209524Y-127100714D01*
X196209524Y-127100714D02*
X196114286Y-127148333D01*
%TO.C,C4*%
X181981380Y-125766866D02*
X182029000Y-125814485D01*
X182029000Y-125814485D02*
X182076619Y-125957342D01*
X182076619Y-125957342D02*
X182076619Y-126052580D01*
X182076619Y-126052580D02*
X182029000Y-126195437D01*
X182029000Y-126195437D02*
X181933761Y-126290675D01*
X181933761Y-126290675D02*
X181838523Y-126338294D01*
X181838523Y-126338294D02*
X181648047Y-126385913D01*
X181648047Y-126385913D02*
X181505190Y-126385913D01*
X181505190Y-126385913D02*
X181314714Y-126338294D01*
X181314714Y-126338294D02*
X181219476Y-126290675D01*
X181219476Y-126290675D02*
X181124238Y-126195437D01*
X181124238Y-126195437D02*
X181076619Y-126052580D01*
X181076619Y-126052580D02*
X181076619Y-125957342D01*
X181076619Y-125957342D02*
X181124238Y-125814485D01*
X181124238Y-125814485D02*
X181171857Y-125766866D01*
X181409952Y-124909723D02*
X182076619Y-124909723D01*
X181029000Y-125147818D02*
X181743285Y-125385913D01*
X181743285Y-125385913D02*
X181743285Y-124766866D01*
%TO.C,C1*%
X195035333Y-84562812D02*
X194987714Y-84610432D01*
X194987714Y-84610432D02*
X194844857Y-84658051D01*
X194844857Y-84658051D02*
X194749619Y-84658051D01*
X194749619Y-84658051D02*
X194606762Y-84610432D01*
X194606762Y-84610432D02*
X194511524Y-84515193D01*
X194511524Y-84515193D02*
X194463905Y-84419955D01*
X194463905Y-84419955D02*
X194416286Y-84229479D01*
X194416286Y-84229479D02*
X194416286Y-84086622D01*
X194416286Y-84086622D02*
X194463905Y-83896146D01*
X194463905Y-83896146D02*
X194511524Y-83800908D01*
X194511524Y-83800908D02*
X194606762Y-83705670D01*
X194606762Y-83705670D02*
X194749619Y-83658051D01*
X194749619Y-83658051D02*
X194844857Y-83658051D01*
X194844857Y-83658051D02*
X194987714Y-83705670D01*
X194987714Y-83705670D02*
X195035333Y-83753289D01*
X195987714Y-84658051D02*
X195416286Y-84658051D01*
X195702000Y-84658051D02*
X195702000Y-83658051D01*
X195702000Y-83658051D02*
X195606762Y-83800908D01*
X195606762Y-83800908D02*
X195511524Y-83896146D01*
X195511524Y-83896146D02*
X195416286Y-83943765D01*
%TO.C,C3*%
X169533333Y-118096812D02*
X169485714Y-118144432D01*
X169485714Y-118144432D02*
X169342857Y-118192051D01*
X169342857Y-118192051D02*
X169247619Y-118192051D01*
X169247619Y-118192051D02*
X169104762Y-118144432D01*
X169104762Y-118144432D02*
X169009524Y-118049193D01*
X169009524Y-118049193D02*
X168961905Y-117953955D01*
X168961905Y-117953955D02*
X168914286Y-117763479D01*
X168914286Y-117763479D02*
X168914286Y-117620622D01*
X168914286Y-117620622D02*
X168961905Y-117430146D01*
X168961905Y-117430146D02*
X169009524Y-117334908D01*
X169009524Y-117334908D02*
X169104762Y-117239670D01*
X169104762Y-117239670D02*
X169247619Y-117192051D01*
X169247619Y-117192051D02*
X169342857Y-117192051D01*
X169342857Y-117192051D02*
X169485714Y-117239670D01*
X169485714Y-117239670D02*
X169533333Y-117287289D01*
X169866667Y-117192051D02*
X170485714Y-117192051D01*
X170485714Y-117192051D02*
X170152381Y-117573003D01*
X170152381Y-117573003D02*
X170295238Y-117573003D01*
X170295238Y-117573003D02*
X170390476Y-117620622D01*
X170390476Y-117620622D02*
X170438095Y-117668241D01*
X170438095Y-117668241D02*
X170485714Y-117763479D01*
X170485714Y-117763479D02*
X170485714Y-118001574D01*
X170485714Y-118001574D02*
X170438095Y-118096812D01*
X170438095Y-118096812D02*
X170390476Y-118144432D01*
X170390476Y-118144432D02*
X170295238Y-118192051D01*
X170295238Y-118192051D02*
X170009524Y-118192051D01*
X170009524Y-118192051D02*
X169914286Y-118144432D01*
X169914286Y-118144432D02*
X169866667Y-118096812D01*
%TO.C,D5*%
X166239405Y-66462819D02*
X166239405Y-65462819D01*
X166239405Y-65462819D02*
X166477500Y-65462819D01*
X166477500Y-65462819D02*
X166620357Y-65510438D01*
X166620357Y-65510438D02*
X166715595Y-65605676D01*
X166715595Y-65605676D02*
X166763214Y-65700914D01*
X166763214Y-65700914D02*
X166810833Y-65891390D01*
X166810833Y-65891390D02*
X166810833Y-66034247D01*
X166810833Y-66034247D02*
X166763214Y-66224723D01*
X166763214Y-66224723D02*
X166715595Y-66319961D01*
X166715595Y-66319961D02*
X166620357Y-66415200D01*
X166620357Y-66415200D02*
X166477500Y-66462819D01*
X166477500Y-66462819D02*
X166239405Y-66462819D01*
X167715595Y-65462819D02*
X167239405Y-65462819D01*
X167239405Y-65462819D02*
X167191786Y-65939009D01*
X167191786Y-65939009D02*
X167239405Y-65891390D01*
X167239405Y-65891390D02*
X167334643Y-65843771D01*
X167334643Y-65843771D02*
X167572738Y-65843771D01*
X167572738Y-65843771D02*
X167667976Y-65891390D01*
X167667976Y-65891390D02*
X167715595Y-65939009D01*
X167715595Y-65939009D02*
X167763214Y-66034247D01*
X167763214Y-66034247D02*
X167763214Y-66272342D01*
X167763214Y-66272342D02*
X167715595Y-66367580D01*
X167715595Y-66367580D02*
X167667976Y-66415200D01*
X167667976Y-66415200D02*
X167572738Y-66462819D01*
X167572738Y-66462819D02*
X167334643Y-66462819D01*
X167334643Y-66462819D02*
X167239405Y-66415200D01*
X167239405Y-66415200D02*
X167191786Y-66367580D01*
%TO.C,TP1*%
X170838095Y-130842051D02*
X171409523Y-130842051D01*
X171123809Y-131842051D02*
X171123809Y-130842051D01*
X171742857Y-131842051D02*
X171742857Y-130842051D01*
X171742857Y-130842051D02*
X172123809Y-130842051D01*
X172123809Y-130842051D02*
X172219047Y-130889670D01*
X172219047Y-130889670D02*
X172266666Y-130937289D01*
X172266666Y-130937289D02*
X172314285Y-131032527D01*
X172314285Y-131032527D02*
X172314285Y-131175384D01*
X172314285Y-131175384D02*
X172266666Y-131270622D01*
X172266666Y-131270622D02*
X172219047Y-131318241D01*
X172219047Y-131318241D02*
X172123809Y-131365860D01*
X172123809Y-131365860D02*
X171742857Y-131365860D01*
X173266666Y-131842051D02*
X172695238Y-131842051D01*
X172980952Y-131842051D02*
X172980952Y-130842051D01*
X172980952Y-130842051D02*
X172885714Y-130984908D01*
X172885714Y-130984908D02*
X172790476Y-131080146D01*
X172790476Y-131080146D02*
X172695238Y-131127765D01*
%TO.C,D1*%
X177651905Y-120087819D02*
X177651905Y-119087819D01*
X177651905Y-119087819D02*
X177890000Y-119087819D01*
X177890000Y-119087819D02*
X178032857Y-119135438D01*
X178032857Y-119135438D02*
X178128095Y-119230676D01*
X178128095Y-119230676D02*
X178175714Y-119325914D01*
X178175714Y-119325914D02*
X178223333Y-119516390D01*
X178223333Y-119516390D02*
X178223333Y-119659247D01*
X178223333Y-119659247D02*
X178175714Y-119849723D01*
X178175714Y-119849723D02*
X178128095Y-119944961D01*
X178128095Y-119944961D02*
X178032857Y-120040200D01*
X178032857Y-120040200D02*
X177890000Y-120087819D01*
X177890000Y-120087819D02*
X177651905Y-120087819D01*
X179175714Y-120087819D02*
X178604286Y-120087819D01*
X178890000Y-120087819D02*
X178890000Y-119087819D01*
X178890000Y-119087819D02*
X178794762Y-119230676D01*
X178794762Y-119230676D02*
X178699524Y-119325914D01*
X178699524Y-119325914D02*
X178604286Y-119373533D01*
%TO.C,R3*%
X181818333Y-110602819D02*
X181485000Y-110126628D01*
X181246905Y-110602819D02*
X181246905Y-109602819D01*
X181246905Y-109602819D02*
X181627857Y-109602819D01*
X181627857Y-109602819D02*
X181723095Y-109650438D01*
X181723095Y-109650438D02*
X181770714Y-109698057D01*
X181770714Y-109698057D02*
X181818333Y-109793295D01*
X181818333Y-109793295D02*
X181818333Y-109936152D01*
X181818333Y-109936152D02*
X181770714Y-110031390D01*
X181770714Y-110031390D02*
X181723095Y-110079009D01*
X181723095Y-110079009D02*
X181627857Y-110126628D01*
X181627857Y-110126628D02*
X181246905Y-110126628D01*
X182151667Y-109602819D02*
X182770714Y-109602819D01*
X182770714Y-109602819D02*
X182437381Y-109983771D01*
X182437381Y-109983771D02*
X182580238Y-109983771D01*
X182580238Y-109983771D02*
X182675476Y-110031390D01*
X182675476Y-110031390D02*
X182723095Y-110079009D01*
X182723095Y-110079009D02*
X182770714Y-110174247D01*
X182770714Y-110174247D02*
X182770714Y-110412342D01*
X182770714Y-110412342D02*
X182723095Y-110507580D01*
X182723095Y-110507580D02*
X182675476Y-110555200D01*
X182675476Y-110555200D02*
X182580238Y-110602819D01*
X182580238Y-110602819D02*
X182294524Y-110602819D01*
X182294524Y-110602819D02*
X182199286Y-110555200D01*
X182199286Y-110555200D02*
X182151667Y-110507580D01*
D10*
%TO.C,J1*%
X164666666Y-129352619D02*
X164666666Y-130066904D01*
X164666666Y-130066904D02*
X164619047Y-130209761D01*
X164619047Y-130209761D02*
X164523809Y-130305000D01*
X164523809Y-130305000D02*
X164380952Y-130352619D01*
X164380952Y-130352619D02*
X164285714Y-130352619D01*
X165666666Y-130352619D02*
X165095238Y-130352619D01*
X165380952Y-130352619D02*
X165380952Y-129352619D01*
X165380952Y-129352619D02*
X165285714Y-129495476D01*
X165285714Y-129495476D02*
X165190476Y-129590714D01*
X165190476Y-129590714D02*
X165095238Y-129638333D01*
D12*
%TO.C,R7*%
X163700333Y-61393051D02*
X163367000Y-60916860D01*
X163128905Y-61393051D02*
X163128905Y-60393051D01*
X163128905Y-60393051D02*
X163509857Y-60393051D01*
X163509857Y-60393051D02*
X163605095Y-60440670D01*
X163605095Y-60440670D02*
X163652714Y-60488289D01*
X163652714Y-60488289D02*
X163700333Y-60583527D01*
X163700333Y-60583527D02*
X163700333Y-60726384D01*
X163700333Y-60726384D02*
X163652714Y-60821622D01*
X163652714Y-60821622D02*
X163605095Y-60869241D01*
X163605095Y-60869241D02*
X163509857Y-60916860D01*
X163509857Y-60916860D02*
X163128905Y-60916860D01*
X164033667Y-60393051D02*
X164700333Y-60393051D01*
X164700333Y-60393051D02*
X164271762Y-61393051D01*
%TO.C,U2*%
X194440119Y-104262104D02*
X195249642Y-104262104D01*
X195249642Y-104262104D02*
X195344880Y-104214485D01*
X195344880Y-104214485D02*
X195392500Y-104166866D01*
X195392500Y-104166866D02*
X195440119Y-104071628D01*
X195440119Y-104071628D02*
X195440119Y-103881152D01*
X195440119Y-103881152D02*
X195392500Y-103785914D01*
X195392500Y-103785914D02*
X195344880Y-103738295D01*
X195344880Y-103738295D02*
X195249642Y-103690676D01*
X195249642Y-103690676D02*
X194440119Y-103690676D01*
X194535357Y-103262104D02*
X194487738Y-103214485D01*
X194487738Y-103214485D02*
X194440119Y-103119247D01*
X194440119Y-103119247D02*
X194440119Y-102881152D01*
X194440119Y-102881152D02*
X194487738Y-102785914D01*
X194487738Y-102785914D02*
X194535357Y-102738295D01*
X194535357Y-102738295D02*
X194630595Y-102690676D01*
X194630595Y-102690676D02*
X194725833Y-102690676D01*
X194725833Y-102690676D02*
X194868690Y-102738295D01*
X194868690Y-102738295D02*
X195440119Y-103309723D01*
X195440119Y-103309723D02*
X195440119Y-102690676D01*
%TO.C,Y1*%
X189645809Y-86195860D02*
X189645809Y-86672051D01*
X189312476Y-85672051D02*
X189645809Y-86195860D01*
X189645809Y-86195860D02*
X189979142Y-85672051D01*
X190836285Y-86672051D02*
X190264857Y-86672051D01*
X190550571Y-86672051D02*
X190550571Y-85672051D01*
X190550571Y-85672051D02*
X190455333Y-85814908D01*
X190455333Y-85814908D02*
X190360095Y-85910146D01*
X190360095Y-85910146D02*
X190264857Y-85957765D01*
%TO.C,R2*%
X178223333Y-117962819D02*
X177890000Y-117486628D01*
X177651905Y-117962819D02*
X177651905Y-116962819D01*
X177651905Y-116962819D02*
X178032857Y-116962819D01*
X178032857Y-116962819D02*
X178128095Y-117010438D01*
X178128095Y-117010438D02*
X178175714Y-117058057D01*
X178175714Y-117058057D02*
X178223333Y-117153295D01*
X178223333Y-117153295D02*
X178223333Y-117296152D01*
X178223333Y-117296152D02*
X178175714Y-117391390D01*
X178175714Y-117391390D02*
X178128095Y-117439009D01*
X178128095Y-117439009D02*
X178032857Y-117486628D01*
X178032857Y-117486628D02*
X177651905Y-117486628D01*
X178604286Y-117058057D02*
X178651905Y-117010438D01*
X178651905Y-117010438D02*
X178747143Y-116962819D01*
X178747143Y-116962819D02*
X178985238Y-116962819D01*
X178985238Y-116962819D02*
X179080476Y-117010438D01*
X179080476Y-117010438D02*
X179128095Y-117058057D01*
X179128095Y-117058057D02*
X179175714Y-117153295D01*
X179175714Y-117153295D02*
X179175714Y-117248533D01*
X179175714Y-117248533D02*
X179128095Y-117391390D01*
X179128095Y-117391390D02*
X178556667Y-117962819D01*
X178556667Y-117962819D02*
X179175714Y-117962819D01*
%TO.C,SW1*%
X134275000Y-64917764D02*
X134322619Y-64774907D01*
X134322619Y-64774907D02*
X134322619Y-64536812D01*
X134322619Y-64536812D02*
X134275000Y-64441574D01*
X134275000Y-64441574D02*
X134227380Y-64393955D01*
X134227380Y-64393955D02*
X134132142Y-64346336D01*
X134132142Y-64346336D02*
X134036904Y-64346336D01*
X134036904Y-64346336D02*
X133941666Y-64393955D01*
X133941666Y-64393955D02*
X133894047Y-64441574D01*
X133894047Y-64441574D02*
X133846428Y-64536812D01*
X133846428Y-64536812D02*
X133798809Y-64727288D01*
X133798809Y-64727288D02*
X133751190Y-64822526D01*
X133751190Y-64822526D02*
X133703571Y-64870145D01*
X133703571Y-64870145D02*
X133608333Y-64917764D01*
X133608333Y-64917764D02*
X133513095Y-64917764D01*
X133513095Y-64917764D02*
X133417857Y-64870145D01*
X133417857Y-64870145D02*
X133370238Y-64822526D01*
X133370238Y-64822526D02*
X133322619Y-64727288D01*
X133322619Y-64727288D02*
X133322619Y-64489193D01*
X133322619Y-64489193D02*
X133370238Y-64346336D01*
X133322619Y-64013002D02*
X134322619Y-63774907D01*
X134322619Y-63774907D02*
X133608333Y-63584431D01*
X133608333Y-63584431D02*
X134322619Y-63393955D01*
X134322619Y-63393955D02*
X133322619Y-63155860D01*
X134322619Y-62251098D02*
X134322619Y-62822526D01*
X134322619Y-62536812D02*
X133322619Y-62536812D01*
X133322619Y-62536812D02*
X133465476Y-62632050D01*
X133465476Y-62632050D02*
X133560714Y-62727288D01*
X133560714Y-62727288D02*
X133608333Y-62822526D01*
%TO.C,D4*%
X180561905Y-89712819D02*
X180561905Y-88712819D01*
X180561905Y-88712819D02*
X180800000Y-88712819D01*
X180800000Y-88712819D02*
X180942857Y-88760438D01*
X180942857Y-88760438D02*
X181038095Y-88855676D01*
X181038095Y-88855676D02*
X181085714Y-88950914D01*
X181085714Y-88950914D02*
X181133333Y-89141390D01*
X181133333Y-89141390D02*
X181133333Y-89284247D01*
X181133333Y-89284247D02*
X181085714Y-89474723D01*
X181085714Y-89474723D02*
X181038095Y-89569961D01*
X181038095Y-89569961D02*
X180942857Y-89665200D01*
X180942857Y-89665200D02*
X180800000Y-89712819D01*
X180800000Y-89712819D02*
X180561905Y-89712819D01*
X181990476Y-89046152D02*
X181990476Y-89712819D01*
X181752381Y-88665200D02*
X181514286Y-89379485D01*
X181514286Y-89379485D02*
X182133333Y-89379485D01*
%TO.C,R5*%
X181353333Y-85777051D02*
X181020000Y-85300860D01*
X180781905Y-85777051D02*
X180781905Y-84777051D01*
X180781905Y-84777051D02*
X181162857Y-84777051D01*
X181162857Y-84777051D02*
X181258095Y-84824670D01*
X181258095Y-84824670D02*
X181305714Y-84872289D01*
X181305714Y-84872289D02*
X181353333Y-84967527D01*
X181353333Y-84967527D02*
X181353333Y-85110384D01*
X181353333Y-85110384D02*
X181305714Y-85205622D01*
X181305714Y-85205622D02*
X181258095Y-85253241D01*
X181258095Y-85253241D02*
X181162857Y-85300860D01*
X181162857Y-85300860D02*
X180781905Y-85300860D01*
X182258095Y-84777051D02*
X181781905Y-84777051D01*
X181781905Y-84777051D02*
X181734286Y-85253241D01*
X181734286Y-85253241D02*
X181781905Y-85205622D01*
X181781905Y-85205622D02*
X181877143Y-85158003D01*
X181877143Y-85158003D02*
X182115238Y-85158003D01*
X182115238Y-85158003D02*
X182210476Y-85205622D01*
X182210476Y-85205622D02*
X182258095Y-85253241D01*
X182258095Y-85253241D02*
X182305714Y-85348479D01*
X182305714Y-85348479D02*
X182305714Y-85586574D01*
X182305714Y-85586574D02*
X182258095Y-85681812D01*
X182258095Y-85681812D02*
X182210476Y-85729432D01*
X182210476Y-85729432D02*
X182115238Y-85777051D01*
X182115238Y-85777051D02*
X181877143Y-85777051D01*
X181877143Y-85777051D02*
X181781905Y-85729432D01*
X181781905Y-85729432D02*
X181734286Y-85681812D01*
D14*
%TO.C,TP2*%
X173373000Y-125573432D02*
G75*
G03*
X173373000Y-125573432I-1251000J0D01*
G01*
%TO.C,U3*%
X170470000Y-115049432D02*
X170470000Y-114779432D01*
X170470000Y-114779432D02*
X173300000Y-114779432D01*
X170470000Y-108419432D02*
X171570000Y-108419432D01*
X170470000Y-108149432D02*
X170470000Y-108419432D01*
X164050000Y-115049432D02*
X170470000Y-115049432D01*
X164050000Y-108149432D02*
X170470000Y-108149432D01*
%TO.C,C2*%
X182006267Y-115610200D02*
X181713733Y-115610200D01*
X182006267Y-114590200D02*
X181713733Y-114590200D01*
%TO.C,D6*%
X167712500Y-61827700D02*
X166242500Y-61827700D01*
X166242500Y-61827700D02*
X166242500Y-64287700D01*
X167712500Y-64287700D02*
X167712500Y-61827700D01*
%TO.C,R8*%
X129022500Y-122245276D02*
X129022500Y-122754724D01*
X127977500Y-122245276D02*
X127977500Y-122754724D01*
%TO.C,C7*%
X171146267Y-107309432D02*
X170853733Y-107309432D01*
X171146267Y-106289432D02*
X170853733Y-106289432D01*
%TO.C,C5*%
X182534000Y-121174199D02*
X182534000Y-120881665D01*
X183554000Y-121174199D02*
X183554000Y-120881665D01*
%TO.C,C8*%
X184895733Y-85185432D02*
X185188267Y-85185432D01*
X184895733Y-86205432D02*
X185188267Y-86205432D01*
%TO.C,D7*%
X127765000Y-128660000D02*
X129235000Y-128660000D01*
X129235000Y-128660000D02*
X129235000Y-126200000D01*
X127765000Y-126200000D02*
X127765000Y-128660000D01*
%TO.C,U1*%
X194607500Y-120360200D02*
X184327500Y-120360200D01*
X184327500Y-120360200D02*
X184327500Y-125660200D01*
X194607500Y-122010200D02*
X194607500Y-120360200D01*
X194607500Y-125660200D02*
X194607500Y-124010200D01*
X184327500Y-125660200D02*
X194607500Y-125660200D01*
X194607500Y-122010200D02*
G75*
G03*
X194607500Y-124010200I0J-1000000D01*
G01*
%TO.C,D2*%
X174400000Y-113809432D02*
X176400000Y-113809432D01*
X174400000Y-113809432D02*
X174400000Y-109949432D01*
X176400000Y-113809432D02*
X176400000Y-109949432D01*
%TO.C,U5*%
X100530000Y-83470000D02*
X100530000Y-129230000D01*
X100530000Y-83470000D02*
X125790000Y-83470000D01*
X106530000Y-87730000D02*
X106530000Y-83470000D01*
X113790000Y-83470000D02*
X113790000Y-87730000D01*
X113790000Y-87730000D02*
X106530000Y-87730000D01*
X125790000Y-83470000D02*
X125790000Y-129230000D01*
X125790000Y-129230000D02*
X100530000Y-129230000D01*
%TO.C,R6*%
X164712500Y-68185636D02*
X164712500Y-68639764D01*
X163242500Y-68185636D02*
X163242500Y-68639764D01*
%TO.C,R4*%
X173712500Y-85273136D02*
X173712500Y-85727264D01*
X172242500Y-85273136D02*
X172242500Y-85727264D01*
D15*
%TO.C,U4*%
X160762500Y-54225000D02*
X160762500Y-115725000D01*
X152312500Y-54225000D02*
X160762500Y-54225000D01*
X144212500Y-54225000D02*
X152312500Y-54225000D01*
X135762500Y-54225000D02*
X144212500Y-54225000D01*
X160762500Y-115725000D02*
X153462500Y-115725000D01*
X153462500Y-115725000D02*
X142462500Y-115725000D01*
X142462500Y-115725000D02*
X135762500Y-115725000D01*
X135762500Y-115725000D02*
X135762500Y-54225000D01*
D14*
%TO.C,C6*%
X168162500Y-96651932D02*
X168950000Y-96651932D01*
X168556250Y-96258182D02*
X168556250Y-97045682D01*
X169190000Y-96153869D02*
X169190000Y-97439432D01*
X169190000Y-96153869D02*
X170254437Y-95089432D01*
X169190000Y-100844995D02*
X169190000Y-99559432D01*
X169190000Y-100844995D02*
X170254437Y-101909432D01*
X170254437Y-95089432D02*
X176010000Y-95089432D01*
X170254437Y-101909432D02*
X176010000Y-101909432D01*
X176010000Y-95089432D02*
X176010000Y-97439432D01*
X176010000Y-101909432D02*
X176010000Y-99559432D01*
%TO.C,D3*%
X172242500Y-90910200D02*
X173712500Y-90910200D01*
X173712500Y-90910200D02*
X173712500Y-88450200D01*
X172242500Y-88450200D02*
X172242500Y-90910200D01*
%TO.C,R1*%
X193645276Y-128477500D02*
X194154724Y-128477500D01*
X193645276Y-129522500D02*
X194154724Y-129522500D01*
%TO.C,C4*%
X182534000Y-125746467D02*
X182534000Y-125453933D01*
X183554000Y-125746467D02*
X183554000Y-125453933D01*
%TO.C,C1*%
X195348267Y-86205432D02*
X195055733Y-86205432D01*
X195348267Y-85185432D02*
X195055733Y-85185432D01*
%TO.C,C3*%
X169846267Y-116809432D02*
X169553733Y-116809432D01*
X169846267Y-115789432D02*
X169553733Y-115789432D01*
%TO.C,D5*%
X167712500Y-66840200D02*
X166242500Y-66840200D01*
X166242500Y-66840200D02*
X166242500Y-69300200D01*
X167712500Y-69300200D02*
X167712500Y-66840200D01*
%TO.C,TP1*%
X173351000Y-129129432D02*
G75*
G03*
X173351000Y-129129432I-1251000J0D01*
G01*
%TO.C,D1*%
X177050000Y-120235200D02*
X177050000Y-118765200D01*
X177050000Y-118765200D02*
X174590000Y-118765200D01*
X174590000Y-120235200D02*
X177050000Y-120235200D01*
%TO.C,R3*%
X181757936Y-111055200D02*
X182212064Y-111055200D01*
X181757936Y-112525200D02*
X182212064Y-112525200D01*
D10*
%TO.C,J1*%
X160000000Y-131390000D02*
X160000000Y-141390000D01*
X160000000Y-131390000D02*
X161000000Y-131390000D01*
X160000000Y-135640000D02*
X170000000Y-135640000D01*
X160000000Y-141390000D02*
X160500000Y-141390000D01*
X160500000Y-135640000D02*
X160500000Y-138640000D01*
X160500000Y-138640000D02*
X161300000Y-138640000D01*
X161000000Y-131390000D02*
X161000000Y-134940000D01*
X161000000Y-139890000D02*
X161000000Y-140890000D01*
X161300000Y-138640000D02*
X161500000Y-138440000D01*
X161500000Y-137990000D02*
X160500000Y-137990000D01*
X161500000Y-138440000D02*
X161500000Y-135640000D01*
X161500000Y-139390000D02*
X162300000Y-139390000D01*
X162300000Y-139390000D02*
X162500000Y-139190000D01*
X162400000Y-139290000D02*
X163600000Y-139290000D01*
X162500000Y-136140000D02*
X162500000Y-139190000D01*
X162500000Y-136140000D02*
X163500000Y-136140000D01*
X163500000Y-136140000D02*
X163500000Y-139190000D01*
X163500000Y-139190000D02*
X163700000Y-139390000D01*
X163700000Y-139390000D02*
X166300000Y-139390000D01*
X166300000Y-139390000D02*
X166500000Y-139190000D01*
X166400000Y-139290000D02*
X167600000Y-139290000D01*
X166500000Y-136140000D02*
X166500000Y-139190000D01*
X167500000Y-136140000D02*
X166500000Y-136140000D01*
X167500000Y-136140000D02*
X167500000Y-139190000D01*
X167500000Y-139190000D02*
X167700000Y-139390000D01*
X167700000Y-139390000D02*
X168500000Y-139390000D01*
X168500000Y-137990000D02*
X169500000Y-137990000D01*
X168500000Y-138440000D02*
X168500000Y-135640000D01*
X168500000Y-138440000D02*
X168700000Y-138640000D01*
X169000000Y-131390000D02*
X169000000Y-134940000D01*
X169000000Y-134940000D02*
X161000000Y-134940000D01*
X169000000Y-139890000D02*
X169000000Y-140890000D01*
X169500000Y-135640000D02*
X169500000Y-138640000D01*
X169500000Y-138640000D02*
X168700000Y-138640000D01*
X170000000Y-131390000D02*
X169000000Y-131390000D01*
X170000000Y-131390000D02*
X170000000Y-141390000D01*
X170000000Y-141390000D02*
X169500000Y-141390000D01*
X161500000Y-139390000D02*
G75*
G03*
X161000000Y-139890000I1J-500001D01*
G01*
X160500000Y-141390000D02*
G75*
G03*
X161000000Y-140890000I-1J500001D01*
G01*
X169000000Y-139890000D02*
G75*
G03*
X168500000Y-139390000I-500000J0D01*
G01*
X169000000Y-140890000D02*
G75*
G03*
X169500000Y-141390000I500000J0D01*
G01*
X162000000Y-130390000D02*
X161750000Y-130140000D01*
X162250000Y-130140000D01*
X162000000Y-130390000D01*
G36*
X162000000Y-130390000D02*
G01*
X161750000Y-130140000D01*
X162250000Y-130140000D01*
X162000000Y-130390000D01*
G37*
D14*
%TO.C,R7*%
X164625000Y-63260636D02*
X164625000Y-63714764D01*
X163155000Y-63260636D02*
X163155000Y-63714764D01*
%TO.C,U2*%
X191937500Y-116370200D02*
X191937500Y-93390200D01*
X191937500Y-93390200D02*
X186637500Y-93390200D01*
X190287500Y-116370200D02*
X191937500Y-116370200D01*
X186637500Y-116370200D02*
X188287500Y-116370200D01*
X186637500Y-93390200D02*
X186637500Y-116370200D01*
X190287500Y-116370200D02*
G75*
G03*
X188287500Y-116370200I-1000000J0D01*
G01*
%TO.C,Y1*%
X183422000Y-87209432D02*
X183422000Y-92309432D01*
X183422000Y-92309432D02*
X196022000Y-92309432D01*
X196022000Y-87209432D02*
X183422000Y-87209432D01*
%TO.C,R2*%
X175644724Y-118022700D02*
X175135276Y-118022700D01*
X175644724Y-116977700D02*
X175135276Y-116977700D01*
%TO.C,SW1*%
X131560000Y-56264432D02*
X129940000Y-56264432D01*
X131560000Y-56264432D02*
X131560000Y-58124432D01*
X129940000Y-56264432D02*
X129940000Y-58124432D01*
X129020000Y-56264432D02*
X127400000Y-56264432D01*
X129020000Y-56264432D02*
X129020000Y-58124432D01*
X127400000Y-56264432D02*
X127400000Y-58124432D01*
X133100000Y-57884432D02*
X131717000Y-57884432D01*
X133100000Y-57884432D02*
X133100000Y-59267432D01*
X132860000Y-58124432D02*
X126100000Y-58124432D01*
X132860000Y-58124432D02*
X132860000Y-69044432D01*
X131560000Y-58124432D02*
X129940000Y-58124432D01*
X129020000Y-58124432D02*
X127400000Y-58124432D01*
X126100000Y-58124432D02*
X126100000Y-69044432D01*
X132860000Y-69044432D02*
X126100000Y-69044432D01*
%TO.C,D4*%
X178742500Y-90910200D02*
X180212500Y-90910200D01*
X180212500Y-90910200D02*
X180212500Y-88450200D01*
X178742500Y-88450200D02*
X178742500Y-90910200D01*
%TO.C,R5*%
X180212500Y-85110636D02*
X180212500Y-85564764D01*
X178742500Y-85110636D02*
X178742500Y-85564764D01*
%TD*%
M02*
